<svg xmlns="http://www.w3.org/2000/svg" width="19" height="19" viewBox="0 0 19 19">
  <defs>
    <style>
      .cls-1 {
        fill: #22316f;
        fill-rule: evenodd;
      }
    </style>
  </defs>
  <path id="Forma_1" data-name="Forma 1" class="cls-1" d="M178.917,569.8a0.8,0.8,0,0,0-.792-0.8h-6.333a0.8,0.8,0,0,0-.792.8v6.422a0.8,0.8,0,0,0,.792.8h6.333a0.8,0.8,0,0,0,.792-0.8V569.8Zm-6.334.8h4.75v4.817h-4.75v-4.817ZM190,569.8a0.8,0.8,0,0,0-.792-0.8h-6.333a0.8,0.8,0,0,0-.792.8v6.422a0.8,0.8,0,0,0,.792.8h6.333a0.8,0.8,0,0,0,.792-0.8V569.8Zm-6.333.8h4.75v4.817h-4.75v-4.817Zm-4.75,10.169a0.8,0.8,0,0,0-.792-0.8h-6.333a0.8,0.8,0,0,0-.792.8V587.2a0.8,0.8,0,0,0,.792.8h6.333a0.8,0.8,0,0,0,.792-0.8v-6.422Zm-6.334.8h4.75v4.817h-4.75v-4.817Zm17.417-.8a0.8,0.8,0,0,0-.792-0.8h-6.333a0.8,0.8,0,0,0-.792.8V587.2a0.8,0.8,0,0,0,.792.8h6.333a0.8,0.8,0,0,0,.792-0.8v-6.422Zm-6.333.8h4.75v4.817h-4.75v-4.817Z" transform="translate(-171 -569)"/>
</svg>
