<svg xmlns="http://www.w3.org/2000/svg" width="22.407" height="22.375" viewBox="0 0 22.407 22.375">
  <defs>
    <style>
      .cls-1 {
        fill: #707070;
        fill-rule: evenodd;
      }
    </style>
  </defs>
  <path id="Forma_1_copy" data-name="Forma 1 copy" class="cls-1" d="M463.372,572.138a2.586,2.586,0,0,0,.69-1.764,2.552,2.552,0,0,0-2.528-2.574c-1.051,0-3.474,1.572-4.443,2.985-1-1.413-3.415-2.939-4.425-2.939a2.554,2.554,0,0,0-2.528,2.573,2.593,2.593,0,0,0,.644,1.715H445.9v6.148h1.335V590.2H466.97V578.287h1.33v-6.149h-4.928Zm-1.838-3.383a1.608,1.608,0,0,1,1.573,1.669,1.666,1.666,0,0,1-1.289,1.641H457.95a0.384,0.384,0,0,1-.324-0.21C457.626,571.041,460.483,568.755,461.534,568.755Zm-8.868,0c1,0,3.908,2.286,3.908,3.1a0.5,0.5,0,0,1-.292.21h-3.895a1.666,1.666,0,0,1-1.289-1.641A1.632,1.632,0,0,1,452.666,568.755Zm1.572,20.49h-6.052V578.287h6.052v10.958Zm0-11.863h-7.382v-4.288h7.387v4.288h0Zm4.768,11.863h-3.812V573.089h3.812v16.156Zm7.008,0h-6.052V578.287h6.052v10.958Zm1.331-11.863h-7.383v-4.288h7.387v4.288h0Z" transform="translate(-445.906 -567.813)"/>
</svg>
