<svg xmlns="http://www.w3.org/2000/svg" width="24" height="20.782" viewBox="0 0 24 20.782">
  <defs>
    <style>
      .cls-1 {
        fill: #707070;
        fill-rule: evenodd;
      }
    </style>
  </defs>
  <path id="Forma_1_copy" data-name="Forma 1 copy" class="cls-1" d="M311.985,584.933H306.5a0.534,0.534,0,1,0,0,1.067h5.484A0.534,0.534,0,1,0,311.985,584.933Zm8.2,0H314.7a0.534,0.534,0,1,0,0,1.067h5.484A0.534,0.534,0,1,0,320.184,584.933Zm0-13.333H306.5a0.534,0.534,0,1,0,0,1.067h13.683A0.534,0.534,0,1,0,320.184,571.6Zm0,2.667H314.7a0.534,0.534,0,1,0,0,1.067h5.484A0.534,0.534,0,1,0,320.184,574.267Zm0,2.666H314.7a0.534,0.534,0,1,0,0,1.067h5.484A0.534,0.534,0,1,0,320.184,576.933Zm0,2.667H314.7a0.534,0.534,0,1,0,0,1.067h5.484A0.534,0.534,0,1,0,320.184,579.6Zm0,2.666H314.7a0.534,0.534,0,1,0,0,1.067h5.484A0.534,0.534,0,1,0,320.184,582.266Zm-8.2,0H306.5a0.534,0.534,0,1,0,0,1.067h5.484A0.534,0.534,0,1,0,311.985,582.266Zm0-8H306.5a0.538,0.538,0,0,0-.543.533v5.387a0.538,0.538,0,0,0,.543.533h5.484a0.538,0.538,0,0,0,.543-0.533V574.8A0.538,0.538,0,0,0,311.985,574.267Zm-0.543,5.386h-4.4v-4.319h4.4v4.319Zm14.172-8.586h-1.629v-1.6A1.077,1.077,0,0,0,322.9,568.4H303.786a1.077,1.077,0,0,0-1.086,1.067v17.066a2.694,2.694,0,0,0,2.715,2.667h18.57a2.694,2.694,0,0,0,2.715-2.667v-14.4A1.077,1.077,0,0,0,325.614,571.067Zm0,15.466a1.616,1.616,0,0,1-1.629,1.6h-18.57a1.616,1.616,0,0,1-1.629-1.6V569.467H322.9v16.266a1.348,1.348,0,0,0,1.358,1.334,0.534,0.534,0,1,0,0-1.067,0.27,0.27,0,0,1-.272-0.267v-13.6h1.629v14.4Z" transform="translate(-302.688 -568.406)"/>
</svg>
