<?xml version="1.0" encoding="utf-8"?>
<!-- Generator: Adobe Illustrator 22.1.0, SVG Export Plug-In . SVG Version: 6.00 Build 0)  -->
<svg version="1.1" id="Layer_1" xmlns="http://www.w3.org/2000/svg" xmlns:xlink="http://www.w3.org/1999/xlink" x="0px" y="0px"
	 viewBox="0 0 2559.2 699.9" style="enable-background:new 0 0 2559.2 699.9;" xml:space="preserve">
<style type="text/css">
	.st0{opacity:0.2;}
	.st1{opacity:0.5;}
	.st2{fill:#BE1E2D;}
	.st3{fill-rule:evenodd;clip-rule:evenodd;fill:#FFFFFF;}
</style>
<g>
	<g class="st0">
		<g class="st1">
			<g>
				<g>
					<g>
						<path class="st2" d="M1501.9,376.8l2.5-3.7c0.1-0.2,13.1-19.9,4.5-39.7c-0.3-0.6-0.6-1.2-0.9-1.9l-1.4-3.1l0.1,0
							c-1.6-4.2-2.6-8.7-3.2-13.2c-3.8-33.8,23.3-65.7,60.4-71.3c3.7-0.6,7.5-0.8,11.1-0.8c33.2,0,59.8,21.9,63.2,52
							c1.9,16.4-3.4,32.9-14.9,46.4c-11.4,13.4-27.5,22.2-45.5,24.9c-3.7,0.6-7.4,0.8-11.1,0.8l0,0c-7.2,0-14.2-1-20.9-3.1
							c-12.3,6.9-28.5,10.4-39.9,12.1L1501.9,376.8z M1511,329.7L1511,329.7c0.3,0.6,0.6,1.2,0.9,1.8c7.4,16.9,1,33.1-2.7,40.2
							c11-1.9,25.1-5.3,35.8-11.5l0.6-0.3l0.6,0.2c6.6,2.1,13.5,3.2,20.6,3.2l0,0c3.5,0,7.1-0.3,10.7-0.8
							c17.2-2.6,32.6-11,43.5-23.8c10.8-12.6,15.7-28,14-43.2c-3.2-28.2-28.4-48.6-59.9-48.6c-3.5,0-7.1,0.3-10.7,0.8
							c-35.3,5.3-61.1,35.3-57.5,67c0.6,5.1,1.9,10,3.9,14.6L1511,329.7z"/>
					</g>
				</g>
				<g>
					<g>
						<path class="st2" d="M1539.9,321.2C1539.8,321.2,1539.8,321.2,1539.9,321.2c-5,0-9.3-4.3-10-10.1c-0.3-3.1,0.4-6.1,2-8.5
							c1.6-2.4,4-4,6.7-4.4c5.6-0.8,10.6,3.7,11.3,10c0.7,6.3-3.2,12.1-8.7,13C1540.7,321.2,1540.3,321.2,1539.9,321.2z
							 M1539.9,301.9c-0.3,0-0.6,0-0.9,0.1c-1.8,0.3-3.4,1.3-4.5,2.9c-1.1,1.6-1.6,3.7-1.3,5.7c0.4,3.8,3.3,6.7,6.7,6.7c0,0,0,0,0,0
							c0.3,0,0.6,0,0.9-0.1c3.7-0.5,6.3-4.4,5.8-8.6C1546.1,304.8,1543.2,301.9,1539.9,301.9z"/>
					</g>
				</g>
				<g>
					<g>
						<path class="st2" d="M1571.1,316.8L1571.1,316.8c-5,0-9.3-4.3-10-10.1c-0.3-3.1,0.4-6.1,2-8.5c1.6-2.4,4-4,6.7-4.4
							c5.5-0.9,10.6,3.7,11.3,10c0.7,6.3-3.2,12.1-8.7,13C1571.9,316.8,1571.5,316.8,1571.1,316.8z M1571.1,297.5
							c-0.3,0-0.6,0-0.9,0.1c-1.8,0.3-3.4,1.3-4.5,2.9c-1.1,1.6-1.6,3.6-1.3,5.7c0.4,3.8,3.3,6.7,6.6,6.7c0,0,0,0,0,0
							c0.3,0,0.6,0,0.9-0.1c3.7-0.5,6.3-4.4,5.8-8.6C1577.3,300.4,1574.4,297.5,1571.1,297.5z"/>
					</g>
				</g>
				<g>
					<g>
						<path class="st2" d="M1602.1,312.2c-5,0-9.3-4.3-10-10.1c-0.3-3.1,0.4-6.1,2-8.5c1.6-2.4,4-4,6.7-4.4
							c5.6-0.8,10.6,3.7,11.3,10c0.4,3.1-0.4,6.1-2,8.5c-1.6,2.4-4,4-6.7,4.4C1603,312.1,1602.5,312.2,1602.1,312.2z M1602.1,292.9
							c-0.3,0-0.6,0-0.9,0.1c-1.8,0.3-3.4,1.3-4.5,2.9c-1.1,1.6-1.6,3.7-1.3,5.7c0.5,4.2,3.8,7.2,7.5,6.6c1.8-0.3,3.4-1.3,4.5-2.9
							c1.1-1.6,1.6-3.7,1.3-5.7C1608.3,295.8,1605.5,292.9,1602.1,292.9z"/>
					</g>
				</g>
			</g>
			<g>
				<g>
					<polygon class="st2" points="901.6,426.1 898.5,415.2 1002.5,376.5 963.3,237.7 972.7,234.2 1015,383.9 986.4,394.6 
						985.2,390.4 1010.2,381.1 970.3,239.7 968.1,240.5 1007.3,379.3 903.3,418 904.1,420.6 968,396.8 969.2,401 					"/>
				</g>
				<g>
					<path class="st2" d="M899.8,419.5l-42.3-149.7l107.6-40l42.3,149.7L899.8,419.5z M862.3,272.5L902.2,414l100.3-37.3
						l-39.9-141.4L862.3,272.5z"/>
				</g>
				<g>
					<path class="st2" d="M891.7,321.4L880.6,282l72-26.8l11.1,39.3L891.7,321.4z M885.4,284.8l8.8,31l64.8-24.1l-8.8-31
						L885.4,284.8z"/>
				</g>
				<g>
					<path class="st2" d="M972.1,418.3l-7.7-27.4l20.8-7.8l7.7,27.4l-13.1-5.7L972.1,418.3z M969.1,393.7l4.1,14.7l5-8.8l8.6,3.7
						l-4.1-14.7L969.1,393.7z"/>
				</g>
			</g>
			<g>
				<path class="st2" d="M1042.6,295.5c-8.5,0-15.5-8-15.5-17.8c0-9.8,6.9-17.8,15.5-17.8c8.5,0,15.5,8,15.5,17.8
					C1058.1,287.5,1051.1,295.5,1042.6,295.5z M1042.6,264.3c-6.4,0-11.7,6-11.7,13.4c0,7.4,5.2,13.4,11.7,13.4
					c6.4,0,11.7-6,11.7-13.4C1054.3,270.3,1049,264.3,1042.6,264.3z"/>
			</g>
			<g>
				<path class="st2" d="M449.3,340.8c-8.5,0-15.5-8-15.5-17.8c0-9.8,6.9-17.8,15.5-17.8c8.5,0,15.5,8,15.5,17.8
					C464.7,332.8,457.8,340.8,449.3,340.8z M449.3,309.6c-6.4,0-11.7,6-11.7,13.4c0,7.4,5.2,13.4,11.7,13.4c6.4,0,11.7-6,11.7-13.4
					C460.9,315.6,455.7,309.6,449.3,309.6z"/>
			</g>
			<g>
				<path class="st2" d="M1423.1,366.2c-8.5,0-15.5-8-15.5-17.8c0-9.8,6.9-17.8,15.5-17.8c8.5,0,15.5,8,15.5,17.8
					C1438.6,358.2,1431.6,366.2,1423.1,366.2z M1423.1,335c-6.4,0-11.7,6-11.7,13.4c0,7.4,5.2,13.4,11.7,13.4
					c6.4,0,11.7-6,11.7-13.4C1434.8,341,1429.5,335,1423.1,335z"/>
			</g>
			<g>
				<path class="st2" d="M1964.6,240.6L1964.6,240.6c-0.8,0-1.6-0.1-2.3-0.2c-7.9-1.5-13.4-10.1-12.1-19.2c1.3-9,8.6-15.4,16.7-13.9
					c3.8,0.7,7.2,3.1,9.5,6.7c2.3,3.6,3.2,8.1,2.6,12.5C1977.8,234.6,1971.8,240.6,1964.6,240.6z M1964.6,211.2
					c-5.4,0-10,4.5-10.8,10.6c-1,6.9,3.1,13.4,9.1,14.5c6.1,1.1,11.7-3.6,12.6-10.5c0.5-3.3-0.2-6.7-1.9-9.4
					c-1.7-2.7-4.3-4.5-7.2-5.1C1965.7,211.2,1965.2,211.2,1964.6,211.2z"/>
			</g>
			<g>
				<path class="st2" d="M2544.6,516.9L2544.6,516.9c-0.8,0-1.6-0.1-2.3-0.2c-7.9-1.5-13.4-10.1-12.1-19.2c1.3-9,8.6-15.4,16.7-13.9
					c3.8,0.7,7.2,3.1,9.5,6.7c2.3,3.6,3.2,8.1,2.6,12.5C2557.9,511,2551.8,516.9,2544.6,516.9z M2544.6,487.6
					c-5.4,0-10,4.5-10.8,10.6c-1,6.9,3.1,13.4,9.1,14.5c6.1,1.1,11.7-3.6,12.6-10.5c0.5-3.3-0.2-6.7-1.9-9.4
					c-1.7-2.7-4.3-4.5-7.2-5.1C2545.8,487.6,2545.2,487.6,2544.6,487.6z"/>
			</g>
			<g>
				<g>
					<path class="st2" d="M1080.1,261.9l-0.2-4.4c3.2-0.2,6.4-0.4,9.5-0.6l0.2,4.4C1086.5,261.5,1083.3,261.7,1080.1,261.9z"/>
				</g>
				<g>
					<path class="st2" d="M1339.2,348.1c-6.7-0.8-13.1-1.9-19.1-3.1l0.7-4.3c5.9,1.2,12.2,2.3,18.8,3.1L1339.2,348.1z M1286.7,334.3
						c-6.1-2.8-11.8-5.9-17.5-9.5l1.9-3.8c5.5,3.6,11.1,6.6,17,9.3L1286.7,334.3z M1240.7,302.1c-4.8-4.2-9.9-8.6-15.4-12.8l2.1-3.6
						c5.6,4.2,10.8,8.7,15.6,13L1240.7,302.1z M1195,272.2c-5.7-2.2-11.8-4.1-18.2-5.7l0.8-4.3c6.6,1.6,12.8,3.5,18.6,5.8
						L1195,272.2z M1143,261.4c-6-0.5-12.4-0.7-19-0.9l0.1-4.4c6.7,0.1,13.1,0.4,19.2,0.9L1143,261.4z"/>
				</g>
				<g>
					<path class="st2" d="M1384,350.6c-3.3,0-6.4,0-9.5-0.1l0.1-4.4c3.1,0.1,6.2,0.1,9.5,0.1V350.6z"/>
				</g>
			</g>
			<g>
				<g>
					<path class="st2" d="M486.1,309.1l-1.7-3.9c2.9-1.7,5.8-3.2,8.6-4.8l1.6,4C491.9,305.9,489,307.4,486.1,309.1z"/>
				</g>
				<g>
					<path class="st2" d="M733.6,343.9c-6.1-0.9-12.1-2.4-18.2-4.5l1.1-4.2c5.9,2.1,11.6,3.5,17.5,4.3L733.6,343.9z M767,343
						l-0.6-4.3c5.7-1,11.6-2.6,17.6-4.5l1,4.2C778.9,340.4,772.8,341.9,767,343z M685,324c-5.4-3.4-10.6-7-15.9-10.7l2-3.7
						c5.3,3.6,10.4,7.2,15.7,10.6L685,324z M640.6,294.7c-5.8-3.3-11.2-6-16.6-8.2l1.3-4.1c5.5,2.3,11.1,5.1,17,8.4L640.6,294.7z
						 M525,290.2l-1.2-4.1c6-2.4,12-4.4,17.7-6.1l0.9,4.2C536.8,285.8,530.9,287.8,525,290.2z M592.5,278.5
						c-5.8-0.6-11.8-0.7-18-0.3l-0.2-4.4c6.4-0.4,12.5-0.3,18.5,0.3L592.5,278.5z"/>
				</g>
				<g>
					<path class="st2" d="M816.4,324.9l-1.6-4c2.8-1.5,5.6-3,8.5-4.7l1.7,3.9C822.1,321.8,819.2,323.4,816.4,324.9z"/>
				</g>
			</g>
			<g>
				<path class="st2" d="M14.6,699.9L14.6,699.9c-2.6,0-5.1-0.8-7.4-2.3c-6.9-4.7-9.3-14.9-5.2-22.9c2.6-5.1,7.4-8.3,12.6-8.3
					c2.6,0,5.1,0.8,7.4,2.3c3.4,2.3,5.7,5.9,6.7,10.2c1,4.3,0.4,8.8-1.5,12.7C24.5,696.7,19.7,699.9,14.6,699.9z M14.6,670.5
					c-3.9,0-7.5,2.4-9.5,6.2c-3.1,6-1.3,13.8,3.9,17.3c1.7,1.1,3.6,1.7,5.6,1.7c3.9,0,7.5-2.4,9.5-6.2c1.5-2.9,1.9-6.3,1.2-9.6
					c-0.7-3.3-2.5-6-5.1-7.7C18.5,671.1,16.5,670.5,14.6,670.5z"/>
			</g>
			<g>
				<g>
					<path class="st2" d="M31.1,648.6l-1.7-3.6c2.6-1.6,5.2-3.3,7.7-5.1l1.9,3.5C36.4,645.2,33.8,646.9,31.1,648.6z"/>
				</g>
				<g>
					<path class="st2" d="M66.2,619.1l-2.5-2.9c4.4-5,8.5-10.4,12.3-16.1l2.8,2.5C74.9,608.4,70.7,613.9,66.2,619.1z M96.5,568.5
						l-3.2-1.7c2.5-6.2,4.9-12.7,7.2-20l3.4,1.4C101.4,555.6,99,562.2,96.5,568.5z M114.2,510.7l-3.4-1.1l1.4-5.5
						c1.3-5.2,2.6-10.3,3.9-15.5l3.4,1.2c-1.3,5.1-2.6,10.2-3.9,15.4L114.2,510.7z M130.7,453l-3.3-1.6c2.7-7.2,5.5-13.7,8.6-19.7
						l3.1,2.1C136.2,439.6,133.4,445.9,130.7,453z M160.5,404.2l-2.3-3.1c4.8-4.7,10.1-9,15.7-12.8l1.8,3.6
						C170.2,395.5,165.1,399.7,160.5,404.2z"/>
				</g>
				<g>
					<path class="st2" d="M207,377.1l-1-4c2.8-0.9,5.7-1.7,8.8-2.5l0.8,4C212.6,375.4,209.8,376.2,207,377.1z"/>
				</g>
			</g>
			<g>
				<g>
					<path class="st2" d="M2233.1,396.7c-2.6-1.5-5.3-3.2-8-4.9l1.8-3.6c2.6,1.7,5.2,3.3,7.8,4.8L2233.1,396.7z"/>
				</g>
				<g>
					<path class="st2" d="M2489.2,431.1c-5.1-4.4-10.4-8.4-15.7-11.7l1.7-3.6c5.4,3.4,10.8,7.4,16.1,12L2489.2,431.1z M2318.2,417.8
						l-0.1-4.1c5.9-0.3,12.1-0.8,18.8-1.7l0.4,4.1C2330.5,417,2324.2,417.6,2318.2,417.8z M2283.9,415.7c-6.3-1.1-12.6-2.7-18.7-4.6
						l1-4c6,1.9,12.2,3.4,18.3,4.5L2283.9,415.7z M2371.1,410.3l-0.6-4c6-1.1,12.5-2.4,18.8-3.4l0.5,4.1
						C2383.5,408,2377.1,409.2,2371.1,410.3z M2442.1,406.5c-5.9-1.3-12-2-18.6-2.2l0.1-4.1c6.7,0.2,13,1,19.1,2.3L2442.1,406.5z"/>
				</g>
				<g>
					<path class="st2" d="M2519.7,465.2c-1.9-2.7-3.9-5.3-5.8-7.7l2.7-2.7c2,2.5,3.9,5.1,5.9,7.8L2519.7,465.2z"/>
				</g>
			</g>
			<g>
				<g>
					<path class="st2" d="M1961.7,222.1l-1.7-3.6c2.5-1.6,5.1-3.3,7.7-5.1l1.8,3.5C1966.9,218.7,1964.3,220.4,1961.7,222.1z"/>
				</g>
				<g>
					<path class="st2" d="M1873.9,258.3l-0.4-4.1c5.3-0.6,10.7-1.6,16.2-2.9l0.7,4C1884.9,256.7,1879.3,257.7,1873.9,258.3z
						 M1843.6,257.5c-5.4-0.9-10.8-2.2-16.5-4l0.9-4c5.6,1.7,10.8,3,16.1,3.9L1843.6,257.5z M1919.5,245.2l-1.3-3.8
						c4.9-2.2,10.1-4.6,15.2-7.4l1.5,3.7C1929.7,240.5,1924.5,243,1919.5,245.2z M1798.6,242.3c-5.2-2.3-10.3-4.4-15.6-6.4l1.1-3.9
						c5.3,2,10.5,4.2,15.7,6.5L1798.6,242.3z M1693.4,240.6l-1.3-3.8c5.4-2.5,10.7-4.7,15.8-6.5l1,3.9
						C1703.9,236,1698.7,238.2,1693.4,240.6z M1754.3,228.5c-5.4-0.6-10.7-0.7-16.3-0.4l-0.2-4.1c5.8-0.4,11.3-0.3,16.9,0.4
						L1754.3,228.5z"/>
				</g>
				<g>
					<path class="st2" d="M1658.8,260.6l-1.8-3.5c2.7-1.8,5.3-3.5,7.8-5.1l1.7,3.6C1664,257.1,1661.4,258.8,1658.8,260.6z"/>
				</g>
			</g>
			<g>
				<g>
					<path class="st2" d="M2178.2,440.4l-93.9-36.3l27.8-139l93.9,36.3L2178.2,440.4z M2088.6,401.4l87,33.7l26.2-131l-87-33.7
						L2088.6,401.4z"/>
				</g>
				<g>
					<path class="st2" d="M2087.4,404.9l-98.2-14.3l27.8-139l98.2,14.3L2087.4,404.9z M1993.6,387.1l91.1,13.3l26.2-131l-91.1-13.3
						L1993.6,387.1z"/>
				</g>
				<g>
					<path class="st2" d="M2087.6,404.7l-92.7-13.5l26.2-131.1l92.7,13.5L2087.6,404.7z M1999.3,387.7l85.6,12.5l24.6-123
						l-85.6-12.5L1999.3,387.7z"/>
				</g>
				<g>
					<polygon class="st2" points="2172.5,438 2084,403.8 2110.2,272.7 2150.4,288.2 2149.2,292.1 2112.8,278 2088.2,401.1 
						2169.9,432.7 2194.5,309.6 2166.1,298.7 2167.2,294.8 2198.7,306.9 					"/>
				</g>
				<g>
					<polygon class="st2" points="2043.8,355.8 2014.9,352 2015.3,347.9 2044.2,351.7 					"/>
				</g>
				<g>
					<polygon class="st2" points="2084.1,361 2055.2,357.2 2055.6,353.1 2084.5,357 					"/>
				</g>
				<g>
					<polygon class="st2" points="2040.6,371.7 2011.7,367.9 2012.1,363.8 2041,367.6 					"/>
				</g>
				<g>
					<polygon class="st2" points="2081,376.9 2052,373.1 2052.4,369 2081.4,372.8 					"/>
				</g>
				<g>
					<polygon class="st2" points="2049.8,325.9 2020.8,322.1 2021.2,318 2050.2,321.8 					"/>
				</g>
				<g>
					<polygon class="st2" points="2090.1,331.1 2061.2,327.3 2061.6,323.2 2090.5,327.1 					"/>
				</g>
				<g>
					<polygon class="st2" points="2046.6,341.8 2017.7,338 2018.1,333.9 2047,337.7 					"/>
				</g>
				<g>
					<polygon class="st2" points="2086.9,347 2058,343.2 2058.4,339.1 2087.3,342.9 					"/>
				</g>
				<g>
					<polygon class="st2" points="2055.7,296 2026.8,292.2 2027.2,288.1 2056.1,291.9 					"/>
				</g>
				<g>
					<polygon class="st2" points="2096.1,301.2 2067.1,297.4 2067.6,293.3 2096.5,297.2 					"/>
				</g>
				<g>
					<polygon class="st2" points="2052.6,311.9 2023.6,308.1 2024,304 2053,307.8 					"/>
				</g>
				<g>
					<polygon class="st2" points="2092.9,317.1 2064,313.3 2064.4,309.2 2093.3,313 					"/>
				</g>
				<g>
					<polygon class="st2" points="2170.5,393 2143,381.9 2144.1,378 2171.6,389.1 					"/>
				</g>
				<g>
					<polygon class="st2" points="2132.2,377.5 2104.7,366.5 2105.9,362.6 2133.3,373.6 					"/>
				</g>
				<g>
					<polygon class="st2" points="2167.3,408.8 2139.8,397.8 2141,393.9 2168.5,405 					"/>
				</g>
				<g>
					<polygon class="st2" points="2129,393.4 2101.5,382.3 2102.7,378.5 2130.2,389.5 					"/>
				</g>
				<g>
					<polygon class="st2" points="2176.4,363.1 2148.9,352 2150.1,348.2 2177.6,359.2 					"/>
				</g>
				<g>
					<polygon class="st2" points="2138.1,347.6 2110.6,336.6 2111.8,332.7 2139.3,343.7 					"/>
				</g>
				<g>
					<polygon class="st2" points="2173.3,378.9 2145.8,367.9 2147,364 2174.4,375.1 					"/>
				</g>
				<g>
					<polygon class="st2" points="2135,363.5 2107.5,352.4 2108.7,348.5 2136.1,359.6 					"/>
				</g>
				<g>
					<polygon class="st2" points="2182.4,333.2 2154.9,322.1 2156.1,318.3 2183.6,329.3 					"/>
				</g>
				<g>
					<polygon class="st2" points="2144.1,317.7 2116.6,306.7 2117.8,302.8 2145.3,313.8 					"/>
				</g>
				<g>
					<polygon class="st2" points="2179.2,349 2151.7,338 2152.9,334.1 2180.4,345.2 					"/>
				</g>
				<g>
					<polygon class="st2" points="2140.9,333.6 2113.4,322.5 2114.6,318.7 2142.1,329.7 					"/>
				</g>
				<g>
					<path class="st2" d="M2163.1,318.4l-7.7-10.7l-11.5,5.4l4.7-23.7l3.8-4.5l18.8,7.4l-4,5.1L2163.1,318.4z M2156.6,302.8l4.7,6.6
						l2.8-13.9l1-1.3l-11.5-4.5l-1.5,1.8l-3,14.9L2156.6,302.8z"/>
				</g>
			</g>
			<g>
				<path class="st2" d="M317.2,359c0.7,0.3,1.5,1.3,1.3,3.2c-0.1,2.3-2.9,5.7-5.3,6.8c-4.4,2-8.9-1.3-10.7-6.1
					c-1-2.7-1.6-9.3-2-16.3l-0.6-0.1c-2.7-0.3-5.3-0.4-7.7-0.4c-1.1,4.3-2.5,8.9-3.9,12.9c-2.2,6.4-4.5,11.5-6.5,11.7
					c-4.5,0.4-6.7-8.5-6.1-16.1c0.2-2.9,0.8-5.8,1.9-7.6c2-3.6,5.7-4.7,10.7-5c0.6-1.9,1.4-4.7,2.6-8.6c2.3-7.5,3.9-14,7.1-15.6
					c2.9-1.4,6.9-0.6,9.3,2c0.3,1.1,0.5,7.1,0.7,14c0.1,3,0.2,6.3,0.4,9.5c2.5,0.4,5.4,0.7,6.6,0.8c0,0,0.2,2.7-1.9,3.5
					c-1.1,0.4-3.1,0.1-4.4-0.1c0.4,7.9,0.4,12.4,1.5,15.4c1.1,3.1,3.7,1.3,5.1-0.4C317,360.4,317.2,359,317.2,359z M286.8,346.5
					c-2.1,0.3-3.9,1-5.1,2c-1.4,1.4-2.4,5.2-2.6,8.4c-0.3,3.7,0.4,6.6,2,5.3C282.1,361.6,284.3,354.7,286.8,346.5z M300.2,342.6
					c-0.5-9.7-0.6-17.4-0.6-19.1c-0.9-0.1-2.1,3.8-4,9.8c-1.3,4.1-2.4,8.8-2.4,8.8C295.3,342.2,297.7,342.4,300.2,342.6z"/>
				<path class="st2" d="M336.6,334.5c-1.3-0.7-2.2-2.7-2-4.8c0.1-1.1,0.4-2.4,1.4-3.3c1.6-1.4,6.6-3.5,12.1-3.3
					c4.7,0.1,11.2,0.7,15.2,4.2c3.3,2.8,4.5,5.9,4.3,8.8c-0.3,3.5-2.4,6.8-5.6,9.3c-1.3,1-2.8,1.9-4.4,2.4c2.7,0.7,5.4,1.9,7.8,3.9
					c4,3.4,5.5,7.4,5.3,11.1c-0.3,4.5-3.7,9.2-8.4,11.9c-5.7,3.2-12.5,4.6-19.2,2.2c-2.7-1-4.6-3.4-4.6-6.5c0-1.6,0.7-3,1.7-4.2
					c-0.2-3.8,0.8-10.6,1.5-16.4c0.6-4.9,1.4-10.3,2.7-20C340.8,331.2,337.8,333.1,336.6,334.5z M354.5,364.6
					c-1.6-0.1-2.8-0.1-4.5,0.9c-1.9,1.1-3.5,3.1-3.2,5.4c0.3,1.9,1.8,3,3.8,3.2c2.1,0.2,5.5-0.5,8.5-3.3c2.3-2.1,3.9-6,4.2-9.6
					c0.2-3.1-0.5-6.1-2.6-7.8c-2.5-2-5-2.8-7.5-3c-1.5-0.1-3.1,0-4.3,0.1c-0.4,3.5-0.8,7.6-1.2,11.2c1.4-0.3,3-0.6,4.4-0.4
					c1,0.1,1.9,0.4,2.5,0.8c0.4,0.2,0.7,0.8,0.7,1.3C355.3,363.7,354.9,364.6,354.5,364.6z M349.3,347c1.9-0.3,4.4-1.4,7.8-3.8
					c2.5-1.8,4-5.5,4.2-8.7c0.2-2.4-0.4-4.5-1.9-5.6c-2.4-1.5-6.1-1.6-9.4-1l0.3,1.2c0.4,1.8,0.4,4.4,0.2,7.7
					C350.3,339.7,349.8,343.1,349.3,347z"/>
				<path class="st2" d="M413.8,348c0.3-1.2,0.6-3.7,0.8-6.4c0.3-4.7,0.3-10.2-3.1-10.6c-3.6-0.5-8.8,8.5-9.9,21.7
					c-1.2,14.3,1.7,23.8,7.1,25c3.2,0.7,6.1-2.3,7.9-6.5c1.3-3,2-7.8,1.7-10.1c1.5-0.8,3.5,0.1,4.2,2.6c0.2,1,0.3,2.4,0.2,3.9
					c-0.3,3.8-1.8,8.5-6.1,11.8c-2.3,1.7-5.6,2.5-9.1,2.2c-3.6-0.3-7.3-2.1-9.8-5.3c-3.5-4.5-5-13.1-4.4-21.6c0.6-8.4,3.1-17,7.5-23
					c2.7-3.7,6.6-4.9,10.3-4.6c4,0.4,7.4,2.4,8.8,5.3c1.6,3.1,2.2,6.6,2,9.7c-0.2,2.1-0.7,4.1-1.5,5.4c-1,1.6-2.4,2.3-4.2,2.1
					C415,349.4,414.4,348.9,413.8,348z"/>
			</g>
			<g>
				<polygon class="st2" points="432.5,402.5 257.5,385.8 257.8,381.7 432.8,398.4 				"/>
			</g>
			<g>
				<path class="st2" d="M269.6,478.1l-7.2-0.6l-3.7-20l-6.4,19.2L245,476l-6.2-31.8l7.2,0.6l3.7,20.2l6.5-19.3l5.9,0.5l4.2,20.2
					l6-19.4l7.2,0.6L269.6,478.1z"/>
				<path class="st2" d="M300,480.6l-5.4-11.2l-0.4,0l-0.7,10.7l-7.2-0.6l2-31.1l11.1,0.9c5.8,0.5,8.6,5.3,8.3,10.9
					c-0.2,3.8-3.2,7.3-5.8,8.4l7.1,12.8L300,480.6z M297.9,456l-2.8-0.2l-0.4,6.8l2.7,0.2c1.6,0.1,3.3-1.3,3.4-3.1
					C300.9,457.8,300.2,456.2,297.9,456z"/>
				<path class="st2" d="M316,482l2-31.1l7.2,0.6l-2,31.1L316,482z"/>
				<path class="st2" d="M346.1,460.5l-1.5,23.9l-7.2-0.6l1.5-23.9l-4.8-0.4l0.5-7.2l16.9,1.4l-0.5,7.2L346.1,460.5z"/>
				<path class="st2" d="M358.8,485.6l2-31.1l7.2,0.6l-2,31.1L358.8,485.6z"/>
				<path class="st2" d="M397,488.8l-11.1-19.2l-0.3-0.7l-1.2,18.9l-7.2-0.6l2-31.1l7.3,0.6l11.1,19.3l0.3,0.7l1.2-18.9l7.2,0.6
					l-2,31.1L397,488.8z"/>
				<path class="st2" d="M428.4,492.1c-7.9-0.7-13.8-8.5-13.2-17.6c0.6-9,7.4-15.8,15.3-15.2c5.6,0.5,10.8,4.6,12.9,10.2
					c-4.6,2-3,1.3-6.3,2.6c-1.1-2.3-3-5.5-6.9-5.9c-4.7-0.4-7.3,4.3-7.6,8.8c-0.3,4.4,1.9,9.5,6.4,9.9c2.8,0.2,5.9-1.2,6.3-2.9
					l-6.5-0.6l0.4-6.8l14.3,1.2C443.2,485.7,437,492.8,428.4,492.1z"/>
			</g>
			<g>
				<path class="st2" d="M49.8,187.4c-3.6,1.9-7.3,1.1-10-1.8l1.3-2.1c2.1,2.4,5.3,3.3,8,1.8c3.1-1.7,4.5-5.6,3.1-9
					c-3.3-7.8-13.8,1.7-17.6-7.5c-1.6-4-0.1-8.6,3.7-10.6c3.1-1.7,6.3-0.7,8.3,1.2l-1.3,2.1c-1.8-1.7-4.1-2.4-6.1-1.2
					c-2.4,1.3-3.8,4.6-2.6,7.5c3.1,7.4,13.8-2.1,17.7,7.5C56,179.7,54,185.1,49.8,187.4z"/>
				<path class="st2" d="M62.3,148l10.9,26.2l-2.1,1.1l-10.8-26.2l-6.7,3.7l-0.8-2l15.4-8.4l0.8,2L62.3,148z"/>
				<path class="st2" d="M97.3,161.4c-5,2.7-10.9,0.3-13.2-5.3l-7.6-18.3l2-1.1l7.6,18.3c1.8,4.4,6.5,6.4,10.3,4.3
					c3.8-2.1,5.4-7.5,3.6-11.9l-7.6-18.3l2.1-1.1l7.6,18.3C104.4,151.9,102.3,158.7,97.3,161.4z"/>
				<path class="st2" d="M121.5,147.7l-5.3,2.9l-11.7-28.2l0.8-0.4c0.5-0.3,1-0.5,4.5-2.5c7.5-4.2,15.1-1.6,18.7,7.1
					C131.8,134.7,128.5,143.9,121.5,147.7z M110.6,121.5l-3.2,1.8l10,24.2l3.2-1.7c5.9-3.2,8.5-11.2,5.8-17.9
					C123.3,120.5,116.8,118,110.6,121.5z"/>
				<path class="st2" d="M143.4,135.8l-11.7-28.2l12.2-6.7l0.8,2l-10.2,5.5l4,9.6l9.5-5.2l0.8,2l-9.5,5.2l5.2,12.5l10.2-5.5l0.9,2.1
					L143.4,135.8z"/>
				<path class="st2" d="M158.2,99.4l9.6,23l-2.1,1.1l-12.1-29.1l30.2,13.2l-9.6-23.3l2.1-1.1l12.2,29.4L158.2,99.4z"/>
				<path class="st2" d="M194.3,75.9l10.9,26.2l-2.1,1.1L192.2,77l-6.7,3.7l-0.8-2l15.4-8.4l0.8,2L194.3,75.9z"/>
			</g>
			<g>
				<path class="st2" d="M306.5,221c-7.6,1.4-15-4.5-16.2-13.2c-1.2-8.8,4.1-17,11.7-18.5c3.6-0.7,7,0.3,9.9,2.3l0.5,3.3
					c-2.5-2.6-6.3-4.1-10.1-3.4c-6.4,1.2-10.9,8.6-9.8,15.9c1,7.3,7.3,12.7,13.7,11.5c3.8-0.7,7.2-3.7,8.7-6.7
					c0.2,1.8,0.1,0.4,0.4,3C313.1,218.3,310,220.4,306.5,221z"/>
				<path class="st2" d="M338.2,215.1c-7.6,1.4-15-4.5-16.2-13.2c-1.2-8.8,4.1-17,11.7-18.5c7.7-1.4,15,4.5,16.2,13.2
					C351.2,205.5,345.9,213.7,338.2,215.1z M334,185.7c-6.4,1.2-10.9,8.6-9.8,15.9c1,7.3,7.3,12.7,13.7,11.5
					c6.4-1.2,10.9-8.6,9.8-15.9C346.6,189.9,340.4,184.5,334,185.7z"/>
				<path class="st2" d="M360.8,184.6l3.5,25.2l-2.2,0.4l-4.5-31.8l25.8,22.4l-3.6-25.5l2.3-0.4l4.5,32.1L360.8,184.6z"/>
				<path class="st2" d="M407.9,203.3l-16.6-30.1l2.5-0.5l13.3,24.4l5.8-28l2.5-0.5L407.9,203.3z"/>
				<path class="st2" d="M428.9,197.9l-4.3-30.8l13.3-2.5l0.3,2.1l-11.1,2.1l1.5,10.5l10.4-1.9l0.3,2.2l-10.4,1.9l1.9,13.7l11.1-2.1
					l0.3,2.3L428.9,197.9z"/>
				<path class="st2" d="M465.2,191.1l-10.9-13.2l-0.8,0.2l2.1,14.9l-2.2,0.4l-4.3-30.8l6.9-1.3c3.8-0.7,7.4,2.2,8,6.5
					c0.6,4.4-2,8.7-5.8,9.4l-1.1,0.2l11,13.2L465.2,191.1z M461.5,168.3c-0.4-3.2-2.7-5.4-5.5-4.9l-4.6,0.9l1.6,11.7l4.7-0.9
					C460.5,174.5,462,171.4,461.5,168.3L461.5,168.3z"/>
				<path class="st2" d="M483.1,188.3c-3.9,0.7-7.3-1.3-9.2-4.9l1.7-1.6c1.4,3,4.3,4.8,7.2,4.3c3.4-0.6,5.7-3.9,5.2-7.6
					c-1.2-8.6-13.7-2.8-15.1-12.9c-0.6-4.3,2-8.3,6.2-9c3.3-0.6,6.3,1.4,7.7,3.8l-1.8,1.5c-1.3-2.2-3.3-3.6-5.6-3.2
					c-2.6,0.5-4.8,3.2-4.3,6.4c1.1,8.1,13.7,2.4,15.2,12.9C491,182.9,487.7,187.4,483.1,188.3z"/>
				<path class="st2" d="M504.7,154.4l4,28.6l-2.2,0.4l-4-28.6l-7.4,1.4l-0.3-2.2l16.9-3.1l0.3,2.2L504.7,154.4z"/>
				<path class="st2" d="M525.2,180l-4.3-30.8l2.2-0.4l4.3,30.8L525.2,180z"/>
				<path class="st2" d="M551.5,175.6c-7.6,1.4-15-4.5-16.2-13.2c-1.2-8.8,4.1-17,11.7-18.5c7.6-1.4,15,4.5,16.2,13.2
					C564.4,165.9,559.1,174.2,551.5,175.6z M547.2,146.1c-6.4,1.2-10.9,8.6-9.8,15.8c1,7.3,7.3,12.7,13.7,11.5
					c6.4-1.2,10.9-8.6,9.8-15.8C559.9,150.3,553.6,144.9,547.2,146.1z"/>
				<path class="st2" d="M574,145.1l3.5,25.2l-2.2,0.4l-4.5-31.8l25.8,22.4l-3.6-25.5l2.3-0.4l4.5,32.1L574,145.1z"/>
			</g>
			<g>
				<path class="st2" d="M608.2,34.2L608.7,3l2.3,0L610.6,32l8.8,0.2l0,2.3L608.2,34.2z"/>
				<path class="st2" d="M648.6,35l-3.8-10.9l-11.5-0.2l-4.1,10.8l-2.5,0l12.7-32.5l11.7,33L648.6,35z M639.3,8.3l-5.1,13.3l9.8,0.2
					L639.3,8.3z"/>
				<path class="st2" d="M663.1,9.8l-0.4,25.5l-2.3,0L660.9,3l21.9,27.2l0.4-25.8l2.3,0l-0.5,32.5L663.1,9.8z"/>
				<path class="st2" d="M709.3,36.7c-7.7-0.2-14.1-7.5-14-16.3c0.1-8.9,6.6-16,14.3-15.8c4.8,0.1,9.1,2.8,11.8,6.9l-1.8,1.4
					c-2.2-3.4-5.9-6-10-6.1c-6.5-0.1-12,6.2-12.1,13.6c-0.1,7.4,5.2,14,11.7,14.1c6.1,0.1,10.6-4.8,10.7-11.1l-9.2-0.2l0-2.3
					l11.6,0.2C722.5,30,717.9,36.8,709.3,36.7z"/>
				<path class="st2" d="M742.2,37.3c-5.5-0.1-9.9-5.2-9.8-11.5l0.3-20.3l2.3,0l-0.3,20.3c-0.1,4.8,3.3,9,7.5,9.1
					c4.2,0.1,7.7-4,7.8-8.8l0.3-20.3l2.3,0l-0.3,20.2C752.1,32.4,747.6,37.4,742.2,37.3z"/>
				<path class="st2" d="M783.3,37.7l-3.8-10.9L768,26.5l-4.1,10.8l-2.5-0.1l12.7-32.5l11.7,33L783.3,37.7z M773.9,10.9l-5.1,13.3
					l9.8,0.2L773.9,10.9z"/>
				<path class="st2" d="M808.1,38.6c-7.7-0.1-14.1-7.5-13.9-16.3c0.1-8.9,6.6-16,14.3-15.8c4.8,0.1,9.1,2.8,11.8,6.9l-1.8,1.4
					c-2.2-3.4-5.9-6-10-6.1c-6.5-0.1-12,6.2-12.1,13.6c-0.1,7.4,5.2,14,11.7,14.1c6.1,0.1,10.6-4.8,10.7-11.1l-9.2-0.2l0-2.3
					l11.6,0.2C821.3,31.9,816.7,38.8,808.1,38.6z"/>
				<path class="st2" d="M831,38.6l0.5-31.2L845,7.6l0,2.2l-11.2-0.2l-0.2,10.6l10.5,0.2l0,2.3l-10.5-0.2l-0.2,13.8l11.2,0.2l0,2.3
					L831,38.6z"/>
			</g>
			<g>
				<path class="st2" d="M1088.5,142.2l-8.8-1.3l3.4-31l6.9,1c3.8,0.5,6.7,4.5,6.2,8.9c-0.3,2.5-1.9,5.4-3.8,6.2
					c3.2,1.2,5,4.8,4.6,8.6C1096.5,139.4,1092.7,142.8,1088.5,142.2z M1090.2,127.3l-6.6-0.9l-1.4,12.7l6.6,0.9
					c3.1,0.4,5.9-2.1,6.3-5.7C1095.5,130.8,1093.4,127.8,1090.2,127.3z M1089.8,113.1l-4.7-0.7l-1.3,11.7l5.1,0.7
					c2.8,0.4,4.9-2,5.3-5.2C1094.6,116.4,1092.6,113.5,1089.8,113.1z"/>
				<path class="st2" d="M1115.2,146.4c-5.5-0.8-9.3-6.4-8.6-12.7l2.2-20.2l2.3,0.3l-2.2,20.1c-0.5,4.8,2.5,9.4,6.6,10
					c4.2,0.6,8.1-3,8.6-7.8l2.1-20.1l2.3,0.3l-2.2,20.1C1125.6,142.8,1120.6,147.2,1115.2,146.4z"/>
				<path class="st2" d="M1142.9,150.4c-3.9-0.6-6.7-3.6-7.6-7.7l2.1-1c0.7,3.4,2.9,6,5.9,6.4c3.4,0.5,6.4-1.9,6.8-5.7
					c0.9-8.6-12.4-7.1-11.3-17.3c0.5-4.4,3.9-7.3,8.1-6.7c3.4,0.5,5.7,3.3,6.4,6.1l-2.1,0.9c-0.7-2.6-2.3-4.5-4.6-4.8
					c-2.6-0.4-5.3,1.6-5.7,4.7c-0.9,8.1,12.6,6.7,11.4,17.3C1151.8,147.8,1147.6,151.1,1142.9,150.4z"/>
				<path class="st2" d="M1161.1,152.6l3.4-31l2.3,0.3l-3.4,31L1161.1,152.6z"/>
				<path class="st2" d="M1179.4,129.5l-2.8,25.3l-2.3-0.3l3.5-32l19.3,29.8l2.8-25.6l2.3,0.3l-3.5,32.3L1179.4,129.5z"/>
				<path class="st2" d="M1210,159.5l3.4-31l13.4,1.9l-0.2,2.2l-11.2-1.6l-1.1,10.5l10.5,1.5l-0.2,2.2l-10.5-1.5l-1.5,13.7l11.2,1.6
					l-0.3,2.3L1210,159.5z"/>
				<path class="st2" d="M1241.2,164.5c-3.9-0.6-6.7-3.6-7.6-7.7l2.1-1c0.7,3.4,3,6,5.9,6.4c3.4,0.5,6.4-1.9,6.8-5.7
					c0.9-8.6-12.4-7.1-11.3-17.3c0.5-4.4,3.9-7.3,8.1-6.7c3.4,0.5,5.7,3.3,6.4,6.1l-2.1,0.9c-0.7-2.6-2.3-4.5-4.6-4.8
					c-2.6-0.4-5.3,1.6-5.7,4.7c-0.9,8.1,12.6,6.7,11.4,17.3C1250.2,161.9,1245.9,165.2,1241.2,164.5z"/>
				<path class="st2" d="M1266.2,168.1c-3.9-0.6-6.7-3.6-7.6-7.7l2.1-1c0.7,3.4,3,6,5.9,6.4c3.4,0.5,6.4-1.9,6.8-5.7
					c0.9-8.6-12.4-7.1-11.3-17.3c0.5-4.4,3.9-7.3,8.1-6.7c3.4,0.5,5.7,3.3,6.4,6.1l-2.1,0.9c-0.7-2.6-2.3-4.5-4.6-4.8
					c-2.6-0.4-5.3,1.6-5.7,4.7c-0.9,8.1,12.6,6.7,11.4,17.3C1275.1,165.4,1270.9,168.7,1266.2,168.1z"/>
			</g>
			<g>
				<path class="st2" d="M1319.5,39.7l1.6,10.4l9-1.8l0.3,2.2l-9,1.8l2.4,15.9l-2.2,0.4L1317,38l11.9-2.4l0.3,2.1L1319.5,39.7z"/>
				<path class="st2" d="M1352.9,62.8c-5.4,1.1-10.6-3-11.5-9.2l-3.1-20l2.2-0.5l3.1,20c0.7,4.8,4.8,8.2,8.9,7.3
					c4.2-0.8,6.9-5.6,6.2-10.4l-3.1-19.9l2.2-0.5l3.1,19.9C1361.9,55.8,1358.3,61.7,1352.9,62.8z"/>
				<path class="st2" d="M1377,28.1l4.4,28.5l-2.2,0.5l-4.4-28.5l-7.3,1.5l-0.3-2.2l16.8-3.4l0.3,2.2L1377,28.1z"/>
				<path class="st2" d="M1407.7,51.8c-5.4,1.1-10.6-3-11.5-9.2l-3.1-20l2.2-0.4l3.1,20c0.7,4.8,4.8,8.1,8.9,7.3
					c4.2-0.8,6.9-5.6,6.2-10.4l-3.1-19.9l2.2-0.5l3.1,19.9C1416.6,44.8,1413,50.7,1407.7,51.8z"/>
				<path class="st2" d="M1440.3,44.7l-11.1-13l-0.8,0.2l2.3,14.8l-2.2,0.5l-4.7-30.7l6.9-1.4c3.8-0.8,7.4,2.1,8.1,6.4
					c0.7,4.4-1.9,8.8-5.6,9.5l-1.1,0.2l11.1,13L1440.3,44.7z M1436.3,21.9c-0.5-3.2-2.8-5.3-5.5-4.8l-4.6,0.9l1.8,11.6l4.7-0.9
					C1435.4,28.2,1436.8,25.1,1436.3,21.9L1436.3,21.9z"/>
				<path class="st2" d="M1451.3,42.5l-4.7-30.7l13.3-2.7l0.3,2.1l-11.1,2.2l1.6,10.4l10.4-2.1l0.3,2.2l-10.4,2.1l2.1,13.6l11.1-2.2
					l0.4,2.3L1451.3,42.5z"/>
			</g>
			<g>
				<path class="st2" d="M1412.9,212.2l-9.4-27.7l-10.8,27l-9-32.9l2.3,0.1l7.2,25.7l10.6-26.9l9.3,27.6l8.4-25.2l2.3,0.1
					L1412.9,212.2z"/>
				<path class="st2" d="M1445.2,212.5c-7.7-0.3-14-7.7-13.8-16.5c0.2-8.9,6.9-15.8,14.6-15.6c7.7,0.3,14,7.7,13.8,16.5
					C1459.5,205.8,1452.9,212.7,1445.2,212.5z M1445.9,182.6c-6.5-0.2-12.1,6-12.3,13.4c-0.2,7.4,5.1,14.1,11.5,14.3
					c6.5,0.2,12.1-6,12.3-13.4C1457.6,189.5,1452.3,182.8,1445.9,182.6z"/>
				<path class="st2" d="M1481.5,213.3l-8.6-15.4l-0.9,0l-0.4,15l-2.3-0.1l0.8-31.2l7,0.2c3.9,0.1,6.9,3.8,6.8,8.1
					c-0.1,4.5-3.4,8.1-7.2,8l-1.1,0l8.6,15.4L1481.5,213.3z M1481.7,190c0.1-3.2-1.8-5.9-4.6-6l-4.7-0.2l-0.3,11.8l4.7,0.2
					C1479.6,196,1481.6,193.2,1481.7,190L1481.7,190z"/>
				<path class="st2" d="M1508.4,214.2l-12.5-15.2l-0.6,0.6l-0.4,14.1l-2.3-0.1l0.8-31.2l2.3,0.1l-0.4,13.8l12.4-13.4l2.9,0.1
					l-13.1,14.2l14.1,17.1L1508.4,214.2z"/>
				<path class="st2" d="M1520.7,214.6l0.8-31.2l2.3,0.1l-0.8,31.2L1520.7,214.6z"/>
				<path class="st2" d="M1537,189.7l-0.7,25.5l-2.3-0.1l0.9-32.2l21.6,27.6l0.7-25.8l2.3,0.1l-0.9,32.5L1537,189.7z"/>
				<path class="st2" d="M1583,217.3c-7.7-0.3-14-7.7-13.8-16.5c0.2-8.9,6.8-15.9,14.5-15.6c4.8,0.2,9.1,3,11.7,7.1l-1.8,1.4
					c-2.2-3.5-5.9-6.1-10-6.2c-6.5-0.2-12,6-12.2,13.4c-0.2,7.4,5.1,14.1,11.5,14.3c6.1,0.2,10.7-4.6,10.8-10.9l-9.2-0.3l0.1-2.3
					l11.6,0.4C1596.2,210.8,1591.5,217.6,1583,217.3z"/>
			</g>
			<g>
				<path class="st2" d="M1659.9,120.5l0.5-31.2l13.5,0.3l0,2.2l-11.2-0.2l-0.2,10.6l10.5,0.2l0,2.3l-10.5-0.2l-0.2,13.8l11.2,0.2
					l0,2.3L1659.9,120.5z"/>
				<path class="st2" d="M1690.4,121.1l-5.9-0.1l0.5-31.2l0.9,0c0.6,0,1.1,0,5,0.1c8.3,0.1,14.1,6.3,14,15.9
					C1704.7,114.6,1698.1,121.2,1690.4,121.1z M1690.9,92l-3.6,0l-0.4,26.8l3.5,0.1c6.5,0.2,12-5.7,12.1-13.1
					C1702.6,97.6,1697.7,92,1690.9,92z"/>
				<path class="st2" d="M1724.6,122.2c-5.5-0.1-9.9-5.2-9.8-11.5l0.3-20.3l2.3,0l-0.3,20.3c-0.1,4.8,3.3,9,7.5,9.1
					c4.2,0.1,7.7-4,7.8-8.8l0.3-20.3l2.3,0l-0.3,20.2C1734.5,117.3,1730,122.3,1724.6,122.2z"/>
				<path class="st2" d="M1758.7,122.9c-7.7-0.2-14.1-7.5-13.9-16.3c0.1-8.9,6.7-16,14.4-15.8c3.6,0.1,6.9,1.7,9.4,4.3l0,3.3
					c-2.1-3.1-5.5-5.3-9.4-5.4c-6.5-0.1-12,6.2-12.1,13.6c-0.1,7.4,5.2,14,11.7,14.1c3.9,0.1,7.6-2.2,9.6-4.8c0,1.8,0,0.4,0,3
					C1765.6,121.5,1762.3,122.9,1758.7,122.9z"/>
				<path class="st2" d="M1797.8,123.2l-3.8-10.9l-11.5-0.2l-4.1,10.8l-2.5,0l12.7-32.5l11.7,33L1797.8,123.2z M1788.5,96.4
					l-5.1,13.3l9.8,0.2L1788.5,96.4z"/>
				<path class="st2" d="M1817.9,94.6l-0.4,29l-2.3,0l0.4-29l-7.4-0.1l0-2.2l17.1,0.3l0,2.2L1817.9,94.6z"/>
				<path class="st2" d="M1834.2,123.9l0.5-31.2l2.3,0l-0.5,31.2L1834.2,123.9z"/>
				<path class="st2" d="M1860.7,124.9c-7.8-0.2-14.1-7.5-14-16.3c0.1-8.9,6.7-16,14.4-15.8c7.7,0.1,14.1,7.5,14,16.3
					C1874.9,118,1868.4,125,1860.7,124.9z M1861,95c-6.5-0.1-12,6.2-12.1,13.6c-0.1,7.4,5.2,14,11.7,14.1c6.5,0.1,12-6.2,12.1-13.6
					C1872.8,101.7,1867.5,95.1,1861,95z"/>
				<path class="st2" d="M1887.5,99.4l-0.4,25.5l-2.3,0l0.5-32.2l21.9,27.2l0.4-25.8l2.3,0l-0.5,32.5L1887.5,99.4z"/>
			</g>
			<g>
				<path class="st2" d="M2366.8,168.5c-3.8-1-6.3-4.3-6.9-8.5l2.1-0.7c0.4,3.4,2.4,6.3,5.3,7.1c3.3,0.9,6.6-1.2,7.3-4.8
					c1.7-8.5-11.8-8.5-9.8-18.5c0.9-4.3,4.5-6.8,8.7-5.7c3.3,0.9,5.4,4,5.9,6.8l-2.2,0.7c-0.5-2.6-1.9-4.8-4.1-5.3
					c-2.5-0.7-5.5,0.9-6.1,4.1c-1.6,8,11.9,8.1,9.9,18.5C2375.9,166.9,2371.4,169.7,2366.8,168.5z"/>
				<path class="st2" d="M2394.3,175.7c-5.4-1.4-8.7-7.5-7.5-13.6l3.9-19.8l2.2,0.6l-3.9,19.8c-0.9,4.7,1.6,9.6,5.7,10.7
					c4.1,1.1,8.3-2.1,9.2-6.8l3.9-19.8l2.2,0.6l-3.9,19.7C2405,173.2,2399.7,177.1,2394.3,175.7z"/>
				<path class="st2" d="M2427.6,184.4c-7.6-2-12.4-10.6-10.7-19.3c1.7-8.7,9.4-14,16.9-12c3.5,0.9,6.5,3.3,8.4,6.4l-0.6,3.2
					c-1.5-3.5-4.5-6.5-8.3-7.5c-6.3-1.7-12.9,3.2-14.3,10.5c-1.4,7.3,2.6,14.9,8.9,16.6c3.8,1,7.9-0.3,10.3-2.4
					c-0.3,1.7-0.1,0.4-0.6,3C2434.6,184.7,2431.1,185.4,2427.6,184.4z"/>
				<path class="st2" d="M2458.9,192.7c-7.5-2-12.4-10.6-10.7-19.3c1.7-8.7,9.4-14,16.9-12.1c3.5,0.9,6.5,3.3,8.4,6.4l-0.6,3.2
					c-1.5-3.5-4.5-6.5-8.3-7.5c-6.3-1.7-12.9,3.2-14.3,10.5c-1.4,7.3,2.6,14.9,8.9,16.6c3.8,1,7.9-0.3,10.3-2.4
					c-0.3,1.7-0.1,0.4-0.6,3C2466,192.9,2462.4,193.6,2458.9,192.7z"/>
				<path class="st2" d="M2477.7,197.1l6.1-30.4l13.2,3.5l-0.4,2.1l-11-2.9l-2.1,10.3l10.3,2.7l-0.4,2.2l-10.3-2.7l-2.7,13.5l11,2.9
					l-0.4,2.3L2477.7,197.1z"/>
				<path class="st2" d="M2508.3,205.6c-3.8-1-6.3-4.3-6.9-8.5l2.1-0.7c0.4,3.4,2.4,6.3,5.3,7.1c3.3,0.9,6.6-1.2,7.3-4.8
					c1.7-8.5-11.8-8.5-9.8-18.5c0.9-4.3,4.5-6.8,8.7-5.7c3.3,0.9,5.4,4,5.9,6.8l-2.2,0.7c-0.5-2.6-1.9-4.8-4.1-5.3
					c-2.5-0.7-5.5,0.9-6.1,4.1c-1.6,8,11.9,8.1,9.9,18.5C2517.5,204,2513,206.8,2508.3,205.6z"/>
				<path class="st2" d="M2532.8,212.1c-3.8-1-6.3-4.3-6.9-8.5l2.1-0.7c0.4,3.4,2.4,6.3,5.3,7.1c3.3,0.9,6.6-1.2,7.3-4.8
					c1.7-8.5-11.8-8.5-9.8-18.5c0.9-4.3,4.5-6.8,8.7-5.7c3.3,0.9,5.4,4,5.9,6.8l-2.2,0.7c-0.5-2.6-1.9-4.8-4.1-5.3
					c-2.5-0.7-5.5,0.9-6.1,4.1c-1.6,8,11.9,8.1,9.9,18.5C2542,210.5,2537.5,213.3,2532.8,212.1z"/>
			</g>
			<g>
				<path class="st2" d="M1946.3,113.1l-6.3-56.9l4.1-0.6l5.9,52.8l16-2.4l0.5,4.1L1946.3,113.1z"/>
				<path class="st2" d="M1983.4,107.7l-6.3-56.9l4.1-0.6l6.3,56.9L1983.4,107.7z"/>
				<path class="st2" d="M2020.5,103.1c-7.2,1.1-13.3-2.9-16.6-9.7l3.3-2.8c2.5,5.7,7.6,9.2,13,8.4c6.2-0.9,10.7-6.8,9.9-13.7
					c-1.8-15.8-25-6.1-27.1-24.8c-0.9-8,4.1-15,11.8-16.2c6.2-0.9,11.4,2.9,13.9,7.5l-3.4,2.7c-2.3-4.2-5.9-6.8-10.1-6.2
					c-4.7,0.7-8.9,5.6-8.2,11.4c1.7,14.9,25.1,5.4,27.2,24.8C2035.4,93.7,2029.2,101.8,2020.5,103.1z"/>
				<path class="st2" d="M2062.1,42.4l5.9,52.8l-4.1,0.6L2058,43l-13.6,2l-0.5-4l31.2-4.6l0.5,4.1L2062.1,42.4z"/>
				<path class="st2" d="M2098.4,90.8l-6.3-56.9l24.6-3.6l0.4,4l-20.5,3l2.2,19.3l19.2-2.8l0.5,4.1l-19.2,2.8l2.8,25.2l20.5-3
					l0.5,4.2L2098.4,90.8z"/>
				<path class="st2" d="M2142.4,37l5.2,46.5l-4.1,0.6l-6.6-58.8l46.2,42.9l-5.2-47l4.2-0.6l6.6,59.3L2142.4,37z"/>
				<path class="st2" d="M2208.7,74.6l-6.3-56.9l4.1-0.6l6.3,56.9L2208.7,74.6z"/>
				<path class="st2" d="M2232.2,23.8l5.2,46.5l-4.1,0.6l-6.5-58.8l46.2,42.9l-5.2-47l4.2-0.6l6.6,59.3L2232.2,23.8z"/>
				<path class="st2" d="M2322.4,58.7c-14.1,2.1-27.3-9.3-29.1-25.4c-1.8-16.2,8.3-31,22.3-33.1c8.8-1.3,17.2,2.4,23.1,9l-2.9,3.1
					c-4.8-5.5-12.2-9.1-19.7-8c-11.8,1.7-20.3,15-18.8,28.4c1.5,13.6,12.7,23.9,24.5,22.1c11.2-1.7,18.2-11.9,16.9-23.4l-16.8,2.5
					l-0.5-4.1l21.2-3.1C2344.9,42.6,2338,56.4,2322.4,58.7z"/>
			</g>
			<g>
				<path class="st2" d="M817.1,230.3l-9-8.9l-0.4,0.1l2.7,11l-7.4,2.4l-7.9-31.8l11.4-3.7c5.9-1.9,10.3,1.6,11.7,7.4
					c0.9,3.8-0.9,8.6-3.1,10.8l11.1,9.8L817.1,230.3z M807.1,206.6l-2.9,0.9l1.7,6.9l2.8-0.9c1.7-0.5,2.8-2.6,2.4-4.5
					C810.7,207.1,809.5,205.8,807.1,206.6z"/>
				<path class="st2" d="M833.4,224.9l-7.9-31.8l16-5.2l1.8,7.4l-8.6,2.8l1.4,5.6l7.4-2.4l1.7,6.9l-7.4,2.4l1.1,4.4l8.6-2.8l1.9,7.5
					L833.4,224.9z"/>
				<path class="st2" d="M879.4,209.8l-3.4-5.2l-9.4,3.1l-0.4,6.5l-8,2.6l2.7-35.3l7.9-2.6l18.7,28.3L879.4,209.8z M867.6,191.7
					l-0.6,8.8l5.2-1.7L867.6,191.7z"/>
				<path class="st2" d="M905.6,201.2c-3,1-6.2,2-9.4,3.1l-7.9-31.8l9.4-3.1c8.6-2.8,16.7,0.9,19.1,10.8
					C919.1,189.5,913.6,198.6,905.6,201.2z M899.5,176.8l-2,0.7l4.2,17l1.9-0.6c3.9-1.3,7-6.7,5.8-11.2
					C908.1,177.4,903.9,175.4,899.5,176.8z"/>
				<path class="st2" d="M931,192.9l-7.9-31.8l7.4-2.4l7.9,31.8L931,192.9z"/>
				<path class="st2" d="M970.2,180.1L953,165.6l-0.5-0.6l4.8,19.3l-7.4,2.4l-7.9-31.8l7.4-2.4l17.2,14.6l0.5,0.6l-4.8-19.3l7.4-2.4
					l7.9,31.8L970.2,180.1z"/>
				<path class="st2" d="M1002.5,170.2c-8.1,2.6-16.5-2.7-18.8-12c-2.3-9.2,2.4-18.9,10.4-21.5c5.7-1.9,12.2,0.1,16.1,4.8
					c-4,3.9-2.5,2.5-5.5,5.3c-1.8-1.8-4.8-4.2-8.8-2.9c-4.8,1.6-5.9,7.4-4.8,11.9c1.1,4.5,4.9,8.7,9.6,7.2c2.9-1,5.5-3.6,5.4-5.6
					l-6.7,2.2l-1.7-7l14.6-4.8C1015.3,157.6,1011.3,167.4,1002.5,170.2z"/>
			</g>
			<g>
				<path class="st2" d="M1471.4,445c-4,0.6-7.3-0.5-10.2-2.1l2.3-7c1.7,1.1,4.6,2.3,6.4,2.1c1.9-0.3,3.1-1.3,2.9-3.2
					c-0.5-4.3-11.6-2.1-12.7-11.7c-0.6-5.3,2.7-10.1,7.3-10.8c4.6-0.6,7.2,0.6,8.5,1.2l-1.3,7.2c-1.3-0.8-3.3-1.7-5.2-1.5
					c-1.2,0.2-2.1,1.3-2,2.4c0.3,3.1,11.5,1.9,12.5,11.5C1480.6,438.8,1478.3,444,1471.4,445z"/>
				<path class="st2" d="M1501,429.2l-3.8,0.5l1.1,10.7l-7.2,1l-3.3-31c0,0,6.5-0.9,11.1-1.6c5.4-0.8,9.4,3.2,10,8.8
					C1509.3,423.3,1505.8,428.5,1501,429.2z M1498.4,415.8l-2.8,0.4l0.7,6.7l2.7-0.4c1.6-0.2,3-2,2.8-3.8
					C1501.7,416.8,1500.6,415.5,1498.4,415.8z"/>
				<path class="st2" d="M1520.2,437.2l-3.3-31l15.6-2.2l0.8,7.2l-8.4,1.2l0.6,5.5l7.2-1l0.7,6.7l-7.2,1l0.5,4.3l8.4-1.2l0.8,7.3
					L1520.2,437.2z"/>
				<path class="st2" d="M1564.9,430.9l-2.5-5.5l-9.2,1.3l-1.2,6l-7.8,1.1l7-32.4l7.7-1.1l13.8,29.5L1564.9,430.9z M1556.2,412.1
					l-1.7,8.1l5-0.7L1556.2,412.1z"/>
				<path class="st2" d="M1597.1,426.4l-10.1-11.8l1.4,13l-7.2,1l-3.3-31l7.2-1l1.4,12.8l5.8-13.8l7.9-1.1l-7,15.9l13,14.7
					L1597.1,426.4z"/>
				<path class="st2" d="M1614.8,423.9l-3.3-31l7.2-1l3.3,31L1614.8,423.9z"/>
				<path class="st2" d="M1652.8,418.5l-14.1-16.4l-0.4-0.7l2,18.8l-7.2,1l-3.3-31l7.2-1l14.1,16.4l0.4,0.6l-2-18.8l7.2-1l3.3,31
					L1652.8,418.5z"/>
				<path class="st2" d="M1684.2,414.8c-7.8,1.1-15-5.3-15.9-14.3c-1-9,4.6-17.2,12.4-18.3c5.6-0.8,11.3,2.1,14.3,7.1
					c-4.2,3-2.7,1.9-5.8,4c-1.5-2-3.9-4.7-7.8-4.2c-4.7,0.7-6.5,5.9-6,10.3c0.5,4.4,3.4,8.9,8,8.3c2.8-0.4,5.6-2.5,5.7-4.3l-6.5,0.9
					l-0.7-6.8l14.2-2C1697.7,405.1,1692.8,413.6,1684.2,414.8z"/>
			</g>
			<g>
				<path class="st2" d="M1998.1,213.2l-7.6-1.5l-5.8-32.8l7.8,1.5l3.6,20.9l9.2-18.4l7.7,1.5L1998.1,213.2z"/>
				<path class="st2" d="M2030,220.2c-7.8-1.5-13.4-10.1-12-19c1.3-8.9,9.1-14.9,16.9-13.3c7.8,1.5,13.4,10.1,12,19
					C2045.5,215.8,2037.8,221.8,2030,220.2z M2033.7,195.6c-3.8-0.8-7.9,2.6-8.6,6.9c-0.7,4.4,2.2,9.1,6.1,9.8
					c3.8,0.7,7.9-2.6,8.6-6.9C2040.4,201.1,2037.5,196.4,2033.7,195.6z"/>
				<path class="st2" d="M2067.7,227.7c-7.8-1.5-13.4-10.1-12.1-19c1.3-8.9,9.1-14.9,16.9-13.3c2.3,0.5,4.4,1.6,6.3,3.1
					c-0.7,5-0.2,1.3-1.3,9.1c-1-2.2-3.3-3.9-6-4.4c-3.8-0.8-7.9,2.6-8.6,6.9c-0.7,4.4,2.2,9.1,6.1,9.8c2.7,0.5,5.4-0.4,7-2.2
					c-1,6.7-0.5,3.4-1.4,9.5C2072.4,227.9,2070.1,228.1,2067.7,227.7z"/>
				<path class="st2" d="M2101.8,233.6l-1.1-6.1l-9.1-1.8l-2.7,5.3l-7.7-1.5l14.9-28.7l7.6,1.5l5.8,32.8L2101.8,233.6z
					 M2098.2,212.8l-3.6,7.2l5,1L2098.2,212.8z"/>
				<path class="st2" d="M2128.5,238.9l-10.5-2.1l4.6-30.8c3.3,0.7,5.5,1,9.6,1.8c4.7,0.9,7.6,5.2,6.9,10.2c-0.3,2-1.9,3.9-3,4.5
					c2.5,1.6,4,5.5,3.5,8.7C2138.8,236.6,2133.8,239.9,2128.5,238.9z M2129.9,226.1l-2.8-0.5l-0.9,6l3.3,0.6
					c1.4,0.3,2.6-0.9,2.8-2.6C2132.6,227.9,2131.8,226.4,2129.9,226.1z M2132.2,217.4c0.2-1.6-0.6-2.6-1.8-2.9l-1.7-0.3l-0.8,5.3
					l1.6,0.3C2130.6,220,2132,218.9,2132.2,217.4L2132.2,217.4z"/>
				<path class="st2" d="M2159.6,245.7c-6.5-1.3-10.8-7.7-9.6-15.7l2.7-18.1l7.2,1.4l-2.7,18c-0.4,2.9,0.7,6.2,3.6,6.7
					c3,0.6,5-2.1,5.4-4.9l2.7-18.1l7.1,1.4l-2.7,18C2172.1,242.6,2166,247,2159.6,245.7z"/>
				<path class="st2" d="M2182.3,249.5l4.6-30.8l7.2,1.4l-3.5,23.6l8.3,1.6l-1.1,7.2L2182.3,249.5z"/>
				<path class="st2" d="M2224.9,257.9l-1.1-6.1l-9.1-1.8l-2.7,5.3l-7.7-1.5l14.9-28.7l7.6,1.5l5.8,32.8L2224.9,257.9z M2221.3,237
					l-3.6,7.2l5,1L2221.3,237z"/>
				<path class="st2" d="M2254.6,263.7l-4.4-11.8l-0.4-0.1l-1.6,10.6l-7.2-1.4l4.6-30.8l11,2.2c5.7,1.1,8.1,6.2,7.3,11.8
					c-0.6,3.7-3.8,6.9-6.5,7.7l6,13.5L2254.6,263.7z M2254.6,239l-2.8-0.5l-1,6.7l2.7,0.5c1.6,0.3,3.3-0.9,3.6-2.8
					C2257.5,241.1,2256.9,239.5,2254.6,239z"/>
				<path class="st2" d="M2287.3,254.5l-2.3,15.2l-7.2-1.4l2.3-15.2l-7.6-17.5l8.8,1.7l3.7,9l5.6-7.2l8.7,1.7L2287.3,254.5z"/>
			</g>
		</g>
	</g>
</g>
<g>
	<path class="st3" d="M217.5,677.8c-1.9-18.3,5.7-30.9,23.5-36.7c19.3-6.3,38.6-6.2,56.4,5.3c11.3,7.3,15.3,17.9,13.2,31.5
		C279.6,677.8,248.9,677.8,217.5,677.8z"/>
	<path class="st3" d="M294.2,567.8c-4.5-1.8-8.9-4.5-13.7-5.4c-23.6-4.5-30-30.2-14.1-48c20.7-23.1,67.9-23.3,88.8-0.4
		c12.2,13.3,12,30.8-0.8,44.1c-13.1,13.4-30.1,19.7-47.5,25.2c-0.7,0.2-1.5,0.2-2.2,0.5c-4.8,1.4-10.6,4.5-13.5-1.3
		c-1.6-3.3,0.5-8.5,0.9-12.8C292.8,569,293.5,568.4,294.2,567.8z M301.9,575c17.2-5.1,32.8-10.5,45-22.4
		c11.1-10.8,10.7-24.6-1.1-34.7c-12.5-10.6-27.5-13.2-43.2-11.2c-13.5,1.7-26,6.4-33.2,19.3c-6.6,11.8-1.3,23.4,11.7,27.1
		c4.8,1.4,9.7,2.8,14.1,5.1C301.2,561.4,304.6,566.4,301.9,575z"/>
	<path class="st3" d="M291.5,602.3c0,15.2-11.9,27.4-27.1,27.6c-15.2,0.3-27.7-12.2-27.7-27.8c0-15.1,12.1-27.4,27.1-27.6
		C279.1,574.3,291.5,586.7,291.5,602.3z"/>
	<path class="st3" d="M359.1,613.7c-14.4,0.7-38.9-11.8-47.1-24.3c5.1-2,10.1-4,15-6c13.2-5.3,25.2-12.4,34.8-23.2
		c1.2-1.4,3.9-2.6,5.5-2.2c7.5,1.7,15.7,12.1,16.3,20c0.7,9.5-3.6,15.7-12.9,18.6c-2.4,0.7-4.9,1.1-7.2,2.1c-7.3,3-8.1,5.1-4.8,12.2
		C359.2,611.7,359,612.8,359.1,613.7z"/>
	<path class="st3" d="M423.7,678c-23.2,0-45.8,0-68.4,0c-2.7-8.1-0.2-16.2,6.7-22c11.9-10,34-11.6,49.3-3.5
		C421.5,657.8,425.2,665.2,423.7,678z"/>
	<path class="st3" d="M409.7,621.5c-0.1,11.6-9.2,20.7-20.6,20.7c-11,0-20.6-9.8-20.6-20.9c0.1-11.2,9.7-20.7,20.8-20.5
		C401.1,600.9,409.8,609.8,409.7,621.5z"/>
	<path class="st3" d="M338.4,528.7c-17.5,0-35,0-53,0c0-2.4,0-4.5,0-7.4c16.9,0,33.7-0.1,50.5,0.2c1.5,0,3,3.5,4.4,5.4
		C339.7,527.5,339,528.1,338.4,528.7z"/>
	<path class="st3" d="M285.2,546.9c0-2.9,0-4.8,0-7.3c17.9,0,35.6,0,53.6,0c0.5,3.6,2.1,7.3-3.9,7.3
		C318.7,546.9,302.3,546.9,285.2,546.9z"/>
</g>
<g>
	<path class="st3" d="M1316,653.8c0,16.3,0,30.7,0,45.6c-2.7,0-4.8,0-7.5,0c0-18.7,0-37,0-55.8c-29.3,0-58,0-87.4,0
		c0,18.5,0,36.8,0,55.7c-2.7,0.2-4.8,0.3-7.8,0.5c0-15.3,0-29.9,0-44.2c-1.2-0.7-1.6-1.1-2.1-1.1c-11.9-0.7-11.8-0.7-14.8-12.9
		c-5.1-20.7-6.1-19.4,15.2-19.4c38.3,0,76.6,0,115,0c9.7,0,10.7,1.4,8.4,10.8c-0.5,2.2-1.2,4.4-1.6,6.7
		C1331.8,649,1330.1,658,1316,653.8z"/>
	<path class="st3" d="M1307.7,614c-28.8,0-57.1,0-85.3,0c-3.8-15.3,11.7-35.4,26.5-34.5c1.7,0.1,3.6,1.8,4.9,3.2
		c3.3,3.5,6.4,7.2,11.5,13c3.7-4.8,6.7-8.3,9.3-12c3.2-4.7,7.1-4.5,11.9-2.6C1301.7,587.2,1308.9,597.8,1307.7,614z"/>
	<path class="st3" d="M1264.9,571.2c-14.7,0.1-26.5-11.4-26.6-25.8c-0.1-14.4,11.6-26.2,26.1-26.3c14.7-0.1,26.3,11.2,26.5,25.9
		C1291.3,559.3,1279.5,571.2,1264.9,571.2z"/>
	<path class="st3" d="M1265.4,664.8c7.6,0,15.3-0.2,22.9,0.2c1.5,0.1,3,2.2,4.4,3.4c-1.5,0.9-2.9,2.7-4.4,2.7
		c-15.8,0.2-31.6,0.2-47.4-0.1c-1.4,0-2.7-2-4.1-3c1.3-1.1,2.6-3,4-3C1249,664.7,1257.2,664.8,1265.4,664.8z"/>
	<path class="st3" d="M1265.2,689.4c7.4,0,14.8-0.2,22.2,0.2c1.8,0.1,3.6,2.1,5.3,3.3c-1.6,1-3.3,2.9-4.9,3
		c-15.3,0.2-30.6,0.2-45.9,0c-1.7,0-3.3-1.9-5-2.9c1.8-1.1,3.5-3.2,5.4-3.2C1249.9,689.2,1257.6,689.4,1265.2,689.4z"/>
</g>
<g>
	<path class="st3" d="M687.2,684.6c0.1-11.9,5.6-19.4,17.2-24.1c20.3-8.3,40.7-4.3,56.8,11.7c9-11.5,21.2-15.4,35.4-15.3
		c14.1,0.1,26.8,3.2,35.9,15.6c17-18.7,37.5-19,58.8-11.1c9.6,3.6,16,11.3,15.8,23.3C833.7,684.6,760.8,684.6,687.2,684.6z"/>
	<path class="st3" d="M761.6,565.8c6.9-11.3,17.4-13.9,28.8-16.7c11.8-2.9,22.9-8.6,33.9-14c6.1-3,11-3.5,14.7,2.6
		c3.6,5.9,1.9,11.5-3.8,14.7c-13.1,7.3-26.3,14.4-39.9,20.5c-5.8,2.6-8.9,5-7.9,11.6c1.1,7.4-0.8,12.5-8.4,16.2
		c-8.5,4.1-12.3,12.7-14.5,21.8c-0.5,2.1-2.5,3.8-3.8,5.6c-1.2-2-2.9-3.8-3.5-6c-3.5-14.5-12-23.7-27-26.6c-1.8-0.4-4.3-1.3-5-2.7
		c-3.9-8,1.7-28.3,9.2-34.1c8.6-6.6,13.3-6.4,20.7,0.9C756.9,561.3,758.6,563,761.6,565.8z"/>
	<path class="st3" d="M820.4,627.9c-0.1,12.9-10.6,23.4-23.4,23.4c-13.1,0-23.6-11-23.4-24.4c0.2-12.9,10.7-22.8,23.9-22.6
		C810.6,604.5,820.5,614.6,820.4,627.9z"/>
	<path class="st3" d="M845.5,627.4c0-13,10.3-23.2,23.4-23.2c13.1,0,23.5,10.2,23.6,23.1c0.1,13.1-11.1,24.3-23.9,23.9
		C855.7,650.9,845.5,640.3,845.5,627.4z"/>
	<path class="st3" d="M748.4,627.5c0,13.1-10.1,23.6-23,23.8c-12.8,0.1-24.3-11.4-24-24.1c0.3-12.8,10.9-23,23.9-22.9
		C738.6,604.3,748.3,614.2,748.4,627.5z"/>
	<path class="st3" d="M760,546c-11.5-0.6-20.4-10.1-19.9-21.4c0.5-11.8,10.4-21.1,21.9-20.6c10.9,0.5,20.4,10.7,20,21.6
		C781.7,537.3,771.7,546.5,760,546z"/>
</g>
</svg>
