<?xml version="1.0" encoding="utf-8"?>
<!-- Generator: Adobe Illustrator 22.1.0, SVG Export Plug-In . SVG Version: 6.00 Build 0)  -->
<svg version="1.1" id="Layer_1" xmlns="http://www.w3.org/2000/svg" xmlns:xlink="http://www.w3.org/1999/xlink" x="0px" y="0px"
	 viewBox="0 0 117.7 120" style="enable-background:new 0 0 117.7 120;" xml:space="preserve">
<style type="text/css">
	.st0{fill:#61C4F2;}
	.st1{fill:#263357;}
</style>
<path class="st0" d="M61.1,44.4c-2.7,0-4.8,2.2-4.8,4.8v59.8l1.9-0.2c0.7-2.7,3.1-4.7,6-4.7h36.2l15.7-1.8v-58H61.1z M70.3,60.2
	h31.6v10.5H70.3V60.2z"/>
<circle class="st1" cx="29.9" cy="96.9" r="2.2"/>
<path class="st1" d="M116,42.7H84.3c0-2.3,0-4.8-0.1-7.2c0-2.3-0.1-4.6-0.1-6.8h12.4h7c2.9,0,5.3-2.4,5.3-5.3v-7
	c0-2.9-2.4-5.3-5.3-5.3h-7H83.1v-0.1c0-3.6-3-6.6-6.6-6.6c-1.2,0-2.4,0.3-3.3,0.9c-0.8-2.8-3.3-4.9-6.4-4.9c-1.8,0-3.5,0.8-4.7,2
	C60.8,0.9,59,0,57,0c-2,0-3.8,0.9-5,2.3c-1.2-1.2-2.9-2-4.7-2c-3.6,0-6.6,3-6.6,6.6V9c-1.8-0.6-3.6-0.7-5,0.3c-0.6,0.5-1,1-1.2,1.7
	H22.8c0,0,0,0,0,0c-0.1,0-0.2,0-0.3,0c0,0,0,0-0.1,0c-0.1,0-0.1,0-0.2,0.1c-0.1,0-0.1,0-0.2,0.1c0,0,0,0,0,0L6.7,18.1H1.8
	c-1,0-1.8,0.8-1.8,1.8c0,1,0.8,1.8,1.8,1.8h4.9l15.5,6.9c0,0,0,0,0,0c0.1,0,0.2,0.1,0.2,0.1c0.2,0,0.3,0.1,0.5,0.1c0,0,0,0,0,0H34
	c-0.1,1.4-0.1,3,0.3,5.3c0.2,1.3,0.9,4.7,2.6,8.6c1.5,3.4,3.1,5.9,4,7.1c0.9,1.2,1.9,2.4,2.9,3.5h-3.4c-1,0-1.8,0.8-1.8,1.8v47.6
	c0,1,0.8,1.8,1.8,1.8c1,0,1.8-0.8,1.8-1.8V56.6h12.3v52.5c0,0.1,0,0.2,0,0.4c0,0.3,0,0.6,0,0.8c0,5.3,4.3,9.7,9.7,9.7H116
	c1,0,1.8-0.8,1.8-1.8c0-1-0.8-1.8-1.8-1.8H64.1c-3.4,0-6.1-2.8-6.1-6.1c0-0.5,0.1-1,0.2-1.4c0.7-2.7,3.1-4.7,6-4.7H116
	c1,0,1.8-0.8,1.8-1.8v-58C117.7,43.4,116.9,42.7,116,42.7z M105.4,16.3v7c0,1-0.8,1.8-1.8,1.8h-5.3V14.5h5.3
	C104.6,14.5,105.4,15.3,105.4,16.3z M94.9,14.5v10.5H82.5c0,0-0.1,0-0.1,0c0,0-0.1,0-0.1,0H52.3c-1.1-0.4-2.2-0.7-3.4-1
	c0.2-1.1,0.3-2.7,0.1-4.3c0.7-0.2,1.3-0.4,1.9-0.8c0.9,2.5,3.3,4.3,6.2,4.3c1.8,0,3.5-0.8,4.7-2c1.2,1.4,3,2.3,5,2.3
	c2.3,0,4.3-1.2,5.5-2.9c1.2,0.9,2.6,1.5,4.2,1.5c3.6,0,6.6-3,6.6-6.6v-1.1H94.9z M76.5,7.8c1.7,0,3.1,1.4,3.1,3.1V11v3.5v1.1
	c0,1.7-1.4,3.1-3.1,3.1c-1.7,0-3.1-1.4-3.1-3.1v-1.1V11v-0.1C73.4,9.2,74.8,7.8,76.5,7.8z M66.8,3.8c1.7,0,3.1,1.4,3.1,3.1v4V11v3.5
	v1.1V17c0,1.7-1.4,3.1-3.1,3.1c-1.7,0-3.1-1.4-3.1-3.1v-0.3v-2.1V11V6.9C63.7,5.2,65,3.8,66.8,3.8z M53.9,6.6c0-1.7,1.4-3.1,3.1-3.1
	c1.7,0,3.1,1.4,3.1,3.1v0.3V11v3.5v2.1c0,1.7-1.4,3.1-3.1,3.1c-1.7,0-3.1-1.4-3.1-3.1v-2.1v-1.1V11V6.9V6.6z M44.2,6.9
	c0-1.7,1.4-3.1,3.1-3.1c1.7,0,3.1,1.4,3.1,3.1V11v2.4c0,0.4-0.1,0.8-0.2,1.1c-0.3,0.9-1.1,1.6-2,1.8c-0.2-0.6-0.5-1.2-0.8-1.8
	c-0.3-0.6-0.7-1.2-1.2-1.8c-0.2-0.2-0.4-0.4-0.5-0.6c-0.4-0.4-0.8-0.8-1.3-1.2c0,0-0.1-0.1-0.1-0.1V6.9z M21.1,15.5v8.6l-9.7-4.3
	L21.1,15.5z M24.6,25.1V14.5h9.7c0,0.2,0,0.4,0.1,0.7c0.1,1.1,0.2,2.4,0.2,4.1c0.1,2.5,0,4.3-0.2,5.8H24.6z M49,53
	c-2-1.6-3.7-3.5-5.2-5.6c-0.8-1.1-2.3-3.3-3.6-6.4c-1.6-3.6-2.2-6.6-2.4-7.8c-0.3-2-0.3-3.3-0.2-4.7c0.1-0.5,0.1-1,0.2-1.5
	c0-0.1,0-0.1,0-0.2c0-0.2,0.1-0.5,0.1-0.8c0-0.2,0-0.4,0.1-0.5c0-0.1,0-0.3,0-0.5c0.1-1.5,0.2-3.3,0.2-5.8c0-1.8-0.1-3.2-0.2-4.3
	c0-0.1,0-0.3,0-0.4c0-0.5-0.1-0.9-0.1-1.3v0c0-0.1,0-0.2,0-0.2c0-0.1,0-0.1,0-0.2c0-0.3,0-0.5,0.1-0.6c0.4-0.3,1.5-0.1,2.8,0.6
	c0,0,0.1,0,0.1,0.1c0.2,0.1,0.4,0.2,0.6,0.3c0,0,0.1,0,0.1,0.1c0.1,0.1,0.3,0.2,0.4,0.3c0.1,0.1,0.1,0.1,0.2,0.2
	c0.1,0.1,0.2,0.1,0.2,0.2c0,0,0.1,0.1,0.1,0.1c0.1,0.1,0.2,0.1,0.3,0.2c0.1,0,0.1,0.1,0.2,0.1c0.1,0.1,0.2,0.2,0.3,0.2l0.1,0.1
	c0.1,0.1,0.3,0.3,0.4,0.5c0.1,0.1,0.2,0.2,0.3,0.4c0.1,0.1,0.1,0.2,0.2,0.3c0.1,0.1,0.1,0.2,0.2,0.3c0.1,0.1,0.1,0.2,0.2,0.3
	c0,0.1,0.1,0.1,0.1,0.2c0.1,0.3,0.3,0.6,0.4,0.9c0,0.1,0.1,0.2,0.1,0.3c0,0.1,0.1,0.2,0.1,0.3c0,0.1,0.1,0.2,0.1,0.3
	c0,0.1,0.1,0.2,0.1,0.4c0,0.1,0,0.2,0.1,0.2c0,0.1,0,0.1,0,0.2c0,0.1,0.1,0.3,0.1,0.4c0,0.1,0,0.1,0,0.2c0.3,2.5-0.2,4.8-0.3,5.3
	c0,0,0,0,0,0c-0.1,0.5,0,1,0.3,1.4c0.1,0.1,0.2,0.2,0.2,0.3c0.3,0.3,0.6,0.4,1,0.5c1.3,0.2,3.1,0.5,5,1.3c1,0.4,2.1,1,3.2,1.7
	c3.4,2.2,5.3,5,6.4,7c0.4,0.9,1.5,1.2,2.4,0.7c0.9-0.4,1.2-1.5,0.7-2.4c-1-2-2.8-4.7-5.8-7.1h22.2c0,2.3,0,4.6,0.1,6.9
	c0,2.4,0.1,4.8,0.1,7.2H61.1c-3.6,0-6.6,3-6.6,6.6V53H49z M58,102.9V56.6V53v-3.8c0-1.7,1.4-3.1,3.1-3.1h19.5h3.6h30.1v54.5H64.1
	C61.8,100.6,59.7,101.5,58,102.9z"/>
<path class="st1" d="M116,105.9H63.3c-1,0-1.8,0.8-1.8,1.8s0.8,1.8,1.8,1.8H116c1,0,1.8-0.8,1.8-1.8S116.9,105.9,116,105.9z"/>
<path class="st1" d="M116,111.2H63.3c-1,0-1.8,0.8-1.8,1.8s0.8,1.8,1.8,1.8H116c1,0,1.8-0.8,1.8-1.8S116.9,111.2,116,111.2z"/>
<path class="st1" d="M103.7,56.7H68.5c-1,0-1.8,0.8-1.8,1.8v14.1c0,1,0.8,1.8,1.8,1.8h35.1c1,0,1.8-0.8,1.8-1.8V58.5
	C105.4,57.5,104.6,56.7,103.7,56.7z M101.9,70.8H70.3V60.2h31.6V70.8z"/>
<path class="st1" d="M75.6,67.3h12.3c1,0,1.8-0.8,1.8-1.8c0-1-0.8-1.8-1.8-1.8H75.6c-1,0-1.8,0.8-1.8,1.8
	C73.8,66.5,74.6,67.3,75.6,67.3z"/>
<path class="st1" d="M93.1,67.3h3.5c1,0,1.8-0.8,1.8-1.8c0-1-0.8-1.8-1.8-1.8h-3.5c-1,0-1.8,0.8-1.8,1.8
	C91.4,66.5,92.2,67.3,93.1,67.3z"/>
<path class="st1" d="M29.9,92.3c1,0,1.8-0.8,1.8-1.8V67.7c0-1-0.8-1.8-1.8-1.8s-1.8,0.8-1.8,1.8v22.8C28.1,91.5,28.9,92.3,29.9,92.3
	z"/>
</svg>
