<?xml version="1.0" encoding="utf-8"?>
<!-- Generator: Adobe Illustrator 22.1.0, SVG Export Plug-In . SVG Version: 6.00 Build 0)  -->
<svg version="1.1" id="Layer_1" xmlns="http://www.w3.org/2000/svg" xmlns:xlink="http://www.w3.org/1999/xlink" x="0px" y="0px"
	 viewBox="0 0 79.8 97.6" style="enable-background:new 0 0 79.8 97.6;" xml:space="preserve">
<style type="text/css">
	.st0{fill:#FF2C2C;}
	.st1{fill:#61C4F2;}
	.st2{fill:#263357;}
</style>
<path class="st0" d="M48.3,24.3c-1.8,1.4-4.1,2.3-6.5,2.3c-2.4,0-4.7-0.8-6.5-2.3c-4.3,1-7.4,4.5-7.4,8.6v25.3h3.8v3.8h2.5v-3.8
	h15.2v3.8H52v-3.8h3.8V32.9C55.8,28.8,52.6,25.3,48.3,24.3z"/>
<path class="st1" d="M49.2,91.2H34.5c-1.5,0-2.8,1.3-2.8,2.8v0.3c0,1.1,0.9,2,2,2H50c1.1,0,2-0.9,2-2V94
	C52,92.5,50.7,91.2,49.2,91.2z"/>
<g>
	<path class="st2" d="M27.9,91.1V65.9c0-0.7-0.6-1.3-1.3-1.3c-0.7,0-1.3,0.6-1.3,1.3V90h-0.3h-4.8V64.6c0-0.7-0.6-1.3-1.3-1.3
		s-1.3,0.6-1.3,1.3V90h-4.8h-0.3V58.3h11.4c0.7,0,1.3-0.6,1.3-1.3c0-0.7-0.6-1.3-1.3-1.3H12.7V40.6c0-0.7-0.6-1.3-1.3-1.3
		c-0.7,0-1.3,0.6-1.3,1.3v15.2H7.6V37.5c0-2.9,1.9-5.6,4.9-6.9c1.9,1.4,4.2,2.2,6.5,2.2c1.3,0,3.7-0.2,5.7-1.3
		c0.6-0.3,0.8-1.1,0.5-1.7c-0.3-0.6-1.1-0.8-1.7-0.5C22,30.1,20,30.2,19,30.2c-2,0-3.9-0.7-5.5-2c-0.3-0.3-0.8-0.4-1.2-0.2
		c-4.3,1.5-7.2,5.3-7.2,9.5v22.7c0,1.7,1.5,3.2,3.4,3.2h1.7v27.7c-0.8,0.7-1.3,1.8-1.3,2.9v0.3c0,1.8,1.4,3.2,3.2,3.2h13.8
		c1.8,0,3.2-1.4,3.2-3.2V94C29.1,92.9,28.7,91.8,27.9,91.1z M8.4,60.8c-0.4,0-0.8-0.3-0.8-0.6v-1.9h2.5v2.5H8.4z M26.6,94.4
		c0,0.4-0.3,0.7-0.7,0.7H12.1c-0.4,0-0.7-0.3-0.7-0.7V94c0-0.8,0.7-1.5,1.5-1.5h4.8c0,0.7,0.6,1.2,1.3,1.2c0.7,0,1.3-0.6,1.3-1.2
		h4.8c0.8,0,1.5,0.7,1.5,1.5V94.4z"/>
	<path class="st2" d="M11.1,21.8c0.8,4.1,4,7.2,7.9,7.2s7.1-3.1,7.9-7.2c0,0,0,0,0,0c2-3.3,2-7.3,0.1-10.3c-1.6-2.4-4.6-3.9-8-3.9
		s-6.5,1.4-8,3.9C9.1,14.4,9.2,18.4,11.1,21.8C11.1,21.7,11.1,21.8,11.1,21.8z M19,26.4c-2.8,0-5.2-2.6-5.5-5.8
		c0.1-0.4,0.2-0.9,0.3-1.4c0.1-0.4,0.2-0.8,0.3-1.2c0.1-0.4,0.2-0.7,0.3-1.1c1.4,0.4,2.9,0.6,4.4,0.6c1.6,0,3.2-0.2,4.7-0.6
		c0.1,0.3,0.2,0.7,0.3,1.1c0.1,0.4,0.2,0.8,0.3,1.2c0.1,0.5,0.3,1,0.3,1.4C24.2,23.9,21.8,26.4,19,26.4z M13.1,12.8
		c1.1-1.7,3.3-2.7,5.9-2.7s4.8,1,5.9,2.7c0.3,0.5,0.6,1,0.7,1.6c0.1,0.4,0.2,0.9,0.2,1.4c-0.1-0.3-0.2-0.6-0.4-0.9
		c-0.2-0.5-0.7-0.8-1.2-0.8c-0.1,0-0.3,0-0.4,0.1c-0.4,0.2-0.9,0.3-1.3,0.4c-1.2,0.3-2.4,0.5-3.7,0.4c-1.2,0-2.3-0.2-3.4-0.4
		c-0.4-0.1-0.9-0.2-1.3-0.4c-0.6-0.2-1.3,0.1-1.6,0.7c-0.1,0.3-0.3,0.6-0.4,0.9c0-0.5,0.1-0.9,0.2-1.4
		C12.6,13.9,12.8,13.3,13.1,12.8z"/>
	<path class="st2" d="M77.3,37.6C77.1,35,75.9,32.7,74,31c-1.1-1-2.4-1.8-3.7-2.4c-0.4-0.2-0.8-0.1-1.1,0c-3.1,1.6-6.5,1.6-9.6,0
		c-0.6-0.3-1.4-0.1-1.7,0.5c-0.3,0.6-0.1,1.4,0.5,1.7c1.9,1,3.9,1.5,6,1.5c1.9,0,3.7-0.4,5.4-1.2c0.9,0.5,1.8,1.1,2.6,1.7
		c1.4,1.3,2.3,3,2.5,5l1.8,17.9h-3l-1.5-13.6C72,41.5,71.4,41,70.7,41c-0.7,0.1-1.2,0.7-1.1,1.4l2,18.4h-12c-0.7,0-1.3,0.6-1.3,1.3
		s0.6,1.3,1.3,1.3h12l-2,26.6h-3.9V65.9c0-0.7-0.6-1.3-1.3-1.3c-0.7,0-1.3,0.6-1.3,1.3V90h-3.9l-1.8-24c-0.1-0.7-0.7-1.2-1.4-1.2
		c-0.7,0.1-1.2,0.7-1.2,1.4l1.9,24.4c-1.2,0.7-1.8,2.1-1.7,3.6c0.2,1.7,1.6,3.4,3.8,3.4h10.6c2.5,0,3.8-2,3.8-3.8
		c0-1-0.4-2.1-1.2-2.8l2.1-27.5h2.1c1.9,0,3.4-1.4,3.4-3.2c0,0,0-0.1,0-0.1L77.3,37.6z M69.3,95H58.8c-1.1,0-1.2-1-1.3-1.2
		c0-0.3,0-1.1,0.8-1.3c0.3-0.1,0.6-0.1,0.9-0.1l3.8,0c0,0.7,0.6,1.2,1.3,1.2c0.7,0,1.3-0.6,1.3-1.2l3.9,0c1.1,0,1.1,0.9,1.1,1.2
		C70.6,93.9,70.5,95,69.3,95z M76.2,60.8h-2l-0.3-2.5h2.9l0.2,1.9C77,60.6,76.6,60.8,76.2,60.8z"/>
	<path class="st2" d="M77.6,67.2c-0.7-0.1-1.3,0.5-1.4,1.2l-1.4,17.6c-0.1,0.7,0.5,1.3,1.2,1.4c0,0,0.1,0,0.1,0
		c0.7,0,1.2-0.5,1.3-1.2l1.4-17.6C78.8,67.8,78.3,67.2,77.6,67.2z"/>
	<path class="st2" d="M41.8,24.1c4.9,0,8.9-4.5,8.9-10.1c0-1.8-0.4-3.4-1.1-4.9C51,6.9,51.2,3.7,50,0.8c-0.1-0.3-0.4-0.6-0.7-0.7
		c-0.3-0.1-0.7-0.1-1,0c-1.4,0.7-2.8,1.1-4.2,1.3c-1.6,0.2-2.8,0.1-3.8,0c-1.4-0.2-2.7-0.3-4.3,0.4c-3.5,1.6-4.5,5.4-4.5,5.4
		c-0.9,3.5,0.8,6.5,1.6,7.5C33.4,20,37.2,24.1,41.8,24.1z M41.8,21.5c-3.4,0-6.2-3.2-6.3-7.2c0,0,0,0,0-0.1c0-0.1,0-0.2,0-0.3v-0.2
		c0,0,0,0,0,0c0,0,0,0,0,0c-0.1-1.1,0.1-2.2,0.5-3.2c0.3-0.7,0.7-1.2,1-1.7c1.9,1.8,4.2,2.8,6.7,2.8c1.4,0,2.7-0.3,3.8-0.9
		c0.4,1,0.6,2.1,0.6,3.2C48.2,18.1,45.3,21.5,41.8,21.5z M33.9,7.9c0,0,0.8-2.7,3.1-3.7c0.6-0.3,1-0.3,1.6-0.3
		c0.4,0,0.9,0.1,1.4,0.1c1.1,0.1,2.5,0.3,4.4,0c1.2-0.2,2.5-0.5,3.7-1c0.5,1.9,0.2,3.8-0.8,4.8l0,0c0,0-0.1,0.1-0.1,0.1
		c-0.8,0.7-2,1.2-3.3,1.1C41.6,9,39.5,8,38,6.2c-0.2-0.3-0.5-0.4-0.9-0.5c-0.3,0-0.7,0.1-0.9,0.3c-0.8,0.7-1.8,1.8-2.6,3.5
		c0,0,0,0,0,0C33.7,9,33.7,8.5,33.9,7.9z"/>
	<path class="st2" d="M54.3,63.3c0.1,0,0.2-0.1,0.3-0.1c0.1,0,0.2-0.1,0.3-0.1c0.1,0,0.1-0.1,0.2-0.1c1.1-0.5,1.9-1.6,1.9-2.8V57
		V32.9c0-4.7-3.5-8.7-8.4-9.8c-0.4-0.1-0.8,0-1.1,0.2c-1.7,1.3-3.7,2-5.7,2c-2,0-4-0.7-5.7-2c-0.3-0.2-0.7-0.3-1.1-0.2
		c-5,1.1-8.4,5.2-8.4,9.8V57v3.2c0,1.3,0.8,2.4,1.9,2.9c0,0,0.1,0,0.1,0.1c0.1,0,0.2,0.1,0.4,0.1c0.1,0,0.2,0.1,0.3,0.1
		c0.1,0,0.3,0,0.4,0c0.1,0,0.1,0,0.2,0h0h1.7v27.7c-0.8,0.7-1.3,1.8-1.3,2.9v0.3c0,1.8,1.4,3.2,3.2,3.2H50c1.8,0,3.2-1.4,3.2-3.2V94
		c0-1.2-0.5-2.2-1.3-2.9V63.4h1.7h0c0.1,0,0.1,0,0.2,0C54,63.3,54.2,63.3,54.3,63.3z M35.1,25.7c2,1.4,4.4,2.2,6.8,2.2
		c2.4,0,4.7-0.7,6.8-2.2c3.5,1,5.9,3.9,5.9,7.2v22.8H52V34.2c0-0.7-0.6-1.3-1.3-1.3c-0.7,0-1.3,0.6-1.3,1.3v21.5H34.2V34.2
		c0-0.7-0.6-1.3-1.3-1.3s-1.3,0.6-1.3,1.3v21.5h-2.5V32.9C29.1,29.6,31.5,26.7,35.1,25.7z M30,60.8c-0.4,0-0.8-0.3-0.8-0.6v-1.9h2.5
		v2.5H30z M50.7,94.4c0,0.4-0.3,0.7-0.7,0.7H33.6c-0.4,0-0.7-0.3-0.7-0.7V94c0-0.1,0-0.2,0-0.3c0.1-0.7,0.7-1.3,1.5-1.3h6.1
		c0,0.7,0.6,1.3,1.3,1.3s1.3-0.6,1.3-1.3h6.1c0.8,0,1.4,0.5,1.5,1.3c0,0.1,0,0.2,0,0.3V94.4z M49.2,90h-6.1V64.6
		c0-0.7-0.6-1.3-1.3-1.3s-1.3,0.6-1.3,1.3V90h-6.1c-0.1,0-0.2,0-0.3,0V63.4v-2.5v-2.5h15.2v2.5v2.5V90C49.3,90,49.2,90,49.2,90z
		 M52,60.8v-2.5h2.5v1.9c0,0.3-0.4,0.6-0.8,0.6H52z"/>
	<path class="st2" d="M79.4,23.1c-0.5-0.4-0.9-0.8-1.2-1.3c-1.2-1.5-1.4-3-1.6-4.8c-0.2-1.7-0.5-3.7-1.7-6c-0.6-1.1-1.3-2.6-3-3.8
		c-2-1.5-4.7-2-7.6-1.7c-2.9-0.4-5.6,0.2-7.6,1.7c-1.7,1.2-2.4,2.7-3,3.8c-1.2,2.3-1.5,4.3-1.7,6c-0.2,1.3-0.3,2.4-0.9,3.6
		c-0.3,0.6,0,1.4,0.6,1.7c0.6,0.3,1.4,0,1.7-0.6c0.7-1.5,0.9-2.9,1.1-4.3c0.2-1.6,0.4-3.2,1.4-5.2c0.5-1,1.1-2,2.2-2.9
		c1.9-1.4,4.3-1.4,5.9-1.2c0.1,0,0.2,0,0.4,0c1.6-0.2,4-0.2,5.9,1.2c1.2,0.9,1.7,1.9,2.2,2.9c1,1.9,1.2,3.6,1.4,5.2
		c0.3,1.9,0.5,3.9,2.1,5.9c0.3,0.4,0.7,0.8,1.1,1.2c-0.2,0.6-0.5,1.4-1.1,2c-0.7,0.8-1.5,1.2-2.1,1.5c-0.7,0.2-1,1-0.7,1.6
		c0.2,0.5,0.7,0.8,1.2,0.8c0.1,0,0.3,0,0.4-0.1c1.2-0.5,2.3-1.2,3.1-2.2c1.2-1.4,1.7-2.9,1.8-4C79.9,23.8,79.7,23.4,79.4,23.1z"/>
	<path class="st2" d="M66.9,10.2c-0.6-0.4-1.4-0.2-1.8,0.3c-1.4,2.1-3.2,4-5.2,5.4c-1.1,0.8-2.3,1.5-3.5,2c-0.6,0.3-0.9,1-0.6,1.7
		c0.2,0.5,0.7,0.7,1.1,0.7c0.7,4.7,3.8,8.1,7.4,8.1c3.5,0,6.5-3.2,7.3-7.6c0.1,0.1,0.3,0.1,0.4,0.1c0.5,0,1-0.3,1.2-0.8
		c0.3-0.6,0-1.4-0.7-1.7c-1.5-0.6-2.8-1.5-4-2.5c-0.9-0.8-1.8-1.6-2.5-2.5c0.4-0.5,0.8-1.1,1.2-1.6C67.6,11.4,67.4,10.6,66.9,10.2z
		 M66.9,18.1c0.7,0.6,1.5,1.1,2.3,1.6c-0.4,3.6-2.5,6.2-5,6.2c-2.4,0-4.5-2.7-5-6.2c0-0.1-0.1-0.3-0.1-0.4c0.7-0.4,1.4-0.9,2.1-1.4
		c1.1-0.8,2-1.6,2.9-2.5C65.1,16.4,66,17.3,66.9,18.1z"/>
	<path class="st2" d="M3.2,30.5c-0.6-0.3-1.4,0-1.7,0.6c-1,2-1.5,4.1-1.5,6.3v22.7c0,0.7,0.6,1.3,1.3,1.3s1.3-0.6,1.3-1.3V37.5
		c0-1.8,0.4-3.6,1.2-5.2C4.1,31.6,3.8,30.9,3.2,30.5z"/>
	<circle class="st2" cx="4.5" cy="28.4" r="1.4"/>
	<circle class="st2" cx="75.9" cy="89.7" r="1.4"/>
</g>
</svg>
