<?xml version="1.0" encoding="utf-8"?>
<!-- Generator: Adobe Illustrator 22.1.0, SVG Export Plug-In . SVG Version: 6.00 Build 0)  -->
<svg version="1.1" id="Layer_1" xmlns="http://www.w3.org/2000/svg" xmlns:xlink="http://www.w3.org/1999/xlink" x="0px" y="0px"
	 viewBox="0 0 167.9 167.9" style="enable-background:new 0 0 167.9 167.9;" xml:space="preserve">
<style type="text/css">
	.st0{fill:#E2E2E2;}
	.st1{fill:none;stroke:#263357;stroke-width:5.6693;stroke-miterlimit:10;}
	.st2{fill:#ED3533;}
</style>
<g>
	<g>
		<polygon class="st0" points="146.9,26.2 146.9,167.9 21,167.9 21,0 120.7,0 		"/>
		<polygon class="st0" points="146.9,26.2 120.7,26.2 120.7,0 		"/>
	</g>
	<g>
		<g>
			<path class="st1" d="M57.7,149.5v-31.5c0-2.7-1-5.4-3.1-7.4c-2-2-4.7-3.1-7.4-3.1c-2.7,0-5.4,1-7.4,3.1c-2,2-3.1,4.7-3.1,7.4
				v31.5"/>
			<line class="st1" x1="36.7" y1="128.5" x2="57.7" y2="128.5"/>
		</g>
		<g>
			<line class="st1" x1="65.6" y1="128.5" x2="86.6" y2="128.5"/>
			<line class="st1" x1="76.1" y1="139" x2="76.1" y2="118.1"/>
		</g>
	</g>
	<g>
		<line class="st1" x1="34.1" y1="23.6" x2="39.4" y2="23.6"/>
		<line class="st1" x1="44.6" y1="23.6" x2="49.8" y2="23.6"/>
		<line class="st1" x1="55.1" y1="23.6" x2="60.3" y2="23.6"/>
	</g>
	<g>
		<line class="st1" x1="112.8" y1="149.5" x2="91.8" y2="149.5"/>
		<line class="st1" x1="133.8" y1="139" x2="91.8" y2="139"/>
	</g>
	<g>
		<polygon class="st2" points="21,78.7 5.2,73.5 5.2,68.2 21,63 162.7,63 162.7,78.7 		"/>
		<line class="st1" x1="5.2" y1="70.8" x2="0" y2="70.8"/>
		<polyline class="st1" points="84,55.1 144.3,55.1 144.3,78.7 		"/>
		<line class="st1" x1="167.9" y1="70.8" x2="162.7" y2="70.8"/>
		<line class="st1" x1="28.9" y1="63" x2="28.9" y2="78.7"/>
		<line class="st1" x1="39.4" y1="63" x2="39.4" y2="78.7"/>
	</g>
</g>
</svg>
