<?xml version="1.0" encoding="utf-8"?>
<!-- Generator: Adobe Illustrator 22.1.0, SVG Export Plug-In . SVG Version: 6.00 Build 0)  -->
<svg version="1.1" id="Layer_1" xmlns="http://www.w3.org/2000/svg" xmlns:xlink="http://www.w3.org/1999/xlink" x="0px" y="0px"
	 viewBox="0 0 178.2 168.1" style="enable-background:new 0 0 178.2 168.1;" xml:space="preserve">
<style type="text/css">
	.st0{fill:#F86464;}
	.st1{fill:#263357;}
	.st2{fill:#FFFFFF;}
	.st3{fill:#61C4F2;}
</style>
<g>
	<g>
		<g>
			<g>
				<g>
					<g>
						<path class="st0" d="M115.6,48.6c31.5,0,57.1,25.6,57.1,57.1c0,14.1-5.1,27-13.6,36.9l13.3,25.2l-24.2-15.3
							c-9.2,6.5-20.5,10.3-32.6,10.3c-31.5,0-57.1-25.6-57.1-57.1C58.5,74.2,84,48.6,115.6,48.6z"/>
					</g>
				</g>
			</g>
		</g>
	</g>
	<g>
		<g>
			<g>
				<g>
					<g>
						<path class="st1" d="M4.1,116.5l5.2-16.1C3.3,92.9,0,83.5,0,73.9c0-23.4,19.1-42.5,42.5-42.5v4.3c-21.1,0-38.2,17.2-38.2,38.2
							c0,9,3.2,17.8,9.1,24.7l0.8,0.9l-2.9,9l8.4-3.9l1,0.7c6.5,4.5,14,6.9,21.8,6.9c21.1,0,38.2-17.2,38.2-38.2H85
							c0,23.4-19.1,42.5-42.5,42.5c-8.3,0-16.3-2.4-23.3-7L4.1,116.5z"/>
					</g>
				</g>
			</g>
		</g>
		<g>
			<path class="st1" d="M85,73.9h-4.3c0-0.7,0-1.3-0.1-2l4.3-0.2C85,72.4,85,73.1,85,73.9z"/>
			<path class="st1" d="M80.2,67.6c-0.2-1.4-0.6-2.8-0.9-4.2l4.1-1.2c0.4,1.5,0.8,3.1,1,4.7L80.2,67.6z M77.9,59.3
				c-0.5-1.3-1.2-2.6-1.9-3.9l3.7-2.1c0.8,1.4,1.5,2.8,2.1,4.3L77.9,59.3z M73.7,51.8c-0.8-1.2-1.7-2.3-2.7-3.4l3.2-2.8
				c1.1,1.2,2.1,2.4,3,3.7L73.7,51.8z M68,45.3c-1.1-1-2.2-1.9-3.4-2.7l2.5-3.5c1.3,0.9,2.6,1.9,3.7,3L68,45.3z M61,40.4
				c-1.2-0.7-2.6-1.3-3.9-1.9l1.6-3.9c1.5,0.6,2.9,1.3,4.3,2.1L61,40.4z M53,37.1c-1.4-0.4-2.8-0.7-4.2-0.9l0.7-4.2
				c1.6,0.3,3.1,0.6,4.7,1.1L53,37.1z"/>
			<path class="st1" d="M44.5,35.7c-0.7,0-1.3-0.1-2-0.1v-4.3c0.7,0,1.5,0,2.2,0.1L44.5,35.7z"/>
		</g>
	</g>
	<g>
		<rect x="56.2" y="2.6" class="st1" width="4.3" height="5.2"/>
		<rect x="49" y="7.2" transform="matrix(0.5 -0.866 0.866 0.5 17.1061 49.1406)" class="st1" width="4.3" height="5.2"/>
		<rect x="48.9" y="16.1" transform="matrix(0.8658 -0.5003 0.5003 0.8658 -2.2365 28.207)" class="st1" width="5.2" height="4.3"/>
		<rect x="56.9" y="19.6" class="st1" width="4.3" height="5.2"/>
		<rect x="64.1" y="15" transform="matrix(0.5 -0.866 0.866 0.5 17.8498 66.1768)" class="st1" width="4.3" height="5.2"/>
		<rect x="63.3" y="7" transform="matrix(0.8662 -0.4997 0.4997 0.8662 4.257 34.1267)" class="st1" width="5.2" height="4.3"/>
	</g>
	<g>
		<g>
			
				<rect x="162.7" y="51.9" transform="matrix(0.7071 -0.7071 0.7071 0.7071 10.4941 133.3089)" class="st1" width="6.9" height="4.3"/>
			
				<rect x="151.4" y="43.9" transform="matrix(0.4226 -0.9063 0.9063 0.4226 47.6229 166.8948)" class="st1" width="6.9" height="4.3"/>
			
				<rect x="170.7" y="63.2" transform="matrix(0.9063 -0.4226 0.4226 0.9063 -11.2879 79.717)" class="st1" width="6.9" height="4.3"/>
			
				<rect x="162.7" y="51.9" transform="matrix(0.7071 -0.7071 0.7071 0.7071 10.4939 133.3085)" class="st1" width="6.9" height="4.3"/>
		</g>
	</g>
	<g>
		<g>
			<polygon class="st2" points="122.8,119.6 108.4,119.6 108.4,91.1 122.8,91.1 122.8,95.3 112.7,95.3 112.7,115.3 122.8,115.3 			
				"/>
			<rect x="108.4" y="103.2" class="st2" width="14.4" height="4.3"/>
		</g>
		<path class="st2" d="M137.1,108.4l-7.1-2.7c-2.9-1.8-3.5-3.8-3.5-5.2v-3c0-3.6,2.9-6.5,6.5-6.5h3.5c3.6,0,6.5,2.9,6.5,6.5v1.4
			h-4.3v-1.4c0-1.2-1-2.3-2.3-2.3h-3.5c-1.2,0-2.3,1-2.3,2.3v3c0,0.4,0.5,1,1.3,1.5l6.5,2.5L137.1,108.4z"/>
		<path class="st2" d="M136.6,119.6h-3.5c-3.6,0-6.5-2.9-6.5-6.5v-1.4h4.3v1.4c0,1.2,1,2.3,2.3,2.3h3.5c1.2,0,2.3-1,2.3-2.3v-3
			c0-0.3-0.4-0.9-1.4-1.6l-6.2-2.4l1.5-4l6.8,2.6c2.3,1.5,3.5,3.3,3.5,5.3v3C143.1,116.7,140.2,119.6,136.6,119.6z"/>
		<rect x="93.8" y="105.9" class="st2" width="4.3" height="13.8"/>
		<polygon class="st2" points="95.9,114 85.6,92.6 89.5,90.8 95.9,104.2 102.3,90.8 106.2,92.6 		"/>
	</g>
	<g>
		<rect x="25.2" y="59" class="st1" width="4.3" height="28.7"/>
		<rect x="44.7" y="59" class="st1" width="4.3" height="5.2"/>
		<rect x="44.7" y="67.1" class="st1" width="4.3" height="20.6"/>
		<rect x="52.3" y="82.5" class="st1" width="4.3" height="5.1"/>
		<rect x="52.3" y="59" class="st1" width="4.3" height="20.6"/>
		<path class="st1" d="M41.4,87.7h-4.3V71.4l-7.6,0l0,16.3h-4.3V71.4c0-2.4,1.9-4.3,4.3-4.3h7.6c2.4,0,4.3,1.9,4.3,4.3V87.7z"/>
	</g>
	<path class="st1" d="M59.6,168.1H19.4v-39.6h20.4l11.6-8.1v8.1h8.1V168.1z M23.7,163.8h31.7v-31.1h-8.1v-4.2l-6,4.2H23.7V163.8z"/>
	<polygon class="st3" points="131.2,0 81.8,0 81.8,35.7 90.7,35.7 90.7,46.9 102.4,35.7 131.2,35.7 	"/>
	<rect x="92.8" y="10.6" class="st1" width="27.4" height="4.3"/>
	<rect x="92.8" y="20.2" class="st1" width="27.4" height="4.3"/>
	<g>
		<path class="st0" d="M46.9,149.1l0.6-0.6c2-2,2-5.3,0-7.3l-0.1-0.1c-2-2-5.3-2-7.3,0l-0.6,0.6l-0.6-0.6c-2-2-5.3-2-7.3,0l-0.1,0.1
			c-2,2-2,5.3,0,7.3l0.6,0.6l7.4,7.4L46.9,149.1z"/>
	</g>
</g>
</svg>
