<?xml version="1.0" encoding="utf-8"?>
<!-- Generator: Adobe Illustrator 22.1.0, SVG Export Plug-In . SVG Version: 6.00 Build 0)  -->
<svg version="1.1" id="Layer_1" xmlns="http://www.w3.org/2000/svg" xmlns:xlink="http://www.w3.org/1999/xlink" x="0px" y="0px"
	 viewBox="0 0 161.4 138.4" style="enable-background:new 0 0 161.4 138.4;" xml:space="preserve">
<style type="text/css">
	.st0{fill:#DFE0E0;}
	.st1{fill:#263357;}
	.st2{fill:#48515A;}
	.st3{fill:#61C4F2;}
	.st4{fill:#F86464;}
</style>
<g>
	<g>
		<g>
			<path class="st0" d="M15.9,67.3c2.5,0,4.7,1,6.4,2.6v-1.4v-3.8C22.3,49.4,35,37,50.5,37.7c5.4,0.2,10.6,2.3,14.9,5.5
				c-4.6-8.4-13.5-14.6-23.1-15C26.8,27.6,14,39.9,14,55.2V59v6.4C14,66.4,14.9,67.3,15.9,67.3L15.9,67.3L15.9,67.3
				C15.9,67.3,15.9,67.3,15.9,67.3z"/>
		</g>
	</g>
	<g>
		<g>
			<path class="st0" d="M78.9,56.9c2.4,6.5,6.6,12,12.1,16c1.2-1.3,2.1-3.1,2.3-5C87.5,65.6,82.6,61.7,78.9,56.9z"/>
		</g>
		<g>
			<path class="st0" d="M133.6,57.3c-6.3,8-16.1,13.2-27.2,13.2c-1.7,0-3.5-0.1-5.1-0.4c-2,2.2-4.6,3.8-7.4,4.6
				c1.4,0.8,2.8,1.5,4.3,2.1c-0.4,4.3-4,7.6-8.3,7.6H94c4.8,0,9.2-2.1,12.2-5.3c1.7,0.2,3.4,0.4,5.1,0.4c10.6,0,20-4.8,26.4-12.2
				L133.6,57.3z"/>
			<path class="st0" d="M138.4,49.1l6.8,2.9c0.5-2.3,0.7-4.6,0.7-7c0-7.8-2.6-15.1-7-20.9c1.4,3.7,2.1,7.7,2.1,11.9
				C141,40.6,140,45,138.4,49.1z"/>
		</g>
	</g>
	<g>
		<path class="st0" d="M134.8,86.5c0.1,0.4,0.1,0.9,0,1.4l-1.8,7.3c0,1.1,0.9,1.9,1.9,1.9h3.8c-1.1,0-1.9-0.9-1.9-1.9l1.8-7.3
			c0.1-0.4,0.1-0.9,0-1.4l-0.8-3.1c-0.6-2.2-2.6-3.7-4.8-3.7v1.8c0.5,0.6,0.8,1.2,1,2L134.8,86.5z"/>
	</g>
	<g>
		<path class="st0" d="M149.2,102.8h0.2c1.6,0,3-1.4,2.9-3c-0.1-1.6-1.5-2.7-3.1-2.7h-3.8c1.6,0,3,1.2,3.1,2.7c0.1,1.7-1.2,3-2.9,3
			h-0.2c1.6,0,3,1.2,3.1,2.7c0.1,1.6-1.1,2.9-2.6,3c-0.1,0-1.2,0-1.3,0c1.8,0,3.2,1.6,2.8,3.4c-0.2,1.4-1.5,2.3-2.9,2.4v0.1
			c1.2,0.4,2.1,1.6,2,2.9c-0.1,1.6-1.5,2.7-3.1,2.7h1.9c1.6,0,3-1.2,3.1-2.7c0.1-1.7-1.2-3-2.9-3h2.7c1.4,0,2.8-1,3-2.4
			c0.3-1.8-1.1-3.4-2.8-3.4c0.1,0,1.2,0,1.3,0c1.5-0.1,2.7-1.5,2.6-3C152.2,104,150.8,102.8,149.2,102.8z"/>
	</g>
	<g>
		<path class="st1" d="M145.4,121h-8.2c-4.1,0-8.1-0.6-12-1.9h-3.7c-0.5,0-0.8-0.4-0.8-0.8c0-0.5,0.4-0.8,0.8-0.8h3.9
			c0.1,0,0.2,0,0.3,0c3.8,1.3,7.7,1.9,11.6,1.9h8.2c1.2,0,2.2-0.9,2.2-2c0-0.6-0.2-1.1-0.6-1.5c-0.4-0.4-0.9-0.6-1.5-0.6
			c-0.5,0-0.8-0.4-0.8-0.8c0-0.5,0.4-0.8,0.8-0.8h2.7c1.1,0,2-0.7,2.2-1.7c0.1-0.6,0-1.2-0.5-1.7c-0.4-0.5-1-0.7-1.6-0.7h0
			c-0.5,0-0.8-0.4-0.8-0.8c0-0.5,0.4-0.8,0.9-0.8l0.1,0c0.3,0,0.9,0,1,0c1.1-0.1,1.9-1.1,1.8-2.2c-0.1-1.1-1.1-2-2.2-2
			c-0.5,0-0.8-0.4-0.8-0.8c0-0.5,0.4-0.8,0.8-0.8h0.2c0.6,0,1.1-0.2,1.5-0.6c0.4-0.4,0.6-1,0.6-1.5c-0.1-1.1-1.1-2-2.2-2h-10.4
			c-1.5,0-2.8-1.2-2.8-2.8c0-0.1,0-0.1,0-0.2l1.8-7.3c0.1-0.3,0.1-0.7,0-1l-0.8-3.1c-0.4-1.6-1.7-2.7-3.2-3v4.9c0,0.1,0,0.2-0.1,0.3
			l-4.3,11.3c-0.4,1.1-1.4,1.8-2.6,1.8h-5.4c-0.5,0-0.8-0.4-0.8-0.8c0-0.5,0.4-0.8,0.8-0.8h5.4c0.5,0,0.9-0.3,1-0.7l4.3-11.2v-5.6
			c0-0.5,0.4-0.8,0.8-0.8c2.6,0,5,1.8,5.6,4.4l0.8,3.1c0.1,0.6,0.2,1.2,0,1.8l-1.7,7.2c0,0.6,0.5,1,1.1,1h10.4
			c2.1,0,3.8,1.5,3.9,3.5c0.1,1-0.3,2-1,2.8c-0.1,0.1-0.3,0.2-0.4,0.4c0.8,0.6,1.3,1.6,1.4,2.7c0.1,1.5-0.7,2.8-1.9,3.5
			c0,0,0.1,0.1,0.1,0.1c0.7,0.9,1,2,0.8,3.1c-0.3,1.6-1.8,2.9-3.5,3c0.5,0.7,0.7,1.5,0.6,2.3C149.2,119.5,147.5,121,145.4,121z"/>
	</g>
	<g>
		<path class="st2" d="M149.4,103.7h-4.8c-0.5,0-0.8-0.4-0.8-0.8c0-0.5,0.4-0.8,0.8-0.8h4.8c0.5,0,0.8,0.4,0.8,0.8
			C150.2,103.3,149.9,103.7,149.4,103.7z"/>
	</g>
	<g>
		<path class="st2" d="M149.4,109.4h-4.8c-0.5,0-0.8-0.4-0.8-0.8c0-0.5,0.4-0.8,0.8-0.8h4.8c0.5,0,0.8,0.4,0.8,0.8
			C150.2,109.1,149.9,109.4,149.4,109.4z"/>
	</g>
	<g>
		<path class="st2" d="M145.5,115.2h-1c-0.5,0-0.8-0.4-0.8-0.8c0-0.5,0.4-0.8,0.8-0.8h1c0.5,0,0.8,0.4,0.8,0.8
			C146.4,114.9,146,115.2,145.5,115.2z"/>
	</g>
	<g>
		<path class="st1" d="M141.9,100.6c-0.2,0-0.4-0.1-0.6-0.2c-0.1-0.1-0.1-0.2-0.2-0.3c0-0.1-0.1-0.2-0.1-0.3c0-0.2,0.1-0.4,0.2-0.6
			c0.2-0.2,0.6-0.3,0.9-0.2c0.1,0,0.2,0.1,0.3,0.2c0.2,0.1,0.2,0.4,0.2,0.6c0,0.1,0,0.2-0.1,0.3c0,0.1-0.1,0.2-0.2,0.3
			c-0.1,0.1-0.2,0.1-0.3,0.2C142.1,100.6,142,100.6,141.9,100.6z"/>
	</g>
	<g>
		<path class="st1" d="M141.9,106.4c0,0-0.1,0-0.2,0c-0.1,0-0.1,0-0.2,0c0,0-0.1,0-0.1-0.1c0,0-0.1-0.1-0.1-0.1
			c-0.2-0.1-0.2-0.4-0.2-0.6c0-0.2,0.1-0.4,0.2-0.6c0,0,0.1-0.1,0.1-0.1c0,0,0.1,0,0.1-0.1c0,0,0.1,0,0.2,0c0.3,0,0.6,0,0.7,0.2
			c0.2,0.1,0.2,0.4,0.2,0.6c0,0.2-0.1,0.4-0.2,0.6c-0.1,0.1-0.2,0.1-0.3,0.2C142.1,106.4,142,106.4,141.9,106.4z"/>
	</g>
	<g>
		<path class="st1" d="M141.9,112.2c0,0-0.1,0-0.2,0c-0.1,0-0.1,0-0.2,0c0,0-0.1,0-0.1-0.1c0,0-0.1-0.1-0.1-0.1
			c-0.2-0.1-0.2-0.4-0.2-0.6c0-0.1,0-0.2,0.1-0.3c0-0.1,0.1-0.2,0.2-0.3c0.2-0.2,0.6-0.3,0.9-0.2c0.1,0,0.2,0.1,0.3,0.2
			c0.1,0.1,0.1,0.2,0.2,0.3c0,0.1,0.1,0.2,0.1,0.3c0,0.2-0.1,0.4-0.2,0.6C142.3,112.1,142.1,112.2,141.9,112.2z"/>
	</g>
	<g>
		<rect x="105.7" y="95.2" class="st3" width="15.8" height="26.3"/>
	</g>
	<g>
		<path class="st1" d="M141.9,117.9c-0.2,0-0.4-0.1-0.6-0.2c-0.2-0.1-0.2-0.4-0.2-0.6c0-0.1,0-0.2,0.1-0.3c0-0.1,0.1-0.2,0.2-0.3
			c0.2-0.2,0.6-0.3,0.9-0.2c0.1,0,0.2,0.1,0.3,0.2c0.1,0.1,0.1,0.2,0.2,0.3c0,0.1,0.1,0.2,0.1,0.3c0,0.2-0.1,0.4-0.2,0.6
			c-0.1,0.1-0.2,0.1-0.3,0.2C142.1,117.9,142,117.9,141.9,117.9z"/>
	</g>
	<g>
		<path class="st1" d="M133.2,56.4c-6.2,8.1-15.9,13.3-26.8,13.3c-1.7,0-3.3-0.1-5-0.4c-0.3,0-0.5,0.1-0.7,0.3
			c-2.8,3-6.5,4.8-10.5,5c2.1-1.5,3.6-3.9,3.8-6.7c0-0.4-0.2-0.7-0.5-0.8C80.8,61.9,72.7,49.7,72.7,36c0-18.6,15.1-33.7,33.7-33.7
			s33.7,15.1,33.7,33.7c0,4.5-0.9,8.8-2.5,12.8l1.5,0.6c1.7-4.1,2.6-8.7,2.6-13.4c0-19.5-15.9-35.4-35.4-35.4
			C86.9,0.6,71,16.5,71,36c0,14.2,8.3,26.8,21.3,32.5c-0.6,3.6-3.7,6.3-7.4,6.3c-0.5,0-0.8,0.4-0.8,0.8c0,0.5,0.4,0.8,0.8,0.8h4.2
			c4.7,0,9.2-1.9,12.5-5.3c1.6,0.2,3.2,0.3,4.8,0.3c11.1,0,21-5.1,27.5-13.2L133.2,56.4z"/>
		<path class="st1" d="M89.1,76.9h-4.2c-0.8,0-1.4-0.6-1.4-1.4c0-0.8,0.6-1.4,1.4-1.4c3.2,0,6-2.2,6.7-5.3
			C78.7,63,70.4,50.2,70.4,36c0-19.8,16.1-36,36-36c19.8,0,36,16.1,36,36c0,4.7-0.9,9.3-2.7,13.6l-0.2,0.6l-2.6-1.1l0.2-0.6
			c1.6-4,2.5-8.2,2.5-12.5c0-18.3-14.9-33.1-33.1-33.1S73.3,17.7,73.3,36c0,13.5,8,25.5,20.5,30.6c0.6,0.2,0.9,0.8,0.9,1.4
			c-0.2,2.2-1.1,4.2-2.5,5.7c3.1-0.6,5.9-2.2,8.1-4.6c0.3-0.3,0.8-0.5,1.3-0.4c1.6,0.2,3.3,0.4,4.9,0.4c10.4,0,20-4.8,26.3-13
			l0.6-0.8l1.3,3l-0.2,0.3c-6.9,8.5-17.1,13.4-28,13.4c-1.5,0-3.1-0.1-4.6-0.3C98.4,75,93.8,76.9,89.1,76.9z M106.4,1.2
			C87.2,1.2,71.6,16.8,71.6,36c0,13.9,8.2,26.4,20.9,31.9l0.4,0.2l-0.1,0.5c-0.7,3.9-4,6.8-8,6.8c-0.1,0-0.2,0.1-0.2,0.2
			s0.1,0.2,0.2,0.2h4.2c4.5,0,8.9-1.9,12.1-5.1l0.2-0.2l0.3,0c1.6,0.2,3.2,0.3,4.7,0.3c10.4,0,20.2-4.6,26.8-12.7l-0.2-0.5
			c-6.6,8.1-16.2,12.7-26.6,12.7c-1.7,0-3.4-0.1-5.1-0.4c-0.1,0-0.1,0-0.2,0.1c-2.9,3.1-6.7,4.9-10.9,5.2l-2.2,0.2l1.8-1.2
			c2-1.4,3.3-3.7,3.6-6.2c0-0.1,0-0.2-0.1-0.2C80.4,62.4,72.1,49.9,72.1,36c0-18.9,15.4-34.3,34.3-34.3s34.3,15.4,34.3,34.3
			c0,4.3-0.8,8.5-2.3,12.4l0.4,0.2c1.6-4,2.4-8.3,2.4-12.6C141.2,16.8,125.6,1.2,106.4,1.2z"/>
	</g>
	<g>
		<path class="st1" d="M125.7,42.1l35.7,15.3l-9.6,5.8l8.5,8.5l-5,5l-8.3-8.3l-5.7,11.4L125.7,42.1z M141.6,72.9l4.6-9.3l9.1,9.1
			l1-1l-9.1-9.1l8-4.8L131,47.5L141.6,72.9z"/>
		<path class="st1" d="M141.4,78.4l-14.5-35.2l33.2,14.2l-9.3,5.6l8.6,8.6l-4.2,4.2l-8.4-8.4L141.4,78.4z M129.9,46.3l11.6,28.1
			l4.9-9.8l8.9,8.9l1.9-1.9l-9-9l8.3-5L129.9,46.3z"/>
	</g>
	<g>
		<g>
			<path class="st4" d="M106.1,44.1c-8.4,0-15.2-6.8-15.2-15.2c0-8.4,6.8-15.2,15.2-15.2s15.2,6.8,15.2,15.2
				C121.3,37.3,114.5,44.1,106.1,44.1z M106.1,15.3c-7.5,0-13.6,6.1-13.6,13.6c0,7.5,6.1,13.6,13.6,13.6c7.5,0,13.6-6.1,13.6-13.6
				C119.7,21.4,113.6,15.3,106.1,15.3z"/>
		</g>
		<g>
			<path class="st4" d="M102.5,24.8c-0.3-0.5-0.9-0.9-1.5-0.9c-0.6,0-1.2,0.3-1.5,0.9L98.1,24c0.6-1,1.7-1.7,2.9-1.7
				c1.2,0,2.3,0.6,2.9,1.7L102.5,24.8z"/>
		</g>
		<g>
			<path class="st4" d="M112.7,24.8c-0.3-0.5-0.9-0.9-1.5-0.9c-0.6,0-1.2,0.3-1.5,0.9l-1.4-0.8c0.6-1,1.7-1.7,2.9-1.7
				c1.2,0,2.3,0.6,2.9,1.7L112.7,24.8z"/>
		</g>
		<g>
			<path class="st4" d="M106.1,38.7c-5,0-9.1-4.1-9.1-9.1v-0.8h18.1v0.8C115.2,34.7,111.1,38.7,106.1,38.7z M98.8,30.5
				c0.4,3.7,3.6,6.6,7.4,6.6s6.9-2.9,7.4-6.6H98.8z"/>
		</g>
	</g>
	<g>
		<g>
			<g>
				<g>
					<path class="st1" d="M87.1,131.1c-0.2,0-0.4,0-0.6,0c-8.7-0.3-15.5-7.7-15.1-16.3c0.1-2.3,0.7-4.5,1.7-6.6l-1.5-9.3l9.4,2
						c2.1-0.9,4.4-1.3,6.7-1.2c4.2,0.2,8.1,2,10.9,5c2.9,3.1,4.3,7.1,4.2,11.3c-0.2,4.2-2,8.1-5,10.9
						C94.9,129.6,91.1,131.1,87.1,131.1z M73.6,101l1.2,7.4l-0.1,0.2c-1,1.9-1.6,4-1.7,6.1c-0.3,7.8,5.8,14.3,13.5,14.6
						c3.8,0.1,7.4-1.2,10.1-3.7c2.8-2.6,4.4-6,4.5-9.8c0.1-3.8-1.2-7.4-3.7-10.1c-2.6-2.8-6-4.4-9.8-4.5c-2.2-0.1-4.3,0.3-6.2,1.2
						l-0.2,0.1L73.6,101z"/>
					<path class="st1" d="M87.1,131.7c-0.2,0-0.4,0-0.7,0c-9-0.4-16.1-8-15.7-17c0.1-2.3,0.7-4.6,1.7-6.7l-1.6-9.9l10.1,2.1
						c2.2-0.9,4.5-1.3,6.8-1.2c4.4,0.2,8.4,2,11.4,5.2c3,3.2,4.5,7.4,4.3,11.7c-0.2,4.4-2,8.4-5.2,11.4
						C95.2,130.2,91.2,131.7,87.1,131.7z M72.3,99.7l1.4,8.6l-0.1,0.2c-1,2-1.6,4.1-1.7,6.3c-0.3,8.3,6.2,15.4,14.5,15.7
						c4.1,0.2,7.9-1.3,10.9-4c3-2.7,4.7-6.5,4.8-10.5c0.2-4-1.3-7.9-4-10.9c-2.7-3-6.5-4.7-10.5-4.8c-2.2-0.1-4.4,0.3-6.5,1.2
						l-0.2,0.1L72.3,99.7z M87.1,130.1c-0.2,0-0.4,0-0.6,0c-8.1-0.3-14.4-7.2-14.1-15.3c0.1-2.3,0.7-4.4,1.7-6.4l0-0.1l-1.3-8.1
						l8.3,1.7l0.1,0c2.1-0.9,4.2-1.3,6.5-1.2c3.9,0.2,7.6,1.8,10.2,4.7c2.7,2.9,4.1,6.6,3.9,10.6c-0.2,3.9-1.8,7.6-4.7,10.2
						C94.3,128.7,90.8,130.1,87.1,130.1z M74.3,101.8l1.1,6.8l-0.2,0.4c-1,1.8-1.5,3.8-1.6,5.9c-0.3,7.4,5.5,13.7,13,14
						c3.6,0.1,7-1.1,9.7-3.6c2.6-2.4,4.2-5.8,4.3-9.4c0.1-3.6-1.1-7-3.6-9.7c-2.4-2.6-5.8-4.2-9.4-4.3c-2.1-0.1-4.1,0.3-6,1.1
						l-0.4,0.2L74.3,101.8z"/>
				</g>
			</g>
		</g>
	</g>
	<g>
		<path class="st4" d="M94.4,116.3c0.6-0.8,1-1.7,1-2.8c0-2.5-2-4.5-4.5-4.5c-1.5,0-2.9,0.8-3.7,1.9c-0.8-1.2-2.2-1.9-3.7-1.9
			c-2.5,0-4.5,2-4.5,4.5c0,1.1,0.4,2,1,2.8l0,0c0.2,0.2,7.2,7.4,7.2,7.4S94.2,116.5,94.4,116.3L94.4,116.3z"/>
		<path class="st4" d="M87.2,124.9l-0.6-0.6c-2.6-2.7-7.1-7.3-7.2-7.5c-0.8-1-1.2-2.1-1.2-3.3c0-2.9,2.4-5.3,5.3-5.3
			c1.4,0,2.7,0.5,3.7,1.5c1-1,2.3-1.5,3.7-1.5c2.9,0,5.3,2.4,5.3,5.3c0,1.2-0.4,2.4-1.2,3.3l0,0c-0.2,0.2-4.6,4.8-7.3,7.5
			L87.2,124.9z M83.5,109.8c-2,0-3.7,1.6-3.7,3.7c0,0.8,0.3,1.6,0.8,2.3c0.2,0.2,3.8,4,6.6,6.8c2.7-2.8,6.3-6.5,6.6-6.8
			c0.5-0.7,0.8-1.4,0.8-2.3c0-2-1.6-3.7-3.7-3.7c-1.2,0-2.3,0.6-3,1.6l-0.7,1l-0.7-1C85.8,110.4,84.7,109.8,83.5,109.8z"/>
	</g>
	<g>
		<g>
			<g>
				<rect x="68.4" y="1.4" class="st1" width="1.6" height="3.3"/>
			</g>
			<g>
				<rect x="68.4" y="9.6" class="st1" width="1.6" height="3.3"/>
			</g>
		</g>
		<g>
			<g>
				<rect x="71.7" y="6.3" class="st1" width="3.3" height="1.6"/>
			</g>
			<g>
				<rect x="63.5" y="6.3" class="st1" width="3.3" height="1.6"/>
			</g>
		</g>
	</g>
	<g>
		<g>
			<g>
				<rect x="88.2" y="82.1" class="st1" width="1.6" height="3.3"/>
			</g>
			<g>
				<rect x="88.2" y="90.3" class="st1" width="1.6" height="3.3"/>
			</g>
		</g>
		<g>
			<g>
				<rect x="91.5" y="87" class="st1" width="3.3" height="1.6"/>
			</g>
			<g>
				<rect x="83.3" y="87" class="st1" width="3.3" height="1.6"/>
			</g>
		</g>
	</g>
	<g>
		<g>
			<g>
				<g>
					<path class="st1" d="M32.3,137.4c-5.7,0-11-2.1-15.2-6c-4.5-4.2-7-10.1-7-16.3c0-0.5,0.4-0.8,0.8-0.8c0.5,0,0.8,0.4,0.8,0.8
						c0,5.8,2.3,11.1,6.5,15.1c4.2,3.9,9.7,5.9,15.5,5.5C44.5,135,53,125.6,53,114.4v-6.5c0-8.9,4.2-17.4,11.2-22.5
						C75.6,77,81.6,63,79.7,48.9c-2.2-17.4-16.5-31.3-33.9-33.3c-11.2-1.2-21.9,2.2-30.2,9.6C7.4,32.6,2.7,43.1,2.7,54.1
						c0,0.5-0.4,0.8-0.8,0.8c-0.5,0-0.8-0.4-0.8-0.8C1,42.7,5.9,31.7,14.5,24c8.7-7.8,19.8-11.3,31.5-10c18.2,2,33,16.6,35.4,34.7
						c1.9,14.7-4.3,29.2-16.2,37.9c-6.6,4.8-10.6,12.7-10.6,21.2v6.5c0,12.1-9.1,22.2-20.8,23C33.3,137.3,32.8,137.4,32.3,137.4z"/>
					<path class="st1" d="M32.3,138.4c-5.9,0-11.6-2.2-15.9-6.3c-4.7-4.4-7.4-10.6-7.4-17c0-1,0.8-1.9,1.9-1.9s1.9,0.8,1.9,1.9
						c0,5.5,2.2,10.6,6.2,14.3c4,3.7,9.2,5.6,14.7,5.3c10.3-0.7,18.3-9.6,18.3-20.3v-6.5c0-9.3,4.4-18,11.6-23.3
						c11.1-8.1,16.9-21.7,15.1-35.4c-2.2-16.9-16.1-30.5-33-32.4c-10.9-1.2-21.3,2.1-29.4,9.4c-8,7.1-12.6,17.4-12.6,28.1
						c0,1-0.8,1.9-1.9,1.9c-1,0-1.9-0.8-1.9-1.9c0-11.8,5-23,13.8-30.8c8.9-8,20.3-11.6,32.3-10.3C64.7,15.1,80,30,82.4,48.6
						c2,15.1-4.4,30-16.6,38.9c-6.3,4.6-10.1,12.2-10.1,20.3v6.5c0,12.7-9.6,23.2-21.8,24C33.4,138.4,32.8,138.4,32.3,138.4z"/>
				</g>
			</g>
			<g>
				<g>
					<path class="st1" d="M14,56.1c-0.5,0-0.8-0.4-0.8-0.8c0-7.7,3-14.8,8.6-20.1c5.5-5.3,12.8-8.1,20.5-7.8
						c14.3,0.6,27,13.5,27.1,27.7c0,0.5-0.4,0.8-0.8,0.8c0,0,0,0,0,0c-0.5,0-0.8-0.4-0.8-0.8c-0.1-13.4-12-25.5-25.5-26.1
						c-7.2-0.3-14.1,2.3-19.3,7.3c-5.2,5-8.1,11.7-8.1,18.9C14.9,55.7,14.5,56.1,14,56.1z"/>
					<path class="st1" d="M14,57.1c-1,0-1.9-0.8-1.9-1.9c0-7.9,3.2-15.4,8.9-20.9c5.7-5.5,13.3-8.4,21.2-8.1
						c14.9,0.6,28,14,28.1,28.7c0,0.5-0.2,1-0.5,1.3c-0.3,0.4-0.8,0.5-1.3,0.6c-1,0-1.9-0.8-1.9-1.8c-0.1-12.8-11.6-24.5-24.5-25
						c-7-0.3-13.5,2.2-18.5,7c-5,4.8-7.7,11.3-7.7,18.2C15.9,56.3,15.1,57.1,14,57.1z"/>
				</g>
			</g>
			<g>
				<g>
					<path class="st1" d="M28.2,105.9h-1.6c-0.5,0-0.8-0.4-0.8-0.8c0-0.5,0.4-0.8,0.8-0.8h1.6c6.6,0,12.5-4.8,14.2-11.7
						c1-4.1,3.3-7.3,6.7-9.5c0.4-0.3,0.9-0.1,1.1,0.2c0.3,0.4,0.1,0.9-0.2,1.1c-3.1,2-5.1,4.9-6,8.6
						C42.1,100.6,35.6,105.9,28.2,105.9z"/>
					<path class="st1" d="M28.2,107h-1.6c-1,0-1.9-0.8-1.9-1.9c0-1,0.8-1.9,1.9-1.9h1.6c6.2,0,11.6-4.5,13.2-10.9
						c1.1-4.3,3.5-7.7,7.1-10.2c0.4-0.3,0.9-0.4,1.4-0.3c0.5,0.1,0.9,0.4,1.2,0.8c0.3,0.4,0.4,0.9,0.3,1.4c-0.1,0.5-0.4,0.9-0.8,1.2
						c-2.9,1.9-4.7,4.6-5.6,8C43,101.3,36.1,107,28.2,107z M49.7,83.9C49.7,83.9,49.7,83.9,49.7,83.9C49.7,83.9,49.7,83.9,49.7,83.9
						z"/>
				</g>
			</g>
		</g>
		<g>
			<g>
				<path class="st1" d="M15.9,86.2c-0.5,0-0.8-0.4-0.8-0.8c0-0.5,0.4-0.8,0.8-0.8c4.5,0,8.2-3.7,8.2-8.2c0-4.5-3.7-8.2-8.2-8.2
					c-0.5,0-0.8-0.4-0.8-0.8c0-0.5,0.4-0.8,0.8-0.8c5.4,0,9.9,4.4,9.9,9.9S21.3,86.2,15.9,86.2z"/>
				<path class="st1" d="M15.9,87.2c-1,0-1.9-0.8-1.9-1.9c0-1,0.8-1.9,1.9-1.9c4,0,7.2-3.2,7.2-7.2c0-4-3.2-7.2-7.2-7.2
					c-1,0-1.9-0.8-1.9-1.9c0-1,0.8-1.9,1.9-1.9c6,0,10.9,4.9,10.9,10.9C26.8,82.3,21.9,87.2,15.9,87.2z"/>
			</g>
		</g>
		<g>
			<g>
				<path class="st1" d="M51.3,61.5c-0.5,0-0.8-0.4-0.8-0.8c0-12.2-10-22.2-22.2-22.2c-0.5,0-0.8-0.4-0.8-0.8c0-0.5,0.4-0.8,0.8-0.8
					c13.2,0,23.9,10.7,23.9,23.9C52.1,61.1,51.7,61.5,51.3,61.5z"/>
				<path class="st1" d="M51.3,62.5c-1,0-1.9-0.8-1.9-1.9c0-11.7-9.5-21.2-21.2-21.2c-1,0-1.9-0.8-1.9-1.9c0-1,0.8-1.9,1.9-1.9
					c13.7,0,24.9,11.2,24.9,24.9C53.1,61.7,52.3,62.5,51.3,62.5z"/>
			</g>
		</g>
	</g>
	<g>
		<rect x="120.6" y="95.2" class="st1" width="1.6" height="26.3"/>
	</g>
</g>
</svg>
