<?xml version="1.0" encoding="utf-8"?>
<!-- Generator: Adobe Illustrator 22.1.0, SVG Export Plug-In . SVG Version: 6.00 Build 0)  -->
<svg version="1.1" id="Layer_1" xmlns="http://www.w3.org/2000/svg" xmlns:xlink="http://www.w3.org/1999/xlink" x="0px" y="0px"
	 viewBox="0 0 83.2 110.8" style="enable-background:new 0 0 83.2 110.8;" xml:space="preserve">
<style type="text/css">
	.st0{fill:#263357;}
	.st1{fill:#61C4F2;}
	.st2{fill:#FF2C2C;}
	.st3{fill:#FFFFFF;}
</style>
<path class="st0" d="M83.2,85.4H15V71.9h2.1v11.4H81V45.8c0-0.4-0.3-0.7-0.7-0.7H35.8v-2.1h44.5c1.6,0,2.9,1.3,2.9,2.9V85.4z"/>
<rect x="20.2" y="48.1" class="st1" width="57.7" height="32"/>
<path class="st0" d="M80.4,93.2H18.3c-1.6,0-3.2-1.6-3.2-3.3v-5.6h2.1v5.6c0,0.5,0.6,1.2,1.1,1.2h62.1c0.4,0,0.6-0.6,0.6-1.1v-5.7
	h2.1V90C83.2,91.5,82.1,93.2,80.4,93.2z"/>
<path class="st0" d="M39.1,101.7l-0.8-2c0.7-0.3,1.3-0.6,1.6-0.7L40,99c0.1-0.1,0.3-0.2,0.3-0.2c0,0,0.1-0.2,0.2-0.9
	c0.2-0.8,0.1-2.3,0.1-3.5c0-0.9,0-1.7,0-2.3l2.1,0.2c0,0.5,0,1.3,0,2.1c0,1.5,0,3-0.2,4c-0.3,1.6-0.6,2-1.6,2.5l-0.1,0.1
	C40.5,101.2,39.7,101.5,39.1,101.7z"/>
<path class="st0" d="M59,101.7c-0.6-0.2-1.3-0.6-1.8-0.8c-1.1-0.6-1.4-1-1.7-2.6c-0.2-1-0.2-2.5-0.2-3.9c0-0.8,0-1.6,0-2.1l2.1-0.2
	c0,0.6,0,1.4,0,2.3c0,1.3,0,2.7,0.1,3.5c0.1,0.7,0.2,0.8,0.2,0.9c0,0,0.2,0.1,0.3,0.2c0.4,0.2,1,0.5,1.7,0.8L59,101.7z"/>
<rect x="36.9" y="99.6" class="st0" width="24.4" height="2.1"/>
<g>
	<path class="st0" d="M12.4,74h-8c-1.5,0-2.7-1.2-2.7-2.7V23.2c0-1.5,1.2-2.7,2.7-2.7h22.8c1.5,0,2.7,1.2,2.7,2.7v9.3h-2.1v-9.3
		c0-0.3-0.3-0.6-0.6-0.6H4.5c-0.3,0-0.6,0.3-0.6,0.6v48.1c0,0.3,0.3,0.6,0.6,0.6h8V74z"/>
	<rect x="5.6" y="28.5" class="st2" width="20.4" height="37.1"/>
	<g>
		<rect x="11.5" y="24.1" class="st0" width="8.7" height="2.1"/>
	</g>
	<rect x="15.1" y="67.6" class="st0" width="2.1" height="2.1"/>
</g>
<g>
	<rect x="19.3" y="38.4" class="st3" width="52.9" height="37.4"/>
	<g>
		<path class="st0" d="M46.9,75.8h-2.1c0-1.5-1.2-2.7-2.7-2.7H21.7v-38h20.4c2.7,0,4.8,2.2,4.8,4.8V75.8z M23.9,70.9h18.2
			c1,0,1.9,0.3,2.7,0.8V39.9c0-1.5-1.2-2.7-2.7-2.7H23.9V70.9z"/>
		<path class="st0" d="M47,75.8h-2.1V39.9c0-2.7,2.2-4.8,4.8-4.8h20.4v38H49.7C48.2,73.1,47,74.3,47,75.8z M49.7,37.2
			c-1.5,0-2.7,1.2-2.7,2.7v31.8c0.8-0.5,1.7-0.8,2.7-0.8H68V37.2H49.7z"/>
	</g>
	<g>
		<rect x="26.6" y="40.7" class="st0" width="9" height="2.1"/>
		<rect x="26.6" y="45.6" class="st0" width="15.1" height="2.1"/>
		<rect x="26.6" y="50.4" class="st0" width="15.1" height="2.1"/>
		<rect x="26.6" y="55.2" class="st0" width="15.1" height="2.1"/>
		<rect x="26.6" y="60" class="st0" width="15.1" height="2.1"/>
		<rect x="26.6" y="64.8" class="st0" width="15.1" height="2.1"/>
		<rect x="49.5" y="45.6" class="st0" width="15.1" height="2.1"/>
		<rect x="49.5" y="50.4" class="st0" width="15.1" height="2.1"/>
		<rect x="49.5" y="55.2" class="st0" width="15.1" height="2.1"/>
		<rect x="49.5" y="60" class="st0" width="15.1" height="2.1"/>
		<rect x="49.5" y="64.8" class="st0" width="15.1" height="2.1"/>
	</g>
</g>
<g>
	<polygon class="st0" points="59.5,33.8 52.5,27.1 54,25.5 59.5,30.7 64.7,25.3 66.2,26.7 	"/>
	<path class="st0" d="M60.5,32.3l-2.1-0.1c0-0.4,0-0.8,0.1-1.1l2.1,0.1C60.5,31.5,60.5,31.9,60.5,32.3z M58.5,29c0-0.7,0-1.4,0-2.1
		l2.1-0.1c0,0.7,0,1.4,0,2.2L58.5,29z M58.3,24.8c-0.1-0.7-0.1-1.4-0.2-2.1l2.1-0.3c0.1,0.7,0.2,1.4,0.2,2.2L58.3,24.8z M57.7,20.7
		c-0.1-0.7-0.3-1.4-0.4-2l2.1-0.5c0.2,0.7,0.3,1.4,0.4,2.1L57.7,20.7z M21,19.2l-1.9-0.9c0.3-0.7,0.7-1.3,1-1.9l1.9,1
		C21.6,17.9,21.3,18.6,21,19.2z M56.8,16.7c-0.2-0.7-0.4-1.3-0.7-2l2-0.7c0.2,0.7,0.5,1.4,0.7,2.1L56.8,16.7z M23,15.5l-1.8-1.1
		c0.4-0.6,0.8-1.2,1.2-1.8l1.8,1.2C23.7,14.4,23.3,14.9,23,15.5z M55.3,12.8c-0.3-0.6-0.6-1.2-0.9-1.8l1.9-1c0.3,0.6,0.7,1.3,1,2
		L55.3,12.8z M25.3,12.1l-1.7-1.3c0.4-0.6,0.9-1.2,1.4-1.7l1.6,1.4C26.2,11,25.7,11.6,25.3,12.1z M53.4,9.2
		c-0.4-0.6-0.8-1.1-1.2-1.6l1.7-1.3c0.5,0.6,0.9,1.2,1.3,1.8L53.4,9.2z M28,9l-1.5-1.5C27,7,27.5,6.4,28,6l1.4,1.6
		C28.9,8,28.5,8.5,28,9z M31,6.2l-1.3-1.7c0.6-0.5,1.2-0.9,1.8-1.3L32.7,5C32.1,5.4,31.6,5.8,31,6.2z M50.8,6.1
		c-0.5-0.5-1-0.9-1.5-1.3l1.3-1.7c0.6,0.4,1.2,0.9,1.7,1.5L50.8,6.1z M34.4,4l-1-1.9c0.7-0.4,1.4-0.7,2-0.9l0.8,2
		C35.6,3.4,35,3.7,34.4,4z M47.7,3.7c-0.6-0.3-1.2-0.6-1.8-0.8l0.7-2c0.7,0.3,1.4,0.6,2.1,1L47.7,3.7z M38.1,2.5l-0.5-2.1
		c0.7-0.2,1.5-0.3,2.2-0.4l0.2,2.1C39.4,2.3,38.8,2.4,38.1,2.5z M44,2.4c-0.6-0.1-1.3-0.2-1.9-0.2L42.1,0c0.8,0,1.5,0.1,2.3,0.3
		L44,2.4z"/>
	<path class="st0" d="M60.5,32.3l-2.1-0.1c0.9-15.5-4.9-27.8-14.2-29.8l0.4-2.1C55,2.5,61.5,15.7,60.5,32.3z"/>
</g>
<g>
	<polygon class="st0" points="1.5,85.5 0,84 6.7,77 13.7,83.7 12.2,85.2 6.8,80 	"/>
	<path class="st0" d="M24.7,110.8c-0.2,0-0.4,0-0.5,0l0.1-2.1c0.7,0,1.3,0,2-0.1l0.2,2.1C25.9,110.8,25.3,110.8,24.7,110.8z
		 M21.9,110.5l-0.3-0.1c-0.6-0.1-1.3-0.3-1.9-0.6l0.7-2c0.5,0.2,1.1,0.4,1.6,0.5l0.2,0.1L21.9,110.5z M28.7,110.3l-0.5-2.1
		c0.6-0.2,1.3-0.4,1.9-0.6l0.8,2C30.1,109.8,29.4,110.1,28.7,110.3z M17.6,109c-0.7-0.4-1.3-0.8-1.9-1.2L17,106
		c0.5,0.4,1.1,0.8,1.7,1.1L17.6,109z M32.9,108.6l-1-1.9c0.6-0.3,1.2-0.7,1.7-1l1.2,1.8C34.2,107.9,33.5,108.3,32.9,108.6z
		 M14,106.3c-0.5-0.5-1-1.1-1.5-1.7l1.6-1.4c0.4,0.5,0.9,1,1.4,1.5L14,106.3z M36.6,106.2l-1.3-1.7c0.5-0.4,1-0.9,1.6-1.3l1.4,1.6
		C37.7,105.3,37.2,105.7,36.6,106.2z M11.1,102.8c-0.4-0.6-0.8-1.2-1.2-1.9l1.9-1c0.3,0.6,0.7,1.2,1.1,1.7L11.1,102.8z M9,98.9
		c-0.3-0.7-0.6-1.3-0.8-2l2-0.7c0.2,0.7,0.5,1.3,0.8,1.9L9,98.9z M7.5,94.8c-0.2-0.7-0.4-1.4-0.6-2.1L9,92.2c0.2,0.7,0.3,1.3,0.5,2
		L7.5,94.8z M6.4,90.6c-0.1-0.7-0.2-1.4-0.3-2.2l2.1-0.3c0.1,0.7,0.2,1.4,0.3,2L6.4,90.6z M5.8,86.2c-0.1-0.7-0.1-1.4-0.1-2.2
		L7.8,84c0,0.7,0.1,1.4,0.1,2.1L5.8,86.2z M7.8,81.9H5.7l0-0.1c0-0.7,0-1.4,0-2.1l2.1,0.1c0,0.7,0,1.3,0,2L7.8,81.9z"/>
	<path class="st0" d="M21.6,110.5c-10.4-2.2-16.9-15.4-15.9-32l2.1,0.1c-0.9,15.5,4.9,27.8,14.2,29.8L21.6,110.5z"/>
</g>
<rect x="8.2" y="30.9" class="st3" width="7.5" height="7.5"/>
</svg>
