<?xml version="1.0" encoding="utf-8"?>
<!-- Generator: Adobe Illustrator 22.1.0, SVG Export Plug-In . SVG Version: 6.00 Build 0)  -->
<svg version="1.1" id="Layer_1" xmlns="http://www.w3.org/2000/svg" xmlns:xlink="http://www.w3.org/1999/xlink" x="0px" y="0px"
	 viewBox="0 0 157.8 168.1" style="enable-background:new 0 0 157.8 168.1;" xml:space="preserve">
<style type="text/css">
	.st0{fill:#ED3533;}
	.st1{fill:#E2E2E2;}
	.st2{fill:none;stroke:#263357;stroke-width:5.6693;stroke-miterlimit:10;}
	.st3{fill:none;stroke:#FFFFFF;stroke-width:5.6693;stroke-miterlimit:10;}
	.st4{fill:#FFFFFF;}
	.st5{fill:#69C2ED;}
</style>
<g>
	<g>
		<g>
			<polygon class="st0" points="107.8,104.9 128.8,104.9 128.8,0 23.8,0 23.8,144.3 107.8,144.3 			"/>
			<path class="st0" d="M13.3,144.3h10.5V0H13.3C10,0,6.6,1.3,4.1,3.8c-2.6,2.6-3.8,5.9-3.8,9.3v141.7h2.6c0-2.7,1-5.4,3.1-7.4
				C8,145.3,10.6,144.3,13.3,144.3z"/>
			<path class="st1" d="M13.3,144.3h5.2V0h-5.2C10,0,6.6,1.3,4.1,3.8c-2.6,2.6-3.8,5.9-3.8,9.3v141.7h2.6c0-2.7,1-5.4,3.1-7.4
				C8,145.3,10.6,144.3,13.3,144.3z"/>
			<g>
				<path class="st2" d="M99.9,144.3H13.3c-2.7,0-5.4,1-7.4,3.1c-2,2-3.1,4.7-3.1,7.4s1,5.4,3.1,7.4c2,2,4.7,3.1,7.4,3.1h86.6"/>
				<line class="st2" x1="13.3" y1="154.8" x2="99.9" y2="154.8"/>
			</g>
			<polyline class="st3" points="118.3,104.9 118.3,10.5 29.1,10.5 29.1,131.2 107.8,131.2 			"/>
			<g>
				<line class="st2" x1="44.8" y1="76.1" x2="86.8" y2="76.1"/>
				<line class="st2" x1="44.8" y1="86.6" x2="86.8" y2="86.6"/>
				<line class="st2" x1="44.8" y1="65.6" x2="86.8" y2="65.6"/>
				<line class="st2" x1="63.2" y1="55.1" x2="86.8" y2="55.1"/>
			</g>
		</g>
		<g>
			<path class="st2" d="M107.8,102.3v52.5c0,2.7,1,5.4,3.1,7.4c2,2,4.7,3.1,7.4,3.1c2.7,0,5.4-1,7.4-3.1c2-2,3.1-4.7,3.1-7.4v-52.5"
				/>
			<g>
				<line class="st2" x1="118.3" y1="112.8" x2="118.3" y2="118.1"/>
				<line class="st2" x1="118.3" y1="123.3" x2="118.3" y2="128.5"/>
				<line class="st2" x1="118.3" y1="133.8" x2="118.3" y2="139"/>
			</g>
			<circle class="st4" cx="118.3" cy="68.2" r="36.7"/>
			<circle class="st5" cx="118.3" cy="68.2" r="26.2"/>
			<g>
				<line class="st2" x1="118.3" y1="52.5" x2="118.3" y2="73.5"/>
				<line class="st2" x1="118.3" y1="78.7" x2="118.3" y2="84"/>
			</g>
			<circle class="st2" cx="118.3" cy="68.2" r="36.7"/>
		</g>
	</g>
</g>
</svg>
