<?xml version="1.0" encoding="utf-8"?>
<!-- Generator: Adobe Illustrator 22.1.0, SVG Export Plug-In . SVG Version: 6.00 Build 0)  -->
<svg version="1.1" id="Layer_1" xmlns="http://www.w3.org/2000/svg" xmlns:xlink="http://www.w3.org/1999/xlink" x="0px" y="0px"
	 viewBox="0 0 142.3 145" style="enable-background:new 0 0 142.3 145;" xml:space="preserve">
<style type="text/css">
	.st0{fill:#F86464;}
	.st1{fill:#61C4F2;}
	.st2{fill:#263357;}
</style>
<g>
	<path class="st0" d="M46,23.3c0.1,4.4-0.2,7.1-0.4,9.2h-18v-17h18c0,0.7,0.1,1.7,0.2,2.6C45.9,19.4,46,21.1,46,23.3z"/>
	<path class="st0" d="M116.8,15.5v17H55.2c-0.1-0.1-0.2-0.2-0.3-0.3c-0.4-0.5-0.5-1.1-0.3-1.7c0,0,0,0,0-0.1
		c0.1-0.6,0.8-3.4,0.4-6.4c0,0,0-0.1,0-0.1c0-0.2-0.1-0.4-0.1-0.6c0-0.1,0-0.2-0.1-0.3c-0.1-0.4-0.2-0.9-0.4-1.4
		c-0.1-0.3-0.2-0.5-0.3-0.8c0-0.1-0.1-0.1-0.1-0.2c-0.1-0.1-0.1-0.2-0.2-0.4c-0.1-0.1-0.1-0.3-0.2-0.4c-0.3-0.5-0.6-1.1-1.1-1.5
		c-0.1-0.2-0.3-0.3-0.4-0.5l-0.1-0.1c0,0,0,0-0.1-0.1c-0.1-0.1-0.3-0.3-0.5-0.4c-0.1-0.1-0.2-0.2-0.3-0.3c-0.1-0.1-0.2-0.2-0.3-0.3
		c-0.2-0.1-0.4-0.3-0.5-0.4c-0.2-0.1-0.3-0.2-0.5-0.3c-0.2-0.1-0.4-0.2-0.6-0.4c-0.1,0-0.1-0.1-0.2-0.1h4.4v0.8
		c0,0.5,0.1,0.9,0.3,1.4c0.5,1.4,1.9,2.4,3.5,2.4c0.4,0,0.8-0.1,1.1-0.2c1.1-0.3,2-1.2,2.4-2.2c0.2-0.4,0.3-0.9,0.3-1.4v-0.8h4.2
		v4.7c0,2.1,1.7,3.7,3.7,3.7c2.1,0,3.7-1.7,3.7-3.7v-4.7H77v5.1c0,2.1,1.7,3.7,3.7,3.7c2.1,0,3.7-1.7,3.7-3.7v-5.1h4.2v3.4
		c0,2.1,1.7,3.7,3.7,3.7c2.1,0,3.7-1.7,3.7-3.7v-3.4H116.8z"/>
	<path class="st1" d="M73.8,53.7c-3.2,0-5.8,2.6-5.8,5.8v72.4l2.3-0.3c0.8-3.3,3.7-5.7,7.2-5.7h43.7l19-2.1V53.7H73.8z M85,72.8
		h38.2v12.7H85V72.8z"/>
	<circle class="st2" cx="36.1" cy="117.2" r="2.7"/>
	<path class="st2" d="M140.2,51.6H102c0-2.8,0-5.8-0.1-8.7c0-2.8-0.1-5.5-0.1-8.3h15h8.5c3.5,0,6.4-2.9,6.4-6.4v-8.5
		c0-3.5-2.9-6.4-6.4-6.4h-8.5h-16.4v-0.2c0-4.4-3.6-8-8-8c-1.5,0-2.9,0.4-4,1.1c-0.9-3.4-4-5.9-7.7-5.9c-2.2,0-4.2,0.9-5.7,2.4
		C73.6,1.1,71.4,0,69,0c-2.4,0-4.6,1.1-6,2.8c-1.5-1.5-3.5-2.4-5.7-2.4c-4.4,0-8,3.6-8,8v2.5c-2.2-0.7-4.4-0.8-6.1,0.4
		c-0.8,0.6-1.2,1.2-1.5,2H27.6c0,0,0,0,0,0c-0.1,0-0.2,0-0.3,0c0,0-0.1,0-0.1,0c-0.1,0-0.1,0-0.2,0.1c-0.1,0-0.1,0-0.2,0.1
		c0,0,0,0,0,0L8,21.8H2.1C1,21.8,0,22.8,0,24c0,1.2,1,2.1,2.1,2.1H8l18.7,8.3c0,0,0,0,0,0c0.1,0,0.2,0.1,0.3,0.1
		c0.2,0.1,0.4,0.1,0.6,0.1c0,0,0,0,0,0h13.5c-0.1,1.8-0.1,3.6,0.3,6.4c0.3,1.5,1.1,5.6,3.2,10.4c1.8,4.1,3.8,7.1,4.8,8.6
		c1.1,1.5,2.3,2.9,3.5,4.2h-4.1c-1.2,0-2.1,1-2.1,2.1v57.6c0,1.2,1,2.1,2.1,2.1c1.2,0,2.1-1,2.1-2.1V68.4h14.9v63.5
		c0,0.2,0,0.3,0,0.4c0,0.3,0,0.7,0,1c0,6.4,5.2,11.7,11.7,11.7h62.7c1.2,0,2.1-1,2.1-2.1s-1-2.1-2.1-2.1H77.5
		c-4.1,0-7.4-3.3-7.4-7.4c0-0.6,0.1-1.2,0.2-1.7c0.8-3.3,3.7-5.7,7.2-5.7h62.7c1.2,0,2.1-1,2.1-2.1V53.7
		C142.3,52.5,141.4,51.6,140.2,51.6z M127.5,19.7v8.5c0,1.2-1,2.1-2.1,2.1H119V17.6h6.4C126.5,17.6,127.5,18.5,127.5,19.7z
		 M114.7,17.6v12.7H99.8c0,0-0.1,0-0.1,0c0,0-0.1,0-0.1,0H63.2c-1.3-0.5-2.7-0.9-4.1-1.2c0.2-1.4,0.3-3.2,0.1-5.2
		c0.8-0.2,1.6-0.5,2.3-1c1.1,3,4,5.2,7.5,5.2c2.2,0,4.2-0.9,5.7-2.4c1.5,1.7,3.6,2.8,6.1,2.8c2.8,0,5.2-1.4,6.6-3.5
		c1.4,1.1,3.2,1.8,5.1,1.8c4.4,0,8-3.6,8-8v-1.3H114.7z M92.4,9.4c2.1,0,3.7,1.7,3.7,3.7v0.2v4.2v1.3c0,2.1-1.7,3.7-3.7,3.7
		c-2.1,0-3.7-1.7-3.7-3.7v-1.3v-4.2v-0.2C88.7,11.1,90.4,9.4,92.4,9.4z M80.7,4.7c2.1,0,3.7,1.7,3.7,3.7v4.8v0.2v4.2v1.3v1.7
		c0,2.1-1.7,3.7-3.7,3.7c-2.1,0-3.7-1.7-3.7-3.7v-0.4v-2.6v-4.2V8.4C77,6.3,78.6,4.7,80.7,4.7z M65.2,8c0-2.1,1.7-3.7,3.7-3.7
		c2.1,0,3.7,1.7,3.7,3.7v0.4v4.9v4.2v2.6c0,2.1-1.7,3.7-3.7,3.7c-2.1,0-3.7-1.7-3.7-3.7v-2.6v-1.4v-2.9V8.4V8z M53.5,8.4
		c0-2.1,1.7-3.7,3.7-3.7c2.1,0,3.7,1.7,3.7,3.7v4.9v2.9c0,0.5-0.1,0.9-0.3,1.4c-0.4,1.1-1.3,1.9-2.4,2.2c-0.3-0.7-0.6-1.5-1-2.2
		c-0.4-0.7-0.9-1.4-1.5-2.1c-0.2-0.2-0.4-0.5-0.6-0.7c-0.5-0.5-1-1-1.6-1.4c-0.1,0-0.1-0.1-0.1-0.1V8.4z M25.5,18.7v10.5L13.7,24
		L25.5,18.7z M29.7,30.3V17.6h11.7c0,0.3,0,0.5,0.1,0.8c0.1,1.3,0.2,2.9,0.3,5c0.1,3.1-0.1,5.2-0.2,7H29.7z M59.2,64.1
		c-2.4-2-4.5-4.3-6.3-6.7c-0.9-1.3-2.7-4-4.4-7.7c-1.9-4.3-2.6-8-2.9-9.4c-0.4-2.5-0.4-4-0.3-5.7c0.1-0.6,0.1-1.2,0.2-1.9
		c0-0.1,0-0.2,0-0.3c0-0.3,0.1-0.6,0.1-0.9c0-0.2,0-0.4,0.1-0.6c0-0.2,0-0.4,0.1-0.6c0.2-1.8,0.3-4,0.2-7.1
		c-0.1-2.1-0.2-3.8-0.3-5.2c0-0.2,0-0.3,0-0.5c0-0.5-0.1-1.1-0.1-1.6v0c0-0.1,0-0.2,0-0.3c0-0.1,0-0.2,0-0.3c0-0.3,0-0.6,0.1-0.7
		c0.4-0.3,1.8-0.1,3.4,0.7c0.1,0,0.1,0.1,0.2,0.1c0.2,0.1,0.5,0.2,0.7,0.4c0,0,0.1,0.1,0.1,0.1c0.2,0.1,0.3,0.2,0.5,0.3
		c0.1,0.1,0.2,0.1,0.3,0.2c0.1,0.1,0.2,0.2,0.3,0.2c0,0,0.1,0.1,0.1,0.1c0.1,0.1,0.2,0.2,0.3,0.3c0.1,0.1,0.1,0.1,0.2,0.2
		c0.1,0.1,0.2,0.2,0.3,0.3l0.1,0.1c0.2,0.2,0.3,0.4,0.5,0.5c0.1,0.1,0.2,0.3,0.3,0.4c0.1,0.1,0.2,0.2,0.2,0.3
		c0.1,0.1,0.2,0.3,0.3,0.4c0.1,0.1,0.1,0.2,0.2,0.4c0,0.1,0.1,0.2,0.1,0.2c0.2,0.3,0.3,0.7,0.4,1c0,0.1,0.1,0.2,0.1,0.4
		c0,0.1,0.1,0.3,0.1,0.4c0,0.1,0.1,0.2,0.1,0.3c0,0.1,0.1,0.3,0.1,0.4c0,0.1,0,0.2,0.1,0.3c0,0.1,0,0.2,0,0.3c0,0.2,0.1,0.3,0.1,0.5
		c0,0.1,0,0.1,0,0.2c0.4,3.1-0.2,5.8-0.4,6.4c0,0,0,0,0,0.1c-0.1,0.6,0,1.2,0.3,1.7c0.1,0.1,0.2,0.2,0.3,0.3
		c0.3,0.3,0.7,0.5,1.2,0.6c1.6,0.2,3.7,0.6,6,1.6c1.2,0.5,2.5,1.2,3.8,2c4.1,2.7,6.4,6.1,7.7,8.5c0.5,1,1.8,1.4,2.9,0.9
		c1-0.5,1.4-1.8,0.9-2.9c-1.3-2.4-3.4-5.7-7-8.6h26.9c0,2.7,0,5.5,0.1,8.3c0,2.9,0.1,5.9,0.1,8.7H73.8c-4.4,0-8,3.6-8,8v4.6H59.2z
		 M70.1,124.4v-56v-4.2v-4.6c0-2.1,1.7-3.7,3.7-3.7h23.6h4.3h36.4v65.9H77.5C74.7,121.7,72.1,122.7,70.1,124.4z"/>
	<path class="st2" d="M140.2,128H76.5c-1.2,0-2.1,1-2.1,2.1s1,2.1,2.1,2.1h63.7c1.2,0,2.1-1,2.1-2.1S141.4,128,140.2,128z"/>
	<path class="st2" d="M140.2,134.4H76.5c-1.2,0-2.1,1-2.1,2.1c0,1.2,1,2.1,2.1,2.1h63.7c1.2,0,2.1-1,2.1-2.1
		C142.3,135.4,141.4,134.4,140.2,134.4z"/>
	<path class="st2" d="M125.3,68.6H82.9c-1.2,0-2.1,1-2.1,2.1v17c0,1.2,1,2.1,2.1,2.1h42.5c1.2,0,2.1-1,2.1-2.1v-17
		C127.5,69.5,126.5,68.6,125.3,68.6z M123.2,85.6H85V72.8h38.2V85.6z"/>
	<path class="st2" d="M91.3,81.3h14.9c1.2,0,2.1-1,2.1-2.1s-1-2.1-2.1-2.1H91.3c-1.2,0-2.1,1-2.1,2.1S90.2,81.3,91.3,81.3z"/>
	<path class="st2" d="M112.6,81.3h4.2c1.2,0,2.1-1,2.1-2.1s-1-2.1-2.1-2.1h-4.2c-1.2,0-2.1,1-2.1,2.1S111.4,81.3,112.6,81.3z"/>
	<path class="st2" d="M36.1,111.6c1.2,0,2.1-1,2.1-2.1V81.9c0-1.2-1-2.1-2.1-2.1c-1.2,0-2.1,1-2.1,2.1v27.6
		C34,110.6,34.9,111.6,36.1,111.6z"/>
</g>
</svg>
