<?xml version="1.0" encoding="utf-8"?>
<!-- Generator: Adobe Illustrator 22.1.0, SVG Export Plug-In . SVG Version: 6.00 Build 0)  -->
<svg version="1.1" id="Layer_1" xmlns="http://www.w3.org/2000/svg" xmlns:xlink="http://www.w3.org/1999/xlink" x="0px" y="0px"
	 viewBox="0 0 147.1 167.9" style="enable-background:new 0 0 147.1 167.9;" xml:space="preserve">
<style type="text/css">
	.st0{fill:#E2E2E2;}
	.st1{fill:none;stroke:#263357;stroke-width:5.6693;stroke-miterlimit:10;}
	.st2{fill:#ED3533;}
	.st3{fill:#FFFFFF;}
	.st4{fill:#69C2ED;}
</style>
<g>
	<g>
		<g>
			<path class="st0" d="M0,15.7C0,7.1,7.1,0,15.7,0h78.7c8.7,0,15.7,7.1,15.7,15.7v136.4c0,8.7-7.1,15.7-15.7,15.7H15.7
				c-8.7,0-15.7-7.1-15.7-15.7V15.7z"/>
			<line class="st1" x1="47.2" y1="154.8" x2="63" y2="154.8"/>
			<g>
				<g>
					<line class="st1" x1="52.5" y1="13.1" x2="68.2" y2="13.1"/>
				</g>
				<g>
					<line class="st1" x1="42" y1="13.1" x2="47.2" y2="13.1"/>
				</g>
			</g>
			<line class="st1" x1="0" y1="139" x2="110.2" y2="139"/>
			<line class="st1" x1="0" y1="28.9" x2="110.2" y2="28.9"/>
		</g>
		<g>
			<rect x="5.2" y="31.5" class="st2" width="99.7" height="104.9"/>
			<path class="st3" d="M5.2,136.4l84-31.5c4,0,8.1-1.5,11.1-4.6c3.1-3.1,4.6-7.1,4.6-11.1V31.5H5.2V136.4z"/>
			<path class="st0" d="M89.2,104.9c-8.7,0-15.7-7-15.7-15.7L5.2,136.4L94.5,104c0,0,0,0,0,0C92.8,104.6,91,104.9,89.2,104.9z"/>
			<g>
				<g>
					<line class="st1" x1="60.3" y1="39.4" x2="99.7" y2="39.4"/>
					<line class="st1" x1="60.3" y1="49.8" x2="99.7" y2="49.8"/>
					<line class="st1" x1="60.3" y1="60.3" x2="99.7" y2="60.3"/>
					<line class="st1" x1="10.5" y1="70.8" x2="99.7" y2="70.8"/>
					<line class="st1" x1="10.5" y1="81.3" x2="99.7" y2="81.3"/>
					<line class="st1" x1="10.5" y1="91.8" x2="52.5" y2="91.8"/>
					<line class="st1" x1="10.5" y1="102.3" x2="34.1" y2="102.3"/>
				</g>
				<rect x="10.5" y="36.7" class="st4" width="44.6" height="26.2"/>
			</g>
		</g>
		<g>
			<line class="st1" x1="47.2" y1="128.5" x2="42" y2="128.5"/>
			<line class="st1" x1="57.7" y1="128.5" x2="52.5" y2="128.5"/>
			<line class="st1" x1="68.2" y1="128.5" x2="63" y2="128.5"/>
		</g>
	</g>
	<g>
		<polygon class="st4" points="120.7,26.2 125.9,7.9 131.2,7.9 136.4,26.2 136.4,160 120.7,160 		"/>
		<line class="st1" x1="128.5" y1="7.9" x2="128.5" y2="0"/>
		<polyline class="st1" points="144.3,78.7 144.3,139 120.7,139 		"/>
		<line class="st1" x1="128.5" y1="167.9" x2="128.5" y2="160"/>
		<line class="st1" x1="136.4" y1="28.9" x2="120.7" y2="28.9"/>
		<line class="st1" x1="136.4" y1="39.4" x2="120.7" y2="39.4"/>
	</g>
</g>
</svg>
