<?xml version="1.0" encoding="utf-8"?>
<!-- Generator: Adobe Illustrator 22.1.0, SVG Export Plug-In . SVG Version: 6.00 Build 0)  -->
<svg version="1.1" id="Layer_1" xmlns="http://www.w3.org/2000/svg" xmlns:xlink="http://www.w3.org/1999/xlink" x="0px" y="0px"
	 viewBox="0 0 165.5 165.5" style="enable-background:new 0 0 165.5 165.5;" xml:space="preserve">
<style type="text/css">
	.st0{fill:#69C2ED;}
	.st1{fill:none;stroke:#263357;stroke-width:5.6693;stroke-miterlimit:10;}
	.st2{fill:#E2E2E2;}
	.st3{fill:#ED3533;}
	.st4{fill:#FFFFFF;}
</style>
<g>
	<g>
		<g>
			<rect x="55.1" y="10.7" class="st0" width="99.7" height="78.7"/>
			<polyline class="st1" points="55.1,2.8 162.7,2.8 162.7,107.8 55.1,107.8 			"/>
			<line class="st1" x1="55.1" y1="97.3" x2="154.8" y2="97.3"/>
		</g>
		<g>
			<line class="st1" x1="97.1" y1="76.3" x2="102.3" y2="76.3"/>
			<line class="st1" x1="107.6" y1="76.3" x2="112.8" y2="76.3"/>
			<line class="st1" x1="118.1" y1="76.3" x2="123.3" y2="76.3"/>
		</g>
		<g>
			<g>
				<circle class="st1" cx="112.8" cy="128.8" r="10.5"/>
				<path class="st1" d="M94.4,165.5v-7.9c0-2,0.8-4,2.3-5.6c1.5-1.5,3.6-2.3,5.6-2.3h21c2,0,4,0.8,5.6,2.3c1.5,1.5,2.3,3.6,2.3,5.6
					v7.9"/>
			</g>
			<g>
				<circle class="st1" cx="81.3" cy="128.8" r="10.5"/>
				<path class="st1" d="M63,165.5v-7.9c0-2,0.8-4,2.3-5.6c1.5-1.5,3.6-2.3,5.6-2.3h15.7"/>
			</g>
			<g>
				<circle class="st1" cx="144.3" cy="128.8" r="10.5"/>
				<path class="st1" d="M162.7,165.5v-7.9c0-2-0.8-4-2.3-5.6c-1.5-1.5-3.6-2.3-5.6-2.3H139"/>
			</g>
		</g>
		<g>
			<line class="st1" x1="47.2" y1="107.8" x2="47.2" y2="165.5"/>
			<line class="st1" x1="15.7" y1="165.5" x2="15.7" y2="107.8"/>
			<g>
				<rect x="23.6" y="26.4" class="st2" width="15.7" height="23.6"/>
				<g>
					<circle class="st2" cx="31.5" cy="13.3" r="13.1"/>
					<circle class="st2" cx="31.5" cy="21.2" r="13.1"/>
					<rect x="18.4" y="13.3" class="st2" width="26.2" height="7.9"/>
				</g>
			</g>
			<path class="st3" d="M49.8,39.6v68.2H13.1V39.6H21c0,5.8,4.7,10.5,10.5,10.5S42,45.4,42,39.6H49.8z"/>
			<path class="st1" d="M21,39.6c0,5.8,4.7,10.5,10.5,10.5S42,45.4,42,39.6"/>
			<line class="st1" x1="31.5" y1="165.5" x2="31.5" y2="113"/>
			<g>
				<line class="st1" x1="31.5" y1="63.2" x2="31.5" y2="57.9"/>
				<line class="st1" x1="31.5" y1="73.7" x2="31.5" y2="68.4"/>
			</g>
			<g>
				<path class="st3" d="M13.1,99.9H0V52.7c0-3.4,1.3-6.7,3.8-9.3c2.6-2.6,5.9-3.8,9.3-3.8l0,0V99.9z"/>
				<path class="st2" d="M13.1,99.9H0V52.7c0-3.4,1.3-6.7,3.8-9.3c2.6-2.6,5.9-3.8,9.3-3.8l0,0V99.9z"/>
				<rect y="99.9" class="st2" width="13.1" height="7.9"/>
			</g>
			<rect x="49.8" y="39.6" class="st3" width="44.6" height="13.1"/>
			<rect x="94.4" y="39.6" class="st4" width="7.9" height="13.1"/>
		</g>
	</g>
</g>
</svg>
