<?xml version="1.0" encoding="utf-8"?>
<!-- Generator: Adobe Illustrator 22.1.0, SVG Export Plug-In . SVG Version: 6.00 Build 0)  -->
<svg version="1.1" id="Layer_1" xmlns="http://www.w3.org/2000/svg" xmlns:xlink="http://www.w3.org/1999/xlink" x="0px" y="0px"
	 viewBox="0 0 179.7 162.5" style="enable-background:new 0 0 179.7 162.5;" xml:space="preserve">
<style type="text/css">
	.st0{fill:#61C4F2;}
	.st1{fill:#263357;}
	.st2{fill:#F86464;}
	.st3{fill:#282D33;}
</style>
<g>
	<g>
		<g>
			<polygon class="st0" points="134.6,21.8 156.5,21.8 134.6,0 			"/>
		</g>
	</g>
	<g>
		<rect x="30.7" y="117" class="st1" width="23.7" height="4.2"/>
		<rect x="30.2" y="127.3" class="st1" width="56.4" height="4.2"/>
		<rect x="30.2" y="137.6" class="st1" width="56.4" height="4.2"/>
		<rect x="30.2" y="147.9" class="st1" width="56.4" height="4.2"/>
		<rect x="30.2" y="158.2" class="st1" width="36.5" height="4.2"/>
	</g>
	<rect y="26.2" class="st2" width="116.5" height="81.5"/>
	<rect x="122.2" y="64" class="st0" width="42.4" height="26.2"/>
	<g>
		<path class="st1" d="M60.6,107.8h-4.2c0-3.4-2.7-6.1-6.1-6.1H5.9V19h44.3c5.7,0,10.4,4.7,10.4,10.4V107.8z M10.2,97.4h40.1
			c2.3,0,4.4,0.7,6.1,2v-70c0-3.4-2.7-6.1-6.1-6.1H10.2V97.4z"/>
		<path class="st1" d="M60.2,107.8h-4.2V29.4c0-5.7,4.7-10.4,10.4-10.4h44.3v18.6h-4.2V23.2H66.3c-3.4,0-6.1,2.7-6.1,6.1v70.1
			c1.7-1.3,3.8-2,6.1-2h27.1v4.2H66.3C62.9,101.7,60.2,104.4,60.2,107.8z"/>
	</g>
	<g>
		<rect x="16.4" y="29.9" class="st3" width="19.6" height="4.2"/>
		<rect x="16.4" y="42.6" class="st3" width="33.1" height="4.2"/>
		<rect x="16.4" y="52" class="st3" width="33.1" height="4.2"/>
		<rect x="16.4" y="61.4" class="st3" width="23.6" height="4.2"/>
	</g>
	<g>
		<path class="st1" d="M102.1,135.4h-4.4l0-2.7V53.2H98c1.1-5.5,6-9.8,11.9-9.8h69.9v81.3h-69.9c-4.3,0-7.8,3.5-7.8,7.8
			c0,0.1,0,0.2,0,0.3L102.1,135.4z M102,55.9v67.6c2.1-1.8,4.9-2.9,7.8-2.9h65.6V47.7h-65.6c-4.2,0-7.7,3.4-7.8,7.7L102,55.9z"/>
		<g>
			<path class="st1" d="M179.7,144.8h-69.9c-6.7,0-12.1-5.4-12.1-12.1c0-6.7,5.4-12.1,12.1-12.1h69.9V144.8z M109.8,124.8
				c-4.3,0-7.8,3.5-7.8,7.8c0,4.3,3.5,7.8,7.8,7.8h65.6v-15.7H109.8z"/>
		</g>
		<polygon class="st2" points="129.2,150.6 122,146 114.8,150.6 114.8,133.5 122,133.5 129.2,133.5 		"/>
		<g>
			<line class="st1" x1="109.1" y1="133.2" x2="177.6" y2="133.2"/>
			<rect x="109.1" y="131.1" class="st1" width="68.5" height="4.2"/>
		</g>
		<g>
			<line class="st1" x1="109.1" y1="122.1" x2="109.1" y2="46.6"/>
			<rect x="107" y="46.6" class="st1" width="4.2" height="75.5"/>
		</g>
		<rect x="128" y="79.6" class="st1" width="30.6" height="4.2"/>
		<rect x="131.6" y="69.9" class="st1" width="23.5" height="4.2"/>
	</g>
</g>
</svg>
