<?xml version="1.0" encoding="utf-8"?>
<!-- Generator: Adobe Illustrator 22.1.0, SVG Export Plug-In . SVG Version: 6.00 Build 0)  -->
<svg version="1.1" id="Layer_1" xmlns="http://www.w3.org/2000/svg" xmlns:xlink="http://www.w3.org/1999/xlink" x="0px" y="0px"
	 viewBox="0 0 1043.5 276.1" style="enable-background:new 0 0 1043.5 276.1;" xml:space="preserve">
<style type="text/css">
	.st0{fill-rule:evenodd;clip-rule:evenodd;fill:#002E6E;}
	.st1{fill-rule:evenodd;clip-rule:evenodd;fill:none;stroke:#002E6E;stroke-miterlimit:10;}
	.st2{fill-rule:evenodd;clip-rule:evenodd;fill:none;stroke:#002E6E;stroke-width:1.0154;stroke-miterlimit:10;}
	.st3{fill-rule:evenodd;clip-rule:evenodd;fill:none;stroke:#002E6E;stroke-width:1.1348;stroke-miterlimit:10;}
	.st4{fill-rule:evenodd;clip-rule:evenodd;fill:#F6921E;}
	.st5{fill:#FFFFFF;}
	.st6{fill:#05306D;}
	.st7{fill-rule:evenodd;clip-rule:evenodd;fill:none;stroke:#002E6E;stroke-width:1.3088;stroke-miterlimit:10;}
	.st8{fill-rule:evenodd;clip-rule:evenodd;fill:none;stroke:#002E6E;stroke-width:1.3055;stroke-miterlimit:10;}
	.st9{fill-rule:evenodd;clip-rule:evenodd;fill:none;stroke:#002E6E;stroke-width:0.7396;stroke-miterlimit:10;}
	.st10{fill-rule:evenodd;clip-rule:evenodd;fill:none;stroke:#002E6E;stroke-width:0.9808;stroke-miterlimit:10;}
	.st11{fill:#002E6E;}
</style>
<rect class="st0" width="197.7" height="96.5"/>
<line class="st1" x1="1043" y1="101.5" x2="0.6" y2="101.5"/>
<path class="st1" d="M182.2,0.5H1043c0,0,0,276.8,0,275H182.6"/>
<line class="st2" x1="1043" y1="54.7" x2="182.2" y2="54.7"/>
<line class="st3" x1="296" y1="204.5" x2="296" y2="11.4"/>
<line class="st1" x1="1043" y1="213.8" x2="0.6" y2="213.8"/>
<rect y="218.1" class="st0" width="197.7" height="57.9"/>
<rect y="106" class="st4" width="197.7" height="103.2"/>
<g>
	<path class="st5" d="M18.7,23.4l-1.4,1.5v3.7h-2.6V15.7h2.6v5.8l1.2-1.6l3.3-4.2H25l-4.5,5.7l4.7,7.1H22L18.7,23.4z"/>
	<path class="st5" d="M28.5,20c0.7-0.8,1.5-1.2,2.5-1.2c2.1,0,3.1,1.2,3.1,3.6v6.1h-2.5v-6c0-0.5-0.1-0.9-0.4-1.2s-0.6-0.4-1.2-0.4
		c-0.7,0-1.3,0.3-1.6,0.9v6.8h-2.5V15h2.5V20z"/>
	<path class="st5" d="M41.7,27.5c-0.6,0.8-1.5,1.1-2.6,1.1c-1,0-1.8-0.3-2.3-0.9S36,26.3,36,25.2V19h2.5v6.2c0,1,0.5,1.5,1.4,1.5
		c0.9,0,1.5-0.3,1.8-0.9V19h2.5v9.5h-2.4L41.7,27.5z"/>
	<path class="st5" d="M48.5,19l0.1,1.1c0.7-0.8,1.6-1.3,2.7-1.3c1,0,1.8,0.3,2.3,0.9s0.7,1.5,0.8,2.7v6.1h-2.5v-6.1
		c0-0.5-0.1-0.9-0.4-1.2c-0.2-0.2-0.6-0.4-1.2-0.4c-0.7,0-1.3,0.3-1.6,0.9v6.7h-2.5V19H48.5z"/>
	<path class="st5" d="M55.8,23.7c0-1.5,0.3-2.6,1-3.5s1.6-1.3,2.8-1.3c1,0,1.9,0.4,2.4,1.1l0.1-0.9h2.3v9.2c0,0.8-0.2,1.6-0.6,2.2
		s-0.9,1.1-1.6,1.4c-0.7,0.3-1.5,0.5-2.4,0.5c-0.7,0-1.4-0.1-2-0.4c-0.7-0.3-1.2-0.6-1.5-1.1l1.1-1.5c0.6,0.7,1.4,1.1,2.3,1.1
		c0.7,0,1.2-0.2,1.6-0.5c0.4-0.4,0.6-0.9,0.6-1.5v-0.5c-0.6,0.7-1.4,1-2.3,1c-1.1,0-2.1-0.4-2.8-1.3s-1.1-2.1-1.1-3.6V23.7z
		 M58.4,23.9c0,0.9,0.2,1.5,0.5,2c0.3,0.5,0.8,0.7,1.4,0.7c0.8,0,1.3-0.3,1.7-0.9v-4c-0.3-0.6-0.9-0.9-1.6-0.9
		c-0.6,0-1.1,0.3-1.4,0.7C58.5,22.1,58.4,22.9,58.4,23.9z"/>
	<path class="st5" d="M74,16.6V19h1.6v1.9H74v4.7c0,0.4,0.1,0.6,0.2,0.8s0.4,0.2,0.8,0.2c0.3,0,0.5,0,0.7-0.1v1.9
		c-0.5,0.2-1,0.2-1.5,0.2c-1.8,0-2.7-0.9-2.7-2.7v-5.1h-1.4V19h1.4v-2.3H74z"/>
	<path class="st5" d="M79.5,20c0.7-0.8,1.5-1.2,2.5-1.2c2.1,0,3.1,1.2,3.1,3.6v6.1h-2.5v-6c0-0.5-0.1-0.9-0.4-1.2s-0.6-0.4-1.2-0.4
		c-0.7,0-1.3,0.3-1.6,0.9v6.8H77V15h2.5V20z"/>
	<path class="st5" d="M92.6,28.5c-0.1-0.2-0.2-0.5-0.3-0.9c-0.6,0.7-1.4,1-2.4,1c-0.9,0-1.7-0.3-2.3-0.8s-0.9-1.2-0.9-2
		c0-1,0.4-1.8,1.1-2.3s1.8-0.8,3.2-0.8h1.2v-0.5c0-0.4-0.1-0.8-0.3-1.1s-0.6-0.4-1.1-0.4c-0.4,0-0.8,0.1-1,0.3s-0.4,0.5-0.4,0.8
		h-2.5c0-0.6,0.2-1.1,0.5-1.5s0.8-0.8,1.4-1.1s1.3-0.4,2.1-0.4c1.2,0,2.1,0.3,2.8,0.9c0.7,0.6,1,1.4,1,2.5v4.1c0,0.9,0.1,1.6,0.4,2
		v0.1H92.6z M90.5,26.7c0.4,0,0.7-0.1,1-0.3c0.3-0.2,0.6-0.4,0.7-0.7v-1.6h-0.9c-1.3,0-1.9,0.4-2,1.3l0,0.1c0,0.3,0.1,0.6,0.3,0.8
		S90.1,26.7,90.5,26.7z"/>
	<path class="st5" d="M99.1,19l0.1,1.1c0.7-0.8,1.6-1.2,2.7-1.2c1.2,0,2.1,0.5,2.5,1.5c0.7-1,1.6-1.5,2.9-1.5c1,0,1.8,0.3,2.3,0.9
		c0.5,0.6,0.8,1.5,0.8,2.7v6.1h-2.5v-6.1c0-0.5-0.1-0.9-0.3-1.2s-0.6-0.4-1.1-0.4c-0.8,0-1.3,0.4-1.6,1.1l0,6.5h-2.5v-6.1
		c0-0.6-0.1-0.9-0.3-1.2s-0.6-0.4-1.1-0.4c-0.7,0-1.2,0.3-1.6,0.9v6.7h-2.5V19H99.1z"/>
	<path class="st5" d="M120.8,26.6c0.5,0,0.8-0.1,1.1-0.4s0.4-0.6,0.5-1h2.4c0,0.6-0.2,1.2-0.5,1.8c-0.3,0.5-0.8,1-1.4,1.2
		c-0.6,0.3-1.3,0.4-2,0.4c-1.4,0-2.4-0.4-3.2-1.3c-0.8-0.9-1.2-2.1-1.2-3.6v-0.2c0-1.5,0.4-2.6,1.2-3.5s1.8-1.3,3.2-1.3
		c1.2,0,2.1,0.3,2.9,1c0.7,0.7,1.1,1.6,1.1,2.7h-2.4c0-0.5-0.2-0.9-0.5-1.2s-0.7-0.5-1.2-0.5c-0.6,0-1,0.2-1.3,0.6
		c-0.3,0.4-0.5,1.1-0.5,2.1v0.3c0,1,0.1,1.7,0.4,2.1S120.2,26.6,120.8,26.6z"/>
	<path class="st5" d="M128.7,20c0.7-0.8,1.5-1.2,2.5-1.2c2.1,0,3.1,1.2,3.1,3.6v6.1h-2.5v-6c0-0.5-0.1-0.9-0.4-1.2s-0.6-0.4-1.2-0.4
		c-0.7,0-1.3,0.3-1.6,0.9v6.8h-2.5V15h2.5V20z"/>
	<path class="st5" d="M136.3,16.5c0-0.4,0.1-0.7,0.4-0.9s0.6-0.4,1-0.4c0.4,0,0.8,0.1,1,0.4s0.4,0.6,0.4,0.9c0,0.4-0.1,0.7-0.4,0.9
		s-0.6,0.4-1,0.4s-0.8-0.1-1-0.4S136.3,16.9,136.3,16.5z M139,28.5h-2.5V19h2.5V28.5z"/>
	<path class="st5" d="M145.4,28.7c-1.4,0-2.5-0.4-3.4-1.3s-1.3-2-1.3-3.4v-0.2c0-1,0.2-1.8,0.6-2.6s0.9-1.3,1.6-1.7s1.4-0.6,2.3-0.6
		c1.3,0,2.3,0.4,3.1,1.2s1.1,2,1.1,3.5v1h-6.1c0.1,0.6,0.3,1.1,0.7,1.5s0.9,0.6,1.6,0.6c1,0,1.7-0.4,2.3-1.1l1.2,1.4
		c-0.4,0.5-0.9,1-1.5,1.3C146.9,28.5,146.2,28.7,145.4,28.7z M144.1,15.7h1.4l2.5,2l-1.9,0l-1.3-1.1l-1.3,1.1l-1.9,0L144.1,15.7z
		 M145.1,20.9c-0.5,0-0.9,0.2-1.2,0.5c-0.3,0.3-0.5,0.8-0.6,1.5h3.5v-0.2c0-0.6-0.2-1-0.5-1.3C146.1,21,145.7,20.9,145.1,20.9z
		 M148.9,14.1h2l-2,2.4h-1.5L148.9,14.1z"/>
	<path class="st5" d="M156.5,27.5c-0.6,0.8-1.5,1.1-2.6,1.1c-1,0-1.8-0.3-2.3-0.9s-0.8-1.4-0.8-2.6V19h2.5v6.2c0,1,0.5,1.5,1.4,1.5
		c0.9,0,1.5-0.3,1.8-0.9V19h2.5v9.5h-2.4L156.5,27.5z"/>
	<path class="st5" d="M17.6,42.6V45h1.6v1.9h-1.6v4.7c0,0.4,0.1,0.6,0.2,0.8s0.4,0.2,0.8,0.2c0.3,0,0.5,0,0.7-0.1v1.9
		c-0.5,0.2-1,0.2-1.5,0.2c-1.8,0-2.7-0.9-2.7-2.7v-5.1h-1.4V45h1.4v-2.3H17.6z"/>
	<path class="st5" d="M20.6,42.5c0-0.4,0.1-0.7,0.4-0.9s0.6-0.4,1-0.4c0.4,0,0.8,0.1,1,0.4s0.4,0.6,0.4,0.9c0,0.4-0.1,0.7-0.4,0.9
		s-0.6,0.4-1,0.4s-0.8-0.1-1-0.4S20.6,42.9,20.6,42.5z M23.3,54.5h-2.5V45h2.5V54.5z"/>
	<path class="st5" d="M29.8,54.7c-1.4,0-2.5-0.4-3.4-1.3s-1.3-2-1.3-3.4v-0.2c0-1,0.2-1.8,0.6-2.6s0.9-1.3,1.6-1.7s1.4-0.6,2.3-0.6
		c1.3,0,2.3,0.4,3.1,1.2s1.1,2,1.1,3.5v1h-6.1c0.1,0.6,0.3,1.1,0.7,1.5s0.9,0.6,1.6,0.6c1,0,1.7-0.4,2.3-1.1l1.2,1.4
		c-0.4,0.5-0.9,1-1.5,1.3C31.3,54.5,30.6,54.7,29.8,54.7z M32.6,43.4v0.1l-2,0l-1.4-1.3l-1.4,1.3l-2,0v-0.1l2.6-2.4h1.5L32.6,43.4z
		 M29.5,46.9c-0.5,0-0.9,0.2-1.2,0.5c-0.3,0.3-0.5,0.8-0.6,1.5h3.5v-0.2c0-0.6-0.2-1-0.5-1.3C30.4,47,30,46.9,29.5,46.9z"/>
	<path class="st5" d="M40.8,53.5c-0.6,0.8-1.5,1.1-2.6,1.1c-1,0-1.8-0.3-2.3-0.9s-0.8-1.4-0.8-2.6V45h2.5v6.2c0,1,0.5,1.5,1.4,1.5
		c0.9,0,1.5-0.3,1.8-0.9V45h2.5v9.5h-2.4L40.8,53.5z"/>
	<path class="st5" d="M53.6,52.6c0.5,0,0.8-0.1,1.1-0.4s0.4-0.6,0.5-1h2.4c0,0.6-0.2,1.2-0.5,1.8c-0.3,0.5-0.8,1-1.4,1.2
		c-0.6,0.3-1.3,0.4-2,0.4c-1.4,0-2.4-0.4-3.2-1.3c-0.8-0.9-1.2-2.1-1.2-3.6v-0.2c0-1.5,0.4-2.6,1.2-3.5s1.8-1.3,3.2-1.3
		c1.2,0,2.1,0.3,2.9,1c0.7,0.7,1.1,1.6,1.1,2.7h-2.4c0-0.5-0.2-0.9-0.5-1.2s-0.7-0.5-1.2-0.5c-0.6,0-1,0.2-1.3,0.6
		c-0.3,0.4-0.5,1.1-0.5,2.1v0.3c0,1,0.1,1.7,0.4,2.1S53,52.6,53.6,52.6z"/>
	<path class="st5" d="M61.6,46c0.7-0.8,1.5-1.2,2.5-1.2c2.1,0,3.1,1.2,3.1,3.6v6.1h-2.5v-6c0-0.5-0.1-0.9-0.4-1.2s-0.6-0.4-1.2-0.4
		c-0.7,0-1.3,0.3-1.6,0.9v6.8H59V41h2.5V46z"/>
	<path class="st5" d="M74.8,53.5c-0.6,0.8-1.5,1.1-2.6,1.1c-1,0-1.8-0.3-2.3-0.9s-0.8-1.4-0.8-2.6V45h2.5v6.2c0,1,0.5,1.5,1.4,1.5
		c0.9,0,1.5-0.3,1.8-0.9V45h2.5v9.5h-2.4L74.8,53.5z"/>
	<path class="st5" d="M84.7,54.5c-0.1-0.2-0.2-0.5-0.3-0.9c-0.6,0.7-1.4,1-2.4,1c-0.9,0-1.7-0.3-2.3-0.8s-0.9-1.2-0.9-2
		c0-1,0.4-1.8,1.1-2.3s1.8-0.8,3.2-0.8h1.2v-0.5c0-0.4-0.1-0.8-0.3-1.1s-0.6-0.4-1.1-0.4c-0.4,0-0.8,0.1-1,0.3s-0.4,0.5-0.4,0.8
		h-2.5c0-0.6,0.2-1.1,0.5-1.5s0.8-0.8,1.4-1.1s1.3-0.4,2.1-0.4c1.2,0,2.1,0.3,2.8,0.9c0.7,0.6,1,1.4,1,2.5v4.1c0,0.9,0.1,1.6,0.4,2
		v0.1H84.7z M86.3,43.8l-1.8,0l-1.4-1.2l-1.4,1.2l-1.8,0l2.5-2h1.5L86.3,43.8z M82.6,52.7c0.4,0,0.7-0.1,1-0.3
		c0.3-0.2,0.6-0.4,0.7-0.7v-1.6h-0.9c-1.3,0-1.9,0.4-2,1.3l0,0.1c0,0.3,0.1,0.6,0.3,0.8S82.2,52.7,82.6,52.7z M85.5,42.6l-0.1-1
		c0.4,0,0.6-0.1,0.8-0.1s0.2-0.2,0.2-0.3c0-0.4-0.4-0.5-1.1-0.5l0.1-1c0.8,0,1.5,0.1,1.9,0.4c0.4,0.3,0.6,0.6,0.6,1.1
		c0,0.3-0.1,0.5-0.3,0.7s-0.5,0.3-0.8,0.4l0,0.5H85.5z"/>
	<path class="st5" d="M91.2,45l0.1,1.1c0.7-0.8,1.6-1.3,2.7-1.3c1,0,1.8,0.3,2.3,0.9s0.7,1.5,0.8,2.7v6.1h-2.5v-6.1
		c0-0.5-0.1-0.9-0.4-1.2c-0.2-0.2-0.6-0.4-1.2-0.4c-0.7,0-1.3,0.3-1.6,0.9v6.7h-2.5V45H91.2z"/>
	<path class="st5" d="M113.6,50.2c-0.1,1.4-0.6,2.5-1.5,3.3s-2.1,1.2-3.6,1.2c-1.6,0-2.9-0.6-3.9-1.7s-1.4-2.6-1.4-4.5v-0.8
		c0-1.2,0.2-2.3,0.7-3.3s1.1-1.7,1.9-2.2c0.8-0.5,1.7-0.8,2.8-0.8c1.5,0,2.7,0.4,3.6,1.2s1.4,1.9,1.6,3.3H111
		c-0.1-0.8-0.3-1.4-0.7-1.8s-1-0.6-1.8-0.6c-0.9,0-1.5,0.3-2,0.9s-0.7,1.6-0.7,2.9v1c0,1.4,0.2,2.4,0.6,3s1.1,1,2,1
		c0.8,0,1.4-0.2,1.8-0.6s0.6-0.9,0.7-1.7H113.6z"/>
	<path class="st5" d="M117.7,46c0.7-0.8,1.5-1.2,2.5-1.2c2.1,0,3.1,1.2,3.1,3.6v6.1h-2.5v-6c0-0.5-0.1-0.9-0.4-1.2s-0.6-0.4-1.2-0.4
		c-0.7,0-1.3,0.3-1.6,0.9v6.8h-2.5V41h2.5V46z"/>
	<path class="st5" d="M130.8,54.5c-0.1-0.2-0.2-0.5-0.3-0.9c-0.6,0.7-1.4,1-2.4,1c-0.9,0-1.7-0.3-2.3-0.8s-0.9-1.2-0.9-2
		c0-1,0.4-1.8,1.1-2.3s1.8-0.8,3.2-0.8h1.2v-0.5c0-0.4-0.1-0.8-0.3-1.1s-0.6-0.4-1.1-0.4c-0.4,0-0.8,0.1-1,0.3
		c-0.2,0.2-0.4,0.5-0.4,0.8h-2.5c0-0.6,0.2-1.1,0.5-1.5s0.8-0.8,1.4-1.1s1.3-0.4,2.1-0.4c1.2,0,2.1,0.3,2.8,0.9c0.7,0.6,1,1.4,1,2.5
		v4.1c0,0.9,0.1,1.6,0.4,2v0.1H130.8z M132.5,43.4v0.1l-2,0l-1.4-1.3l-1.4,1.3l-2,0v-0.1l2.6-2.4h1.5L132.5,43.4z M128.7,52.7
		c0.4,0,0.7-0.1,1-0.3c0.3-0.2,0.6-0.4,0.7-0.7v-1.6h-0.9c-1.3,0-1.9,0.4-2,1.3l0,0.1c0,0.3,0.1,0.6,0.3,0.8
		C128,52.6,128.3,52.7,128.7,52.7z"/>
	<path class="st5" d="M140.6,53.5c-0.6,0.8-1.5,1.1-2.6,1.1c-1,0-1.8-0.3-2.3-0.9s-0.8-1.4-0.8-2.6V45h2.5v6.2c0,1,0.5,1.5,1.4,1.5
		c0.9,0,1.5-0.3,1.8-0.9V45h2.5v9.5h-2.4L140.6,53.5z"/>
	<path class="st5" d="M156.9,51.9h-4.6l-0.9,2.6h-2.8l4.8-12.8h2.4l4.8,12.8h-2.8L156.9,51.9z M158,40.7v0.1l-2,0l-1.4-1.3l-1.4,1.3
		l-2,0v-0.1l2.6-2.4h1.5L158,40.7z M153,49.7h3.2l-1.6-4.8L153,49.7z"/>
	<path class="st5" d="M167.2,53.5c-0.6,0.8-1.5,1.1-2.6,1.1c-1,0-1.8-0.3-2.3-0.9s-0.8-1.4-0.8-2.6V45h2.5v6.2c0,1,0.5,1.5,1.4,1.5
		c0.9,0,1.5-0.3,1.8-0.9V45h2.5v9.5h-2.4L167.2,53.5z"/>
	<path class="st5" d="M14.7,75.3c0-1.3,0.2-2.6,0.5-3.8s0.9-2.3,1.6-3.2s1.5-1.6,2.3-1.9l0.5,1.4c-0.9,0.6-1.5,1.6-2,2.9
		s-0.7,2.9-0.7,4.6v0.3c0,1.8,0.2,3.3,0.7,4.7s1.1,2.3,2,3l-0.5,1.3c-0.8-0.4-1.5-1-2.2-1.9c-0.7-0.9-1.2-2-1.6-3.1
		s-0.6-2.4-0.6-3.7V75.3z"/>
	<path class="st5" d="M31.1,76.2c-0.1,1.4-0.6,2.5-1.5,3.3s-2.1,1.2-3.6,1.2c-1.6,0-2.9-0.6-3.9-1.7s-1.4-2.6-1.4-4.5v-0.8
		c0-1.2,0.2-2.3,0.7-3.3s1.1-1.7,1.9-2.2c0.8-0.5,1.7-0.8,2.8-0.8c1.5,0,2.7,0.4,3.6,1.2s1.4,1.9,1.6,3.3h-2.6
		c-0.1-0.8-0.3-1.4-0.7-1.8s-1-0.6-1.8-0.6c-0.9,0-1.5,0.3-2,0.9s-0.7,1.6-0.7,2.9v1c0,1.4,0.2,2.4,0.6,3s1.1,1,2,1
		c0.8,0,1.4-0.2,1.8-0.6s0.6-0.9,0.7-1.7H31.1z"/>
	<path class="st5" d="M40.5,74.9h-5.1v3.4h5.9v2.1h-8.6V67.7h8.6v2.1h-5.9v3h5.1V74.9z"/>
	<path class="st5" d="M50.6,75.3h-5.1v5.2h-2.6V67.7h8.3v2.1h-5.7v3.3h5.1V75.3z"/>
	<path class="st5" d="M57.5,75.8h-2.1v4.7h-2.6V67.7h4.8c1.5,0,2.7,0.3,3.5,1s1.2,1.6,1.2,2.9c0,0.9-0.2,1.6-0.6,2.2
		c-0.4,0.6-1,1-1.7,1.4l2.8,5.2v0.1h-2.8L57.5,75.8z M55.4,73.7h2.1c0.7,0,1.2-0.2,1.5-0.5c0.4-0.3,0.5-0.8,0.5-1.4
		c0-0.6-0.2-1.1-0.5-1.4s-0.9-0.5-1.6-0.5h-2.1V73.7z"/>
	<path class="st5" d="M68.5,75.5c0,1.3-0.2,2.6-0.6,3.8s-0.9,2.3-1.6,3.2s-1.5,1.6-2.3,1.9l-0.5-1.3c0.8-0.6,1.5-1.6,2-2.9
		s0.7-2.8,0.7-4.5v-0.5c0-1.8-0.2-3.3-0.7-4.6s-1.1-2.3-2-3l0.5-1.3c0.8,0.3,1.5,1,2.3,1.9s1.3,2,1.6,3.2s0.6,2.5,0.6,3.8V75.5z"/>
</g>
<g>
	<g>
		<path class="st6" d="M229.4,31.5c-0.1,1.4-0.6,2.5-1.5,3.3s-2.1,1.2-3.6,1.2c-1.6,0-2.9-0.6-3.9-1.7s-1.4-2.6-1.4-4.5v-0.8
			c0-1.2,0.2-2.3,0.7-3.3s1.1-1.7,1.9-2.2c0.8-0.5,1.7-0.8,2.8-0.8c1.5,0,2.7,0.4,3.6,1.2s1.4,1.9,1.6,3.3h-2.6
			c-0.1-0.8-0.3-1.4-0.7-1.8s-1-0.6-1.8-0.6c-0.9,0-1.5,0.3-2,0.9s-0.7,1.6-0.7,2.9v1c0,1.4,0.2,2.4,0.6,3s1.1,1,2,1
			c0.8,0,1.4-0.2,1.8-0.6s0.6-0.9,0.7-1.7H229.4z"/>
		<path class="st6" d="M241.6,29.6c0,1.3-0.2,2.4-0.7,3.3c-0.4,0.9-1.1,1.7-1.9,2.2s-1.8,0.8-2.9,0.8c-1.1,0-2-0.3-2.8-0.8
			s-1.5-1.2-1.9-2.2c-0.5-0.9-0.7-2-0.7-3.3v-0.6c0-1.3,0.2-2.4,0.7-3.3c0.5-1,1.1-1.7,1.9-2.2s1.8-0.8,2.8-0.8
			c0.8,0,1.5,0.1,2.2,0.4c0.7,0.3,1.2,0.7,1.7,1.2c0.4-0.1,0.7-0.4,0.9-0.8s0.2-1,0.2-1.7h1.7c0,2-0.7,3.2-2,3.7
			c0.5,1,0.7,2.1,0.7,3.3V29.6z M238.9,29c0-1.3-0.2-2.4-0.7-3.1s-1.2-1-2.1-1c-0.9,0-1.6,0.3-2,1s-0.7,1.7-0.7,3v0.6
			c0,1.3,0.2,2.3,0.7,3c0.5,0.7,1.2,1.1,2.1,1.1c0.9,0,1.6-0.3,2-1c0.5-0.7,0.7-1.7,0.7-3V29z"/>
		<path class="st6" d="M248.2,35.7V22.9h4.5c1.6,0,2.7,0.3,3.5,0.9c0.8,0.6,1.2,1.5,1.2,2.6c0,0.6-0.2,1.2-0.5,1.7s-0.8,0.8-1.3,1
			c0.7,0.2,1.2,0.5,1.6,1s0.6,1.1,0.6,1.8c0,1.2-0.4,2.2-1.2,2.8c-0.8,0.6-1.9,1-3.4,1H248.2z M250.9,28.3h2c1.3,0,2-0.6,2-1.6
			c0-0.6-0.2-1-0.5-1.3c-0.3-0.3-0.9-0.4-1.6-0.4h-1.8V28.3z M250.9,30.2v3.5h2.3c0.6,0,1.1-0.1,1.5-0.4c0.3-0.3,0.5-0.7,0.5-1.2
			c0-1.2-0.6-1.8-1.8-1.8H250.9z"/>
		<path class="st6" d="M267,33.1h-4.6l-0.9,2.6h-2.8l4.8-12.8h2.4l4.8,12.8h-2.8L267,33.1z M263.1,31h3.2l-1.6-4.8L263.1,31z
			 M263.7,21.9l-0.1-1.2c0.4,0,0.7-0.1,0.9-0.2c0.2-0.1,0.3-0.2,0.3-0.4c0-0.4-0.4-0.6-1.2-0.6l0.1-1.2c1.1,0,1.9,0.2,2.5,0.5
			s0.8,0.7,0.8,1.3c0,0.3-0.1,0.6-0.4,0.8c-0.2,0.2-0.6,0.4-1,0.4v0.6H263.7z"/>
		<path class="st6" d="M282.3,35.7h-2.6l-5.1-8.4v8.4h-2.6V22.9h2.6l5.1,8.4v-8.4h2.6V35.7z"/>
	</g>
</g>
<line class="st3" x1="383.4" y1="204.5" x2="383.4" y2="11.4"/>
<g>
	<g>
		<path class="st6" d="M316.2,32.4c0-0.5-0.2-0.9-0.5-1.1s-1-0.5-1.9-0.8s-1.6-0.6-2.2-0.9c-1.5-0.8-2.2-1.8-2.2-3.2
			c0-0.7,0.2-1.3,0.6-1.9c0.4-0.5,0.9-1,1.7-1.3s1.5-0.5,2.5-0.5c0.9,0,1.7,0.2,2.4,0.5c0.7,0.3,1.3,0.8,1.7,1.4s0.6,1.3,0.6,2.1
			h-2.6c0-0.6-0.2-1-0.6-1.4c-0.4-0.3-0.9-0.5-1.6-0.5c-0.6,0-1.1,0.1-1.5,0.4c-0.4,0.3-0.5,0.6-0.5,1.1c0,0.4,0.2,0.8,0.6,1
			s1,0.5,1.9,0.8c1.5,0.5,2.6,1,3.3,1.7s1,1.5,1,2.5c0,1.1-0.4,2-1.3,2.6c-0.8,0.6-2,0.9-3.4,0.9c-1,0-1.9-0.2-2.7-0.5
			c-0.8-0.4-1.4-0.9-1.9-1.5s-0.6-1.4-0.6-2.2h2.6c0,1.4,0.8,2.1,2.5,2.1c0.6,0,1.1-0.1,1.5-0.4C316,33.2,316.2,32.8,316.2,32.4z"/>
		<path class="st6" d="M331.1,29.6c0,1.3-0.2,2.4-0.7,3.3c-0.4,0.9-1.1,1.7-1.9,2.2s-1.8,0.8-2.9,0.8c-1.1,0-2-0.3-2.8-0.8
			s-1.5-1.2-1.9-2.2c-0.5-0.9-0.7-2-0.7-3.3v-0.6c0-1.3,0.2-2.4,0.7-3.3c0.5-1,1.1-1.7,1.9-2.2s1.8-0.8,2.8-0.8
			c0.8,0,1.5,0.1,2.2,0.4c0.7,0.3,1.2,0.7,1.7,1.2c0.4-0.1,0.7-0.4,0.9-0.8s0.2-1,0.2-1.7h1.7c0,2-0.7,3.2-2,3.7
			c0.5,1,0.7,2.1,0.7,3.3V29.6z M328.4,29c0-1.3-0.2-2.4-0.7-3.1s-1.2-1-2.1-1c-0.9,0-1.6,0.3-2,1s-0.7,1.7-0.7,3v0.6
			c0,1.3,0.2,2.3,0.7,3c0.5,0.7,1.2,1.1,2.1,1.1c0.9,0,1.6-0.3,2-1c0.5-0.7,0.7-1.7,0.7-3V29z"/>
		<path class="st6" d="M347.8,31.5c-0.1,1.4-0.6,2.5-1.5,3.3s-2.1,1.2-3.6,1.2c-1.6,0-2.9-0.6-3.9-1.7s-1.4-2.6-1.4-4.5v-0.8
			c0-1.2,0.2-2.3,0.7-3.3s1.1-1.7,1.9-2.2c0.8-0.5,1.7-0.8,2.8-0.8c1.5,0,2.7,0.4,3.6,1.2s1.4,1.9,1.6,3.3h-2.6
			c-0.1-0.8-0.3-1.4-0.7-1.8s-1-0.6-1.8-0.6c-0.9,0-1.5,0.3-2,0.9s-0.7,1.6-0.7,2.9v1c0,1.4,0.2,2.4,0.6,3s1.1,1,2,1
			c0.8,0,1.4-0.2,1.8-0.6s0.6-0.9,0.7-1.7H347.8z"/>
		<path class="st6" d="M356.7,33.1h-4.6l-0.9,2.6h-2.8l4.8-12.8h2.4l4.8,12.8h-2.8L356.7,33.1z M353.7,20.2h1.4l2.5,2l-1.9,0
			l-1.3-1.1l-1.3,1.1l-1.9,0L353.7,20.2z M352.8,31h3.2l-1.6-4.8L352.8,31z M358.4,18.7h2l-2,2.4H357L358.4,18.7z"/>
		<path class="st6" d="M364.2,31.2v4.5h-2.6V22.9h5c1,0,1.8,0.2,2.5,0.5s1.3,0.9,1.7,1.5c0.4,0.6,0.6,1.4,0.6,2.2
			c0,1.3-0.4,2.2-1.3,3s-2,1.1-3.6,1.1H364.2z M364.2,29.1h2.4c0.7,0,1.2-0.2,1.6-0.5s0.5-0.8,0.5-1.4c0-0.6-0.2-1.1-0.6-1.5
			s-0.9-0.6-1.5-0.6h-2.4V29.1z"/>
	</g>
</g>
<line class="st7" x1="507.5" y1="268.3" x2="507.5" y2="11.4"/>
<g>
	<g>
		<path class="st6" d="M406.5,25.1h-3.9v10.7h-2.6V25.1h-3.9v-2.1h10.4V25.1z"/>
		<path class="st6" d="M412.7,31h-2.1v4.7H408V22.9h4.8c1.5,0,2.7,0.3,3.5,1s1.2,1.6,1.2,2.9c0,0.9-0.2,1.6-0.6,2.2
			c-0.4,0.6-1,1-1.7,1.4l2.8,5.2v0.1h-2.8L412.7,31z M410.6,28.9h2.1c0.7,0,1.2-0.2,1.5-0.5c0.4-0.3,0.5-0.8,0.5-1.4
			c0-0.6-0.2-1.1-0.5-1.4s-0.9-0.5-1.6-0.5h-2.1V28.9z"/>
		<path class="st6" d="M429.2,22.9v8.4c0,1.4-0.4,2.5-1.3,3.3s-2.1,1.2-3.6,1.2c-1.5,0-2.7-0.4-3.6-1.2s-1.3-1.9-1.3-3.3v-8.5h2.6
			v8.4c0,0.8,0.2,1.4,0.6,1.8s1,0.6,1.7,0.6c1.5,0,2.2-0.8,2.3-2.3v-8.5H429.2z"/>
		<path class="st6" d="M441.7,35.7h-2.6l-5.1-8.4v8.4h-2.6V22.9h2.6l5.1,8.4v-8.4h2.6V35.7z"/>
		<path class="st6" d="M454.2,34.1c-0.5,0.6-1.1,1-2,1.3c-0.9,0.3-1.8,0.5-2.9,0.5c-1.1,0-2.1-0.2-2.9-0.7c-0.8-0.5-1.5-1.2-1.9-2.1
			s-0.7-2-0.7-3.2V29c0-1.3,0.2-2.4,0.6-3.3c0.4-0.9,1.1-1.6,1.9-2.1c0.8-0.5,1.8-0.7,2.9-0.7c1.5,0,2.7,0.4,3.6,1.1
			s1.4,1.8,1.5,3.2h-2.6c-0.1-0.7-0.4-1.3-0.8-1.6s-1-0.5-1.7-0.5c-0.9,0-1.6,0.3-2,1s-0.7,1.7-0.7,3v0.8c0,1.3,0.3,2.4,0.8,3
			s1.3,1,2.2,1c1,0,1.7-0.2,2.1-0.6v-2.2h-2.4V29h5V34.1z"/>
		<path class="st6" d="M470.8,31.5c-0.1,1.4-0.6,2.5-1.5,3.3s-2.1,1.2-3.6,1.2c-1.6,0-2.9-0.6-3.9-1.7s-1.4-2.6-1.4-4.5v-0.8
			c0-1.2,0.2-2.3,0.7-3.3s1.1-1.7,1.9-2.2c0.8-0.5,1.7-0.8,2.8-0.8c1.5,0,2.7,0.4,3.6,1.2s1.4,1.9,1.6,3.3h-2.6
			c-0.1-0.8-0.3-1.4-0.7-1.8s-1-0.6-1.8-0.6c-0.9,0-1.5,0.3-2,0.9s-0.7,1.6-0.7,2.9v1c0,1.4,0.2,2.4,0.6,3s1.1,1,2,1
			c0.8,0,1.4-0.2,1.8-0.6s0.6-0.9,0.7-1.7H470.8z"/>
		<path class="st6" d="M479.8,33.1h-4.6l-0.9,2.6h-2.8l4.8-12.8h2.4l4.8,12.8h-2.8L479.8,33.1z M476.8,20.2h1.4l2.5,2l-1.9,0
			l-1.3-1.1l-1.3,1.1l-1.9,0L476.8,20.2z M475.9,31h3.2l-1.6-4.8L475.9,31z M481.5,18.7h2l-2,2.4h-1.5L481.5,18.7z"/>
		<path class="st6" d="M487.3,31.2v4.5h-2.6V22.9h5c1,0,1.8,0.2,2.5,0.5s1.3,0.9,1.7,1.5c0.4,0.6,0.6,1.4,0.6,2.2
			c0,1.3-0.4,2.2-1.3,3s-2,1.1-3.6,1.1H487.3z M487.3,29.1h2.4c0.7,0,1.2-0.2,1.6-0.5s0.5-0.8,0.5-1.4c0-0.6-0.2-1.1-0.6-1.5
			s-0.9-0.6-1.5-0.6h-2.4V29.1z"/>
	</g>
</g>
<line class="st8" x1="627.1" y1="267" x2="627.1" y2="11.4"/>
<g>
	<g>
		<path class="st6" d="M529,25.1h-3.9v10.7h-2.6V25.1h-3.9v-2.1H529V25.1z"/>
		<path class="st6" d="M535.2,31h-2.1v4.7h-2.6V22.9h4.8c1.5,0,2.7,0.3,3.5,1s1.2,1.6,1.2,2.9c0,0.9-0.2,1.6-0.6,2.2
			c-0.4,0.6-1,1-1.7,1.4l2.8,5.2v0.1h-2.8L535.2,31z M533.1,28.9h2.1c0.7,0,1.2-0.2,1.5-0.5c0.4-0.3,0.5-0.8,0.5-1.4
			c0-0.6-0.2-1.1-0.5-1.4s-0.9-0.5-1.6-0.5h-2.1V28.9z"/>
		<path class="st6" d="M551.7,22.9v8.4c0,1.4-0.4,2.5-1.3,3.3s-2.1,1.2-3.6,1.2c-1.5,0-2.7-0.4-3.6-1.2s-1.3-1.9-1.3-3.3v-8.5h2.6
			v8.4c0,0.8,0.2,1.4,0.6,1.8s1,0.6,1.7,0.6c1.5,0,2.2-0.8,2.3-2.3v-8.5H551.7z"/>
		<path class="st6" d="M564.2,35.7h-2.6l-5.1-8.4v8.4h-2.6V22.9h2.6l5.1,8.4v-8.4h2.6V35.7z"/>
		<path class="st6" d="M576.7,34.1c-0.5,0.6-1.1,1-2,1.3c-0.9,0.3-1.8,0.5-2.9,0.5c-1.1,0-2.1-0.2-2.9-0.7c-0.8-0.5-1.5-1.2-1.9-2.1
			s-0.7-2-0.7-3.2V29c0-1.3,0.2-2.4,0.6-3.3c0.4-0.9,1.1-1.6,1.9-2.1c0.8-0.5,1.8-0.7,2.9-0.7c1.5,0,2.7,0.4,3.6,1.1
			s1.4,1.8,1.5,3.2h-2.6c-0.1-0.7-0.4-1.3-0.8-1.6s-1-0.5-1.7-0.5c-0.9,0-1.6,0.3-2,1s-0.7,1.7-0.7,3v0.8c0,1.3,0.3,2.4,0.8,3
			s1.3,1,2.2,1c1,0,1.7-0.2,2.1-0.6v-2.2h-2.4V29h5V34.1z"/>
		<path class="st6" d="M593.3,31.5c-0.1,1.4-0.6,2.5-1.5,3.3s-2.1,1.2-3.6,1.2c-1.6,0-2.9-0.6-3.9-1.7s-1.4-2.6-1.4-4.5v-0.8
			c0-1.2,0.2-2.3,0.7-3.3s1.1-1.7,1.9-2.2c0.8-0.5,1.7-0.8,2.8-0.8c1.5,0,2.7,0.4,3.6,1.2s1.4,1.9,1.6,3.3h-2.6
			c-0.1-0.8-0.3-1.4-0.7-1.8s-1-0.6-1.8-0.6c-0.9,0-1.5,0.3-2,0.9s-0.7,1.6-0.7,2.9v1c0,1.4,0.2,2.4,0.6,3s1.1,1,2,1
			c0.8,0,1.4-0.2,1.8-0.6s0.6-0.9,0.7-1.7H593.3z"/>
		<path class="st6" d="M602.3,33.1h-4.6l-0.9,2.6H594l4.8-12.8h2.4l4.8,12.8h-2.8L602.3,33.1z M599.3,20.2h1.4l2.5,2l-1.9,0
			l-1.3-1.1l-1.3,1.1l-1.9,0L599.3,20.2z M598.4,31h3.2l-1.6-4.8L598.4,31z M604,18.7h2l-2,2.4h-1.5L604,18.7z"/>
		<path class="st6" d="M609.8,31.2v4.5h-2.6V22.9h5c1,0,1.8,0.2,2.5,0.5s1.3,0.9,1.7,1.5c0.4,0.6,0.6,1.4,0.6,2.2
			c0,1.3-0.4,2.2-1.3,3s-2,1.1-3.6,1.1H609.8z M609.8,29.1h2.4c0.7,0,1.2-0.2,1.6-0.5s0.5-0.8,0.5-1.4c0-0.6-0.2-1.1-0.6-1.5
			s-0.9-0.6-1.5-0.6h-2.4V29.1z"/>
	</g>
</g>
<line class="st9" x1="786.1" y1="93.4" x2="786.1" y2="11.4"/>
<line class="st2" x1="711.7" y1="93.4" x2="711.7" y2="61.5"/>
<line class="st10" x1="786.1" y1="266.1" x2="786.1" y2="224.5"/>
<line class="st1" x1="711.7" y1="266.1" x2="711.7" y2="225"/>
<g>
	<g>
		<path class="st6" d="M647.3,25.1h-3.9v10.7h-2.6V25.1h-3.9v-2.1h10.4V25.1z"/>
		<path class="st6" d="M653.5,31h-2.1v4.7h-2.6V22.9h4.8c1.5,0,2.7,0.3,3.5,1s1.2,1.6,1.2,2.9c0,0.9-0.2,1.6-0.6,2.2
			c-0.4,0.6-1,1-1.7,1.4l2.8,5.2v0.1h-2.8L653.5,31z M651.4,28.9h2.1c0.7,0,1.2-0.2,1.5-0.5c0.4-0.3,0.5-0.8,0.5-1.4
			c0-0.6-0.2-1.1-0.5-1.4s-0.9-0.5-1.6-0.5h-2.1V28.9z"/>
		<path class="st6" d="M670,22.9v8.4c0,1.4-0.4,2.5-1.3,3.3s-2.1,1.2-3.6,1.2c-1.5,0-2.7-0.4-3.6-1.2s-1.3-1.9-1.3-3.3v-8.5h2.6v8.4
			c0,0.8,0.2,1.4,0.6,1.8s1,0.6,1.7,0.6c1.5,0,2.2-0.8,2.3-2.3v-8.5H670z"/>
		<path class="st6" d="M682.5,35.7h-2.6l-5.1-8.4v8.4h-2.6V22.9h2.6l5.1,8.4v-8.4h2.6V35.7z"/>
		<path class="st6" d="M695,34.1c-0.5,0.6-1.1,1-2,1.3c-0.9,0.3-1.8,0.5-2.9,0.5c-1.1,0-2.1-0.2-2.9-0.7c-0.8-0.5-1.5-1.2-1.9-2.1
			s-0.7-2-0.7-3.2V29c0-1.3,0.2-2.4,0.6-3.3c0.4-0.9,1.1-1.6,1.9-2.1c0.8-0.5,1.8-0.7,2.9-0.7c1.5,0,2.7,0.4,3.6,1.1
			s1.4,1.8,1.5,3.2h-2.6c-0.1-0.7-0.4-1.3-0.8-1.6s-1-0.5-1.7-0.5c-0.9,0-1.6,0.3-2,1s-0.7,1.7-0.7,3v0.8c0,1.3,0.3,2.4,0.8,3
			s1.3,1,2.2,1c1,0,1.7-0.2,2.1-0.6v-2.2h-2.4V29h5V34.1z"/>
		<path class="st6" d="M711.6,31.5c-0.1,1.4-0.6,2.5-1.5,3.3s-2.1,1.2-3.6,1.2c-1.6,0-2.9-0.6-3.9-1.7s-1.4-2.6-1.4-4.5v-0.8
			c0-1.2,0.2-2.3,0.7-3.3s1.1-1.7,1.9-2.2c0.8-0.5,1.7-0.8,2.8-0.8c1.5,0,2.7,0.4,3.6,1.2s1.4,1.9,1.6,3.3H709
			c-0.1-0.8-0.3-1.4-0.7-1.8s-1-0.6-1.8-0.6c-0.9,0-1.5,0.3-2,0.9s-0.7,1.6-0.7,2.9v1c0,1.4,0.2,2.4,0.6,3s1.1,1,2,1
			c0.8,0,1.4-0.2,1.8-0.6s0.6-0.9,0.7-1.7H711.6z"/>
		<path class="st6" d="M720.6,33.1H716l-0.9,2.6h-2.8l4.8-12.8h2.4l4.8,12.8h-2.8L720.6,33.1z M716.7,31h3.2l-1.6-4.8L716.7,31z"/>
		<path class="st6" d="M735.8,29.6c0,1.3-0.2,2.4-0.7,3.3c-0.4,0.9-1.1,1.7-1.9,2.2s-1.8,0.8-2.9,0.8c-1.1,0-2-0.3-2.8-0.8
			s-1.5-1.2-1.9-2.2c-0.5-0.9-0.7-2-0.7-3.3v-0.6c0-1.3,0.2-2.4,0.7-3.3c0.5-1,1.1-1.7,1.9-2.2s1.8-0.8,2.8-0.8s2,0.3,2.8,0.8
			s1.5,1.2,1.9,2.2c0.5,1,0.7,2.1,0.7,3.3V29.6z M733.1,29c0-1.3-0.2-2.4-0.7-3.1s-1.2-1-2.1-1c-0.9,0-1.6,0.3-2,1s-0.7,1.7-0.7,3
			v0.6c0,1.3,0.2,2.3,0.7,3c0.5,0.7,1.2,1.1,2.1,1.1c0.9,0,1.6-0.3,2-1c0.5-0.7,0.7-1.7,0.7-3V29z"/>
		<path class="st6" d="M752.2,31.5c-0.1,1.4-0.6,2.5-1.5,3.3s-2.1,1.2-3.6,1.2c-1.6,0-2.9-0.6-3.9-1.7s-1.4-2.6-1.4-4.5v-0.8
			c0-1.2,0.2-2.3,0.7-3.3s1.1-1.7,1.9-2.2c0.8-0.5,1.7-0.8,2.8-0.8c1.5,0,2.7,0.4,3.6,1.2s1.4,1.9,1.6,3.3h-2.6
			c-0.1-0.8-0.3-1.4-0.7-1.8s-1-0.6-1.8-0.6c-0.9,0-1.5,0.3-2,0.9s-0.7,1.6-0.7,2.9v1c0,1.4,0.2,2.4,0.6,3s1.1,1,2,1
			c0.8,0,1.4-0.2,1.8-0.6s0.6-0.9,0.7-1.7H752.2z"/>
		<path class="st6" d="M761.2,33.1h-4.6l-0.9,2.6h-2.8l4.8-12.8h2.4l4.8,12.8h-2.8L761.2,33.1z M758.2,20.2h1.4l2.5,2l-1.9,0
			l-1.3-1.1l-1.3,1.1l-1.9,0L758.2,20.2z M757.3,31h3.2l-1.6-4.8L757.3,31z M762.9,18.7h2l-2,2.4h-1.5L762.9,18.7z"/>
		<path class="st6" d="M768.7,31.2v4.5h-2.6V22.9h5c1,0,1.8,0.2,2.5,0.5s1.3,0.9,1.7,1.5c0.4,0.6,0.6,1.4,0.6,2.2
			c0,1.3-0.4,2.2-1.3,3s-2,1.1-3.6,1.1H768.7z M768.7,29.1h2.4c0.7,0,1.2-0.2,1.6-0.5s0.5-0.8,0.5-1.4c0-0.6-0.2-1.1-0.6-1.5
			s-0.9-0.6-1.5-0.6h-2.4V29.1z"/>
	</g>
</g>
<line class="st9" x1="882" y1="93.4" x2="882" y2="11.4"/>
<g>
	<g>
		<path class="st6" d="M805.9,31.5c-0.1,1.4-0.6,2.5-1.5,3.3s-2.1,1.2-3.6,1.2c-1.6,0-2.9-0.6-3.9-1.7s-1.4-2.6-1.4-4.5v-0.8
			c0-1.2,0.2-2.3,0.7-3.3s1.1-1.7,1.9-2.2c0.8-0.5,1.7-0.8,2.8-0.8c1.5,0,2.7,0.4,3.6,1.2s1.4,1.9,1.6,3.3h-2.6
			c-0.1-0.8-0.3-1.4-0.7-1.8s-1-0.6-1.8-0.6c-0.9,0-1.5,0.3-2,0.9s-0.7,1.6-0.7,2.9v1c0,1.4,0.2,2.4,0.6,3s1.1,1,2,1
			c0.8,0,1.4-0.2,1.8-0.6s0.6-0.9,0.7-1.7H805.9z"/>
		<path class="st6" d="M814.9,33.1h-4.6l-0.9,2.6h-2.8l4.8-12.8h2.4l4.8,12.8h-2.8L814.9,33.1z M811,31h3.2l-1.6-4.8L811,31z"/>
		<path class="st6" d="M830.1,29.6c0,1.3-0.2,2.4-0.7,3.3c-0.4,0.9-1.1,1.7-1.9,2.2s-1.8,0.8-2.9,0.8c-1.1,0-2-0.3-2.8-0.8
			s-1.5-1.2-1.9-2.2c-0.5-0.9-0.7-2-0.7-3.3v-0.6c0-1.3,0.2-2.4,0.7-3.3c0.5-1,1.1-1.7,1.9-2.2s1.8-0.8,2.8-0.8s2,0.3,2.8,0.8
			s1.5,1.2,1.9,2.2c0.5,1,0.7,2.1,0.7,3.3V29.6z M827.4,29c0-1.3-0.2-2.4-0.7-3.1s-1.2-1-2.1-1c-0.9,0-1.6,0.3-2,1s-0.7,1.7-0.7,3
			v0.6c0,1.3,0.2,2.3,0.7,3c0.5,0.7,1.2,1.1,2.1,1.1c0.9,0,1.6-0.3,2-1c0.5-0.7,0.7-1.7,0.7-3V29z"/>
		<path class="st6" d="M846.6,31.5c-0.1,1.4-0.6,2.5-1.5,3.3s-2.1,1.2-3.6,1.2c-1.6,0-2.9-0.6-3.9-1.7s-1.4-2.6-1.4-4.5v-0.8
			c0-1.2,0.2-2.3,0.7-3.3s1.1-1.7,1.9-2.2c0.8-0.5,1.7-0.8,2.8-0.8c1.5,0,2.7,0.4,3.6,1.2s1.4,1.9,1.6,3.3h-2.6
			c-0.1-0.8-0.3-1.4-0.7-1.8s-1-0.6-1.8-0.6c-0.9,0-1.5,0.3-2,0.9s-0.7,1.6-0.7,2.9v1c0,1.4,0.2,2.4,0.6,3s1.1,1,2,1
			c0.8,0,1.4-0.2,1.8-0.6s0.6-0.9,0.7-1.7H846.6z"/>
		<path class="st6" d="M855.5,33.1h-4.6l-0.9,2.6h-2.8l4.8-12.8h2.4l4.8,12.8h-2.8L855.5,33.1z M852.5,20.2h1.4l2.5,2l-1.9,0
			l-1.3-1.1l-1.3,1.1l-1.9,0L852.5,20.2z M851.6,31h3.2l-1.6-4.8L851.6,31z M857.2,18.7h2l-2,2.4h-1.5L857.2,18.7z"/>
		<path class="st6" d="M863,31.2v4.5h-2.6V22.9h5c1,0,1.8,0.2,2.5,0.5s1.3,0.9,1.7,1.5c0.4,0.6,0.6,1.4,0.6,2.2c0,1.3-0.4,2.2-1.3,3
			s-2,1.1-3.6,1.1H863z M863,29.1h2.4c0.7,0,1.2-0.2,1.6-0.5s0.5-0.8,0.5-1.4c0-0.6-0.2-1.1-0.6-1.5s-0.9-0.6-1.5-0.6H863V29.1z"/>
	</g>
</g>
<g>
	<g>
		<path class="st6" d="M915.8,25.1h-3.9v10.7h-2.6V25.1h-3.9v-2.1h10.4V25.1z"/>
		<path class="st6" d="M927.7,35.7h-2.6v-5.5H920v5.5h-2.6V22.9h2.6v5.2h5.1v-5.2h2.6V35.7z"/>
		<path class="st6" d="M937.4,33.1h-4.6l-0.9,2.6h-2.8l4.8-12.8h2.4l4.8,12.8h-2.8L937.4,33.1z M936.4,22.2h-2.1l-2.4-2.7h2.8
			L936.4,22.2z M933.5,31h3.2l-1.6-4.8L933.5,31z"/>
		<path class="st6" d="M952.7,35.7h-2.6l-5.1-8.4v8.4h-2.6V22.9h2.6l5.1,8.4v-8.4h2.6V35.7z"/>
		<path class="st6" d="M965.4,35.7h-2.6v-5.5h-5.1v5.5H955V22.9h2.6v5.2h5.1v-5.2h2.6V35.7z"/>
		<path class="st6" d="M981.3,25.1h-3.9v10.7h-2.6V25.1h-3.9v-2.1h10.4V25.1z"/>
		<path class="st6" d="M993.2,35.7h-2.6v-5.5h-5.1v5.5h-2.6V22.9h2.6v5.2h5.1v-5.2h2.6V35.7z"/>
		<path class="st6" d="M1002.9,33.1h-4.6l-0.9,2.6h-2.8l4.8-12.8h2.4l4.8,12.8h-2.8L1002.9,33.1z M999,31h3.2l-1.6-4.8L999,31z
			 M999.3,37.7c0-0.4,0.1-0.6,0.4-0.9s0.6-0.3,1-0.3c0.4,0,0.8,0.1,1,0.3s0.4,0.5,0.4,0.9c0,0.3-0.1,0.6-0.4,0.9s-0.6,0.4-1,0.4
			s-0.8-0.1-1-0.4S999.3,38.1,999.3,37.7z"/>
		<path class="st6" d="M1018.1,29.6c0,1.3-0.2,2.4-0.7,3.3c-0.4,0.9-1.1,1.7-1.9,2.2s-1.8,0.8-2.9,0.8c-1.1,0-2-0.3-2.8-0.8
			s-1.5-1.2-1.9-2.2c-0.5-0.9-0.7-2-0.7-3.3v-0.6c0-1.3,0.2-2.4,0.7-3.3c0.5-1,1.1-1.7,1.9-2.2s1.8-0.8,2.8-0.8s2,0.3,2.8,0.8
			s1.5,1.2,1.9,2.2c0.5,1,0.7,2.1,0.7,3.3V29.6z M1015.5,29c0-1.3-0.2-2.4-0.7-3.1s-1.2-1-2.1-1c-0.9,0-1.6,0.3-2,1s-0.7,1.7-0.7,3
			v0.6c0,1.3,0.2,2.3,0.7,3c0.5,0.7,1.2,1.1,2.1,1.1c0.9,0,1.6-0.3,2-1c0.5-0.7,0.7-1.7,0.7-3V29z"/>
	</g>
</g>
<g>
	<g>
		<path class="st6" d="M226.8,157.4v4.5h-2.6v-12.8h5c1,0,1.8,0.2,2.5,0.5s1.3,0.9,1.7,1.5c0.4,0.6,0.6,1.4,0.6,2.2
			c0,1.3-0.4,2.2-1.3,3s-2,1.1-3.6,1.1H226.8z M226.8,155.3h2.4c0.7,0,1.2-0.2,1.6-0.5s0.5-0.8,0.5-1.4c0-0.6-0.2-1.1-0.6-1.5
			s-0.9-0.6-1.5-0.6h-2.4V155.3z"/>
		<path class="st6" d="M240.5,157.3h-2.1v4.7h-2.6v-12.8h4.8c1.5,0,2.7,0.3,3.5,1s1.2,1.6,1.2,2.9c0,0.9-0.2,1.6-0.6,2.2
			c-0.4,0.6-1,1-1.7,1.4l2.8,5.2v0.1h-2.8L240.5,157.3z M238.4,155.1h2.1c0.7,0,1.2-0.2,1.5-0.5c0.4-0.3,0.5-0.8,0.5-1.4
			c0-0.6-0.2-1.1-0.5-1.4s-0.9-0.5-1.6-0.5h-2.1V155.1z"/>
		<path class="st6" d="M255,156.4h-5.1v3.4h5.9v2.1h-8.6v-12.8h8.6v2.1h-5.9v3h5.1V156.4z"/>
		<path class="st6" d="M262.2,157.5h-4.9v-2h4.9V157.5z"/>
		<path class="st6" d="M267.2,162h-2.6v-12.8h2.6V162z"/>
		<path class="st6" d="M277.3,156.4h-5.1v3.4h5.9v2.1h-8.6v-12.8h8.6v2.1h-5.9v3h5.1V156.4z"/>
	</g>
</g>
<g>
	<g>
		<path class="st6" d="M329.1,162h-2.6v-12.8h2.6V162z"/>
		<path class="st6" d="M339.2,156.4h-5.1v3.4h5.9v2.1h-8.6v-12.8h8.6v2.1h-5.9v3h5.1V156.4z"/>
		<path class="st6" d="M352,162h-2.5v-9.8l-3,0.9V151l5.3-1.9h0.3V162z"/>
	</g>
</g>
<g>
	<g>
		<path class="st6" d="M328.2,246.3l5,1.8v2.5l-7.6-3.2v-2.1l7.6-3.2v2.5L328.2,246.3z"/>
		<path class="st6" d="M347.2,246.9h1.5v2h-1.5v2.8h-2.5V249h-5.2l-0.1-1.6l5.3-8.4h2.6V246.9z M341.8,246.9h2.8v-4.5l-0.2,0.3
			L341.8,246.9z"/>
		<path class="st6" d="M350.2,250.5c0-0.4,0.1-0.7,0.4-1s0.6-0.4,1-0.4c0.4,0,0.8,0.1,1,0.4s0.4,0.6,0.4,1c0,0.4-0.1,0.7-0.4,1
			c-0.3,0.3-0.6,0.4-1,0.4c-0.4,0-0.8-0.1-1-0.4C350.3,251.2,350.2,250.9,350.2,250.5z"/>
		<path class="st6" d="M363.8,246.4c0,1.8-0.4,3.1-1.1,4.1s-1.8,1.4-3.2,1.4c-1.4,0-2.5-0.5-3.2-1.4s-1.1-2.2-1.1-4v-2.4
			c0-1.8,0.4-3.1,1.1-4.1s1.8-1.4,3.2-1.4s2.5,0.5,3.2,1.4c0.7,0.9,1.1,2.2,1.1,4V246.4z M361.3,243.9c0-1.1-0.1-1.8-0.4-2.3
			c-0.3-0.5-0.7-0.7-1.4-0.7c-0.6,0-1,0.2-1.3,0.7c-0.3,0.5-0.4,1.2-0.5,2.2v3.1c0,1,0.1,1.8,0.4,2.3c0.3,0.5,0.7,0.8,1.4,0.8
			c0.6,0,1.1-0.2,1.3-0.7c0.3-0.5,0.4-1.2,0.4-2.2V243.9z"/>
	</g>
</g>
<g>
	<g>
		<path class="st6" d="M563.4,246.9h1.5v2h-1.5v2.8h-2.5V249h-5.2l-0.1-1.6l5.3-8.4h2.6V246.9z M558,246.9h2.8v-4.5l-0.2,0.3
			L558,246.9z"/>
		<path class="st6" d="M566.4,250.5c0-0.4,0.1-0.7,0.4-1s0.6-0.4,1-0.4c0.4,0,0.8,0.1,1,0.4s0.4,0.6,0.4,1c0,0.4-0.1,0.7-0.4,1
			c-0.3,0.3-0.6,0.4-1,0.4c-0.4,0-0.8-0.1-1-0.4C566.6,251.2,566.4,250.9,566.4,250.5z"/>
		<path class="st6" d="M580,246.4c0,1.8-0.4,3.1-1.1,4.1s-1.8,1.4-3.2,1.4c-1.4,0-2.5-0.5-3.2-1.4s-1.1-2.2-1.1-4v-2.4
			c0-1.8,0.4-3.1,1.1-4.1s1.8-1.4,3.2-1.4s2.5,0.5,3.2,1.4c0.7,0.9,1.1,2.2,1.1,4V246.4z M577.5,243.9c0-1.1-0.1-1.8-0.4-2.3
			c-0.3-0.5-0.7-0.7-1.4-0.7c-0.6,0-1,0.2-1.3,0.7c-0.3,0.5-0.4,1.2-0.5,2.2v3.1c0,1,0.1,1.8,0.4,2.3c0.3,0.5,0.7,0.8,1.4,0.8
			c0.6,0,1.1-0.2,1.3-0.7c0.3-0.5,0.4-1.2,0.4-2.2V243.9z"/>
	</g>
</g>
<g>
	<g>
		<path class="st6" d="M434.3,162h-2.6v-12.8h2.6V162z"/>
		<path class="st6" d="M444.4,156.4h-5.1v3.4h5.9v2.1h-8.6v-12.8h8.6v2.1h-5.9v3h5.1V156.4z"/>
		<path class="st6" d="M459.8,162h-8.8v-1.7l4.1-4.4c0.6-0.6,1-1.2,1.3-1.6s0.4-0.9,0.4-1.3c0-0.6-0.1-1-0.4-1.3
			c-0.3-0.3-0.7-0.5-1.2-0.5c-0.6,0-1,0.2-1.4,0.6c-0.3,0.4-0.5,0.9-0.5,1.6h-2.5c0-0.8,0.2-1.5,0.6-2.1s0.9-1.1,1.6-1.5
			c0.7-0.4,1.5-0.5,2.3-0.5c1.3,0,2.3,0.3,3.1,0.9s1.1,1.5,1.1,2.7c0,0.6-0.2,1.3-0.5,1.9s-0.9,1.4-1.7,2.3l-2.9,3.1h5.5V162z"/>
	</g>
</g>
<g>
	<g>
		<path class="st6" d="M556.8,162h-2.6v-12.8h2.6V162z"/>
		<path class="st6" d="M566.9,156.4h-5.1v3.4h5.9v2.1h-8.6v-12.8h8.6v2.1h-5.9v3h5.1V156.4z"/>
		<path class="st6" d="M576.1,154.4h1.4c0.6,0,1.1-0.2,1.4-0.5s0.5-0.8,0.5-1.3c0-0.5-0.2-0.9-0.5-1.2s-0.7-0.4-1.3-0.4
			c-0.5,0-0.9,0.1-1.2,0.4c-0.3,0.3-0.5,0.6-0.5,1h-2.5c0-0.7,0.2-1.3,0.5-1.8c0.4-0.5,0.9-0.9,1.5-1.2s1.4-0.4,2.1-0.4
			c1.4,0,2.4,0.3,3.2,1c0.8,0.6,1.2,1.5,1.2,2.7c0,0.6-0.2,1.1-0.5,1.6s-0.8,0.9-1.4,1.1c0.7,0.3,1.3,0.6,1.6,1.2s0.5,1.1,0.5,1.8
			c0,1.1-0.4,2-1.2,2.7s-1.9,1-3.3,1c-1.3,0-2.3-0.3-3.1-1s-1.2-1.6-1.2-2.7h2.5c0,0.5,0.2,0.9,0.5,1.2s0.8,0.5,1.3,0.5
			c0.6,0,1.1-0.2,1.4-0.5c0.3-0.3,0.5-0.7,0.5-1.3c0-1.3-0.7-1.9-2.1-1.9h-1.3V154.4z"/>
	</g>
</g>
<g>
	<g>
		<path class="st6" d="M248,79.9h-4.6l-0.9,2.6h-2.8l4.8-12.8h2.4l4.8,12.8h-2.8L248,79.9z M244.1,77.8h3.2l-1.6-4.8L244.1,77.8z"/>
		<path class="st6" d="M258.8,82.5h-2.5v-9.8l-3,0.9v-2.1l5.3-1.9h0.3V82.5z"/>
	</g>
</g>
<g>
	<g>
		<path class="st6" d="M337.4,79.9h-4.6l-0.9,2.6h-2.8l4.8-12.8h2.4l4.8,12.8h-2.8L337.4,79.9z M333.5,77.8h3.2l-1.6-4.8L333.5,77.8
			z"/>
		<path class="st6" d="M350.8,82.5H342v-1.7l4.1-4.4c0.6-0.6,1-1.2,1.3-1.6s0.4-0.9,0.4-1.3c0-0.6-0.1-1-0.4-1.3
			c-0.3-0.3-0.7-0.5-1.2-0.5c-0.6,0-1,0.2-1.4,0.6c-0.3,0.4-0.5,0.9-0.5,1.6h-2.5c0-0.8,0.2-1.5,0.6-2.1s0.9-1.1,1.6-1.5
			c0.7-0.4,1.5-0.5,2.3-0.5c1.3,0,2.3,0.3,3.1,0.9s1.1,1.5,1.1,2.7c0,0.6-0.2,1.3-0.5,1.9s-0.9,1.4-1.7,2.3l-2.9,3.1h5.5V82.5z"/>
	</g>
</g>
<g>
	<g>
		<path class="st6" d="M437.7,79.9h-4.6l-0.9,2.6h-2.8l4.8-12.8h2.4l4.8,12.8h-2.8L437.7,79.9z M433.8,77.8h3.2l-1.6-4.8L433.8,77.8
			z"/>
		<path class="st6" d="M451.1,82.5h-8.8v-1.7l4.1-4.4c0.6-0.6,1-1.2,1.3-1.6s0.4-0.9,0.4-1.3c0-0.6-0.1-1-0.4-1.3
			c-0.3-0.3-0.7-0.5-1.2-0.5c-0.6,0-1,0.2-1.4,0.6c-0.3,0.4-0.5,0.9-0.5,1.6H442c0-0.8,0.2-1.5,0.6-2.1s0.9-1.1,1.6-1.5
			c0.7-0.4,1.5-0.5,2.3-0.5c1.3,0,2.3,0.3,3.1,0.9s1.1,1.5,1.1,2.7c0,0.6-0.2,1.3-0.5,1.9s-0.9,1.4-1.7,2.3l-2.9,3.1h5.5V82.5z"/>
		<path class="st6" d="M457.8,75.4h3.2v2.3h-3.2v3.6h-2.4v-3.6h-3.2v-2.3h3.2v-3.4h2.4V75.4z"/>
	</g>
</g>
<g>
	<g>
		<path class="st6" d="M558.2,82.5V69.7h4.5c1.6,0,2.7,0.3,3.5,0.9s1.2,1.5,1.2,2.6c0,0.6-0.2,1.2-0.5,1.7s-0.8,0.8-1.3,1
			c0.7,0.2,1.2,0.5,1.6,1s0.6,1.1,0.6,1.8c0,1.2-0.4,2.2-1.2,2.8s-1.9,1-3.4,1H558.2z M560.8,75.1h2c1.3,0,2-0.6,2-1.6
			c0-0.6-0.2-1-0.5-1.3c-0.3-0.3-0.9-0.4-1.6-0.4h-1.8V75.1z M560.8,77v3.5h2.3c0.6,0,1.1-0.1,1.5-0.4c0.3-0.3,0.5-0.7,0.5-1.2
			c0-1.2-0.6-1.8-1.8-1.8H560.8z"/>
		<path class="st6" d="M575.5,82.5H573v-9.8l-3,0.9v-2.1l5.3-1.9h0.3V82.5z"/>
	</g>
</g>
<g>
	<g>
		<path class="st6" d="M656.3,82.5V69.7h4.5c1.6,0,2.7,0.3,3.5,0.9s1.2,1.5,1.2,2.6c0,0.6-0.2,1.2-0.5,1.7s-0.8,0.8-1.3,1
			c0.7,0.2,1.2,0.5,1.6,1c0.4,0.5,0.6,1.1,0.6,1.8c0,1.2-0.4,2.2-1.2,2.8s-1.9,1-3.4,1H656.3z M658.9,75.1h2c1.3,0,2-0.6,2-1.6
			c0-0.6-0.2-1-0.5-1.3c-0.3-0.3-0.9-0.4-1.6-0.4h-1.8V75.1z M658.9,77v3.5h2.3c0.6,0,1.1-0.1,1.5-0.4c0.3-0.3,0.5-0.7,0.5-1.2
			c0-1.2-0.6-1.8-1.8-1.8H658.9z"/>
		<path class="st6" d="M673.7,82.5h-2.5v-9.8l-3,0.9v-2.1l5.3-1.9h0.3V82.5z"/>
		<path class="st6" d="M683.1,75.4h3.2v2.3h-3.2v3.6h-2.4v-3.6h-3.2v-2.3h3.2v-3.4h2.4V75.4z"/>
	</g>
</g>
<g>
	<g>
		<path class="st6" d="M737.7,82.5V69.7h4.5c1.6,0,2.7,0.3,3.5,0.9s1.2,1.5,1.2,2.6c0,0.6-0.2,1.2-0.5,1.7s-0.8,0.8-1.3,1
			c0.7,0.2,1.2,0.5,1.6,1s0.6,1.1,0.6,1.8c0,1.2-0.4,2.2-1.2,2.8s-1.9,1-3.4,1H737.7z M740.3,75.1h2c1.3,0,2-0.6,2-1.6
			c0-0.6-0.2-1-0.5-1.3c-0.3-0.3-0.9-0.4-1.6-0.4h-1.8V75.1z M740.3,77v3.5h2.3c0.6,0,1.1-0.1,1.5-0.4c0.3-0.3,0.5-0.7,0.5-1.2
			c0-1.2-0.6-1.8-1.8-1.8H740.3z"/>
		<path class="st6" d="M757.7,82.5h-8.8v-1.7l4.1-4.4c0.6-0.6,1-1.2,1.3-1.6s0.4-0.9,0.4-1.3c0-0.6-0.1-1-0.4-1.3
			c-0.3-0.3-0.7-0.5-1.2-0.5c-0.6,0-1,0.2-1.4,0.6c-0.3,0.4-0.5,0.9-0.5,1.6h-2.5c0-0.8,0.2-1.5,0.6-2.1s0.9-1.1,1.6-1.5
			c0.7-0.4,1.5-0.5,2.3-0.5c1.3,0,2.3,0.3,3.1,0.9s1.1,1.5,1.1,2.7c0,0.6-0.2,1.3-0.5,1.9s-0.9,1.4-1.7,2.3l-2.9,3.1h5.5V82.5z"/>
	</g>
</g>
<g>
	<g>
		<path class="st6" d="M656.4,245.6l0.7-6.5h7.2v2.1h-5.1l-0.3,2.8c0.6-0.3,1.2-0.5,1.9-0.5c1.2,0,2.2,0.4,2.9,1.1s1,1.8,1,3.2
			c0,0.8-0.2,1.6-0.5,2.2c-0.3,0.7-0.8,1.2-1.5,1.5c-0.7,0.4-1.4,0.5-2.3,0.5c-0.8,0-1.5-0.2-2.2-0.5c-0.7-0.3-1.2-0.8-1.6-1.3
			c-0.4-0.6-0.6-1.2-0.6-1.9h2.5c0.1,0.5,0.2,0.9,0.6,1.2c0.3,0.3,0.7,0.4,1.3,0.4c0.6,0,1-0.2,1.3-0.6c0.3-0.4,0.5-1,0.5-1.8
			c0-0.7-0.2-1.3-0.5-1.7s-0.9-0.6-1.5-0.6c-0.6,0-1.1,0.2-1.5,0.5l-0.2,0.2L656.4,245.6z"/>
		<path class="st6" d="M666.6,250.6c0-0.4,0.1-0.7,0.4-1c0.3-0.3,0.6-0.4,1-0.4c0.4,0,0.8,0.1,1,0.4c0.3,0.3,0.4,0.6,0.4,1
			c0,0.4-0.1,0.7-0.4,1c-0.3,0.3-0.6,0.4-1,0.4c-0.4,0-0.8-0.1-1-0.4C666.7,251.3,666.6,251,666.6,250.6z"/>
		<path class="st6" d="M680.2,246.6c0,1.8-0.4,3.1-1.1,4.1s-1.8,1.4-3.2,1.4c-1.4,0-2.5-0.5-3.2-1.4s-1.1-2.2-1.1-4v-2.4
			c0-1.8,0.4-3.1,1.1-4.1c0.7-0.9,1.8-1.4,3.2-1.4s2.5,0.5,3.2,1.4c0.7,0.9,1.1,2.2,1.1,4V246.6z M677.7,244c0-1.1-0.1-1.8-0.4-2.3
			c-0.3-0.5-0.7-0.7-1.4-0.7c-0.6,0-1,0.2-1.3,0.7c-0.3,0.5-0.4,1.2-0.5,2.2v3.1c0,1,0.1,1.8,0.4,2.3c0.3,0.5,0.7,0.8,1.4,0.8
			c0.6,0,1.1-0.2,1.3-0.7s0.4-1.2,0.4-2.2V244z"/>
	</g>
</g>
<g>
	<g>
		<path class="st6" d="M744.3,238.9v2.1h-0.2c-1.1,0-2.1,0.3-2.8,0.9s-1.1,1.4-1.3,2.4c0.7-0.7,1.5-1,2.6-1c1.1,0,2,0.4,2.7,1.2
			s1,1.8,1,3.1c0,0.8-0.2,1.6-0.5,2.3s-0.9,1.2-1.5,1.6s-1.4,0.6-2.2,0.6c-1.3,0-2.4-0.5-3.3-1.4s-1.2-2.2-1.2-3.8v-0.9
			c0-1.4,0.3-2.6,0.8-3.7c0.5-1.1,1.3-1.9,2.3-2.5c1-0.6,2.1-0.9,3.4-0.9H744.3z M741.8,245.3c-0.4,0-0.8,0.1-1.1,0.3
			c-0.3,0.2-0.6,0.5-0.7,0.8v0.8c0,0.8,0.2,1.5,0.5,2s0.8,0.7,1.4,0.7c0.5,0,1-0.2,1.3-0.6s0.5-1,0.5-1.7c0-0.7-0.2-1.3-0.5-1.7
			C742.9,245.5,742.4,245.3,741.8,245.3z"/>
		<path class="st6" d="M748,250.6c0-0.4,0.1-0.7,0.4-1s0.6-0.4,1-0.4c0.4,0,0.8,0.1,1,0.4s0.4,0.6,0.4,1c0,0.4-0.1,0.7-0.4,1
			c-0.3,0.3-0.6,0.4-1,0.4c-0.4,0-0.8-0.1-1-0.4C748.1,251.3,748,251,748,250.6z"/>
		<path class="st6" d="M761.6,246.6c0,1.8-0.4,3.1-1.1,4.1s-1.8,1.4-3.2,1.4c-1.4,0-2.5-0.5-3.2-1.4s-1.1-2.2-1.1-4v-2.4
			c0-1.8,0.4-3.1,1.1-4.1s1.8-1.4,3.2-1.4s2.5,0.5,3.2,1.4c0.7,0.9,1.1,2.2,1.1,4V246.6z M759.1,244c0-1.1-0.1-1.8-0.4-2.3
			c-0.3-0.5-0.7-0.7-1.4-0.7c-0.6,0-1,0.2-1.3,0.7c-0.3,0.5-0.4,1.2-0.5,2.2v3.1c0,1,0.1,1.8,0.4,2.3s0.7,0.8,1.4,0.8
			c0.6,0,1.1-0.2,1.3-0.7s0.4-1.2,0.4-2.2V244z"/>
	</g>
</g>
<g>
	<g>
		<path class="st6" d="M899.7,240.5l-4.9,11.4h-2.7l5-10.7h-6.4v-2h9V240.5z"/>
		<path class="st6" d="M901.6,250.6c0-0.4,0.1-0.7,0.4-1s0.6-0.4,1-0.4c0.4,0,0.8,0.1,1,0.4s0.4,0.6,0.4,1c0,0.4-0.1,0.7-0.4,1
			c-0.3,0.3-0.6,0.4-1,0.4c-0.4,0-0.8-0.1-1-0.4C901.7,251.3,901.6,251,901.6,250.6z"/>
		<path class="st6" d="M915.2,246.6c0,1.8-0.4,3.1-1.1,4.1s-1.8,1.4-3.2,1.4c-1.4,0-2.5-0.5-3.2-1.4s-1.1-2.2-1.1-4v-2.4
			c0-1.8,0.4-3.1,1.1-4.1s1.8-1.4,3.2-1.4s2.5,0.5,3.2,1.4c0.7,0.9,1.1,2.2,1.1,4V246.6z M912.7,244c0-1.1-0.1-1.8-0.4-2.3
			c-0.3-0.5-0.7-0.7-1.4-0.7c-0.6,0-1,0.2-1.3,0.7c-0.3,0.5-0.4,1.2-0.5,2.2v3.1c0,1,0.1,1.8,0.4,2.3s0.7,0.8,1.4,0.8
			c0.6,0,1.1-0.2,1.3-0.7s0.4-1.2,0.4-2.2V244z"/>
		<path class="st6" d="M922.1,244.7h3.2v2.3h-3.2v3.6h-2.4V247h-3.2v-2.3h3.2v-3.4h2.4V244.7z"/>
	</g>
</g>
<g>
	<g>
		<path class="st6" d="M832.9,78.3c-0.1,1.4-0.6,2.5-1.5,3.3s-2.1,1.2-3.6,1.2c-1.6,0-2.9-0.6-3.9-1.7s-1.4-2.6-1.4-4.5v-0.8
			c0-1.2,0.2-2.3,0.7-3.3s1.1-1.7,1.9-2.2c0.8-0.5,1.7-0.8,2.8-0.8c1.5,0,2.7,0.4,3.6,1.2s1.4,1.9,1.6,3.3h-2.6
			c-0.1-0.8-0.3-1.4-0.7-1.8s-1-0.6-1.8-0.6c-0.9,0-1.5,0.3-2,0.9s-0.7,1.6-0.7,2.9v1c0,1.4,0.2,2.4,0.6,3s1.1,1,2,1
			c0.8,0,1.4-0.2,1.8-0.6s0.6-0.9,0.7-1.7H832.9z"/>
		<path class="st6" d="M840.6,82.5H838v-9.8l-3,0.9v-2.1l5.3-1.9h0.3V82.5z"/>
	</g>
</g>
<g>
	<g>
		<path class="st6" d="M962.1,78.3c-0.1,1.4-0.6,2.5-1.5,3.3c-0.9,0.8-2.1,1.2-3.6,1.2c-1.6,0-2.9-0.6-3.9-1.7
			c-0.9-1.1-1.4-2.6-1.4-4.5v-0.8c0-1.2,0.2-2.3,0.7-3.3s1.1-1.7,1.9-2.2c0.8-0.5,1.7-0.8,2.8-0.8c1.5,0,2.7,0.4,3.6,1.2
			s1.4,1.9,1.6,3.3h-2.6c-0.1-0.8-0.3-1.4-0.7-1.8c-0.4-0.4-1-0.6-1.8-0.6c-0.9,0-1.5,0.3-2,0.9c-0.4,0.6-0.7,1.6-0.7,2.9v1
			c0,1.4,0.2,2.4,0.6,3c0.4,0.6,1.1,1,2,1c0.8,0,1.4-0.2,1.8-0.6c0.4-0.4,0.6-0.9,0.7-1.7H962.1z"/>
		<path class="st6" d="M972.3,82.5h-8.8v-1.7l4.1-4.4c0.6-0.6,1-1.2,1.3-1.6c0.3-0.5,0.4-0.9,0.4-1.3c0-0.6-0.1-1-0.4-1.3
			c-0.3-0.3-0.7-0.5-1.2-0.5c-0.6,0-1,0.2-1.4,0.6c-0.3,0.4-0.5,0.9-0.5,1.6h-2.5c0-0.8,0.2-1.5,0.6-2.1c0.4-0.6,0.9-1.1,1.6-1.5
			c0.7-0.4,1.5-0.5,2.3-0.5c1.3,0,2.3,0.3,3.1,0.9c0.7,0.6,1.1,1.5,1.1,2.7c0,0.6-0.2,1.3-0.5,1.9s-0.9,1.4-1.7,2.3l-2.9,3.1h5.5
			V82.5z"/>
	</g>
</g>
<g>
	<path class="st5" d="M17.5,162.3h-2.6v-12.8h2.6V162.3z"/>
	<path class="st5" d="M22.1,152.7l0.1,1.1c0.7-0.8,1.6-1.3,2.7-1.3c1,0,1.8,0.3,2.3,0.9s0.7,1.5,0.8,2.7v6.1h-2.5v-6.1
		c0-0.5-0.1-0.9-0.4-1.2c-0.2-0.2-0.6-0.4-1.2-0.4c-0.7,0-1.3,0.3-1.6,0.9v6.7h-2.5v-9.5H22.1z"/>
	<path class="st5" d="M32.9,150.4v2.3h1.6v1.9h-1.6v4.7c0,0.4,0.1,0.6,0.2,0.8s0.4,0.2,0.8,0.2c0.3,0,0.5,0,0.7-0.1v1.9
		c-0.5,0.2-1,0.2-1.5,0.2c-1.8,0-2.7-0.9-2.7-2.7v-5.1H29v-1.9h1.4v-2.3H32.9z"/>
	<path class="st5" d="M40.3,162.4c-1.4,0-2.5-0.4-3.4-1.3s-1.3-2-1.3-3.4v-0.2c0-1,0.2-1.8,0.6-2.6s0.9-1.3,1.6-1.7s1.4-0.6,2.3-0.6
		c1.3,0,2.3,0.4,3.1,1.2s1.1,2,1.1,3.5v1h-6.1c0.1,0.6,0.3,1.1,0.7,1.5s0.9,0.6,1.6,0.6c1,0,1.7-0.4,2.3-1.1l1.2,1.4
		c-0.4,0.5-0.9,1-1.5,1.3C41.8,162.3,41.1,162.4,40.3,162.4z M40,154.6c-0.5,0-0.9,0.2-1.2,0.5c-0.3,0.3-0.5,0.8-0.6,1.5h3.5v-0.2
		c0-0.6-0.2-1-0.5-1.3C41,154.8,40.6,154.6,40,154.6z"/>
	<path class="st5" d="M51,155.1c-0.3,0-0.7-0.1-0.9-0.1c-1,0-1.6,0.3-1.9,1v6.2h-2.5v-9.5h2.4l0.1,1.1c0.5-0.9,1.2-1.3,2.1-1.3
		c0.3,0,0.5,0,0.8,0.1L51,155.1z"/>
	<path class="st5" d="M57.5,162.3c-0.1-0.2-0.2-0.5-0.3-0.9c-0.6,0.7-1.4,1-2.4,1c-0.9,0-1.7-0.3-2.3-0.8s-0.9-1.2-0.9-2
		c0-1,0.4-1.8,1.1-2.3s1.8-0.8,3.2-0.8h1.2v-0.5c0-0.4-0.1-0.8-0.3-1.1s-0.6-0.4-1.1-0.4c-0.4,0-0.8,0.1-1,0.3s-0.4,0.5-0.4,0.8
		h-2.5c0-0.6,0.2-1.1,0.5-1.5s0.8-0.8,1.4-1.1s1.3-0.4,2.1-0.4c1.2,0,2.1,0.3,2.8,0.9c0.7,0.6,1,1.4,1,2.5v4.1c0,0.9,0.1,1.6,0.4,2
		v0.1H57.5z M55.4,160.5c0.4,0,0.7-0.1,1-0.3c0.3-0.2,0.6-0.4,0.7-0.7v-1.6h-0.9c-1.3,0-1.9,0.4-2,1.3l0,0.1c0,0.3,0.1,0.6,0.3,0.8
		S55,160.5,55.4,160.5z"/>
	<path class="st5" d="M65.6,160.4c0.5,0,0.8-0.1,1.1-0.4s0.4-0.6,0.5-1h2.4c0,0.6-0.2,1.2-0.5,1.8c-0.3,0.5-0.8,1-1.4,1.2
		c-0.6,0.3-1.3,0.4-2,0.4c-1.4,0-2.4-0.4-3.2-1.3c-0.8-0.9-1.2-2.1-1.2-3.6v-0.2c0-1.5,0.4-2.6,1.2-3.5s1.8-1.3,3.2-1.3
		c1.2,0,2.1,0.3,2.9,1c0.7,0.7,1.1,1.6,1.1,2.7h-2.4c0-0.5-0.2-0.9-0.5-1.2s-0.7-0.5-1.2-0.5c-0.6,0-1,0.2-1.3,0.6
		c-0.3,0.4-0.5,1.1-0.5,2.1v0.3c0,1,0.1,1.7,0.4,2.1S65,160.4,65.6,160.4z"/>
	<path class="st5" d="M74.1,150.4v2.3h1.6v1.9h-1.6v4.7c0,0.4,0.1,0.6,0.2,0.8s0.4,0.2,0.8,0.2c0.3,0,0.5,0,0.7-0.1v1.9
		c-0.5,0.2-1,0.2-1.5,0.2c-1.8,0-2.7-0.9-2.7-2.7v-5.1h-1.4v-1.9h1.4v-2.3H74.1z"/>
	<path class="st5" d="M77.1,150.3c0-0.4,0.1-0.7,0.4-0.9s0.6-0.4,1-0.4c0.4,0,0.8,0.1,1,0.4s0.4,0.6,0.4,0.9c0,0.4-0.1,0.7-0.4,0.9
		s-0.6,0.4-1,0.4s-0.8-0.1-1-0.4S77.1,150.7,77.1,150.3z M79.8,162.3h-2.5v-9.5h2.5V162.3z"/>
	<path class="st5" d="M85.4,159.2l1.8-6.4h2.7l-3.2,9.5h-2.4l-3.2-9.5h2.7L85.4,159.2z"/>
	<path class="st5" d="M95.2,162.4c-1.4,0-2.5-0.4-3.4-1.3s-1.3-2-1.3-3.4v-0.2c0-1,0.2-1.8,0.6-2.6s0.9-1.3,1.6-1.7s1.4-0.6,2.3-0.6
		c1.3,0,2.3,0.4,3.1,1.2s1.1,2,1.1,3.5v1h-6.1c0.1,0.6,0.3,1.1,0.7,1.5s0.9,0.6,1.6,0.6c1,0,1.7-0.4,2.3-1.1l1.2,1.4
		c-0.4,0.5-0.9,1-1.5,1.3C96.8,162.3,96,162.4,95.2,162.4z M95,154.6c-0.5,0-0.9,0.2-1.2,0.5c-0.3,0.3-0.5,0.8-0.6,1.5h3.5v-0.2
		c0-0.6-0.2-1-0.5-1.3C95.9,154.8,95.5,154.6,95,154.6z"/>
	<path class="st5" d="M112.9,156.7h-5.1v3.4h5.9v2.1h-8.6v-12.8h8.6v2.1h-5.9v3h5.1V156.7z"/>
	<path class="st5" d="M117.5,152.7l0.1,1.1c0.7-0.8,1.6-1.3,2.7-1.3c1,0,1.8,0.3,2.3,0.9s0.7,1.5,0.8,2.7v6.1h-2.5v-6.1
		c0-0.5-0.1-0.9-0.4-1.2c-0.2-0.2-0.6-0.4-1.2-0.4c-0.7,0-1.3,0.3-1.6,0.9v6.7h-2.5v-9.5H117.5z"/>
	<path class="st5" d="M124.9,157.4c0-1.5,0.3-2.6,1-3.5s1.6-1.3,2.8-1.3c1,0,1.9,0.4,2.4,1.1l0.1-0.9h2.3v9.2c0,0.8-0.2,1.6-0.6,2.2
		s-0.9,1.1-1.6,1.4S130,166,129,166c-0.7,0-1.4-0.1-2-0.4s-1.2-0.6-1.5-1.1l1.1-1.5c0.6,0.7,1.4,1.1,2.3,1.1c0.7,0,1.2-0.2,1.6-0.5
		c0.4-0.4,0.6-0.9,0.6-1.5v-0.5c-0.6,0.7-1.4,1-2.3,1c-1.1,0-2.1-0.4-2.8-1.3s-1.1-2.1-1.1-3.6V157.4z M127.5,157.6
		c0,0.9,0.2,1.5,0.5,2c0.3,0.5,0.8,0.7,1.4,0.7c0.8,0,1.3-0.3,1.7-0.9v-4c-0.3-0.6-0.9-0.9-1.6-0.9c-0.6,0-1.1,0.3-1.4,0.7
		C127.6,155.9,127.5,156.6,127.5,157.6z"/>
	<path class="st5" d="M138.2,162.3h-2.5v-13.5h2.5V162.3z"/>
	<path class="st5" d="M140.3,150.3c0-0.4,0.1-0.7,0.4-0.9s0.6-0.4,1-0.4c0.4,0,0.8,0.1,1,0.4s0.4,0.6,0.4,0.9c0,0.4-0.1,0.7-0.4,0.9
		s-0.6,0.4-1,0.4s-0.8-0.1-1-0.4S140.3,150.7,140.3,150.3z M143,162.3h-2.5v-9.5h2.5V162.3z"/>
	<path class="st5" d="M150.3,159.6c0-0.3-0.2-0.6-0.5-0.7s-0.8-0.3-1.5-0.5c-2.3-0.5-3.4-1.4-3.4-2.9c0-0.8,0.4-1.5,1.1-2.1
		c0.7-0.6,1.6-0.8,2.7-0.8c1.2,0,2.2,0.3,2.9,0.9s1.1,1.3,1.1,2.2h-2.5c0-0.4-0.1-0.7-0.4-0.9c-0.2-0.2-0.6-0.4-1.1-0.4
		c-0.4,0-0.8,0.1-1,0.3s-0.4,0.4-0.4,0.7c0,0.3,0.1,0.5,0.4,0.7c0.3,0.2,0.7,0.3,1.3,0.4s1.2,0.3,1.6,0.4c1.3,0.5,2,1.3,2,2.6
		c0,0.9-0.4,1.6-1.1,2.1c-0.7,0.5-1.7,0.8-2.9,0.8c-0.8,0-1.5-0.1-2.1-0.4c-0.6-0.3-1.1-0.7-1.5-1.2c-0.4-0.5-0.5-1-0.5-1.6h2.4
		c0,0.5,0.2,0.8,0.5,1s0.7,0.4,1.2,0.4c0.5,0,0.9-0.1,1.1-0.3C150.1,160.2,150.3,159.9,150.3,159.6z"/>
	<path class="st5" d="M156.8,153.8c0.7-0.8,1.5-1.2,2.5-1.2c2.1,0,3.1,1.2,3.1,3.6v6.1H160v-6c0-0.5-0.1-0.9-0.4-1.2
		s-0.6-0.4-1.2-0.4c-0.7,0-1.3,0.3-1.6,0.9v6.8h-2.5v-13.5h2.5V153.8z"/>
</g>
<g>
	<path class="st5" d="M17.4,250.7H23v2.1h-8.2V240h2.6V250.7z"/>
	<path class="st5" d="M29.9,251.8c-0.6,0.8-1.5,1.1-2.6,1.1c-1,0-1.8-0.3-2.3-0.9s-0.8-1.4-0.8-2.6v-6.2h2.5v6.2
		c0,1,0.5,1.5,1.4,1.5c0.9,0,1.5-0.3,1.8-0.9v-6.7h2.5v9.5h-2.4L29.9,251.8z"/>
	<path class="st5" d="M37.8,249.2l1.8-5.9h2.7l-3.8,11l-0.2,0.5c-0.6,1.2-1.5,1.9-2.8,1.9c-0.4,0-0.7-0.1-1.1-0.2v-1.9l0.4,0
		c0.5,0,0.8-0.1,1.1-0.2s0.4-0.4,0.6-0.7l0.3-0.8l-3.3-9.5H36L37.8,249.2z"/>
	<path class="st5" d="M47.5,253c-1.4,0-2.5-0.4-3.4-1.3s-1.3-2-1.3-3.4V248c0-1,0.2-1.8,0.6-2.6c0.4-0.8,0.9-1.3,1.6-1.7
		c0.7-0.4,1.4-0.6,2.3-0.6c1.3,0,2.3,0.4,3.1,1.2s1.1,2,1.1,3.5v1h-6.1c0.1,0.6,0.3,1.1,0.7,1.5s0.9,0.6,1.6,0.6
		c1,0,1.7-0.4,2.3-1.1l1.2,1.4c-0.4,0.5-0.9,1-1.5,1.3S48.3,253,47.5,253z M50.3,241.7v0.1l-2,0l-1.4-1.3l-1.4,1.3l-2,0v-0.1
		l2.6-2.4h1.5L50.3,241.7z M47.3,245.1c-0.5,0-0.9,0.2-1.2,0.5c-0.3,0.3-0.5,0.8-0.6,1.5H49v-0.2c0-0.6-0.2-1-0.5-1.3
		C48.2,245.3,47.8,245.1,47.3,245.1z M45.8,254.8c0-0.4,0.1-0.6,0.4-0.9s0.6-0.3,1-0.3c0.4,0,0.8,0.1,1,0.3s0.4,0.5,0.4,0.9
		c0,0.3-0.1,0.6-0.4,0.9s-0.6,0.4-1,0.4s-0.8-0.1-1-0.4S45.8,255.2,45.8,254.8z"/>
	<path class="st5" d="M55.2,243.3l0.1,1.1c0.7-0.8,1.6-1.3,2.7-1.3c1,0,1.8,0.3,2.3,0.9s0.7,1.5,0.8,2.7v6.1h-2.5v-6.1
		c0-0.5-0.1-0.9-0.4-1.2c-0.2-0.2-0.6-0.4-1.2-0.4c-0.7,0-1.3,0.3-1.6,0.9v6.7h-2.5v-9.5H55.2z"/>
	<path class="st5" d="M70.5,240.9v2.3h1.6v1.9h-1.6v4.7c0,0.4,0.1,0.6,0.2,0.8s0.4,0.2,0.8,0.2c0.3,0,0.5,0,0.7-0.1v1.9
		c-0.5,0.2-1,0.2-1.5,0.2c-1.8,0-2.7-0.9-2.7-2.7v-5.1h-1.4v-1.9H68v-2.3H70.5z"/>
	<path class="st5" d="M76,244.3c0.7-0.8,1.5-1.2,2.5-1.2c2.1,0,3.1,1.2,3.1,3.6v6.1h-2.5v-6c0-0.5-0.1-0.9-0.4-1.2
		c-0.2-0.3-0.6-0.4-1.2-0.4c-0.7,0-1.3,0.3-1.6,0.9v6.8h-2.5v-13.5H76V244.3z"/>
	<path class="st5" d="M83.6,240.8c0-0.4,0.1-0.7,0.4-0.9s0.6-0.4,1-0.4c0.4,0,0.8,0.1,1,0.4s0.4,0.6,0.4,0.9c0,0.4-0.1,0.7-0.4,0.9
		s-0.6,0.4-1,0.4s-0.8-0.1-1-0.4S83.6,241.2,83.6,240.8z M86.3,252.8h-2.5v-9.5h2.5V252.8z"/>
	<path class="st5" d="M95.8,252.8h-2.6V240h2.6V252.8z"/>
	<path class="st5" d="M106,247.2h-5.1v3.4h5.9v2.1h-8.6V240h8.6v2.1h-5.9v3.1h5.1V247.2z"/>
	<path class="st5" d="M111,250.7h5.6v2.1h-8.2V240h2.6V250.7z"/>
	<path class="st5" d="M126,242.1h-3.9v10.7h-2.6v-10.7h-3.9V240H126V242.1z"/>
	<path class="st5" d="M134,249.4c0-0.5-0.2-0.9-0.5-1.1c-0.4-0.3-1-0.5-1.9-0.8c-0.9-0.3-1.6-0.6-2.2-0.9c-1.5-0.8-2.2-1.8-2.2-3.2
		c0-0.7,0.2-1.3,0.6-1.8c0.4-0.5,0.9-1,1.7-1.3s1.5-0.5,2.5-0.5c0.9,0,1.7,0.2,2.4,0.5c0.7,0.3,1.3,0.8,1.7,1.4s0.6,1.3,0.6,2.1H134
		c0-0.6-0.2-1-0.6-1.4c-0.4-0.3-0.9-0.5-1.6-0.5c-0.6,0-1.1,0.1-1.5,0.4c-0.4,0.3-0.5,0.6-0.5,1.1c0,0.4,0.2,0.8,0.6,1
		s1,0.5,1.9,0.8c1.5,0.5,2.6,1,3.3,1.7s1,1.5,1,2.5c0,1.1-0.4,2-1.3,2.6c-0.8,0.6-2,0.9-3.4,0.9c-1,0-1.9-0.2-2.7-0.5
		c-0.8-0.4-1.4-0.9-1.9-1.5s-0.6-1.4-0.6-2.2h2.6c0,1.4,0.8,2.1,2.5,2.1c0.6,0,1.1-0.1,1.5-0.4C133.8,250.2,134,249.9,134,249.4z"/>
</g>
<g>
	<g>
		<path class="st11" d="M643.4,148.2l-1.2,1.3v3.4h-1.3v-10h1.3v4.9l4.4-4.9h1.6l-3.9,4.4l4.2,5.6h-1.6L643.4,148.2z"/>
		<path class="st11" d="M652.3,153c-1,0-1.8-0.3-2.4-1c-0.6-0.7-0.9-1.5-0.9-2.6v-0.2c0-0.7,0.1-1.4,0.4-2c0.3-0.6,0.7-1,1.2-1.4
			c0.5-0.3,1-0.5,1.6-0.5c1,0,1.7,0.3,2.2,1s0.8,1.5,0.8,2.7v0.5h-5c0,0.7,0.2,1.3,0.6,1.8c0.4,0.4,0.9,0.7,1.6,0.7
			c0.4,0,0.8-0.1,1.1-0.3c0.3-0.2,0.6-0.4,0.8-0.7l0.8,0.6C654.5,152.5,653.6,153,652.3,153z M651.6,142.6h1l2,1.8l-1.3,0l-1.2-1.1
			l-1.2,1.1l-1.4,0L651.6,142.6z M652.2,146.4c-0.5,0-0.9,0.2-1.3,0.6c-0.3,0.4-0.6,0.9-0.6,1.6h3.7v-0.1c0-0.6-0.2-1.1-0.5-1.5
			C653.1,146.6,652.7,146.4,652.2,146.4z M655.1,141.4h1.4l-1.4,1.8l-1,0L655.1,141.4z"/>
		<path class="st11" d="M658.4,143.7v1.8h1.4v1h-1.4v4.6c0,0.3,0.1,0.5,0.2,0.7s0.3,0.2,0.6,0.2c0.1,0,0.3,0,0.6-0.1v1
			c-0.3,0.1-0.7,0.1-1,0.1c-0.6,0-1-0.2-1.3-0.5s-0.4-0.8-0.4-1.5v-4.6h-1.3v-1h1.3v-1.8H658.4z"/>
		<path class="st11" d="M665.7,143.7v1.8h1.4v1h-1.4v4.6c0,0.3,0.1,0.5,0.2,0.7s0.3,0.2,0.6,0.2c0.1,0,0.3,0,0.6-0.1v1
			c-0.3,0.1-0.7,0.1-1,0.1c-0.6,0-1-0.2-1.3-0.5s-0.4-0.8-0.4-1.5v-4.6h-1.3v-1h1.3v-1.8H665.7z"/>
		<path class="st11" d="M669.9,146.4c0.6-0.7,1.3-1,2.2-1c1.6,0,2.4,0.9,2.4,2.6v4.9h-1.3V148c0-0.5-0.1-0.9-0.4-1.2
			s-0.6-0.4-1.1-0.4c-0.4,0-0.8,0.1-1.1,0.3c-0.3,0.2-0.6,0.5-0.7,0.9v5.3h-1.3v-10.5h1.3V146.4z"/>
		<path class="st11" d="M680.9,152.1c-0.5,0.6-1.2,0.9-2.2,0.9c-0.8,0-1.4-0.2-1.8-0.7c-0.4-0.5-0.6-1.1-0.6-2v-4.8h1.3v4.8
			c0,1.1,0.5,1.7,1.4,1.7c1,0,1.6-0.4,1.9-1.1v-5.4h1.3v7.4h-1.2L680.9,152.1z M679.8,142.4h1.5l-1.8,2l-1,0L679.8,142.4z"/>
		<path class="st11" d="M687,152c0.5,0,0.8-0.1,1.2-0.4c0.3-0.3,0.5-0.6,0.6-1h1.2c0,0.4-0.2,0.8-0.4,1.2c-0.3,0.4-0.6,0.7-1.1,0.9
			c-0.4,0.2-0.9,0.3-1.4,0.3c-1,0-1.8-0.3-2.4-1c-0.6-0.7-0.9-1.6-0.9-2.8V149c0-0.7,0.1-1.4,0.4-1.9c0.3-0.6,0.6-1,1.1-1.3
			c0.5-0.3,1.1-0.5,1.8-0.5c0.8,0,1.5,0.2,2.1,0.7c0.5,0.5,0.8,1.1,0.9,1.9h-1.2c0-0.5-0.2-0.9-0.5-1.2c-0.3-0.3-0.7-0.5-1.2-0.5
			c-0.6,0-1.1,0.2-1.5,0.7c-0.4,0.5-0.5,1.1-0.5,2v0.2c0,0.9,0.2,1.5,0.5,2C685.8,151.8,686.3,152,687,152z"/>
		<path class="st11" d="M697.1,152c0.5,0,0.8-0.1,1.2-0.4c0.3-0.3,0.5-0.6,0.6-1h1.2c0,0.4-0.2,0.8-0.4,1.2
			c-0.3,0.4-0.6,0.7-1.1,0.9c-0.4,0.2-0.9,0.3-1.4,0.3c-1,0-1.8-0.3-2.4-1c-0.6-0.7-0.9-1.6-0.9-2.8V149c0-0.7,0.1-1.4,0.4-1.9
			c0.3-0.6,0.6-1,1.1-1.3c0.5-0.3,1.1-0.5,1.8-0.5c0.8,0,1.5,0.2,2.1,0.7c0.5,0.5,0.8,1.1,0.9,1.9h-1.2c0-0.5-0.2-0.9-0.5-1.2
			c-0.3-0.3-0.7-0.5-1.2-0.5c-0.6,0-1.1,0.2-1.5,0.7c-0.4,0.5-0.5,1.1-0.5,2v0.2c0,0.9,0.2,1.5,0.5,2
			C695.9,151.8,696.4,152,697.1,152z"/>
		<path class="st11" d="M702.7,146.4c0.6-0.7,1.3-1,2.2-1c1.6,0,2.4,0.9,2.4,2.6v4.9H706V148c0-0.5-0.1-0.9-0.4-1.2
			s-0.6-0.4-1.1-0.4c-0.4,0-0.8,0.1-1.1,0.3c-0.3,0.2-0.6,0.5-0.7,0.9v5.3h-1.3v-10.5h1.3V146.4z"/>
		<path class="st11" d="M717.1,144.9c0,0.8-0.2,1.4-0.5,1.7c-0.3,0.3-0.9,0.5-1.6,0.5v5.7h-1.2l0-0.7c-0.5,0.6-1.2,0.9-2.2,0.9
			c-0.8,0-1.4-0.2-1.8-0.7c-0.4-0.5-0.6-1.1-0.6-2v-4.8h1.3v4.8c0,1.1,0.5,1.7,1.4,1.7c1,0,1.6-0.4,1.9-1.1v-5.4h1.3v0.9
			c0.3,0,0.5-0.1,0.7-0.1c0.2-0.1,0.3-0.2,0.3-0.4c0.1-0.2,0.1-0.5,0.1-1H717.1z"/>
		<path class="st11" d="M717.5,149.1c0-0.7,0.1-1.4,0.4-2c0.3-0.6,0.7-1,1.2-1.3c0.5-0.3,1.1-0.5,1.7-0.5c0.9,0,1.7,0.3,2.3,0.9
			c0.3,0,0.6-0.2,0.7-0.4c0.1-0.2,0.2-0.6,0.2-1.2h1c0,1.3-0.5,2.1-1.4,2.3c0.3,0.6,0.5,1.3,0.5,2.1v0.2c0,0.7-0.1,1.4-0.4,1.9
			c-0.3,0.6-0.7,1-1.2,1.3c-0.5,0.3-1.1,0.5-1.8,0.5c-1,0-1.8-0.3-2.4-1C717.8,151.3,717.5,150.3,717.5,149.1L717.5,149.1z
			 M718.8,149.3c0,0.8,0.2,1.5,0.6,2c0.4,0.5,0.9,0.7,1.5,0.7c0.6,0,1.1-0.2,1.5-0.7c0.4-0.5,0.6-1.2,0.6-2v-0.1
			c0-0.8-0.2-1.5-0.6-2c-0.4-0.5-0.9-0.7-1.5-0.7c-0.6,0-1.1,0.2-1.5,0.7S718.8,148.3,718.8,149.3z"/>
		<path class="st11" d="M727,145.5l0,0.9c0.6-0.7,1.3-1.1,2.2-1.1c1.6,0,2.4,0.9,2.4,2.6v4.9h-1.3V148c0-0.5-0.1-0.9-0.4-1.2
			s-0.6-0.4-1.1-0.4c-0.4,0-0.8,0.1-1.1,0.3c-0.3,0.2-0.6,0.5-0.7,0.9v5.3h-1.3v-7.4H727z"/>
		<path class="st11" d="M733.3,149.1c0-1.2,0.3-2.1,0.8-2.8c0.5-0.7,1.2-1,2.1-1c0.9,0,1.6,0.3,2.1,1l0.1-0.8h1.2v7.2
			c0,1-0.3,1.7-0.9,2.3s-1.3,0.8-2.3,0.8c-0.5,0-1.1-0.1-1.6-0.3c-0.5-0.2-0.9-0.5-1.2-0.9l0.7-0.8c0.5,0.7,1.2,1,2,1
			c0.6,0,1.1-0.2,1.4-0.5c0.3-0.3,0.5-0.8,0.5-1.5v-0.6c-0.5,0.6-1.2,0.9-2.1,0.9c-0.9,0-1.6-0.3-2.1-1
			C733.5,151.3,733.3,150.3,733.3,149.1z M734.5,149.3c0,0.8,0.2,1.5,0.5,2c0.3,0.5,0.8,0.7,1.4,0.7c0.8,0,1.4-0.4,1.8-1.1v-3.4
			c-0.4-0.7-1-1.1-1.7-1.1c-0.6,0-1.1,0.2-1.4,0.7C734.7,147.6,734.5,148.3,734.5,149.3z"/>
		<path class="st11" d="M745.9,143.7v1.8h1.4v1h-1.4v4.6c0,0.3,0.1,0.5,0.2,0.7s0.3,0.2,0.6,0.2c0.1,0,0.3,0,0.6-0.1v1
			c-0.3,0.1-0.7,0.1-1,0.1c-0.6,0-1-0.2-1.3-0.5s-0.4-0.8-0.4-1.5v-4.6h-1.3v-1h1.3v-1.8H745.9z"/>
		<path class="st11" d="M752.3,146.6c-0.2,0-0.4,0-0.6,0c-0.8,0-1.4,0.4-1.7,1.1v5.3h-1.3v-7.4h1.2l0,0.9c0.4-0.7,1-1,1.8-1
			c0.2,0,0.4,0,0.6,0.1V146.6z"/>
		<path class="st11" d="M755,144.4l-1.1,0l-1.8-2h1.5L755,144.4z M754.9,152.9h-1.3v-7.4h1.3V152.9z"/>
		<path class="st11" d="M758.2,145.5l0,0.9c0.6-0.7,1.3-1.1,2.2-1.1c1.6,0,2.4,0.9,2.4,2.6v4.9h-1.3V148c0-0.5-0.1-0.9-0.4-1.2
			s-0.6-0.4-1.1-0.4c-0.4,0-0.8,0.1-1.1,0.3c-0.3,0.2-0.6,0.5-0.7,0.9v5.3H757v-7.4H758.2z"/>
		<path class="st11" d="M766,146.4c0.6-0.7,1.3-1,2.2-1c1.6,0,2.4,0.9,2.4,2.6v4.9h-1.3V148c0-0.5-0.1-0.9-0.4-1.2s-0.6-0.4-1.1-0.4
			c-0.4,0-0.8,0.1-1.1,0.3c-0.3,0.2-0.6,0.5-0.7,0.9v5.3h-1.3v-10.5h1.3V146.4z"/>
		<path class="st11" d="M776.8,152.9h-1.3v-10h1.3V152.9z"/>
		<path class="st11" d="M784.8,148.3h-4.3v3.5h5v1.1h-6.3v-10h6.3v1.1h-4.9v3.2h4.3V148.3z"/>
		<path class="st11" d="M786.9,154.9l-0.7-0.5c0.4-0.6,0.7-1.2,0.7-1.8v-1.1h1.2v1c0,0.5-0.1,0.9-0.3,1.4S787.2,154.6,786.9,154.9z"
			/>
		<path class="st11" d="M800.3,152.9H799v-4.6h-5v4.6h-1.3v-10h1.3v4.3h5v-4.3h1.3V152.9z"/>
		<path class="st11" d="M802.1,149.1c0-0.7,0.1-1.4,0.4-2c0.3-0.6,0.7-1,1.2-1.3c0.5-0.3,1.1-0.5,1.7-0.5c1,0,1.8,0.3,2.4,1
			s0.9,1.6,0.9,2.8v0.1c0,0.7-0.1,1.4-0.4,1.9c-0.3,0.6-0.7,1-1.2,1.3s-1.1,0.5-1.8,0.5c-1,0-1.8-0.3-2.4-1S802.1,150.3,802.1,149.1
			L802.1,149.1z M803.4,149.3c0,0.8,0.2,1.5,0.6,2c0.4,0.5,0.9,0.7,1.5,0.7c0.6,0,1.2-0.3,1.5-0.8c0.4-0.5,0.6-1.2,0.6-2.1
			c0-0.8-0.2-1.5-0.6-2c-0.4-0.5-0.9-0.8-1.5-0.8c-0.6,0-1.1,0.2-1.5,0.7S803.4,148.3,803.4,149.3z M804.7,154.6
			c0-0.2,0.1-0.4,0.2-0.5c0.1-0.1,0.3-0.2,0.6-0.2s0.4,0.1,0.6,0.2c0.1,0.1,0.2,0.3,0.2,0.5s-0.1,0.4-0.2,0.5
			c-0.1,0.1-0.3,0.2-0.6,0.2s-0.4-0.1-0.6-0.2C804.8,154.9,804.7,154.8,804.7,154.6z"/>
		<path class="st11" d="M813.4,152c0.5,0,0.8-0.1,1.2-0.4c0.3-0.3,0.5-0.6,0.6-1h1.2c0,0.4-0.2,0.8-0.4,1.2
			c-0.3,0.4-0.6,0.7-1.1,0.9c-0.4,0.2-0.9,0.3-1.4,0.3c-1,0-1.8-0.3-2.4-1c-0.6-0.7-0.9-1.6-0.9-2.8V149c0-0.7,0.1-1.4,0.4-1.9
			c0.3-0.6,0.6-1,1.1-1.3c0.5-0.3,1.1-0.5,1.8-0.5c0.8,0,1.5,0.2,2.1,0.7c0.5,0.5,0.8,1.1,0.9,1.9h-1.2c0-0.5-0.2-0.9-0.5-1.2
			c-0.3-0.3-0.7-0.5-1.2-0.5c-0.6,0-1.1,0.2-1.5,0.7c-0.4,0.5-0.5,1.1-0.5,2v0.2c0,0.9,0.2,1.5,0.5,2
			C812.3,151.8,812.8,152,813.4,152z"/>
		<path class="st11" d="M823,151.2l1.8-5.7h1.3l-2.7,7.4h-1l-2.7-7.4h1.3L823,151.2z"/>
		<path class="st11" d="M827.3,143.5c0-0.2,0.1-0.4,0.2-0.5c0.1-0.1,0.3-0.2,0.6-0.2s0.4,0.1,0.6,0.2c0.1,0.1,0.2,0.3,0.2,0.5
			s-0.1,0.4-0.2,0.5c-0.1,0.1-0.3,0.2-0.6,0.2s-0.4-0.1-0.6-0.2C827.4,143.9,827.3,143.7,827.3,143.5z M828.7,152.9h-1.3v-7.4h1.3
			V152.9z"/>
		<path class="st11" d="M833.8,153c-1,0-1.8-0.3-2.4-1c-0.6-0.7-0.9-1.5-0.9-2.6v-0.2c0-0.7,0.1-1.4,0.4-2c0.3-0.6,0.7-1,1.2-1.4
			c0.5-0.3,1-0.5,1.6-0.5c1,0,1.7,0.3,2.2,1s0.8,1.5,0.8,2.7v0.5h-5c0,0.7,0.2,1.3,0.6,1.8c0.4,0.4,0.9,0.7,1.6,0.7
			c0.4,0,0.8-0.1,1.1-0.3c0.3-0.2,0.6-0.4,0.8-0.7l0.8,0.6C836,152.5,835,153,833.8,153z M835.7,144.2L835.7,144.2l-1,0.1l-1-1.2
			l-1,1.2l-1,0v-0.1l1.7-1.9h0.8L835.7,144.2z M833.6,146.4c-0.5,0-0.9,0.2-1.3,0.6c-0.3,0.4-0.6,0.9-0.6,1.6h3.7v-0.1
			c0-0.6-0.2-1.1-0.5-1.5C834.6,146.6,834.2,146.4,833.6,146.4z"/>
		<path class="st11" d="M839.3,145.5l0,0.9c0.6-0.7,1.3-1.1,2.2-1.1c1.6,0,2.4,0.9,2.4,2.6v4.9h-1.3V148c0-0.5-0.1-0.9-0.4-1.2
			s-0.6-0.4-1.1-0.4c-0.4,0-0.8,0.1-1.1,0.3c-0.3,0.2-0.6,0.5-0.7,0.9v5.3h-1.3v-7.4H839.3z"/>
		<path class="st11" d="M851.6,152c0.5,0,0.8-0.1,1.2-0.4c0.3-0.3,0.5-0.6,0.6-1h1.2c0,0.4-0.2,0.8-0.4,1.2
			c-0.3,0.4-0.6,0.7-1.1,0.9c-0.4,0.2-0.9,0.3-1.4,0.3c-1,0-1.8-0.3-2.4-1c-0.6-0.7-0.9-1.6-0.9-2.8V149c0-0.7,0.1-1.4,0.4-1.9
			c0.3-0.6,0.6-1,1.1-1.3c0.5-0.3,1.1-0.5,1.8-0.5c0.8,0,1.5,0.2,2.1,0.7c0.5,0.5,0.8,1.1,0.9,1.9h-1.2c0-0.5-0.2-0.9-0.5-1.2
			c-0.3-0.3-0.7-0.5-1.2-0.5c-0.6,0-1.1,0.2-1.5,0.7c-0.4,0.5-0.5,1.1-0.5,2v0.2c0,0.9,0.2,1.5,0.5,2C850.5,151.8,851,152,851.6,152
			z"/>
		<path class="st11" d="M855.6,149.1c0-0.7,0.1-1.4,0.4-2c0.3-0.6,0.7-1,1.2-1.3c0.5-0.3,1.1-0.5,1.7-0.5c1,0,1.8,0.3,2.4,1
			s0.9,1.6,0.9,2.8v0.1c0,0.7-0.1,1.4-0.4,1.9c-0.3,0.6-0.7,1-1.2,1.3s-1.1,0.5-1.8,0.5c-1,0-1.8-0.3-2.4-1S855.6,150.3,855.6,149.1
			L855.6,149.1z M856.9,149.3c0,0.8,0.2,1.5,0.6,2c0.4,0.5,0.9,0.7,1.5,0.7c0.6,0,1.2-0.3,1.5-0.8c0.4-0.5,0.6-1.2,0.6-2.1
			c0-0.8-0.2-1.5-0.6-2c-0.4-0.5-0.9-0.8-1.5-0.8c-0.6,0-1.1,0.2-1.5,0.7S856.9,148.3,856.9,149.3z M859.6,142.4h1.5l-1.8,2l-1,0
			L859.6,142.4z"/>
		<path class="st11" d="M868.5,143.7v1.8h1.4v1h-1.4v4.6c0,0.3,0.1,0.5,0.2,0.7s0.3,0.2,0.6,0.2c0.1,0,0.3,0,0.6-0.1v1
			c-0.3,0.1-0.7,0.1-1,0.1c-0.6,0-1-0.2-1.3-0.5s-0.4-0.8-0.4-1.5v-4.6h-1.3v-1h1.3v-1.8H868.5z"/>
		<path class="st11" d="M872.6,146.4c0.6-0.7,1.3-1,2.2-1c1.6,0,2.4,0.9,2.4,2.6v4.9h-1.3V148c0-0.5-0.1-0.9-0.4-1.2
			s-0.6-0.4-1.1-0.4c-0.4,0-0.8,0.1-1.1,0.3c-0.3,0.2-0.6,0.5-0.7,0.9v5.3h-1.3v-10.5h1.3V146.4z"/>
		<path class="st11" d="M882.1,153c-1,0-1.8-0.3-2.4-1c-0.6-0.7-0.9-1.5-0.9-2.6v-0.2c0-0.7,0.1-1.4,0.4-2c0.3-0.6,0.7-1,1.2-1.4
			c0.5-0.3,1-0.5,1.6-0.5c1,0,1.7,0.3,2.2,1s0.8,1.5,0.8,2.7v0.5h-5c0,0.7,0.2,1.3,0.6,1.8c0.4,0.4,0.9,0.7,1.6,0.7
			c0.4,0,0.8-0.1,1.1-0.3c0.3-0.2,0.6-0.4,0.8-0.7l0.8,0.6C884.3,152.5,883.3,153,882.1,153z M884.4,144.5l-1.2,0l-1.3-1.3l-1.3,1.3
			l-1.2,0l1.9-1.8h1.3L884.4,144.5z M881.9,146.4c-0.5,0-0.9,0.2-1.3,0.6c-0.3,0.4-0.6,0.9-0.6,1.6h3.7v-0.1c0-0.6-0.2-1.1-0.5-1.5
			C882.9,146.6,882.5,146.4,881.9,146.4z M883.9,143.6l0-0.9c0.3,0,0.5-0.1,0.6-0.1c0.1-0.1,0.2-0.2,0.2-0.3c0-0.3-0.3-0.5-1-0.5
			l0-0.6c0.6,0,1,0.1,1.3,0.3c0.3,0.2,0.5,0.5,0.5,0.8c0,0.3-0.1,0.5-0.3,0.6c-0.2,0.2-0.4,0.2-0.7,0.3l0,0.4H883.9z"/>
		<path class="st11" d="M890.9,143.7v1.8h1.4v1h-1.4v4.6c0,0.3,0.1,0.5,0.2,0.7s0.3,0.2,0.6,0.2c0.1,0,0.3,0,0.6-0.1v1
			c-0.3,0.1-0.7,0.1-1,0.1c-0.6,0-1-0.2-1.3-0.5s-0.4-0.8-0.4-1.5v-4.6h-1.3v-1h1.3v-1.8H890.9z"/>
		<path class="st11" d="M893.8,143.5c0-0.2,0.1-0.4,0.2-0.5c0.1-0.1,0.3-0.2,0.6-0.2s0.4,0.1,0.6,0.2c0.1,0.1,0.2,0.3,0.2,0.5
			s-0.1,0.4-0.2,0.5c-0.1,0.1-0.3,0.2-0.6,0.2s-0.4-0.1-0.6-0.2C893.9,143.9,893.8,143.7,893.8,143.5z M895.2,152.9h-1.3v-7.4h1.3
			V152.9z"/>
		<path class="st11" d="M900.3,153c-1,0-1.8-0.3-2.4-1c-0.6-0.7-0.9-1.5-0.9-2.6v-0.2c0-0.7,0.1-1.4,0.4-2c0.3-0.6,0.7-1,1.2-1.4
			c0.5-0.3,1-0.5,1.6-0.5c1,0,1.7,0.3,2.2,1s0.8,1.5,0.8,2.7v0.5h-5c0,0.7,0.2,1.3,0.6,1.8c0.4,0.4,0.9,0.7,1.6,0.7
			c0.4,0,0.8-0.1,1.1-0.3c0.3-0.2,0.6-0.4,0.8-0.7l0.8,0.6C902.4,152.5,901.5,153,900.3,153z M899.6,142.6h1l2,1.8l-1.3,0l-1.2-1.1
			l-1.2,1.1l-1.4,0L899.6,142.6z M900.1,146.4c-0.5,0-0.9,0.2-1.3,0.6c-0.3,0.4-0.6,0.9-0.6,1.6h3.7v-0.1c0-0.6-0.2-1.1-0.5-1.5
			C901.1,146.6,900.6,146.4,900.1,146.4z M903.1,141.4h1.4l-1.4,1.8l-1,0L903.1,141.4z"/>
		<path class="st11" d="M910.9,149.3c0,1.1-0.3,2-0.8,2.7c-0.5,0.7-1.2,1-2.1,1c-0.9,0-1.6-0.3-2.1-0.9v3.6h-1.3v-10.2h1.2l0.1,0.8
			c0.5-0.6,1.2-1,2.1-1c0.9,0,1.6,0.3,2.1,1c0.5,0.7,0.8,1.6,0.8,2.8V149.3z M909.6,149.1c0-0.8-0.2-1.5-0.5-2s-0.8-0.7-1.5-0.7
			c-0.8,0-1.3,0.3-1.7,1v3.5c0.4,0.7,1,1,1.7,1c0.6,0,1.1-0.2,1.4-0.7C909.4,150.8,909.6,150.1,909.6,149.1z"/>
		<path class="st11" d="M917,143.7v1.8h1.4v1H917v4.6c0,0.3,0.1,0.5,0.2,0.7s0.3,0.2,0.6,0.2c0.1,0,0.3,0,0.6-0.1v1
			c-0.3,0.1-0.7,0.1-1,0.1c-0.6,0-1-0.2-1.3-0.5s-0.4-0.8-0.4-1.5v-4.6h-1.3v-1h1.3v-1.8H917z"/>
		<path class="st11" d="M924.4,152.1c-0.5,0.6-1.2,0.9-2.2,0.9c-0.8,0-1.4-0.2-1.8-0.7c-0.4-0.5-0.6-1.1-0.6-2v-4.8h1.3v4.8
			c0,1.1,0.5,1.7,1.4,1.7c1,0,1.6-0.4,1.9-1.1v-5.4h1.3v7.4h-1.2L924.4,152.1z M921.6,154.6c0-0.2,0.1-0.4,0.2-0.5
			c0.1-0.1,0.3-0.2,0.6-0.2s0.4,0.1,0.6,0.2c0.1,0.1,0.2,0.3,0.2,0.5s-0.1,0.4-0.2,0.5c-0.1,0.1-0.3,0.2-0.6,0.2s-0.4-0.1-0.6-0.2
			C921.6,154.9,921.6,154.8,921.6,154.6z"/>
		<path class="st11" d="M930.5,152c0.5,0,0.8-0.1,1.2-0.4c0.3-0.3,0.5-0.6,0.6-1h1.2c0,0.4-0.2,0.8-0.4,1.2
			c-0.3,0.4-0.6,0.7-1.1,0.9c-0.4,0.2-0.9,0.3-1.4,0.3c-1,0-1.8-0.3-2.4-1c-0.6-0.7-0.9-1.6-0.9-2.8V149c0-0.7,0.1-1.4,0.4-1.9
			c0.3-0.6,0.6-1,1.1-1.3c0.5-0.3,1.1-0.5,1.8-0.5c0.8,0,1.5,0.2,2.1,0.7c0.5,0.5,0.8,1.1,0.9,1.9h-1.2c0-0.5-0.2-0.9-0.5-1.2
			c-0.3-0.3-0.7-0.5-1.2-0.5c-0.6,0-1.1,0.2-1.5,0.7c-0.4,0.5-0.5,1.1-0.5,2v0.2c0,0.9,0.2,1.5,0.5,2
			C929.4,151.8,929.9,152,930.5,152z"/>
		<path class="st11" d="M940.6,152c0.5,0,0.8-0.1,1.2-0.4c0.3-0.3,0.5-0.6,0.6-1h1.2c0,0.4-0.2,0.8-0.4,1.2
			c-0.3,0.4-0.6,0.7-1.1,0.9c-0.4,0.2-0.9,0.3-1.4,0.3c-1,0-1.8-0.3-2.4-1c-0.6-0.7-0.9-1.6-0.9-2.8V149c0-0.7,0.1-1.4,0.4-1.9
			c0.3-0.6,0.6-1,1.1-1.3c0.5-0.3,1.1-0.5,1.8-0.5c0.8,0,1.5,0.2,2.1,0.7c0.5,0.5,0.8,1.1,0.9,1.9h-1.2c0-0.5-0.2-0.9-0.5-1.2
			c-0.3-0.3-0.7-0.5-1.2-0.5c-0.6,0-1.1,0.2-1.5,0.7c-0.4,0.5-0.5,1.1-0.5,2v0.2c0,0.9,0.2,1.5,0.5,2C939.5,151.8,940,152,940.6,152
			z"/>
		<path class="st11" d="M946.2,146.4c0.6-0.7,1.3-1,2.2-1c1.6,0,2.4,0.9,2.4,2.6v4.9h-1.3V148c0-0.5-0.1-0.9-0.4-1.2
			s-0.6-0.4-1.1-0.4c-0.4,0-0.8,0.1-1.1,0.3c-0.3,0.2-0.6,0.5-0.7,0.9v5.3H945v-10.5h1.3V146.4z"/>
		<path class="st11" d="M960.6,144.9c0,0.8-0.2,1.4-0.5,1.7c-0.3,0.3-0.9,0.5-1.6,0.5v5.7h-1.2l0-0.7c-0.5,0.6-1.2,0.9-2.2,0.9
			c-0.8,0-1.4-0.2-1.8-0.7c-0.4-0.5-0.6-1.1-0.6-2v-4.8h1.3v4.8c0,1.1,0.5,1.7,1.4,1.7c1,0,1.6-0.4,1.9-1.1v-5.4h1.3v0.9
			c0.3,0,0.5-0.1,0.7-0.1c0.2-0.1,0.3-0.2,0.3-0.4c0.1-0.2,0.1-0.5,0.1-1H960.6z"/>
		<path class="st11" d="M961,149.1c0-0.7,0.1-1.4,0.4-2c0.3-0.6,0.7-1,1.2-1.3c0.5-0.3,1.1-0.5,1.7-0.5c0.9,0,1.7,0.3,2.3,0.9
			c0.3,0,0.6-0.2,0.7-0.4c0.1-0.2,0.2-0.6,0.2-1.2h1c0,1.3-0.5,2.1-1.4,2.3c0.3,0.6,0.5,1.3,0.5,2.1v0.2c0,0.7-0.1,1.4-0.4,1.9
			c-0.3,0.6-0.7,1-1.2,1.3c-0.5,0.3-1.1,0.5-1.8,0.5c-1,0-1.8-0.3-2.4-1C961.3,151.3,961,150.3,961,149.1L961,149.1z M962.3,149.3
			c0,0.8,0.2,1.5,0.6,2c0.4,0.5,0.9,0.7,1.5,0.7c0.6,0,1.1-0.2,1.5-0.7c0.4-0.5,0.6-1.2,0.6-2v-0.1c0-0.8-0.2-1.5-0.6-2
			c-0.4-0.5-0.9-0.7-1.5-0.7c-0.6,0-1.1,0.2-1.5,0.7S962.3,148.3,962.3,149.3z"/>
		<path class="st11" d="M970.5,145.5l0,0.9c0.6-0.7,1.3-1.1,2.2-1.1c1.6,0,2.4,0.9,2.4,2.6v4.9h-1.3V148c0-0.5-0.1-0.9-0.4-1.2
			s-0.6-0.4-1.1-0.4c-0.4,0-0.8,0.1-1.1,0.3c-0.3,0.2-0.6,0.5-0.7,0.9v5.3h-1.3v-7.4H970.5z"/>
		<path class="st11" d="M976.8,149.1c0-1.2,0.3-2.1,0.8-2.8c0.5-0.7,1.2-1,2.1-1c0.9,0,1.6,0.3,2.1,1l0.1-0.8h1.2v7.2
			c0,1-0.3,1.7-0.9,2.3s-1.3,0.8-2.3,0.8c-0.5,0-1.1-0.1-1.6-0.3c-0.5-0.2-0.9-0.5-1.2-0.9l0.7-0.8c0.5,0.7,1.2,1,2,1
			c0.6,0,1.1-0.2,1.4-0.5c0.3-0.3,0.5-0.8,0.5-1.5v-0.6c-0.5,0.6-1.2,0.9-2.1,0.9c-0.9,0-1.6-0.3-2.1-1
			C977,151.3,976.8,150.3,976.8,149.1z M978,149.3c0,0.8,0.2,1.5,0.5,2c0.3,0.5,0.8,0.7,1.4,0.7c0.8,0,1.4-0.4,1.8-1.1v-3.4
			c-0.4-0.7-1-1.1-1.7-1.1c-0.6,0-1.1,0.2-1.4,0.7C978.2,147.6,978,148.3,978,149.3z"/>
		<path class="st11" d="M989.4,143.7v1.8h1.4v1h-1.4v4.6c0,0.3,0.1,0.5,0.2,0.7s0.3,0.2,0.6,0.2c0.1,0,0.3,0,0.6-0.1v1
			c-0.3,0.1-0.7,0.1-1,0.1c-0.6,0-1-0.2-1.3-0.5s-0.4-0.8-0.4-1.5v-4.6h-1.3v-1h1.3v-1.8H989.4z"/>
		<path class="st11" d="M995.9,146.6c-0.2,0-0.4,0-0.6,0c-0.8,0-1.4,0.4-1.7,1.1v5.3h-1.3v-7.4h1.2l0,0.9c0.4-0.7,1-1,1.8-1
			c0.2,0,0.4,0,0.6,0.1V146.6z"/>
		<path class="st11" d="M998.5,144.4l-1.1,0l-1.8-2h1.5L998.5,144.4z M998.4,152.9h-1.3v-7.4h1.3V152.9z"/>
		<path class="st11" d="M1001.7,145.5l0,0.9c0.6-0.7,1.3-1.1,2.2-1.1c1.6,0,2.4,0.9,2.4,2.6v4.9h-1.3V148c0-0.5-0.1-0.9-0.4-1.2
			s-0.6-0.4-1.1-0.4c-0.4,0-0.8,0.1-1.1,0.3c-0.3,0.2-0.6,0.5-0.7,0.9v5.3h-1.3v-7.4H1001.7z"/>
		<path class="st11" d="M1009.5,146.4c0.6-0.7,1.3-1,2.2-1c1.6,0,2.4,0.9,2.4,2.6v4.9h-1.3V148c0-0.5-0.1-0.9-0.4-1.2
			s-0.6-0.4-1.1-0.4c-0.4,0-0.8,0.1-1.1,0.3c-0.3,0.2-0.6,0.5-0.7,0.9v5.3h-1.3v-10.5h1.3V146.4z"/>
		<path class="st11" d="M642.2,168.6h4.7v1.1h-6v-10h1.3V168.6z"/>
		<path class="st11" d="M652.4,168.9c-0.5,0.6-1.2,0.9-2.2,0.9c-0.8,0-1.4-0.2-1.8-0.7c-0.4-0.5-0.6-1.1-0.6-2v-4.8h1.3v4.8
			c0,1.1,0.5,1.7,1.4,1.7c1,0,1.6-0.4,1.9-1.1v-5.4h1.3v7.4h-1.2L652.4,168.9z"/>
		<path class="st11" d="M658,167.8l1.7-5.5h1.4l-3,8.5c-0.5,1.2-1.2,1.8-2.2,1.8l-0.2,0l-0.5-0.1v-1l0.3,0c0.4,0,0.8-0.1,1-0.3
			s0.4-0.5,0.6-1l0.3-0.8l-2.6-7.3h1.4L658,167.8z"/>
		<path class="st11" d="M665.2,169.8c-1,0-1.8-0.3-2.4-1c-0.6-0.7-0.9-1.5-0.9-2.6V166c0-0.7,0.1-1.4,0.4-2c0.3-0.6,0.7-1,1.2-1.4
			c0.5-0.3,1-0.5,1.6-0.5c1,0,1.7,0.3,2.2,1s0.8,1.5,0.8,2.7v0.5h-5c0,0.7,0.2,1.3,0.6,1.8c0.4,0.4,0.9,0.7,1.6,0.7
			c0.4,0,0.8-0.1,1.1-0.3c0.3-0.2,0.6-0.4,0.8-0.7l0.8,0.6C667.4,169.3,666.4,169.8,665.2,169.8z M667.1,161L667.1,161l-1,0.1
			l-1-1.2l-1,1.2l-1,0V161l1.7-1.9h0.8L667.1,161z M665,163.2c-0.5,0-0.9,0.2-1.3,0.6c-0.3,0.4-0.6,0.9-0.6,1.6h3.7v-0.1
			c0-0.6-0.2-1.1-0.5-1.5C666,163.4,665.6,163.2,665,163.2z M664.3,171.4c0-0.2,0.1-0.4,0.2-0.5c0.1-0.1,0.3-0.2,0.6-0.2
			s0.4,0.1,0.6,0.2c0.1,0.1,0.2,0.3,0.2,0.5s-0.1,0.4-0.2,0.5c-0.1,0.1-0.3,0.2-0.6,0.2s-0.4-0.1-0.6-0.2
			C664.3,171.7,664.3,171.6,664.3,171.4z"/>
		<path class="st11" d="M670.7,162.3l0,0.9c0.6-0.7,1.3-1.1,2.2-1.1c1.6,0,2.4,0.9,2.4,2.6v4.9h-1.3v-4.9c0-0.5-0.1-0.9-0.4-1.2
			s-0.6-0.4-1.1-0.4c-0.4,0-0.8,0.1-1.1,0.3c-0.3,0.2-0.6,0.5-0.7,0.9v5.3h-1.3v-7.4H670.7z"/>
		<path class="st11" d="M682.5,160.5v1.8h1.4v1h-1.4v4.6c0,0.3,0.1,0.5,0.2,0.7s0.3,0.2,0.6,0.2c0.1,0,0.3,0,0.6-0.1v1
			c-0.3,0.1-0.7,0.1-1,0.1c-0.6,0-1-0.2-1.3-0.5s-0.4-0.8-0.4-1.5v-4.6h-1.3v-1h1.3v-1.8H682.5z"/>
		<path class="st11" d="M686.6,163.2c0.6-0.7,1.3-1,2.2-1c1.6,0,2.4,0.9,2.4,2.6v4.9h-1.3v-4.9c0-0.5-0.1-0.9-0.4-1.2
			s-0.6-0.4-1.1-0.4c-0.4,0-0.8,0.1-1.1,0.3c-0.3,0.2-0.6,0.5-0.7,0.9v5.3h-1.3v-10.5h1.3V163.2z"/>
		<path class="st11" d="M693,160.3c0-0.2,0.1-0.4,0.2-0.5c0.1-0.1,0.3-0.2,0.6-0.2s0.4,0.1,0.6,0.2c0.1,0.1,0.2,0.3,0.2,0.5
			s-0.1,0.4-0.2,0.5c-0.1,0.1-0.3,0.2-0.6,0.2s-0.4-0.1-0.6-0.2C693.1,160.7,693,160.5,693,160.3z M694.4,169.7h-1.3v-7.4h1.3V169.7
			z"/>
		<path class="st11" d="M707.7,165c0,1-0.2,1.8-0.5,2.5c-0.3,0.7-0.7,1.2-1.3,1.6l1.8,1.4l-0.9,0.8l-2.1-1.7c-0.3,0.1-0.7,0.1-1,0.1
			c-0.8,0-1.5-0.2-2.1-0.6c-0.6-0.4-1.1-0.9-1.4-1.6c-0.3-0.7-0.5-1.5-0.5-2.5v-0.7c0-1,0.2-1.8,0.5-2.5c0.3-0.7,0.8-1.3,1.4-1.7
			c0.6-0.4,1.3-0.6,2.1-0.6c0.8,0,1.5,0.2,2.1,0.6s1.1,0.9,1.4,1.7c0.3,0.7,0.5,1.6,0.5,2.5V165z M706.4,164.4
			c0-1.2-0.2-2.1-0.7-2.7c-0.5-0.6-1.1-1-2-1c-0.8,0-1.5,0.3-2,0.9c-0.5,0.6-0.7,1.5-0.7,2.6v0.7c0,1.1,0.2,2,0.7,2.7
			c0.5,0.7,1.1,1,2,1s1.5-0.3,2-0.9c0.5-0.6,0.7-1.5,0.7-2.7V164.4z"/>
		<path class="st11" d="M714.1,168.9c-0.5,0.6-1.2,0.9-2.2,0.9c-0.8,0-1.4-0.2-1.8-0.7c-0.4-0.5-0.6-1.1-0.6-2v-4.8h1.3v4.8
			c0,1.1,0.5,1.7,1.4,1.7c1,0,1.6-0.4,1.9-1.1v-5.4h1.3v7.4h-1.2L714.1,168.9z"/>
		<path class="st11" d="M716.9,165.9c0-0.7,0.1-1.4,0.4-2c0.3-0.6,0.7-1,1.2-1.3c0.5-0.3,1.1-0.5,1.7-0.5c1,0,1.8,0.3,2.4,1
			s0.9,1.6,0.9,2.8v0.1c0,0.7-0.1,1.4-0.4,1.9c-0.3,0.6-0.7,1-1.2,1.3s-1.1,0.5-1.8,0.5c-1,0-1.8-0.3-2.4-1S716.9,167.1,716.9,165.9
			L716.9,165.9z M719.7,159.4h1l2,1.8l-1.3,0l-1.2-1.1l-1.2,1.1l-1.4,0L719.7,159.4z M718.2,166.1c0,0.8,0.2,1.5,0.6,2
			c0.4,0.5,0.9,0.7,1.5,0.7c0.6,0,1.2-0.3,1.5-0.8c0.4-0.5,0.6-1.2,0.6-2.1c0-0.8-0.2-1.5-0.6-2c-0.4-0.5-0.9-0.8-1.5-0.8
			c-0.6,0-1.1,0.2-1.5,0.7S718.2,165.1,718.2,166.1z M723.2,158.2h1.4l-1.4,1.8l-1,0L723.2,158.2z"/>
		<path class="st11" d="M728.2,168.8c0.5,0,0.8-0.1,1.2-0.4c0.3-0.3,0.5-0.6,0.6-1h1.2c0,0.4-0.2,0.8-0.4,1.2
			c-0.3,0.4-0.6,0.7-1.1,0.9c-0.4,0.2-0.9,0.3-1.4,0.3c-1,0-1.8-0.3-2.4-1c-0.6-0.7-0.9-1.6-0.9-2.8v-0.2c0-0.7,0.1-1.4,0.4-1.9
			c0.3-0.6,0.6-1,1.1-1.3c0.5-0.3,1.1-0.5,1.8-0.5c0.8,0,1.5,0.2,2.1,0.7c0.5,0.5,0.8,1.1,0.9,1.9h-1.2c0-0.5-0.2-0.9-0.5-1.2
			c-0.3-0.3-0.7-0.5-1.2-0.5c-0.6,0-1.1,0.2-1.5,0.7c-0.4,0.5-0.5,1.1-0.5,2v0.2c0,0.9,0.2,1.5,0.5,2
			C727,168.5,727.5,168.8,728.2,168.8z"/>
		<path class="st11" d="M742.8,160.8h-3.2v8.9h-1.3v-8.9h-3.2v-1.1h7.7V160.8z"/>
		<path class="st11" d="M746.5,169.8c-1,0-1.8-0.3-2.4-1c-0.6-0.7-0.9-1.5-0.9-2.6V166c0-0.7,0.1-1.4,0.4-2c0.3-0.6,0.7-1,1.2-1.4
			c0.5-0.3,1-0.5,1.6-0.5c1,0,1.7,0.3,2.2,1s0.8,1.5,0.8,2.7v0.5h-5c0,0.7,0.2,1.3,0.6,1.8c0.4,0.4,0.9,0.7,1.6,0.7
			c0.4,0,0.8-0.1,1.1-0.3c0.3-0.2,0.6-0.4,0.8-0.7l0.8,0.6C748.7,169.3,747.7,169.8,746.5,169.8z M745.8,159.4h1l2,1.8l-1.3,0
			l-1.2-1.1l-1.2,1.1l-1.4,0L745.8,159.4z M746.3,163.2c-0.5,0-0.9,0.2-1.3,0.6c-0.3,0.4-0.6,0.9-0.6,1.6h3.7v-0.1
			c0-0.6-0.2-1.1-0.5-1.5C747.3,163.4,746.9,163.2,746.3,163.2z M749.3,158.2h1.4l-1.4,1.8l-1,0L749.3,158.2z"/>
		<path class="st11" d="M761.5,161.2h-1.3v8.4h-1.2l-0.1-0.8c-0.5,0.6-1.2,0.9-2.1,0.9c-0.9,0-1.6-0.4-2.1-1.1s-0.8-1.6-0.8-2.7
			v-0.1c0-1.1,0.3-2,0.8-2.7c0.5-0.7,1.2-1,2.1-1c0.9,0,1.6,0.3,2.1,0.9v-1.8h-1.8v-1h1.8v-1h1.3v1h1.3V161.2z M755.3,166.1
			c0,0.8,0.2,1.5,0.5,2c0.3,0.5,0.8,0.7,1.4,0.7c0.8,0,1.4-0.4,1.8-1.1v-3.4c-0.4-0.7-1-1-1.7-1c-0.6,0-1.1,0.2-1.4,0.7
			C755.4,164.4,755.3,165.1,755.3,166.1z"/>
		<path class="st11" d="M765.7,169.8c-1,0-1.8-0.3-2.4-1c-0.6-0.7-0.9-1.5-0.9-2.6V166c0-0.7,0.1-1.4,0.4-2c0.3-0.6,0.7-1,1.2-1.4
			c0.5-0.3,1-0.5,1.6-0.5c1,0,1.7,0.3,2.2,1s0.8,1.5,0.8,2.7v0.5h-5c0,0.7,0.2,1.3,0.6,1.8c0.4,0.4,0.9,0.7,1.6,0.7
			c0.4,0,0.8-0.1,1.1-0.3c0.3-0.2,0.6-0.4,0.8-0.7l0.8,0.6C767.9,169.3,767,169.8,765.7,169.8z M768.1,161.3l-1.2,0l-1.3-1.3
			l-1.3,1.3l-1.2,0l1.9-1.8h1.3L768.1,161.3z M765.6,163.2c-0.5,0-0.9,0.2-1.3,0.6c-0.3,0.4-0.6,0.9-0.6,1.6h3.7v-0.1
			c0-0.6-0.2-1.1-0.5-1.5C766.5,163.4,766.1,163.2,765.6,163.2z M767.5,160.4l0-0.9c0.3,0,0.5-0.1,0.6-0.1c0.1-0.1,0.2-0.2,0.2-0.3
			c0-0.3-0.3-0.5-1-0.5l0-0.6c0.6,0,1,0.1,1.3,0.3c0.3,0.2,0.5,0.5,0.5,0.8c0,0.3-0.1,0.5-0.3,0.6c-0.2,0.2-0.4,0.2-0.7,0.3l0,0.4
			H767.5z"/>
		<path class="st11" d="M774.9,169.7h-1.3v-10.5h1.3V169.7z"/>
		<path class="st11" d="M781.5,169.7c-0.1-0.1-0.1-0.4-0.2-0.8c-0.6,0.6-1.3,0.9-2.1,0.9c-0.7,0-1.3-0.2-1.8-0.6
			c-0.5-0.4-0.7-0.9-0.7-1.6c0-0.8,0.3-1.4,0.9-1.8c0.6-0.4,1.4-0.6,2.5-0.6h1.2v-0.6c0-0.4-0.1-0.8-0.4-1.1
			c-0.3-0.3-0.7-0.4-1.2-0.4c-0.5,0-0.8,0.1-1.1,0.3c-0.3,0.2-0.5,0.5-0.5,0.8h-1.3c0-0.4,0.1-0.7,0.4-1.1c0.3-0.3,0.6-0.6,1.1-0.8
			c0.4-0.2,0.9-0.3,1.5-0.3c0.9,0,1.5,0.2,2,0.6c0.5,0.4,0.7,1,0.8,1.8v3.4c0,0.7,0.1,1.2,0.3,1.6v0.1H781.5z M779.4,159.4h1l2,1.8
			l-1.3,0l-1.2-1.1l-1.2,1.1l-1.4,0L779.4,159.4z M779.4,168.7c0.4,0,0.8-0.1,1.1-0.3s0.6-0.5,0.8-0.8v-1.5h-1
			c-1.5,0-2.3,0.5-2.3,1.4c0,0.4,0.1,0.7,0.4,0.9C778.7,168.6,779,168.7,779.4,168.7z M782.9,158.2h1.4l-1.4,1.8l-1,0L782.9,158.2z"
			/>
		<path class="st11" d="M786.9,167.8l1.7-5.5h1.4l-3,8.5c-0.5,1.2-1.2,1.8-2.2,1.8l-0.2,0l-0.5-0.1v-1l0.3,0c0.4,0,0.8-0.1,1-0.3
			s0.4-0.5,0.6-1l0.3-0.8l-2.6-7.3h1.4L786.9,167.8z"/>
		<path class="st11" d="M797.5,168.8c0.5,0,0.8-0.1,1.2-0.4c0.3-0.3,0.5-0.6,0.6-1h1.2c0,0.4-0.2,0.8-0.4,1.2
			c-0.3,0.4-0.6,0.7-1.1,0.9c-0.4,0.2-0.9,0.3-1.4,0.3c-1,0-1.8-0.3-2.4-1c-0.6-0.7-0.9-1.6-0.9-2.8v-0.2c0-0.7,0.1-1.4,0.4-1.9
			c0.3-0.6,0.6-1,1.1-1.3c0.5-0.3,1.1-0.5,1.8-0.5c0.8,0,1.5,0.2,2.1,0.7c0.5,0.5,0.8,1.1,0.9,1.9h-1.2c0-0.5-0.2-0.9-0.5-1.2
			c-0.3-0.3-0.7-0.5-1.2-0.5c-0.6,0-1.1,0.2-1.5,0.7c-0.4,0.5-0.5,1.1-0.5,2v0.2c0,0.9,0.2,1.5,0.5,2
			C796.4,168.5,796.9,168.8,797.5,168.8z"/>
		<path class="st11" d="M803.1,163.2c0.6-0.7,1.3-1,2.2-1c1.6,0,2.4,0.9,2.4,2.6v4.9h-1.3v-4.9c0-0.5-0.1-0.9-0.4-1.2
			s-0.6-0.4-1.1-0.4c-0.4,0-0.8,0.1-1.1,0.3c-0.3,0.2-0.6,0.5-0.7,0.9v5.3h-1.3v-10.5h1.3V163.2z"/>
		<path class="st11" d="M817.5,161.7c0,0.8-0.2,1.4-0.5,1.7c-0.3,0.3-0.9,0.5-1.6,0.5v5.7h-1.2l0-0.7c-0.5,0.6-1.2,0.9-2.2,0.9
			c-0.8,0-1.4-0.2-1.8-0.7c-0.4-0.5-0.6-1.1-0.6-2v-4.8h1.3v4.8c0,1.1,0.5,1.7,1.4,1.7c1,0,1.6-0.4,1.9-1.1v-5.4h1.3v0.9
			c0.3,0,0.5-0.1,0.7-0.1c0.2-0.1,0.3-0.2,0.3-0.4c0.1-0.2,0.1-0.5,0.1-1H817.5z M813.2,159.3h1.5l-1.8,2l-1,0L813.2,159.3z"/>
		<path class="st11" d="M819.4,162.3l0,0.9c0.6-0.7,1.3-1.1,2.2-1.1c1.6,0,2.4,0.9,2.4,2.6v4.9h-1.3v-4.9c0-0.5-0.1-0.9-0.4-1.2
			s-0.6-0.4-1.1-0.4c-0.4,0-0.8,0.1-1.1,0.3c-0.3,0.2-0.6,0.5-0.7,0.9v5.3h-1.3v-7.4H819.4z"/>
		<path class="st11" d="M825.7,165.9c0-1.2,0.3-2.1,0.8-2.8c0.5-0.7,1.2-1,2.1-1c0.9,0,1.6,0.3,2.1,1l0.1-0.8h1.2v7.2
			c0,1-0.3,1.7-0.9,2.3s-1.3,0.8-2.3,0.8c-0.5,0-1.1-0.1-1.6-0.3c-0.5-0.2-0.9-0.5-1.2-0.9l0.7-0.8c0.5,0.7,1.2,1,2,1
			c0.6,0,1.1-0.2,1.4-0.5c0.3-0.3,0.5-0.8,0.5-1.5v-0.6c-0.5,0.6-1.2,0.9-2.1,0.9c-0.9,0-1.6-0.3-2.1-1
			C825.9,168.1,825.7,167.1,825.7,165.9z M826.9,166.1c0,0.8,0.2,1.5,0.5,2c0.3,0.5,0.8,0.7,1.4,0.7c0.8,0,1.4-0.4,1.8-1.1v-3.4
			c-0.4-0.7-1-1.1-1.7-1.1c-0.6,0-1.1,0.2-1.4,0.7C827.1,164.4,826.9,165.1,826.9,166.1z"/>
		<path class="st11" d="M840.3,168.8c0.5,0,0.8-0.1,1.2-0.4c0.3-0.3,0.5-0.6,0.6-1h1.2c0,0.4-0.2,0.8-0.4,1.2
			c-0.3,0.4-0.6,0.7-1.1,0.9c-0.4,0.2-0.9,0.3-1.4,0.3c-1,0-1.8-0.3-2.4-1c-0.6-0.7-0.9-1.6-0.9-2.8v-0.2c0-0.7,0.1-1.4,0.4-1.9
			c0.3-0.6,0.6-1,1.1-1.3c0.5-0.3,1.1-0.5,1.8-0.5c0.8,0,1.5,0.2,2.1,0.7c0.5,0.5,0.8,1.1,0.9,1.9H842c0-0.5-0.2-0.9-0.5-1.2
			c-0.3-0.3-0.7-0.5-1.2-0.5c-0.6,0-1.1,0.2-1.5,0.7c-0.4,0.5-0.5,1.1-0.5,2v0.2c0,0.9,0.2,1.5,0.5,2
			C839.1,168.5,839.6,168.8,840.3,168.8z"/>
		<path class="st11" d="M845.9,163.2c0.6-0.7,1.3-1,2.2-1c1.6,0,2.4,0.9,2.4,2.6v4.9h-1.3v-4.9c0-0.5-0.1-0.9-0.4-1.2
			s-0.6-0.4-1.1-0.4c-0.4,0-0.8,0.1-1.1,0.3c-0.3,0.2-0.6,0.5-0.7,0.9v5.3h-1.3v-10.5h1.3V163.2z"/>
		<path class="st11" d="M853.7,169.7h-1.3v-7.4h1.3V169.7z M852.7,161.1l0-1c0.3,0,0.6-0.1,0.8-0.1c0.2-0.1,0.2-0.2,0.2-0.4
			s-0.1-0.3-0.3-0.4c-0.2-0.1-0.5-0.1-0.8-0.1l0-0.7c0.7,0,1.2,0.1,1.5,0.4c0.4,0.2,0.5,0.5,0.5,0.9c0,0.3-0.1,0.5-0.3,0.7
			s-0.4,0.3-0.8,0.3l0,0.5H852.7z"/>
		<path class="st11" d="M860.9,169.7h-1.3v-10h1.3V169.7z"/>
		<path class="st11" d="M868.9,165.1h-4.3v3.5h5v1.1h-6.3v-10h6.3v1.1h-4.9v3.2h4.3V165.1z"/>
		<path class="st11" d="M872.5,168.6h4.7v1.1h-6v-10h1.3V168.6z"/>
		<path class="st11" d="M883.7,160.8h-3.2v8.9h-1.3v-8.9H876v-1.1h7.7V160.8z"/>
		<path class="st11" d="M888,165.2c-1.1-0.3-1.9-0.7-2.5-1.2c-0.5-0.5-0.8-1.1-0.8-1.7c0-0.8,0.3-1.4,0.9-1.9
			c0.6-0.5,1.4-0.8,2.4-0.8c0.7,0,1.3,0.1,1.8,0.4c0.5,0.3,1,0.6,1.2,1.1s0.4,1,0.4,1.5h-1.3c0-0.6-0.2-1.1-0.6-1.4
			c-0.4-0.3-0.9-0.5-1.6-0.5c-0.6,0-1.2,0.1-1.5,0.4c-0.4,0.3-0.5,0.7-0.5,1.2c0,0.4,0.2,0.8,0.5,1c0.3,0.3,0.9,0.5,1.8,0.8
			c0.8,0.2,1.5,0.5,1.9,0.8c0.5,0.3,0.8,0.6,1,1s0.3,0.8,0.3,1.3c0,0.8-0.3,1.5-0.9,1.9c-0.6,0.5-1.5,0.7-2.5,0.7
			c-0.7,0-1.3-0.1-1.9-0.4c-0.6-0.3-1-0.6-1.4-1.1s-0.5-1-0.5-1.6h1.3c0,0.6,0.2,1.1,0.7,1.4c0.4,0.3,1,0.5,1.8,0.5
			c0.7,0,1.2-0.1,1.6-0.4s0.6-0.7,0.6-1.2s-0.2-0.9-0.5-1.1C889.6,165.8,888.9,165.5,888,165.2z"/>
		<path class="st11" d="M897.9,163.2c0.6-0.7,1.3-1,2.2-1c1.6,0,2.4,0.9,2.4,2.6v4.9h-1.3v-4.9c0-0.5-0.1-0.9-0.4-1.2
			s-0.6-0.4-1.1-0.4c-0.4,0-0.8,0.1-1.1,0.3c-0.3,0.2-0.6,0.5-0.7,0.9v5.3h-1.3v-10.5h1.3V163.2z"/>
		<path class="st11" d="M904.1,165.9c0-0.7,0.1-1.4,0.4-2c0.3-0.6,0.7-1,1.2-1.3c0.5-0.3,1.1-0.5,1.7-0.5c1,0,1.8,0.3,2.4,1
			s0.9,1.6,0.9,2.8v0.1c0,0.7-0.1,1.4-0.4,1.9c-0.3,0.6-0.7,1-1.2,1.3s-1.1,0.5-1.8,0.5c-1,0-1.8-0.3-2.4-1S904.1,167.1,904.1,165.9
			L904.1,165.9z M905.3,166.1c0,0.8,0.2,1.5,0.6,2c0.4,0.5,0.9,0.7,1.5,0.7c0.6,0,1.2-0.3,1.5-0.8c0.4-0.5,0.6-1.2,0.6-2.1
			c0-0.8-0.2-1.5-0.6-2c-0.4-0.5-0.9-0.8-1.5-0.8c-0.6,0-1.1,0.2-1.5,0.7S905.3,165.1,905.3,166.1z"/>
		<path class="st11" d="M916.9,169.7c-0.1-0.1-0.1-0.4-0.2-0.8c-0.6,0.6-1.3,0.9-2.1,0.9c-0.7,0-1.3-0.2-1.8-0.6
			c-0.5-0.4-0.7-0.9-0.7-1.6c0-0.8,0.3-1.4,0.9-1.8c0.6-0.4,1.4-0.6,2.5-0.6h1.2v-0.6c0-0.4-0.1-0.8-0.4-1.1
			c-0.3-0.3-0.7-0.4-1.2-0.4c-0.5,0-0.8,0.1-1.1,0.3c-0.3,0.2-0.5,0.5-0.5,0.8h-1.3c0-0.4,0.1-0.7,0.4-1.1c0.3-0.3,0.6-0.6,1.1-0.8
			c0.4-0.2,0.9-0.3,1.5-0.3c0.9,0,1.5,0.2,2,0.6c0.5,0.4,0.7,1,0.8,1.8v3.4c0,0.7,0.1,1.2,0.3,1.6v0.1H916.9z M917.4,159.4
			c0,0.6-0.2,1-0.6,1.3c-0.4,0.3-0.9,0.5-1.5,0.5c-0.6,0-1.1-0.2-1.5-0.5c-0.4-0.3-0.6-0.8-0.6-1.3h1c0,0.3,0.1,0.6,0.3,0.7
			c0.2,0.2,0.4,0.3,0.8,0.3c0.3,0,0.6-0.1,0.7-0.3c0.2-0.2,0.3-0.4,0.3-0.8H917.4z M914.8,168.7c0.4,0,0.8-0.1,1.1-0.3
			s0.6-0.5,0.8-0.8v-1.5h-1c-1.5,0-2.3,0.5-2.3,1.4c0,0.4,0.1,0.7,0.4,0.9C914.1,168.6,914.4,168.7,914.8,168.7z M914.1,171.4
			c0-0.2,0.1-0.4,0.2-0.5c0.1-0.1,0.3-0.2,0.6-0.2s0.4,0.1,0.6,0.2c0.1,0.1,0.2,0.3,0.2,0.5s-0.1,0.4-0.2,0.5
			c-0.1,0.1-0.3,0.2-0.6,0.2s-0.4-0.1-0.6-0.2C914.1,171.7,914.1,171.6,914.1,171.4z"/>
		<path class="st11" d="M923,168.8c0.5,0,0.8-0.1,1.2-0.4c0.3-0.3,0.5-0.6,0.6-1h1.2c0,0.4-0.2,0.8-0.4,1.2
			c-0.3,0.4-0.6,0.7-1.1,0.9c-0.4,0.2-0.9,0.3-1.4,0.3c-1,0-1.8-0.3-2.4-1c-0.6-0.7-0.9-1.6-0.9-2.8v-0.2c0-0.7,0.1-1.4,0.4-1.9
			c0.3-0.6,0.6-1,1.1-1.3c0.5-0.3,1.1-0.5,1.8-0.5c0.8,0,1.5,0.2,2.1,0.7c0.5,0.5,0.8,1.1,0.9,1.9h-1.2c0-0.5-0.2-0.9-0.5-1.2
			c-0.3-0.3-0.7-0.5-1.2-0.5c-0.6,0-1.1,0.2-1.5,0.7c-0.4,0.5-0.5,1.1-0.5,2v0.2c0,0.9,0.2,1.5,0.5,2
			C921.8,168.5,922.3,168.8,923,168.8z"/>
		<path class="st11" d="M937.6,160.8h-3.2v8.9h-1.3v-8.9h-3.2v-1.1h7.7V160.8z"/>
		<path class="st11" d="M946.5,165c0,1-0.2,1.8-0.5,2.6c-0.3,0.7-0.8,1.3-1.4,1.7s-1.3,0.6-2.1,0.6c-0.8,0-1.5-0.2-2.1-0.6
			c-0.6-0.4-1.1-0.9-1.4-1.6c-0.3-0.7-0.5-1.5-0.5-2.5v-0.7c0-1,0.2-1.8,0.5-2.5c0.3-0.7,0.8-1.3,1.4-1.7c0.6-0.4,1.3-0.6,2.1-0.6
			c0.8,0,1.5,0.2,2.1,0.6c0.6,0.4,1.1,0.9,1.4,1.7c0.3,0.7,0.5,1.6,0.5,2.6V165z M945.2,164.4c0-1.2-0.2-2.1-0.7-2.7
			c-0.5-0.6-1.1-0.9-2-0.9c-0.8,0-1.5,0.3-2,0.9c-0.5,0.6-0.7,1.5-0.7,2.6v0.7c0,1.1,0.2,2,0.7,2.7c0.5,0.7,1.1,1,2,1
			c0.8,0,1.5-0.3,2-0.9c0.5-0.6,0.7-1.5,0.7-2.7V164.4z"/>
		<path class="st11" d="M954.1,165.1h-4.3v3.5h5v1.1h-6.3v-10h6.3v1.1h-4.9v3.2h4.3V165.1z"/>
		<path class="st11" d="M961.9,165.3h-4.2v4.4h-1.3v-10h6.2v1.1h-4.9v3.4h4.2V165.3z"/>
		<path class="st11" d="M965.5,168.6h4.7v1.1h-6v-10h1.3V168.6z"/>
		<path class="st11" d="M975,160.3c0-0.2,0.1-0.4,0.2-0.5c0.1-0.1,0.3-0.2,0.6-0.2s0.4,0.1,0.6,0.2c0.1,0.1,0.2,0.3,0.2,0.5
			s-0.1,0.4-0.2,0.5c-0.1,0.1-0.3,0.2-0.6,0.2s-0.4-0.1-0.6-0.2C975.1,160.7,975,160.5,975,160.3z M976.4,169.7h-1.3v-7.4h1.3V169.7
			z"/>
		<path class="st11" d="M978.6,169.7v-10h3.3c1.1,0,1.9,0.2,2.4,0.7c0.5,0.4,0.8,1.1,0.8,2c0,0.5-0.1,0.9-0.4,1.2
			c-0.3,0.4-0.6,0.6-1.1,0.8c0.5,0.2,1,0.4,1.3,0.9c0.3,0.4,0.5,0.9,0.5,1.5c0,0.9-0.3,1.6-0.9,2.1c-0.6,0.5-1.4,0.8-2.5,0.8H978.6z
			 M979.9,164h2c0.6,0,1-0.1,1.4-0.4c0.3-0.3,0.5-0.7,0.5-1.2c0-0.5-0.2-0.9-0.5-1.2c-0.3-0.2-0.8-0.4-1.5-0.4h-1.9V164z M979.9,165
			v3.6h2.2c0.6,0,1.1-0.2,1.4-0.5c0.4-0.3,0.5-0.8,0.5-1.3c0-1.2-0.7-1.8-2-1.8H979.9z"/>
		<path class="st11" d="M994,160.8h-3.2v8.9h-1.3v-8.9h-3.2v-1.1h7.7V160.8z"/>
	</g>
</g>
</svg>
