<?xml version="1.0" encoding="utf-8"?>
<!-- Generator: Adobe Illustrator 22.1.0, SVG Export Plug-In . SVG Version: 6.00 Build 0)  -->
<svg version="1.1" id="Layer_1" xmlns="http://www.w3.org/2000/svg" xmlns:xlink="http://www.w3.org/1999/xlink" x="0px" y="0px"
	 viewBox="0 0 1043.4 285.8" style="enable-background:new 0 0 1043.4 285.8;" xml:space="preserve">
<style type="text/css">
	.st0{fill-rule:evenodd;clip-rule:evenodd;fill:#05306D;}
	.st1{fill-rule:evenodd;clip-rule:evenodd;fill:#5DB9DD;}
	.st2{fill-rule:evenodd;clip-rule:evenodd;fill:#0085B7;}
	.st3{fill-rule:evenodd;clip-rule:evenodd;fill:#034693;}
	.st4{fill-rule:evenodd;clip-rule:evenodd;fill:#002560;}
	.st5{fill:#05306D;}
	
		.st6{fill-rule:evenodd;clip-rule:evenodd;fill:none;stroke:#FFFFFF;stroke-width:4.9551;stroke-linecap:round;stroke-linejoin:round;stroke-miterlimit:10;}
	.st7{opacity:0.22;}
	.st8{fill:#FFFFFF;}
	.st9{opacity:0.45;}
</style>
<g>
	<rect x="94.6" y="102.4" class="st0" width="35.8" height="109.6"/>
	<rect x="133" y="97" class="st0" width="35.8" height="115"/>
	<rect x="56.2" y="105.9" class="st0" width="35.8" height="106.1"/>
</g>
<g>
	<rect x="240" y="91.6" class="st0" width="35.4" height="120.4"/>
	<rect x="277.8" y="86.2" class="st0" width="35.4" height="125.8"/>
	<rect x="315.7" y="80.9" class="st0" width="35.4" height="131.2"/>
	<rect x="353.6" y="75.5" class="st0" width="35.4" height="136.6"/>
	<rect x="391.5" y="70.1" class="st0" width="35.4" height="142"/>
	<rect x="429.4" y="64.7" class="st0" width="35.4" height="147.3"/>
</g>
<g>
	<rect x="517.4" y="59.3" class="st0" width="35.2" height="152.7"/>
	<rect x="555.1" y="53.9" class="st0" width="35.2" height="158.1"/>
	<rect x="592.9" y="48.5" class="st0" width="35.2" height="163.5"/>
	<rect x="630.6" y="43.1" class="st0" width="35.2" height="168.9"/>
	<rect x="668.3" y="37.7" class="st0" width="35.2" height="174.3"/>
	<rect x="706.1" y="32.3" class="st0" width="35.2" height="179.7"/>
</g>
<g>
	<rect x="781.1" y="27" class="st0" width="38" height="185"/>
	<rect x="821.7" y="21.6" class="st0" width="38" height="190.4"/>
	<rect x="862.4" y="16.2" class="st0" width="38" height="195.8"/>
	<rect x="903.1" y="10.8" class="st0" width="38" height="201.2"/>
	<rect x="943.8" y="5.4" class="st0" width="38" height="206.6"/>
	<rect x="984.5" class="st0" width="38" height="212"/>
</g>
<g>
	<g>
		<polygon class="st1" points="130.4,212 94.6,212 91.4,227.9 133,227.9 		"/>
		<polygon class="st1" points="168.8,212 133,212 135.6,227.9 205.9,227.9 		"/>
		<polygon class="st1" points="92,212 56.2,212 0,227.9 88.8,227.9 		"/>
	</g>
	<g>
		<polygon class="st2" points="275.3,212 240,212 212.7,227.9 266.8,227.9 		"/>
		<polygon class="st2" points="313.2,212 277.8,212 269.3,227.9 310.1,227.9 		"/>
		<polygon class="st2" points="351.1,212 315.7,212 312.7,227.9 351.6,227.9 		"/>
		<polygon class="st2" points="389,212 353.6,212 354.1,227.9 396.1,227.9 		"/>
		<polygon class="st2" points="426.9,212 391.5,212 398.6,227.9 439.1,227.9 		"/>
		<polygon class="st2" points="464.8,212 429.4,212 441.6,227.9 493.7,227.9 		"/>
	</g>
	<g>
		<polygon class="st3" points="552.6,212 517.4,212 493.7,227.9 546.7,227.9 		"/>
		<polygon class="st3" points="590.4,212 555.1,212 549.2,227.9 587.4,227.9 		"/>
		<polygon class="st3" points="628.1,212 592.9,212 589.9,227.9 628.1,227.9 		"/>
		<polygon class="st3" points="665.8,212 630.6,212 630.6,227.9 669,227.9 		"/>
		<polygon class="st3" points="703.6,212 668.3,212 671.5,227.9 710,227.9 		"/>
		<polygon class="st3" points="741.3,212 706.1,212 712.5,227.9 762,227.9 		"/>
	</g>
	<g>
		<polygon class="st4" points="819,212 781.1,212 762.9,227.9 813.1,227.9 		"/>
		<polygon class="st4" points="859.7,212 821.7,212 815.8,227.9 856.8,227.9 		"/>
		<polygon class="st4" points="900.4,212 862.4,212 859.5,227.9 900.4,227.9 		"/>
		<polygon class="st4" points="941.1,212 903.1,212 903.1,227.9 944.5,227.9 		"/>
		<polygon class="st4" points="981.8,212 943.8,212 947.2,227.9 988.6,227.9 		"/>
		<polygon class="st4" points="1022.4,212 984.5,212 991.3,227.9 1043.3,227.9 		"/>
	</g>
</g>
<rect x="0.3" y="227.7" class="st5" width="1043.1" height="58.1"/>
<path class="st6" d="M204.9,238.8l13.6,14.1c2.7,2.8,2.7,7.4,0,10.2l-13.6,14.1"/>
<path class="st6" d="M500.3,236.8l13.6,14.1c2.7,2.8,2.7,7.4,0,10.2l-13.6,14.1"/>
<path class="st6" d="M772.3,236.8l13.6,14.1c2.7,2.8,2.7,7.4,0,10.2l-13.6,14.1"/>
<g class="st7">
	<g>
		<path class="st8" d="M523.3,206.3v-1.7l1.8-1.6c3.5-3.3,5.2-5.1,5.2-7c0-1.3-0.7-2.5-2.7-2.5c-1.3,0-2.5,0.7-3.2,1.2l-0.8-2
			c1.1-0.9,2.7-1.5,4.6-1.5c3.3,0,5,2.1,5,4.5c0,2.6-1.9,4.7-4.5,7.1l-1.3,1.1v0h6.2v2.3H523.3z"/>
		<path class="st8" d="M535,204.7c0-1.1,0.7-1.8,1.8-1.8c1,0,1.8,0.7,1.8,1.8c0,1-0.7,1.8-1.8,1.8C535.7,206.6,535,205.8,535,204.7z
			"/>
		<path class="st8" d="M543.8,193.9L543.8,193.9l-2.8,1.4l-0.5-2.1l3.7-1.8h2.4v14.9h-2.8V193.9z"/>
	</g>
</g>
<g class="st7">
	<g>
		<path class="st8" d="M557.1,206.3v-1.7l1.8-1.6c3.5-3.3,5.2-5.1,5.2-7c0-1.3-0.7-2.5-2.7-2.5c-1.3,0-2.5,0.7-3.2,1.2l-0.8-2
			c1.1-0.9,2.7-1.5,4.6-1.5c3.3,0,5,2.1,5,4.5c0,2.6-1.9,4.7-4.5,7.1l-1.3,1.1v0h6.2v2.3H557.1z"/>
		<path class="st8" d="M568.8,204.7c0-1.1,0.7-1.8,1.8-1.8c1,0,1.8,0.7,1.8,1.8c0,1-0.7,1.8-1.8,1.8
			C569.5,206.6,568.8,205.8,568.8,204.7z"/>
		<path class="st8" d="M573.2,206.3v-1.7l1.8-1.6c3.5-3.3,5.2-5.1,5.2-7c0-1.3-0.7-2.5-2.7-2.5c-1.3,0-2.5,0.7-3.2,1.2l-0.8-2
			c1.1-0.9,2.7-1.5,4.6-1.5c3.3,0,5,2.1,5,4.5c0,2.6-1.9,4.7-4.5,7.1l-1.3,1.1v0h6.2v2.3H573.2z"/>
	</g>
</g>
<g class="st7">
	<g>
		<path class="st8" d="M597.7,206.3v-1.7l1.8-1.6c3.5-3.3,5.2-5.1,5.2-7c0-1.3-0.7-2.5-2.7-2.5c-1.3,0-2.5,0.7-3.2,1.2l-0.8-2
			c1.1-0.9,2.7-1.5,4.6-1.5c3.3,0,5,2.1,5,4.5c0,2.6-1.9,4.7-4.5,7.1l-1.3,1.1v0h6.2v2.3H597.7z"/>
		<path class="st8" d="M609.4,204.7c0-1.1,0.7-1.8,1.8-1.8c1,0,1.8,0.7,1.8,1.8c0,1-0.7,1.8-1.8,1.8
			C610.1,206.6,609.4,205.8,609.4,204.7z"/>
		<path class="st8" d="M614.3,203.4c0.6,0.3,2,0.9,3.4,0.9c2.2,0,3.1-1.2,3-2.4c0-1.8-1.7-2.5-3.4-2.5H616v-2.1h1.3
			c1.3,0,3-0.6,3-2.1c0-1-0.8-1.9-2.4-1.9c-1.2,0-2.5,0.5-3.1,0.9l-0.6-2c0.9-0.6,2.5-1.1,4.3-1.1c3.1,0,4.7,1.7,4.7,3.7
			c0,1.6-0.9,2.8-2.8,3.5v0c1.8,0.3,3.3,1.7,3.3,3.7c0,2.5-2.1,4.5-5.9,4.5c-1.8,0-3.4-0.5-4.2-1L614.3,203.4z"/>
	</g>
</g>
<g class="st7">
	<g>
		<path class="st8" d="M631.9,206.3v-1.7l1.8-1.6c3.5-3.3,5.2-5.1,5.2-7c0-1.3-0.7-2.5-2.7-2.5c-1.3,0-2.5,0.7-3.2,1.2l-0.8-2
			c1.1-0.9,2.7-1.5,4.6-1.5c3.3,0,5,2.1,5,4.5c0,2.6-1.9,4.7-4.5,7.1l-1.3,1.1v0h6.2v2.3H631.9z"/>
		<path class="st8" d="M643.6,204.7c0-1.1,0.7-1.8,1.8-1.8c1,0,1.8,0.7,1.8,1.8c0,1-0.7,1.8-1.8,1.8
			C644.4,206.6,643.6,205.8,643.6,204.7z"/>
		<path class="st8" d="M654.3,206.3v-3.8h-6.8v-1.8l6.1-9.3h3.4v9h1.9v2.1H657v3.8H654.3z M654.3,200.4v-4.1c0-0.9,0-1.7,0.1-2.6
			h-0.1c-0.5,0.9-0.9,1.7-1.3,2.5l-2.8,4.1l0,0H654.3z"/>
	</g>
</g>
<g class="st7">
	<g>
		<path class="st8" d="M671,206.3v-1.7l1.8-1.6c3.5-3.3,5.2-5.1,5.2-7c0-1.3-0.7-2.5-2.7-2.5c-1.3,0-2.5,0.7-3.2,1.2l-0.8-2
			c1.1-0.9,2.7-1.5,4.6-1.5c3.3,0,5,2.1,5,4.5c0,2.6-1.9,4.7-4.5,7.1l-1.3,1.1v0h6.2v2.3H671z"/>
		<path class="st8" d="M682.7,204.7c0-1.1,0.7-1.8,1.8-1.8c1,0,1.8,0.7,1.8,1.8c0,1-0.7,1.8-1.8,1.8
			C683.4,206.6,682.7,205.8,682.7,204.7z"/>
		<path class="st8" d="M696.7,193.7h-5.8l-0.4,3c0.3,0,0.6-0.1,1.1-0.1c1.3,0,2.6,0.3,3.7,1c1.1,0.7,2,2,2,3.8
			c0,2.8-2.4,5.2-6.1,5.2c-1.7,0-3.2-0.4-4-0.9l0.6-2.1c0.6,0.3,1.9,0.8,3.3,0.8c1.7,0,3.3-0.9,3.3-2.7c0-1.7-1.3-2.8-4.3-2.8
			c-0.8,0-1.5,0-2.1,0.1l1-7.5h7.8V193.7z"/>
	</g>
</g>
<g class="st7">
	<g>
		<path class="st8" d="M710.1,206.3v-1.7l1.8-1.6c3.5-3.3,5.2-5.1,5.2-7c0-1.3-0.7-2.5-2.7-2.5c-1.3,0-2.5,0.7-3.2,1.2l-0.8-2
			c1.1-0.9,2.7-1.5,4.6-1.5c3.3,0,5,2.1,5,4.5c0,2.6-1.9,4.7-4.5,7.1l-1.3,1.1v0h6.2v2.3H710.1z"/>
		<path class="st8" d="M721.8,204.7c0-1.1,0.7-1.8,1.8-1.8c1,0,1.8,0.7,1.8,1.8c0,1-0.7,1.8-1.8,1.8
			C722.5,206.6,721.8,205.8,721.8,204.7z"/>
		<path class="st8" d="M735.3,193.4c-0.4,0-0.9,0-1.5,0.1c-3.2,0.4-4.7,2.3-5.1,4.4h0.1c0.7-0.8,1.9-1.4,3.4-1.4
			c2.6,0,4.6,1.8,4.6,4.9c0,2.8-2.1,5.3-5.3,5.3c-3.7,0-5.7-2.8-5.7-6.4c0-2.9,1-5.2,2.6-6.7c1.4-1.3,3.2-2,5.4-2.2
			c0.6-0.1,1.1-0.1,1.4,0L735.3,193.4z M734,201.4c0-1.7-1-3-2.6-3c-1.1,0-2,0.6-2.5,1.5c-0.1,0.2-0.2,0.5-0.2,0.9
			c0,2,1,3.6,2.8,3.6C733,204.4,734,203.2,734,201.4z"/>
	</g>
</g>
<g class="st7">
	<g>
		<path class="st8" d="M790.2,203.4c0.6,0.3,2,0.9,3.4,0.9c2.2,0,3.1-1.2,3-2.4c0-1.8-1.7-2.5-3.4-2.5h-1.3v-2.1h1.3
			c1.3,0,3-0.6,3-2.1c0-1-0.8-1.9-2.4-1.9c-1.2,0-2.5,0.5-3.1,0.9l-0.6-2c0.9-0.6,2.5-1.1,4.3-1.1c3.1,0,4.7,1.7,4.7,3.7
			c0,1.6-0.9,2.8-2.8,3.5v0c1.8,0.3,3.3,1.7,3.3,3.7c0,2.5-2.1,4.5-5.9,4.5c-1.8,0-3.4-0.5-4.2-1L790.2,203.4z"/>
		<path class="st8" d="M801.3,204.7c0-1.1,0.7-1.8,1.8-1.8c1,0,1.8,0.7,1.8,1.8c0,1-0.7,1.8-1.8,1.8
			C802,206.6,801.3,205.8,801.3,204.7z"/>
		<path class="st8" d="M810.1,193.9L810.1,193.9l-2.8,1.4l-0.5-2.1l3.7-1.8h2.4v14.9h-2.8V193.9z"/>
	</g>
</g>
<g class="st7">
	<g>
		<path class="st8" d="M828.1,203.4c0.6,0.3,2,0.9,3.4,0.9c2.2,0,3.1-1.2,3-2.4c0-1.8-1.7-2.5-3.4-2.5h-1.3v-2.1h1.3
			c1.3,0,3-0.6,3-2.1c0-1-0.8-1.9-2.4-1.9c-1.2,0-2.5,0.5-3.1,0.9l-0.6-2c0.9-0.6,2.5-1.1,4.3-1.1c3.1,0,4.7,1.7,4.7,3.7
			c0,1.6-0.9,2.8-2.8,3.5v0c1.8,0.3,3.3,1.7,3.3,3.7c0,2.5-2.1,4.5-5.9,4.5c-1.8,0-3.4-0.5-4.2-1L828.1,203.4z"/>
		<path class="st8" d="M839.2,204.7c0-1.1,0.7-1.8,1.8-1.8c1,0,1.8,0.7,1.8,1.8c0,1-0.7,1.8-1.8,1.8
			C839.9,206.6,839.2,205.8,839.2,204.7z"/>
		<path class="st8" d="M843.6,206.3v-1.7l1.8-1.6c3.5-3.3,5.2-5.1,5.2-7c0-1.3-0.7-2.5-2.7-2.5c-1.3,0-2.5,0.7-3.2,1.2l-0.8-2
			c1.1-0.9,2.7-1.5,4.6-1.5c3.3,0,5,2.1,5,4.5c0,2.6-1.9,4.7-4.5,7.1l-1.3,1.1v0h6.2v2.3H843.6z"/>
	</g>
</g>
<g class="st7">
	<g>
		<path class="st8" d="M869.9,203.4c0.6,0.3,2,0.9,3.4,0.9c2.2,0,3.1-1.2,3-2.4c0-1.8-1.7-2.5-3.4-2.5h-1.3v-2.1h1.3
			c1.3,0,3-0.6,3-2.1c0-1-0.8-1.9-2.4-1.9c-1.2,0-2.5,0.5-3.1,0.9l-0.6-2c0.9-0.6,2.5-1.1,4.3-1.1c3.1,0,4.7,1.7,4.7,3.7
			c0,1.6-0.9,2.8-2.8,3.5v0c1.8,0.3,3.3,1.7,3.3,3.7c0,2.5-2.1,4.5-5.9,4.5c-1.8,0-3.4-0.5-4.2-1L869.9,203.4z"/>
		<path class="st8" d="M881,204.7c0-1.1,0.7-1.8,1.8-1.8c1,0,1.8,0.7,1.8,1.8c0,1-0.7,1.8-1.8,1.8C881.7,206.6,881,205.8,881,204.7z
			"/>
		<path class="st8" d="M885.9,203.4c0.6,0.3,2,0.9,3.4,0.9c2.2,0,3.1-1.2,3-2.4c0-1.8-1.7-2.5-3.4-2.5h-1.3v-2.1h1.3
			c1.3,0,3-0.6,3-2.1c0-1-0.8-1.9-2.4-1.9c-1.2,0-2.5,0.5-3.1,0.9l-0.6-2c0.9-0.6,2.5-1.1,4.3-1.1c3.1,0,4.7,1.7,4.7,3.7
			c0,1.6-0.9,2.8-2.8,3.5v0c1.8,0.3,3.3,1.7,3.3,3.7c0,2.5-2.1,4.5-5.9,4.5c-1.8,0-3.4-0.5-4.2-1L885.9,203.4z"/>
	</g>
</g>
<g class="st7">
	<g>
		<path class="st8" d="M910.2,203.4c0.6,0.3,2,0.9,3.4,0.9c2.2,0,3.1-1.2,3-2.4c0-1.8-1.7-2.5-3.4-2.5H912v-2.1h1.3
			c1.3,0,3-0.6,3-2.1c0-1-0.8-1.9-2.4-1.9c-1.2,0-2.5,0.5-3.1,0.9l-0.6-2c0.9-0.6,2.5-1.1,4.3-1.1c3.1,0,4.7,1.7,4.7,3.7
			c0,1.6-0.9,2.8-2.8,3.5v0c1.8,0.3,3.3,1.7,3.3,3.7c0,2.5-2.1,4.5-5.9,4.5c-1.8,0-3.4-0.5-4.2-1L910.2,203.4z"/>
		<path class="st8" d="M921.3,204.7c0-1.1,0.7-1.8,1.8-1.8c1,0,1.8,0.7,1.8,1.8c0,1-0.7,1.8-1.8,1.8
			C922.1,206.6,921.3,205.8,921.3,204.7z"/>
		<path class="st8" d="M932,206.3v-3.8h-6.8v-1.8l6.1-9.3h3.4v9h1.9v2.1h-1.9v3.8H932z M932,200.4v-4.1c0-0.9,0-1.7,0.1-2.6H932
			c-0.5,0.9-0.9,1.7-1.3,2.5l-2.8,4.1l0,0H932z"/>
	</g>
</g>
<g class="st7">
	<g>
		<path class="st8" d="M948.1,203.4c0.6,0.3,2,0.9,3.4,0.9c2.2,0,3.1-1.2,3-2.4c0-1.8-1.7-2.5-3.4-2.5h-1.3v-2.1h1.3
			c1.3,0,3-0.6,3-2.1c0-1-0.8-1.9-2.4-1.9c-1.2,0-2.5,0.5-3.1,0.9l-0.6-2c0.9-0.6,2.5-1.1,4.3-1.1c3.1,0,4.7,1.7,4.7,3.7
			c0,1.6-0.9,2.8-2.8,3.5v0c1.8,0.3,3.3,1.7,3.3,3.7c0,2.5-2.1,4.5-5.9,4.5c-1.8,0-3.4-0.5-4.2-1L948.1,203.4z"/>
		<path class="st8" d="M959.2,204.7c0-1.1,0.7-1.8,1.8-1.8c1,0,1.8,0.7,1.8,1.8c0,1-0.7,1.8-1.8,1.8
			C959.9,206.6,959.2,205.8,959.2,204.7z"/>
		<path class="st8" d="M973.1,193.7h-5.8l-0.4,3c0.3,0,0.6-0.1,1.1-0.1c1.3,0,2.6,0.3,3.7,1c1.1,0.7,2,2,2,3.8
			c0,2.8-2.4,5.2-6.1,5.2c-1.7,0-3.2-0.4-4-0.9l0.6-2.1c0.6,0.3,1.9,0.8,3.3,0.8c1.7,0,3.3-0.9,3.3-2.7c0-1.7-1.3-2.8-4.3-2.8
			c-0.8,0-1.5,0-2.1,0.1l1-7.5h7.8V193.7z"/>
	</g>
</g>
<g class="st7">
	<g>
		<path class="st8" d="M989.6,203.4c0.6,0.3,2,0.9,3.4,0.9c2.2,0,3.1-1.2,3-2.4c0-1.8-1.7-2.5-3.4-2.5h-1.3v-2.1h1.3
			c1.3,0,3-0.6,3-2.1c0-1-0.8-1.9-2.4-1.9c-1.2,0-2.5,0.5-3.1,0.9l-0.6-2c0.9-0.6,2.5-1.1,4.3-1.1c3.1,0,4.7,1.7,4.7,3.7
			c0,1.6-0.9,2.8-2.8,3.5v0c1.8,0.3,3.3,1.7,3.3,3.7c0,2.5-2.1,4.5-5.9,4.5c-1.8,0-3.4-0.5-4.2-1L989.6,203.4z"/>
		<path class="st8" d="M1000.7,204.7c0-1.1,0.7-1.8,1.8-1.8c1,0,1.8,0.7,1.8,1.8c0,1-0.7,1.8-1.8,1.8
			C1001.4,206.6,1000.7,205.8,1000.7,204.7z"/>
		<path class="st8" d="M1014.3,193.4c-0.4,0-0.9,0-1.5,0.1c-3.2,0.4-4.7,2.3-5.1,4.4h0.1c0.7-0.8,1.9-1.4,3.4-1.4
			c2.6,0,4.6,1.8,4.6,4.9c0,2.8-2.1,5.3-5.3,5.3c-3.7,0-5.7-2.8-5.7-6.4c0-2.9,1-5.2,2.6-6.7c1.4-1.3,3.2-2,5.4-2.2
			c0.6-0.1,1.1-0.1,1.4,0L1014.3,193.4z M1012.9,201.4c0-1.7-1-3-2.6-3c-1.1,0-2,0.6-2.5,1.5c-0.1,0.2-0.2,0.5-0.2,0.9
			c0,2,1,3.6,2.8,3.6C1012,204.4,1012.9,203.2,1012.9,201.4z"/>
	</g>
</g>
<g class="st9">
	<g>
		<path class="st8" d="M251.7,193.9L251.7,193.9l-2.8,1.4l-0.5-2.1l3.7-1.8h2.4v14.9h-2.8V193.9z"/>
		<path class="st8" d="M259,204.7c0-1.1,0.7-1.8,1.8-1.8c1,0,1.8,0.7,1.8,1.8c0,1-0.7,1.8-1.8,1.8C259.7,206.6,259,205.8,259,204.7z
			"/>
		<path class="st8" d="M267.8,193.9L267.8,193.9l-2.8,1.4l-0.5-2.1l3.7-1.8h2.4v14.9h-2.8V193.9z"/>
	</g>
</g>
<g class="st9">
	<g>
		<path class="st8" d="M285.6,193.9L285.6,193.9l-2.8,1.4l-0.5-2.1l3.7-1.8h2.4v14.9h-2.8V193.9z"/>
		<path class="st8" d="M292.8,204.7c0-1.1,0.7-1.8,1.8-1.8c1,0,1.8,0.7,1.8,1.8c0,1-0.7,1.8-1.8,1.8
			C293.5,206.6,292.8,205.8,292.8,204.7z"/>
		<path class="st8" d="M297.2,206.3v-1.7l1.8-1.6c3.5-3.3,5.2-5.1,5.2-7c0-1.3-0.7-2.5-2.7-2.5c-1.3,0-2.5,0.7-3.2,1.2l-0.8-2
			c1.1-0.9,2.7-1.5,4.6-1.5c3.3,0,5,2.1,5,4.5c0,2.6-1.9,4.7-4.5,7.1l-1.3,1.1v0h6.2v2.3H297.2z"/>
	</g>
</g>
<g class="st9">
	<g>
		<path class="st8" d="M326.1,193.9L326.1,193.9l-2.8,1.4l-0.5-2.1l3.7-1.8h2.4v14.9h-2.8V193.9z"/>
		<path class="st8" d="M333.4,204.7c0-1.1,0.7-1.8,1.8-1.8c1,0,1.8,0.7,1.8,1.8c0,1-0.7,1.8-1.8,1.8
			C334.1,206.6,333.4,205.8,333.4,204.7z"/>
		<path class="st8" d="M338.3,203.4c0.6,0.3,2,0.9,3.4,0.9c2.2,0,3.1-1.2,3-2.4c0-1.8-1.7-2.5-3.4-2.5H340v-2.1h1.3
			c1.3,0,3-0.6,3-2.1c0-1-0.8-1.9-2.4-1.9c-1.2,0-2.5,0.5-3.1,0.9l-0.6-2c0.9-0.6,2.5-1.1,4.3-1.1c3.1,0,4.7,1.7,4.7,3.7
			c0,1.6-0.9,2.8-2.8,3.5v0c1.8,0.3,3.3,1.7,3.3,3.7c0,2.5-2.1,4.5-5.9,4.5c-1.8,0-3.4-0.5-4.2-1L338.3,203.4z"/>
	</g>
</g>
<g class="st9">
	<g>
		<path class="st8" d="M360.4,193.9L360.4,193.9l-2.8,1.4l-0.5-2.1l3.7-1.8h2.4v14.9h-2.8V193.9z"/>
		<path class="st8" d="M367.6,204.7c0-1.1,0.7-1.8,1.8-1.8c1,0,1.8,0.7,1.8,1.8c0,1-0.7,1.8-1.8,1.8
			C368.4,206.6,367.6,205.8,367.6,204.7z"/>
		<path class="st8" d="M378.3,206.3v-3.8h-6.8v-1.8l6.1-9.3h3.4v9h1.9v2.1H381v3.8H378.3z M378.3,200.4v-4.1c0-0.9,0-1.7,0.1-2.6
			h-0.1c-0.5,0.9-0.9,1.7-1.3,2.5l-2.8,4.1l0,0H378.3z"/>
	</g>
</g>
<g class="st9">
	<g>
		<path class="st8" d="M399.5,193.9L399.5,193.9l-2.8,1.4l-0.5-2.1l3.7-1.8h2.4v14.9h-2.8V193.9z"/>
		<path class="st8" d="M406.7,204.7c0-1.1,0.7-1.8,1.8-1.8c1,0,1.8,0.7,1.8,1.8c0,1-0.7,1.8-1.8,1.8
			C407.4,206.6,406.7,205.8,406.7,204.7z"/>
		<path class="st8" d="M420.7,193.7h-5.8l-0.4,3c0.3,0,0.6-0.1,1.1-0.1c1.3,0,2.6,0.3,3.7,1c1.1,0.7,2,2,2,3.8
			c0,2.8-2.4,5.2-6.1,5.2c-1.7,0-3.2-0.4-4-0.9l0.6-2.1c0.6,0.3,1.9,0.8,3.3,0.8c1.7,0,3.3-0.9,3.3-2.7c0-1.7-1.3-2.8-4.3-2.8
			c-0.8,0-1.5,0-2.1,0.1l1-7.5h7.8V193.7z"/>
	</g>
</g>
<g class="st9">
	<g>
		<path class="st8" d="M438.6,193.9L438.6,193.9l-2.8,1.4l-0.5-2.1l3.7-1.8h2.4v14.9h-2.8V193.9z"/>
		<path class="st8" d="M445.8,204.7c0-1.1,0.7-1.8,1.8-1.8c1,0,1.8,0.7,1.8,1.8c0,1-0.7,1.8-1.8,1.8
			C446.5,206.6,445.8,205.8,445.8,204.7z"/>
		<path class="st8" d="M459.3,193.4c-0.4,0-0.9,0-1.5,0.1c-3.2,0.4-4.7,2.3-5.1,4.4h0.1c0.7-0.8,1.9-1.4,3.4-1.4
			c2.6,0,4.6,1.8,4.6,4.9c0,2.8-2.1,5.3-5.3,5.3c-3.7,0-5.7-2.8-5.7-6.4c0-2.9,1-5.2,2.6-6.7c1.4-1.3,3.2-2,5.4-2.2
			c0.6-0.1,1.1-0.1,1.4,0L459.3,193.4z M458,201.4c0-1.7-1-3-2.6-3c-1.1,0-2,0.6-2.5,1.5c-0.1,0.2-0.2,0.5-0.2,0.9
			c0,2,1,3.6,2.8,3.6C457.1,204.4,458,203.2,458,201.4z"/>
	</g>
</g>
<g>
	<g>
		<path class="st8" d="M76.6,261.8v5h-2.9v-14.2h5.5c1.1,0,2,0.2,2.8,0.6s1.4,0.9,1.9,1.7s0.7,1.5,0.7,2.5c0,1.4-0.5,2.5-1.4,3.3
			s-2.3,1.2-4,1.2H76.6z M76.6,259.5h2.6c0.8,0,1.4-0.2,1.8-0.5s0.6-0.9,0.6-1.6c0-0.7-0.2-1.3-0.6-1.7c-0.4-0.4-1-0.7-1.7-0.7h-2.7
			V259.5z"/>
		<path class="st8" d="M92.3,258.9c-0.4-0.1-0.7-0.1-1-0.1c-1.1,0-1.8,0.4-2.1,1.1v6.9h-2.8v-10.6H89l0.1,1.3c0.6-1,1.4-1.5,2.4-1.5
			c0.3,0,0.6,0,0.9,0.1L92.3,258.9z"/>
		<path class="st8" d="M98.3,267c-1.5,0-2.8-0.5-3.8-1.4s-1.5-2.2-1.5-3.8v-0.3c0-1.1,0.2-2,0.6-2.8s1-1.5,1.7-1.9s1.6-0.7,2.6-0.7
			c1.4,0,2.6,0.5,3.4,1.4s1.2,2.2,1.2,3.9v1.2h-6.7c0.1,0.7,0.4,1.2,0.8,1.7s1,0.6,1.7,0.6c1.1,0,1.9-0.4,2.5-1.2l1.4,1.6
			c-0.4,0.6-1,1.1-1.7,1.4S99.2,267,98.3,267z M98,258.3c-0.6,0-1,0.2-1.4,0.6c-0.3,0.4-0.6,0.9-0.7,1.6h3.9v-0.2
			c0-0.6-0.2-1.1-0.5-1.5C99.1,258.5,98.6,258.3,98,258.3z"/>
		<path class="st8" d="M109.7,261.9h-5.5v-2.3h5.5V261.9z"/>
		<path class="st8" d="M115.3,266.8h-2.9v-14.2h2.9V266.8z"/>
		<path class="st8" d="M126.6,260.7H121v3.8h6.6v2.4H118v-14.2h9.5v2.4H121v3.4h5.6V260.7z"/>
	</g>
</g>
<g>
	<g>
		<path class="st8" d="M343.1,266.8h-2.9v-14.2h2.9V266.8z"/>
		<path class="st8" d="M354.3,260.7h-5.6v3.8h6.6v2.4h-9.5v-14.2h9.5v2.4h-6.6v3.4h5.6V260.7z"/>
		<path class="st8" d="M368.6,266.8h-2.8V256l-3.4,1v-2.3l5.9-2.1h0.3V266.8z"/>
	</g>
</g>
<g>
	<g>
		<path class="st8" d="M632.1,266.8h-2.9v-14.2h2.9V266.8z"/>
		<path class="st8" d="M643.4,260.7h-5.6v3.8h6.6v2.4h-9.5v-14.2h9.5v2.4h-6.6v3.4h5.6V260.7z"/>
		<path class="st8" d="M660.5,266.8h-9.7v-1.9l4.6-4.9c0.6-0.7,1.1-1.3,1.4-1.8s0.5-1,0.5-1.5c0-0.6-0.2-1.1-0.5-1.5
			c-0.3-0.4-0.8-0.5-1.4-0.5c-0.6,0-1.1,0.2-1.5,0.7c-0.4,0.4-0.6,1-0.6,1.7h-2.8c0-0.9,0.2-1.7,0.6-2.4c0.4-0.7,1-1.3,1.8-1.7
			c0.8-0.4,1.6-0.6,2.6-0.6c1.5,0,2.6,0.4,3.4,1.1s1.2,1.7,1.2,3c0,0.7-0.2,1.4-0.5,2.1c-0.4,0.7-1,1.6-1.9,2.5l-3.2,3.4h6.1V266.8z
			"/>
	</g>
</g>
<g>
	<g>
		<path class="st8" d="M894.5,266.8h-2.9v-14.2h2.9V266.8z"/>
		<path class="st8" d="M905.8,260.7h-5.6v3.8h6.6v2.4h-9.5v-14.2h9.5v2.4h-6.6v3.4h5.6V260.7z"/>
		<path class="st8" d="M916,258.5h1.5c0.7,0,1.2-0.2,1.6-0.5c0.3-0.4,0.5-0.8,0.5-1.4c0-0.6-0.2-1-0.5-1.3s-0.8-0.5-1.4-0.5
			c-0.5,0-1,0.1-1.4,0.4c-0.4,0.3-0.5,0.7-0.5,1.2H913c0-0.7,0.2-1.4,0.6-2s1-1,1.7-1.4c0.7-0.3,1.5-0.5,2.4-0.5
			c1.5,0,2.7,0.4,3.5,1.1c0.9,0.7,1.3,1.7,1.3,3c0,0.7-0.2,1.3-0.6,1.8c-0.4,0.5-0.9,1-1.6,1.3c0.8,0.3,1.4,0.7,1.8,1.3
			c0.4,0.6,0.6,1.3,0.6,2c0,1.3-0.5,2.3-1.4,3c-0.9,0.8-2.1,1.1-3.7,1.1c-1.4,0-2.6-0.4-3.5-1.1c-0.9-0.7-1.4-1.7-1.4-3h2.8
			c0,0.5,0.2,1,0.6,1.3s0.9,0.5,1.5,0.5c0.7,0,1.2-0.2,1.6-0.5s0.6-0.8,0.6-1.4c0-1.4-0.8-2.1-2.3-2.1H916V258.5z"/>
	</g>
</g>
</svg>
