<?xml version="1.0" encoding="utf-8"?>
<!-- Generator: Adobe Illustrator 22.1.0, SVG Export Plug-In . SVG Version: 6.00 Build 0)  -->
<svg version="1.1" id="Layer_1" xmlns="http://www.w3.org/2000/svg" xmlns:xlink="http://www.w3.org/1999/xlink" x="0px" y="0px"
	 viewBox="0 0 770.5 152" style="enable-background:new 0 0 770.5 152;" xml:space="preserve">
<style type="text/css">
	.st0{fill:#E23A59;}
	.st1{fill:#61C4F2;}
	.st2{fill:#263357;}
	.st3{fill:#FFFFFF;}
	.st4{fill:#F86464;}
	.st5{fill:#183651;}
	.st6{fill:#FFFDFD;}
	.st7{fill:#61C4F2;stroke:#183651;stroke-width:2.5;stroke-miterlimit:10;}
	.st8{fill:#FFFFFF;stroke:#183651;stroke-width:2.5;stroke-miterlimit:10;}
	.st9{fill:#CDD4D5;}
	.st10{fill:#183651;stroke:#183651;stroke-miterlimit:10;}
	.st11{fill:#9BAAAB;stroke:#183651;stroke-width:2.5;stroke-miterlimit:10;}
</style>
<g>
	<g>
		<path d="M22.4,115.6h-5.1v3.4h5.9v2.1h-8.6v-12.8h8.6v2.1h-5.9v3h5.1V115.6z"/>
		<path d="M27,111.6l0.1,1.1c0.7-0.8,1.6-1.3,2.7-1.3c1,0,1.8,0.3,2.3,0.9s0.7,1.5,0.8,2.7v6.1h-2.5V115c0-0.5-0.1-0.9-0.4-1.2
			c-0.2-0.2-0.6-0.4-1.2-0.4c-0.7,0-1.3,0.3-1.6,0.9v6.7h-2.5v-9.5H27z"/>
		<path d="M34.4,116.3c0-1.5,0.3-2.6,1-3.5s1.6-1.3,2.8-1.3c1,0,1.9,0.4,2.4,1.1l0.1-0.9h2.3v9.2c0,0.8-0.2,1.6-0.6,2.2
			s-0.9,1.1-1.6,1.4s-1.5,0.5-2.4,0.5c-0.7,0-1.4-0.1-2-0.4s-1.2-0.6-1.5-1.1l1.1-1.5c0.6,0.7,1.4,1.1,2.3,1.1
			c0.7,0,1.2-0.2,1.6-0.5c0.4-0.4,0.6-0.9,0.6-1.5v-0.5c-0.6,0.7-1.4,1-2.3,1c-1.1,0-2.1-0.4-2.8-1.3s-1.1-2.1-1.1-3.6V116.3z
			 M37,116.5c0,0.9,0.2,1.5,0.5,2c0.3,0.5,0.8,0.7,1.4,0.7c0.8,0,1.3-0.3,1.7-0.9v-4c-0.3-0.6-0.9-0.9-1.6-0.9
			c-0.6,0-1.1,0.3-1.4,0.7C37.1,114.7,37,115.5,37,116.5z"/>
		<path d="M50.6,121.1c-0.1-0.2-0.2-0.5-0.3-0.9c-0.6,0.7-1.4,1-2.4,1c-0.9,0-1.7-0.3-2.3-0.8s-0.9-1.2-0.9-2c0-1,0.4-1.8,1.1-2.3
			s1.8-0.8,3.2-0.8h1.2v-0.5c0-0.4-0.1-0.8-0.3-1.1s-0.6-0.4-1.1-0.4c-0.4,0-0.8,0.1-1,0.3s-0.4,0.5-0.4,0.8h-2.5
			c0-0.6,0.2-1.1,0.5-1.5s0.8-0.8,1.4-1.1s1.3-0.4,2.1-0.4c1.2,0,2.1,0.3,2.8,0.9c0.7,0.6,1,1.4,1,2.5v4.1c0,0.9,0.1,1.6,0.4,2v0.1
			H50.6z M48.5,119.3c0.4,0,0.7-0.1,1-0.3c0.3-0.2,0.6-0.4,0.7-0.7v-1.6h-0.9c-1.3,0-1.9,0.4-2,1.3l0,0.1c0,0.3,0.1,0.6,0.3,0.8
			S48.1,119.3,48.5,119.3z"/>
		<path d="M54.3,116.3c0-1.5,0.3-2.6,1-3.5s1.6-1.3,2.8-1.3c1,0,1.9,0.4,2.4,1.1l0.1-0.9H63v9.2c0,0.8-0.2,1.6-0.6,2.2
			s-0.9,1.1-1.6,1.4s-1.5,0.5-2.4,0.5c-0.7,0-1.4-0.1-2-0.4s-1.2-0.6-1.5-1.1l1.1-1.5c0.6,0.7,1.4,1.1,2.3,1.1
			c0.7,0,1.2-0.2,1.6-0.5c0.4-0.4,0.6-0.9,0.6-1.5v-0.5c-0.6,0.7-1.4,1-2.3,1c-1.1,0-2.1-0.4-2.8-1.3s-1.1-2.1-1.1-3.6V116.3z
			 M56.9,116.5c0,0.9,0.2,1.5,0.5,2c0.3,0.5,0.8,0.7,1.4,0.7c0.8,0,1.3-0.3,1.7-0.9v-4c-0.3-0.6-0.9-0.9-1.6-0.9
			c-0.6,0-1.1,0.3-1.4,0.7C57.1,114.7,56.9,115.5,56.9,116.5z"/>
		<path d="M69.4,121.3c-1.4,0-2.5-0.4-3.4-1.3s-1.3-2-1.3-3.4v-0.2c0-1,0.2-1.8,0.6-2.6s0.9-1.3,1.6-1.7s1.4-0.6,2.3-0.6
			c1.3,0,2.3,0.4,3.1,1.2s1.1,2,1.1,3.5v1h-6.1c0.1,0.6,0.3,1.1,0.7,1.5s0.9,0.6,1.6,0.6c1,0,1.7-0.4,2.3-1.1l1.2,1.4
			c-0.4,0.5-0.9,1-1.5,1.3C70.9,121.1,70.2,121.3,69.4,121.3z M69.1,113.5c-0.5,0-0.9,0.2-1.2,0.5c-0.3,0.3-0.5,0.8-0.6,1.5h3.5
			v-0.2c0-0.6-0.2-1-0.5-1.3C70,113.6,69.6,113.5,69.1,113.5z"/>
		<path d="M1.2,141.9c0-1.3,0.2-2.6,0.5-3.8s0.9-2.3,1.6-3.3s1.4-1.7,2.2-2.1l0.3,1.1c-0.9,0.7-1.6,1.7-2.1,3s-0.8,2.9-0.9,4.5
			l0,0.7c0,2.3,0.4,4.2,1.2,5.9c0.5,1,1.1,1.8,1.8,2.3l-0.3,1c-0.8-0.4-1.5-1.2-2.2-2.2C1.9,147.1,1.2,144.7,1.2,141.9z"/>
		<path d="M16.5,135.7h-4.1v11.4h-1.7v-11.4H6.6v-1.4h9.9V135.7z"/>
		<path d="M19.7,138.7c0.7-0.9,1.7-1.3,2.8-1.3c2,0,3,1.1,3,3.4v6.3H24v-6.3c0-0.7-0.2-1.2-0.5-1.5s-0.8-0.5-1.4-0.5
			c-0.5,0-1,0.1-1.4,0.4s-0.7,0.7-0.9,1.1v6.8h-1.6v-13.5h1.6V138.7z"/>
		<path d="M33.9,147.1c-0.1-0.2-0.2-0.5-0.2-1c-0.8,0.8-1.7,1.2-2.7,1.2c-0.9,0-1.7-0.3-2.3-0.8s-0.9-1.2-0.9-2c0-1,0.4-1.8,1.1-2.3
			s1.8-0.8,3.2-0.8h1.6v-0.7c0-0.6-0.2-1-0.5-1.4c-0.3-0.3-0.8-0.5-1.5-0.5c-0.6,0-1.1,0.1-1.5,0.4s-0.6,0.6-0.6,1.1H28
			c0-0.5,0.2-0.9,0.5-1.4s0.8-0.8,1.4-1.1s1.2-0.4,1.9-0.4c1.1,0,2,0.3,2.6,0.8s0.9,1.3,1,2.3v4.4c0,0.9,0.1,1.6,0.3,2.1v0.1H33.9z
			 M31.2,145.9c0.5,0,1-0.1,1.5-0.4s0.8-0.6,1-1v-2h-1.3c-2,0-3,0.6-3,1.7c0,0.5,0.2,0.9,0.5,1.2S30.7,145.9,31.2,145.9z"/>
		<path d="M39.4,137.6l0,1.1c0.7-0.8,1.6-1.2,2.8-1.2c1.3,0,2.2,0.5,2.7,1.5c0.3-0.5,0.7-0.8,1.2-1.1s1.1-0.4,1.8-0.4
			c2.1,0,3.1,1.1,3.2,3.3v6.4h-1.6v-6.3c0-0.7-0.2-1.2-0.5-1.5c-0.3-0.3-0.8-0.5-1.6-0.5c-0.6,0-1.1,0.2-1.5,0.5
			c-0.4,0.4-0.6,0.8-0.7,1.5v6.3h-1.6v-6.2c0-1.4-0.7-2.1-2-2.1c-1.1,0-1.8,0.5-2.2,1.4v6.9h-1.6v-9.5H39.4z"/>
		<path d="M57.7,142.3c0-1.5,0.3-2.7,1-3.5s1.6-1.3,2.7-1.3c1.2,0,2.1,0.4,2.7,1.2l0.1-1.1h1.5v9.3c0,1.2-0.4,2.2-1.1,2.9
			s-1.7,1.1-2.9,1.1c-0.7,0-1.4-0.1-2-0.4s-1.2-0.7-1.5-1.2l0.8-1c0.7,0.9,1.5,1.3,2.6,1.3c0.8,0,1.4-0.2,1.9-0.7s0.7-1.1,0.7-1.9
			v-0.8c-0.7,0.8-1.5,1.1-2.7,1.1c-1.1,0-2-0.4-2.7-1.3S57.7,143.8,57.7,142.3z M59.3,142.4c0,1.1,0.2,1.9,0.7,2.5
			c0.4,0.6,1.1,0.9,1.8,0.9c1,0,1.8-0.5,2.3-1.4v-4.3c-0.5-0.9-1.2-1.4-2.2-1.4c-0.8,0-1.4,0.3-1.9,0.9S59.3,141.2,59.3,142.4z"/>
		<path d="M68.2,135.1c0-0.3,0.1-0.5,0.2-0.7s0.4-0.3,0.7-0.3s0.6,0.1,0.7,0.3s0.2,0.4,0.2,0.7s-0.1,0.5-0.2,0.7s-0.4,0.3-0.7,0.3
			s-0.6-0.1-0.7-0.3S68.2,135.3,68.2,135.1z M69.9,147.1h-1.6v-9.5h1.6V147.1z"/>
		<path d="M78.4,147.1c-0.1-0.2-0.2-0.5-0.2-1c-0.8,0.8-1.7,1.2-2.7,1.2c-0.9,0-1.7-0.3-2.3-0.8s-0.9-1.2-0.9-2c0-1,0.4-1.8,1.1-2.3
			s1.8-0.8,3.2-0.8h1.6v-0.7c0-0.6-0.2-1-0.5-1.4c-0.3-0.3-0.8-0.5-1.5-0.5c-0.6,0-1.1,0.1-1.5,0.4s-0.6,0.6-0.6,1.1h-1.6
			c0-0.5,0.2-0.9,0.5-1.4s0.8-0.8,1.4-1.1s1.2-0.4,1.9-0.4c1.1,0,2,0.3,2.6,0.8s0.9,1.3,1,2.3v4.4c0,0.9,0.1,1.6,0.3,2.1v0.1H78.4z
			 M75.7,145.9c0.5,0,1-0.1,1.5-0.4s0.8-0.6,1-1v-2h-1.3c-2,0-3,0.6-3,1.7c0,0.5,0.2,0.9,0.5,1.2S75.2,145.9,75.7,145.9z"/>
		<path d="M86.1,142c0,1.3-0.2,2.6-0.5,3.8c-0.3,1.2-0.9,2.3-1.6,3.3s-1.4,1.7-2.2,2.2l-0.3-1c0.9-0.7,1.6-1.8,2.2-3.2
			c0.5-1.5,0.8-3.1,0.8-4.8v-0.3c0-1.2-0.1-2.4-0.4-3.4c-0.3-1.1-0.6-2-1.1-2.8s-1-1.5-1.6-2l0.3-1c0.8,0.4,1.5,1.1,2.2,2.1
			s1.2,2.1,1.6,3.3S86.1,140.6,86.1,142z"/>
	</g>
</g>
<g>
	<g>
		<path d="M252.2,115.6h-5.1v3.4h5.9v2.1h-8.6v-12.8h8.6v2.1h-5.9v3h5.1V115.6z"/>
		<path d="M258.1,114.4l1.6-2.8h2.7l-2.7,4.7l2.8,4.9h-2.7l-1.7-3l-1.7,3h-2.7l2.8-4.9l-2.7-4.7h2.7L258.1,114.4z"/>
		<path d="M272.2,116.4c0,1.5-0.3,2.6-1,3.5s-1.6,1.3-2.7,1.3c-1,0-1.7-0.3-2.3-1v4.5h-2.5v-13.2h2.4l0.1,0.9
			c0.6-0.7,1.4-1.1,2.4-1.1c1.2,0,2.1,0.4,2.7,1.3s1,2.1,1,3.6V116.4z M269.7,116.2c0-0.9-0.2-1.6-0.5-2s-0.8-0.7-1.4-0.7
			c-0.8,0-1.3,0.3-1.6,0.9v3.9c0.3,0.6,0.9,0.9,1.7,0.9C269.1,119.2,269.7,118.2,269.7,116.2z"/>
		<path d="M276.5,121.1h-2.5v-13.5h2.5V121.1z"/>
		<path d="M278.2,116.3c0-0.9,0.2-1.8,0.5-2.5s0.9-1.3,1.6-1.7s1.5-0.6,2.4-0.6c1.3,0,2.3,0.4,3.1,1.2s1.3,1.9,1.4,3.2l0,0.7
			c0,1.5-0.4,2.6-1.2,3.5s-1.9,1.3-3.3,1.3s-2.5-0.4-3.3-1.3s-1.2-2.1-1.2-3.6V116.3z M280.7,116.4c0,0.9,0.2,1.6,0.5,2.1
			c0.3,0.5,0.8,0.7,1.5,0.7c0.6,0,1.1-0.2,1.4-0.7c0.3-0.5,0.5-1.2,0.5-2.3c0-0.9-0.2-1.6-0.5-2.1s-0.8-0.7-1.5-0.7
			c-0.6,0-1.1,0.2-1.4,0.7C280.9,114.7,280.7,115.4,280.7,116.4z"/>
		<path d="M294.1,114c-0.3,0-0.7-0.1-0.9-0.1c-1,0-1.6,0.3-1.9,1v6.2h-2.5v-9.5h2.4l0.1,1.1c0.5-0.9,1.2-1.3,2.1-1.3
			c0.3,0,0.5,0,0.8,0.1L294.1,114z"/>
		<path d="M299.5,121.3c-1.4,0-2.5-0.4-3.4-1.3s-1.3-2-1.3-3.4v-0.2c0-1,0.2-1.8,0.6-2.6s0.9-1.3,1.6-1.7s1.4-0.6,2.3-0.6
			c1.3,0,2.3,0.4,3.1,1.2s1.1,2,1.1,3.5v1h-6.1c0.1,0.6,0.3,1.1,0.7,1.5s0.9,0.6,1.6,0.6c1,0,1.7-0.4,2.3-1.1l1.2,1.4
			c-0.4,0.5-0.9,1-1.5,1.3C301,121.1,300.3,121.3,299.5,121.3z M299.2,113.5c-0.5,0-0.9,0.2-1.2,0.5c-0.3,0.3-0.5,0.8-0.6,1.5h3.5
			v-0.2c0-0.6-0.2-1-0.5-1.3C300.2,113.6,299.8,113.5,299.2,113.5z"/>
		<path d="M228.1,141.9c0-1.3,0.2-2.6,0.5-3.8s0.9-2.3,1.6-3.3s1.4-1.7,2.2-2.1l0.3,1.1c-0.9,0.7-1.6,1.7-2.1,3s-0.8,2.9-0.9,4.5
			l0,0.7c0,2.3,0.4,4.2,1.2,5.9c0.5,1,1.1,1.8,1.8,2.3l-0.3,1c-0.8-0.4-1.5-1.2-2.2-2.2C228.8,147.1,228.1,144.7,228.1,141.9z"/>
		<path d="M237.8,141.1l-1.6,1.6v4.3h-1.7v-12.8h1.7v6.3l5.7-6.3h2l-5,5.7l5.4,7.1h-2L237.8,141.1z"/>
		<path d="M247.2,138.7c0.7-0.9,1.7-1.3,2.8-1.3c2,0,3,1.1,3,3.4v6.3h-1.6v-6.3c0-0.7-0.2-1.2-0.5-1.5s-0.8-0.5-1.4-0.5
			c-0.5,0-1,0.1-1.4,0.4s-0.7,0.7-0.9,1.1v6.8h-1.6v-13.5h1.6V138.7z"/>
		<path d="M261.4,147.1c-0.1-0.2-0.2-0.5-0.2-1c-0.8,0.8-1.7,1.2-2.7,1.2c-0.9,0-1.7-0.3-2.3-0.8s-0.9-1.2-0.9-2
			c0-1,0.4-1.8,1.1-2.3s1.8-0.8,3.2-0.8h1.6v-0.7c0-0.6-0.2-1-0.5-1.4c-0.3-0.3-0.8-0.5-1.5-0.5c-0.6,0-1.1,0.1-1.5,0.4
			s-0.6,0.6-0.6,1.1h-1.6c0-0.5,0.2-0.9,0.5-1.4s0.8-0.8,1.4-1.1s1.2-0.4,1.9-0.4c1.1,0,2,0.3,2.6,0.8s0.9,1.3,1,2.3v4.4
			c0,0.9,0.1,1.6,0.3,2.1v0.1H261.4z M258.7,145.9c0.5,0,1-0.1,1.5-0.4s0.8-0.6,1-1v-2h-1.3c-2,0-3,0.6-3,1.7c0,0.5,0.2,0.9,0.5,1.2
			S258.1,145.9,258.7,145.9z M260.2,133.6h2l-2.4,2.6l-1.3,0L260.2,133.6z"/>
		<path d="M266.8,137.6l0,1.1c0.7-0.8,1.6-1.2,2.8-1.2c1.3,0,2.2,0.5,2.7,1.5c0.3-0.5,0.7-0.8,1.2-1.1s1.1-0.4,1.8-0.4
			c2.1,0,3.1,1.1,3.2,3.3v6.4H277v-6.3c0-0.7-0.2-1.2-0.5-1.5c-0.3-0.3-0.8-0.5-1.6-0.5c-0.6,0-1.1,0.2-1.5,0.5
			c-0.4,0.4-0.6,0.8-0.7,1.5v6.3h-1.6v-6.2c0-1.4-0.7-2.1-2-2.1c-1.1,0-1.8,0.5-2.2,1.4v6.9h-1.6v-9.5H266.8z"/>
		<path d="M293.6,142.4c0,1.4-0.3,2.6-1,3.5s-1.6,1.3-2.7,1.3c-1.2,0-2.1-0.4-2.7-1.1v4.6h-1.6v-13.2h1.5l0.1,1.1
			c0.7-0.8,1.6-1.2,2.8-1.2c1.1,0,2,0.4,2.7,1.3s1,2.1,1,3.6V142.4z M291.9,142.3c0-1.1-0.2-1.9-0.7-2.5s-1.1-0.9-1.9-0.9
			c-1,0-1.7,0.4-2.2,1.3v4.5c0.5,0.9,1.2,1.3,2.2,1.3c0.8,0,1.4-0.3,1.9-0.9S291.9,143.5,291.9,142.3z"/>
		<path d="M297.3,138.7c0.7-0.9,1.7-1.3,2.8-1.3c2,0,3,1.1,3,3.4v6.3h-1.6v-6.3c0-0.7-0.2-1.2-0.5-1.5s-0.8-0.5-1.4-0.5
			c-0.5,0-1,0.1-1.4,0.4s-0.7,0.7-0.9,1.1v6.8h-1.6v-13.5h1.6V138.7z"/>
		<path d="M311.4,147.1c-0.1-0.2-0.2-0.5-0.2-1c-0.8,0.8-1.7,1.2-2.7,1.2c-0.9,0-1.7-0.3-2.3-0.8s-0.9-1.2-0.9-2
			c0-1,0.4-1.8,1.1-2.3s1.8-0.8,3.2-0.8h1.6v-0.7c0-0.6-0.2-1-0.5-1.4c-0.3-0.3-0.8-0.5-1.5-0.5c-0.6,0-1.1,0.1-1.5,0.4
			s-0.6,0.6-0.6,1.1h-1.6c0-0.5,0.2-0.9,0.5-1.4s0.8-0.8,1.4-1.1s1.2-0.4,1.9-0.4c1.1,0,2,0.3,2.6,0.8s0.9,1.3,1,2.3v4.4
			c0,0.9,0.1,1.6,0.3,2.1v0.1H311.4z M308.7,145.9c0.5,0,1-0.1,1.5-0.4s0.8-0.6,1-1v-2h-1.3c-2,0-3,0.6-3,1.7c0,0.5,0.2,0.9,0.5,1.2
			S308.2,145.9,308.7,145.9z M310.2,133.6h2l-2.4,2.6l-1.3,0L310.2,133.6z"/>
		<path d="M319.1,142c0,1.3-0.2,2.6-0.5,3.8c-0.3,1.2-0.9,2.3-1.6,3.3s-1.4,1.7-2.2,2.2l-0.3-1c0.9-0.7,1.6-1.8,2.2-3.2
			c0.5-1.5,0.8-3.1,0.8-4.8v-0.3c0-1.2-0.1-2.4-0.4-3.4c-0.3-1.1-0.6-2-1.1-2.8s-1-1.5-1.6-2l0.3-1c0.8,0.4,1.5,1.1,2.2,2.1
			s1.2,2.1,1.6,3.3S319.1,140.6,319.1,142z"/>
	</g>
</g>
<g>
	<g>
		<path d="M483.3,118.5h-4.6l-0.9,2.6H475l4.8-12.8h2.4l4.8,12.8h-2.8L483.3,118.5z M479.4,116.3h3.2l-1.6-4.8L479.4,116.3z"/>
		<path d="M491.9,119.2c0.5,0,0.8-0.1,1.1-0.4s0.4-0.6,0.5-1h2.4c0,0.6-0.2,1.2-0.5,1.8c-0.3,0.5-0.8,1-1.4,1.2
			c-0.6,0.3-1.3,0.4-2,0.4c-1.4,0-2.4-0.4-3.2-1.3c-0.8-0.9-1.2-2.1-1.2-3.6v-0.2c0-1.5,0.4-2.6,1.2-3.5s1.8-1.3,3.2-1.3
			c1.2,0,2.1,0.3,2.9,1c0.7,0.7,1.1,1.6,1.1,2.7h-2.4c0-0.5-0.2-0.9-0.5-1.2s-0.7-0.5-1.2-0.5c-0.6,0-1,0.2-1.3,0.6
			c-0.3,0.4-0.5,1.1-0.5,2.1v0.3c0,1,0.1,1.7,0.4,2.1S491.3,119.2,491.9,119.2z"/>
		<path d="M500.4,109.3v2.3h1.6v1.9h-1.6v4.7c0,0.4,0.1,0.6,0.2,0.8s0.4,0.2,0.8,0.2c0.3,0,0.5,0,0.7-0.1v1.9
			c-0.5,0.2-1,0.2-1.5,0.2c-1.8,0-2.7-0.9-2.7-2.7v-5.1h-1.4v-1.9h1.4v-2.3H500.4z"/>
		<path d="M503.4,109.1c0-0.4,0.1-0.7,0.4-0.9s0.6-0.4,1-0.4c0.4,0,0.8,0.1,1,0.4s0.4,0.6,0.4,0.9c0,0.4-0.1,0.7-0.4,0.9
			s-0.6,0.4-1,0.4s-0.8-0.1-1-0.4S503.4,109.5,503.4,109.1z M506.1,121.1h-2.5v-9.5h2.5V121.1z"/>
		<path d="M507.8,116.3c0-0.9,0.2-1.8,0.5-2.5s0.9-1.3,1.6-1.7s1.5-0.6,2.4-0.6c1.3,0,2.3,0.4,3.1,1.2s1.3,1.9,1.4,3.2l0,0.7
			c0,1.5-0.4,2.6-1.2,3.5s-1.9,1.3-3.3,1.3s-2.5-0.4-3.3-1.3s-1.2-2.1-1.2-3.6V116.3z M510.4,116.4c0,0.9,0.2,1.6,0.5,2.1
			c0.3,0.5,0.8,0.7,1.5,0.7c0.6,0,1.1-0.2,1.4-0.7c0.3-0.5,0.5-1.2,0.5-2.3c0-0.9-0.2-1.6-0.5-2.1s-0.8-0.7-1.5-0.7
			c-0.6,0-1.1,0.2-1.4,0.7C510.5,114.7,510.4,115.4,510.4,116.4z"/>
		<path d="M520.7,111.6l0.1,1.1c0.7-0.8,1.6-1.3,2.7-1.3c1,0,1.8,0.3,2.3,0.9s0.7,1.5,0.8,2.7v6.1H524V115c0-0.5-0.1-0.9-0.4-1.2
			c-0.2-0.2-0.6-0.4-1.2-0.4c-0.7,0-1.3,0.3-1.6,0.9v6.7h-2.5v-9.5H520.7z"/>
		<path d="M452.2,141.9c0-1.3,0.2-2.6,0.5-3.8s0.9-2.3,1.6-3.3s1.4-1.7,2.2-2.1l0.3,1.1c-0.9,0.7-1.6,1.7-2.1,3s-0.8,2.9-0.9,4.5
			l0,0.7c0,2.3,0.4,4.2,1.2,5.9c0.5,1,1.1,1.8,1.8,2.3l-0.3,1c-0.8-0.4-1.5-1.2-2.2-2.2C452.9,147.1,452.2,144.7,452.2,141.9z"/>
		<path d="M468.5,147.1h-1.7v-5.9h-6.5v5.9h-1.7v-12.8h1.7v5.5h6.5v-5.5h1.7V147.1z"/>
		<path d="M477.1,147.1c-0.1-0.2-0.2-0.5-0.2-1c-0.8,0.8-1.7,1.2-2.7,1.2c-0.9,0-1.7-0.3-2.3-0.8s-0.9-1.2-0.9-2
			c0-1,0.4-1.8,1.1-2.3s1.8-0.8,3.2-0.8h1.6v-0.7c0-0.6-0.2-1-0.5-1.4c-0.3-0.3-0.8-0.5-1.5-0.5c-0.6,0-1.1,0.1-1.5,0.4
			s-0.6,0.6-0.6,1.1h-1.6c0-0.5,0.2-0.9,0.5-1.4s0.8-0.8,1.4-1.1s1.2-0.4,1.9-0.4c1.1,0,2,0.3,2.6,0.8s0.9,1.3,1,2.3v4.4
			c0,0.9,0.1,1.6,0.3,2.1v0.1H477.1z M476,136.2l-1.4,0l-2.3-2.6h2L476,136.2z M474.4,145.9c0.5,0,1-0.1,1.5-0.4s0.8-0.6,1-1v-2
			h-1.3c-2,0-3,0.6-3,1.7c0,0.5,0.2,0.9,0.5,1.2S473.9,145.9,474.4,145.9z"/>
		<path d="M482.6,137.6l0.1,1.2c0.7-0.9,1.7-1.4,2.8-1.4c2,0,3,1.1,3,3.4v6.3h-1.6v-6.3c0-0.7-0.2-1.2-0.5-1.5s-0.8-0.5-1.4-0.5
			c-0.5,0-1,0.1-1.4,0.4s-0.7,0.7-0.9,1.1v6.8H481v-9.5H482.6z"/>
		<path d="M492.6,138.7c0.7-0.9,1.7-1.3,2.8-1.3c2,0,3,1.1,3,3.4v6.3h-1.6v-6.3c0-0.7-0.2-1.2-0.5-1.5s-0.8-0.5-1.4-0.5
			c-0.5,0-1,0.1-1.4,0.4s-0.7,0.7-0.9,1.1v6.8H491v-13.5h1.6V138.7z"/>
		<path d="M514.6,136.3H513v10.8h-1.5l-0.1-1c-0.7,0.8-1.6,1.2-2.7,1.2c-1.1,0-2-0.5-2.7-1.4s-1-2.1-1-3.5v-0.1c0-1.5,0.3-2.6,1-3.5
			c0.7-0.9,1.6-1.3,2.7-1.3c1.1,0,2,0.4,2.6,1.1v-2.3H509v-1.3h2.3v-1.3h1.6v1.3h1.7V136.3z M506.6,142.4c0,1.1,0.2,1.9,0.7,2.5
			s1.1,0.9,1.8,0.9c1,0,1.8-0.5,2.3-1.4v-4.4c-0.5-0.9-1.2-1.3-2.2-1.3c-0.8,0-1.4,0.3-1.9,0.9S506.6,141.2,506.6,142.4z"/>
		<path d="M515.6,142.3c0-0.9,0.2-1.8,0.5-2.5s0.9-1.3,1.5-1.7s1.4-0.6,2.2-0.6c1.3,0,2.3,0.4,3.1,1.3s1.2,2.1,1.2,3.6v0.1
			c0,0.9-0.2,1.8-0.5,2.5c-0.4,0.7-0.9,1.3-1.5,1.7s-1.4,0.6-2.3,0.6c-1.3,0-2.3-0.4-3.1-1.3s-1.2-2.1-1.2-3.6V142.3z M522.6,136
			L522.6,136l-1.3,0.1l-1.3-1.5l-1.3,1.5l-1.3,0V136l2.2-2.4h1L522.6,136z M517.3,142.4c0,1.1,0.2,1.9,0.7,2.5s1.1,1,2,1
			c0.8,0,1.5-0.3,2-1c0.5-0.6,0.7-1.6,0.7-2.7c0-1-0.2-1.9-0.7-2.5c-0.5-0.6-1.2-1-2-1c-0.8,0-1.5,0.3-1.9,1
			S517.3,141.3,517.3,142.4z M519,149.3c0-0.3,0.1-0.5,0.2-0.7s0.4-0.3,0.7-0.3s0.6,0.1,0.7,0.3s0.2,0.4,0.2,0.7s-0.1,0.5-0.2,0.7
			s-0.4,0.3-0.7,0.3s-0.6-0.1-0.7-0.3S519,149.5,519,149.3z"/>
		<path d="M527.9,137.6l0.1,1.2c0.7-0.9,1.7-1.4,2.8-1.4c2,0,3,1.1,3,3.4v6.3h-1.6v-6.3c0-0.7-0.2-1.2-0.5-1.5s-0.8-0.5-1.4-0.5
			c-0.5,0-1,0.1-1.4,0.4s-0.7,0.7-0.9,1.1v6.8h-1.6v-9.5H527.9z"/>
		<path d="M535.9,142.3c0-1.5,0.3-2.7,1-3.5s1.6-1.3,2.7-1.3c1.2,0,2.1,0.4,2.7,1.2l0.1-1.1h1.5v9.3c0,1.2-0.4,2.2-1.1,2.9
			s-1.7,1.1-2.9,1.1c-0.7,0-1.4-0.1-2-0.4s-1.2-0.7-1.5-1.2l0.8-1c0.7,0.9,1.5,1.3,2.6,1.3c0.8,0,1.4-0.2,1.8-0.7s0.7-1.1,0.7-1.9
			v-0.8c-0.7,0.8-1.5,1.1-2.7,1.1c-1.1,0-2-0.4-2.7-1.3S535.9,143.8,535.9,142.3z M537.5,142.4c0,1.1,0.2,1.9,0.7,2.5
			c0.4,0.6,1.1,0.9,1.8,0.9c1,0,1.8-0.5,2.3-1.4v-4.3c-0.5-0.9-1.2-1.4-2.2-1.4c-0.8,0-1.4,0.3-1.9,0.9S537.5,141.2,537.5,142.4z"/>
		<path d="M550.1,142c0,1.3-0.2,2.6-0.5,3.8c-0.3,1.2-0.9,2.3-1.6,3.3s-1.4,1.7-2.2,2.2l-0.3-1c0.9-0.7,1.6-1.8,2.2-3.2
			c0.5-1.5,0.8-3.1,0.8-4.8v-0.3c0-1.2-0.1-2.4-0.4-3.4c-0.3-1.1-0.6-2-1.1-2.8s-1-1.5-1.6-2l0.3-1c0.8,0.4,1.5,1.1,2.2,2.1
			s1.2,2.1,1.6,3.3S550.1,140.6,550.1,142z"/>
	</g>
</g>
<g>
	<g>
		<path d="M706.4,116.4h-2.1v4.7h-2.6v-12.8h4.8c1.5,0,2.7,0.3,3.5,1s1.2,1.6,1.2,2.9c0,0.9-0.2,1.6-0.6,2.2c-0.4,0.6-1,1-1.7,1.4
			l2.8,5.2v0.1h-2.8L706.4,116.4z M704.3,114.3h2.1c0.7,0,1.2-0.2,1.5-0.5c0.4-0.3,0.5-0.8,0.5-1.4c0-0.6-0.2-1.1-0.5-1.4
			s-0.9-0.5-1.6-0.5h-2.1V114.3z"/>
		<path d="M717.3,121.3c-1.4,0-2.5-0.4-3.4-1.3s-1.3-2-1.3-3.4v-0.2c0-1,0.2-1.8,0.6-2.6s0.9-1.3,1.6-1.7s1.4-0.6,2.3-0.6
			c1.3,0,2.3,0.4,3.1,1.2s1.1,2,1.1,3.5v1h-6.1c0.1,0.6,0.3,1.1,0.7,1.5s0.9,0.6,1.6,0.6c1,0,1.7-0.4,2.3-1.1l1.2,1.4
			c-0.4,0.5-0.9,1-1.5,1.3C718.9,121.1,718.1,121.3,717.3,121.3z M717.1,113.5c-0.5,0-0.9,0.2-1.2,0.5c-0.3,0.3-0.5,0.8-0.6,1.5h3.5
			v-0.2c0-0.6-0.2-1-0.5-1.3C718,113.6,717.6,113.5,717.1,113.5z"/>
		<path d="M723.4,121.1v-7.6H722v-1.9h1.4v-0.8c0-1.1,0.3-1.9,0.9-2.5c0.6-0.6,1.5-0.9,2.6-0.9c0.4,0,0.8,0.1,1.3,0.2l0,2
			c-0.2-0.1-0.5-0.1-0.8-0.1c-1,0-1.4,0.4-1.4,1.3v0.8h1.9v1.9h-1.9v7.6H723.4z"/>
		<path d="M731.8,121.1h-2.5v-13.5h2.5V121.1z"/>
		<path d="M738.3,121.3c-1.4,0-2.5-0.4-3.4-1.3s-1.3-2-1.3-3.4v-0.2c0-1,0.2-1.8,0.6-2.6s0.9-1.3,1.6-1.7s1.4-0.6,2.3-0.6
			c1.3,0,2.3,0.4,3.1,1.2s1.1,2,1.1,3.5v1h-6.1c0.1,0.6,0.3,1.1,0.7,1.5s0.9,0.6,1.6,0.6c1,0,1.7-0.4,2.3-1.1l1.2,1.4
			c-0.4,0.5-0.9,1-1.5,1.3C739.8,121.1,739.1,121.3,738.3,121.3z M738,113.5c-0.5,0-0.9,0.2-1.2,0.5c-0.3,0.3-0.5,0.8-0.6,1.5h3.5
			v-0.2c0-0.6-0.2-1-0.5-1.3C739,113.6,738.5,113.5,738,113.5z"/>
		<path d="M747.6,119.2c0.5,0,0.8-0.1,1.1-0.4s0.4-0.6,0.5-1h2.4c0,0.6-0.2,1.2-0.5,1.8c-0.3,0.5-0.8,1-1.4,1.2
			c-0.6,0.3-1.3,0.4-2,0.4c-1.4,0-2.4-0.4-3.2-1.3c-0.8-0.9-1.2-2.1-1.2-3.6v-0.2c0-1.5,0.4-2.6,1.2-3.5s1.8-1.3,3.2-1.3
			c1.2,0,2.1,0.3,2.9,1c0.7,0.7,1.1,1.6,1.1,2.7h-2.4c0-0.5-0.2-0.9-0.5-1.2s-0.7-0.5-1.2-0.5c-0.6,0-1,0.2-1.3,0.6
			c-0.3,0.4-0.5,1.1-0.5,2.1v0.3c0,1,0.1,1.7,0.4,2.1S747,119.2,747.6,119.2z"/>
		<path d="M756.1,109.3v2.3h1.6v1.9h-1.6v4.7c0,0.4,0.1,0.6,0.2,0.8s0.4,0.2,0.8,0.2c0.3,0,0.5,0,0.7-0.1v1.9
			c-0.5,0.2-1,0.2-1.5,0.2c-1.8,0-2.7-0.9-2.7-2.7v-5.1h-1.4v-1.9h1.4v-2.3H756.1z"/>
		<path d="M689.3,141.9c0-1.3,0.2-2.6,0.5-3.8s0.9-2.3,1.6-3.3s1.4-1.7,2.2-2.1l0.3,1.1c-0.9,0.7-1.6,1.7-2.1,3s-0.8,2.9-0.9,4.5
			l0,0.7c0,2.3,0.4,4.2,1.2,5.9c0.5,1,1.1,1.8,1.8,2.3l-0.3,1c-0.8-0.4-1.5-1.2-2.2-2.2C690,147.1,689.3,144.7,689.3,141.9z"/>
		<path d="M697.4,142.1v5h-1.7v-12.8h4.7c1.4,0,2.5,0.4,3.3,1.1s1.2,1.7,1.2,2.8c0,1.2-0.4,2.2-1.2,2.9s-1.9,1-3.3,1H697.4z
			 M697.4,140.7h3c0.9,0,1.6-0.2,2.1-0.6c0.5-0.4,0.7-1,0.7-1.8c0-0.8-0.2-1.4-0.7-1.8s-1.1-0.7-2-0.7h-3.1V140.7z"/>
		<path d="M708.5,138.7c0.7-0.9,1.7-1.3,2.8-1.3c2,0,3,1.1,3,3.4v6.3h-1.6v-6.3c0-0.7-0.2-1.2-0.5-1.5s-0.8-0.5-1.4-0.5
			c-0.5,0-1,0.1-1.4,0.4s-0.7,0.7-0.9,1.1v6.8h-1.6v-13.5h1.6V138.7z"/>
		<path d="M722.6,147.1c-0.1-0.2-0.2-0.5-0.2-1c-0.8,0.8-1.7,1.2-2.7,1.2c-0.9,0-1.7-0.3-2.3-0.8s-0.9-1.2-0.9-2
			c0-1,0.4-1.8,1.1-2.3s1.8-0.8,3.2-0.8h1.6v-0.7c0-0.6-0.2-1-0.5-1.4c-0.3-0.3-0.8-0.5-1.5-0.5c-0.6,0-1.1,0.1-1.5,0.4
			s-0.6,0.6-0.6,1.1h-1.6c0-0.5,0.2-0.9,0.5-1.4s0.8-0.8,1.4-1.1s1.2-0.4,1.9-0.4c1.1,0,2,0.3,2.6,0.8s0.9,1.3,1,2.3v4.4
			c0,0.9,0.1,1.6,0.3,2.1v0.1H722.6z M719.9,145.9c0.5,0,1-0.1,1.5-0.4s0.8-0.6,1-1v-2h-1.3c-2,0-3,0.6-3,1.7c0,0.5,0.2,0.9,0.5,1.2
			S719.4,145.9,719.9,145.9z M720.1,136l0-1.3c0.4,0,0.8-0.1,1-0.2s0.3-0.2,0.3-0.5s-0.1-0.4-0.4-0.5c-0.3-0.1-0.6-0.2-1.1-0.2
			l0.1-0.9c0.9,0,1.5,0.2,2,0.5s0.7,0.7,0.7,1.2c0,0.4-0.1,0.7-0.3,0.9s-0.6,0.4-1,0.4l0,0.6H720.1z"/>
		<path d="M728.1,137.6l0.1,1.2c0.7-0.9,1.7-1.4,2.8-1.4c2,0,3,1.1,3,3.4v6.3h-1.6v-6.3c0-0.7-0.2-1.2-0.5-1.5s-0.8-0.5-1.4-0.5
			c-0.5,0-1,0.1-1.4,0.4s-0.7,0.7-0.9,1.1v6.8h-1.6v-9.5H728.1z"/>
		<path d="M742.6,138.7c0.7-0.9,1.7-1.3,2.8-1.3c2,0,3,1.1,3,3.4v6.3h-1.6v-6.3c0-0.7-0.2-1.2-0.5-1.5s-0.8-0.5-1.4-0.5
			c-0.5,0-1,0.1-1.4,0.4s-0.7,0.7-0.9,1.1v6.8H741v-13.5h1.6V138.7z"/>
		<path d="M752.1,134.7l-1.2,0l-1.8-2.3h1.7L752.1,134.7z M750.4,142.3c0-0.9,0.2-1.8,0.5-2.5s0.9-1.3,1.5-1.7s1.4-0.6,2.2-0.6
			c1.3,0,2.3,0.4,3.1,1.3s1.2,2.1,1.2,3.6v0.1c0,0.9-0.2,1.8-0.5,2.5c-0.4,0.7-0.9,1.3-1.5,1.7s-1.4,0.6-2.3,0.6
			c-1.3,0-2.3-0.4-3.1-1.3s-1.2-2.1-1.2-3.6V142.3z M757.9,136.2l-1.7,0l-1.5-1.4l-1.5,1.4l-1.7,0l2.5-2.3h1.3L757.9,136.2z
			 M752.1,142.4c0,1.1,0.2,1.9,0.7,2.5s1.1,1,2,1c0.8,0,1.5-0.3,2-1c0.5-0.6,0.7-1.6,0.7-2.7c0-1-0.2-1.9-0.7-2.5
			c-0.5-0.6-1.2-1-2-1c-0.8,0-1.5,0.3-1.9,1S752.1,141.3,752.1,142.4z"/>
		<path d="M761.1,135.1c0-0.3,0.1-0.5,0.2-0.7s0.4-0.3,0.7-0.3s0.6,0.1,0.7,0.3s0.2,0.4,0.2,0.7s-0.1,0.5-0.2,0.7s-0.4,0.3-0.7,0.3
			s-0.6-0.1-0.7-0.3S761.1,135.3,761.1,135.1z M762.9,147.1h-1.6v-9.5h1.6V147.1z"/>
		<path d="M769.3,142c0,1.3-0.2,2.6-0.5,3.8c-0.3,1.2-0.9,2.3-1.6,3.3s-1.4,1.7-2.2,2.2l-0.3-1c0.9-0.7,1.6-1.8,2.2-3.2
			c0.5-1.5,0.8-3.1,0.8-4.8v-0.3c0-1.2-0.1-2.4-0.4-3.4c-0.3-1.1-0.6-2-1.1-2.8s-1-1.5-1.6-2l0.3-1c0.8,0.4,1.5,1.1,2.2,2.1
			s1.2,2.1,1.6,3.3S769.3,140.6,769.3,142z"/>
	</g>
</g>
<polygon class="st0" points="392,39 378,29.4 378,48.6 "/>
<polygon class="st0" points="619.7,39 605.7,29.4 605.7,48.6 "/>
<polygon class="st0" points="157.6,36.1 143.6,26.5 143.6,45.7 "/>
<g>
	<circle class="st1" cx="49.3" cy="42.4" r="19.4"/>
	<g>
		<path class="st2" d="M49.3,43.8c-0.3,0-0.7-0.1-0.8-0.3c-0.4-0.3-0.5-0.8-0.4-1.3l7.6-32.6c0.1-0.7,0.9-1.2,1.6-0.9
			c0.7,0.1,1.2,0.9,0.9,1.6l-7.1,29.9l26.4-11.6c0.7-0.3,1.5,0,1.7,0.7c0.3,0.7,0,1.5-0.7,1.7l-29,12.8
			C49.7,43.8,49.6,43.8,49.3,43.8z"/>
		<path class="st2" d="M33.4,75.3c-0.3,0-0.4,0-0.7-0.1c-0.7-0.3-0.9-1.2-0.5-1.7l16-31.5c0.3-0.4,0.7-0.7,1.1-0.7
			c0.4,0,0.9,0.1,1.2,0.5L74,73.3c0.4,0.5,0.3,1.5-0.3,1.9c-0.5,0.4-1.5,0.3-1.9-0.3L49.6,45L34.5,74.6C34.4,75,33.8,75.3,33.4,75.3
			z"/>
		<path class="st2" d="M49.3,43.8c-0.1,0-0.3,0-0.4-0.1L16.5,32.4c-0.7-0.3-1.1-0.9-0.8-1.7c0.3-0.7,0.9-1.1,1.7-0.8l32.5,11.2
			c0.7,0.3,1.1,0.9,0.8,1.7C50.5,43.4,50,43.8,49.3,43.8z"/>
	</g>
	<circle class="st3" cx="49.3" cy="42.4" r="14.2"/>
	<circle class="st4" cx="49.3" cy="42.4" r="7.1"/>
	<circle class="st4" cx="16.9" cy="31.2" r="12"/>
	<path class="st5" d="M16.9,44.6c-7.3,0-13.4-6-13.4-13.4s6-13.4,13.4-13.4s13.4,6,13.4,13.4S24.2,44.6,16.9,44.6z M16.9,20.5
		c-5.9,0-10.7,4.8-10.7,10.7S11,41.9,16.9,41.9s10.7-4.8,10.7-10.7S22.7,20.5,16.9,20.5z"/>
	<circle class="st3" cx="16.9" cy="31.2" r="6.7"/>
	<circle class="st4" cx="33.4" cy="74" r="9.3"/>
	<path class="st5" d="M33.4,84.6c-5.9,0-10.7-4.8-10.7-10.7s4.8-10.7,10.7-10.7S44.1,68.1,44.1,74C44,79.8,39.3,84.6,33.4,84.6z
		 M33.4,65.9c-4.4,0-8,3.6-8,8s3.6,8,8,8s8-3.6,8-8S37.8,65.9,33.4,65.9z"/>
	<circle class="st3" cx="33.4" cy="74" r="4"/>
	<circle class="st4" cx="78.3" cy="29.6" r="9.3"/>
	<path class="st5" d="M78.3,40.3c-5.9,0-10.7-4.8-10.7-10.7s4.8-10.7,10.7-10.7S89,23.7,89,29.6S84.2,40.3,78.3,40.3z M78.3,21.6
		c-4.4,0-8,3.6-8,8s3.6,8,8,8c4.4,0,8-3.6,8-8S82.7,21.6,78.3,21.6z"/>
	<circle class="st3" cx="78.3" cy="29.6" r="4"/>
	<circle class="st4" cx="57.1" cy="9.9" r="6.7"/>
	<path class="st2" d="M57.1,18c-4.4,0-8-3.6-8-8s3.6-8,8-8s8,3.6,8,8S61.5,18,57.1,18z M57.1,4.5c-2.9,0-5.3,2.4-5.3,5.3
		s2.4,5.3,5.3,5.3s5.3-2.4,5.3-5.3S60,4.5,57.1,4.5z"/>
	<circle class="st3" cx="57.1" cy="9.9" r="2.7"/>
	<circle class="st4" cx="73" cy="74" r="6.7"/>
	<path class="st5" d="M73,82.1c-4.4,0-8-3.6-8-8s3.6-8,8-8s8,3.6,8,8S77.4,82.1,73,82.1z M73,68.6c-2.9,0-5.3,2.4-5.3,5.3
		s2.4,5.3,5.3,5.3s5.3-2.4,5.3-5.3S75.9,68.6,73,68.6z"/>
	<circle class="st3" cx="73" cy="74" r="2.7"/>
</g>
<path class="st5" d="M309.1,66c1.1,1.1,1.7,2.6,1.7,4.1c0,1.5-0.6,2.9-1.7,4.1c-1.1,1.1-2.6,1.7-4.1,1.7c-1.5,0-2.9-0.6-4.1-1.7
	l-16.8-16.8c-0.3-0.3-0.4-0.6-0.4-1c0-0.4,0.1-0.7,0.4-1l0.7-0.7l-1.6-1.6c-4.7,3.7-10.5,5.5-16.2,5.5c-6.8,0-13.6-2.6-18.8-7.8
	c-10.3-10.3-10.3-27.2,0-37.5c10.3-10.3,27.2-10.3,37.5,0c9.5,9.5,10.3,24.5,2.3,34.9l1.6,1.6l0.7-0.7c0.5-0.5,1.4-0.5,2,0L309.1,66
	z M307.1,72.2c1.2-1.2,1.2-3.1,0-4.2l-15.8-15.8l-4.2,4.2l15.8,15.8C304,73.4,305.9,73.4,307.1,72.2L307.1,72.2z M290.7,32.1
	c0-6.3-2.5-12.3-7-16.8c-4.5-4.5-10.4-7-16.8-7c-6.3,0-12.3,2.5-16.8,7c-4.5,4.5-7,10.4-7,16.8s2.5,12.3,7,16.8
	c4.5,4.5,10.4,7,16.8,7c6.3,0,12.3-2.5,16.8-7C288.3,44.4,290.7,38.5,290.7,32.1L290.7,32.1z M286.8,52.8l0.9-0.9l-1.5-1.5
	c-0.1,0.2-0.3,0.3-0.5,0.5c-0.2,0.2-0.3,0.3-0.5,0.5L286.8,52.8z M286.8,52.8"/>
<path class="st1" d="M307.1,68c1.2,1.2,1.2,3.1,0,4.2c-1.2,1.2-3.1,1.2-4.2,0l-15.8-15.8l4.2-4.2L307.1,68z M307.1,68"/>
<path class="st4" d="M283.8,15.3c4.5,4.5,7,10.4,7,16.8s-2.5,12.3-7,16.8c-4.5,4.5-10.4,7-16.8,7c-6.3,0-12.3-2.5-16.8-7
	c-4.5-4.5-7-10.4-7-16.8s2.5-12.3,7-16.8c4.5-4.5,10.4-7,16.8-7C273.3,8.4,279.3,10.8,283.8,15.3L283.8,15.3z M287.8,32.1
	c0-5.6-2.2-10.8-6.1-14.7c-3.9-3.9-9.2-6.1-14.7-6.1c-5.6,0-10.8,2.2-14.7,6.1c-3.9,3.9-6.1,9.2-6.1,14.7c0,5.6,2.2,10.8,6.1,14.7
	c3.9,3.9,9.2,6.1,14.7,6.1c5.6,0,10.8-2.2,14.7-6.1C285.6,42.9,287.8,37.7,287.8,32.1L287.8,32.1z M287.8,32.1"/>
<path class="st4" d="M287.7,51.9l-0.9,0.9l-1.5-1.5c0.2-0.1,0.3-0.3,0.5-0.5c0.2-0.2,0.3-0.3,0.5-0.5L287.7,51.9z M287.7,51.9"/>
<path class="st5" d="M281.7,17.4c3.9,3.9,6.1,9.2,6.1,14.7c0,5.6-2.2,10.8-6.1,14.7c-3.9,3.9-9.2,6.1-14.7,6.1
	c-5.6,0-10.8-2.2-14.7-6.1c-3.9-3.9-6.1-9.2-6.1-14.7c0-5.6,2.2-10.8,6.1-14.7c3.9-3.9,9.2-6.1,14.7-6.1
	C272.6,11.3,277.8,13.5,281.7,17.4L281.7,17.4z M279.8,44.9"/>
<path class="st6" d="M279.8,44.9c7-7,7-18.5,0-25.5c-3.4-3.4-7.9-5.3-12.8-5.3s-9.4,1.9-12.8,5.3c-7,7-7,18.5,0,25.5
	c3.4,3.4,7.9,5.3,12.8,5.3S276.3,48.3,279.8,44.9L279.8,44.9z"/>
<path class="st5" d="M278.5,20.6c0.5,0.5,0.5,1.4,0,2c-0.3,0.3-0.6,0.4-1,0.4c-0.4,0-0.7-0.1-1-0.4c-0.8-0.8-1.6-1.4-2.5-2
	c-0.7-0.4-0.9-1.3-0.5-1.9c0.4-0.7,1.3-0.9,1.9-0.5C276.5,18.9,277.6,19.7,278.5,20.6L278.5,20.6z M278.5,20.6"/>
<path class="st5" d="M278.5,41.6c0.5,0.5,0.5,1.4,0,2c-3.1,3.1-7.2,4.8-11.5,4.8c-0.6,0-1.3,0-1.9-0.1c-0.8-0.1-1.3-0.8-1.2-1.5
	c0.1-0.8,0.8-1.3,1.5-1.2c4.1,0.5,8.2-0.9,11.1-3.8C277.1,41.1,277.9,41.1,278.5,41.6L278.5,41.6z M278.5,41.6"/>
<path class="st5" d="M269.5,16.1c0.8,0.1,1.3,0.8,1.2,1.6c-0.1,0.8-0.8,1.3-1.6,1.2c-4.2-0.7-8.6,0.8-11.6,3.8
	c-0.3,0.3-0.6,0.4-1,0.4c-0.4,0-0.7-0.1-1-0.4c-0.5-0.5-0.5-1.4,0-2C259.2,17,264.4,15.3,269.5,16.1L269.5,16.1z M269.5,16.1"/>
<path class="st5" d="M259.9,43.6c0.6,0.4,0.8,1.3,0.4,1.9c-0.3,0.4-0.7,0.7-1.2,0.7c-0.2,0-0.5-0.1-0.7-0.2c-1-0.7-2-1.4-2.9-2.3
	c-0.5-0.5-0.5-1.4,0-2c0.5-0.5,1.4-0.5,2,0C258.2,42.4,259,43,259.9,43.6L259.9,43.6z M259.9,43.6"/>
<g>
	<path class="st7" d="M495.9,18.6c-14.4,0-26.1,11.7-26.1,26.1s11.7,26.1,26.1,26.1S522,59,522,44.6S510.3,18.6,495.9,18.6z"/>
	<path class="st8" d="M495.9,26.4c-10.1,0-18.3,8.2-18.3,18.3s8.2,18.3,18.3,18.3c10.1,0,18.3-8.2,18.3-18.3S506,26.4,495.9,26.4z"
		/>
	<g>
		<path class="st9" d="M495.9,33.1c-6.4,0-11.5,5.2-11.5,11.5s5.2,11.5,11.5,11.5c6.4,0,11.5-5.2,11.5-11.5S502.3,33.1,495.9,33.1z"
			/>
	</g>
	<path class="st4" d="M495.9,38.1c-3.6,0-6.6,2.9-6.6,6.6c0,3.6,2.9,6.6,6.6,6.6c3.6,0,6.6-2.9,6.6-6.6
		C502.5,41,499.5,38.1,495.9,38.1z"/>
	<path class="st10" d="M496.1,44.7c-0.3,0-0.5-0.1-0.7-0.3c-0.4-0.4-0.4-1.1,0-1.5l24.5-24.5c0.4-0.4,1.1-0.4,1.5,0
		c0.4,0.4,0.4,1.1,0,1.5l-24.5,24.5C496.6,44.6,496.3,44.7,496.1,44.7z"/>
	<g>
		<path class="st11" d="M522,4.7L522,4.7c0-0.4-0.3-0.8-0.6-1c-0.4-0.2-0.8-0.1-1.1,0.2l-14.5,14.5c-0.2,0.2-0.3,0.5-0.3,0.7v14.1
			c0,0,0,0,0,0c0,0,0,0.1,0,0.1c0,0,0,0.1,0,0.1c0,0,0,0,0,0.1c0,0,0,0.1,0,0.1c0,0,0,0,0,0c0,0,0,0,0,0c0,0,0,0,0,0.1
			c0,0,0,0,0,0.1c0,0,0,0,0,0.1c0,0,0,0,0,0.1c0,0,0,0,0.1,0.1L522,17.7V4.7z"/>
		<path class="st11" d="M536,18.3c-0.2-0.4-0.5-0.6-1-0.6h-13l-16.2,16.2c0,0,0,0,0.1,0.1c0,0,0,0,0.1,0c0,0,0,0,0.1,0
			c0,0,0,0,0.1,0c0,0,0,0,0.1,0c0,0,0,0,0,0c0,0,0.1,0,0.1,0c0,0,0,0,0,0c0,0,0.1,0,0.1,0c0,0,0,0,0,0c0,0,0.1,0,0.1,0h0h0h14.1
			c0.3,0,0.5-0.1,0.7-0.3l14.5-14.5C536,19.2,536.1,18.7,536,18.3z"/>
	</g>
	<path class="st5" d="M512.8,26.9c0.2,0.2,0.4,0.3,0.7,0.3H528l2.1-2.1h-15.5L512.8,26.9z"/>
	<path class="st5" d="M514.5,9.6l-2.1,2.1v14.8c0,0.3,0.1,0.6,0.3,0.7l1.8-1.8V9.6z"/>
</g>
<g>
	<path class="st1" d="M691,21.4l23.9,23.9L691,69.1V21.4z M691,21.4"/>
	<path class="st5" d="M690.7,69.8c-0.2,0-0.4,0-0.5-0.1c-0.5-0.2-0.9-0.7-0.9-1.3V20.7c0-0.6,0.3-1.1,0.9-1.3
		c0.5-0.2,1.1-0.1,1.5,0.3l23.9,23.9c0.3,0.3,0.4,0.6,0.4,1c0,0.4-0.1,0.7-0.4,1l-23.9,23.9C691.5,69.7,691.1,69.8,690.7,69.8
		L690.7,69.8z M692.1,24.1v41l20.5-20.5L692.1,24.1z M692.1,24.1"/>
	<path class="st5" d="M706.6,46c-0.4,0-0.7-0.1-1-0.4l-9.9-9.9c-0.5-0.5-0.5-1.4,0-2c0.5-0.5,1.4-0.5,2,0l9.9,9.9
		c0.5,0.5,0.5,1.4,0,2C707.3,45.8,706.9,46,706.6,46L706.6,46z M706.6,46"/>
	<path class="st4" d="M751.9,20.7l-23.9,23.9l23.9,23.9V20.7z M751.9,20.7"/>
	<path class="st5" d="M751.9,69.8c-0.4,0-0.7-0.1-1-0.4l-23.9-23.9c-0.3-0.3-0.4-0.6-0.4-1c0-0.4,0.1-0.7,0.4-1l23.9-23.9
		c0.4-0.4,1-0.5,1.5-0.3c0.5,0.2,0.9,0.7,0.9,1.3v47.7c0,0.6-0.3,1.1-0.9,1.3C752.3,69.8,752.1,69.8,751.9,69.8L751.9,69.8z
		 M730,44.6l20.5,20.5v-41L730,44.6z M730,44.6"/>
	<path class="st5" d="M721.3,71.3c-0.8,0-1.4-0.6-1.4-1.4v-35c0-0.8,0.6-1.4,1.4-1.4c0.8,0,1.4,0.6,1.4,1.4v35
		C722.7,70.7,722.1,71.3,721.3,71.3L721.3,71.3z M721.3,71.3"/>
	<path class="st5" d="M721.3,28.5c-0.8,0-1.4-0.6-1.4-1.4v-7.9c0-0.8,0.6-1.4,1.4-1.4c0.8,0,1.4,0.6,1.4,1.4v7.9
		C722.7,27.9,722.1,28.5,721.3,28.5L721.3,28.5z M721.3,28.5"/>
	<path class="st5" d="M700.4,11.6c-0.6-0.4-1.5-0.3-1.9,0.4c-1.1,1.5-2,3.2-2.7,4.9c-0.3,0.7,0,1.5,0.8,1.8c0.2,0.1,0.4,0.1,0.5,0.1
		c0.5,0,1.1-0.3,1.3-0.9c0.6-1.6,1.5-3,2.4-4.4C701.2,12.9,701.1,12.1,700.4,11.6L700.4,11.6z M700.4,11.6"/>
	<path class="st5" d="M745.6,10c0-1.1-1.3-1.8-2.2-1.2l-1.3,0.8c-2.4-2.7-5.3-5-8.5-6.7c-3.9-2-8-2.9-12.4-2.9
		c-6.7,0-13.1,2.4-18.1,6.8c-0.6,0.5-0.6,1.4-0.1,2c0.5,0.6,1.4,0.6,2,0.1c4.5-3.9,10.3-6.1,16.3-6.1c7.1,0,13.8,3,18.4,8.3l-1,0.6
		c-1,0.6-0.9,2,0,2.5l4.9,2.7c1,0.5,2.2-0.2,2.2-1.3L745.6,10z M745.6,10"/>
</g>
</svg>
