<?xml version="1.0" encoding="utf-8"?>
<!-- Generator: Adobe Illustrator 22.1.0, SVG Export Plug-In . SVG Version: 6.00 Build 0)  -->
<svg version="1.1" id="Layer_1" xmlns="http://www.w3.org/2000/svg" xmlns:xlink="http://www.w3.org/1999/xlink" x="0px" y="0px"
	 viewBox="0 0 452.4 107.4" style="enable-background:new 0 0 452.4 107.4;" xml:space="preserve">
<style type="text/css">
	.st0{fill:#E12028;}
	.st1{fill:#CFEAF6;}
	.st2{fill:#E12027;}
	.st3{fill:#1393D1;}
	.st4{fill:#B9342C;}
	.st5{fill:#424143;}
</style>
<g>
	<g>
		<g>
			<path class="st0" d="M335.4,57.7c0-1.6-1.1-2.2-3.5-2.2c-3.4,0-3.9,1-3.9,2.5v1.3c0,0.6-1.1,1.2-2.4,1.2h-1.3
				c-1.3,0-2.4-0.5-2.4-1.2v-0.7c0-3.1,3.9-5.4,10.1-5.4c5.9,0,9.4,1.2,9.4,4.5v20.8c0,0.5-0.5,0.8-1.2,0.8c-0.8,0-1.9,0-2.7,0
				c-1.2,0-1.7-0.3-1.7-0.7c0-0.4,0-0.7-0.1-0.7c-0.1,0-1.1,1.7-7.1,1.7c-4.7,0-7.2-1.7-7.2-4.3v-5.9c0-2.6,1.8-4.1,11.7-5.9
				c1.3-0.2,2.3-0.8,2.3-1.4V57.7L335.4,57.7z M335.4,65.7c-3.1,0-8,0.6-8,2.8v4.7c0,0.6,0.1,1.7,0.3,2.3c0,0,0.3,1.7,3.6,1.7
				c2.6,0,3.6-1.5,3.6-1.5c0.4-0.6,0.7-1.6,0.7-2.3V65.7L335.4,65.7z"/>
			<path class="st0" d="M445,54.3c0-0.5,0.6-0.9,2-0.9h2c1.3,0,1.7,0.5,1.7,1.2V78c0,2.9-1.4,6.4-10.5,6.4c-4.2,0-9.3-1.2-9.3-4.1
				c0-0.5,0.5-0.9,1.8-0.9h2.2c1.3,0,2.2,0.1,2.5,0.9c0.3,0.9,1.3,2.1,3.4,2.1c2.5,0,3.9-1,3.9-2.3v-2.3c0-0.7,0-1.2-0.1-1.2
				c0,0-1.1,1.6-6.4,1.6c-3.7,0-7.5-1.2-7.5-4.4V58.4c0-0.6,0.3-1.7,0.7-2.3c0,0,2-3,6.9-3c5.2,0,6.8,2,6.8,2
				C445.1,55.1,445,54.8,445,54.3L445,54.3z M444.6,57.9c0-1.5-2.3-2.1-4.6-2.1c-2.1,0-3.4,0.8-3.4,2.6v13.9c0,0.7,0.3,1.7,0.5,2.3
				c0,0,0.4,0.9,3.2,0.9c3.2,0,3.9-1.7,3.9-1.7c0.2-0.6,0.4-1.7,0.4-2.3V57.9L444.6,57.9z"/>
			<path class="st0" d="M100.4,46.2c0-0.6,0.4-1.2,1.7-1.2h3c1.3,0,1.7,0.5,1.7,1.2v31.9c0,0.6-0.4,1.2-1.7,1.2H102
				c-1.3,0-1.6-0.5-1.6-1.2V46.2L100.4,46.2z"/>
			<path class="st0" d="M113.8,54.6c0-0.6,0.4-1.2,1.7-1.2h2.4c1.3,0,1.5,0.4,1.5,0.9c0,0.5,0,0.9,0.1,0.9c0,0,0.8-0.4,1.7-0.8
				c0,0,2.2-1.2,5.4-1.2c2.2,0,4.4,0.6,5.7,1.6c1.7-1,3.6-1.6,6.3-1.6c5,0,7.2,1.8,7.2,3.9v21.1c0,0.6-0.4,1.2-1.7,1.2h-2.8
				c-1.3,0-1.5-0.5-1.5-1.2V59.2c0-0.6-0.2-1.7-0.4-2.3c0,0-0.4-1.1-2.6-1.1c-2.4,0-3.9,1.1-3.9,2.4v19.9c0,0.6-0.4,1.2-1.7,1.2
				h-2.6c-1.3,0-1.7-0.5-1.7-1.2V59.2c0-0.6-0.2-1.7-0.4-2.3c0,0-0.4-1.1-2.6-1.1c-2.4,0-3.9,1.1-3.9,2.4v19.9
				c0,0.6-0.4,1.2-1.7,1.2h-2.7c-1.3,0-1.7-0.5-1.7-1.2V54.6L113.8,54.6z"/>
			<path class="st0" d="M166.2,57.7c0-1.6-1.1-2.2-3.5-2.2c-3.4,0-3.9,1-3.9,2.5v1.3c0,0.6-1.1,1.2-2.4,1.2h-1.3
				c-1.3,0-2.4-0.5-2.4-1.2v-0.7c0-3.1,3.9-5.4,10.2-5.4c5.9,0,9.4,1.2,9.4,4.5v20.8c0,0.5-0.1,0.8-0.9,0.8c-0.8,0-2.2,0-3.1,0
				c-1.2,0-1.7-0.3-1.7-0.7c0-0.4,0-0.7-0.1-0.7c-0.1,0-1.1,1.7-7.1,1.7c-4.7,0-7.2-1.7-7.2-4.3v-5.9c0-2.6,1.8-4.1,11.7-5.9
				c1.3-0.2,2.3-0.8,2.3-1.4V57.7L166.2,57.7z M166.2,65.7c-3.1,0-8,0.6-8,2.8v4.7c0,0.6,0.1,1.7,0.2,2.3c0,0,0.4,1.7,3.6,1.7
				c2.7,0,3.6-1.5,3.6-1.5c0.4-0.6,0.6-1.6,0.6-2.3V65.7L166.2,65.7z"/>
			<path class="st0" d="M192.8,54.3c0-0.5,0.6-0.9,1.9-0.9h2c1.3,0,1.7,0.5,1.7,1.2V78c0,2.9-1.4,6.4-10.5,6.4
				c-4.2,0-9.3-1.2-9.3-4.1c0-0.5,0.5-0.9,1.8-0.9h2.2c1.3,0,2.2,0.1,2.5,0.9c0.3,0.9,1.3,2.1,3.4,2.1c2.5,0,3.9-1,3.9-2.3v-2.3
				c0-0.7,0-1.2-0.1-1.2c0,0-1.2,1.6-6.4,1.6c-3.7,0-7.5-1.2-7.5-4.4V58.4c0-0.6,0.3-1.7,0.7-2.3c0,0,2-3,6.9-3c5.2,0,6.8,2,6.8,2
				C192.8,55.1,192.8,54.8,192.8,54.3L192.8,54.3z M192.4,57.9c0-1.5-2.4-2.1-4.6-2.1c-2.1,0-3.4,0.8-3.4,2.6v13.9
				c0,0.7,0.2,1.7,0.6,2.3c0,0,0.4,0.9,3.1,0.9c3.2,0,3.9-1.7,3.9-1.7c0.2-0.6,0.4-1.7,0.4-2.3V57.9L192.4,57.9z"/>
			<path class="st0" d="M205,46.2c0-0.6,1.1-1.2,2.4-1.2h1.7c1.3,0,2.4,0.5,2.4,1.2v1.3c0,0.6-1.1,1.2-2.4,1.2h-1.7
				c-1.3,0-2.4-0.5-2.4-1.2V46.2L205,46.2z M205.2,54.6c0-0.6,0.5-1.2,1.8-1.2h2.6c1.3,0,1.7,0.5,1.7,1.2v23.5
				c0,0.6-1.1,1.2-2.4,1.2h-1.3c-1.3,0-2.4-0.5-2.4-1.2V54.6L205.2,54.6z"/>
			<path class="st0" d="M218,54.6c0-0.6,1.1-1.2,2.4-1.2h0.9c1.3,0,2.4,0.4,2.4,0.9c0,0.5,0,0.9,0.1,0.9c0.1,0,0.8-0.4,1.7-0.8
				c0,0,2.3-1.2,5.4-1.2c5,0,7.2,1.8,7.2,3.9v21.1c0,0.6-1.1,1.2-2.4,1.2h-1.3c-1.3,0-2.4-0.5-2.4-1.2V59.3c0-0.6-0.2-1.7-0.5-2.3
				c0,0-0.5-1.2-3.3-1.2c-2.8,0-4.2,1.3-4.2,2.4v19.9c0,0.6-1.1,1.2-2.4,1.2h-1.3c-1.3,0-2.4-0.5-2.4-1.2V54.6L218,54.6z"/>
			<path class="st0" d="M259.1,72.1c0-0.6,1.1-1.1,2.4-1.1h1.3c1.3,0,2.4,0.5,2.4,1.1v1.3c0,0.6-0.5,6.1-10.1,6.1c-5.2,0-10-1-10-5
				V59.3c0-4.5,4.9-6.1,10-6.1c5.2,0,10.1,1.5,10.1,5.5v7.3c0,0.6-1.1,1.2-2.4,1.2h-9.3c-1.3,0-2.4,0.5-2.4,1.2v5.2
				c0,0.6,0.3,1.7,0.7,2.3c0,0,0.9,1.5,3.3,1.5c2.4,0,3.3-1.5,3.3-1.5c0.4-0.6,0.7-1.6,0.7-2.3V72.1L259.1,72.1z M259.1,58.1
				c0-1.9-1.6-2.6-4-2.6c-2.4,0-4,0.7-4,2.6v5.1c0,0.6,1.1,1.2,2.4,1.2h3.2c1.3,0,2.4-0.5,2.4-1.2V58.1L259.1,58.1z"/>
			<path class="st0" d="M309.6,72.1c0-0.6,1.1-1.1,2.4-1.1h1.3c1.3,0,2.4,0.5,2.4,1.1v1.3c0,0.6-0.5,6.1-10.1,6.1c-5.2,0-10-1-10-5
				V59.3c0-4.5,4.9-6.1,10-6.1c5.2,0,10.1,1.5,10.1,5.5v7.3c0,0.6-1.1,1.2-2.4,1.2H304c-1.3,0-2.4,0.5-2.4,1.2v5.2
				c0,0.6,0.3,1.7,0.7,2.3c0,0,0.9,1.5,3.3,1.5c2.5,0,3.3-1.5,3.3-1.5c0.4-0.6,0.7-1.6,0.7-2.3V72.1L309.6,72.1z M309.6,58.1
				c0-1.9-1.5-2.6-4-2.6c-2.4,0-4,0.7-4,2.6v5.1c0,0.6,1.1,1.2,2.4,1.2h3.2c1.3,0,2.4-0.5,2.4-1.2V58.1L309.6,58.1z"/>
			<path class="st0" d="M275.1,46.2c0-0.6,1.1-1.2,2.4-1.2h1.7c1.3,0,2.4,0.5,2.4,1.2v29.3c0,0.6,1.1,1.1,2.4,1.1h5.9
				c1.3,0,2.4,0.5,2.4,1.2v0.3c0,0.6-1.1,1.2-2.4,1.2h-12.3c-1.3,0-2.4-0.5-2.4-1.2V46.2L275.1,46.2z"/>
			<path class="st0" d="M347.6,54.6c0-0.6,1.1-1.2,2.4-1.2h0.9c1.3,0,2.4,0.4,2.4,0.9c0,0.5,0,0.9,0.1,0.9c0.1,0,1.4-2.4,7.1-2.1
				c0.6,0.1,1.1,0.3,1.1,0.9c0,0.4,0,2.8,0,2.8c0,0.7-0.8,1.3-1.5,0.8c-1.8-1.4-6.4-1-6.4,2.2v18.2c0,0.6-0.4,1.2-1.7,1.2h-2.6
				c-1.3,0-1.7-0.5-1.7-1.2V54.6L347.6,54.6z"/>
			<path class="st0" d="M366,54.6c0-0.6,0.4-1.2,1.7-1.2h2.3c1.3,0,1.7,0.4,1.7,0.9c0,0.5,0,0.9,0,0.9s1.8-2,7.2-2
				c5,0,7.2,1.8,7.2,3.9v21.1c0,0.6-0.4,1.2-1.7,1.2h-2.6c-1.3,0-1.7-0.5-1.7-1.2V59.3c0-0.6-0.2-1.7-0.5-2.3c0,0-0.6-1.2-3.3-1.2
				c-2.8,0-4.2,1.3-4.2,2.4v19.9c0,0.6-0.4,1.2-1.7,1.2h-2.6c-1.3,0-1.7-0.5-1.7-1.2V54.6L366,54.6z"/>
			<path class="st0" d="M392.1,46.2c0-0.6,1.1-1.2,2.4-1.2h1.7c1.3,0,2.4,0.5,2.4,1.2v1.3c0,0.6-1.1,1.2-2.4,1.2h-1.7
				c-1.3,0-2.4-0.5-2.4-1.2V46.2L392.1,46.2z M392.3,54.6c0-0.6,0.4-1.2,1.7-1.2h2.7c1.3,0,1.7,0.5,1.7,1.2v23.5
				c0,0.6-0.4,1.2-1.7,1.2H394c-1.3,0-1.7-0.5-1.7-1.2V54.6L392.3,54.6z"/>
			<path class="st0" d="M404.6,54.6c0-0.6,0.4-1.2,1.7-1.2h2.3c1.3,0,1.7,0.4,1.7,0.9c0,0.5,0,0.9,0.1,0.9c0.1,0,0.8-0.4,1.7-0.8
				c0,0,2.3-1.2,5.4-1.2c5,0,7.2,1.8,7.2,3.9v21.1c0,0.6-0.4,1.2-1.7,1.2h-2.7c-1.3,0-1.7-0.5-1.7-1.2V59.3c0-0.6-0.2-1.7-0.5-2.3
				c0,0-0.6-1.2-3.3-1.2c-2.8,0-4.2,1.3-4.2,2.4v19.9c0,0.6-0.4,1.2-1.7,1.2h-2.7c-1.3,0-1.7-0.5-1.7-1.2V54.6L404.6,54.6z"/>
			<path class="st0" d="M55.4,38.6c-6.5-1.4-11.2-9-10.4-17c0.8-8.1,6.7-13.5,13.3-12.2c6.5,1.4,11.2,9,10.4,17.1
				C67.9,34.5,62,40,55.4,38.6L55.4,38.6z"/>
			<path class="st1" d="M48.2,72.4c-1.5-1.9-2.2-4.2-2.2-6.7c0-3.8,1.6-7.8,4.3-10.5c0.9-1,3.7-3.5,7.3-6.9c2.4,2.3,4.1,3.9,4.9,4.7
				c3.1,3.1,5,7.8,5,12.3c0,2.9-0.8,5.6-2.6,7.8c-1.3,1.5-4.3,4.5-8,7.8C52.9,77.2,49.5,74,48.2,72.4"/>
			<path class="st2" d="M48.2,72.4c-3.9-4.8-2.3-12.8,2.1-17.2c0.9-1,3.7-3.5,7.3-7C44.6,35.9,11.7,4.9,8.4,1.5
				C4.5-2.4-2.2,1.9,0.7,6.7c2.9,4.8,35.9,53.8,35.9,53.8c0.9,1.6,1.5,4.5,1.2,6.3c0,0-15.7,30-17.2,34.6c-1.8,5.4,5.2,8.3,9.9,3.3
				c3.4-3.6,17.2-15.4,26.4-24C52.9,77.2,49.5,74,48.2,72.4L48.2,72.4z"/>
			<path class="st3" d="M98,20.8c2.5-4.1-3.2-7.8-6.6-4.4c-2.6,2.5-22.5,21.2-33.8,31.9c2.4,2.3,4.1,3.9,4.9,4.7
				c5.1,5.1,6.9,14.5,2.4,20.1c-1.3,1.6-4.3,4.5-8,7.9c7.8,7.1,18,16,20.7,18.8c4.1,4.2,10.1,1.8,8.5-2.8
				c-1.3-4-14.8-29.6-14.8-29.6c-0.2-1.6,0.2-4.1,1-5.4C72.4,61.7,95.5,24.9,98,20.8L98,20.8z"/>
			<path class="st4" d="M48.2,72.4c-1.5-1.9-2.2-4.2-2.2-6.7c0-3.8,1.6-7.8,4.3-10.5c0.9-1,3.7-3.5,7.3-6.9c2.4,2.3,4.1,3.9,4.8,4.7
				c3.1,3.1,5,7.8,5,12.3c0,2.9-0.8,5.6-2.6,7.8c-1.3,1.5-4.3,4.5-7.9,7.8C52.9,77.2,49.5,74,48.2,72.4"/>
		</g>
	</g>
	<g>
		<g>
			<path class="st5" d="M99.8,92.2c0.7-0.1,1.6-0.2,2.7-0.2c1.4,0,2.4,0.3,3,0.9c0.6,0.5,0.9,1.3,0.9,2.3c0,1-0.3,1.7-0.8,2.3
				c-0.7,0.8-1.9,1.2-3.3,1.2c-0.4,0-0.8,0-1.1-0.1v4.3h-1.4V92.2z M101.2,97.4c0.3,0.1,0.7,0.1,1.1,0.1c1.7,0,2.7-0.8,2.7-2.3
				c0-1.4-1-2.1-2.5-2.1c-0.6,0-1.1,0-1.3,0.1V97.4z"/>
			<path class="st5" d="M108.4,91.5h1.4v4.8h0c0.2-0.4,0.6-0.8,1-1c0.4-0.2,0.9-0.4,1.4-0.4c1,0,2.7,0.6,2.7,3.3v4.6h-1.4v-4.4
				c0-1.2-0.5-2.3-1.8-2.3c-0.9,0-1.6,0.6-1.9,1.4c-0.1,0.2-0.1,0.4-0.1,0.7v4.7h-1.4V91.5z"/>
			<path class="st5" d="M121.7,102.8l-0.1-1h0c-0.4,0.6-1.3,1.2-2.4,1.2c-1.6,0-2.4-1.1-2.4-2.2c0-1.9,1.7-2.9,4.6-2.9v-0.2
				c0-0.6-0.2-1.8-1.8-1.8c-0.7,0-1.5,0.2-2,0.6l-0.3-0.9c0.6-0.4,1.6-0.7,2.5-0.7c2.4,0,2.9,1.6,2.9,3.2v2.9c0,0.7,0,1.3,0.1,1.9
				H121.7z M120.5,91.8l1.4,2.3h-1.1l-0.8-1.5h0l-0.8,1.5h-1l1.3-2.3H120.5z M121.5,98.9c-1.5,0-3.3,0.2-3.3,1.7
				c0,0.9,0.6,1.3,1.3,1.3c1,0,1.6-0.6,1.9-1.3c0-0.1,0.1-0.3,0.1-0.4V98.9z M121.9,90.5l1,2.1h-0.8l-1.5-2.1H121.9z"/>
			<path class="st5" d="M125.3,97.2c0-0.8,0-1.5-0.1-2.1h1.2l0.1,1.3h0c0.4-0.7,1.3-1.5,2.6-1.5c1.1,0,2.7,0.6,2.7,3.3v4.6h-1.4
				v-4.5c0-1.2-0.5-2.3-1.8-2.3c-0.9,0-1.6,0.7-1.9,1.4c-0.1,0.2-0.1,0.4-0.1,0.7v4.7h-1.4V97.2z"/>
			<path class="st5" d="M137.9,97.2c0-0.8,0-1.5-0.1-2.1h1.2l0.1,1.2h0c0.4-0.7,1.1-1.4,2.4-1.4c1.1,0,1.9,0.6,2.2,1.5h0
				c0.2-0.4,0.5-0.8,0.9-1c0.5-0.4,1-0.5,1.7-0.5c1,0,2.5,0.7,2.5,3.4v4.6h-1.4v-4.4c0-1.5-0.5-2.4-1.7-2.4c-0.8,0-1.4,0.6-1.7,1.3
				c-0.1,0.2-0.1,0.4-0.1,0.7v4.8h-1.4v-4.6c0-1.2-0.5-2.1-1.6-2.1c-0.9,0-1.5,0.7-1.7,1.4c-0.1,0.2-0.1,0.4-0.1,0.7v4.7h-1.4V97.2z
				"/>
			<path class="st5" d="M152.2,99.2c0,1.9,1.2,2.7,2.7,2.7c1,0,1.6-0.2,2.1-0.4l0.2,1c-0.5,0.2-1.3,0.5-2.6,0.5
				c-2.4,0-3.8-1.6-3.8-3.9c0-2.3,1.4-4.2,3.6-4.2c2.5,0,3.2,2.2,3.2,3.6c0,0.3,0,0.5,0,0.7H152.2z M156.3,98.2c0-0.9-0.4-2.3-2-2.3
				c-1.4,0-2,1.3-2.2,2.3H156.3z M155,91.8l1.4,2.3h-1.1l-0.8-1.5h0l-0.8,1.5h-1l1.3-2.3H155z M156.4,90.5l1,2.1h-0.8l-1.5-2.1
				H156.4z"/>
			<path class="st5" d="M159.6,97.2c0-0.8,0-1.5-0.1-2.1h1.2l0.1,1.2h0c0.4-0.7,1.1-1.4,2.4-1.4c1.1,0,1.9,0.6,2.2,1.5h0
				c0.2-0.4,0.5-0.8,0.9-1c0.5-0.4,1-0.5,1.7-0.5c1,0,2.5,0.7,2.5,3.4v4.6h-1.4v-4.4c0-1.5-0.5-2.4-1.7-2.4c-0.8,0-1.4,0.6-1.7,1.3
				c-0.1,0.2-0.1,0.4-0.1,0.7v4.8h-1.4v-4.6c0-1.2-0.5-2.1-1.6-2.1c-0.9,0-1.5,0.7-1.7,1.4c-0.1,0.2-0.1,0.4-0.1,0.7v4.7h-1.4V97.2z
				"/>
			<path class="st5" d="M183.3,95.1c0,0.6-0.1,1.2-0.1,2.1v4.5c0,1.8-0.4,2.9-1.1,3.5c-0.8,0.7-1.8,0.9-2.8,0.9
				c-0.9,0-1.9-0.2-2.6-0.6l0.4-1.1c0.5,0.3,1.3,0.6,2.3,0.6c1.4,0,2.5-0.8,2.5-2.7v-0.9h0c-0.4,0.7-1.3,1.3-2.5,1.3
				c-1.9,0-3.3-1.6-3.3-3.8c0-2.6,1.7-4.1,3.5-4.1c1.3,0,2.1,0.7,2.4,1.3h0l0.1-1.2H183.3z M181.9,98.2c0-0.2,0-0.4-0.1-0.6
				c-0.3-0.8-0.9-1.5-2-1.5c-1.3,0-2.3,1.1-2.3,2.9c0,1.5,0.8,2.8,2.3,2.8c0.9,0,1.6-0.5,2-1.4c0.1-0.2,0.1-0.5,0.1-0.8V98.2z"/>
			<path class="st5" d="M187.2,92.9c0,0.5-0.3,0.9-0.9,0.9c-0.5,0-0.8-0.4-0.8-0.9c0-0.5,0.4-0.9,0.9-0.9
				C186.9,92.1,187.2,92.4,187.2,92.9z M185.7,102.8v-7.7h1.4v7.7H185.7z"/>
			<path class="st5" d="M193.9,102.8l-0.1-1h0c-0.4,0.6-1.3,1.2-2.4,1.2c-1.6,0-2.4-1.1-2.4-2.2c0-1.9,1.7-2.9,4.6-2.9v-0.2
				c0-0.6-0.2-1.8-1.8-1.8c-0.7,0-1.5,0.2-2,0.6l-0.3-0.9c0.6-0.4,1.6-0.7,2.5-0.7c2.4,0,2.9,1.6,2.9,3.2v2.9c0,0.7,0,1.3,0.1,1.9
				H193.9z M193.7,98.9c-1.5,0-3.3,0.2-3.3,1.7c0,0.9,0.6,1.3,1.3,1.3c1,0,1.6-0.6,1.9-1.3c0-0.1,0.1-0.3,0.1-0.4V98.9z M191.8,94.2
				c0.2-0.7,0.9-0.9,0.9-1.5c0-0.3-0.2-0.5-0.5-0.5c-0.3,0-0.6,0.3-0.8,0.6l-0.5-0.3c0.3-0.6,0.8-1.1,1.5-1.1c0.8,0,1.4,0.5,1.4,1.2
				c0,0.9-0.8,1.2-1.2,1.9L191.8,94.2z"/>
			<path class="st5" d="M197.5,97.2c0-0.8,0-1.5-0.1-2.1h1.2l0.1,1.3h0c0.4-0.7,1.3-1.5,2.6-1.5c1.1,0,2.7,0.6,2.7,3.3v4.6h-1.4
				v-4.5c0-1.2-0.5-2.3-1.8-2.3c-0.9,0-1.6,0.7-1.9,1.4c-0.1,0.2-0.1,0.4-0.1,0.7v4.7h-1.4V97.2z"/>
			<path class="st5" d="M213.2,95.1c0,0.6-0.1,1.2-0.1,2.1v4.5c0,1.8-0.4,2.9-1.1,3.5c-0.8,0.7-1.8,0.9-2.8,0.9
				c-0.9,0-1.9-0.2-2.6-0.6l0.4-1.1c0.5,0.3,1.3,0.6,2.3,0.6c1.4,0,2.5-0.8,2.5-2.7v-0.9h0c-0.4,0.7-1.3,1.3-2.5,1.3
				c-1.9,0-3.3-1.6-3.3-3.8c0-2.6,1.7-4.1,3.5-4.1c1.3,0,2.1,0.7,2.4,1.3h0l0.1-1.2H213.2z M211.7,98.2c0-0.2,0-0.4-0.1-0.6
				c-0.3-0.8-0.9-1.5-2-1.5c-1.3,0-2.3,1.1-2.3,2.9c0,1.5,0.8,2.8,2.3,2.8c0.9,0,1.6-0.5,2-1.4c0.1-0.2,0.1-0.5,0.1-0.8V98.2z"/>
			<path class="st5" d="M225.9,91.5v9.3c0,0.7,0,1.5,0.1,2h-1.3l-0.1-1.3h0c-0.4,0.9-1.4,1.5-2.6,1.5c-1.9,0-3.3-1.6-3.3-3.9
				c0-2.6,1.6-4.2,3.5-4.2c1.2,0,2,0.6,2.3,1.2h0v-4.6H225.9z M224.5,98.3c0-0.2,0-0.4-0.1-0.6c-0.2-0.9-1-1.6-2-1.6
				c-1.5,0-2.3,1.3-2.3,3c0,1.6,0.8,2.9,2.3,2.9c0.9,0,1.8-0.6,2.1-1.7c0-0.2,0.1-0.4,0.1-0.6V98.3z"/>
			<path class="st5" d="M232.7,102.8l-0.1-1h0c-0.4,0.6-1.3,1.2-2.4,1.2c-1.6,0-2.4-1.1-2.4-2.2c0-1.9,1.7-2.9,4.6-2.9v-0.2
				c0-0.6-0.2-1.8-1.8-1.8c-0.7,0-1.5,0.2-2,0.6l-0.3-0.9c0.6-0.4,1.6-0.7,2.5-0.7c2.4,0,2.9,1.6,2.9,3.2v2.9c0,0.7,0,1.3,0.1,1.9
				H232.7z M232.5,98.9c-1.5,0-3.3,0.2-3.3,1.7c0,0.9,0.6,1.3,1.3,1.3c1,0,1.6-0.6,1.9-1.3c0-0.1,0.1-0.3,0.1-0.4V98.9z
				 M231.9,104.9c0,0.4-0.3,0.8-0.8,0.8c-0.4,0-0.8-0.4-0.8-0.8c0-0.4,0.4-0.8,0.8-0.8C231.5,104.1,231.9,104.5,231.9,104.9z"/>
			<path class="st5" d="M236.7,95.1l1.7,4.6c0.2,0.5,0.4,1.1,0.5,1.6h0c0.1-0.5,0.3-1.1,0.5-1.6l1.5-4.5h1.5l-2.1,5.5
				c-1,2.7-1.7,4-2.7,4.8c-0.7,0.6-1.4,0.8-1.7,0.9l-0.4-1.2c0.4-0.1,0.8-0.3,1.2-0.7c0.4-0.3,0.9-0.8,1.2-1.6
				c0.1-0.1,0.1-0.3,0.1-0.3c0-0.1,0-0.2-0.1-0.4l-2.9-7.1H236.7z"/>
			<path class="st5" d="M252.9,102.6c-0.4,0.2-1.2,0.4-2.2,0.4c-2.3,0-3.9-1.6-3.9-3.9c0-2.4,1.6-4.1,4.2-4.1c0.8,0,1.6,0.2,1.9,0.4
				l-0.3,1.1c-0.3-0.2-0.9-0.4-1.6-0.4c-1.8,0-2.7,1.3-2.7,2.9c0,1.8,1.2,2.9,2.7,2.9c0.8,0,1.3-0.2,1.7-0.4L252.9,102.6z"/>
			<path class="st5" d="M261.2,100.7c0,0.8,0,1.5,0.1,2.1H260l-0.1-1.3h0c-0.4,0.6-1.2,1.4-2.6,1.4c-1.2,0-2.7-0.7-2.7-3.4v-4.5h1.4
				v4.3c0,1.5,0.4,2.5,1.7,2.5c0.9,0,1.6-0.7,1.9-1.3c0.1-0.2,0.1-0.5,0.1-0.7v-4.7h1.4V100.7z M257.4,94.2c0.2-0.7,0.9-0.9,0.9-1.5
				c0-0.3-0.2-0.5-0.5-0.5c-0.3,0-0.6,0.3-0.8,0.6l-0.5-0.3c0.3-0.6,0.8-1.1,1.6-1.1c0.8,0,1.3,0.5,1.3,1.2c0,0.9-0.8,1.2-1.2,1.9
				L257.4,94.2z"/>
			<path class="st5" d="M268,102.8l-0.1-1h0c-0.4,0.6-1.3,1.2-2.4,1.2c-1.6,0-2.4-1.1-2.4-2.2c0-1.9,1.7-2.9,4.6-2.9v-0.2
				c0-0.6-0.2-1.8-1.8-1.8c-0.7,0-1.5,0.2-2,0.6l-0.3-0.9c0.6-0.4,1.6-0.7,2.5-0.7c2.4,0,2.9,1.6,2.9,3.2v2.9c0,0.7,0,1.3,0.1,1.9
				H268z M267.8,98.9c-1.5,0-3.3,0.2-3.3,1.7c0,0.9,0.6,1.3,1.3,1.3c1,0,1.6-0.6,1.9-1.3c0-0.1,0.1-0.3,0.1-0.4V98.9z"/>
			<path class="st5" d="M276.6,92.1v4.5h5.2v-4.5h1.4v10.8h-1.4v-5.1h-5.2v5.1h-1.4V92.1H276.6z"/>
			<path class="st5" d="M292.8,98.9c0,2.9-2,4.1-3.9,4.1c-2.1,0-3.7-1.5-3.7-4c0-2.6,1.7-4.1,3.8-4.1
				C291.3,94.9,292.8,96.6,292.8,98.9z M286.6,99c0,1.7,1,3,2.4,3c1.3,0,2.3-1.3,2.3-3c0-1.3-0.7-3-2.3-3
				C287.3,96,286.6,97.5,286.6,99z"/>
			<path class="st5" d="M299,102.8l-0.1-1h0c-0.4,0.6-1.3,1.2-2.4,1.2c-1.6,0-2.4-1.1-2.4-2.2c0-1.9,1.7-2.9,4.6-2.9v-0.2
				c0-0.6-0.2-1.8-1.8-1.8c-0.7,0-1.5,0.2-2,0.6l-0.3-0.9c0.6-0.4,1.6-0.7,2.5-0.7c2.4,0,2.9,1.6,2.9,3.2v2.9c0,0.7,0,1.3,0.1,1.9
				H299z M298.8,98.9c-1.5,0-3.3,0.2-3.3,1.7c0,0.9,0.6,1.3,1.3,1.3c1,0,1.6-0.6,1.9-1.3c0-0.1,0.1-0.3,0.1-0.4V98.9z"/>
			<path class="st5" d="M306.2,92.1h1.4v5.2h0c0.3-0.4,0.6-0.8,0.8-1.2l3.3-4h1.7l-3.9,4.6l4.2,6.2h-1.6l-3.5-5.3l-1,1.2v4.1h-1.4
				V92.1z"/>
			<path class="st5" d="M315.3,95.1l1.7,4.6c0.2,0.5,0.4,1.1,0.5,1.6h0c0.1-0.5,0.3-1.1,0.5-1.6l1.5-4.5h1.5l-2.1,5.5
				c-1,2.7-1.7,4-2.7,4.8c-0.7,0.6-1.4,0.8-1.7,0.9l-0.4-1.2c0.4-0.1,0.8-0.3,1.2-0.7c0.4-0.3,0.9-0.8,1.2-1.6
				c0.1-0.1,0.1-0.3,0.1-0.3c0-0.1,0-0.2-0.1-0.4l-2.9-7.1H315.3z M316.8,91.8l1.4,2.3h-1l-2-2.3H316.8z"/>
			<path class="st5" d="M332.7,94v6.8c0,0.7,0,1.5,0.1,2h-1.3l-0.1-1.3h0c-0.4,0.9-1.4,1.5-2.6,1.5c-1.9,0-3.3-1.6-3.3-3.9
				c0-2.6,1.6-4.2,3.5-4.2c1.2,0,2,0.6,2.3,1.2h0V94h-3.1v-0.9h3.1v-1.6h1.4v1.6h1.2V94H332.7z M331.3,98.3c0-0.2,0-0.4-0.1-0.6
				c-0.2-0.9-1-1.6-2-1.6c-1.5,0-2.3,1.3-2.3,3c0,1.6,0.8,2.9,2.3,2.9c0.9,0,1.8-0.6,2.1-1.7c0-0.2,0.1-0.4,0.1-0.6V98.3z"/>
			<path class="st5" d="M342.2,98.9c0,2.9-2,4.1-3.9,4.1c-2.1,0-3.7-1.5-3.7-4c0-2.6,1.7-4.1,3.8-4.1
				C340.7,94.9,342.2,96.6,342.2,98.9z M336.1,99c0,1.7,1,3,2.4,3c1.3,0,2.3-1.3,2.3-3c0-1.3-0.7-3-2.3-3
				C336.8,96,336.1,97.5,336.1,99z M338.9,91.8l1.5,2.3h-1.1l-0.9-1.5h0l-0.9,1.5h-1l1.5-2.3H338.9z M339.2,104.9
				c0,0.4-0.3,0.8-0.8,0.8c-0.4,0-0.8-0.4-0.8-0.8c0-0.4,0.4-0.8,0.8-0.8C338.9,104.1,339.2,104.5,339.2,104.9z"/>
			<path class="st5" d="M349.7,102.6c-0.4,0.2-1.2,0.4-2.2,0.4c-2.3,0-3.9-1.6-3.9-3.9c0-2.4,1.6-4.1,4.2-4.1c0.8,0,1.6,0.2,1.9,0.4
				l-0.3,1.1c-0.3-0.2-0.9-0.4-1.6-0.4c-1.8,0-2.7,1.3-2.7,2.9c0,1.8,1.2,2.9,2.7,2.9c0.8,0,1.3-0.2,1.7-0.4L349.7,102.6z"/>
			<path class="st5" d="M360.3,101.6L360.3,101.6c-0.4,0.8-1.3,1.4-2.6,1.4c-1.8,0-3.3-1.6-3.3-3.9c0-2.9,1.9-4.2,3.5-4.2
				c1.2,0,2,0.6,2.4,1.3h0l0-1.2h1.3c0,0.7,0,1.3,0,2.1v8.8h-1.4V101.6z M360.3,98.2c0-0.2,0-0.4-0.1-0.6c-0.2-0.9-1-1.6-2-1.6
				c-1.5,0-2.3,1.2-2.3,3c0,1.5,0.7,2.9,2.3,2.9c0.9,0,1.7-0.6,2-1.5c0.1-0.2,0.1-0.5,0.1-0.7V98.2z"/>
			<path class="st5" d="M370.7,100.7c0,0.8,0,1.5,0.1,2.1h-1.2l-0.1-1.3h0c-0.4,0.6-1.2,1.4-2.6,1.4c-1.2,0-2.7-0.7-2.7-3.4v-4.5
				h1.4v4.3c0,1.5,0.4,2.5,1.7,2.5c0.9,0,1.6-0.7,1.9-1.3c0.1-0.2,0.1-0.5,0.1-0.7v-4.7h1.4V100.7z"/>
			<path class="st5" d="M373.7,95.1l1.7,4.6c0.2,0.5,0.4,1.1,0.5,1.6h0c0.1-0.5,0.3-1.1,0.5-1.6l1.5-4.5h1.5l-2.1,5.5
				c-1,2.7-1.7,4-2.7,4.8c-0.7,0.6-1.4,0.8-1.7,0.9l-0.4-1.2c0.4-0.1,0.8-0.3,1.2-0.7c0.4-0.3,0.9-0.8,1.2-1.6
				c0.1-0.1,0.1-0.3,0.1-0.3c0-0.1,0-0.2-0.1-0.4l-2.9-7.1H373.7z"/>
			<path class="st5" d="M381.5,99.2c0,1.9,1.2,2.7,2.7,2.7c1,0,1.6-0.2,2.1-0.4l0.2,1c-0.5,0.2-1.3,0.5-2.6,0.5
				c-2.4,0-3.8-1.6-3.8-3.9c0-2.3,1.4-4.2,3.6-4.2c2.5,0,3.2,2.2,3.2,3.6c0,0.3,0,0.5,0,0.7H381.5z M385.7,98.2c0-0.9-0.4-2.3-2-2.3
				c-1.4,0-2,1.3-2.2,2.3H385.7z M384.3,91.8l1.4,2.3h-1.1l-0.8-1.5h0l-0.8,1.5h-1l1.3-2.3H384.3z M385.7,90.5l1,2.1h-0.8l-1.5-2.1
				H385.7z"/>
			<path class="st5" d="M388.9,97.2c0-0.8,0-1.5-0.1-2.1h1.2l0.1,1.3h0c0.4-0.7,1.3-1.5,2.6-1.5c1.1,0,2.7,0.6,2.7,3.3v4.6h-1.4
				v-4.5c0-1.2-0.5-2.3-1.8-2.3c-0.9,0-1.6,0.7-1.9,1.4c-0.1,0.2-0.1,0.4-0.1,0.7v4.7h-1.4V97.2z"/>
			<path class="st5" d="M401.5,102.8c0-0.5,0.1-1.3,0.1-2v-9.3h1.4v4.9h0c0.5-0.9,1.4-1.4,2.6-1.4c1.9,0,3.3,1.6,3.3,3.9
				c0,2.8-1.7,4.1-3.5,4.1c-1.1,0-2-0.4-2.6-1.5h0l-0.1,1.3H401.5z M402.9,99.7c0,0.2,0,0.4,0.1,0.5c0.3,1,1.1,1.6,2.1,1.6
				c1.5,0,2.3-1.2,2.3-3c0-1.5-0.8-2.9-2.3-2.9c-1,0-1.9,0.7-2.1,1.7c0,0.2-0.1,0.4-0.1,0.6V99.7z"/>
			<path class="st5" d="M418.2,93.8c0.2,0.3,0.3,0.7,0.3,1.2c0,0.9-0.5,1.4-1.5,1.4c0.5,0.6,0.8,1.5,0.8,2.6c0,2.9-2,4.1-3.9,4.1
				c-2.1,0-3.7-1.5-3.7-4c0-2.6,1.7-4.1,3.8-4.1c0.5,0,0.9,0.1,1.3,0.2c0.4,0.1,0.9,0.4,1.4,0.4c0.4,0,0.6-0.2,0.6-0.6
				c0-0.4-0.1-0.7-0.3-0.9L418.2,93.8z M411.7,99c0,1.7,1,3,2.4,3c1.3,0,2.3-1.3,2.3-3c0-1.3-0.7-3-2.3-3
				C412.4,96,411.7,97.5,411.7,99z M413.5,94.2c0.2-0.7,0.9-0.9,0.9-1.5c0-0.3-0.2-0.5-0.5-0.5c-0.4,0-0.6,0.3-0.8,0.6l-0.5-0.3
				c0.3-0.6,0.8-1.1,1.5-1.1c0.8,0,1.4,0.5,1.4,1.2c0,0.9-0.8,1.2-1.2,1.9L413.5,94.2z"/>
			<path class="st5" d="M421.4,92.9c0,0.5-0.3,0.9-0.9,0.9c-0.5,0-0.8-0.4-0.8-0.9c0-0.5,0.4-0.9,0.9-0.9
				C421.1,92.1,421.4,92.4,421.4,92.9z M419.8,102.8v-7.7h1.4v7.7H419.8z"/>
			<path class="st5" d="M429.2,102.8l-3.5-10.8h1.5l1.7,5.3c0.5,1.5,0.9,2.8,1.1,4h0c0.3-1.2,0.8-2.6,1.2-4l1.8-5.3h1.5l-3.9,10.8
				H429.2z"/>
			<path class="st5" d="M437.3,92.1v6.4c0,2.4,1.1,3.4,2.5,3.4c1.6,0,2.6-1.1,2.6-3.4v-6.4h1.4v6.3c0,3.3-1.7,4.7-4.1,4.7
				c-2.2,0-3.9-1.3-3.9-4.6v-6.3H437.3z"/>
			<path class="st5" d="M446.2,101.2c0.6,0.4,1.5,0.7,2.5,0.7c1.4,0,2.3-0.8,2.3-1.8c0-1-0.6-1.6-2-2.1c-1.8-0.6-2.8-1.5-2.8-3.1
				c0-1.7,1.4-2.9,3.5-2.9c1.1,0,1.9,0.3,2.4,0.5l-0.4,1.1c-0.4-0.2-1.1-0.5-2-0.5c-1.5,0-2,0.9-2,1.6c0,1,0.7,1.5,2.1,2.1
				c1.8,0.7,2.7,1.6,2.7,3.2c0,1.7-1.2,3.1-3.8,3.1c-1,0-2.2-0.3-2.7-0.7L446.2,101.2z"/>
		</g>
	</g>
</g>
</svg>
