<?xml version="1.0" encoding="utf-8"?>
<!-- Generator: Adobe Illustrator 22.1.0, SVG Export Plug-In . SVG Version: 6.00 Build 0)  -->
<svg version="1.1" id="Layer_1" xmlns="http://www.w3.org/2000/svg" xmlns:xlink="http://www.w3.org/1999/xlink" x="0px" y="0px"
	 viewBox="0 0 1042.3 322.2" style="enable-background:new 0 0 1042.3 322.2;" xml:space="preserve">
<style type="text/css">
	.st0{fill:#FFFFFF;}
	.st1{fill:#F5D2C7;}
	.st2{fill:#05306D;}
	.st3{opacity:0.55;}
	.st4{fill:#231F20;}
	.st5{fill:#0092B0;}
	.st6{fill:#F37721;}
	.st7{fill:#77C7A6;}
	.st8{fill-rule:evenodd;clip-rule:evenodd;fill:#F2CAA8;}
	.st9{fill-rule:evenodd;clip-rule:evenodd;fill:#FFFFFF;}
	.st10{fill-rule:evenodd;clip-rule:evenodd;fill:#28557D;}
	.st11{fill-rule:evenodd;clip-rule:evenodd;fill:#57291E;}
	.st12{fill-rule:evenodd;clip-rule:evenodd;fill:#FDD6B7;}
	.st13{fill-rule:evenodd;clip-rule:evenodd;fill:#D1A886;}
	.st14{fill-rule:evenodd;clip-rule:evenodd;fill:#FDE5D4;}
	.st15{fill-rule:evenodd;clip-rule:evenodd;fill:#4073A1;}
	.st16{fill-rule:evenodd;clip-rule:evenodd;fill:#F68C2A;}
	.st17{fill-rule:evenodd;clip-rule:evenodd;fill:#CBCBCA;}
	.st18{fill-rule:evenodd;clip-rule:evenodd;fill:#FBAF23;}
	.st19{fill-rule:evenodd;clip-rule:evenodd;fill:#B89B3C;}
	.st20{fill-rule:evenodd;clip-rule:evenodd;fill:#FCE0D7;}
	.st21{fill:#CE7761;}
	.st22{fill:#2C3A45;}
	.st23{fill-rule:evenodd;clip-rule:evenodd;fill:#B55E46;}
	.st24{fill-rule:evenodd;clip-rule:evenodd;fill:#93B8DA;}
	.st25{fill:#070808;}
	.st26{fill:#D1D1D1;}
	.st27{fill:#F4C697;}
	.st28{fill:#E0B187;}
	.st29{fill:#D32527;}
	.st30{fill:#F7F8F9;}
	.st31{fill:#515150;}
	.st32{fill:#DAB79C;}
	.st33{fill:#EDD2B5;}
	.st34{fill:#F6C798;}
	.st35{fill:#E8BC93;}
	.st36{fill:#68C8D2;}
	.st37{fill:#47A5A7;}
	.st38{opacity:0.1;}
	.st39{fill:#666666;}
	.st40{fill:#E1E1E1;}
	.st41{fill:#EBC09B;}
	.st42{fill:#B42A2A;}
	.st43{fill:#292929;}
	.st44{fill:#434343;}
	.st45{fill:#E2403F;}
	.st46{fill:#F06463;}
	.st47{fill:#DEB18A;}
	.st48{fill:#A76531;}
</style>
<g>
	<path class="st0" d="M408.8,302.5c0,3.1,2.5,5.6,5.6,5.6h221.3c3.1,0,5.6-2.5,5.6-5.6v-51.8c0-3.1-2.5-5.6-5.6-5.6H414.4
		c-3.1,0-5.6,2.5-5.6,5.6V302.5z"/>
</g>
<path class="st1" d="M635.7,310.4H414.4c-4.4,0-7.9-3.5-7.9-7.9v-51.8c0-4.4,3.5-7.9,7.9-7.9h221.3c4.4,0,7.9,3.5,7.9,7.9v51.8
	C643.5,306.8,640,310.4,635.7,310.4z M414.4,247.4c-1.8,0-3.3,1.5-3.3,3.3v51.8c0,1.8,1.5,3.3,3.3,3.3h221.3c1.8,0,3.3-1.5,3.3-3.3
	v-51.8c0-1.8-1.5-3.3-3.3-3.3H414.4z"/>
<ellipse class="st1" cx="401.6" cy="260.9" rx="23.7" ry="24"/>
<path class="st0" d="M401.6,287.4c-14.4,0-26.2-11.9-26.2-26.5s11.8-26.5,26.2-26.5s26.2,11.9,26.2,26.5S416,287.4,401.6,287.4z
	 M401.6,239.3c-11.7,0-21.2,9.7-21.2,21.5s9.5,21.5,21.2,21.5c11.7,0,21.2-9.7,21.2-21.5S413.3,239.3,401.6,239.3z"/>
<g>
	<g>
		<path d="M446.1,269.9h4.7v1.1h-6v-10h1.3V269.9z"/>
		<path d="M456.4,270.3c-0.5,0.6-1.2,0.9-2.2,0.9c-0.8,0-1.4-0.2-1.8-0.7s-0.6-1.1-0.6-2v-4.8h1.3v4.8c0,1.1,0.5,1.7,1.4,1.7
			c1,0,1.6-0.4,1.9-1.1v-5.4h1.3v7.4h-1.2L456.4,270.3z"/>
		<path d="M461.9,269.2l1.7-5.5h1.4l-3,8.5c-0.5,1.2-1.2,1.8-2.2,1.8l-0.2,0l-0.5-0.1v-1l0.3,0c0.4,0,0.8-0.1,1-0.3
			c0.2-0.2,0.4-0.5,0.6-1l0.3-0.8l-2.6-7.3h1.4L461.9,269.2z"/>
		<path d="M469.1,271.2c-1,0-1.8-0.3-2.4-1c-0.6-0.7-0.9-1.5-0.9-2.6v-0.2c0-0.7,0.1-1.4,0.4-2c0.3-0.6,0.7-1,1.2-1.4
			c0.5-0.3,1-0.5,1.6-0.5c1,0,1.7,0.3,2.2,1c0.5,0.6,0.8,1.5,0.8,2.7v0.5h-5c0,0.7,0.2,1.3,0.6,1.8c0.4,0.4,0.9,0.7,1.6,0.7
			c0.4,0,0.8-0.1,1.1-0.3c0.3-0.2,0.6-0.4,0.8-0.7l0.8,0.6C471.3,270.7,470.3,271.2,469.1,271.2z M471,262.4L471,262.4l-1,0.1
			l-1-1.2l-1,1.2l-1,0v-0.1l1.7-1.9h0.8L471,262.4z M469,264.5c-0.5,0-0.9,0.2-1.3,0.6c-0.3,0.4-0.6,0.9-0.6,1.6h3.7v-0.1
			c0-0.6-0.2-1.1-0.5-1.5C469.9,264.7,469.5,264.5,469,264.5z M468.2,272.7c0-0.2,0.1-0.4,0.2-0.5c0.1-0.1,0.3-0.2,0.6-0.2
			s0.4,0.1,0.6,0.2c0.1,0.1,0.2,0.3,0.2,0.5s-0.1,0.4-0.2,0.5s-0.3,0.2-0.6,0.2s-0.4-0.1-0.6-0.2S468.2,272.9,468.2,272.7z"/>
		<path d="M474.7,263.6l0,0.9c0.6-0.7,1.3-1.1,2.2-1.1c1.6,0,2.4,0.9,2.4,2.6v4.9H478v-4.9c0-0.5-0.1-0.9-0.4-1.2
			c-0.2-0.3-0.6-0.4-1.1-0.4c-0.4,0-0.8,0.1-1.1,0.3s-0.6,0.5-0.7,0.9v5.3h-1.3v-7.4H474.7z"/>
		<path d="M490.9,267.4c0,1.1-0.3,2-0.8,2.7c-0.5,0.7-1.2,1-2.1,1c-0.9,0-1.6-0.3-2.1-0.9v3.6h-1.3v-10.2h1.2l0.1,0.8
			c0.5-0.6,1.2-1,2.1-1c0.9,0,1.6,0.3,2.1,1s0.8,1.6,0.8,2.8V267.4z M489.6,267.3c0-0.8-0.2-1.5-0.5-2c-0.4-0.5-0.8-0.7-1.5-0.7
			c-0.8,0-1.3,0.3-1.7,1v3.5c0.4,0.7,1,1,1.7,1c0.6,0,1.1-0.2,1.4-0.7C489.5,268.9,489.6,268.2,489.6,267.3z"/>
		<path d="M493.8,264.5c0.6-0.7,1.3-1,2.2-1c1.6,0,2.4,0.9,2.4,2.6v4.9h-1.3v-4.9c0-0.5-0.1-0.9-0.4-1.2c-0.2-0.3-0.6-0.4-1.1-0.4
			c-0.4,0-0.8,0.1-1.1,0.3s-0.6,0.5-0.7,0.9v5.3h-1.3v-10.5h1.3V264.5z"/>
		<path d="M504.8,271c-0.1-0.1-0.1-0.4-0.2-0.8c-0.6,0.6-1.3,0.9-2.1,0.9c-0.7,0-1.3-0.2-1.8-0.6c-0.5-0.4-0.7-0.9-0.7-1.6
			c0-0.8,0.3-1.4,0.9-1.8c0.6-0.4,1.4-0.6,2.5-0.6h1.2V266c0-0.4-0.1-0.8-0.4-1.1c-0.3-0.3-0.7-0.4-1.2-0.4c-0.5,0-0.8,0.1-1.1,0.3
			c-0.3,0.2-0.5,0.5-0.5,0.8h-1.3c0-0.4,0.1-0.7,0.4-1.1c0.3-0.3,0.6-0.6,1.1-0.8c0.4-0.2,0.9-0.3,1.5-0.3c0.9,0,1.5,0.2,2,0.6
			c0.5,0.4,0.7,1,0.8,1.8v3.4c0,0.7,0.1,1.2,0.3,1.6v0.1H504.8z M502.7,270.1c0.4,0,0.8-0.1,1.1-0.3s0.6-0.5,0.8-0.8v-1.5h-1
			c-1.5,0-2.3,0.5-2.3,1.4c0,0.4,0.1,0.7,0.4,0.9C501.9,269.9,502.3,270.1,502.7,270.1z M503.8,260.5h1.5l-1.8,2l-1,0L503.8,260.5z"
			/>
		<path d="M509.5,261.8v1.8h1.4v1h-1.4v4.6c0,0.3,0.1,0.5,0.2,0.7s0.3,0.2,0.6,0.2c0.1,0,0.3,0,0.6-0.1v1c-0.3,0.1-0.7,0.1-1,0.1
			c-0.6,0-1-0.2-1.3-0.5s-0.4-0.8-0.4-1.5v-4.6h-1.3v-1h1.3v-1.8H509.5z"/>
		<path d="M520.4,271c-0.1-0.1-0.1-0.4-0.2-0.8c-0.6,0.6-1.3,0.9-2.1,0.9c-0.7,0-1.3-0.2-1.8-0.6c-0.5-0.4-0.7-0.9-0.7-1.6
			c0-0.8,0.3-1.4,0.9-1.8c0.6-0.4,1.4-0.6,2.5-0.6h1.2V266c0-0.4-0.1-0.8-0.4-1.1c-0.3-0.3-0.7-0.4-1.2-0.4c-0.5,0-0.8,0.1-1.1,0.3
			c-0.3,0.2-0.5,0.5-0.5,0.8h-1.3c0-0.4,0.1-0.7,0.4-1.1c0.3-0.3,0.6-0.6,1.1-0.8c0.4-0.2,0.9-0.3,1.5-0.3c0.9,0,1.5,0.2,2,0.6
			c0.5,0.4,0.7,1,0.8,1.8v3.4c0,0.7,0.1,1.2,0.3,1.6v0.1H520.4z M521,262.4L521,262.4l-1,0.1l-1-1.2l-1,1.2l-1,0v-0.1l1.7-1.9h0.8
			L521,262.4z M518.3,270.1c0.4,0,0.8-0.1,1.1-0.3s0.6-0.5,0.8-0.8v-1.5h-1c-1.5,0-2.3,0.5-2.3,1.4c0,0.4,0.1,0.7,0.4,0.9
			C517.6,269.9,517.9,270.1,518.3,270.1z"/>
		<path d="M524.7,263.6l0,0.8c0.5-0.6,1.3-1,2.2-1c1,0,1.7,0.4,2.1,1.2c0.2-0.4,0.6-0.6,1-0.9c0.4-0.2,0.9-0.3,1.4-0.3
			c1.6,0,2.4,0.9,2.5,2.6v5h-1.3v-4.9c0-0.5-0.1-0.9-0.4-1.2c-0.2-0.3-0.6-0.4-1.2-0.4c-0.5,0-0.9,0.1-1.2,0.4
			c-0.3,0.3-0.5,0.7-0.5,1.1v4.9H528v-4.8c0-1.1-0.5-1.6-1.6-1.6c-0.8,0-1.4,0.4-1.7,1.1v5.4h-1.3v-7.4H524.7z"/>
		<path d="M447,290.3l1.8-5.7h1.3l-2.7,7.4h-1l-2.7-7.4h1.3L447,290.3z"/>
		<path d="M455.8,292c-0.1-0.1-0.1-0.4-0.2-0.8c-0.6,0.6-1.3,0.9-2.1,0.9c-0.7,0-1.3-0.2-1.8-0.6c-0.5-0.4-0.7-0.9-0.7-1.6
			c0-0.8,0.3-1.4,0.9-1.8c0.6-0.4,1.4-0.6,2.5-0.6h1.2V287c0-0.4-0.1-0.8-0.4-1.1c-0.3-0.3-0.7-0.4-1.2-0.4c-0.5,0-0.8,0.1-1.1,0.3
			s-0.5,0.5-0.5,0.8h-1.3c0-0.4,0.1-0.7,0.4-1.1c0.3-0.3,0.6-0.6,1.1-0.8s0.9-0.3,1.5-0.3c0.9,0,1.5,0.2,2,0.6
			c0.5,0.4,0.7,1,0.8,1.8v3.4c0,0.7,0.1,1.2,0.3,1.6v0.1H455.8z M455,283.5l-1.1,0l-1.8-2h1.5L455,283.5z M453.7,291.1
			c0.4,0,0.8-0.1,1.1-0.3s0.6-0.5,0.8-0.8v-1.5h-1c-1.5,0-2.3,0.5-2.3,1.4c0,0.4,0.1,0.7,0.4,0.9S453.3,291.1,453.7,291.1z"/>
		<path d="M463.5,284.6l0,0.9c0.6-0.7,1.3-1.1,2.2-1.1c1.6,0,2.4,0.9,2.4,2.6v4.9h-1.3v-4.9c0-0.5-0.1-0.9-0.4-1.2s-0.6-0.4-1.1-0.4
			c-0.4,0-0.8,0.1-1.1,0.3s-0.6,0.5-0.7,0.9v5.3h-1.3v-7.4H463.5z"/>
		<path d="M469.7,288.3c0-1.2,0.3-2.1,0.8-2.8c0.5-0.7,1.2-1,2.1-1c0.9,0,1.6,0.3,2.1,1l0.1-0.8h1.2v7.2c0,1-0.3,1.7-0.9,2.3
			s-1.3,0.8-2.3,0.8c-0.5,0-1.1-0.1-1.6-0.3s-0.9-0.5-1.2-0.9l0.7-0.8c0.5,0.7,1.2,1,2,1c0.6,0,1.1-0.2,1.4-0.5s0.5-0.8,0.5-1.5
			v-0.6c-0.5,0.6-1.2,0.9-2.1,0.9c-0.9,0-1.6-0.3-2.1-1S469.7,289.5,469.7,288.3z M471,288.4c0,0.8,0.2,1.5,0.5,2
			c0.3,0.5,0.8,0.7,1.4,0.7c0.8,0,1.4-0.4,1.8-1.1v-3.4c-0.4-0.7-1-1.1-1.7-1.1c-0.6,0-1.1,0.2-1.4,0.7S471,287.5,471,288.4z"/>
		<path d="M485.8,284c0,0.8-0.2,1.4-0.5,1.7c-0.3,0.3-0.9,0.5-1.6,0.5v5.7h-1.2l0-0.7c-0.5,0.6-1.2,0.9-2.2,0.9
			c-0.8,0-1.4-0.2-1.8-0.7c-0.4-0.5-0.6-1.1-0.6-2v-4.8h1.3v4.8c0,1.1,0.5,1.7,1.4,1.7c1,0,1.6-0.4,1.9-1.1v-5.4h1.3v0.9
			c0.3,0,0.5-0.1,0.7-0.1c0.2-0.1,0.3-0.2,0.3-0.4s0.1-0.5,0.1-1H485.8z M483.3,281.9c0,0.5-0.1,0.9-0.4,1.2s-0.6,0.5-1,0.5
			c-0.2,0-0.3,0-0.5-0.1s-0.3-0.1-0.5-0.3s-0.4-0.2-0.5-0.3c-0.1,0-0.2,0-0.3,0c-0.2,0-0.3,0.1-0.5,0.2c-0.1,0.1-0.2,0.3-0.2,0.5
			l-0.8,0c0-0.5,0.1-0.9,0.4-1.2s0.6-0.5,1-0.5c0.2,0,0.3,0,0.4,0.1s0.3,0.1,0.5,0.3s0.4,0.2,0.5,0.3s0.2,0.1,0.4,0.1
			c0.2,0,0.4-0.1,0.5-0.2s0.2-0.3,0.2-0.5L483.3,281.9z"/>
		<path d="M497.2,283.6H496v8.4h-1.2l-0.1-0.8c-0.5,0.6-1.2,0.9-2.1,0.9c-0.9,0-1.6-0.4-2.1-1.1s-0.8-1.6-0.8-2.7v-0.1
			c0-1.1,0.3-2,0.8-2.7c0.5-0.7,1.2-1,2.1-1c0.9,0,1.6,0.3,2.1,0.9v-1.8h-1.8v-1h1.8v-1h1.3v1h1.3V283.6z M491,288.4
			c0,0.8,0.2,1.5,0.5,2s0.8,0.7,1.4,0.7c0.8,0,1.4-0.4,1.8-1.1v-3.4c-0.4-0.7-1-1-1.7-1c-0.6,0-1.1,0.2-1.4,0.7S491,287.5,491,288.4
			z"/>
		<path d="M498.4,282.7c0-0.2,0.1-0.4,0.2-0.5s0.3-0.2,0.6-0.2s0.4,0.1,0.6,0.2s0.2,0.3,0.2,0.5s-0.1,0.4-0.2,0.5s-0.3,0.2-0.6,0.2
			s-0.4-0.1-0.6-0.2S498.4,282.9,498.4,282.7z M499.8,292h-1.3v-7.4h1.3V292z"/>
		<path d="M504.8,292.2c-1,0-1.8-0.3-2.4-1c-0.6-0.7-0.9-1.5-0.9-2.6v-0.2c0-0.7,0.1-1.4,0.4-2c0.3-0.6,0.7-1,1.2-1.4
			c0.5-0.3,1-0.5,1.6-0.5c1,0,1.7,0.3,2.2,1s0.8,1.5,0.8,2.7v0.5h-5c0,0.7,0.2,1.3,0.6,1.8c0.4,0.4,0.9,0.7,1.6,0.7
			c0.4,0,0.8-0.1,1.1-0.3s0.6-0.4,0.8-0.7l0.8,0.6C507,291.7,506.1,292.2,504.8,292.2z M506.8,283.4L506.8,283.4l-1,0.1l-1-1.2
			l-1,1.2l-1,0v-0.1l1.7-1.9h0.8L506.8,283.4z M504.7,285.5c-0.5,0-0.9,0.2-1.3,0.6c-0.3,0.4-0.6,0.9-0.6,1.6h3.7v-0.1
			c0-0.6-0.2-1.1-0.5-1.5C505.6,285.7,505.2,285.5,504.7,285.5z M503.9,293.7c0-0.2,0.1-0.4,0.2-0.5s0.3-0.2,0.6-0.2
			s0.4,0.1,0.6,0.2s0.2,0.3,0.2,0.5s-0.1,0.4-0.2,0.5s-0.3,0.2-0.6,0.2s-0.4-0.1-0.6-0.2S503.9,293.9,503.9,293.7z"/>
		<path d="M513.8,291.3c-0.5,0.6-1.2,0.9-2.2,0.9c-0.8,0-1.4-0.2-1.8-0.7c-0.4-0.5-0.6-1.1-0.6-2v-4.8h1.3v4.8
			c0,1.1,0.5,1.7,1.4,1.7c1,0,1.6-0.4,1.9-1.1v-5.4h1.3v7.4h-1.2L513.8,291.3z"/>
	</g>
</g>
<g>
	<path class="st2" d="M406.6,262.6h2.1v3h-2.1v4h-3.7v-4h-7.6l-0.2-2.3l7.7-12.2h3.7V262.6z M398.8,262.6h4.1v-6.5l-0.2,0.4
		L398.8,262.6z"/>
</g>
<g>
	<path class="st0" d="M203,152.2c0,3.5,2.9,6.4,6.4,6.4h273.9c3.5,0,6.4-2.9,6.4-6.4v-50.1c0-3.5-2.9-6.4-6.4-6.4H209.4
		c-3.5,0-6.4,2.9-6.4,6.4V152.2z"/>
</g>
<path class="st1" d="M483.3,161.3H209.4c-5,0-9-4.1-9-9v-50.1c0-5,4.1-9,9-9h273.9c5,0,9,4.1,9,9v50.1
	C492.4,157.2,488.3,161.3,483.3,161.3z M209.4,98.3c-2.1,0-3.8,1.7-3.8,3.8v50.1c0,2.1,1.7,3.8,3.8,3.8h273.9c2.1,0,3.8-1.7,3.8-3.8
	v-50.1c0-2.1-1.7-3.8-3.8-3.8H209.4z"/>
<ellipse class="st1" cx="195.8" cy="111.4" rx="23.7" ry="24"/>
<path class="st0" d="M195.8,138c-14.4,0-26.2-11.9-26.2-26.5s11.8-26.5,26.2-26.5S222,96.8,222,111.4S210.2,138,195.8,138z
	 M195.8,89.9c-11.7,0-21.2,9.7-21.2,21.5s9.5,21.5,21.2,21.5c11.7,0,21.2-9.7,21.2-21.5S207.5,89.9,195.8,89.9z"/>
<g>
	<g>
		<path d="M236.5,124l2.4-3.8h1.5l-3.1,4.9l3.2,5H239l-2.4-3.9l-2.5,3.9h-1.6l3.2-5l-3.2-4.9h1.5L236.5,124z"/>
		<path d="M246.4,130.1c-0.1-0.1-0.1-0.4-0.2-0.8c-0.6,0.6-1.3,0.9-2.1,0.9c-0.7,0-1.3-0.2-1.8-0.6s-0.7-0.9-0.7-1.6
			c0-0.8,0.3-1.4,0.9-1.8s1.4-0.6,2.5-0.6h1.2V125c0-0.4-0.1-0.8-0.4-1.1s-0.7-0.4-1.2-0.4c-0.5,0-0.8,0.1-1.1,0.3s-0.5,0.5-0.5,0.8
			h-1.3c0-0.4,0.1-0.7,0.4-1.1s0.6-0.6,1.1-0.8s0.9-0.3,1.5-0.3c0.9,0,1.5,0.2,2,0.6s0.7,1,0.8,1.8v3.4c0,0.7,0.1,1.2,0.3,1.6v0.1
			H246.4z M247,121.5L247,121.5l-1,0.1l-1-1.2l-1,1.2l-1,0v-0.1l1.7-1.9h0.8L247,121.5z M244.3,129.1c0.4,0,0.8-0.1,1.1-0.3
			s0.6-0.5,0.8-0.8v-1.5h-1c-1.5,0-2.3,0.5-2.3,1.4c0,0.4,0.1,0.7,0.4,0.9S243.9,129.1,244.3,129.1z"/>
		<path d="M251.8,128.2l1.7-5.5h1.4l-3,8.5c-0.5,1.2-1.2,1.8-2.2,1.8l-0.2,0L249,133v-1l0.3,0c0.4,0,0.8-0.1,1-0.3s0.4-0.5,0.6-1
			l0.3-0.8l-2.6-7.3h1.4L251.8,128.2z"/>
		<path d="M259.2,126.3c0-1.1,0.3-2,0.8-2.7s1.2-1,2.1-1c0.9,0,1.6,0.3,2.1,0.9v-3.9h1.3v10.5h-1.2l-0.1-0.8
			c-0.5,0.6-1.2,0.9-2.1,0.9c-0.9,0-1.6-0.4-2.1-1.1S259.2,127.6,259.2,126.3L259.2,126.3z M260.4,126.5c0,0.8,0.2,1.5,0.5,2
			c0.3,0.5,0.8,0.7,1.4,0.7c0.8,0,1.4-0.4,1.8-1.1v-3.4c-0.4-0.7-1-1-1.7-1c-0.6,0-1.1,0.2-1.4,0.7S260.4,125.5,260.4,126.5z"/>
		<path d="M275.3,122.1c0,0.8-0.2,1.4-0.5,1.7s-0.9,0.5-1.6,0.5v5.7H272l0-0.7c-0.5,0.6-1.2,0.9-2.2,0.9c-0.8,0-1.4-0.2-1.8-0.7
			s-0.6-1.1-0.6-2v-4.8h1.3v4.8c0,1.1,0.5,1.7,1.4,1.7c1,0,1.6-0.4,1.9-1.1v-5.4h1.3v0.9c0.3,0,0.5-0.1,0.7-0.1s0.3-0.2,0.3-0.4
			s0.1-0.5,0.1-1H275.3z M269.5,131.8c0-0.2,0.1-0.4,0.2-0.5s0.3-0.2,0.6-0.2s0.4,0.1,0.6,0.2s0.2,0.3,0.2,0.5s-0.1,0.4-0.2,0.5
			s-0.3,0.2-0.6,0.2s-0.4-0.1-0.6-0.2S269.5,132,269.5,131.8z"/>
		<path d="M277.2,122.7l0,0.9c0.6-0.7,1.3-1.1,2.2-1.1c1.6,0,2.4,0.9,2.4,2.6v4.9h-1.3v-4.9c0-0.5-0.1-0.9-0.4-1.2s-0.6-0.4-1.1-0.4
			c-0.4,0-0.8,0.1-1.1,0.3s-0.6,0.5-0.7,0.9v5.3H276v-7.4H277.2z"/>
		<path d="M283.5,126.3c0-1.2,0.3-2.1,0.8-2.8s1.2-1,2.1-1c0.9,0,1.6,0.3,2.1,1l0.1-0.8h1.2v7.2c0,1-0.3,1.7-0.9,2.3
			c-0.6,0.6-1.3,0.8-2.3,0.8c-0.5,0-1.1-0.1-1.6-0.3s-0.9-0.5-1.2-0.9l0.7-0.8c0.5,0.7,1.2,1,2,1c0.6,0,1.1-0.2,1.4-0.5
			s0.5-0.8,0.5-1.5v-0.6c-0.5,0.6-1.2,0.9-2.1,0.9c-0.9,0-1.6-0.3-2.1-1S283.5,127.5,283.5,126.3z M284.7,126.5c0,0.8,0.2,1.5,0.5,2
			c0.3,0.5,0.8,0.7,1.4,0.7c0.8,0,1.4-0.4,1.8-1.1v-3.4c-0.4-0.7-1-1.1-1.7-1.1c-0.6,0-1.1,0.2-1.4,0.7S284.7,125.5,284.7,126.5z"/>
		<path d="M297.5,128.4l1.8-5.7h1.3l-2.7,7.4h-1l-2.7-7.4h1.3L297.5,128.4z"/>
		<path d="M301.4,126.3c0-0.7,0.1-1.4,0.4-2s0.7-1,1.2-1.3s1.1-0.5,1.7-0.5c1,0,1.8,0.3,2.4,1s0.9,1.6,0.9,2.8v0.1
			c0,0.7-0.1,1.4-0.4,1.9c-0.3,0.6-0.7,1-1.2,1.3s-1.1,0.5-1.8,0.5c-1,0-1.8-0.3-2.4-1S301.4,127.6,301.4,126.3L301.4,126.3z
			 M304.2,119.8h1l2,1.8l-1.3,0l-1.2-1.1l-1.2,1.1l-1.4,0L304.2,119.8z M302.7,126.5c0,0.8,0.2,1.5,0.6,2c0.4,0.5,0.9,0.7,1.5,0.7
			c0.6,0,1.2-0.3,1.5-0.8c0.4-0.5,0.6-1.2,0.6-2.1c0-0.8-0.2-1.5-0.6-2s-0.9-0.8-1.5-0.8c-0.6,0-1.1,0.2-1.5,0.7
			S302.7,125.6,302.7,126.5z M307.7,118.6h1.4l-1.4,1.8l-1,0L307.7,118.6z"/>
		<path d="M310.9,122.7l0,0.9c0.6-0.7,1.3-1.1,2.2-1.1c1.6,0,2.4,0.9,2.4,2.6v4.9h-1.3v-4.9c0-0.5-0.1-0.9-0.4-1.2s-0.6-0.4-1.1-0.4
			c-0.4,0-0.8,0.1-1.1,0.3s-0.6,0.5-0.7,0.9v5.3h-1.3v-7.4H310.9z"/>
		<path d="M322.7,120.9v1.8h1.4v1h-1.4v4.6c0,0.3,0.1,0.5,0.2,0.7c0.1,0.1,0.3,0.2,0.6,0.2c0.1,0,0.3,0,0.6-0.1v1
			c-0.3,0.1-0.7,0.1-1,0.1c-0.6,0-1-0.2-1.3-0.5s-0.4-0.8-0.4-1.5v-4.6H320v-1h1.3v-1.8H322.7z"/>
		<path d="M333.4,122.1c0,0.8-0.2,1.4-0.5,1.7s-0.9,0.5-1.6,0.5v5.7h-1.2l0-0.7c-0.5,0.6-1.2,0.9-2.2,0.9c-0.8,0-1.4-0.2-1.8-0.7
			s-0.6-1.1-0.6-2v-4.8h1.3v4.8c0,1.1,0.5,1.7,1.4,1.7c1,0,1.6-0.4,1.9-1.1v-5.4h1.3v0.9c0.3,0,0.5-0.1,0.7-0.1s0.3-0.2,0.3-0.4
			s0.1-0.5,0.1-1H333.4z M329.2,121.7l-1.1,0l-1.8-2h1.5L329.2,121.7z"/>
		<path d="M340.1,128.4l1.8-5.7h1.3l-2.7,7.4h-1l-2.7-7.4h1.3L340.1,128.4z"/>
		<path d="M352.3,122.1c0,0.8-0.2,1.4-0.5,1.7s-0.9,0.5-1.6,0.5v5.7H349l0-0.7c-0.5,0.6-1.2,0.9-2.2,0.9c-0.8,0-1.4-0.2-1.8-0.7
			s-0.6-1.1-0.6-2v-4.8h1.3v4.8c0,1.1,0.5,1.7,1.4,1.7c1,0,1.6-0.4,1.9-1.1v-5.4h1.3v0.9c0.3,0,0.5-0.1,0.7-0.1s0.3-0.2,0.3-0.4
			s0.1-0.5,0.1-1H352.3z M346.5,131.8c0-0.2,0.1-0.4,0.2-0.5s0.3-0.2,0.6-0.2s0.4,0.1,0.6,0.2s0.2,0.3,0.2,0.5s-0.1,0.4-0.2,0.5
			s-0.3,0.2-0.6,0.2s-0.4-0.1-0.6-0.2S346.5,132,346.5,131.8z"/>
		<path d="M354.3,122.7l0,0.9c0.6-0.7,1.3-1.1,2.2-1.1c1.6,0,2.4,0.9,2.4,2.6v4.9h-1.3v-4.9c0-0.5-0.1-0.9-0.4-1.2s-0.6-0.4-1.1-0.4
			c-0.4,0-0.8,0.1-1.1,0.3s-0.6,0.5-0.7,0.9v5.3h-1.3v-7.4H354.3z"/>
		<path d="M360.5,126.3c0-1.2,0.3-2.1,0.8-2.8s1.2-1,2.1-1c0.9,0,1.6,0.3,2.1,1l0.1-0.8h1.2v7.2c0,1-0.3,1.7-0.9,2.3
			c-0.6,0.6-1.3,0.8-2.3,0.8c-0.5,0-1.1-0.1-1.6-0.3s-0.9-0.5-1.2-0.9l0.7-0.8c0.5,0.7,1.2,1,2,1c0.6,0,1.1-0.2,1.4-0.5
			s0.5-0.8,0.5-1.5v-0.6c-0.5,0.6-1.2,0.9-2.1,0.9c-0.9,0-1.6-0.3-2.1-1S360.5,127.5,360.5,126.3z M361.8,126.5c0,0.8,0.2,1.5,0.5,2
			c0.3,0.5,0.8,0.7,1.4,0.7c0.8,0,1.4-0.4,1.8-1.1v-3.4c-0.4-0.7-1-1.1-1.7-1.1c-0.6,0-1.1,0.2-1.4,0.7S361.8,125.5,361.8,126.5z"/>
	</g>
</g>
<g>
	<path class="st2" d="M197.8,120.2h-3.7V106l-4.4,1.4v-3l7.7-2.7h0.4V120.2z"/>
</g>
<g>
	<path class="st0" d="M587.9,153.5c0,3.6,3,6.6,6.6,6.6h246c3.6,0,6.6-3,6.6-6.6v-49.7c0-3.6-3-6.6-6.6-6.6h-246
		c-3.6,0-6.6,3-6.6,6.6V153.5z"/>
</g>
<path class="st1" d="M840.6,162.8h-246c-5.1,0-9.3-4.2-9.3-9.3v-49.7c0-5.1,4.2-9.3,9.3-9.3h246c5.1,0,9.3,4.2,9.3,9.3v49.7
	C849.9,158.7,845.7,162.8,840.6,162.8z M594.6,99.8c-2.2,0-3.9,1.8-3.9,3.9v49.7c0,2.2,1.8,3.9,3.9,3.9h246c2.2,0,3.9-1.8,3.9-3.9
	v-49.7c0-2.2-1.8-3.9-3.9-3.9H594.6z"/>
<ellipse class="st1" cx="580.7" cy="112.9" rx="23.7" ry="24"/>
<path class="st0" d="M580.7,139.5c-14.4,0-26.2-11.9-26.2-26.5s11.8-26.5,26.2-26.5s26.2,11.9,26.2,26.5S595.2,139.5,580.7,139.5z
	 M580.7,91.4c-11.7,0-21.2,9.7-21.2,21.5s9.5,21.5,21.2,21.5s21.2-9.7,21.2-21.5S592.4,91.4,580.7,91.4z"/>
<g>
	<g>
		<path d="M618.4,131.6V127h-1.3v-1h1.3v-4.4h2.8c0.9,0,1.6,0.2,2.3,0.6c0.7,0.4,1.2,0.9,1.5,1.6s0.5,1.5,0.6,2.4v0.6
			c0,0.9-0.2,1.8-0.5,2.5s-0.9,1.2-1.6,1.6c-0.7,0.4-1.5,0.6-2.3,0.6H618.4z M621.5,127h-1.7v3.5h1.4c1,0,1.8-0.3,2.4-0.9
			c0.6-0.6,0.8-1.5,0.9-2.6v-0.6c0-1.1-0.3-2-0.8-2.6c-0.5-0.6-1.3-0.9-2.3-1h-1.5v3.3h1.7V127z"/>
		<path d="M627.1,127.8c0-0.7,0.1-1.4,0.4-2c0.3-0.6,0.7-1,1.2-1.3c0.5-0.3,1.1-0.5,1.7-0.5c1,0,1.8,0.3,2.4,1s0.9,1.6,0.9,2.8v0.1
			c0,0.7-0.1,1.4-0.4,1.9c-0.3,0.6-0.7,1-1.2,1.3s-1.1,0.5-1.8,0.5c-1,0-1.8-0.3-2.4-1S627.1,129.1,627.1,127.8L627.1,127.8z
			 M629.9,121.3h1l2,1.8l-1.3,0l-1.2-1.1l-1.2,1.1l-1.4,0L629.9,121.3z M628.4,128c0,0.8,0.2,1.5,0.6,2c0.4,0.5,0.9,0.7,1.5,0.7
			c0.6,0,1.2-0.3,1.5-0.8c0.4-0.5,0.6-1.2,0.6-2.1c0-0.8-0.2-1.5-0.6-2c-0.4-0.5-0.9-0.8-1.5-0.8c-0.6,0-1.1,0.2-1.5,0.7
			S628.4,127,628.4,128z M633.4,120.1h1.4l-1.4,1.8l-1,0L633.4,120.1z"/>
		<path d="M635.4,122.2c0-0.2,0.1-0.4,0.2-0.5c0.1-0.1,0.3-0.2,0.6-0.2s0.4,0.1,0.6,0.2c0.1,0.1,0.2,0.3,0.2,0.5s-0.1,0.4-0.2,0.5
			c-0.1,0.1-0.3,0.2-0.6,0.2s-0.4-0.1-0.6-0.2C635.5,122.6,635.4,122.4,635.4,122.2z M636.8,131.6h-1.3v-7.4h1.3V131.6z"/>
		<path d="M644,122.4v1.8h1.4v1H644v4.6c0,0.3,0.1,0.5,0.2,0.7c0.1,0.1,0.3,0.2,0.6,0.2c0.1,0,0.3,0,0.6-0.1v1
			c-0.3,0.1-0.7,0.1-1,0.1c-0.6,0-1-0.2-1.3-0.5s-0.4-0.8-0.4-1.5v-4.6h-1.3v-1h1.3v-1.8H644z"/>
		<path d="M648.1,125.1c0.6-0.7,1.3-1,2.2-1c1.6,0,2.4,0.9,2.4,2.6v4.9h-1.3v-4.9c0-0.5-0.1-0.9-0.4-1.2s-0.6-0.4-1.1-0.4
			c-0.4,0-0.8,0.1-1.1,0.3c-0.3,0.2-0.6,0.5-0.7,0.9v5.3h-1.3v-10.5h1.3V125.1z"/>
		<path d="M654.2,127.8c0-0.7,0.1-1.4,0.4-2c0.3-0.6,0.7-1,1.2-1.3c0.5-0.3,1.1-0.5,1.7-0.5c1,0,1.8,0.3,2.4,1s0.9,1.6,0.9,2.8v0.1
			c0,0.7-0.1,1.4-0.4,1.9c-0.3,0.6-0.7,1-1.2,1.3s-1.1,0.5-1.8,0.5c-1,0-1.8-0.3-2.4-1S654.2,129.1,654.2,127.8L654.2,127.8z
			 M655.5,128c0,0.8,0.2,1.5,0.6,2c0.4,0.5,0.9,0.7,1.5,0.7c0.6,0,1.2-0.3,1.5-0.8c0.4-0.5,0.6-1.2,0.6-2.1c0-0.8-0.2-1.5-0.6-2
			c-0.4-0.5-0.9-0.8-1.5-0.8c-0.6,0-1.1,0.2-1.5,0.7S655.5,127,655.5,128z"/>
		<path d="M667.1,131.6c-0.1-0.1-0.1-0.4-0.2-0.8c-0.6,0.6-1.3,0.9-2.1,0.9c-0.7,0-1.3-0.2-1.8-0.6c-0.5-0.4-0.7-0.9-0.7-1.6
			c0-0.8,0.3-1.4,0.9-1.8c0.6-0.4,1.4-0.6,2.5-0.6h1.2v-0.6c0-0.4-0.1-0.8-0.4-1.1c-0.3-0.3-0.7-0.4-1.2-0.4c-0.5,0-0.8,0.1-1.1,0.3
			c-0.3,0.2-0.5,0.5-0.5,0.8h-1.3c0-0.4,0.1-0.7,0.4-1.1c0.3-0.3,0.6-0.6,1.1-0.8c0.4-0.2,0.9-0.3,1.5-0.3c0.9,0,1.5,0.2,2,0.6
			c0.5,0.4,0.7,1,0.8,1.8v3.4c0,0.7,0.1,1.2,0.3,1.6v0.1H667.1z M665,130.6c0.4,0,0.8-0.1,1.1-0.3s0.6-0.5,0.8-0.8V128h-1
			c-1.5,0-2.3,0.5-2.3,1.4c0,0.4,0.1,0.7,0.4,0.9C664.3,130.5,664.6,130.6,665,130.6z M664.2,133.3c0-0.2,0.1-0.4,0.2-0.5
			c0.1-0.1,0.3-0.2,0.6-0.2s0.4,0.1,0.6,0.2c0.1,0.1,0.2,0.3,0.2,0.5s-0.1,0.4-0.2,0.5c-0.1,0.1-0.3,0.2-0.6,0.2s-0.4-0.1-0.6-0.2
			C664.3,133.6,664.2,133.5,664.2,133.3z"/>
		<path d="M670.2,122.2c0-0.2,0.1-0.4,0.2-0.5c0.1-0.1,0.3-0.2,0.6-0.2s0.4,0.1,0.6,0.2c0.1,0.1,0.2,0.3,0.2,0.5s-0.1,0.4-0.2,0.5
			c-0.1,0.1-0.3,0.2-0.6,0.2s-0.4-0.1-0.6-0.2C670.2,122.6,670.2,122.4,670.2,122.2z M671.5,131.6h-1.3v-7.4h1.3V131.6z"/>
		<path d="M678.7,122.4v1.8h1.4v1h-1.4v4.6c0,0.3,0.1,0.5,0.2,0.7c0.1,0.1,0.3,0.2,0.6,0.2c0.1,0,0.3,0,0.6-0.1v1
			c-0.3,0.1-0.7,0.1-1,0.1c-0.6,0-1-0.2-1.3-0.5s-0.4-0.8-0.4-1.5v-4.6h-1.3v-1h1.3v-1.8H678.7z"/>
		<path d="M682.9,125.1c0.6-0.7,1.3-1,2.2-1c1.6,0,2.4,0.9,2.4,2.6v4.9h-1.3v-4.9c0-0.5-0.1-0.9-0.4-1.2s-0.6-0.4-1.1-0.4
			c-0.4,0-0.8,0.1-1.1,0.3c-0.3,0.2-0.6,0.5-0.7,0.9v5.3h-1.3v-10.5h1.3V125.1z"/>
		<path d="M692.4,131.7c-1,0-1.8-0.3-2.4-1s-0.9-1.5-0.9-2.6v-0.2c0-0.7,0.1-1.4,0.4-2s0.7-1,1.2-1.4c0.5-0.3,1-0.5,1.6-0.5
			c1,0,1.7,0.3,2.2,1s0.8,1.5,0.8,2.7v0.5h-5c0,0.7,0.2,1.3,0.6,1.8c0.4,0.4,0.9,0.7,1.6,0.7c0.4,0,0.8-0.1,1.1-0.3
			c0.3-0.2,0.6-0.4,0.8-0.7l0.8,0.6C694.5,131.3,693.6,131.7,692.4,131.7z M692.2,125.1c-0.5,0-0.9,0.2-1.3,0.6
			c-0.3,0.4-0.6,0.9-0.6,1.6h3.7v-0.1c0-0.6-0.2-1.1-0.5-1.5C693.2,125.3,692.7,125.1,692.2,125.1z"/>
		<path d="M696.4,127.8c0-0.7,0.1-1.4,0.4-2c0.3-0.6,0.7-1,1.2-1.3c0.5-0.3,1.1-0.5,1.7-0.5c1,0,1.8,0.3,2.4,1s0.9,1.6,0.9,2.8v0.1
			c0,0.7-0.1,1.4-0.4,1.9c-0.3,0.6-0.7,1-1.2,1.3s-1.1,0.5-1.8,0.5c-1,0-1.8-0.3-2.4-1S696.4,129.1,696.4,127.8L696.4,127.8z
			 M697.7,128c0,0.8,0.2,1.5,0.6,2c0.4,0.5,0.9,0.7,1.5,0.7c0.6,0,1.2-0.3,1.5-0.8c0.4-0.5,0.6-1.2,0.6-2.1c0-0.8-0.2-1.5-0.6-2
			c-0.4-0.5-0.9-0.8-1.5-0.8c-0.6,0-1.1,0.2-1.5,0.7S697.7,127,697.7,128z"/>
		<path d="M709.9,122.4v1.8h1.4v1h-1.4v4.6c0,0.3,0.1,0.5,0.2,0.7c0.1,0.1,0.3,0.2,0.6,0.2c0.1,0,0.3,0,0.6-0.1v1
			c-0.3,0.1-0.7,0.1-1,0.1c-0.6,0-1-0.2-1.3-0.5s-0.4-0.8-0.4-1.5v-4.6h-1.3v-1h1.3v-1.8H709.9z"/>
		<path d="M714.2,123.1l-1.1,0l-1.8-2h1.5L714.2,123.1z M714.1,131.6h-1.3v-7.4h1.3V131.6z"/>
		<path d="M717.4,124.2l0,0.9c0.6-0.7,1.3-1.1,2.2-1.1c1.6,0,2.4,0.9,2.4,2.6v4.9h-1.3v-4.9c0-0.5-0.1-0.9-0.4-1.2s-0.6-0.4-1.1-0.4
			c-0.4,0-0.8,0.1-1.1,0.3c-0.3,0.2-0.6,0.5-0.7,0.9v5.3h-1.3v-7.4H717.4z"/>
		<path d="M725.2,125.1c0.6-0.7,1.3-1,2.2-1c1.6,0,2.4,0.9,2.4,2.6v4.9h-1.3v-4.9c0-0.5-0.1-0.9-0.4-1.2s-0.6-0.4-1.1-0.4
			c-0.4,0-0.8,0.1-1.1,0.3c-0.3,0.2-0.6,0.5-0.7,0.9v5.3h-1.3v-10.5h1.3V125.1z"/>
		<path d="M736.4,125.1c0.6-0.7,1.3-1,2.2-1c1.6,0,2.4,0.9,2.4,2.6v4.9h-1.3v-4.9c0-0.5-0.1-0.9-0.4-1.2s-0.6-0.4-1.1-0.4
			c-0.4,0-0.8,0.1-1.1,0.3c-0.3,0.2-0.6,0.5-0.7,0.9v5.3h-1.3v-10.5h1.3V125.1z"/>
		<path d="M747.4,130.9c-0.5,0.6-1.2,0.9-2.2,0.9c-0.8,0-1.4-0.2-1.8-0.7c-0.4-0.5-0.6-1.1-0.6-2v-4.8h1.3v4.8
			c0,1.1,0.5,1.7,1.4,1.7c1,0,1.6-0.4,1.9-1.1v-5.4h1.3v7.4h-1.2L747.4,130.9z"/>
		<path d="M750.2,127.8c0-0.7,0.1-1.4,0.4-2c0.3-0.6,0.7-1,1.2-1.3c0.5-0.3,1.1-0.5,1.7-0.5c1,0,1.8,0.3,2.4,1s0.9,1.6,0.9,2.8v0.1
			c0,0.7-0.1,1.4-0.4,1.9c-0.3,0.6-0.7,1-1.2,1.3s-1.1,0.5-1.8,0.5c-1,0-1.8-0.3-2.4-1S750.2,129.1,750.2,127.8L750.2,127.8z
			 M753,121.3h1l2,1.8l-1.3,0l-1.2-1.1l-1.2,1.1l-1.4,0L753,121.3z M751.5,128c0,0.8,0.2,1.5,0.6,2c0.4,0.5,0.9,0.7,1.5,0.7
			c0.6,0,1.2-0.3,1.5-0.8c0.4-0.5,0.6-1.2,0.6-2.1c0-0.8-0.2-1.5-0.6-2c-0.4-0.5-0.9-0.8-1.5-0.8c-0.6,0-1.1,0.2-1.5,0.7
			S751.5,127,751.5,128z M756.5,120.1h1.4l-1.4,1.8l-1,0L756.5,120.1z"/>
		<path d="M759.7,124.2l0,0.9c0.6-0.7,1.3-1.1,2.2-1.1c1.6,0,2.4,0.9,2.4,2.6v4.9h-1.3v-4.9c0-0.5-0.1-0.9-0.4-1.2s-0.6-0.4-1.1-0.4
			c-0.4,0-0.8,0.1-1.1,0.3c-0.3,0.2-0.6,0.5-0.7,0.9v5.3h-1.3v-7.4H759.7z"/>
		<path d="M765.9,127.8c0-1.2,0.3-2.1,0.8-2.8s1.2-1,2.1-1c0.9,0,1.6,0.3,2.1,1l0.1-0.8h1.2v7.2c0,1-0.3,1.7-0.9,2.3
			c-0.6,0.6-1.3,0.8-2.3,0.8c-0.5,0-1.1-0.1-1.6-0.3c-0.5-0.2-0.9-0.5-1.2-0.9l0.7-0.8c0.5,0.7,1.2,1,2,1c0.6,0,1.1-0.2,1.4-0.5
			c0.3-0.3,0.5-0.8,0.5-1.5v-0.6c-0.5,0.6-1.2,0.9-2.1,0.9c-0.9,0-1.6-0.3-2.1-1C766.2,130,765.9,129,765.9,127.8z M767.2,128
			c0,0.8,0.2,1.5,0.5,2s0.8,0.7,1.4,0.7c0.8,0,1.4-0.4,1.8-1.1v-3.4c-0.4-0.7-1-1.1-1.7-1.1c-0.6,0-1.1,0.2-1.4,0.7
			C767.4,126.3,767.2,127,767.2,128z"/>
	</g>
</g>
<g>
	<path class="st2" d="M586.4,121.6h-12.7v-2.5l6-6.4c0.8-0.9,1.4-1.7,1.8-2.3c0.4-0.7,0.6-1.3,0.6-1.9c0-0.8-0.2-1.5-0.6-1.9
		c-0.4-0.5-1-0.7-1.8-0.7c-0.8,0-1.5,0.3-2,0.9c-0.5,0.6-0.7,1.3-0.7,2.3h-3.7c0-1.1,0.3-2.2,0.8-3.1c0.5-0.9,1.3-1.7,2.3-2.2
		c1-0.5,2.1-0.8,3.3-0.8c1.9,0,3.4,0.5,4.4,1.4s1.6,2.2,1.6,3.9c0,0.9-0.2,1.8-0.7,2.8c-0.5,0.9-1.3,2.1-2.4,3.3l-4.2,4.4h7.9V121.6
		z"/>
</g>
<g>
	<path class="st0" d="M33.4,302.2c0,3.1,2.5,5.6,5.6,5.6h207.1c3.1,0,5.6-2.5,5.6-5.6v-51.8c0-3.1-2.5-5.6-5.6-5.6H39
		c-3.1,0-5.6,2.5-5.6,5.6V302.2z"/>
</g>
<path class="st1" d="M246.1,310.1H39c-4.4,0-7.9-3.5-7.9-7.9v-51.8c0-4.4,3.5-7.9,7.9-7.9h207.1c4.4,0,7.9,3.5,7.9,7.9v51.8
	C254,306.6,250.5,310.1,246.1,310.1z M39,247.1c-1.8,0-3.3,1.5-3.3,3.3v51.8c0,1.8,1.5,3.3,3.3,3.3h207.1c1.8,0,3.3-1.5,3.3-3.3
	v-51.8c0-1.8-1.5-3.3-3.3-3.3H39z"/>
<ellipse class="st1" cx="26.2" cy="260.6" rx="23.7" ry="24"/>
<path class="st0" d="M26.2,287.2C11.8,287.2,0,275.3,0,260.6s11.8-26.5,26.2-26.5s26.2,11.9,26.2,26.5S40.7,287.2,26.2,287.2z
	 M26.2,239.1c-11.7,0-21.2,9.7-21.2,21.5s9.5,21.5,21.2,21.5s21.2-9.7,21.2-21.5S37.9,239.1,26.2,239.1z"/>
<g>
	<g>
		<path d="M66.1,270.3v1.5c0.5-0.1,0.9-0.2,1.1-0.5c0.2-0.3,0.3-0.8,0.3-1.5h1.1c0,1-0.2,1.7-0.6,2.1c-0.4,0.5-1,0.7-1.9,0.8v4.4
			c0,0.9-0.3,1.7-0.8,2.2c-0.6,0.6-1.3,0.9-2.3,1l-0.5,0c-1.1,0-2-0.3-2.6-0.9s-1-1.4-1-2.4v-6.8h1.3v6.7c0,0.7,0.2,1.3,0.6,1.7
			c0.4,0.4,1,0.6,1.7,0.6c0.7,0,1.3-0.2,1.7-0.6s0.6-1,0.6-1.7v-6.7H66.1z M63.3,267.6h1.5l-1.8,2l-1,0L63.3,267.6z"/>
		<path d="M69.9,272.9l0,0.9c0.6-0.7,1.3-1.1,2.2-1.1c1.6,0,2.4,0.9,2.4,2.6v4.9h-1.3v-4.9c0-0.5-0.1-0.9-0.4-1.2
			c-0.2-0.3-0.6-0.4-1.1-0.4c-0.4,0-0.8,0.1-1.1,0.3s-0.6,0.5-0.7,0.9v5.3h-1.3v-7.4H69.9z"/>
		<path d="M76.1,276.5c0-1.2,0.3-2.1,0.8-2.8c0.5-0.7,1.2-1,2.1-1c0.9,0,1.6,0.3,2.1,1l0.1-0.8h1.2v7.2c0,1-0.3,1.7-0.9,2.3
			c-0.6,0.6-1.3,0.8-2.3,0.8c-0.5,0-1.1-0.1-1.6-0.3c-0.5-0.2-0.9-0.5-1.2-0.9l0.7-0.8c0.5,0.7,1.2,1,2,1c0.6,0,1.1-0.2,1.4-0.5
			c0.3-0.3,0.5-0.8,0.5-1.5v-0.6c-0.5,0.6-1.2,0.9-2.1,0.9c-0.9,0-1.6-0.3-2.1-1S76.1,277.7,76.1,276.5z M77.4,276.7
			c0,0.8,0.2,1.5,0.5,2c0.3,0.5,0.8,0.7,1.4,0.7c0.8,0,1.4-0.4,1.8-1.1v-3.4c-0.4-0.7-1-1.1-1.7-1.1c-0.6,0-1.1,0.2-1.4,0.7
			S77.4,275.7,77.4,276.7z"/>
		<path d="M87.4,276.5c0-1.1,0.3-2,0.8-2.7s1.2-1,2.1-1c0.9,0,1.6,0.3,2.1,0.9v-3.9h1.3v10.5h-1.2l-0.1-0.8
			c-0.5,0.6-1.2,0.9-2.1,0.9c-0.9,0-1.6-0.4-2.1-1.1C87.7,278.7,87.4,277.7,87.4,276.5L87.4,276.5z M88.7,276.7c0,0.8,0.2,1.5,0.5,2
			c0.3,0.5,0.8,0.7,1.4,0.7c0.8,0,1.4-0.4,1.8-1.1v-3.4c-0.4-0.7-1-1-1.7-1c-0.6,0-1.1,0.2-1.4,0.7S88.7,275.7,88.7,276.7z"/>
		<path d="M100.2,279.5c-0.5,0.6-1.2,0.9-2.2,0.9c-0.8,0-1.4-0.2-1.8-0.7s-0.6-1.1-0.6-2v-4.8h1.3v4.8c0,1.1,0.5,1.7,1.4,1.7
			c1,0,1.6-0.4,1.9-1.1v-5.4h1.3v7.4h-1.2L100.2,279.5z M97.3,281.9c0-0.2,0.1-0.4,0.2-0.5c0.1-0.1,0.3-0.2,0.6-0.2s0.4,0.1,0.6,0.2
			c0.1,0.1,0.2,0.3,0.2,0.5s-0.1,0.4-0.2,0.5s-0.3,0.2-0.6,0.2s-0.4-0.1-0.6-0.2S97.3,282.2,97.3,281.9z"/>
		<path d="M104.5,272.9l0,0.9c0.6-0.7,1.3-1.1,2.2-1.1c1.6,0,2.4,0.9,2.4,2.6v4.9h-1.3v-4.9c0-0.5-0.1-0.9-0.4-1.2
			c-0.2-0.3-0.6-0.4-1.1-0.4c-0.4,0-0.8,0.1-1.1,0.3s-0.6,0.5-0.7,0.9v5.3h-1.3v-7.4H104.5z"/>
		<path d="M110.8,276.5c0-1.2,0.3-2.1,0.8-2.8c0.5-0.7,1.2-1,2.1-1c0.9,0,1.6,0.3,2.1,1l0.1-0.8h1.2v7.2c0,1-0.3,1.7-0.9,2.3
			c-0.6,0.6-1.3,0.8-2.3,0.8c-0.5,0-1.1-0.1-1.6-0.3c-0.5-0.2-0.9-0.5-1.2-0.9l0.7-0.8c0.5,0.7,1.2,1,2,1c0.6,0,1.1-0.2,1.4-0.5
			c0.3-0.3,0.5-0.8,0.5-1.5v-0.6c-0.5,0.6-1.2,0.9-2.1,0.9c-0.9,0-1.6-0.3-2.1-1S110.8,277.7,110.8,276.5z M112,276.7
			c0,0.8,0.2,1.5,0.5,2c0.3,0.5,0.8,0.7,1.4,0.7c0.8,0,1.4-0.4,1.8-1.1v-3.4c-0.4-0.7-1-1.1-1.7-1.1c-0.6,0-1.1,0.2-1.4,0.7
			S112,275.7,112,276.7z"/>
		<path d="M124.1,271.1v1.8h1.4v1h-1.4v4.6c0,0.3,0.1,0.5,0.2,0.7s0.3,0.2,0.6,0.2c0.1,0,0.3,0,0.6-0.1v1c-0.3,0.1-0.7,0.1-1,0.1
			c-0.6,0-1-0.2-1.3-0.5s-0.4-0.8-0.4-1.5v-4.6h-1.3v-1h1.3v-1.8H124.1z"/>
		<path d="M128.2,273.8c0.6-0.7,1.3-1,2.2-1c1.6,0,2.4,0.9,2.4,2.6v4.9h-1.3v-4.9c0-0.5-0.1-0.9-0.4-1.2c-0.2-0.3-0.6-0.4-1.1-0.4
			c-0.4,0-0.8,0.1-1.1,0.3s-0.6,0.5-0.7,0.9v5.3h-1.3v-10.5h1.3V273.8z"/>
		<path d="M142.6,272.3c0,0.8-0.2,1.4-0.5,1.7s-0.9,0.5-1.6,0.5v5.7h-1.2l0-0.7c-0.5,0.6-1.2,0.9-2.2,0.9c-0.8,0-1.4-0.2-1.8-0.7
			s-0.6-1.1-0.6-2v-4.8h1.3v4.8c0,1.1,0.5,1.7,1.4,1.7c1,0,1.6-0.4,1.9-1.1v-5.4h1.3v0.9c0.3,0,0.5-0.1,0.7-0.1
			c0.2-0.1,0.3-0.2,0.3-0.4s0.1-0.5,0.1-1H142.6z M136.8,281.9c0-0.2,0.1-0.4,0.2-0.5c0.1-0.1,0.3-0.2,0.6-0.2s0.4,0.1,0.6,0.2
			c0.1,0.1,0.2,0.3,0.2,0.5s-0.1,0.4-0.2,0.5s-0.3,0.2-0.6,0.2s-0.4-0.1-0.6-0.2S136.8,282.2,136.8,281.9z"/>
		<path d="M146.3,279.4c0.5,0,0.8-0.1,1.2-0.4s0.5-0.6,0.6-1h1.2c0,0.4-0.2,0.8-0.4,1.2s-0.6,0.7-1.1,0.9c-0.4,0.2-0.9,0.3-1.4,0.3
			c-1,0-1.8-0.3-2.4-1c-0.6-0.7-0.9-1.6-0.9-2.8v-0.2c0-0.7,0.1-1.4,0.4-1.9s0.6-1,1.1-1.3c0.5-0.3,1.1-0.5,1.8-0.5
			c0.8,0,1.5,0.2,2.1,0.7c0.5,0.5,0.8,1.1,0.9,1.9H148c0-0.5-0.2-0.9-0.5-1.2s-0.7-0.5-1.2-0.5c-0.6,0-1.1,0.2-1.5,0.7
			c-0.4,0.5-0.5,1.1-0.5,2v0.2c0,0.9,0.2,1.5,0.5,2C145.1,279.1,145.6,279.4,146.3,279.4z"/>
		<path d="M155.8,271.1v1.8h1.4v1h-1.4v4.6c0,0.3,0.1,0.5,0.2,0.7s0.3,0.2,0.6,0.2c0.1,0,0.3,0,0.6-0.1v1c-0.3,0.1-0.7,0.1-1,0.1
			c-0.6,0-1-0.2-1.3-0.5s-0.4-0.8-0.4-1.5v-4.6h-1.3v-1h1.3v-1.8H155.8z"/>
		<path d="M161.8,280.4c-1,0-1.8-0.3-2.4-1c-0.6-0.7-0.9-1.5-0.9-2.6v-0.2c0-0.7,0.1-1.4,0.4-2c0.3-0.6,0.7-1,1.2-1.4
			c0.5-0.3,1-0.5,1.6-0.5c1,0,1.7,0.3,2.2,1c0.5,0.6,0.8,1.5,0.8,2.7v0.5h-5c0,0.7,0.2,1.3,0.6,1.8c0.4,0.4,0.9,0.7,1.6,0.7
			c0.4,0,0.8-0.1,1.1-0.3c0.3-0.2,0.6-0.4,0.8-0.7l0.8,0.6C163.9,279.9,163,280.4,161.8,280.4z M161.1,270h1l2,1.8l-1.3,0l-1.2-1.1
			l-1.2,1.1l-1.4,0L161.1,270z M161.6,273.8c-0.5,0-0.9,0.2-1.3,0.6c-0.3,0.4-0.6,0.9-0.6,1.6h3.7v-0.1c0-0.6-0.2-1.1-0.5-1.5
			C162.5,274,162.1,273.8,161.6,273.8z M164.6,268.8h1.4l-1.4,1.8l-1,0L164.6,268.8z"/>
	</g>
</g>
<g>
	<path class="st2" d="M25,259h2c0.9,0,1.6-0.2,2.1-0.7c0.4-0.5,0.7-1.1,0.7-1.9c0-0.7-0.2-1.3-0.7-1.7c-0.4-0.4-1.1-0.6-1.8-0.6
		c-0.7,0-1.3,0.2-1.8,0.6c-0.5,0.4-0.7,0.9-0.7,1.5H21c0-1,0.3-1.8,0.8-2.6c0.5-0.8,1.2-1.4,2.2-1.8s2-0.6,3.1-0.6
		c2,0,3.5,0.5,4.6,1.4c1.1,0.9,1.7,2.2,1.7,3.9c0,0.8-0.3,1.6-0.8,2.3s-1.2,1.3-2,1.6c1,0.4,1.8,0.9,2.3,1.7
		c0.5,0.7,0.8,1.6,0.8,2.6c0,1.6-0.6,3-1.8,3.9c-1.2,1-2.8,1.5-4.8,1.5c-1.8,0-3.4-0.5-4.5-1.5c-1.2-1-1.8-2.3-1.8-3.9h3.7
		c0,0.7,0.3,1.3,0.8,1.7c0.5,0.4,1.2,0.7,1.9,0.7c0.9,0,1.6-0.2,2.1-0.7c0.5-0.5,0.7-1.1,0.7-1.8c0-1.8-1-2.8-3-2.8H25V259z"/>
</g>
<g>
	<path class="st0" d="M745.3,302.1c0,3.1,2.5,5.6,5.6,5.6h221.3c3.1,0,5.6-2.5,5.6-5.6v-51.8c0-3.1-2.5-5.6-5.6-5.6H750.9
		c-3.1,0-5.6,2.5-5.6,5.6V302.1z"/>
</g>
<path class="st1" d="M972.2,310H750.9c-4.4,0-7.9-3.5-7.9-7.9v-51.8c0-4.4,3.5-7.9,7.9-7.9h221.3c4.4,0,7.9,3.5,7.9,7.9v51.8
	C980.1,306.5,976.5,310,972.2,310z M750.9,247c-1.8,0-3.3,1.5-3.3,3.3v51.8c0,1.8,1.5,3.3,3.3,3.3h221.3c1.8,0,3.3-1.5,3.3-3.3
	v-51.8c0-1.8-1.5-3.3-3.3-3.3H750.9z"/>
<ellipse class="st1" cx="738.1" cy="260.6" rx="23.7" ry="24"/>
<path class="st0" d="M738.1,287.1c-14.4,0-26.2-11.9-26.2-26.5s11.8-26.5,26.2-26.5s26.2,11.9,26.2,26.5S752.5,287.1,738.1,287.1z
	 M738.1,239c-11.7,0-21.2,9.7-21.2,21.5s9.5,21.5,21.2,21.5s21.2-9.7,21.2-21.5S749.8,239,738.1,239z"/>
<g>
	<g>
		<path d="M775.5,278.6c-0.3,0.5-0.8,0.8-1.4,1.1c-0.6,0.2-1.3,0.4-2.1,0.4c-0.8,0-1.5-0.2-2.2-0.6c-0.6-0.4-1.1-0.9-1.5-1.6
			c-0.3-0.7-0.5-1.5-0.5-2.4v-0.9c0-1.5,0.3-2.7,1-3.5c0.7-0.8,1.7-1.2,2.9-1.2c1,0,1.9,0.3,2.5,0.8c0.6,0.5,1,1.3,1.2,2.3h-1.3
			c-0.2-1.3-1-2-2.4-2c-0.9,0-1.5,0.3-2,0.9c-0.5,0.6-0.7,1.5-0.7,2.7v0.8c0,1.1,0.3,2,0.8,2.7c0.5,0.7,1.2,1,2.1,1
			c0.5,0,0.9-0.1,1.3-0.2s0.7-0.3,0.9-0.6V276h-2.3v-1.1h3.6V278.6z"/>
		<path d="M777.5,270.5c0-0.2,0.1-0.4,0.2-0.5c0.1-0.1,0.3-0.2,0.6-0.2s0.4,0.1,0.6,0.2c0.1,0.1,0.2,0.3,0.2,0.5s-0.1,0.4-0.2,0.5
			c-0.1,0.1-0.3,0.2-0.6,0.2s-0.4-0.1-0.6-0.2C777.6,270.9,777.5,270.7,777.5,270.5z M778.9,279.9h-1.3v-7.4h1.3V279.9z"/>
		<path d="M785.5,279.9c-0.1-0.1-0.1-0.4-0.2-0.8c-0.6,0.6-1.3,0.9-2.1,0.9c-0.7,0-1.3-0.2-1.8-0.6c-0.5-0.4-0.7-0.9-0.7-1.6
			c0-0.8,0.3-1.4,0.9-1.8c0.6-0.4,1.4-0.6,2.5-0.6h1.2v-0.6c0-0.4-0.1-0.8-0.4-1.1c-0.3-0.3-0.7-0.4-1.2-0.4c-0.5,0-0.8,0.1-1.1,0.3
			c-0.3,0.2-0.5,0.5-0.5,0.8h-1.3c0-0.4,0.1-0.7,0.4-1.1c0.3-0.3,0.6-0.6,1.1-0.8c0.4-0.2,0.9-0.3,1.5-0.3c0.9,0,1.5,0.2,2,0.6
			c0.5,0.4,0.7,1,0.8,1.8v3.4c0,0.7,0.1,1.2,0.3,1.6v0.1H785.5z M783.4,278.9c0.4,0,0.8-0.1,1.1-0.3s0.6-0.5,0.8-0.8v-1.5h-1
			c-1.5,0-2.3,0.5-2.3,1.4c0,0.4,0.1,0.7,0.4,0.9C782.6,278.8,783,278.9,783.4,278.9z"/>
		<path d="M788.2,276.1c0-0.7,0.1-1.4,0.4-2c0.3-0.6,0.7-1,1.2-1.3c0.5-0.3,1.1-0.5,1.7-0.5c1,0,1.8,0.3,2.4,1s0.9,1.6,0.9,2.8v0.1
			c0,0.7-0.1,1.4-0.4,1.9c-0.3,0.6-0.7,1-1.2,1.3c-0.5,0.3-1.1,0.5-1.8,0.5c-1,0-1.8-0.3-2.4-1S788.2,277.3,788.2,276.1L788.2,276.1
			z M789.5,276.3c0,0.8,0.2,1.5,0.6,2c0.4,0.5,0.9,0.7,1.5,0.7c0.6,0,1.2-0.3,1.5-0.8c0.4-0.5,0.6-1.2,0.6-2.1c0-0.8-0.2-1.5-0.6-2
			c-0.4-0.5-0.9-0.8-1.5-0.8c-0.6,0-1.1,0.2-1.5,0.7C789.7,274.6,789.5,275.3,789.5,276.3z"/>
		<path d="M801.7,270.7v1.8h1.4v1h-1.4v4.6c0,0.3,0.1,0.5,0.2,0.7s0.3,0.2,0.6,0.2c0.1,0,0.3,0,0.6-0.1v1c-0.3,0.1-0.7,0.1-1,0.1
			c-0.6,0-1-0.2-1.3-0.5s-0.4-0.8-0.4-1.5v-4.6h-1.3v-1h1.3v-1.8H801.7z"/>
		<path d="M804.6,270.5c0-0.2,0.1-0.4,0.2-0.5c0.1-0.1,0.3-0.2,0.6-0.2s0.4,0.1,0.6,0.2c0.1,0.1,0.2,0.3,0.2,0.5s-0.1,0.4-0.2,0.5
			c-0.1,0.1-0.3,0.2-0.6,0.2s-0.4-0.1-0.6-0.2C804.6,270.9,804.6,270.7,804.6,270.5z M805.9,279.9h-1.3v-7.4h1.3V279.9z"/>
		<path d="M811,280c-1,0-1.8-0.3-2.4-1c-0.6-0.7-0.9-1.5-0.9-2.6v-0.2c0-0.7,0.1-1.4,0.4-2c0.3-0.6,0.7-1,1.2-1.4
			c0.5-0.3,1-0.5,1.6-0.5c1,0,1.7,0.3,2.2,1c0.5,0.6,0.8,1.5,0.8,2.7v0.5h-5c0,0.7,0.2,1.3,0.6,1.8c0.4,0.4,0.9,0.7,1.6,0.7
			c0.4,0,0.8-0.1,1.1-0.3c0.3-0.2,0.6-0.4,0.8-0.7l0.8,0.6C813.2,279.5,812.3,280,811,280z M810.4,269.6h1l2,1.8l-1.3,0l-1.2-1.1
			l-1.2,1.1l-1.4,0L810.4,269.6z M810.9,273.4c-0.5,0-0.9,0.2-1.3,0.6c-0.3,0.4-0.6,0.9-0.6,1.6h3.7v-0.1c0-0.6-0.2-1.1-0.5-1.5
			C811.8,273.6,811.4,273.4,810.9,273.4z M813.8,268.4h1.4l-1.4,1.8l-1,0L813.8,268.4z"/>
		<path d="M821.6,276.3c0,1.1-0.3,2-0.8,2.7c-0.5,0.7-1.2,1-2.1,1c-0.9,0-1.6-0.3-2.1-0.9v3.6h-1.3v-10.2h1.2l0.1,0.8
			c0.5-0.6,1.2-1,2.1-1c0.9,0,1.6,0.3,2.1,1c0.5,0.7,0.8,1.6,0.8,2.8V276.3z M820.4,276.1c0-0.8-0.2-1.5-0.5-2
			c-0.4-0.5-0.8-0.7-1.5-0.7c-0.8,0-1.3,0.3-1.7,1v3.5c0.4,0.7,1,1,1.7,1c0.6,0,1.1-0.2,1.4-0.7
			C820.2,277.8,820.4,277.1,820.4,276.1z"/>
		<path d="M828.4,270.7v1.8h1.4v1h-1.4v4.6c0,0.3,0.1,0.5,0.2,0.7s0.3,0.2,0.6,0.2c0.1,0,0.3,0,0.6-0.1v1c-0.3,0.1-0.7,0.1-1,0.1
			c-0.6,0-1-0.2-1.3-0.5s-0.4-0.8-0.4-1.5v-4.6h-1.3v-1h1.3v-1.8H828.4z"/>
		<path d="M839.2,271.9c0,0.8-0.2,1.4-0.5,1.7s-0.9,0.5-1.6,0.5v5.7h-1.2l0-0.7c-0.5,0.6-1.2,0.9-2.2,0.9c-0.8,0-1.4-0.2-1.8-0.7
			c-0.4-0.5-0.6-1.1-0.6-2v-4.8h1.3v4.8c0,1.1,0.5,1.7,1.4,1.7c1,0,1.6-0.4,1.9-1.1v-5.4h1.3v0.9c0.3,0,0.5-0.1,0.7-0.1
			c0.2-0.1,0.3-0.2,0.3-0.4c0.1-0.2,0.1-0.5,0.1-1H839.2z"/>
		<path d="M839.6,276.1c0-0.7,0.1-1.4,0.4-2c0.3-0.6,0.7-1,1.2-1.3c0.5-0.3,1.1-0.5,1.7-0.5c0.9,0,1.7,0.3,2.3,0.9
			c0.3,0,0.6-0.2,0.7-0.4c0.1-0.2,0.2-0.6,0.2-1.2h1c0,1.3-0.5,2.1-1.4,2.3c0.3,0.6,0.5,1.3,0.5,2.1v0.2c0,0.7-0.1,1.4-0.4,1.9
			c-0.3,0.6-0.7,1-1.2,1.3c-0.5,0.3-1.1,0.5-1.8,0.5c-1,0-1.8-0.3-2.4-1C839.9,278.3,839.6,277.3,839.6,276.1L839.6,276.1z
			 M840.9,276.3c0,0.8,0.2,1.5,0.6,2c0.4,0.5,0.9,0.7,1.5,0.7c0.6,0,1.1-0.3,1.5-0.7c0.4-0.5,0.6-1.2,0.6-2v-0.1
			c0-0.8-0.2-1.5-0.6-2c-0.4-0.5-0.9-0.7-1.5-0.7c-0.6,0-1.1,0.2-1.5,0.7C841.1,274.6,840.9,275.3,840.9,276.3z"/>
		<path d="M849.1,272.5l0,0.9c0.6-0.7,1.3-1.1,2.2-1.1c1.6,0,2.4,0.9,2.4,2.6v4.9h-1.3V275c0-0.5-0.1-0.9-0.4-1.2
			c-0.2-0.3-0.6-0.4-1.1-0.4c-0.4,0-0.8,0.1-1.1,0.3c-0.3,0.2-0.6,0.5-0.7,0.9v5.3h-1.3v-7.4H849.1z"/>
		<path d="M855.4,276.1c0-1.2,0.3-2.1,0.8-2.8c0.5-0.7,1.2-1,2.1-1c0.9,0,1.6,0.3,2.1,1l0.1-0.8h1.2v7.2c0,1-0.3,1.7-0.9,2.3
			s-1.3,0.8-2.3,0.8c-0.5,0-1.1-0.1-1.6-0.3c-0.5-0.2-0.9-0.5-1.2-0.9l0.7-0.8c0.5,0.7,1.2,1,2,1c0.6,0,1.1-0.2,1.4-0.5
			c0.3-0.3,0.5-0.8,0.5-1.5v-0.6c-0.5,0.6-1.2,0.9-2.1,0.9c-0.9,0-1.6-0.3-2.1-1C855.6,278.3,855.4,277.3,855.4,276.1z M856.6,276.3
			c0,0.8,0.2,1.5,0.5,2c0.3,0.5,0.8,0.7,1.4,0.7c0.8,0,1.4-0.4,1.8-1.1v-3.4c-0.4-0.7-1-1.1-1.7-1.1c-0.6,0-1.1,0.2-1.4,0.7
			C856.8,274.6,856.6,275.3,856.6,276.3z"/>
		<path d="M868.7,270.7v1.8h1.4v1h-1.4v4.6c0,0.3,0.1,0.5,0.2,0.7s0.3,0.2,0.6,0.2c0.1,0,0.3,0,0.6-0.1v1c-0.3,0.1-0.7,0.1-1,0.1
			c-0.6,0-1-0.2-1.3-0.5s-0.4-0.8-0.4-1.5v-4.6h-1.3v-1h1.3v-1.8H868.7z"/>
		<path d="M876.1,279.9c-0.1-0.1-0.1-0.4-0.2-0.8c-0.6,0.6-1.3,0.9-2.1,0.9c-0.7,0-1.3-0.2-1.8-0.6c-0.5-0.4-0.7-0.9-0.7-1.6
			c0-0.8,0.3-1.4,0.9-1.8c0.6-0.4,1.4-0.6,2.5-0.6h1.2v-0.6c0-0.4-0.1-0.8-0.4-1.1c-0.3-0.3-0.7-0.4-1.2-0.4c-0.5,0-0.8,0.1-1.1,0.3
			c-0.3,0.2-0.5,0.5-0.5,0.8h-1.3c0-0.4,0.1-0.7,0.4-1.1c0.3-0.3,0.6-0.6,1.1-0.8c0.4-0.2,0.9-0.3,1.5-0.3c0.9,0,1.5,0.2,2,0.6
			c0.5,0.4,0.7,1,0.8,1.8v3.4c0,0.7,0.1,1.2,0.3,1.6v0.1H876.1z M874,278.9c0.4,0,0.8-0.1,1.1-0.3s0.6-0.5,0.8-0.8v-1.5h-1
			c-1.5,0-2.3,0.5-2.3,1.4c0,0.4,0.1,0.7,0.4,0.9C873.3,278.8,873.6,278.9,874,278.9z M875.2,269.4h1.5l-1.8,2l-1,0L875.2,269.4z"/>
		<path d="M882.1,279c0.5,0,0.8-0.1,1.2-0.4c0.3-0.3,0.5-0.6,0.6-1h1.2c0,0.4-0.2,0.8-0.4,1.2c-0.3,0.4-0.6,0.7-1.1,0.9
			c-0.4,0.2-0.9,0.3-1.4,0.3c-1,0-1.8-0.3-2.4-1c-0.6-0.7-0.9-1.6-0.9-2.8V276c0-0.7,0.1-1.4,0.4-1.9c0.3-0.6,0.6-1,1.1-1.3
			c0.5-0.3,1.1-0.5,1.8-0.5c0.8,0,1.5,0.2,2.1,0.7c0.5,0.5,0.8,1.1,0.9,1.9h-1.2c0-0.5-0.2-0.9-0.5-1.2c-0.3-0.3-0.7-0.5-1.2-0.5
			c-0.6,0-1.1,0.2-1.5,0.7c-0.4,0.5-0.5,1.1-0.5,2v0.2c0,0.9,0.2,1.5,0.5,2C881,278.7,881.5,279,882.1,279z"/>
	</g>
</g>
<g>
	<path class="st2" d="M733.1,260.2l1.1-9.4h10.4v3.1h-7.4l-0.5,4c0.9-0.5,1.8-0.7,2.8-0.7c1.8,0,3.1,0.5,4.1,1.6
		c1,1.1,1.5,2.6,1.5,4.6c0,1.2-0.3,2.3-0.8,3.2c-0.5,0.9-1.2,1.7-2.2,2.2s-2,0.8-3.3,0.8c-1.1,0-2.2-0.2-3.1-0.7
		c-1-0.5-1.7-1.1-2.3-1.9c-0.6-0.8-0.8-1.8-0.9-2.8h3.6c0.1,0.8,0.3,1.4,0.8,1.8c0.5,0.4,1.1,0.6,1.8,0.6c0.8,0,1.5-0.3,1.9-0.9
		c0.4-0.6,0.7-1.4,0.7-2.5c0-1-0.3-1.9-0.8-2.4c-0.5-0.6-1.2-0.8-2.2-0.8c-0.9,0-1.6,0.2-2.1,0.7l-0.4,0.3L733.1,260.2z"/>
</g>
<g>
	<g>
		<g class="st3">
			<path class="st4" d="M397.9,31.1l14.3-4.4l49.9,66l-19.9,6.1l-7.8-10.9l-20.6,6.3l-0.4,13.5l-19.8,6.1L397.9,31.1z M414.4,75.7
				l9.5-2.9l-9-12.5L414.4,75.7z"/>
			<path class="st4" d="M411.2,30l46.3,61.2l-14,4.3l-7.8-10.9L411.1,92l-0.4,13.5l-14,4.3l3.9-76.5L411.2,30 M411.4,79.6l17.1-5.2
				l-16.1-22.5L411.4,79.6 M413.3,23.4l-3.8,1.2L399,27.8l-3.8,1.2l-0.2,4l-3.9,76.5l-0.4,8.1l7.7-2.4l14-4.3l3.9-1.2l0.1-4.1
				l0.3-9.4l16.7-5.1l5.4,7.6l2.4,3.3l3.9-1.2l14-4.3l7.8-2.4l-4.9-6.5l-46.3-61.2L413.3,23.4L413.3,23.4z M417.4,71.8l0.1-3.1
				l1.8,2.5L417.4,71.8L417.4,71.8z"/>
		</g>
		<g>
			<g>
				<g>
					<path class="st5" d="M393.9,27.1l14.3-4.4l49.9,66l-19.9,6.1l-7.8-10.9l-20.6,6.3l-0.4,13.5l-19.8,6.1L393.9,27.1z M410.4,71.7
						l9.5-2.9l-9-12.5L410.4,71.7z"/>
					<path class="st0" d="M407.2,26l46.3,61.2l-14,4.3l-7.8-10.9L407.1,88l-0.4,13.5l-14,4.3l3.9-76.5L407.2,26 M407.4,75.5
						l17.1-5.2l-16.1-22.5L407.4,75.5 M409.3,19.4l-3.8,1.2l-10.5,3.2l-3.8,1.2l-0.2,4l-3.9,76.5l-0.4,8.1l7.7-2.4l14-4.3l3.9-1.2
						l0.1-4.1l0.3-9.4l16.7-5.1l5.4,7.6l2.4,3.3l3.9-1.2l14-4.3l7.8-2.4l-4.9-6.5l-46.3-61.2L409.3,19.4L409.3,19.4z M413.4,67.8
						l0.1-3.1l1.8,2.5L413.4,67.8L413.4,67.8z"/>
				</g>
			</g>
		</g>
	</g>
	<g>
		<g class="st3">
			<path class="st4" d="M477.4,119c-4.3,0-8.5-1-12.5-2.9c-10.1-4.8-13.4-13.8-17.5-25.3l-0.7-1.9c-4.1-11.5-7.4-20.5-2.6-30.7
				c3.5-7.4,9.3-12.6,17.2-15.5c3.7-1.3,7.5-2,11.1-2c10.4,0,19.3,5.6,25,15.8l1.6,2.9l-18.7,6.7l-1.2-1.9c-2.2-3.4-4.9-5.1-8-5.1
				c-1.1,0-2.3,0.2-3.6,0.7c-2.7,1-4.7,2.7-5.5,4.9c-1.1,2.8-1.1,5.3,3.6,18.3c4.7,13,6.3,15,8.9,16.4c1.2,0.6,2.4,1,3.8,1
				c1.2,0,2.4-0.2,3.6-0.7c4.7-1.7,6.7-5.2,6.1-10.8l-0.2-2.2l18.7-6.7l0.6,3.3c2.8,15.5-4.5,28.3-19.1,33.6
				C484.5,118.3,480.9,119,477.4,119z"/>
			<path class="st4" d="M472.4,43.6c8.9,0,17,4.6,22.5,14.3l-13.4,4.8c-2.5-3.7-5.9-6.4-10.3-6.4c-1.4,0-2.9,0.3-4.5,0.8
				c-3.6,1.3-6.1,3.7-7.2,6.6c-1.5,3.8-1.1,7.3,3.6,20.3c4.7,13,6.6,16,10.2,17.9c1.5,0.8,3.3,1.3,5.2,1.3c1.5,0,3-0.3,4.6-0.8
				c6.7-2.4,8.6-7.8,8-13.7l13.4-4.8c2.7,15-4.7,25.9-17.2,30.4c-3.3,1.2-6.5,1.7-9.6,1.7c-3.9,0-7.7-0.9-11.3-2.6
				c-9.3-4.4-12.2-12.9-16.4-24.6c-4.2-11.7-7.5-20.1-3.1-29.4c3-6.5,8.2-11.3,15.6-14C465.7,44.2,469.1,43.6,472.4,43.6
				 M472.4,37.9c-4,0-8,0.7-12.1,2.2c-8.7,3.1-15,8.8-18.8,16.9c-5.3,11.2-1.7,21.2,2.5,32.8l0.3,0.9l0.3,0.9
				c4.2,11.6,7.8,21.6,19,26.9c4.4,2.1,9.1,3.1,13.8,3.1c3.8,0,7.7-0.7,11.5-2.1c16-5.7,24-19.8,20.9-36.7l-1.2-6.6l-6.3,2.3
				l-13.4,4.8l-4.2,1.5l0.5,4.4c0.6,5.3-1.8,6.9-4.2,7.8c-0.9,0.3-1.8,0.5-2.6,0.5c-0.9,0-1.7-0.2-2.4-0.6l0,0l0,0
				c-1.7-0.9-3.1-2.4-7.6-14.9c-4.5-12.4-4.3-14.5-3.6-16.3l0,0l0,0c0.6-1.4,1.9-2.6,3.8-3.3c0.9-0.3,1.8-0.5,2.6-0.5
				c0.8,0,3.1,0,5.6,3.8l2.5,3.7l4.2-1.5l13.4-4.8l6.3-2.3l-3.3-5.8C493.6,44.1,483.9,37.9,472.4,37.9L472.4,37.9z"/>
		</g>
		<g>
			<g>
				<g>
					<path class="st6" d="M473.4,115c-4.3,0-8.5-1-12.5-2.9c-10.1-4.8-13.4-13.8-17.5-25.3l-0.7-1.9c-4.1-11.5-7.4-20.5-2.6-30.7
						c3.5-7.4,9.3-12.6,17.2-15.5c3.7-1.3,7.5-2,11.1-2c10.4,0,19.3,5.6,25,15.8l1.6,2.9l-18.7,6.7l-1.2-1.9c-2.2-3.4-4.9-5.1-8-5.1
						c-1.1,0-2.3,0.2-3.6,0.7c-2.7,1-4.7,2.7-5.5,4.9c-1.1,2.8-1.1,5.3,3.6,18.3c4.7,13,6.3,15,8.9,16.4c1.2,0.6,2.4,1,3.8,1
						c1.2,0,2.4-0.2,3.6-0.7c4.7-1.7,6.7-5.2,6.1-10.8l-0.2-2.2l18.7-6.7l0.6,3.3c2.8,15.5-4.5,28.3-19.1,33.6
						C480.5,114.3,476.9,115,473.4,115z"/>
					<path class="st0" d="M468.4,39.6c8.9,0,17,4.6,22.5,14.3l-13.4,4.8c-2.5-3.7-5.9-6.4-10.3-6.4c-1.4,0-2.9,0.3-4.5,0.8
						c-3.6,1.3-6.1,3.7-7.2,6.6c-1.5,3.8-1.1,7.3,3.6,20.3c4.7,13,6.6,16,10.2,17.9c1.5,0.8,3.3,1.3,5.2,1.3c1.5,0,3-0.3,4.6-0.8
						c6.7-2.4,8.6-7.8,8-13.7l13.4-4.8c2.7,15-4.7,25.9-17.2,30.4c-3.3,1.2-6.5,1.7-9.6,1.7c-3.9,0-7.7-0.9-11.3-2.6
						c-9.3-4.4-12.2-12.9-16.4-24.6c-4.2-11.7-7.5-20.1-3.1-29.4c3-6.5,8.2-11.3,15.6-14C461.7,40.2,465.1,39.6,468.4,39.6
						 M468.4,33.9c-4,0-8,0.7-12.1,2.2c-8.7,3.1-15,8.8-18.8,16.9c-5.3,11.2-1.7,21.2,2.5,32.8l0.3,0.9l0.3,0.9
						c4.2,11.6,7.8,21.6,19,26.9c4.4,2.1,9.1,3.1,13.8,3.1c3.8,0,7.7-0.7,11.5-2.1c16-5.7,24-19.8,20.9-36.7l-1.2-6.6l-6.3,2.3
						l-13.4,4.8l-4.2,1.5l0.5,4.4c0.6,5.3-1.8,6.9-4.2,7.8c-0.9,0.3-1.8,0.5-2.6,0.5c-0.9,0-1.7-0.2-2.4-0.6l0,0l0,0
						c-1.7-0.9-3.1-2.4-7.6-14.9c-4.5-12.4-4.3-14.5-3.6-16.3l0,0l0,0c0.6-1.4,1.9-2.6,3.8-3.3c0.9-0.3,1.8-0.5,2.6-0.5
						c0.8,0,3.1,0,5.6,3.8l2.5,3.7l4.2-1.5l13.4-4.8l6.3-2.3l-3.3-5.8C489.6,40,479.8,33.9,468.4,33.9L468.4,33.9z"/>
				</g>
			</g>
		</g>
	</g>
	<g>
		<g class="st3">
			<path class="st4" d="M439.6,176.1c-4.6,0-9.6-1.5-14.3-4.3L397,154.9L437,88.2l27.3,16.3c13.3,7.9,17,20.5,9.7,32.7
				c-3.4,5.6-8.6,8.4-13.2,9.3c1.7,4.4,2.4,10.6-1.9,17.9C454.3,171.9,447.5,176.1,439.6,176.1z M433.5,155.4
				c1.4,0.8,2.7,1.3,3.9,1.3c2.6,0,4.1-1.9,4.8-3.1c1.1-1.9,2.3-5.6-2.6-8.5l-10.1-6.1l-6.2,10.3L433.5,155.4z M448.3,128.9
				c1.5,0.9,2.9,1.3,4.1,1.3c1.8,0,3.2-0.9,4.2-2.7c0.9-1.4,1.1-2.8,0.7-4.1c-0.4-1.4-1.6-2.8-3.5-3.9l-9.4-5.6l-5.6,9.4
				L448.3,128.9z"/>
			<path class="st4" d="M437.9,92.1l24.8,14.9c12.1,7.2,15,18.2,8.7,28.8c-3.7,6.3-10,8.2-14.2,8.2c-0.4,0-0.8,0-1.1-0.1
				c2.7,4,5.1,10.7,0.2,19c-4.2,7.1-10.2,10.4-16.8,10.4c-4.2,0-8.5-1.3-12.8-3.9l-25.9-15.5L437.9,92.1 M452.4,133.1
				c2.8,0,5.1-1.4,6.7-4.1c2.5-4.3,1.4-8.8-3.7-11.9l-11.8-7.1l-8.5,14.2l11.8,7.1C448.8,132.5,450.7,133.1,452.4,133.1
				 M437.4,159.5c3.1,0,5.6-1.8,7.2-4.5c2.5-4.2,1.9-9.1-3.6-12.4l-12.6-7.5l-9.1,15.2l12.6,7.5C433.9,159,435.8,159.5,437.4,159.5
				 M436,84.3l-2.9,4.9l-37,61.8l-2.9,4.9l4.9,2.9l25.9,15.5c5.1,3.1,10.6,4.7,15.7,4.7c8.9,0,16.6-4.7,21.6-13.1
				c3.4-5.6,4.4-11.7,3.1-17.4c4.4-1.5,8.9-4.6,12-9.8c8.1-13.5,3.9-27.9-10.7-36.6l-24.8-14.9L436,84.3L436,84.3z M442.8,122.3
				l2.7-4.5l6.9,4.2c1.2,0.7,2,1.5,2.2,2.2c0.1,0.5,0,1.1-0.4,1.9c-0.8,1.3-1.5,1.3-1.8,1.3c-0.7,0-1.6-0.3-2.6-0.9L442.8,122.3
				L442.8,122.3z M427.2,148.4l3.3-5.4l7.7,4.6c2.7,1.6,2.6,3,1.6,4.6c-0.7,1.1-1.5,1.7-2.4,1.7c-0.7,0-1.6-0.3-2.5-0.9L427.2,148.4
				L427.2,148.4z"/>
		</g>
		<g>
			<g>
				<g>
					<path class="st7" d="M435.6,172.1c-4.6,0-9.6-1.5-14.3-4.3L393,150.8l39.9-66.7l27.3,16.3c13.3,7.9,17,20.5,9.7,32.7
						c-3.4,5.6-8.6,8.4-13.2,9.3c1.7,4.4,2.4,10.6-1.9,17.9C450.2,167.9,443.4,172.1,435.6,172.1z M429.5,151.4
						c1.4,0.8,2.7,1.3,3.9,1.3c2.6,0,4.1-1.9,4.8-3.1c1.1-1.9,2.3-5.6-2.6-8.5l-10.1-6.1l-6.2,10.3L429.5,151.4z M444.3,124.9
						c1.5,0.9,2.9,1.3,4.1,1.3c1.8,0,3.2-0.9,4.2-2.7c0.9-1.4,1.1-2.8,0.7-4.1c-0.4-1.4-1.6-2.8-3.5-3.9l-9.4-5.6l-5.6,9.4
						L444.3,124.9z"/>
					<path class="st0" d="M433.9,88.1l24.8,14.9c12.1,7.2,15,18.2,8.7,28.8c-3.7,6.3-10,8.2-14.2,8.2c-0.4,0-0.8,0-1.1-0.1
						c2.7,4,5.1,10.7,0.2,19c-4.2,7.1-10.2,10.4-16.8,10.4c-4.2,0-8.5-1.3-12.8-3.9l-25.9-15.5L433.9,88.1 M448.4,129.1
						c2.8,0,5.1-1.4,6.7-4.1c2.5-4.3,1.4-8.8-3.7-11.9l-11.8-7.1l-8.5,14.2l11.8,7.1C444.8,128.5,446.7,129.1,448.4,129.1
						 M433.4,155.5c3.1,0,5.6-1.8,7.2-4.5c2.5-4.2,1.9-9.1-3.6-12.4l-12.6-7.5l-9.1,15.2l12.6,7.5
						C429.9,155,431.7,155.5,433.4,155.5 M432,80.3l-2.9,4.9l-37,61.8l-2.9,4.9l4.9,2.9l25.9,15.5c5.1,3.1,10.6,4.7,15.7,4.7
						c8.9,0,16.6-4.7,21.6-13.1c3.4-5.6,4.4-11.7,3.1-17.4c4.4-1.5,8.9-4.6,12-9.8c8.1-13.5,3.9-27.9-10.7-36.6l-24.8-14.9L432,80.3
						L432,80.3z M438.8,118.3l2.7-4.5l6.9,4.2c1.2,0.7,2,1.5,2.2,2.2c0.1,0.5,0,1.1-0.4,1.9c-0.8,1.3-1.5,1.3-1.8,1.3
						c-0.7,0-1.6-0.3-2.6-0.9L438.8,118.3L438.8,118.3z M423.2,144.4l3.3-5.4l7.7,4.6c2.7,1.6,2.6,3,1.6,4.6
						c-0.7,1.1-1.5,1.7-2.4,1.7c-0.7,0-1.6-0.3-2.5-0.9L423.2,144.4L423.2,144.4z"/>
				</g>
			</g>
		</g>
	</g>
</g>
<g>
	<g>
		
			<rect x="788.7" y="90.3" transform="matrix(0.4249 -0.9053 0.9053 0.4249 371.623 769.9417)" class="st8" width="6.1" height="4.4"/>
		<path class="st8" d="M794.1,91.6l-4-0.9l-0.7,3.2l-2,3.1c1.7,0.7,4.7-0.1,4.5,2.4L794.1,91.6z"/>
		<path class="st8" d="M786.7,98.2l2.7-5.9c0.2-0.5,0.8-0.6,1.2-0.4l0,0c0,0,0.1,0,0.1,0.1l0.2-0.5c0.2-0.5,0.8-0.7,1.3-0.4l0,0
			c0.3,0.2,0.5,0.5,0.5,0.8c0.2,0,0.4,0,0.7,0.1l0,0c0.5,0.3,0.7,0.9,0.5,1.4l-3.4,6.2l-1,2.8c-0.3,0.5-0.9,0.7-1.4,0.5l0,0
			c-0.5-0.2-0.5-1.1-0.3-1.6C787.8,100.9,786.2,99.4,786.7,98.2z"/>
		<path class="st8" d="M788.3,106.2L788.3,106.2c-0.4-0.1-0.6-0.4-0.6-0.8l1.2-6l0-0.1l1.3,0.9l-1.1,5.4
			C789.1,106,788.7,106.3,788.3,106.2z"/>
		<path class="st8" d="M792.4,102.2L792.4,102.2c-0.4,0-0.7-0.4-0.7-0.8l0.2-2.3c0-0.9-0.7-0.7-1.2,0.2l-1.3-5l2.5-1.6l1,2.1
			c0.7,0.2,0.8,1.3,0.8,1.9l-0.5,4.9C793.2,101.9,792.8,102.2,792.4,102.2z"/>
		<path class="st8" d="M788.4,105L788.4,105c-0.4,0-0.7-0.2-0.8-0.6l-0.6-6.1l0,0l1.5,0.5l0.5,5.5C789.1,104.6,788.8,105,788.4,105z
			"/>
		<path class="st8" d="M789.5,105.1L789.5,105.1c-0.4,0.1-0.8,0-0.9-0.4l-1.9-5.5l1.6,0.9l1.6,4.1
			C790,104.5,789.8,104.9,789.5,105.1z"/>
	</g>
	<polygon class="st9" points="787.1,95.1 794.1,96.8 794.5,95.2 787.5,93.5 	"/>
	<path class="st10" d="M802.8,61.9l-4.6-5.3c-2.2,1.6-3.5,5.1-3.8,6.5l-7.3,30.7c0,0,0,0,0,0l7.7,1.8c0,0,0,0,0,0L802.8,61.9
		C802.9,61.9,802.8,61.9,802.8,61.9z"/>
	<path class="st11" d="M809.5,142.7c0.6,0.8,1.2,3.4,1,4.7c-0.1,1.3-0.1,1.5-0.9,1.9c-0.8,0.4-1,0.4-1.2,0.1
		c-0.2-0.4-1.9,1.2-2.7,1.7c-0.8,0.5-2.7,1.5-5.1,1.5c-2.4,0-4.4-0.3-4.4-1.5s0.7-1.8,2.4-3c1.7-1.2,3.4-3.5,3.9-4.5
		c0.5-1,2.2-0.8,2.9-0.4c0.7,0.3,1.5,2.3,2.5,1.6C809,144,809.1,142.4,809.5,142.7z"/>
	<path class="st11" d="M813.5,142.7c-0.6,0.8-1.2,3.4-1.1,4.7c0.1,1.3,0.1,1.5,0.9,1.9c0.8,0.4,1,0.4,1.2,0.1
		c0.2-0.4,1.9,1.2,2.7,1.7c0.8,0.5,2.7,1.5,5.1,1.5c2.4,0,4.4-0.3,4.4-1.5s-0.7-1.8-2.4-3c-1.7-1.2-3.4-3.5-3.9-4.5
		c-0.5-1-2.2-0.8-2.9-0.4c-0.7,0.3-1.5,2.3-2.5,1.6C814,144,813.8,142.4,813.5,142.7z"/>
	<g>
		<path class="st10" d="M802.5,93.5h6.6c0.9,0,1.6,0.7,1.6,1.6v48.7c0,0.9-0.7,1.6-1.6,1.6h-6.6c-0.9,0-1.6-0.7-1.6-1.6V95.2
			C800.9,94.3,801.6,93.5,802.5,93.5z"/>
		<path class="st10" d="M813.8,93.5h6.6c0.9,0,1.6,0.7,1.6,1.6v48.7c0,0.9-0.7,1.6-1.6,1.6h-6.6c-0.9,0-1.6-0.7-1.6-1.6V95.2
			C812.2,94.3,812.9,93.5,813.8,93.5z"/>
	</g>
	<polygon class="st9" points="850,67.4 844.8,62.3 843.7,63.5 848.8,68.5 	"/>
	<g>
		<path class="st12" d="M857.2,50.7L857.2,50.7c0.5,0.3,0.5,0.8,0.2,1.2l-4.8,5.7c-0.3,0.4-1,0.5-1.4,0.2l0,0
			c-0.5-0.3-0.5-0.8-0.2-1.2l4.8-5.7C856.1,50.5,856.7,50.4,857.2,50.7z"/>
		<path class="st13" d="M845.5,63.4l3.3,2.6l3.3-2.3c1.7-1.2,3.3-5.9,4.1-8l-2.9-1.1l-6.1,3.8L845.5,63.4z"/>
		<path class="st12" d="M847.3,59.7l0.5,0.5l0.5-0.6l4.2-4.5c0.5-0.5,0.5-1,0.4-1.5c-0.1-0.4-0.6-1.1-0.9-0.9l-4.8,5.1
			C846.8,58.4,846.8,59.2,847.3,59.7z"/>
		<path class="st14" d="M852.2,52.8c-0.1-0.1-0.2,0-0.2,0l-0.9,1c0.5,0.4,1-0.1,1.3-0.6C852.4,53.1,852.3,52.9,852.2,52.8z"/>
		<path class="st12" d="M853.9,60.5L853.9,60.5c0.3,0.4,0.2,0.8-0.2,1.1l-1.3,0.7c-0.4,0.2-0.9,0.1-1.2-0.3l0,0
			c-0.3-0.4-0.2-0.8,0.2-1.1l1.3-0.7C853.1,59.9,853.6,60.1,853.9,60.5z"/>
		<path class="st12" d="M855,57.8L855,57.8c0.3,0.4,0.2,1-0.2,1.2l-1.3,0.7c-0.4,0.2-1.1,0.1-1.4-0.4l0,0c-0.3-0.4-0.2-1,0.2-1.2
			l1.3-0.7C854,57.2,854.7,57.4,855,57.8z"/>
		<path class="st14" d="M853.6,58.6L853.6,58.6c0.3,0.3,0.2,0.8-0.2,1l-0.1,0.1c-0.4,0.2-0.9,0.1-1.1-0.3l0,0
			c-0.3-0.3-0.2-0.8,0.2-1l0.1-0.1C852.9,58.1,853.4,58.2,853.6,58.6z"/>
		<path class="st14" d="M852.6,61.1L852.6,61.1c0.2,0.3,0.1,0.7-0.2,0.9l-0.1,0.1c-0.3,0.2-0.8,0.1-1-0.3l0,0
			c-0.2-0.3-0.1-0.7,0.2-0.9l0.1-0.1C851.9,60.7,852.4,60.8,852.6,61.1z"/>
		<path class="st12" d="M856,55.1L856,55.1c0.3,0.4,0.2,1-0.2,1.2l-1.3,0.7c-0.4,0.2-1.1,0.1-1.4-0.4l0,0c-0.3-0.4-0.2-1,0.2-1.2
			l1.3-0.7C855.1,54.5,855.7,54.6,856,55.1z"/>
		<path class="st14" d="M854.6,55.8L854.6,55.8c0.3,0.3,0.2,0.8-0.2,1l-0.1,0.1c-0.4,0.2-0.9,0.1-1.1-0.3l0,0
			c-0.3-0.3-0.2-0.8,0.2-1l0.1-0.1C853.9,55.3,854.4,55.4,854.6,55.8z"/>
		<path class="st12" d="M845.5,63.4l2.3,1.9c1.5-1.7,3.6-5.2,1.6-7c-0.2-0.3-0.5-0.6-0.8-0.8l-1.6,1L845.5,63.4z"/>
	</g>
	<polygon class="st9" points="843.3,64 848.4,69.1 850.6,66.8 845.4,61.7 	"/>
	<path class="st10" d="M822.1,65.7l2.8-9.1c0,0,10.9,11.6,12.2,13l6.7-6.6c0,0,0,0,0,0l5.6,5.6c0,0,0,0,0,0l-10.2,10.1
		c-1.9,1.9-3.6,0.5-4.4-0.2C830.5,74.2,826.3,70,822.1,65.7C822.1,65.7,822.1,65.7,822.1,65.7z"/>
	<path class="st15" d="M823.1,98.1c-7.7,2.2-15.5,2.3-23.2,0l-1.3-27.1c-0.3-6.7,1-6.6-0.4-14.4c3.2-2.3,7.9-4.1,9.8-5.7
		c1.1,0.9,2.2,1.5,3.4,1.5c1.2,0,2.4-0.6,3.4-1.5c2,1.6,6.7,3.4,9.9,5.7c-1.8,7.6-0.2,7.7-0.5,14.7L823.1,98.1z"/>
	<polygon class="st9" points="804.8,53 805.5,60 811.5,75.2 817.5,60 818.2,53 815.3,51.2 807.6,51.2 	"/>
	<rect x="807.6" y="48.7" class="st13" width="7.6" height="6.2"/>
	<path class="st8" d="M811.5,52.4c3,0,5.8-3.4,7.3-7.7c0.1,0.1,0.2,0.1,0.3,0.2c0.6,0.1,1.3-1,1.5-2.5c0.2-1.5,0-2.8-0.6-2.9
		c0,0-0.1,0-0.1,0c0.3-5.2-1.9-10-8.3-10c-6.5,0-8.6,4.8-8.3,10.1c-0.1,0-0.1,0-0.2,0c-0.6,0.1-0.9,1.4-0.6,2.9
		c0.2,1.5,0.9,2.6,1.5,2.5c0.1,0,0.2-0.1,0.3-0.2C805.7,48.9,808.5,52.4,811.5,52.4z"/>
	<path class="st11" d="M819.8,39.5c0.3-5.2-1.9-10-8.3-10c-6.5,0-8.6,4.8-8.3,10.1c0.5,0.1,1.1,1.1,1.3,2.3c0.4,0.3,0.7,0.1,0.7-0.9
		c0-3.1,0.4-5.9,2.4-6.5c1.9-0.6,2.4,0.7,3.8,0.7c1.5,0,1.9-1.3,3.9-0.7c2,0.6,2.4,3.4,2.4,6.5c0,1,0.3,1.2,0.7,1
		C818.7,40.6,819.3,39.6,819.8,39.5z"/>
	<path class="st16" d="M812.5,58.8l0.4-0.9l-1.4-3.4l-1.4,3.4l0.4,0.9C811.2,58.8,811.8,58.8,812.5,58.8z"/>
	<polygon class="st17" points="807.6,51.2 811.5,54.5 809.3,60.2 805.8,52.4 	"/>
	<polygon class="st10" points="805.8,52.4 811.5,75.3 803.6,62.7 804.6,60.4 802.3,58.6 804.8,53 	"/>
	<polygon class="st17" points="815.3,51.2 811.5,54.5 813.7,60.2 817.1,52.4 	"/>
	<polygon class="st16" points="810.5,60.9 812.5,60.9 813.5,70.7 811.5,75.3 809.6,70.7 	"/>
	<polygon class="st9" points="807.6,51.2 811.5,54.5 809.3,58.8 805.8,52.4 	"/>
	<polygon class="st15" points="805.8,52.4 811.5,75.3 804.3,61.6 805.5,60 803.2,58.2 804.8,53 	"/>
	<polygon class="st10" points="817.1,52.4 811.5,75.3 819.4,62.7 818.4,60.4 820.6,58.6 818.2,53 	"/>
	<polygon class="st15" points="817.1,52.4 811.5,75.3 818.6,61.6 817.5,60 819.7,58.2 818.2,53 	"/>
	<polygon class="st9" points="815.3,51.2 811.5,54.5 813.7,58.8 817.1,52.4 	"/>
	<path class="st16" d="M810.5,58.6h1.9c0.4,0.9,0.4,1.7,0,2.5h-1.9C810.1,60.3,810.1,59.5,810.5,58.6z"/>
	<path class="st10" d="M811.6,99.7c-0.8-7.6-0.9-17.7-0.2-26.4C812.2,82,812.4,92.1,811.6,99.7z"/>
	<g>
		<path class="st10" d="M882.6,74.5c3.4-0.8,5.7-3,6.3-0.3c0.7,3.3,2.4,11.6,3.3,19.1c0.2,1.6-0.2,2.1-0.7,2.3
			c-2.3,0.7-4.3,0.9-6.8,1.3L882.6,74.5C882.6,74.5,882.6,74.5,882.6,74.5z"/>
		<path class="st11" d="M886.8,62.8c-2.1,9.9-6.2,27.5-9.4,27.5s-9.3-18.9-10.5-26.2c-1-6.3,0.9-18.5,14.1-14.5
			C885.5,49.3,888.6,54.3,886.8,62.8z"/>
		<path class="st10" d="M872.3,74.5c-4.3-1-5.7-3.2-6.4,0.1c-0.8,3.5-2.3,11.6-3.2,18.8c-0.2,1.8,0.4,2.1,1,2.3
			c2.2,0.6,4.1,0.9,6.6,1.2L872.3,74.5C872.4,74.5,872.3,74.5,872.3,74.5z"/>
		<path class="st10" d="M869,96.4l-0.1,0.3c5.3,0.7,11.7,0.7,17,0c0-0.1-0.1-0.2-0.1-0.3H869z"/>
		<path class="st15" d="M868.7,96.6c1.5-4.3,0.6-5.6-1.3-10.3c-2-4.8,2.1-7.3-1-13.3c2.7-1.7,6.1-2.4,8.2-4.1c1,0.9,1.7,1.1,2.8,1.1
			c1.1,0,1.9-0.2,2.8-1.1c1.5,1.3,5.5,2.3,8.3,4.1c-2.9,6.1,1,7.1-1,13.3c-1.5,4.7-3.9,5-1.7,10.3C880.6,97.4,874,97.3,868.7,96.6z"
			/>
		<polygon class="st9" points="872.2,70.5 871.9,77.1 877.5,91.1 882.9,77.1 882.6,70.3 880.3,69 874.6,69 		"/>
		<rect x="874.6" y="66.7" class="st13" width="5.5" height="5.7"/>
		<path class="st8" d="M877.4,70.1c2.8,0,5.3-3.2,6.7-7.1c0.1,0.1,0.2,0.1,0.3,0.1c0.6,0.1,1.2-0.9,1.4-2.3c0.2-1.4,0-2.6-0.6-2.6
			c0,0-0.1,0-0.1,0c0.3-4.8-1.7-9.3-7.7-9.3c-6,0-7.9,4.5-7.7,9.3c-0.1,0-0.1,0-0.2,0c-0.6,0.1-0.8,1.3-0.6,2.6
			c0.2,1.4,0.9,2.4,1.4,2.3c0.1,0,0.2-0.1,0.3-0.2C872.1,66.9,874.6,70.1,877.4,70.1z"/>
		<path class="st16" d="M878.3,76l0.4-0.8l-1.3-3.2l-1.3,3.1l0.4,0.9C877.2,76,877.8,76,878.3,76z"/>
		<polygon class="st17" points="874.6,69 877.4,72 875.4,77.3 873,70.1 		"/>
		<polygon class="st10" points="873,70 877.4,91.2 870.1,79.6 871.1,77.5 869,75.9 871.8,70.6 		"/>
		<polygon class="st17" points="880.3,69 877.4,72 879.4,77.3 881.9,70.1 		"/>
		<polygon class="st16" points="876.6,78 878.3,78 879.3,86.9 877.4,91.2 875.7,86.9 		"/>
		<polygon class="st9" points="874.6,69 877.4,72 875.4,76 873,70.1 		"/>
		<polygon class="st15" points="873,70 877.4,91.2 870.8,78.6 871.9,77.1 869.8,75.4 871.8,70.6 		"/>
		<polygon class="st10" points="882,69.9 877.4,91.2 884.7,79.6 883.8,77.5 885.9,75.9 883.6,70.7 		"/>
		<polygon class="st15" points="882,69.9 877.4,91.2 884,78.6 882.9,77.1 885,75.4 883.6,70.7 		"/>
		<polygon class="st9" points="880.3,69 877.4,72 879.5,76 881.9,70.1 		"/>
		<path class="st16" d="M876.6,75.8h1.8c0.4,0.8,0.4,1.6,0,2.3h-1.8C876.2,77.4,876.2,76.7,876.6,75.8z"/>
		<path class="st10" d="M877.2,97.2c0-1.6,0.2-3.4,0.4-6.2c0.2,2.8,0.3,4.6,0.4,6.2C877.7,97.2,877.4,97.2,877.2,97.2z"/>
		<path class="st8" d="M885.2,59.1c0.5,0.1,0.8,1.1,0.5,2.3c-0.3,1.1-0.9,1.9-1.4,1.8c-0.5-0.1-0.8-1.1-0.5-2.3
			C884.1,59.8,884.7,59,885.2,59.1z"/>
		<path class="st11" d="M885.2,58.2c0.3-4.8-1.8-9.3-7.8-9.3c-6.1,0-8.1,4.5-7.8,9.3c0.5,0.1,1,1,1.2,2.1c0.4,0.3,0.7,0.1,0.7-0.9
			c0-2.9,0.4-5.4,2.3-6c1.8-0.6,2.2,0.7,3.6,0.7c1.4,0,1.8-1.2,3.6-0.7c1.9,0.5,2.3,3.1,2.3,6c0,0.9,0.3,1.1,0.6,0.9
			C884.1,59.2,884.7,58.3,885.2,58.2z"/>
		<path class="st11" d="M882.9,50.6c0.4,2.7-3.9,8.6-6.9,9.9c2-1.1,3.3-5.2,2.8-8.1C878.7,51.7,883.2,51.1,882.9,50.6z"/>
		<path class="st11" d="M880.9,50.9c-0.4,2.7-9.5,11.1-12.8,11.6c-1-13.9,7.5-8.1,8.3-10.9C876.6,50.9,881,51.5,880.9,50.9z"/>
		<path class="st11" d="M878.7,49.2c-0.2,2.7,4.2,12.5,7.4,13.6c1.2-9.9-1.4-11.2-3.2-12C882.3,50.5,878.4,49.7,878.7,49.2z"/>
	</g>
	<g>
		<path class="st10" d="M923.3,74.5c3.4-0.8,8.1-2.7,8.7,0c0.7,3.3,1.6,11,2.6,18.4c0.2,1.6-1.9,2.5-2.4,2.6
			c-2.3,0.7-4.3,0.9-6.8,1.3L923.3,74.5C923.3,74.5,923.3,74.5,923.3,74.5z"/>
		<path class="st10" d="M913,74.5c-4.3-1-7.7-3.4-8.4,0c-0.8,3.5-1.6,11.2-2.5,18.4c-0.2,1.8,1.7,2.6,2.3,2.8
			c2.2,0.6,4.1,0.9,6.6,1.2L913,74.5C913.1,74.5,913,74.5,913,74.5z"/>
		<path class="st10" d="M909.7,96.4l-0.1,0.3c5.3,0.7,11.7,0.7,17,0c0-0.1-0.1-0.2-0.1-0.3H909.7z"/>
		<path class="st15" d="M907.6,96.4c1.2-3.4-1.5-19.1-3-22c0.8-3,8.6-3.6,10.7-5.3c1,0.9,1.7,1.1,2.8,1.1c1.1,0,1.9-0.2,2.8-1.1
			c1.5,1.3,9.6,2.2,10.9,5.2c-1.6,3.3-4.4,19.1-3.2,22.1C923.5,97.4,913,97.4,907.6,96.4z"/>
		<polygon class="st9" points="912.9,70.5 912.6,77.1 918.2,91.1 923.6,77.1 923.3,70.3 921,69 915.3,69 		"/>
		<rect x="915.3" y="66.7" class="st13" width="5.5" height="5.7"/>
		<path class="st18" d="M919.1,76l0.4-0.8l-1.3-3.2l-1.3,3.1l0.4,0.9C917.9,76,918.5,76,919.1,76z"/>
		<polygon class="st17" points="915.3,69 918.1,72 916.1,77.3 913.7,70.1 		"/>
		<polygon class="st10" points="913.7,70 918.1,91.2 910.8,79.6 911.8,77.5 909.7,75.9 912.5,70.6 		"/>
		<polygon class="st17" points="921,69 918.1,72 920.1,77.3 922.6,70.1 		"/>
		<polygon class="st18" points="917.3,78 919.1,78 920,86.9 918.1,91.2 916.4,86.9 		"/>
		<polygon class="st9" points="915.3,69 918.1,72 916.1,76 913.7,70.1 		"/>
		<polygon class="st15" points="913.7,70 918.1,91.2 911.5,78.6 912.6,77.1 910.5,75.4 912.5,70.6 		"/>
		<polygon class="st10" points="922.7,69.9 918.1,91.2 925.4,79.6 924.5,77.5 926.6,75.9 924.3,70.7 		"/>
		<polygon class="st15" points="922.7,69.9 918.1,91.2 924.7,78.6 923.6,77.1 925.7,75.4 924.3,70.7 		"/>
		<polygon class="st9" points="921,69 918.1,72 920.2,76 922.6,70.1 		"/>
		<path class="st18" d="M917.3,75.8h1.8c0.4,0.8,0.4,1.6,0,2.3h-1.8C916.9,77.4,916.9,76.7,917.3,75.8z"/>
		<path class="st10" d="M917.9,97.2c0-1.6,0.2-3.4,0.4-6.2c0.2,2.8,0.3,4.6,0.4,6.2C918.4,97.2,918.1,97.2,917.9,97.2z"/>
		<polygon class="st9" points="912,70.6 912.7,77 918.2,91 923.7,77 924.4,70.6 921.7,68.9 914.7,68.9 		"/>
		<rect x="914.7" y="66.7" class="st13" width="7" height="5.7"/>
		<path class="st8" d="M918.2,70c2.8,0,5.3-3.2,6.7-7c0.1,0.1,0.2,0.1,0.3,0.1c0.5,0.1,1.2-0.9,1.4-2.3c0.2-1.4,0-2.5-0.6-2.6
			c0,0-0.1,0-0.1,0c0.3-4.8-1.7-9.2-7.6-9.2c-5.9,0-7.9,4.4-7.6,9.2c-0.1,0-0.1,0-0.2,0c-0.5,0.1-0.8,1.3-0.6,2.6
			c0.2,1.4,0.9,2.4,1.4,2.3c0.1,0,0.2-0.1,0.3-0.2C912.9,66.8,915.4,70,918.2,70z"/>
		<path class="st19" d="M925.8,58.2c0.3-4.8-1.7-9.2-7.6-9.2c-5.9,0-7.9,4.4-7.6,9.2c0.5,0.1,1,1,1.2,2.1c0.4,0.3,0.7,0.1,0.7-0.9
			c0-2.8,0.4-5.4,2.2-6c1.8-0.6,2.2,0.7,3.5,0.7c1.4,0,1.8-1.2,3.5-0.7c1.8,0.5,2.2,3.1,2.2,6c0,0.9,0.3,1.1,0.6,0.9
			C924.8,59.2,925.3,58.3,925.8,58.2z"/>
		<path class="st16" d="M919.1,75.9l0.4-0.8l-1.3-3.1l-1.3,3.1l0.4,0.9C917.9,75.9,918.5,75.9,919.1,75.9z"/>
		<polygon class="st17" points="914.7,68.9 918.2,71.9 916.2,77.2 913,70 		"/>
		<polygon class="st10" points="913,70 918.2,91 910.9,79.4 911.9,77.4 909.8,75.8 912,70.6 		"/>
		<polygon class="st17" points="921.7,68.9 918.2,71.9 920.2,77.2 923.4,70 		"/>
		<polygon class="st16" points="917.3,77.9 919.1,77.9 920,86.8 918.2,91 916.4,86.8 		"/>
		<path class="st19" d="M923.5,52.1c-0.8,1.5-8.5,5.9-11,6.1C910,58.4,912.4,48.1,923.5,52.1z"/>
		<path class="st19" d="M919.9,52.1c0.3,1.5,3.6,5.9,4.7,6.1C925.7,58.4,924.7,48.1,919.9,52.1z"/>
		<polygon class="st9" points="914.7,68.9 918.2,71.9 916.2,75.9 913,70 		"/>
		<polygon class="st15" points="913,70 918.2,91 911.6,78.5 912.7,77 910.6,75.3 912,70.6 		"/>
		<polygon class="st10" points="923.4,70 918.2,91 925.5,79.4 924.5,77.4 926.6,75.8 924.4,70.6 		"/>
		<polygon class="st15" points="923.4,70 918.2,91 924.8,78.5 923.7,77 925.8,75.3 924.4,70.6 		"/>
		<polygon class="st9" points="921.7,68.9 918.2,71.9 920.2,75.9 923.4,70 		"/>
		<path class="st16" d="M917.3,75.7h1.8c0.4,0.8,0.4,1.5,0,2.3h-1.8C917,77.3,916.9,76.6,917.3,75.7z"/>
		<path class="st10" d="M917.8,97.2c0.3,0,0.6,0,0.9,0c0.1-1.5-0.2-5.5-0.4-6.2C918,91.5,917.6,95.6,917.8,97.2z"/>
	</g>
	<rect x="842.3" y="91.8" class="st11" width="113.1" height="8.2"/>
	<rect x="854.1" y="91.8" class="st11" width="89.5" height="56.1"/>
	<g>
		<path class="st20" d="M851.6,0.9c14,0,25.3,8.4,25.3,18.8c0,8.1-6.8,14.9-16.4,17.6l2.9,10.5l-8.5-9.5c-1.1,0.1-2.2,0.2-3.3,0.2
			c-14,0-25.3-8.4-25.3-18.8C826.3,9.3,837.6,0.9,851.6,0.9z"/>
		<path class="st21" d="M834.2,7.1c-4.4,3.2-7.1,7.7-7.1,12.6c0,4.9,2.7,9.4,7.1,12.6c4.4,3.3,10.6,5.3,17.4,5.3l0,0v1.7l0,0
			c-7.2,0-13.7-2.2-18.4-5.7c-4.8-3.6-7.8-8.5-7.8-14c0-5.5,3-10.4,7.8-14c4.7-3.5,11.3-5.7,18.4-5.7l0,0v1.7l0,0
			C844.8,1.7,838.7,3.8,834.2,7.1z M851.6,0c7.2,0,13.7,2.2,18.4,5.7c4.8,3.6,7.8,8.5,7.8,14c0,4.2-1.7,8.1-4.7,11.3
			c-2.8,3.1-6.8,5.5-11.5,6.9l2.7,9.7c0.1,0.5-0.1,0.9-0.6,1.1c-0.3,0.1-0.7,0-0.9-0.3h0l-8.2-9.1c-0.4,0-0.8,0.1-1.3,0.1
			c-0.6,0-1.2,0-1.7,0v-1.7c0.6,0,1.1,0,1.6,0c0.5,0,1.1-0.1,1.6-0.1c0.3,0,0.6,0,0.8,0.3l6.1,6.7l-1.9-6.9l0,0
			c-0.1-0.5,0.1-0.9,0.6-1.1c4.7-1.3,8.7-3.7,11.5-6.7c2.7-2.9,4.2-6.4,4.2-10.1c0-4.9-2.7-9.4-7.1-12.6c-4.4-3.3-10.6-5.3-17.4-5.3
			V0z"/>
		<path class="st22" d="M865.6,12.9c0.5,0,0.9-0.4,0.9-0.9c0-0.5-0.4-0.9-0.9-0.9h-27.3c-0.5,0-0.9,0.4-0.9,0.9
			c0,0.5,0.4,0.9,0.9,0.9H865.6z"/>
		<path class="st22" d="M865.6,18.1c0.5,0,0.9-0.4,0.9-0.9c0-0.5-0.4-0.9-0.9-0.9h-27.3c-0.5,0-0.9,0.4-0.9,0.9
			c0,0.5,0.4,0.9,0.9,0.9H865.6z"/>
		<path class="st22" d="M865.6,23.2c0.5,0,0.9-0.4,0.9-0.9c0-0.5-0.4-0.9-0.9-0.9h-27.3c-0.5,0-0.9,0.4-0.9,0.9
			c0,0.5,0.4,0.9,0.9,0.9H865.6z"/>
		<path class="st22" d="M865.6,28.4c0.5,0,0.9-0.4,0.9-0.9c0-0.5-0.4-0.9-0.9-0.9h-27.3c-0.5,0-0.9,0.4-0.9,0.9
			c0,0.5,0.4,0.9,0.9,0.9H865.6z"/>
	</g>
</g>
<g>
	<g>
		<path class="st20" d="M260.8,208.3c12.6,0,22.8,7.6,22.8,16.9c0,7.2-6.1,13.4-14.7,15.8l2.6,9.4l-7.6-8.5c-1,0.1-2,0.1-3,0.1
			c-12.6,0-22.8-7.6-22.8-16.9C238.1,215.8,248.3,208.3,260.8,208.3z"/>
		<path class="st21" d="M260.8,209c6.1,0,11.6,1.8,15.6,4.8c3.9,2.9,6.3,6.9,6.3,11.3c0,3.4-1.4,6.5-3.8,9.1
			c-2.5,2.7-6.1,4.8-10.3,6c-0.4,0.1-0.7,0.5-0.5,1l0,0l1.7,6.2l-5.4-6.1c-0.2-0.2-0.5-0.3-0.7-0.2c-0.5,0-0.9,0.1-1.4,0.1
			c-0.5,0-0.9,0-1.5,0v1.6c0.5,0,1,0,1.5,0c0.4,0,0.8,0,1.1-0.1l7.4,8.2v0c0.2,0.2,0.5,0.3,0.8,0.2c0.4-0.1,0.7-0.5,0.5-1l-2.4-8.7
			c4.2-1.3,7.8-3.5,10.3-6.2c2.7-2.9,4.2-6.4,4.2-10.1c0-4.9-2.7-9.4-7-12.6c-4.2-3.2-10.1-5.1-16.6-5.1V209z M260.8,241.3
			c-6.1,0-11.6-1.8-15.6-4.8c-3.9-2.9-6.3-6.9-6.3-11.3c0-4.4,2.4-8.4,6.3-11.3c4-3,9.5-4.8,15.6-4.8v-1.6c-6.5,0-12.3,2-16.6,5.1
			c-4.3,3.2-7,7.7-7,12.6c0,4.9,2.7,9.4,7,12.6c4.2,3.2,10.1,5.1,16.6,5.1V241.3z"/>
		<path class="st22" d="M273.4,219.1c0.4,0,0.8-0.3,0.8-0.8c0-0.4-0.3-0.8-0.8-0.8h-24.5c-0.4,0-0.8,0.3-0.8,0.8
			c0,0.4,0.3,0.8,0.8,0.8H273.4z"/>
		<path class="st22" d="M273.4,223.7c0.4,0,0.8-0.3,0.8-0.8c0-0.4-0.3-0.8-0.8-0.8h-24.5c-0.4,0-0.8,0.3-0.8,0.8
			c0,0.4,0.3,0.8,0.8,0.8H273.4z"/>
		<path class="st22" d="M273.4,228.3c0.4,0,0.8-0.3,0.8-0.8c0-0.4-0.3-0.8-0.8-0.8h-24.5c-0.4,0-0.8,0.3-0.8,0.8
			c0,0.4,0.3,0.8,0.8,0.8H273.4z"/>
		<path class="st22" d="M273.4,233c0.4,0,0.8-0.3,0.8-0.8c0-0.4-0.3-0.8-0.8-0.8h-24.5c-0.4,0-0.8,0.3-0.8,0.8
			c0,0.4,0.3,0.8,0.8,0.8H273.4z"/>
	</g>
	<g>
		<path class="st20" d="M244.5,191c-12.6,0-22.8,7.6-22.8,16.9c0,7.2,6.1,13.4,14.7,15.8l-2.6,9.4l7.6-8.5c1,0.1,2,0.1,3,0.1
			c12.6,0,22.8-7.6,22.8-16.9C267.3,198.5,257.1,191,244.5,191z"/>
		<path class="st21" d="M244.5,224c6.1,0,11.6-1.8,15.6-4.8c3.9-2.9,6.3-6.9,6.3-11.3c0-4.4-2.4-8.4-6.3-11.3c-4-3-9.5-4.8-15.6-4.8
			v-1.6c6.5,0,12.3,2,16.6,5.1c4.3,3.2,7,7.7,7,12.6c0,4.9-2.7,9.4-7,12.6c-4.2,3.2-10.1,5.1-16.6,5.1V224z M244.5,191.7
			c-6.1,0-11.6,1.8-15.6,4.8c-3.9,2.9-6.3,6.9-6.3,11.3c0,3.4,1.4,6.5,3.8,9.1c2.5,2.7,6.1,4.8,10.3,6c0.4,0.1,0.7,0.5,0.5,1l0,0
			l-1.7,6.2l5.4-6.1c0.2-0.2,0.4-0.3,0.7-0.2c0.5,0,0.9,0.1,1.4,0.1c0.5,0,0.9,0,1.5,0l0,0v1.6l0,0c-0.5,0-1,0-1.5,0
			c-0.4,0-0.8,0-1.1-0.1l-7.4,8.2l0,0c-0.2,0.2-0.5,0.3-0.8,0.2c-0.4-0.1-0.7-0.5-0.5-1l2.4-8.7c-4.2-1.3-7.8-3.5-10.3-6.2
			c-2.7-2.9-4.2-6.4-4.2-10.1c0-4.9,2.7-9.4,7-12.6c4.2-3.2,10.1-5.1,16.6-5.1l0,0V191.7L244.5,191.7z"/>
		<path class="st22" d="M232,201.8c-0.4,0-0.8-0.4-0.8-0.8c0-0.4,0.3-0.8,0.8-0.8h24.5c0.4,0,0.8,0.3,0.8,0.8c0,0.4-0.3,0.8-0.8,0.8
			H232z"/>
		<path class="st22" d="M232,206.4c-0.4,0-0.8-0.3-0.8-0.8c0-0.4,0.3-0.8,0.8-0.8h24.5c0.4,0,0.8,0.3,0.8,0.8c0,0.4-0.3,0.8-0.8,0.8
			H232z"/>
		<path class="st22" d="M232,211c-0.4,0-0.8-0.3-0.8-0.8c0-0.4,0.3-0.8,0.8-0.8h24.5c0.4,0,0.8,0.3,0.8,0.8c0,0.4-0.3,0.8-0.8,0.8
			H232z"/>
		<path class="st22" d="M232,215.7c-0.4,0-0.8-0.3-0.8-0.8c0-0.4,0.3-0.8,0.8-0.8h24.5c0.4,0,0.8,0.3,0.8,0.8c0,0.4-0.3,0.8-0.8,0.8
			H232z"/>
	</g>
	<g>
		<path class="st10" d="M217.8,271.6c7-1.7,11.9-6.3,13.2-0.6c1.5,6.8,4.9,24.1,6.9,39.7c0.4,3.4-0.5,4.4-1.6,4.7
			c-4.8,1.4-8.9,1.9-14.2,2.6L217.8,271.6C217.8,271.6,217.8,271.6,217.8,271.6z"/>
		<path class="st23" d="M226.5,247.3c-4.3,20.5-13,57-19.5,57c-6.5,0-19.3-39.3-21.8-54.4c-2.2-13,1.9-38.5,29.3-30.2
			C223.7,219.2,230.3,229.5,226.5,247.3z"/>
		<path class="st10" d="M196.5,271.6c-8.9-2.1-11.8-6.7-13.4,0.2c-1.6,7.3-4.8,24-6.7,39c-0.5,3.8,0.8,4.4,2.1,4.7
			c4.6,1.2,8.6,1.8,13.6,2.5L196.5,271.6C196.5,271.6,196.5,271.6,196.5,271.6z"/>
		<path class="st10" d="M189.6,317l-0.2,0.5c10.9,1.4,24.4,1.4,35.3,0.1c-0.1-0.2-0.2-0.4-0.3-0.6H189.6z"/>
		<path class="st15" d="M189,317.5c3.1-8.9,1.3-11.6-2.8-21.3c-4.1-9.9,4.3-15.3-2-27.6c5.5-3.5,12.7-5,17-8.5
			c2,1.8,3.5,2.2,5.8,2.2c2.3,0,3.8-0.5,5.9-2.3c3.2,2.6,11.3,4.8,17.1,8.6c-6,12.6,2.1,14.7-2,27.6c-3.1,9.8-8,10.4-3.5,21.4
			C213.6,319,200,319,189,317.5z"/>
		<polygon class="st9" points="196.1,263.1 195.6,276.9 207.1,306.1 218.5,276.9 217.8,262.7 212.9,260.1 201.2,260.2 		"/>
		<rect x="201.2" y="255.3" class="st13" width="11.5" height="11.9"/>
		<path class="st8" d="M207,262.4c5.8,0,11.1-6.6,13.9-14.7c0.2,0.2,0.3,0.3,0.6,0.3c1.1,0.2,2.5-2,2.9-4.8c0.5-2.8-0.1-5.3-1.2-5.5
			c-0.1,0-0.2,0-0.2,0c0.6-10-3.6-19.2-15.9-19.2c-12.4,0-16.5,9.3-15.9,19.3c-0.1,0-0.2,0-0.4,0c-1.1,0.2-1.7,2.7-1.2,5.5
			c0.5,2.8,1.8,5,2.9,4.8c0.2,0,0.5-0.2,0.6-0.4C195.9,255.7,201.3,262.4,207,262.4z"/>
		<path class="st24" d="M208.9,274.6l0.8-1.7l-2.7-6.6l-2.7,6.5l0.8,1.8C206.5,274.6,207.7,274.6,208.9,274.6z"/>
		<polygon class="st17" points="201.2,260.2 207,266.4 202.9,277.4 197.8,262.4 		"/>
		<polygon class="st10" points="197.8,262.1 207,306.3 191.9,282 193.9,277.8 189.5,274.4 195.4,263.5 		"/>
		<polygon class="st17" points="212.9,260.1 207,266.4 211.2,277.4 216.4,262.4 		"/>
		<polygon class="st24" points="205.2,278.7 208.9,278.7 210.9,297.4 207,306.3 203.3,297.4 		"/>
		<polygon class="st9" points="201.2,260.2 207,266.4 202.8,274.7 197.8,262.4 		"/>
		<polygon class="st15" points="197.8,262.1 207,306.3 193.3,280.1 195.6,276.9 191.2,273.5 195.4,263.5 		"/>
		<polygon class="st10" points="216.5,262 207,306.3 222.2,282 220.2,277.8 224.6,274.4 219.9,263.6 		"/>
		<polygon class="st15" points="216.5,262 207,306.3 220.7,280.1 218.5,276.9 222.9,273.5 219.9,263.6 		"/>
		<polygon class="st9" points="212.9,260.1 207,266.4 211.3,274.7 216.4,262.4 		"/>
		<path class="st24" d="M205.2,274.3h3.7c0.8,1.7,0.8,3.2,0,4.7h-3.7C204.5,277.5,204.4,276,205.2,274.3z"/>
		<path class="st10" d="M206.5,318.6c0.1-3.2,0.3-7.1,0.7-12.9c0.4,5.8,0.7,9.6,0.8,12.9C207.5,318.6,207,318.6,206.5,318.6z"/>
		<path class="st8" d="M223.3,239.5c1.1,0.2,1.6,2.4,1.1,4.7c-0.5,2.3-1.8,4-3,3.8c-1.1-0.2-1.6-2.4-1.1-4.7
			C220.8,240.9,222.2,239.2,223.3,239.5z"/>
		<path class="st23" d="M223.2,237.7c0.6-10-3.6-19.2-16.2-19.2c-12.6,0-16.8,9.3-16.2,19.3c1,0.2,2.1,2.1,2.5,4.5
			c0.8,0.5,1.4,0.2,1.4-1.8c0-6,0.8-11.2,4.7-12.5c3.8-1.2,4.6,1.4,7.5,1.4c2.9,0,3.8-2.5,7.5-1.4c3.8,1.1,4.7,6.5,4.7,12.5
			c0,1.9,0.5,2.3,1.3,1.9C221,239.7,222.1,237.8,223.2,237.7z"/>
		<path class="st23" d="M218.4,221.8c0.8,5.6-8,17.8-14.4,20.6c4.1-2.3,6.8-10.7,5.8-16.8C209.6,224.2,219.1,222.9,218.4,221.8z"/>
		<path class="st23" d="M214.2,222.6c-0.8,5.6-19.7,23.1-26.7,24c-2.2-28.8,15.6-16.9,17.3-22.7
			C205.3,222.5,214.5,223.8,214.2,222.6z"/>
		<path class="st23" d="M209.6,219c-0.5,5.6,8.8,25.9,15.4,28.3c2.5-20.6-2.9-23.3-6.5-25C217.2,221.7,209,220.1,209.6,219z"/>
	</g>
</g>
<g>
	<path class="st25" d="M595,267.3c0,0-4.8,3.4-14.5,6.5c0,0-4.7,1.3-9.2,3.1c-2.1,0.9-3.9,2.4-5.1,4.4c-1.1,1.9-2.4,4.8-3.1,9
		c0,0-1.7,7.2-1.3,18.1c0,0,8.1,7.8,43,8.5l-0.1-44.5L595,267.3z"/>
	<path class="st25" d="M614.7,267.3c0,0,4.8,3.4,14.5,6.5c0,0,4.7,1.3,9.2,3.1c2.1,0.9,3.9,2.4,5.1,4.4c1.2,1.9,2.4,4.8,3.1,9
		c0,0,1.7,7.2,1.3,18.1c0,0-8.2,7.8-43,8.5l0.1-44.5L614.7,267.3z"/>
	<polygon class="st26" points="602.2,305.9 604.8,311.7 614.8,272.3 593.8,272.3 	"/>
	<path class="st27" d="M595.6,259.6c0.1,0.3-0.3,10.1-0.3,10.1l6.7,6.9l12.1-7.3l-0.5-9.8H595.6z"/>
	<path class="st28" d="M595.4,267.7l18.3-6l-0.1-2.1h-0.2c-9.3,0.3-12.8,0.4-17.6,0h-0.2C595.7,259.8,595.5,264.9,595.4,267.7z"/>
	<polygon class="st26" points="607.5,305.9 604.9,311.7 594.9,272.3 615.9,272.3 	"/>
	<g>
		<g>
			<g>
				<path class="st29" d="M602.5,276.4c0.1,0.2,0.5,0.3,0.9,0.3h2.7c0.4,0,0.8-0.1,0.9-0.3l1.5-3c0.3-0.6-0.1-1.1-1-1.1h-5.6
					c-0.9,0-1.3,0.5-1,1.1L602.5,276.4z"/>
			</g>
			<g>
				<polygon class="st29" points="600.5,304.6 604.7,311.7 609.1,305.2 608.6,297.5 607,276.3 602.5,276.3 600.9,298.3 				"/>
			</g>
		</g>
	</g>
	<polygon class="st30" points="595.4,267 597.9,278.2 604.9,272.3 	"/>
	<polygon class="st30" points="614.3,267 611.8,278.2 604.8,272.3 	"/>
	<polygon class="st31" points="595.4,267 589.9,270.1 588.1,280.4 592.4,283.1 588.9,285 604.8,316.8 604.8,309.6 	"/>
	<polygon class="st31" points="614.3,267 619.8,270.1 621.6,280.4 617.3,283.1 620.8,285 604.9,316.8 604.9,309.6 	"/>
	<path class="st32" d="M622.2,238.5c-0.1,2.5,0.4,4.7,1.7,4.8c1.3,0,2.3-2,2.3-4.5c0.1-2.5-0.9-4.6-2.2-4.7
		C622.8,234,622.3,236,622.2,238.5z"/>
	<path class="st33" d="M588.1,238c0.1,2.5-0.4,4.8-1.7,4.8c-1.3,0-2.3-2-2.3-4.5c-0.1-2.5,0.9-4.6,2.2-4.7
		C587.5,233.5,588,235.4,588.1,238z"/>
	<path class="st34" d="M587,239c0,14,8,25.3,17.8,25.3c9.8,0,17.8-11.3,17.8-25.3c0-14-8-25.3-17.8-25.3
		C595,213.7,587,225.1,587,239z"/>
	<path class="st35" d="M604.7,213.7v50.6c9.9,0.1,18-11.1,18-25C622.7,225.2,615.2,214,604.7,213.7z"/>
	<path d="M621.8,247.1c0,0,4.1-15.2-4.7-22.8c0,0-6.5,5.2-14.4,3.4c0,0-2.6-0.6-5.8-2.5c0,0-6.2-2.6-8.2,3.4
		c-2.2,6.5-1.1,13-1.2,16.9c0,0-2.9-6.5-3-16.5c0,0-0.5,1.8-0.7,3.9c0,0-1.1-7.6,0.9-12.1c0,0,1.4-4.8,7-7.2c0,0,3.3-5.2,16.3-4.2
		c0,0,0.2-0.9-1.8-1.7c0,0,10-0.6,12.3,6.2c0,0,8.1,1.8,7.4,15.9l-0.9-2.6C625,227.3,626.6,240.6,621.8,247.1z"/>
	<path class="st36" d="M582.5,237.7c0,0-3.9,4.3-0.7,11.2c0,0,4.4,8.8,19.4,9.2v-1.5c0,0-22.3-0.4-18.6-16.3L582.5,237.7z"/>
	<path class="st37" d="M601.3,259.2h7.2c1.1,0,2-0.9,2-2l0,0c0-1.1-0.9-2-2-2h-7.2c-1.1,0-2,0.9-2,2l0,0
		C599.3,258.3,600.2,259.2,601.3,259.2z"/>
	<path class="st37" d="M583.2,243.8h2.5c0.5,0,0.9-0.4,0.9-0.9v-7.6c0-0.5-0.4-0.9-0.9-0.9h-2.5c-0.5,0-0.9,0.4-0.9,0.9v7.6
		C582.3,243.4,582.7,243.8,583.2,243.8z"/>
</g>
<g>
	<polygon class="st0" points="989.8,285.9 972.1,307 979.8,313 997.8,292.4 	"/>
	<path class="st38" d="M979.8,313l17.6-20.1c-0.1-0.5-0.3-0.9-0.5-1.3l-2.7-2.2l0,0l-17.6,21L979.8,313z"/>
	<path class="st39" d="M962,300L962,300c2.5,0,4.6-2.1,4.6-4.6v-38.8c0-2.5-2.1-4.6-4.6-4.6l0,0h-8.6l2.7,48H962z"/>
	<polygon class="st0" points="1002.5,282.1 989.8,285.9 985.4,319.7 1024.2,318.6 1026.2,281.8 1014.5,281.8 	"/>
	<path class="st38" d="M1020.7,297v7.9l-8.3,1.5c0,0,10.3,5.1,12.4,0.5c2.1-4.7-2-20.4-2-20.4l0,0
		C1021.4,289.8,1020.7,293.4,1020.7,297z"/>
	<polygon class="st40" points="1005.1,289.9 1001,292.7 996.3,284 999.7,282.8 	"/>
	<polygon class="st40" points="1005.1,289.9 1009.2,292.2 1017.2,281.8 1013.4,280.5 1009.1,280.9 	"/>
	<polygon class="st41" points="1013.4,280.5 1005.1,289.9 999.6,282.7 999.6,276 1013.4,276 	"/>
	<polygon class="st42" points="1001,292.7 1002.8,296.3 1007.6,296.3 1009.2,292.3 1005.1,289.9 	"/>
	<g>
		<path class="st43" d="M988,260.2c0,0-2.1-14.5,0-18c2.1-3.4,8.5-2.6,10.2,1.5C999.8,247.8,988,260.2,988,260.2z"/>
		<path class="st41" d="M1003.8,281L1003.8,281c14.2,0,19.4-13,19.6-18.1l-0.4-19.7l-3.5-4l-23.5-0.1l-4.4,3.9c0,0-4.4,3.7-3.6,21.8
			C988.4,273,995.1,281.2,1003.8,281z"/>
		<path class="st41" d="M1023.1,260.4c0,0,0.3-3.6,1.7-3.8c1.5-0.1,3.5,2.7,2.6,5.5c-0.9,2.9-4.4,2.9-4.4,2.9L1023.1,260.4z"/>
		<path class="st44" d="M1007,252.4c0,0,0-0.1,0-0.4c0-0.3,0.2-0.6,0.4-1c0.2-0.4,0.7-0.8,1.2-1c0.5-0.3,1.1-0.4,1.7-0.4
			c0.2,0,0.3,0,0.5,0c0.2,0,0.3,0,0.5,0.1c0.3,0.1,0.6,0.2,0.8,0.3c0.5,0.3,0.9,0.7,1.1,1c0.3,0.4,0.4,0.7,0.5,0.9
			c0.1,0.2,0.1,0.4,0.1,0.4s-0.1-0.1-0.2-0.3c-0.2-0.2-0.4-0.5-0.7-0.7c-0.3-0.3-0.7-0.6-1.1-0.8c-0.2-0.1-0.5-0.2-0.7-0.2
			c-0.1,0-0.3,0-0.4-0.1c-0.1,0-0.3,0-0.4,0c-0.5,0-1.1,0.1-1.5,0.2c-0.5,0.2-0.8,0.4-1.1,0.7c-0.3,0.3-0.5,0.6-0.6,0.8
			C1007.1,252.2,1007,252.4,1007,252.4z"/>
		<path class="st44" d="M996.4,252.8c0,0,0-0.1-0.1-0.4c-0.1-0.2-0.3-0.5-0.5-0.8c-0.3-0.3-0.6-0.6-1.1-0.8c-0.4-0.2-1-0.3-1.5-0.3
			c-0.1,0-0.3,0-0.4,0c-0.1,0-0.2,0-0.4,0c-0.2,0-0.5,0.1-0.7,0.2c-0.5,0.2-0.8,0.4-1.2,0.7c-0.3,0.3-0.6,0.5-0.7,0.7
			c-0.2,0.2-0.3,0.3-0.3,0.3s0-0.1,0.1-0.4c0.1-0.2,0.3-0.6,0.6-0.9c0.3-0.3,0.7-0.7,1.2-1c0.3-0.1,0.6-0.2,0.9-0.3
			c0.2,0,0.3,0,0.5-0.1c0.2,0,0.3,0,0.5,0c0.6,0,1.2,0.2,1.7,0.5c0.5,0.3,0.9,0.7,1.1,1.1c0.2,0.4,0.3,0.8,0.4,1
			C996.4,252.7,996.4,252.8,996.4,252.8z"/>
		<path class="st45" d="M1005.3,275.1L1005.3,275.1c-4.2,0-7.5-3.3-7.5-7.4l0,0l14.9,0l0,0C1012.7,271.7,1009.4,275.1,1005.3,275.1z
			"/>
		<path class="st0" d="M1011.1,269.5l-11.7,0c-0.6,0-1.1-0.4-1.2-1l0,0c0-0.2,0.1-0.4,0.4-0.4l13.5,0c0.2,0,0.4,0.2,0.4,0.4v0
			C1012.2,269.1,1011.7,269.5,1011.1,269.5z"/>
		<path class="st46" d="M1005.3,271.4c-2.2,0-4.2,0.6-5.3,1.5c1.4,1.4,3.2,2.2,5.3,2.2h0.1c2.1,0,4-0.9,5.3-2.2
			C1009.5,272,1007.5,271.4,1005.3,271.4z"/>
		<g>
			<g>
				<path class="st44" d="M993.3,258.3c-0.4,0.5,0,0,0.1-0.1c0.3-0.3,0.5-0.5,0.8-0.7c1-0.5,1.8,0.1,2.4,1c1.3,1.7,4.2,0,2.9-1.7
					c-1.4-1.9-3.5-3.5-6-2.7c-1.3,0.4-2.4,1.4-3.2,2.4C989.1,258.3,992,260,993.3,258.3L993.3,258.3z"/>
			</g>
		</g>
		<g>
			<g>
				<path class="st44" d="M1014.6,256.2c-2.9-3.2-7.3-2.9-10.1,0.2c-1.5,1.6,0.9,4,2.4,2.4c1.6-1.8,3.7-2,5.3-0.2
					C1013.7,260.2,1016.1,257.8,1014.6,256.2L1014.6,256.2z"/>
			</g>
		</g>
		<path class="st47" d="M1015.7,274.3c-4.8,4.8-11.5,5.6-15.3,6.4c1.1,0.3,2.3,0.4,3.5,0.4c14.2,0,19.4-13,19.6-18.1l-0.2-9.4
			c-0.9-0.8-1.5-1.2-1.5-1.2S1024.5,265.5,1015.7,274.3z"/>
		<path class="st44" d="M1023.4,260.4c0,0-0.9-8.4-2.5-8.8c-2-0.6-2.6-4.9-2.7-5.9c-0.1-1-27.8,0.7-32.3-1.1
			c-4.5-1.9-8.7-8.9-5.1-10.3c3.6-1.4,6.5,1.6,6.5,1.6s-3.8-4.5,0-6.5c3.8-2,7.7,5.4,7.7,5.4s-2.7-4.8,0.7-5.3
			c3.4-0.5,7.1,4.8,7.1,4.8s14-2.6,17.6-0.5c3.6,2.1,3.6,5.5,3.6,5.5s1.7-0.5,3.3,3.3C1029,246.1,1028.4,258.3,1023.4,260.4z"/>
	</g>
	<polygon class="st45" points="1002.8,296.3 997.8,314.9 1009.2,314.9 1007.5,296.3 	"/>
	<path class="st48" d="M1038.7,322.2H906.7c-2,0-3.7-1.6-3.7-3.7l0,0c0-2,1.6-3.7,3.7-3.7h131.9c2,0,3.7,1.6,3.7,3.7l0,0
		C1042.3,320.6,1040.7,322.2,1038.7,322.2z"/>
	<path class="st0" d="M1031,286l1.9,24.4l-9.2,3.4l-1.7-27.3c-0.2-2.5,1.7-4.6,4.2-4.8l0,0C1028.7,281.6,1030.8,283.5,1031,286z"/>
	<path class="st47" d="M1030.6,306.5c0.4,0.6,0.6,1.4,0.6,2.2c0,2.5-2,4.5-4.5,4.5l-15.7,0c-0.8,0-1.5-0.2-2.2-0.6
		c0.8,1.4,2.2,2.3,3.9,2.3l15.7,0c2.5,0,4.5-2,4.5-4.5C1032.9,308.7,1031.9,307.2,1030.6,306.5z"/>
	<path class="st41" d="M1015.7,305.9l-2.9,0c-2.5,0-4.5,2-4.5,4.5c0,2.5,2,4.5,4.5,4.5l2.9,0V305.9z"/>
	<path class="st0" d="M1028.4,314.9c2.5,0,4.5-2,4.5-4.5c0-2.5-2-4.5-4.5-4.5l-12.7,0v9L1028.4,314.9z"/>
	<path class="st38" d="M1030.9,285.3c0-0.1-0.1-0.3-0.1-0.4c0,0,0-0.1,0-0.1c-0.1-0.3-0.3-0.7-0.5-1c0,0-0.2-0.3-0.2-0.3
		c-0.1-0.1,0,0-0.1-0.1c0,0,0,0,0,0c-0.4-0.4-0.8-0.8-1.3-1l0,0c0.3,0.5,0.5,1.2,0.5,1.8l1.6,20.3c0.2,2.9-1.9,5.4-4.8,5.7
		l-17.4,1.8c0.6,1.7,2.3,3,4.2,3l2.9,0l12.8,0c2.5,0,4.5-2,4.5-4.5c0-0.2,0-0.4,0-0.6L1031,286c0-0.2,0-0.4-0.1-0.5
		C1030.9,285.4,1030.9,285.4,1030.9,285.3z"/>
	<path class="st44" d="M954,300h-49.3c-4.4,0-8-3.6-8-8v-32c0-4.4,3.6-8,8-8H954c4.4,0,8,3.6,8,8v32C962,296.4,958.4,300,954,300z"
		/>
	<path class="st43" d="M913.1,314.9h18.7l-0.4-48h-18.9c-1.8,0-3.3,1.5-3.3,3.3v40.9C909.3,313.2,911,314.9,913.1,314.9z"/>
	<path class="st39" d="M931.8,311.2v-39.9h3.6c1.2,0,2.2-1,2.2-2.2l0,0c0-1.2-1-2.2-2.2-2.2h-3.6h-0.4c-1.8,0-3.3,1.5-3.3,3.3v41
		c0,2,1.6,3.7,3.7,3.7l0,0H944c1,0,1.8-0.8,1.8-1.8l0,0c0-1-0.8-1.8-1.8-1.8H931.8z"/>
	<path class="st41" d="M976,314.9l-5.1,0c-2.6,0-4.8-2.1-4.8-4.8l0,0c0-2.6,2.1-4.8,4.8-4.8h5.1c2.6,0,4.8,2.1,4.8,4.8l0,0
		C980.8,312.7,978.6,314.9,976,314.9z"/>
	<path class="st38" d="M979.2,306.5c-0.6,1.9-2.4,3.3-4.5,3.3l-5.1,0c-1.2,0-2.4-0.5-3.2-1.2c-0.2,0.5-0.2,1-0.2,1.5
		c0,2.6,2.1,4.8,4.8,4.8l5.1,0c2.6,0,4.8-2.1,4.8-4.8C980.8,308.7,980.2,307.4,979.2,306.5z"/>
	<path class="st39" d="M1002.4,314.9h-47.7l0,0c0-2.3,1.9-4.2,4.2-4.2h39.3C1000.5,310.7,1002.4,312.6,1002.4,314.9L1002.4,314.9z"
		/>
	<path class="st44" d="M996.3,314.9h-47.7l0,0c0-2.3,1.9-4.2,4.2-4.2H992C994.4,310.7,996.3,312.6,996.3,314.9L996.3,314.9z"/>
</g>
<g>
</g>
<g>
</g>
<g>
</g>
<g>
</g>
<g>
</g>
<g>
</g>
<g>
</g>
<g>
</g>
<g>
</g>
<g>
</g>
<g>
</g>
<g>
</g>
<g>
</g>
<g>
</g>
<g>
</g>
</svg>
