<?xml version="1.0" encoding="utf-8"?>
<!-- Generator: Adobe Illustrator 22.1.0, SVG Export Plug-In . SVG Version: 6.00 Build 0)  -->
<svg version="1.1" id="Layer_1" xmlns="http://www.w3.org/2000/svg" xmlns:xlink="http://www.w3.org/1999/xlink" x="0px" y="0px"
	 viewBox="0 0 122.4 184" style="enable-background:new 0 0 122.4 184;" xml:space="preserve">
<style type="text/css">
	.st0{fill:#A67C52;}
	.st1{fill:#8C6239;}
	.st2{fill:#754C24;}
	.st3{fill:#FDDCBE;}
	.st4{opacity:0.75;fill:#FFDEBF;}
	.st5{opacity:0.5;fill:#FFDEBF;}
	.st6{fill:#EBF7FD;}
	.st7{opacity:0.28;fill:#CCCCCC;}
	.st8{fill:#5E8CA3;}
	.st9{opacity:0.28;fill:#5E8CA3;}
	.st10{opacity:0.71;fill:#DCE8EE;}
	.st11{fill:#562911;}
	.st12{fill:#0680C4;}
	.st13{fill:#FFDEBF;}
	.st14{opacity:0.75;}
	.st15{fill:#FFFFFF;}
	.st16{fill:#883E28;}
	.st17{fill:#4D1700;}
	.st18{opacity:0.48;fill:#883E28;}
	.st19{fill:#C52A47;}
	.st20{fill:#F2808E;}
	.st21{fill:#552A14;}
	.st22{fill:#666B92;}
	.st23{fill:#A19CA1;}
	.st24{fill:#B3B3B3;}
	.st25{opacity:0.89;}
	.st26{fill:#EFEDE8;}
	.st27{fill:#A67E53;}
	.st28{fill:#C49A6C;}
	.st29{fill:#A0653F;}
	.st30{fill:#EACB9A;}
	.st31{fill:#CCCCCC;}
	.st32{fill:#D8B98E;}
	.st33{fill:#2E3192;}
	.st34{opacity:0.89;fill:#FFDEBF;}
	.st35{fill:#FF0000;}
	.st36{fill:#FBB03B;}
	.st37{fill:#ED1C24;}
	.st38{fill:#E6E6E6;}
	.st39{fill:#275D9C;}
	.st40{fill:#B9BBBD;}
	.st41{fill:#D0D2D3;}
	.st42{fill:#E6E7E8;}
	.st43{fill:#64AAC7;}
	.st44{fill:#9AB7C8;}
	.st45{fill:#9CB7C9;}
	.st46{fill:#7482AC;}
	.st47{fill:#1B75BB;}
	.st48{fill:#009345;}
	.st49{fill:#8BC53F;}
	.st50{fill:#F1F1F2;}
	.st51{fill:#37B34A;}
	.st52{fill:#666666;}
	.st53{fill:#808080;}
	.st54{fill:#5D5D5D;}
	.st55{fill:#575365;}
	.st56{fill:#4D4D4D;}
	.st57{fill:#414140;}
	.st58{fill:#433F41;}
	.st59{fill:#B6B8BA;}
	.st60{fill:#333333;}
	.st61{fill:#FDCDAB;}
</style>
<g>
	<g>
		<g>
			<path class="st0" d="M100,131.8c0.7,5.5-9.7,7.5-9.9,10.3c0.5,2.7,9.1,1.8,12,0.2c1.5-0.7,4.3-1.4,5.2-2.9
				c1.5-2.3-0.4-5.4-0.9-7.6L100,131.8z"/>
		</g>
		<g>
			<path class="st1" d="M103.3,136.4c-0.6,0.6-1.5,0.9-2.4,1.1c0.2-1.1,1.5-2.1,1-3.1c-0.6-0.9-1.6-0.6-2.5-0.1
				c-1.8,3.2-7.4,5-9,6.9c-0.2,0.7,0.3,1.4,0.8,1.4c4.5,1,9.1,0.1,12.9-2.7c0.3-0.2,1.1-0.3,1.7-0.4c0.8-0.3,1.5-0.9,2-1.6
				c0.2-1.4-0.4-3-0.9-4.4C105.8,134.4,104.6,135.3,103.3,136.4z"/>
		</g>
		<g>
			<path class="st2" d="M105.9,139.5c-0.6,0.1-1.3,0.2-1.7,0.4c-3.8,2.8-8.4,3.7-12.9,2.7c-0.6-0.1-1.1-0.8-0.8-1.4
				c-0.2,0.3-0.4,0.6-0.4,0.9c0.5,2.7,9.1,1.8,12,0.2c1.5-0.7,4.3-1.4,5.2-2.9c0.3-0.4,0.4-0.9,0.5-1.4
				C107.4,138.7,106.7,139.2,105.9,139.5z"/>
		</g>
		<g>
			<path class="st0" d="M109.2,133.2c-0.4,3.2-0.3,5.5-2.1,8.5c-1,1.7-2.8,4.3-1.4,6.3c1.6,2.4,5.6,1.3,7.4,0.1c2.2-1.6,2-4.8,3.4-7
				c2.5-4.3,0.8-5.9,0.2-10.2L109.2,133.2z"/>
		</g>
		<g>
			<path class="st1" d="M112.5,135.4c-2-1.5-2.6,1.1-2.9,2.7c0.3-1.7-0.1-3.4,0.2-5.1l-0.6,0.2c-0.4,3.2-0.3,5.5-2.1,8.5
				c-0.4,0.7-1,1.6-1.4,2.5c-0.3,0.9-0.4,1.9,0,2.8c0.4,1,1.6,1.5,2.6,1.7c2.7,0.3,5.4-1.1,6-3.7c0.8-2.7,1.6-4.9,3.1-7.3
				c0.1-0.2,0.2-0.3,0.2-0.5c0.1-1.4-0.3-2.6-0.7-4.1c-0.9,2-2.3,3.8-3.5,5.6C113.7,137.3,113.5,136.1,112.5,135.4z"/>
		</g>
		<g>
			<path class="st2" d="M117.4,137.6c-1.6,2.4-2.4,4.6-3.1,7.3c-0.7,2.6-3.4,4-6,3.7c-1-0.2-2.1-0.7-2.6-1.7c-0.4-1-0.3-1.9,0-2.8
				c-0.6,1.3-0.8,2.6-0.1,3.8c1.6,2.4,5.6,1.3,7.4,0.1c2.2-1.6,2-4.8,3.4-7c0.9-1.6,1.3-2.8,1.3-3.9
				C117.6,137.3,117.5,137.5,117.4,137.6z"/>
		</g>
		<path class="st3" d="M79.5,64.6c-1-0.3-5-2.2-5-2.2s-0.4-2.4-2-3.4c-1.6-1-4.4-3.6-4.9-5C67,52.6,66,54.5,67.7,57
			c1.7,2.5,1.1,3.2,1.1,3.2s-10.3-0.5-10.9,1c-0.4,1,5.9,2.1,5.9,2.1s-7.4-0.2-7.6,0.9c-0.2,1,6.9,1.5,6.9,1.5s-5.5-0.1-5.6,1.1
			c-0.1,0.9,5.6,0.8,5.6,0.8s-3.8,0.5-3.8,1.2c0,0.9,6.5,1.4,9.9,0.8c3.4-0.7,3.5-1.4,3.5-1.4s2.3-0.1,5.2,1.4L79.5,64.6z"/>
		<path class="st4" d="M64.8,68.7c-0.3-2-0.3-4.1,0.4-6c-0.5,0.6-0.8,1.4-1.1,2C63.5,66,63.9,67.8,64.8,68.7z"/>
		<path class="st4" d="M71.7,63.4c-1.3-0.2-2.7-0.3-3.7-1C68.8,63.6,70.5,63.8,71.7,63.4z"/>
		<path class="st5" d="M70.6,65.6c-0.3,0.4-0.8,1.4-1.4,1.9c-2.7,2.5-6.5,2-10,1.3c0.3,0.9,6.6,1.4,9.9,0.7c3.4-0.7,3.5-1.4,3.5-1.4
			s0.5,0,1.4,0.1l0.2-2.7C72.7,64.5,71.7,64.4,70.6,65.6z"/>
		<path class="st6" d="M87.5,46.9c-1.9,0.2-3.3,1.7-3.3,3.4l0.2,15l-9.9-3l-1.6,6.3l13.7,4.2c0.8,0.2,1.7,0.2,2.4-0.1
			c0.3-0.1,0.5-0.2,0.7-0.4c0.9-0.7,1.5-1.7,1.5-2.7l-0.3-19.8C90.9,48,89.4,46.7,87.5,46.9z"/>
		<path class="st7" d="M91.3,69.5l-0.3-19.8c0-1.7-1.6-3-3.4-2.9c-1.4,0.1-2.5,1-3,2.1C84,55.5,86.2,61.6,90,67.2
			c0.7,1,0.1,2.4-1.3,2.8c-1.5,0.3-3.2,0.7-4.8,0.2c-2.3-0.8-4.4-3.5-6.3-2.9c-1.6,0.5-3.2,0.9-4.4,0.1l-0.3,1.1l13.7,4.2
			c0.8,0.2,1.7,0.2,2.4-0.1c0.3-0.1,0.5-0.2,0.7-0.4C90.7,71.6,91.3,70.5,91.3,69.5z"/>
		<path class="st6" d="M95.6,80.2c2.5,1.2,5.2,1.8,7.9,1.9c3.1,0.1,6.3,0,9.3-0.6c2.4-0.4,4.8-1.2,7-2.1c0-1.9,0.1-4,0.2-6.3
			c0.4-5.3-1.8-10.9-5-16.1c-7.6-12.2-9.2-12-15.5-13.5c-0.8-0.2-1.6-0.3-2.3-0.4c-1.1,2.7-3,5-5.1,7c-1.9-1.4-3.3-3.6-3.2-6
			c-1.6,0.5-2.6,1.1-2.6,1.1s-6,4,2.2,16.5c3.1,4.7,4.8,12.1,6.3,13.8C95.6,76.5,95.8,78.1,95.6,80.2z"/>
		<path class="st8" d="M121.7,82.3c-0.2-5.2-1.6-9.4-1.6-9.4c-12,9-25,3.2-25,3.2s-0.3,5.7-0.2,7.5c0,0,0,2.5,0,6.2
			c-0.1,6.8-0.1,14.7,0.1,17.6c0.3,5.5,3.9,27.3,3.9,27.3s3.7,2.8,8.6,0.2c0,0-1.1-14.4-1.6-19.4c-0.3-3.4,0-18.6,0-18.6
			s-0.1,16,0.8,23.4c0.9,7.5,1.9,14.9,1.9,14.9s4.3,1.8,9.7,0.2c0,0-0.5-13.2,0.1-24.9c0.3-6.5,1.6-12.9,1.9-15.3
			c0.1-0.5,0.2-1,0.2-1.5C122,88.4,121.7,82.3,121.7,82.3z"/>
		<path class="st9" d="M98.8,102c-0.2-8.2,0.1-16.4,1.1-24.6c-0.7-0.1-1.2-0.3-1.8-0.4C97.7,85.4,98,93.8,98.8,102z"/>
		<path class="st9" d="M104.1,77.9c-0.5,0-0.9,0-1.4-0.1c0.1,4.1,0.7,8.2,1.2,12.3C104,86.1,103.8,82,104.1,77.9z"/>
		<path class="st9" d="M114.4,132c-0.2-1.2-2.7-1.2-3-2.2c-2-5-1.7-10.5-1.5-15.9c0-0.9,1.3-1.4,1.2-2.3c-0.2-0.8-1.4-1.4-1.5-2.2
			c-0.6-4.9,0.5-9.7,0-14.7c0-0.3-2.2,0.1-2.5-0.5c-0.5-1.1,0.2-4.3,0.4-5.7c-1,1.5-1.4,3.7-2.8,5c-1.4-0.8-2.8-0.8-4.1-1.9
			c0.6,2,2.1,3.4,2.8,5.4c-1,0.2-1.9,0.6-2.7,1.1c2.1,2.4,1.7,5.7,1.9,8.8c0.2,1.4-1.8,1.9-2,2.9c-0.2,0.8,0.9,1.4,0.9,2.3
			c0.6,3.9,0.7,7.8,0.9,11.6c0,0.8-1.7,1.6-1.1,2.6c0.6,1.1,2.3,1.8,2,3.1c-0.2,0.5-1.2,0.9-1.3,1.6c-0.2,1.7,0.7,3.3,1.4,4.9
			c1.2,0,2.5-0.3,4-1.1c0,0-1.1-14.4-1.6-19.4c-0.3-3.4,0-18.6,0-18.6s-0.1,16,0.8,23.4c0.9,7.5,1.9,14.9,1.9,14.9s1.6,0.7,4.1,0.8
			c-0.1-0.4-0.1-0.9,0-1.3C112.7,133.3,114.6,132.9,114.4,132z"/>
		<path class="st3" d="M95.9,45.8c0.5-0.8,1-1.7,1.4-2.6c-0.6-0.1-1.2-0.1-1.7-0.1l-0.5-3c-0.1-0.8-1.2-1.3-2.4-1.1l-2.4,0.4
			c-1.2,0.2-2.1,1-1.9,1.9l0.9,5.2c0.1,0.3,0.2,0.6,0.5,0.8c0.6,1.2,1.5,2.2,2.5,2.9c1.1-1.1,2.3-2.3,3.2-3.7
			C95.7,46.3,95.8,46.1,95.9,45.8z"/>
		<path class="st4" d="M95.5,42.6l-0.4-2.5c-0.1-0.8-1.2-1.3-2.4-1.1l-2.4,0.4c-1.2,0.2-2.1,1-1.9,1.9l0.8,4.5
			C91.6,45.8,94,44.7,95.5,42.6z"/>
		<path class="st10" d="M96.8,44.2c-1,2-2.5,3.8-4,5.4c1.1,1.2,2.2,2.3,3.4,3.4C96.6,50.1,97.4,47.1,96.8,44.2z"/>
		<path class="st10" d="M89.7,54c1.3-1,1.6-2.7,2.2-4.1c-1.2-0.9-2.1-2.2-2.6-3.6C88.7,48.9,88.6,51.5,89.7,54z"/>
		<path class="st11" d="M72,21.7c-1.9,0.6-4.2,0.3-5.7-1.1c0.2,3,3.8,4.4,6.4,4c1.3-0.2,2.8-0.8,3.1-2.3c0.4-1.5-0.4-2.5-1.9-2.7
			L72,21.7z"/>
		<path class="st12" d="M91.7,49.6c-1.9-2.6-2.5-6.3-2.5-6.3l-1.6,1.5c0,0-0.2,7.6,0.9,7.8C89.6,53,91.7,49.6,91.7,49.6z"/>
		<path class="st13" d="M94.1,3.9c5.7,1.8,6.6,7.4,7.7,11.7c1.1,4.4,1.5,6.5,1.7,11c0.2,4.5-0.4,9.1-3.7,12.6
			c-3.3,3.3-8.7,6.3-13.6,5.7c-4.3-0.5-9.9-4.3-11.7-8c-1-2-0.8-4.2-0.9-6.2c-0.1-2.3-1-4.4-1.6-6.5c-0.7-3.2-1.4-6.8-0.2-9.9
			C71.9,14.1,76.8-1.5,94.1,3.9z"/>
		<path class="st13" d="M88.1,41c0.5,0.4,1.2,0.4,1.8,0.3c0.6,0,0.8-0.6,1-1.1C90.1,40.7,89,41.2,88.1,41z"/>
		<path class="st13" d="M102.4,27.2c0.2-1.2,0.5-2.4,1.6-2.9c1.1-0.5,2.4-0.1,3.1,0.9c1.4,2,0.3,5.3-1.5,6.6c-1.1,0.8-2.2,0.5-3.3,0
			L102.4,27.2z"/>
		<path class="st4" d="M104.2,26.4c0.5-0.7,1.6-0.6,2,0.2c-0.5-0.4-1.1-0.5-1.6,0.1c0.6-0.1,1.3,0.1,1.4,0.8
			c0.1,0.2-0.3,0.5-0.4,0.8c-0.1-0.4-0.1-1.1-0.5-1.2c-0.3-0.1-0.6,0.1-0.9,0.3c-0.1,0.1-0.2,0.2-0.3,0.3c0.1,0,0.1,0.1,0.2,0.1
			c0.5,0.2,1,0.3,0.6,1c-0.1,0.2-0.4,0.2-0.6,0.1c0,0.2,0.1,0.5,0.2,0.7c0.2,0.1,0.8,0.3,1.2,0.2c-0.6,0.4-1.4,0.8-1.6,0.6
			C103,29.2,103.5,27.7,104.2,26.4z"/>
		<g>
			<g class="st14">
				<path class="st13" d="M81.4,30.8c0.3,1.6-0.5,3-1.6,3.2c-1.2,0.1-2.3-1-2.6-2.6c-0.3-1.6,0.5-3,1.6-3.2
					C80,28,81.1,29.2,81.4,30.8z"/>
			</g>
			<g>
				<path class="st15" d="M81.2,30.9c0.3,1.5-0.4,2.9-1.5,3c-1.1,0.1-2.2-1-2.4-2.5c-0.3-1.5,0.4-2.9,1.5-3
					C79.9,28.3,81,29.4,81.2,30.9z"/>
				<g>
					<path class="st16" d="M79.7,33.6c0.7-0.3,1-1.4,0.7-2.4c-0.3-1.1-1.2-1.7-1.9-1.4c-0.7,0.3-1,1.4-0.7,2.4
						C78.1,33.3,79,33.9,79.7,33.6z"/>
					<path class="st17" d="M79.3,33.3c0.4-0.2,0.6-0.8,0.4-1.4c-0.2-0.6-0.7-1-1.1-0.8c-0.4,0.2-0.6,0.8-0.4,1.4
						C78.3,33.1,78.8,33.5,79.3,33.3z"/>
					<path class="st15" d="M78.5,31.5c0.2,0,0.3-0.3,0.2-0.6c-0.1-0.3-0.3-0.5-0.5-0.5c-0.2,0-0.3,0.3-0.2,0.6
						C78.1,31.3,78.3,31.6,78.5,31.5z"/>
					<path class="st18" d="M79,32.1c0.6,0.1,1,0.4,1.3,1c-0.1,0.3-0.3,0.4-0.6,0.5c-0.1,0-0.3,0.1-0.4,0.1
						C79.4,33.2,79.2,32.6,79,32.1z"/>
				</g>
			</g>
		</g>
		<g>
			<g class="st14">
				<path class="st13" d="M95.5,29.1c0.2,1.7-0.7,3.1-2,3.2c-1.2,0.1-2.4-1.3-2.6-3c-0.2-1.7,0.7-3.1,2-3.2
					C94.2,26.1,95.3,27.4,95.5,29.1z"/>
			</g>
			<g>
				<path class="st15" d="M95.3,29.2c0.2,1.6-0.7,3-1.9,3c-1.2,0.1-2.3-1.2-2.4-2.8c-0.2-1.6,0.7-3,1.9-3
					C94.1,26.3,95.2,27.6,95.3,29.2z"/>
				<g>
					<path class="st16" d="M93.5,31.9c0.8-0.2,1.2-1.4,1-2.5c-0.3-1.1-1.1-1.9-1.9-1.6c-0.8,0.2-1.2,1.4-1,2.5
						C91.8,31.4,92.7,32.2,93.5,31.9z"/>
					<path class="st17" d="M93,31.6c0.5-0.1,0.7-0.8,0.6-1.5c-0.2-0.7-0.7-1.1-1.1-1c-0.5,0.1-0.7,0.8-0.6,1.5
						C92.1,31.3,92.6,31.7,93,31.6z"/>
					<path class="st15" d="M92.3,29.6c0.2,0,0.3-0.3,0.3-0.6c0-0.3-0.3-0.6-0.5-0.6c-0.2,0-0.3,0.3-0.3,0.6
						C91.9,29.4,92.1,29.7,92.3,29.6z"/>
					<path class="st18" d="M92.8,30.3c0.6,0.2,1.1,0.5,1.3,1.1c-0.2,0.3-0.4,0.4-0.7,0.5c-0.1,0-0.3,0.1-0.4,0
						C93.1,31.5,93,30.9,92.8,30.3z"/>
				</g>
			</g>
		</g>
		<path class="st19" d="M91.4,35.9c0-0.4,0-0.7,0-0.7c-4.6,2-8.4,1.5-8.4,1.5s0.5,1.4,1.9,2.3C86.5,37.2,88.9,36.3,91.4,35.9z"/>
		<path class="st20" d="M84.8,38.9c0.9,0.6,2,1,3.6,0.8c2.6-0.4,2.9-2.6,2.9-3.8C88.9,36.3,86.5,37.2,84.8,38.9z"/>
		<path class="st21" d="M74.7,26.3c0.4-0.8,1-1.7,1.8-2.1c0.4-0.2,0.9-0.2,1.4-0.1c0.4,0.1,0.8,0.4,1.2,0.4c0.1,0,0.2-0.1,0.2-0.3
			c-0.4-0.9-2.1-0.9-2.9-0.6c-1.1,0.5-1.7,1.4-1.8,2.6C74.5,26.3,74.6,26.4,74.7,26.3L74.7,26.3z"/>
		<path class="st21" d="M90.2,23.4c0.9-0.6,1.9-1,3-1c0.6,0,1.1,0.1,1.6,0.4c0.5,0.3,0.6,0.7,1,1c0.1,0.1,0.3,0,0.3-0.1
			c0.1-0.6-0.4-1.1-0.9-1.4c-0.6-0.4-1.3-0.5-1.9-0.6c-1.2-0.1-2.8,0.3-3.3,1.5C90,23.3,90.1,23.5,90.2,23.4L90.2,23.4z"/>
		<path class="st12" d="M95.6,42.3l-2.5,7c0,0,4,2.6,4.4,2.2c0.4-0.4,0.5-8.3,0.5-8.3L95.6,42.3z"/>
		<path class="st22" d="M95.2,76.1c0,0-0.1,1.1-0.1,2.5c0.7,0.4,1.5,0.7,2.3,1l0-2.8C95.9,76.4,95.2,76.1,95.2,76.1z"/>
		<path class="st22" d="M98.6,77.2l0.2,3c0.9,0.3,1.8,0.5,2.7,0.7l-0.3-3.2C100.2,77.5,99.3,77.3,98.6,77.2z"/>
		<path class="st22" d="M110.5,77.4c-1.3,0.3-2.5,0.4-3.7,0.5l0.2,3.3c1.3-0.1,2.6-0.2,3.8-0.5L110.5,77.4z"/>
		<polygon class="st22" points="105.9,78.8 102.1,78.7 102.3,80.2 106.1,80.4 		"/>
		<path class="st22" d="M120.7,75.6c-0.4-1.5-0.8-2.5-0.8-2.5c-0.2,0.1-0.4,0.3-0.6,0.4l0.9,2.5C120.4,75.9,120.5,75.8,120.7,75.6z"
			/>
		<path class="st22" d="M112,77l0.3,3.3c2.6-0.8,5.1-2,7.2-3.7l-0.5-2.9C116.7,75.3,114.3,76.3,112,77z"/>
		<path class="st23" d="M106.9,77.9C106.9,77.9,106.8,77.8,106.9,77.9C106.8,77.8,106.8,77.8,106.9,77.9c-0.3,0-0.6,0-1,0
			c-1.3,0-2.5,0-3.8-0.2l0,0c-0.3,0-0.6-0.1-0.9-0.1c0,0,0,0,0,0c0,0,0,0,0,0l0.3,3.2c0,0,0,0,0,0.1c0.3,0,0.6,0.1,0.9,0.1
			c0.9,0.1,1.8,0.2,2.6,0.2c0.4,0,0.7,0,1.1,0c0.3,0,0.6,0,0.9,0c0,0,0,0,0,0c0,0,0,0,0,0L106.9,77.9z M102.2,78.7l3.7,0.1l0.1,1.5
			l-3.6-0.1L102.2,78.7z"/>
		<path class="st24" d="M93.2,53.4c0,0.3-0.1,0.6-0.3,0.6c-0.2,0-0.4-0.2-0.4-0.6c0-0.3,0.1-0.6,0.3-0.6
			C92.9,52.8,93.1,53,93.2,53.4z"/>
		<path class="st24" d="M95,60.1c0,0.3-0.1,0.6-0.3,0.6c-0.2,0-0.4-0.2-0.5-0.6c0-0.3,0.1-0.6,0.3-0.6C94.8,59.6,95,59.8,95,60.1z"
			/>
		<path class="st24" d="M97.4,67.5c0,0.3-0.1,0.6-0.3,0.6c-0.2,0-0.4-0.2-0.5-0.6c0-0.3,0.1-0.6,0.3-0.6
			C97.2,67,97.4,67.2,97.4,67.5z"/>
		<path class="st24" d="M99.2,73.7c0.2,0.3,0.2,0.6,0,0.7c-0.2,0.1-0.5,0-0.7-0.3c-0.2-0.3-0.2-0.6,0-0.7
			C98.7,73.3,99,73.4,99.2,73.7z"/>
		<path class="st9" d="M117.4,85.3c0.4-6,0.2-11.9-1.2-18c-1.5-6.4-4.6-11.9-7.3-17.8c-0.3-0.7-0.9-1.2-1.5-1.6
			c-1.1-0.6-2.4-0.6-3.5,0c-2.3,1.1-2.9,4.4-1.3,6.4c3.9,4.5,6.8,9.3,8.1,15.1c0.7,3.4,0.4,6.5-0.2,9.7c0.2,0.3,0.5,0.7,0.5,1.1
			c-0.1,2.1-0.6,4-1.4,5.8c0,0.1,0,0.2-0.1,0.3c0-0.1,0.1-0.2,0.1-0.3c-0.6,1.4-1.3,2.7-2,4.1c-0.4,0.9-0.8,2.3,0.1,3.2
			c0.7,1,2.1-1,2.6-0.3c1.9,2.5,1.5,6.1,0.3,9c1.1,1.5,3.2-2.1,4.2-3.9c1.2-2.2,0.8-4.8,1.9-6.9c0.4-0.9,1.5-1.4,2.3-2
			c-0.5-0.7-0.9-1.4-1.4-2.1C117.4,86.5,117.3,85.8,117.4,85.3z"/>
		<g>
			<path class="st3" d="M115.5,81.4l-0.9,2.3c-0.8,1-1.3,1.4-2.4,2c-1.6,0.7-2,1.3-2.7,2.9c-0.3,0.7-0.6,1.3-1.1,1.9
				c-0.5,0.7-1.1,1-0.4,1.5c1.4,1.1,2.1-1.5,3.3-1.5c0.8,0,1.3,2.5,1.5,3.3c0.5,1.7,0.4,2.4-0.1,4.2c-0.3,1.3-0.1,4.2,1.2,1.8
				c0.7-1.2,1.4-2.6,1.7-3.9c0.1-0.1,0.1-0.2,0.2-0.3c1.5,0.5,1.6-1.1,2.5-1.7c1.4-1,1.8-1,1.8-2.9c0-1.5-0.6-2.5-1.2-3.5
				c-0.6-1.1-0.6-1.5-0.2-2.9l0.3-0.9l-1.9-1.8L115.5,81.4z"/>
			<g class="st25">
				<path class="st3" d="M115.5,81.4l-0.4,1c1.3,0.9,2.4,1.8,3.4,2.8c0.1-0.2,0.1-0.4,0.2-0.7l0.3-0.9l-1.9-1.8L115.5,81.4z"/>
			</g>
			<g class="st25">
				<path class="st3" d="M115.1,90.4c0.7,1.3,0.4,3.6,1,4.4c1.4,1.7,2.5-2.7,1.5-4c1.2,0.6,0.4,1.9,0.8,2.8c2.1-1,1.1-4,0.4-5.3
					c0.7,0.9,1.1,1.8,1.4,2.9c0,1.8-0.5,1.8-1.8,2.7c-1,0.7-1,2.2-2.5,1.7c-0.1,0.1-0.1,0.2-0.2,0.3c-0.3,1.2-1,2.7-1.7,3.9
					c-0.4,0.7-0.7,0.9-0.9,0.9C114.9,97.4,116.3,93.7,115.1,90.4z"/>
			</g>
		</g>
		<g>
			<path class="st6" d="M112.2,85.2c2.2,0.4,4.5,0.7,6.7,0.9c0.7-5.4,0.1-17.9,0.2-19.1c0.1-1.2-0.3-2.2-2.4-5.7
				c-1-1.8-1.4-2.6-3.2-5.5c-3.1-4.9-5.6-8.1-5.6-8.1c-1-1.6-3.2-2-4.7-0.9c-1.6,1.1-2,3.2-0.9,4.7c5.1,7.6,9.2,14,10.3,16.4
				C112.4,70.2,112.6,79.2,112.2,85.2z"/>
		</g>
		<path class="st4" d="M84.2,33.9c0.5,0.4,1.1,1.7,2,1.2c0.1-0.1,0.3-0.2,0.4-0.4C85.7,34.7,84.9,34.3,84.2,33.9z"/>
		<path class="st4" d="M101.9,15.6c-1.1-4.3-2.1-9.9-7.7-11.7C76.8-1.5,71.9,14.1,71.9,14.1c-1,2.6-0.7,5.7-0.1,8.4
			c0.4-0.5,1.5-1.3,1.7-0.8c1.3,3,14,0.6,18.2-3.9c1.1,3.5,4.3,3.2,7,5c2.4,1.6,4.3,4.7,4.5,7.8c0.1-0.9,0.3-1.9,0.5-2.9
			c0-0.4,0-0.8,0-1.1C103.4,22.1,103,19.9,101.9,15.6z"/>
		<g>
			<path class="st11" d="M105.4,24.3c0,0,1.5-4.1-0.5-13.9C103.3,2.2,94.7,2,94.7,2s-5.3-2.6-10.8-1.9c-2,0.3-11.3,1.7-14.6,13.5
				c-4.1,1.2-4.1,5.9-2,7.5c1.1,1.3,3.9,1.3,4.6,0.7c1.7-1.5,3.2-1,5.4-0.9c-0.1,0.1-0.2,0.2-0.4,0.3c-0.8,0.6-1.7,1.4-2.5,1.7
				c6.3,0.3,13.4-2,17.5-7.4c-0.2,2.2,2,3.6,5.3,5.2c0.8,0.3,2.4,0.8,3.1,1.5c0.9,1,1.3,2,1.8,3.1c0.9,1.8,0.6,3,0.9,5.1
				c1-2.1,0.8-3,0.6-5.3C103.3,24.2,105.4,24.3,105.4,24.3z"/>
		</g>
	</g>
	<g>
		<g>
			<g>
				<path class="st26" d="M53,149.7c-0.8,0-1.5-0.5-1.5-1.1L49,126l-14.3-5.1l-1.8,23.9c0,0.7-0.8,1.2-1.6,1.1
					c-0.8,0-1.4-0.6-1.4-1.3l1.9-25.6c0-0.4,0.3-0.7,0.7-1c0.4-0.2,0.9-0.2,1.4-0.1l17.1,6c0.5,0.2,0.9,0.6,0.9,1l2.6,23.3
					C54.5,149.1,53.8,149.6,53,149.7C53,149.7,53,149.7,53,149.7L53,149.7z"/>
			</g>
			<g>
				<path class="st26" d="M34.7,154.6c-0.8,0-1.5-0.5-1.5-1.1l-1.1-24.1l-14.3-5.1l-2,21.9c0,0.7-0.8,1.2-1.6,1.1
					c-0.8,0-1.4-0.6-1.4-1.3l2.1-23.6c0-0.4,0.3-0.8,0.7-1c0.4-0.2,0.9-0.2,1.4-0.1l17.1,6c0.5,0.2,0.9,0.6,0.9,1l1.1,24.8
					C36.2,154,35.5,154.6,34.7,154.6C34.7,154.6,34.7,154.6,34.7,154.6L34.7,154.6z"/>
			</g>
		</g>
		<g>
			<g>
				<g>
					<path class="st15" d="M35.9,138.8c-0.1-3-0.3-5.7-0.6-8.2c0.8,0.7,1.8,1.1,2.9,1.3c0.9-0.2,1.7-0.6,2.2-1.4
						c0.3,2.5,0.5,5.2,0.6,8.1c0,1-0.5,1.8-1.4,2.3c-0.3,0.2-0.7,0.3-1.1,0.3C37.1,141.2,35.9,140.1,35.9,138.8z"/>
					<path class="st3" d="M38.1,131.8c-1-0.1-2.1-0.6-2.9-1.3c-1.5-11.1-5.3-17.8-5.3-17.9c-0.7-1.2-0.2-2.7,1-3.3
						c1.2-0.7,2.7-0.3,3.4,0.9c0.2,0.4,4.4,7.8,6,20.2C39.9,131.2,39,131.6,38.1,131.8z"/>
				</g>
				<path class="st27" d="M39.5,140.7c-1.1,1.2,1,2.7,2.2,2.6c2.1-0.2,2.2-3,3.6-4.1c-1-0.4-2-1-2.9-1.6
					C41,138,40.3,139.4,39.5,140.7z"/>
				<path class="st28" d="M50.4,141.7c-1.2-1.2-3.4-1.7-5-2.4c0,0-0.1,0-0.1,0c-1.4,1.1-1.6,3.9-3.6,4.1c-1.2,0.1-3.4-1.4-2.2-2.6
					c0.8-1.3,1.5-2.7,2.9-3.1c-0.5-0.3-0.9-0.6-1.4-1c-0.2,1.5-1.4,2.5-2.9,2.4c-0.9-0.1-2-0.9-2.3-1.8c-0.7,1.3-0.7,3.3-0.3,4.5
					c2,3.2,4.4,6.3,8.3,6.4c3,0.2,5.8-1.3,7.3-3.8c0.2-0.3,0.4-0.7,0.5-1C51.3,142.7,51,142.2,50.4,141.7z"/>
				<path class="st29" d="M35.4,141.7c2,3.2,4.4,6.3,8.3,6.4c3,0.2,5.8-1.3,7.3-3.8c0.2-0.3,0.4-0.7,0.5-1c0.6,2-1.4,3.8-3.5,4.9
					c-2.6,1.4-5.5,1.9-7.9,0c-1.8-1.4-3.7-4-4.5-6.1C35.5,142,35.5,141.8,35.4,141.7z"/>
			</g>
			<g>
				<g>
					<path class="st15" d="M27.1,141.2c0.5-3,0.9-5.8,1-8.5c0.7,0.8,1.6,1.5,2.6,1.8c1-0.1,1.9-0.3,2.5-0.9c-0.2,2.6-0.5,5.4-1,8.3
						c-0.2,1-0.9,1.7-1.8,2c-0.4,0.1-0.8,0.1-1.2,0.1C27.8,143.8,26.8,142.6,27.1,141.2z"/>
					<path class="st3" d="M30.7,134.6c-1-0.3-2-1-2.6-1.8c0.7-11.5-1.7-19-1.8-19.1c-0.4-1.3,0.3-2.7,1.7-3.2
						c1.4-0.4,2.8,0.3,3.3,1.6c0.1,0.4,2.9,8.8,2,21.7C32.6,134.3,31.7,134.5,30.7,134.6z"/>
				</g>
				<path class="st27" d="M30.3,143.8c-1.4,1,0.5,2.9,1.7,3.1c2.1,0.2,2.8-2.6,4.5-3.4c-1-0.7-1.8-1.4-2.6-2.2
					C32.4,141.4,31.4,142.7,30.3,143.8z"/>
				<path class="st28" d="M41.1,147c-1-1.5-3.1-2.4-4.6-3.4c0,0,0,0-0.1,0c-1.7,0.8-2.4,3.6-4.5,3.4c-1.2-0.2-3.1-2.1-1.7-3.1
					c1.1-1.1,2.1-2.4,3.6-2.5c-0.4-0.4-0.8-0.8-1.2-1.3c-0.5,1.4-1.9,2.2-3.4,1.8c-0.9-0.3-1.8-1.3-2-2.3c-1,1.1-1.4,3.2-1.2,4.5
					c1.4,3.6,3.1,7.2,7.1,8.1c3,0.7,6.1-0.2,8.1-2.4c0.3-0.3,0.5-0.6,0.7-0.9C41.8,148.3,41.6,147.7,41.1,147z"/>
				<path class="st29" d="M26,144.1c1.4,3.6,3.1,7.2,7.1,8.1c3,0.7,6.1-0.2,8.1-2.4c0.3-0.3,0.5-0.6,0.7-0.9
					c0.2,2.1-2.2,3.6-4.5,4.2c-2.9,0.9-5.9,0.9-8-1.6c-1.5-1.8-3-4.8-3.4-7.1C26,144.3,26,144.2,26,144.1z"/>
			</g>
		</g>
		<g>
			<g>
				<g>
					<g>
						<path class="st29" d="M44,114.3c0.4,5.6-6.5,7.8-15.1,8.4c-8.6,0.6-15.6,0.1-16.1-6.3c-0.4-5.7,6.5-7.8,15.1-8.4
							C36.6,107.4,43.6,107.4,44,114.3z"/>
						<path class="st30" d="M43,112.6c0.3,4.7-6.1,6.6-14.1,7.2c-8,0.5-14.5,0.2-14.9-5.2c-0.3-4.8,6.2-6.1,14.2-6.6
							S42.6,106.9,43,112.6z"/>
					</g>
					<g>
						<g>
							<path class="st31" d="M15.7,116.2c-0.4,0.1-0.8-0.1-0.9-0.5L7.6,93.4c-0.1-0.4,0.1-1,0.5-1.1c0.4-0.2,0.9,0,1,0.5l7.3,22.2
								c0.1,0.4-0.1,1-0.5,1.1C15.8,116.2,15.8,116.2,15.7,116.2L15.7,116.2z"/>
						</g>
						<g>
							<g>
								<path class="st29" d="M28.8,96.8c0.2,1.2-0.4,2.2-1.2,2.5c-5.9,2.4-11.6,5.2-17.3,8.4c-0.9,0.5-1.9-0.3-2.2-1.5
									c-1.4-4.3-2.8-8.7-4.2-13c-0.4-1.2,0-2.6,0.9-2.9c6.4-2.3,12.9-4.2,19.4-5.6c0.8-0.2,1.9,0.3,2.2,1.5
									C27.2,89.8,28,93.3,28.8,96.8z"/>
							</g>
							<g>
								<path class="st30" d="M28.9,96.8c0.2,1.1-0.3,2-1.1,2.3c-5.4,2.2-10.8,4.8-16,7.8c-0.8,0.4-1.7-0.3-2.1-1.4
									c-1.3-4.1-2.6-8.1-4-12.2c-0.4-1.1,0-2.4,0.9-2.8c5.9-2.1,11.9-3.9,18-5.2c0.8-0.2,1.7,0.3,2,1.4
									C27.4,90.2,28.1,93.5,28.9,96.8z"/>
							</g>
							<g>
								<path class="st32" d="M26.7,86.9c-0.3-1.1-1.2-1.6-2-1.4c-4.8,1-9.5,2.3-14.1,3.8c-0.5,3.5-0.4,7.1,0,10.6
									c0.7-0.2,2-1.2,1.9-0.5c-0.2,2.3-0.5,4.9-0.5,7.4c5.2-2.9,10.4-5.5,15.8-7.7c0.7-0.3,1.3-1.3,1.1-2.3
									C28.1,93.5,27.4,90.2,26.7,86.9z"/>
							</g>
						</g>
					</g>
				</g>
				<path class="st33" d="M16.1,105.5c0,0-2.4,7.2,2.4,8.4c4.9,1.2,14.8-1.8,14.8-1.8l-2.4-7.6L16.1,105.5z"/>
				<g>
					<g>
						<path class="st13" d="M52.9,90.6c-2.5-0.5-4.2,1.1-5.9,3c-0.1,0.1-0.2,0.3-0.4,0.4c-3.2,1.4-5,1.7-6.3,2.2
							c-0.4-0.2,0.1,0-2.2-2.3c-1.6-1.6-2.5-2.7-2.5-2.7l-2.2,2.3c0.1,0.1,1.2,1.4,3,3.3c3.6,3.6,3.4,3.1,4.5,2.8
							c0.1,0,0.2-0.1,0.4-0.1c1.7-0.6,4.3-1.3,6.6-2.3c0.2,0.1,0.4,0.1,0.6,0.1c0.5,0,0.9-0.2,1.4-0.2c0.7,0.1,1.1,0.4,1.8,0.3
							c0.6,0,3.1-0.4,1.6-1.5c-0.9-0.6-2.1,0.5-3-0.2c0.6-1,2.5-1.2,3.5-1.1c0.2,0,1.3,0.5,1.4,0.3c0.4-0.4-0.4-1.2-0.8-1.3
							c0.7,0.2,2.9,0.7,2.3-1.1C56.2,91.1,53.9,90.8,52.9,90.6z"/>
						<path class="st34" d="M53.4,96.9c-1.7,0.6-4.3,0.2-5.7-0.9c-0.2,0.5-0.3,1.1-0.6,1.5c0.3-0.1,0.7-0.3,0.9-0.4
							c0.2,0.1,0.4,0.1,0.6,0.1c0.5,0,0.9-0.2,1.4-0.2c0.7,0.1,1.1,0.4,1.8,0.3c0.4,0,2.1-0.3,2-1C53.7,96.6,53.6,96.8,53.4,96.9z"
							/>
						<path class="st34" d="M54.9,94.8c-1.7-0.7-4.1-1-4.8,1c0.1,0,0.1-0.1,0.2-0.1c0,0,0,0,0,0c0.6-1,2.5-1.2,3.5-1.1
							c0.2,0,1.3,0.5,1.4,0.3c0,0,0.1-0.1,0.1-0.1C55.2,94.8,55.1,94.8,54.9,94.8z"/>
						<path class="st34" d="M37.2,92.8c-0.8-0.9-1.4-1.6-1.4-1.6l-2.2,2.3c0.1,0.1,1.3,1.5,2.8,3C36.2,95.2,36.6,93.9,37.2,92.8z"/>
						<path class="st34" d="M56.4,93.6c-1.6-0.1-3.1-1.1-4.6-0.4c0.9-0.3,1.9-0.1,2.7,0.3c0.5,0.1,1.7,0.4,2.2,0
							C56.6,93.5,56.5,93.6,56.4,93.6z"/>
					</g>
					<g>
						<path class="st35" d="M32.2,95.1c-1.9-2.1-6-6.9-3.9-8.8c2.1-1.9,6.6,2.2,8.6,4.3C35.5,92.2,34,93.8,32.2,95.1z"/>
						<path class="st36" d="M36.9,90.6c0.6,0.6,1,1.1,1,1.1s-3.1,3.5-4.8,4.5c0,0-0.4-0.4-1-1C34,93.8,35.5,92.2,36.9,90.6z"/>
					</g>
					<path class="st10" d="M28.7,86c-0.1,0.1-0.3,0.2-0.4,0.3c-2.1,1.9,2,6.8,3.9,8.8c0.6,0.6,1,1,1,1c0.6-0.4,1.4-1.1,2.2-1.8
						C35.1,90.4,32.8,86.4,28.7,86z"/>
				</g>
				<g>
					<path class="st13" d="M30.3,85.8c-0.1,0-0.3-0.1-0.4-0.1l0.1-2.3c0-0.7-0.7-1.3-1.7-1.3c-1,0-1.8,0.6-1.8,1.3l-0.1,2
						c-0.2,0-0.4,0-0.6,0c0.2,1.1,1.3,2,2.3,2.1c0.9,0.1,1.8-0.2,2.1-1.1C30.3,86.2,30.3,86,30.3,85.8z"/>
					<path class="st34" d="M30,83.4c0-0.7-0.7-1.3-1.7-1.3c-1,0-1.8,0.6-1.8,1.3l-0.1,1.7c1.1,0.5,2.4,0.8,3.6,0.6
						c-0.1,0-0.1,0-0.2,0L30,83.4z"/>
					<path class="st37" d="M32.9,87.9c-0.7-1.1-1.5-1.7-2.7-2.1c0,0.2,0,0.4-0.1,0.6c-0.3,0.9-1.2,1.3-2.1,1.1
						c-1.1-0.2-2.2-1-2.3-2.1c-2.9,0.3-5.4,2.3-5.4,2.3s-2.5,9.3-7.7,18.8c0,0,3.5,2.6,10,3.2c6.5,0.6,9.7-1.2,9.7-1.2
						C34.7,100.1,34.2,90,32.9,87.9z"/>
					<path class="st10" d="M25,101.3c-0.1-4.2,0.5-8.7-1.6-12.7C23,87.7,22,87.4,21,87.3c-0.4,0.2-0.6,0.4-0.6,0.4
						s-1.4,5.2-4.3,11.7l1.6,0c0,1.7-0.3,3.4,0.2,5c1.6,4.4,6.5,4.8,10.9,5c2.4-0.4,3.5-1.1,3.5-1.1c0.6-2.3,1.1-4.8,1.3-7.2
						C30.8,101.2,27.9,101.3,25,101.3z"/>
					<path class="st36" d="M27,89.5c0.8,0,1.3-0.8,1.5-1.6c0,0.7,0.5,1.3,1,1.6c0.7,0.3,1.3-0.1,1.7-0.5c0.8-1,0.1-2.1-0.6-3
						c-0.1,0-0.3-0.1-0.4-0.1c0,0.2,0,0.4-0.1,0.6c-0.3,0.9-1.2,1.3-2.1,1.1c-1.1-0.2-2.2-1-2.3-2.1c-0.1,0-0.3,0-0.4,0.1
						C24.8,87,25.1,89.5,27,89.5z"/>
				</g>
				<g>
					<path class="st11" d="M4.3,63.3c0.1,2.8,0,6.5,1.9,11c-7-1-8.8,3.7-1.7,4.9c-6.7,4.8,0.9,7.3,6.1,2.9c0.8,5.4,7.9,4.1,7.8-1.5
						c9.9,1.1,10.1-9,0.5-8.4L4.3,63.3z"/>
					<path class="st11" d="M37.2,56.8c1.8,3.2,3.3,6.8,4.4,10.3c5.5-4.4,9.5-1.3,4,3.4c8.2,0.7,3,6.8-3.8,5.6
						c2.1,5.1-4.7,7.6-7.4,2.7c-8,6-13.3-2.6-4.8-7L37.2,56.8z"/>
					<path class="st13" d="M34.5,53c2.3,2.6,4.8,3.1,6.5,9.1c1.3,4.8,3.8,9.6-0.1,15.9c-7.5,12.3-32.1,8-31.8-8.5
						c0,0-0.5-15.9,13-18.6C31.3,49.2,34.5,53,34.5,53z"/>
					<path class="st4" d="M9.8,63.8c1.1-4.9,4.2-11.4,12.3-13c9.2-1.7,12.4,2.1,12.4,2.1c1.9,2.2,4,2.9,5.6,6.6
						c-7.7,5.2-17.3,6.8-26.2,8.6c-0.2,4.1,1.4,8.8,4.8,11.1C12.6,77.1,10,70,9.8,63.8z"/>
					<path class="st4" d="M32.4,73.8c0.1-0.2,0.1-0.5,0.1-0.7c-0.4,0.3-1,0.3-1.6,0.5C31.3,74.1,32,74.5,32.4,73.8z"/>
					<path class="st4" d="M33.4,81.1c0.3-0.2,0.4-0.4,0.5-0.6c-0.8,0.3-1.6,0.4-2.5,0.5C31.8,81.3,32.4,81.7,33.4,81.1z"/>
					<path class="st4" d="M14,77.9c0.1,0.1,0.2,0.2,0.2,0.3c0,0,0.1-0.1,0.1-0.1C14.3,78,14.1,78,14,77.9z"/>
					<g>
						<path class="st13" d="M14.3,77.7c-0.5-0.9-1-1.8-2.1-1.9c-1-0.1-2,0.5-2.3,1.5c-0.6,2,1.1,4.4,3,5c1.1,0.4,2-0.1,2.8-0.8
							L14.3,77.7z"/>
						<path class="st4" d="M12.6,77.5c-0.6-0.4-1.5-0.1-1.6,0.6c0.3-0.5,0.8-0.7,1.4-0.3c-0.6,0-1,0.4-1,1c0,0.2,0.4,0.4,0.6,0.5
							c0-0.4-0.2-0.9,0.1-1.1c0.3-0.1,0.5-0.1,0.8,0c0.1,0,0.2,0.1,0.3,0.1c0,0-0.1,0.1-0.1,0.1c-0.3,0.3-0.7,0.5-0.2,1
							c0.1,0.1,0.4,0.1,0.6-0.1c0,0.2,0,0.4,0,0.6c-0.2,0.2-0.6,0.5-0.9,0.4c0.6,0.1,1.3,0.3,1.5,0.1C14.3,79.5,13.5,78.4,12.6,77.5
							z"/>
					</g>
					<g>
						<path class="st11" d="M18.2,71.6c0-0.5,0.3-1.2,0.6-1.6c0.3-0.4,0.8-0.6,1.2-0.8c0.1-0.1,0-0.2-0.1-0.2
							c-1.4-0.2-2.2,1.6-1.9,2.7C18,71.8,18.2,71.7,18.2,71.6L18.2,71.6z"/>
					</g>
					<g>
						<path class="st11" d="M39.8,63.8C38.7,62.3,37,62.2,36,63c-0.1,0.1,0,0.3,0.2,0.2c0.5-0.1,1-0.1,1.5-0.2
							c0.8-0.1,1.4,0.3,2,0.8C39.8,64.1,39.9,63.9,39.8,63.8L39.8,63.8z"/>
					</g>
					<path class="st11" d="M19.5,47.9c4.9-1.3,7.9-0.5,10-0.1c14.1-1.1,12.3,10.2,12.3,10.2s-2.1,1.4-5.6,2.9
						c-0.6-2.1-2.4-3.5-3.5-5.3c0.9,1.8,2,3.6,2.2,5.8c-1.5,0.6-3.4,1.3-5.6,2c-0.3-1-0.6-2.1-1.3-2.9c0.3,1,0.7,2.1,0.8,3.1
						c-1.5,0.5-3.1,1-5,1.5c-0.9-1.9-1.5-3.8-2.2-5.8c0.4,2.1,0.4,4.1,0.8,6.1c-1.8,0.5-3.8,1-5.9,1.5c-0.9-1.8-1.2-3.7-1-5.5
						c-0.5,1.9-0.1,3.8,0.2,5.7c-0.9,0.2-1.8,0.4-2.7,0.6c0,0-0.4,1.6,0.1,4.3l0.3,1.2c0.9,3.2,1.9,4.9,4.4,7.1
						c-2.1-0.7-3.6-2.3-5-4.1c-0.8-0.3-1.6-0.4-2.4,0.1c-1.3,0.8-0.2,3.6-0.2,3.6S-8,55.4,19.5,47.9z"/>
					<g>
						<path class="st21" d="M37.8,68.5c0,0,1.3-0.8,0-2.3c0,0,0.3,1.7-0.8,1.8L37.8,68.5z"/>
						<g>
							<g class="st14">
								<path class="st13" d="M35.4,70.5c0.5,1.3,1.9,2,2.9,1.5c1.1-0.5,1.5-2,0.9-3.3c-0.5-1.3-1.8-2-2.9-1.5
									C35.3,67.7,34.8,69.1,35.4,70.5z"/>
							</g>
							<g>
								<path class="st15" d="M35.5,70.5c0.5,1.3,1.8,1.9,2.8,1.5c1-0.5,1.4-1.9,0.9-3.1c-0.5-1.3-1.8-1.9-2.8-1.5
									C35.4,67.8,35,69.2,35.5,70.5z"/>
								<g>
									<path class="st16" d="M38.2,71.1c-0.8,0.2-1.6-0.5-1.8-1.5c-0.2-1,0.2-1.9,0.9-2c0.8-0.2,1.6,0.5,1.8,1.5
										C39.4,70,39,70.9,38.2,71.1z"/>
									<path class="st17" d="M38.2,70.1c-0.5,0.1-0.9-0.3-1.1-0.9c-0.1-0.6,0.1-1.1,0.6-1.2c0.5-0.1,0.9,0.3,1.1,0.9
										C38.9,69.5,38.7,70,38.2,70.1z"/>
									<path class="st15" d="M38.2,68.9c-0.2,0.1-0.4-0.1-0.5-0.3c-0.1-0.3,0-0.5,0.2-0.6c0.2-0.1,0.4,0.1,0.5,0.3
										C38.5,68.6,38.4,68.8,38.2,68.9z"/>
									<path class="st18" d="M38.1,69.6c-0.5,0.4-0.7,0.8-0.6,1.4c0.2,0.1,0.5,0.2,0.8,0.1c0.1,0,0.3-0.1,0.4-0.2
										C38.3,70.6,38.2,70.1,38.1,69.6z"/>
								</g>
							</g>
						</g>
					</g>
					<g>
						<path class="st21" d="M23.3,72.8c0,0,1.4-0.8,0.1-2.3c0,0,0.3,1.7-0.9,1.8L23.3,72.8z"/>
						<g>
							<g class="st14">
								<path class="st13" d="M20.7,74.8c0.6,1.3,2,2,3.1,1.5c1.1-0.5,1.6-2,1-3.3c-0.6-1.3-2-2-3.1-1.5
									C20.6,72,20.1,73.5,20.7,74.8z"/>
							</g>
							<g>
								<path class="st15" d="M20.8,74.9c0.5,1.3,1.8,1.9,2.9,1.4c1.1-0.5,1.5-1.9,1-3.2c-0.5-1.3-1.8-1.9-2.9-1.4
									C20.7,72.2,20.3,73.6,20.8,74.9z"/>
								<g>
									<path class="st16" d="M23.7,75.2c-0.8,0.2-1.6-0.5-1.8-1.4c-0.2-0.9,0.2-1.8,1-1.9c0.8-0.2,1.6,0.5,1.8,1.4
										C24.9,74.2,24.5,75,23.7,75.2z"/>
									<path class="st17" d="M23.9,74.4c-0.5,0.1-0.9-0.3-1.1-0.8c-0.1-0.5,0.1-1.1,0.6-1.1c0.5-0.1,0.9,0.3,1.1,0.8
										C24.6,73.8,24.4,74.3,23.9,74.4z"/>
									<path class="st15" d="M23.7,73.1c-0.2,0.1-0.4-0.1-0.5-0.3c-0.1-0.3,0-0.5,0.2-0.6c0.2-0.1,0.4,0.1,0.5,0.3
										C24,72.8,23.9,73.1,23.7,73.1z"/>
									<path class="st18" d="M23.6,73.8c-0.5,0.4-0.7,0.8-0.7,1.3c0.2,0.1,0.5,0.1,0.8,0.1c0.1,0,0.3-0.1,0.4-0.1
										C23.8,74.7,23.7,74.3,23.6,73.8z"/>
								</g>
							</g>
						</g>
					</g>
					<g>
						<path class="st20" d="M34.8,78.2c-0.4,1-1.1,1.8-2.3,2c-1.8,0.2-2.6-1.4-2.9-2.7C31.4,77.1,33.3,77.4,34.8,78.2z"/>
						<path class="st19" d="M35.4,75.1c0,0,0,1.6-0.7,3c-1.5-0.7-3.4-1-5.2-0.7c-0.2-0.7-0.2-1.3-0.2-1.3
							C32.1,76.5,35.4,75.1,35.4,75.1z"/>
					</g>
				</g>
			</g>
			<g>
				<g>
					<path class="st38" d="M117.5,155.6c-0.9,0-1.7-0.8-1.8-1.7l-4.6-40.3c-8.9-4.4-21-10.2-25.9-12.6l-0.7,44.9c-0.1,1-1,1.7-2,1.5
						c-1-0.1-1.7-1-1.6-2l1-47.3c0.1-0.5,0.4-1,0.9-1.3c0.5-0.3,1-0.3,1.6-0.2c0.6,0.2,18.6,9,29.3,14.2c0.6,0.3,1,0.9,1,1.5
						l4.7,41.3c0,1-0.7,1.8-1.7,1.8C117.6,155.6,117.5,155.6,117.5,155.6L117.5,155.6z"/>
				</g>
				<polygon class="st2" points="10.5,117.9 12.9,128.9 53.2,148.8 53.5,148.6 53.8,113.8 				"/>
				<polygon class="st1" points="119.7,107.6 53.8,113.8 53.5,148.6 119.6,118.9 				"/>
				<g>
					<polygon class="st29" points="122.4,107.4 122.4,109.6 52.9,137.8 6.4,117.4 6.4,115 80.3,93.8 					"/>
					<polygon class="st30" points="122.4,107.4 52.9,135.5 6.4,115 80.3,91.5 					"/>
					<path class="st32" d="M74.4,93.4l-48.9,15.5c3.9,1.1,8,0.8,11.8,2c2.5,3.4,6.8,4.9,10.8,5c4.7,0.2,10.4-0.2,13.6-4.4
						c0.2-0.3,0.6-0.5,0.8-0.5c5.8,0.4,11.4-1.2,16.6-3.5c3.3-1.6,8.4-3.4,8.5-7.6C84.5,95.7,79.4,94.5,74.4,93.4z"/>
					<polygon class="st32" points="61,118.9 53.3,120.8 39.6,116.1 29.6,124 41.8,128.1 50.1,122.5 60.2,130.3 70.5,126.7 					"/>
				</g>
				<g>
					<g>
						<path class="st39" d="M31.4,120.7c0,0-1-0.1-1.3,0.7c-0.3,0.9,0.1,1.9,0.1,1.9l11.1,3.3l10.4-6.5l-10.8-3.8L31.4,120.7z"/>
						<path class="st40" d="M41.3,123.9c0,0-10.4-3-10.4-3c-0.2,0.3-0.4,0.5-0.5,0.7l10.8,3L41.3,123.9z"/>
						<path class="st41" d="M30.4,121.6c-0.3,0.8,0.1,1.3,0.1,1.3l10.6,3l0.1-1.3L30.4,121.6z"/>
						<path class="st40" d="M51.3,118.1c0,0-10,5.9-10,5.8c-0.2,0.2-0.4,0.4-0.4,0.7l10.1-5.8C51.2,118.4,51.3,118.1,51.3,118.1z"/>
						<path class="st42" d="M51.1,118.8l-10.1,5.8c-0.2,0.7,0.2,1.5,0.2,1.5l10.1-5.9C51,119.7,51,119.2,51.1,118.8z"/>
						<polygon class="st43" points="41,115.3 30.4,120.8 41.6,124.2 51.8,118 41,115.3 						"/>
						<polygon class="st44" points="51.3,118.4 41.1,115.9 41,116 51.1,118.5 						"/>
						<polygon class="st45" points="36.2,118.9 33.4,120.4 41.8,122.9 45,121.2 						"/>
						<polygon class="st46" points="41.6,115.4 31,121 31.4,121.1 41.9,115.5 						"/>
						<g>
							<polygon class="st47" points="41.4,126.8 41.2,126.4 51.7,120.2 51.7,120.5 41.4,126.8 							"/>
						</g>
						<path class="st47" d="M41.7,123.9l-11-3.2c0,0,0,0-0.1,0c0,0-0.7,0.1-0.9,1.3c-0.2,1.2,0.4,1.6,0.5,1.6c0,0,0,0,0,0l11,3.2
							c0,0,0,0,0,0c0.1,0,0.2-0.1,0.2-0.2c0-0.1,0-0.2-0.1-0.3l-10.9-3.2c-0.1-0.1-0.4-0.4-0.3-1.1c0.1-0.7,0.4-0.9,0.5-0.9l11,3.2
							c0.1,0,0.2,0,0.2-0.2C41.9,124.1,41.8,124,41.7,123.9z"/>
						<g>
							<polygon class="st47" points="41.8,124.4 41.6,124 51.9,118 51.8,118.4 41.8,124.4 							"/>
						</g>
					</g>
					<g>
						<path class="st48" d="M32,117.7c0,0-0.9-0.1-1.1,0.7c-0.2,0.8,0,2.3,0,2.3l10.1,2.9l9.3-5.8l-9.8-3.9L32,117.7z"/>
						<path class="st40" d="M41,120.5c0,0-9.4-2.6-9.5-2.6c-0.2,0.2-0.3,0.5-0.4,0.7l9.8,2.7L41,120.5z"/>
						<path class="st41" d="M31.2,118.5c-0.3,0.7,0.1,1.8,0.1,1.8l9.7,2.7l0.1-1.7L31.2,118.5z"/>
						<path class="st40" d="M50,115.3c0,0-8.9,5.3-8.9,5.2c-0.2,0.2-0.3,0.4-0.4,0.6l9.1-5.2C49.9,115.6,50,115.3,50,115.3z"/>
						<path class="st42" d="M49.8,115.9l-9.1,5.2c-0.2,0.6,0.2,1.9,0.2,1.9l9-5.3C49.7,117.3,49.7,116.3,49.8,115.9z"/>
						<polygon class="st49" points="40.6,112.8 31.1,117.8 41.3,120.8 50.4,115.3 40.6,112.9 						"/>
						<polygon class="st50" points="36.4,116.1 33.8,117.5 41.5,119.6 44.3,118.1 						"/>
						<polygon class="st48" points="41.1,113 31.7,117.9 32,118 41.4,113 						"/>
						<g>
							<polygon class="st51" points="41.1,123.7 40.9,123.3 50.3,117.7 50.3,118.1 41.1,123.7 							"/>
						</g>
						<path class="st51" d="M41.4,120.6l-10-2.8c0,0,0,0-0.1,0c0,0-0.7,0-0.8,1.1c-0.1,1.1,0.4,2,0.4,2c0,0,0,0,0,0l10,2.8
							c0,0,0,0,0,0c0.1,0,0.2-0.1,0.2-0.2c0-0.1,0-0.2-0.1-0.2l-9.9-2.8c-0.1-0.1-0.3-0.9-0.2-1.6c0.1-0.6,0.4-0.8,0.4-0.8l10,2.8
							c0.1,0,0.2,0,0.2-0.1C41.6,120.7,41.5,120.6,41.4,120.6z"/>
						<g>
							<polygon class="st51" points="41.5,120.9 41.3,120.6 50.5,115.3 50.4,115.6 41.5,120.9 							"/>
						</g>
					</g>
				</g>
				<g>
					<path class="st39" d="M69.3,123.1c0,0,0.9-0.1,1.1,0.8c0.2,0.9-0.1,2.1-0.1,2.1l-9.7,3.5l-8.8-7.1l9.4-4.1L69.3,123.1z"/>
					<path class="st40" d="M60.7,126.6c0,0,9-3.2,9.1-3.2c0.2,0.3,0.3,0.6,0.4,0.8l-9.4,3.3L60.7,126.6z"/>
					<path class="st41" d="M70.2,124.1c0.3,0.9-0.1,1.5-0.1,1.5l-9.2,3.3l0-1.5L70.2,124.1z"/>
					<path class="st40" d="M52.2,120.2c0,0,8.5,6.4,8.5,6.4c0.2,0.2,0.3,0.5,0.4,0.7l-8.6-6.3C52.3,120.5,52.2,120.2,52.2,120.2z"/>
					<path class="st42" d="M52.4,121l8.6,6.3c0.2,0.8-0.2,1.6-0.2,1.6l-8.6-6.4C52.5,122,52.5,121.4,52.4,121z"/>
					<polygon class="st43" points="61.2,117.1 70.2,123.2 60.5,126.9 51.8,120.1 61.2,117.2 					"/>
					<polygon class="st44" points="52.3,120.5 61.1,117.8 61.2,117.9 52.4,120.6 					"/>
					<polygon class="st45" points="65.2,121.1 67.7,122.8 60.3,125.5 57.6,123.6 					"/>
					<polygon class="st46" points="60.7,117.3 69.7,123.4 69.4,123.5 60.5,117.4 					"/>
					<g>
						<polygon class="st47" points="60.6,129.8 60.8,129.3 51.8,122.5 51.9,122.9 60.6,129.8 						"/>
					</g>
					<path class="st47" d="M60.4,126.6l9.6-3.5c0,0,0,0,0,0c0,0,0.6,0.1,0.7,1.4c0.1,1.3-0.4,1.7-0.4,1.7c0,0,0,0,0,0l-9.5,3.5
						c0,0,0,0,0,0c-0.1,0-0.2-0.1-0.2-0.2c0-0.1,0-0.3,0.1-0.3l9.5-3.5c0.1-0.1,0.3-0.4,0.3-1.2c-0.1-0.8-0.3-0.9-0.4-1l-9.6,3.5
						c-0.1,0-0.2,0-0.2-0.2C60.2,126.8,60.3,126.6,60.4,126.6z"/>
					<g>
						<polygon class="st47" points="60.3,127.1 60.5,126.6 51.8,120.1 51.8,120.5 60.3,127.1 						"/>
					</g>
				</g>
				<g>
					<g>
						<path class="st52" d="M47.8,110.7l-10.4-2.9l-0.1,0c0,0-0.1,0.4-0.1,0.6c0,0.2,0.1,0.7,0.1,0.7l10.5,4.4l0.1,0
							C47.9,112.7,47.9,111.8,47.8,110.7z"/>
						<path class="st53" d="M71,102.3l-8.7-1.6l-24.8,7l10.4,2.9c0.1,1.1,0.1,2,0.1,2.8l23.1-9.1c0,0,0.2-0.7,0.2-1.1
							C71.2,102.9,71,102.3,71,102.3z"/>
						<polygon class="st54" points="71,102.3 47.8,111 37.4,107.8 62.3,99.8 						"/>
					</g>
					<g>
						<g>
							<path class="st55" d="M62.7,100.8C62.7,100.8,62.7,100.8,62.7,100.8l0-0.4l-0.7,0c-0.1,0-0.3-0.1-0.4,0l-0.1,0.1l-0.8,0
								l-0.1,0.3l0,0c0,0,0,0.1,0.1,0.1l0.6,0.3c0.1,0.1,0.3,0.1,0.5,0l0.8-0.3C62.7,100.9,62.7,100.9,62.7,100.8L62.7,100.8
								L62.7,100.8z"/>
							<path class="st24" d="M62.6,100.4c0.1,0.1,0.1,0.2-0.1,0.2l-0.8,0.3c-0.1,0-0.3,0-0.4,0l-0.6-0.2c-0.2-0.1-0.1-0.1,0.1-0.2
								l0.8-0.3c0.1,0,0.3,0,0.4,0L62.6,100.4z"/>
						</g>
						<g>
							<path class="st55" d="M60.8,101.4C60.8,101.4,60.8,101.4,60.8,101.4l0-0.4l-0.7,0c-0.1,0-0.3-0.1-0.4,0l-0.1,0l-0.8,0
								l-0.1,0.3l0,0c0,0,0,0.1,0.1,0.1l0.6,0.3c0.1,0.1,0.3,0.1,0.5,0l0.8-0.3C60.7,101.5,60.8,101.5,60.8,101.4L60.8,101.4
								L60.8,101.4z"/>
							<path class="st24" d="M60.7,101c0.1,0.1,0.1,0.2-0.1,0.2l-0.8,0.3c-0.1,0-0.3,0-0.4,0l-0.6-0.2c-0.2-0.1-0.1-0.1,0.1-0.2
								l0.8-0.3c0.1,0,0.3,0,0.4,0L60.7,101z"/>
						</g>
						<g>
							<path class="st55" d="M58.9,102.1C58.9,102,58.9,102,58.9,102.1l0-0.4l-0.7,0c-0.1,0-0.3-0.1-0.4,0l-0.1,0.1l-0.8,0l-0.1,0.3
								l0,0c0,0,0,0.1,0.1,0.1l0.6,0.3c0.1,0.1,0.3,0.1,0.5,0l0.8-0.3C58.8,102.1,58.9,102.1,58.9,102.1L58.9,102.1L58.9,102.1z"/>
							<path class="st24" d="M58.8,101.6c0.1,0.1,0.1,0.2-0.1,0.2l-0.8,0.3c-0.1,0-0.3,0-0.4,0l-0.6-0.2c-0.2-0.1-0.1-0.1,0.1-0.2
								l0.8-0.3c0.1,0,0.3,0,0.4,0L58.8,101.6z"/>
						</g>
						<g>
							<path class="st55" d="M57,102.7C57,102.7,57,102.6,57,102.7l0-0.4l-0.7,0c-0.1,0-0.3-0.1-0.4,0l-0.1,0.1l-0.8,0l-0.1,0.3l0,0
								c0,0,0,0.1,0.1,0.1l0.6,0.3c0.1,0.1,0.3,0.1,0.5,0l0.8-0.3C56.9,102.7,56.9,102.7,57,102.7L57,102.7L57,102.7z"/>
							<path class="st24" d="M56.9,102.2c0.1,0.1,0.1,0.2-0.1,0.2l-0.8,0.3c-0.1,0-0.3,0-0.4,0l-0.6-0.2c-0.2-0.1-0.1-0.1,0.1-0.2
								l0.8-0.3c0.1,0,0.3,0,0.4,0L56.9,102.2z"/>
						</g>
						<g>
							<path class="st55" d="M55,103.3C55,103.3,55,103.3,55,103.3l0-0.4l-0.7,0c-0.1,0-0.3-0.1-0.4,0l-0.1,0.1l-0.8,0l-0.1,0.3l0,0
								c0,0,0,0.1,0.1,0.1l0.6,0.3c0.1,0.1,0.3,0.1,0.5,0l0.8-0.3C55,103.4,55,103.3,55,103.3L55,103.3L55,103.3z"/>
							<path class="st24" d="M54.9,102.8c0.1,0.1,0.1,0.2-0.1,0.2l-0.8,0.3c-0.1,0-0.3,0-0.4,0l-0.6-0.2c-0.2-0.1-0.1-0.1,0.1-0.2
								l0.8-0.3c0.1,0,0.3,0,0.4,0L54.9,102.8z"/>
						</g>
						<g>
							<path class="st55" d="M53.1,103.9C53.1,103.9,53.1,103.9,53.1,103.9l0-0.4l-0.7,0c-0.1,0-0.3-0.1-0.4,0l-0.1,0l-0.8,0
								l-0.1,0.3l0,0c0,0,0,0.1,0.1,0.1l0.6,0.3c0.1,0.1,0.3,0.1,0.5,0L53,104C53.1,104,53.1,103.9,53.1,103.9L53.1,103.9
								L53.1,103.9z"/>
							<path class="st24" d="M53,103.5c0.1,0.1,0.1,0.2-0.1,0.2l-0.8,0.3c-0.1,0-0.3,0-0.4,0l-0.6-0.2c-0.2-0.1-0.1-0.1,0.1-0.2
								l0.8-0.3c0.1,0,0.3,0,0.4,0L53,103.5z"/>
						</g>
						<g>
							<path class="st55" d="M51.2,104.5C51.2,104.5,51.2,104.5,51.2,104.5l0-0.4l-0.7,0c-0.1,0-0.3-0.1-0.4,0l-0.1,0.1l-0.8,0
								l-0.1,0.3l0,0c0,0,0,0.1,0.1,0.1l0.6,0.3c0.1,0.1,0.3,0.1,0.5,0l0.8-0.3C51.2,104.6,51.2,104.6,51.2,104.5L51.2,104.5
								L51.2,104.5z"/>
							<path class="st24" d="M51.1,104.1c0.1,0.1,0.1,0.2-0.1,0.2l-0.8,0.3c-0.1,0-0.3,0-0.4,0l-0.6-0.2c-0.2-0.1-0.1-0.1,0.1-0.2
								l0.8-0.3c0.1,0,0.3,0,0.4,0L51.1,104.1z"/>
						</g>
						<g>
							<path class="st55" d="M49.3,105.1C49.3,105.1,49.3,105.1,49.3,105.1l0-0.4l-0.7,0c-0.1,0-0.3-0.1-0.4,0l-0.1,0.1l-0.8,0
								l-0.1,0.3l0,0c0,0,0,0.1,0.1,0.1l0.6,0.3c0.1,0.1,0.3,0.1,0.5,0l0.8-0.3C49.2,105.2,49.3,105.2,49.3,105.1L49.3,105.1
								L49.3,105.1z"/>
							<path class="st24" d="M49.2,104.7c0.1,0.1,0.1,0.2-0.1,0.2l-0.8,0.3c-0.1,0-0.3,0-0.4,0l-0.6-0.2c-0.2-0.1-0.1-0.1,0.1-0.2
								l0.8-0.3c0.1,0,0.3,0,0.4,0L49.2,104.7z"/>
						</g>
						<g>
							<path class="st55" d="M47.4,105.7C47.4,105.7,47.4,105.7,47.4,105.7l0-0.4l-0.7,0c-0.1,0-0.3-0.1-0.4,0l-0.1,0.1l-0.8,0
								l-0.1,0.3l0,0c0,0,0,0.1,0.1,0.1l0.6,0.3c0.1,0.1,0.3,0.1,0.5,0l0.8-0.3C47.3,105.8,47.4,105.8,47.4,105.7L47.4,105.7
								L47.4,105.7z"/>
							<path class="st24" d="M47.3,105.3c0.1,0.1,0.1,0.2-0.1,0.2l-0.8,0.3c-0.1,0-0.3,0-0.4,0l-0.6-0.2c-0.2-0.1-0.1-0.1,0.1-0.2
								l0.8-0.3c0.1,0,0.3,0,0.4,0L47.3,105.3z"/>
						</g>
						<g>
							<path class="st55" d="M45.5,106.4C45.5,106.3,45.5,106.3,45.5,106.4l0-0.4l-0.7,0c-0.1,0-0.3-0.1-0.4,0l-0.1,0.1l-0.8,0
								l-0.1,0.3l0,0c0,0,0,0.1,0.1,0.1l0.6,0.3c0.1,0.1,0.3,0.1,0.5,0l0.8-0.3C45.4,106.4,45.4,106.4,45.5,106.4L45.5,106.4
								L45.5,106.4z"/>
							<path class="st24" d="M45.4,105.9c0.1,0.1,0.1,0.2-0.1,0.2l-0.8,0.3c-0.1,0-0.3,0-0.4,0l-0.6-0.2c-0.2-0.1-0.1-0.1,0.1-0.2
								l0.8-0.3c0.1,0,0.3,0,0.4,0L45.4,105.9z"/>
						</g>
						<g>
							<path class="st55" d="M43.5,107C43.5,107,43.5,106.9,43.5,107l0-0.4l-0.7,0c-0.1,0-0.3-0.1-0.4,0l-0.1,0l-0.8,0l-0.1,0.3l0,0
								c0,0,0,0.1,0.1,0.1l0.6,0.3c0.1,0.1,0.3,0.1,0.5,0l0.8-0.3C43.5,107,43.5,107,43.5,107L43.5,107L43.5,107z"/>
							<path class="st24" d="M43.4,106.5c0.1,0.1,0.1,0.2-0.1,0.2l-0.8,0.3c-0.1,0-0.3,0-0.4,0l-0.6-0.2c-0.2-0.1-0.1-0.1,0.1-0.2
								l0.8-0.3c0.1,0,0.3,0,0.4,0L43.4,106.5z"/>
						</g>
						<g>
							<path class="st55" d="M41.6,107.6C41.6,107.6,41.6,107.5,41.6,107.6l0-0.4l-0.7,0c-0.1,0-0.3-0.1-0.4,0l-0.1,0l-0.8,0
								l-0.1,0.3l0,0c0,0,0,0.1,0.1,0.1l0.6,0.3c0.1,0.1,0.3,0.1,0.5,0l0.8-0.3C41.6,107.7,41.6,107.6,41.6,107.6L41.6,107.6
								L41.6,107.6z"/>
							<path class="st24" d="M41.5,107.1c0.1,0.1,0.1,0.2-0.1,0.2l-0.8,0.3c-0.1,0-0.3,0-0.4,0l-0.6-0.2c-0.2-0.1-0.1-0.1,0.1-0.2
								l0.8-0.3c0.1,0,0.3,0,0.4,0L41.5,107.1z"/>
						</g>
					</g>
					<g>
						<g>
							<path class="st55" d="M64.4,101.2C64.4,101.2,64.4,101.2,64.4,101.2l0-0.4l-0.7,0c-0.1,0-0.3-0.1-0.4,0l-0.1,0l-0.8,0
								l-0.1,0.3l0,0c0,0,0,0.1,0.1,0.1l0.6,0.3c0.1,0.1,0.3,0.1,0.5,0l0.8-0.3C64.3,101.3,64.4,101.3,64.4,101.2L64.4,101.2
								L64.4,101.2z"/>
							<path class="st24" d="M64.3,100.8c0.1,0.1,0.1,0.2-0.1,0.2l-0.8,0.3c-0.1,0-0.3,0-0.4,0l-0.6-0.2c-0.2-0.1-0.1-0.1,0.1-0.2
								l0.8-0.3c0.1,0,0.3,0,0.4,0L64.3,100.8z"/>
						</g>
						<g>
							<path class="st55" d="M62.5,101.9C62.5,101.8,62.5,101.8,62.5,101.9l0-0.4l-0.7,0c-0.1,0-0.3-0.1-0.4,0l-0.1,0.1l-0.8,0
								l-0.1,0.3l0,0c0,0,0,0.1,0.1,0.1l0.6,0.3c0.1,0.1,0.3,0.1,0.5,0l0.8-0.3C62.4,101.9,62.4,101.9,62.5,101.9L62.5,101.9
								L62.5,101.9z"/>
							<path class="st24" d="M62.4,101.4c0.1,0.1,0.1,0.2-0.1,0.2l-0.8,0.3c-0.1,0-0.3,0-0.4,0l-0.6-0.2c-0.2-0.1-0.1-0.1,0.1-0.2
								l0.8-0.3c0.1,0,0.3,0,0.4,0L62.4,101.4z"/>
						</g>
						<g>
							<path class="st55" d="M60.5,102.5C60.5,102.5,60.5,102.4,60.5,102.5l0-0.4l-0.7,0c-0.1,0-0.3-0.1-0.4,0l-0.1,0.1l-0.8,0
								l-0.1,0.3l0,0c0,0,0,0.1,0.1,0.1l0.6,0.3c0.1,0.1,0.3,0.1,0.5,0l0.8-0.3C60.5,102.5,60.5,102.5,60.5,102.5L60.5,102.5
								L60.5,102.5z"/>
							<path class="st24" d="M60.4,102c0.1,0.1,0.1,0.2-0.1,0.2l-0.8,0.3c-0.1,0-0.3,0-0.4,0l-0.6-0.2c-0.2-0.1-0.1-0.1,0.1-0.2
								l0.8-0.3c0.1,0,0.3,0,0.4,0L60.4,102z"/>
						</g>
						<g>
							<path class="st55" d="M58.6,103.1C58.6,103.1,58.6,103.1,58.6,103.1l0-0.4l-0.7,0c-0.1,0-0.3-0.1-0.4,0l-0.1,0l-0.8,0
								l-0.1,0.3l0,0c0,0,0,0.1,0.1,0.1l0.6,0.3c0.1,0.1,0.3,0.1,0.5,0l0.8-0.3C58.6,103.2,58.6,103.1,58.6,103.1L58.6,103.1
								L58.6,103.1z"/>
							<path class="st24" d="M58.5,102.6c0.1,0.1,0.1,0.2-0.1,0.2l-0.8,0.3c-0.1,0-0.3,0-0.4,0l-0.6-0.2c-0.2-0.1-0.1-0.1,0.1-0.2
								l0.8-0.3c0.1,0,0.3,0,0.4,0L58.5,102.6z"/>
						</g>
						<g>
							<path class="st55" d="M56.7,103.7C56.7,103.7,56.7,103.7,56.7,103.7l0-0.4l-0.7,0c-0.1,0-0.3-0.1-0.4,0l-0.1,0l-0.8,0
								l-0.1,0.3l0,0c0,0,0,0.1,0.1,0.1l0.6,0.3c0.1,0.1,0.3,0.1,0.5,0l0.8-0.3C56.7,103.8,56.7,103.7,56.7,103.7L56.7,103.7
								L56.7,103.7z"/>
							<path class="st24" d="M56.6,103.3c0.1,0.1,0.1,0.2-0.1,0.2l-0.8,0.3c-0.1,0-0.3,0-0.4,0l-0.6-0.2c-0.2-0.1-0.1-0.1,0.1-0.2
								l0.8-0.3c0.1,0,0.3,0,0.4,0L56.6,103.3z"/>
						</g>
						<g>
							<path class="st55" d="M54.8,104.3C54.8,104.3,54.8,104.3,54.8,104.3l0-0.4l-0.7,0c-0.1,0-0.3-0.1-0.4,0l-0.1,0l-0.8,0
								l-0.1,0.3l0,0c0,0,0,0.1,0.1,0.1l0.6,0.3c0.1,0.1,0.3,0.1,0.5,0l0.8-0.3C54.7,104.4,54.8,104.4,54.8,104.3L54.8,104.3
								L54.8,104.3z"/>
							<path class="st24" d="M54.7,103.9c0.1,0.1,0.1,0.2-0.1,0.2l-0.8,0.3c-0.1,0-0.3,0-0.4,0l-0.6-0.2c-0.2-0.1-0.1-0.1,0.1-0.2
								l0.8-0.3c0.1,0,0.3,0,0.4,0L54.7,103.9z"/>
						</g>
						<g>
							<path class="st55" d="M52.9,104.9C52.9,104.9,52.9,104.9,52.9,104.9l0-0.4l-0.7,0c-0.1,0-0.3-0.1-0.4,0l-0.1,0l-0.8,0
								l-0.1,0.3l0,0c0,0,0,0.1,0.1,0.1l0.6,0.3c0.1,0.1,0.3,0.1,0.5,0l0.8-0.3C52.8,105,52.9,105,52.9,104.9L52.9,104.9L52.9,104.9
								z"/>
							<path class="st24" d="M52.8,104.5c0.1,0.1,0.1,0.2-0.1,0.2l-0.8,0.3c-0.1,0-0.3,0-0.4,0l-0.6-0.2c-0.2-0.1-0.1-0.1,0.1-0.2
								l0.8-0.3c0.1,0,0.3,0,0.4,0L52.8,104.5z"/>
						</g>
						<g>
							<path class="st55" d="M51,105.5C51,105.5,51,105.5,51,105.5l0-0.4l-0.7,0c-0.1,0-0.3-0.1-0.4,0l-0.1,0.1l-0.8,0l-0.1,0.3l0,0
								c0,0,0,0.1,0.1,0.1l0.6,0.3c0.1,0.1,0.3,0.1,0.5,0l0.8-0.3C50.9,105.6,50.9,105.6,51,105.5L51,105.5L51,105.5z"/>
							<path class="st24" d="M50.9,105.1c0.1,0.1,0.1,0.2-0.1,0.2l-0.8,0.3c-0.1,0-0.3,0-0.4,0l-0.6-0.2c-0.2-0.1-0.1-0.1,0.1-0.2
								l0.8-0.3c0.1,0,0.3,0,0.4,0L50.9,105.1z"/>
						</g>
						<g>
							<path class="st55" d="M49,106.2C49,106.1,49,106.1,49,106.2l0-0.4l-0.7,0c-0.1,0-0.3-0.1-0.4,0l-0.1,0l-0.8,0l-0.1,0.3l0,0
								c0,0,0,0.1,0.1,0.1l0.6,0.3c0.1,0.1,0.3,0.1,0.5,0l0.8-0.3C49,106.2,49,106.2,49,106.2L49,106.2L49,106.2z"/>
							<path class="st24" d="M48.9,105.7c0.1,0.1,0.1,0.2-0.1,0.2l-0.8,0.3c-0.1,0-0.3,0-0.4,0l-0.6-0.2c-0.2-0.1-0.1-0.1,0.1-0.2
								l0.8-0.3c0.1,0,0.3,0,0.4,0L48.9,105.7z"/>
						</g>
						<g>
							<path class="st55" d="M47.1,106.8C47.1,106.8,47.1,106.7,47.1,106.8l0-0.4l-0.7,0c-0.1,0-0.3-0.1-0.4,0l-0.1,0l-0.8,0
								l-0.1,0.3l0,0c0,0,0,0.1,0.1,0.1l0.6,0.3c0.1,0.1,0.3,0.1,0.5,0l0.8-0.3C47.1,106.8,47.1,106.8,47.1,106.8L47.1,106.8
								L47.1,106.8z"/>
							<path class="st24" d="M47,106.3c0.1,0.1,0.1,0.2-0.1,0.2l-0.8,0.3c-0.1,0-0.3,0-0.4,0l-0.6-0.2c-0.2-0.1-0.1-0.1,0.1-0.2
								l0.8-0.3c0.1,0,0.3,0,0.4,0L47,106.3z"/>
						</g>
						<g>
							<path class="st55" d="M45.2,107.4C45.2,107.4,45.2,107.3,45.2,107.4l0-0.4l-0.7,0c-0.1,0-0.3-0.1-0.4,0l-0.1,0l-0.8,0
								l-0.1,0.3l0,0c0,0,0,0.1,0.1,0.1l0.6,0.3c0.1,0.1,0.3,0.1,0.5,0l0.8-0.3C45.2,107.5,45.2,107.4,45.2,107.4L45.2,107.4
								L45.2,107.4z"/>
							<path class="st24" d="M45.1,106.9c0.1,0.1,0.1,0.2-0.1,0.2l-0.8,0.3c-0.1,0-0.3,0-0.4,0l-0.6-0.2c-0.2-0.1-0.1-0.1,0.1-0.2
								l0.8-0.3c0.1,0,0.3,0,0.4,0L45.1,106.9z"/>
						</g>
						<g>
							<path class="st55" d="M43.3,108C43.3,108,43.3,108,43.3,108l0-0.4l-0.7,0c-0.1,0-0.3-0.1-0.4,0l-0.1,0l-0.8,0l-0.1,0.3l0,0
								c0,0,0,0.1,0.1,0.1l0.6,0.3c0.1,0.1,0.3,0.1,0.5,0l0.8-0.3C43.2,108.1,43.3,108,43.3,108L43.3,108L43.3,108z"/>
							<path class="st24" d="M43.2,107.6c0.1,0.1,0.1,0.2-0.1,0.2l-0.8,0.3c-0.1,0-0.3,0-0.4,0l-0.6-0.2c-0.2-0.1-0.1-0.1,0.1-0.2
								l0.8-0.3c0.1,0,0.3,0,0.4,0L43.2,107.6z"/>
						</g>
					</g>
					<g>
						<g>
							<path class="st55" d="M66,101.7C66,101.6,66.1,101.6,66,101.7l0-0.4l-0.7,0c-0.1,0-0.3-0.1-0.4,0l-0.1,0.1l-0.8,0l-0.1,0.3
								l0,0c0,0,0,0.1,0.1,0.1l0.6,0.3c0.1,0.1,0.3,0.1,0.5,0l0.8-0.3C66,101.7,66,101.7,66,101.7L66,101.7L66,101.7z"/>
							<path class="st24" d="M65.9,101.2c0.1,0.1,0.1,0.2-0.1,0.2l-0.8,0.3c-0.1,0-0.3,0-0.4,0l-0.6-0.2c-0.2-0.1-0.1-0.1,0.1-0.2
								l0.8-0.3c0.1,0,0.3,0,0.4,0L65.9,101.2z"/>
						</g>
						<g>
							<path class="st55" d="M64.1,102.3C64.1,102.3,64.1,102.2,64.1,102.3l0-0.4l-0.7,0c-0.1,0-0.3-0.1-0.4,0l-0.1,0.1l-0.8,0
								l-0.1,0.3l0,0c0,0,0,0.1,0.1,0.1l0.6,0.3c0.1,0.1,0.3,0.1,0.5,0l0.8-0.3C64.1,102.3,64.1,102.3,64.1,102.3L64.1,102.3
								L64.1,102.3z"/>
							<path class="st24" d="M64,101.8c0.1,0.1,0.1,0.2-0.1,0.2l-0.8,0.3c-0.1,0-0.3,0-0.4,0l-0.6-0.2c-0.2-0.1-0.1-0.1,0.1-0.2
								l0.8-0.3c0.1,0,0.3,0,0.4,0L64,101.8z"/>
						</g>
						<g>
							<path class="st55" d="M62.2,102.9C62.2,102.9,62.2,102.9,62.2,102.9l0-0.4l-0.7,0c-0.1,0-0.3-0.1-0.4,0l-0.1,0l-0.8,0
								l-0.1,0.3l0,0c0,0,0,0.1,0.1,0.1l0.6,0.3c0.1,0.1,0.3,0.1,0.5,0l0.8-0.3C62.2,103,62.2,102.9,62.2,102.9L62.2,102.9
								L62.2,102.9z"/>
							<path class="st24" d="M62.1,102.4c0.1,0.1,0.1,0.2-0.1,0.2l-0.8,0.3c-0.1,0-0.3,0-0.4,0l-0.6-0.2c-0.2-0.1-0.1-0.1,0.1-0.2
								l0.8-0.3c0.1,0,0.3,0,0.4,0L62.1,102.4z"/>
						</g>
						<g>
							<path class="st55" d="M60.3,103.5C60.3,103.5,60.3,103.5,60.3,103.5l0-0.4l-0.7,0c-0.1,0-0.3-0.1-0.4,0l-0.1,0l-0.8,0
								l-0.1,0.3l0,0c0,0,0,0.1,0.1,0.1l0.6,0.3c0.1,0.1,0.3,0.1,0.5,0l0.8-0.3C60.2,103.6,60.3,103.5,60.3,103.5L60.3,103.5
								L60.3,103.5z"/>
							<path class="st24" d="M60.2,103.1c0.1,0.1,0.1,0.2-0.1,0.2l-0.8,0.3c-0.1,0-0.3,0-0.4,0l-0.6-0.2c-0.2-0.1-0.1-0.1,0.1-0.2
								l0.8-0.3c0.1,0,0.3,0,0.4,0L60.2,103.1z"/>
						</g>
						<g>
							<path class="st55" d="M58.4,104.1C58.4,104.1,58.4,104.1,58.4,104.1l0-0.4l-0.7,0c-0.1,0-0.3-0.1-0.4,0l-0.1,0.1l-0.8,0
								l-0.1,0.3l0,0c0,0,0,0.1,0.1,0.1l0.6,0.3c0.1,0.1,0.3,0.1,0.5,0l0.8-0.3C58.3,104.2,58.4,104.2,58.4,104.1L58.4,104.1
								L58.4,104.1z"/>
							<path class="st24" d="M58.3,103.7c0.1,0.1,0.1,0.2-0.1,0.2l-0.8,0.3c-0.1,0-0.3,0-0.4,0l-0.6-0.2c-0.2-0.1-0.1-0.1,0.1-0.2
								l0.8-0.3c0.1,0,0.3,0,0.4,0L58.3,103.7z"/>
						</g>
						<g>
							<path class="st55" d="M56.5,104.7C56.5,104.7,56.5,104.7,56.5,104.7l0-0.4l-0.7,0c-0.1,0-0.3-0.1-0.4,0l-0.1,0l-0.8,0
								l-0.1,0.3l0,0c0,0,0,0.1,0.1,0.1l0.6,0.3c0.1,0.1,0.3,0.1,0.5,0l0.8-0.3C56.4,104.8,56.4,104.8,56.5,104.7L56.5,104.7
								L56.5,104.7z"/>
							<path class="st24" d="M56.4,104.3c0.1,0.1,0.1,0.2-0.1,0.2l-0.8,0.3c-0.1,0-0.3,0-0.4,0l-0.6-0.2c-0.2-0.1-0.1-0.1,0.1-0.2
								l0.8-0.3c0.1,0,0.3,0,0.4,0L56.4,104.3z"/>
						</g>
						<g>
							<path class="st55" d="M54.5,105.3C54.5,105.3,54.5,105.3,54.5,105.3l0-0.4l-0.7,0c-0.1,0-0.3-0.1-0.4,0l-0.1,0.1l-0.8,0
								l-0.1,0.3l0,0c0,0,0,0.1,0.1,0.1l0.6,0.3c0.1,0.1,0.3,0.1,0.5,0l0.8-0.3C54.5,105.4,54.5,105.4,54.5,105.3L54.5,105.3
								L54.5,105.3z"/>
							<path class="st24" d="M54.4,104.9c0.1,0.1,0.1,0.2-0.1,0.2l-0.8,0.3c-0.1,0-0.3,0-0.4,0l-0.6-0.2c-0.2-0.1-0.1-0.1,0.1-0.2
								l0.8-0.3c0.1,0,0.3,0,0.4,0L54.4,104.9z"/>
						</g>
						<g>
							<path class="st55" d="M52.6,106C52.6,105.9,52.6,105.9,52.6,106l0-0.4l-0.7,0c-0.1,0-0.3-0.1-0.4,0l-0.1,0.1l-0.8,0l-0.1,0.3
								l0,0c0,0,0,0.1,0.1,0.1l0.6,0.3c0.1,0.1,0.3,0.1,0.5,0l0.8-0.3C52.6,106,52.6,106,52.6,106L52.6,106L52.6,106z"/>
							<path class="st24" d="M52.5,105.5c0.1,0.1,0.1,0.2-0.1,0.2l-0.8,0.3c-0.1,0-0.3,0-0.4,0l-0.6-0.2c-0.2-0.1-0.1-0.1,0.1-0.2
								l0.8-0.3c0.1,0,0.3,0,0.4,0L52.5,105.5z"/>
						</g>
						<g>
							<path class="st55" d="M50.7,106.6C50.7,106.6,50.7,106.5,50.7,106.6l0-0.4l-0.7,0c-0.1,0-0.3-0.1-0.4,0l-0.1,0l-0.8,0
								l-0.1,0.3l0,0c0,0,0,0.1,0.1,0.1l0.6,0.3c0.1,0.1,0.3,0.1,0.5,0l0.8-0.3C50.7,106.6,50.7,106.6,50.7,106.6L50.7,106.6
								L50.7,106.6z"/>
							<path class="st24" d="M50.6,106.1c0.1,0.1,0.1,0.2-0.1,0.2l-0.8,0.3c-0.1,0-0.3,0-0.4,0l-0.6-0.2c-0.2-0.1-0.1-0.1,0.1-0.2
								l0.8-0.3c0.1,0,0.3,0,0.4,0L50.6,106.1z"/>
						</g>
						<g>
							<path class="st55" d="M48.8,107.2C48.8,107.2,48.8,107.2,48.8,107.2l0-0.4l-0.7,0c-0.1,0-0.3-0.1-0.4,0l-0.1,0l-0.8,0
								l-0.1,0.3l0,0c0,0,0,0.1,0.1,0.1l0.6,0.3c0.1,0.1,0.3,0.1,0.5,0l0.8-0.3C48.7,107.3,48.8,107.2,48.8,107.2L48.8,107.2
								L48.8,107.2z"/>
							<path class="st24" d="M48.7,106.7c0.1,0.1,0.1,0.2-0.1,0.2l-0.8,0.3c-0.1,0-0.3,0-0.4,0l-0.6-0.2c-0.2-0.1-0.1-0.1,0.1-0.2
								l0.8-0.3c0.1,0,0.3,0,0.4,0L48.7,106.7z"/>
						</g>
						<g>
							<path class="st55" d="M46.9,107.8C46.9,107.8,46.9,107.8,46.9,107.8l0-0.4l-0.7,0c-0.1,0-0.3-0.1-0.4,0l-0.1,0.1l-0.8,0
								l-0.1,0.3l0,0c0,0,0,0.1,0.1,0.1l0.6,0.3c0.1,0.1,0.3,0.1,0.5,0l0.8-0.3C46.8,107.9,46.9,107.8,46.9,107.8L46.9,107.8
								L46.9,107.8z"/>
							<path class="st24" d="M46.8,107.4c0.1,0.1,0.1,0.2-0.1,0.2l-0.8,0.3c-0.1,0-0.3,0-0.4,0l-0.6-0.2c-0.2-0.1-0.1-0.1,0.1-0.2
								l0.8-0.3c0.1,0,0.3,0,0.4,0L46.8,107.4z"/>
						</g>
						<g>
							<path class="st55" d="M45,108.4C45,108.4,45,108.4,45,108.4l0-0.4l-0.7,0c-0.1,0-0.3-0.1-0.4,0l-0.1,0.1l-0.8,0l-0.1,0.3l0,0
								c0,0,0,0.1,0.1,0.1l0.6,0.3c0.1,0.1,0.3,0.1,0.5,0l0.8-0.3C44.9,108.5,44.9,108.5,45,108.4L45,108.4L45,108.4z"/>
							<path class="st24" d="M44.9,108c0.1,0.1,0.1,0.2-0.1,0.2l-0.8,0.3c-0.1,0-0.3,0-0.4,0l-0.6-0.2c-0.2-0.1-0.1-0.1,0.1-0.2
								l0.8-0.3c0.1,0,0.3,0,0.4,0L44.9,108z"/>
						</g>
					</g>
					<g>
						<g>
							<path class="st55" d="M67.7,102.1C67.7,102.1,67.7,102,67.7,102.1l0-0.4l-0.7,0c-0.1,0-0.3-0.1-0.4,0l-0.1,0l-0.8,0l-0.1,0.3
								l0,0c0,0,0,0.1,0.1,0.1l0.6,0.3c0.1,0.1,0.3,0.1,0.5,0l0.8-0.3C67.7,102.2,67.7,102.1,67.7,102.1L67.7,102.1L67.7,102.1z"/>
							<path class="st24" d="M67.6,101.6c0.1,0.1,0.1,0.2-0.1,0.2l-0.8,0.3c-0.1,0-0.3,0-0.4,0l-0.6-0.2c-0.2-0.1-0.1-0.1,0.1-0.2
								l0.8-0.3c0.1,0,0.3,0,0.4,0L67.6,101.6z"/>
						</g>
						<g>
							<path class="st55" d="M65.8,102.7C65.8,102.7,65.8,102.7,65.8,102.7l0-0.4l-0.7,0c-0.1,0-0.3-0.1-0.4,0l-0.1,0l-0.8,0
								l-0.1,0.3l0,0c0,0,0,0.1,0.1,0.1l0.6,0.3c0.1,0.1,0.3,0.1,0.5,0l0.8-0.3C65.7,102.8,65.8,102.7,65.8,102.7L65.8,102.7
								L65.8,102.7z"/>
							<path class="st24" d="M65.7,102.2c0.1,0.1,0.1,0.2-0.1,0.2l-0.8,0.3c-0.1,0-0.3,0-0.4,0l-0.6-0.2c-0.2-0.1-0.1-0.1,0.1-0.2
								l0.8-0.3c0.1,0,0.3,0,0.4,0L65.7,102.2z"/>
						</g>
						<g>
							<path class="st55" d="M63.9,103.3C63.9,103.3,63.9,103.3,63.9,103.3l0-0.4l-0.7,0c-0.1,0-0.3-0.1-0.4,0l-0.1,0l-0.8,0
								l-0.1,0.3l0,0c0,0,0,0.1,0.1,0.1l0.6,0.3c0.1,0.1,0.3,0.1,0.5,0l0.8-0.3C63.8,103.4,63.9,103.4,63.9,103.3L63.9,103.3
								L63.9,103.3z"/>
							<path class="st24" d="M63.8,102.9c0.1,0.1,0.1,0.2-0.1,0.2l-0.8,0.3c-0.1,0-0.3,0-0.4,0l-0.6-0.2c-0.2-0.1-0.1-0.1,0.1-0.2
								l0.8-0.3c0.1,0,0.3,0,0.4,0L63.8,102.9z"/>
						</g>
						<g>
							<path class="st55" d="M62,103.9C62,103.9,62,103.9,62,103.9l0-0.4l-0.7,0c-0.1,0-0.3-0.1-0.4,0l-0.1,0l-0.8,0l-0.1,0.3l0,0
								c0,0,0,0.1,0.1,0.1l0.6,0.3c0.1,0.1,0.3,0.1,0.5,0l0.8-0.3C61.9,104,62,104,62,103.9L62,103.9L62,103.9z"/>
							<path class="st24" d="M61.9,103.5c0.1,0.1,0.1,0.2-0.1,0.2l-0.8,0.3c-0.1,0-0.3,0-0.4,0l-0.6-0.2c-0.2-0.1-0.1-0.1,0.1-0.2
								l0.8-0.3c0.1,0,0.3,0,0.4,0L61.9,103.5z"/>
						</g>
						<g>
							<path class="st55" d="M60,104.5C60,104.5,60.1,104.5,60,104.5l0-0.4l-0.7,0c-0.1,0-0.3-0.1-0.4,0l-0.1,0.1l-0.8,0l-0.1,0.3
								l0,0c0,0,0,0.1,0.1,0.1l0.6,0.3c0.1,0.1,0.3,0.1,0.5,0l0.8-0.3C60,104.6,60,104.6,60,104.5L60,104.5L60,104.5z"/>
							<path class="st24" d="M59.9,104.1c0.1,0.1,0.1,0.2-0.1,0.2l-0.8,0.3c-0.1,0-0.3,0-0.4,0l-0.6-0.2c-0.2-0.1-0.1-0.1,0.1-0.2
								l0.8-0.3c0.1,0,0.3,0,0.4,0L59.9,104.1z"/>
						</g>
						<g>
							<path class="st55" d="M58.1,105.1C58.1,105.1,58.1,105.1,58.1,105.1l0-0.4l-0.7,0c-0.1,0-0.3-0.1-0.4,0l-0.1,0l-0.8,0
								l-0.1,0.3l0,0c0,0,0,0.1,0.1,0.1l0.6,0.3c0.1,0.1,0.3,0.1,0.5,0l0.8-0.3C58.1,105.2,58.1,105.2,58.1,105.1L58.1,105.1
								L58.1,105.1z"/>
							<path class="st24" d="M58,104.7c0.1,0.1,0.1,0.2-0.1,0.2l-0.8,0.3c-0.1,0-0.3,0-0.4,0l-0.6-0.2c-0.2-0.1-0.1-0.1,0.1-0.2
								l0.8-0.3c0.1,0,0.3,0,0.4,0L58,104.7z"/>
						</g>
						<g>
							<path class="st55" d="M56.2,105.8C56.2,105.7,56.2,105.7,56.2,105.8l0-0.4l-0.7,0c-0.1,0-0.3-0.1-0.4,0l-0.1,0l-0.8,0
								l-0.1,0.3l0,0c0,0,0,0.1,0.1,0.1l0.6,0.3c0.1,0.1,0.3,0.1,0.5,0l0.8-0.3C56.2,105.8,56.2,105.8,56.2,105.8L56.2,105.8
								L56.2,105.8z"/>
							<path class="st24" d="M56.1,105.3c0.1,0.1,0.1,0.2-0.1,0.2l-0.8,0.3c-0.1,0-0.3,0-0.4,0l-0.6-0.2c-0.2-0.1-0.1-0.1,0.1-0.2
								l0.8-0.3c0.1,0,0.3,0,0.4,0L56.1,105.3z"/>
						</g>
						<g>
							<path class="st55" d="M54.3,106.4C54.3,106.4,54.3,106.3,54.3,106.4l0-0.4l-0.7,0c-0.1,0-0.3-0.1-0.4,0L53,106l-0.8,0
								l-0.1,0.3l0,0c0,0,0,0.1,0.1,0.1l0.6,0.3c0.1,0.1,0.3,0.1,0.5,0l0.8-0.3C54.2,106.4,54.3,106.4,54.3,106.4L54.3,106.4
								L54.3,106.4z"/>
							<path class="st24" d="M54.2,105.9c0.1,0.1,0.1,0.2-0.1,0.2l-0.8,0.3c-0.1,0-0.3,0-0.4,0l-0.6-0.2c-0.2-0.1-0.1-0.1,0.1-0.2
								l0.8-0.3c0.1,0,0.3,0,0.4,0L54.2,105.9z"/>
						</g>
						<g>
							<path class="st55" d="M52.4,107C52.4,107,52.4,107,52.4,107l0-0.4l-0.7,0c-0.1,0-0.3-0.1-0.4,0l-0.1,0l-0.8,0l-0.1,0.3l0,0
								c0,0,0,0.1,0.1,0.1l0.6,0.3c0.1,0.1,0.3,0.1,0.5,0l0.8-0.3C52.3,107.1,52.4,107,52.4,107L52.4,107L52.4,107z"/>
							<path class="st24" d="M52.3,106.5c0.1,0.1,0.1,0.2-0.1,0.2l-0.8,0.3c-0.1,0-0.3,0-0.4,0l-0.6-0.2c-0.2-0.1-0.1-0.1,0.1-0.2
								l0.8-0.3c0.1,0,0.3,0,0.4,0L52.3,106.5z"/>
						</g>
						<g>
							<path class="st55" d="M50.5,107.6C50.5,107.6,50.5,107.6,50.5,107.6l0-0.4l-0.7,0c-0.1,0-0.3-0.1-0.4,0l-0.1,0l-0.8,0
								l-0.1,0.3l0,0c0,0,0,0.1,0.1,0.1L49,108c0.1,0.1,0.3,0.1,0.5,0l0.8-0.3C50.4,107.7,50.4,107.6,50.5,107.6L50.5,107.6
								L50.5,107.6z"/>
							<path class="st24" d="M50.4,107.2c0.1,0.1,0.1,0.2-0.1,0.2l-0.8,0.3c-0.1,0-0.3,0-0.4,0l-0.6-0.2c-0.2-0.1-0.1-0.1,0.1-0.2
								l0.8-0.3c0.1,0,0.3,0,0.4,0L50.4,107.2z"/>
						</g>
						<g>
							<path class="st55" d="M48.5,108.2C48.5,108.2,48.5,108.2,48.5,108.2l0-0.4l-0.7,0c-0.1,0-0.3-0.1-0.4,0l-0.1,0.1l-0.8,0
								l-0.1,0.3l0,0c0,0,0,0.1,0.1,0.1l0.6,0.3c0.1,0.1,0.3,0.1,0.5,0l0.8-0.3C48.5,108.3,48.5,108.3,48.5,108.2L48.5,108.2
								L48.5,108.2z"/>
							<path class="st24" d="M48.4,107.8c0.1,0.1,0.1,0.2-0.1,0.2l-0.8,0.3c-0.1,0-0.3,0-0.4,0l-0.6-0.2c-0.2-0.1-0.1-0.1,0.1-0.2
								l0.8-0.3c0.1,0,0.3,0,0.4,0L48.4,107.8z"/>
						</g>
						<g>
							<path class="st55" d="M46.6,108.8C46.6,108.8,46.6,108.8,46.6,108.8l0-0.4l-0.7,0c-0.1,0-0.3-0.1-0.4,0l-0.1,0.1l-0.8,0
								l-0.1,0.3l0,0c0,0,0,0.1,0.1,0.1l0.6,0.3c0.1,0.1,0.3,0.1,0.5,0l0.8-0.3C46.6,108.9,46.6,108.9,46.6,108.8L46.6,108.8
								L46.6,108.8z"/>
							<path class="st24" d="M46.5,108.4c0.1,0.1,0.1,0.2-0.1,0.2l-0.8,0.3c-0.1,0-0.3,0-0.4,0l-0.6-0.2c-0.2-0.1-0.1-0.1,0.1-0.2
								l0.8-0.3c0.1,0,0.3,0,0.4,0L46.5,108.4z"/>
						</g>
					</g>
					<g>
						<g>
							<path class="st55" d="M69.4,102.5C69.4,102.5,69.4,102.5,69.4,102.5l0-0.4l-0.7,0c-0.1,0-0.3-0.1-0.4,0l-0.1,0.1l-0.8,0
								l-0.1,0.3l0,0c0,0,0,0.1,0.1,0.1l0.6,0.3c0.1,0.1,0.3,0.1,0.5,0l0.8-0.3C69.3,102.6,69.4,102.5,69.4,102.5L69.4,102.5
								L69.4,102.5z"/>
							<path class="st24" d="M69.3,102c0.1,0.1,0.1,0.2-0.1,0.2l-0.8,0.3c-0.1,0-0.3,0-0.4,0l-0.6-0.2c-0.2-0.1-0.1-0.1,0.1-0.2
								l0.8-0.3c0.1,0,0.3,0,0.4,0L69.3,102z"/>
						</g>
						<g>
							<path class="st55" d="M67.5,103.1C67.5,103.1,67.5,103.1,67.5,103.1l0-0.4l-0.7,0c-0.1,0-0.3-0.1-0.4,0l-0.1,0.1l-0.8,0
								l-0.1,0.3l0,0c0,0,0,0.1,0.1,0.1l0.6,0.3c0.1,0.1,0.3,0.1,0.5,0l0.8-0.3C67.4,103.2,67.5,103.2,67.5,103.1L67.5,103.1
								L67.5,103.1z"/>
							<path class="st24" d="M67.4,102.7c0.1,0.1,0.1,0.2-0.1,0.2l-0.8,0.3c-0.1,0-0.3,0-0.4,0l-0.6-0.2c-0.2-0.1-0.1-0.1,0.1-0.2
								l0.8-0.3c0.1,0,0.3,0,0.4,0L67.4,102.7z"/>
						</g>
						<g>
							<path class="st55" d="M65.6,103.7C65.6,103.7,65.6,103.7,65.6,103.7l0-0.4l-0.7,0c-0.1,0-0.3-0.1-0.4,0l-0.1,0.1l-0.8,0
								l-0.1,0.3l0,0c0,0,0,0.1,0.1,0.1l0.6,0.3c0.1,0.1,0.3,0.1,0.5,0l0.8-0.3C65.5,103.8,65.5,103.8,65.6,103.7L65.6,103.7
								L65.6,103.7z"/>
							<path class="st24" d="M65.5,103.3c0.1,0.1,0.1,0.2-0.1,0.2l-0.8,0.3c-0.1,0-0.3,0-0.4,0l-0.6-0.2c-0.2-0.1-0.1-0.1,0.1-0.2
								l0.8-0.3c0.1,0,0.3,0,0.4,0L65.5,103.3z"/>
						</g>
						<g>
							<path class="st55" d="M63.6,104.4C63.6,104.3,63.6,104.3,63.6,104.4l0-0.4l-0.7,0c-0.1,0-0.3-0.1-0.4,0l-0.1,0.1l-0.8,0
								l-0.1,0.3l0,0c0,0,0,0.1,0.1,0.1l0.6,0.3c0.1,0.1,0.3,0.1,0.5,0l0.8-0.3C63.6,104.4,63.6,104.4,63.6,104.4L63.6,104.4
								L63.6,104.4z"/>
							<path class="st24" d="M63.5,103.9c0.1,0.1,0.1,0.2-0.1,0.2l-0.8,0.3c-0.1,0-0.3,0-0.4,0l-0.6-0.2c-0.2-0.1-0.1-0.1,0.1-0.2
								l0.8-0.3c0.1,0,0.3,0,0.4,0L63.5,103.9z"/>
						</g>
						<g>
							<path class="st55" d="M61.7,105C61.7,105,61.7,104.9,61.7,105l0-0.4l-0.7,0c-0.1,0-0.3-0.1-0.4,0l-0.1,0.1l-0.8,0l-0.1,0.3
								l0,0c0,0,0,0.1,0.1,0.1l0.6,0.3c0.1,0.1,0.3,0.1,0.5,0l0.8-0.3C61.7,105.1,61.7,105,61.7,105L61.7,105L61.7,105z"/>
							<path class="st24" d="M61.6,104.5c0.1,0.1,0.1,0.2-0.1,0.2l-0.8,0.3c-0.1,0-0.3,0-0.4,0l-0.6-0.2c-0.2-0.1-0.1-0.1,0.1-0.2
								l0.8-0.3c0.1,0,0.3,0,0.4,0L61.6,104.5z"/>
						</g>
						<g>
							<path class="st55" d="M59.8,105.6C59.8,105.6,59.8,105.6,59.8,105.6l0-0.4l-0.7,0c-0.1,0-0.3-0.1-0.4,0l-0.1,0.1l-0.8,0
								l-0.1,0.3l0,0c0,0,0,0.1,0.1,0.1l0.6,0.3c0.1,0.1,0.3,0.1,0.5,0l0.8-0.3C59.8,105.7,59.8,105.7,59.8,105.6L59.8,105.6
								L59.8,105.6z"/>
							<path class="st24" d="M59.7,105.2c0.1,0.1,0.1,0.2-0.1,0.2l-0.8,0.3c-0.1,0-0.3,0-0.4,0l-0.6-0.2c-0.2-0.1-0.1-0.1,0.1-0.2
								l0.8-0.3c0.1,0,0.3,0,0.4,0L59.7,105.2z"/>
						</g>
						<g>
							<path class="st55" d="M57.9,106.2C57.9,106.2,57.9,106.2,57.9,106.2l0-0.4l-0.7,0c-0.1,0-0.3-0.1-0.4,0l-0.1,0.1l-0.8,0
								l-0.1,0.3l0,0c0,0,0,0.1,0.1,0.1l0.6,0.3c0.1,0.1,0.3,0.1,0.5,0l0.8-0.3C57.8,106.3,57.9,106.3,57.9,106.2L57.9,106.2
								L57.9,106.2z"/>
							<path class="st24" d="M57.8,105.8c0.1,0.1,0.1,0.2-0.1,0.2l-0.8,0.3c-0.1,0-0.3,0-0.4,0l-0.6-0.2c-0.2-0.1-0.1-0.1,0.1-0.2
								l0.8-0.3c0.1,0,0.3,0,0.4,0L57.8,105.8z"/>
						</g>
						<g>
							<path class="st55" d="M56,106.8C56,106.8,56,106.8,56,106.8l0-0.4l-0.7,0c-0.1,0-0.3-0.1-0.4,0l-0.1,0.1l-0.8,0l-0.1,0.3l0,0
								c0,0,0,0.1,0.1,0.1l0.6,0.3c0.1,0.1,0.3,0.1,0.5,0l0.8-0.3C55.9,106.9,56,106.9,56,106.8L56,106.8L56,106.8z"/>
							<path class="st24" d="M55.9,106.4c0.1,0.1,0.1,0.2-0.1,0.2l-0.8,0.3c-0.1,0-0.3,0-0.4,0l-0.6-0.2c-0.2-0.1-0.1-0.1,0.1-0.2
								l0.8-0.3c0.1,0,0.3,0,0.4,0L55.9,106.4z"/>
						</g>
						<g>
							<path class="st55" d="M54.1,107.5C54.1,107.5,54.1,107.4,54.1,107.5l0-0.4l-0.7,0c-0.1,0-0.3-0.1-0.4,0l-0.1,0.1l-0.8,0
								l-0.1,0.3l0,0c0,0,0,0.1,0.1,0.1l0.6,0.3c0.1,0.1,0.3,0.1,0.5,0l0.8-0.3C54,107.5,54.1,107.5,54.1,107.5L54.1,107.5
								L54.1,107.5z"/>
							<path class="st24" d="M54,107c0.1,0.1,0.1,0.2-0.1,0.2l-0.8,0.3c-0.1,0-0.3,0-0.4,0l-0.6-0.2c-0.2-0.1-0.1-0.1,0.1-0.2
								l0.8-0.3c0.1,0,0.3,0,0.4,0L54,107z"/>
						</g>
						<g>
							<path class="st55" d="M52.1,108.1C52.2,108.1,52.2,108.1,52.1,108.1l0-0.4l-0.7,0c-0.1,0-0.3-0.1-0.4,0l-0.1,0.1l-0.8,0
								l-0.1,0.3l0,0c0,0,0,0.1,0.1,0.1l0.6,0.3c0.1,0.1,0.3,0.1,0.5,0l0.8-0.3C52.1,108.2,52.1,108.1,52.1,108.1L52.1,108.1
								L52.1,108.1z"/>
							<path class="st24" d="M52,107.6c0.1,0.1,0.1,0.2-0.1,0.2l-0.8,0.3c-0.1,0-0.3,0-0.4,0l-0.6-0.2c-0.2-0.1-0.1-0.1,0.1-0.2
								l0.8-0.3c0.1,0,0.3,0,0.4,0L52,107.6z"/>
						</g>
						<g>
							<path class="st55" d="M50.2,108.7C50.2,108.7,50.2,108.7,50.2,108.7l0-0.4l-0.7,0c-0.1,0-0.3-0.1-0.4,0l-0.1,0.1l-0.8,0
								l-0.1,0.3l0,0c0,0,0,0.1,0.1,0.1l0.6,0.3c0.1,0.1,0.3,0.1,0.5,0l0.8-0.3C50.2,108.8,50.2,108.8,50.2,108.7L50.2,108.7
								L50.2,108.7z"/>
							<path class="st24" d="M50.1,108.3c0.1,0.1,0.1,0.2-0.1,0.2l-0.8,0.3c-0.1,0-0.3,0-0.4,0l-0.6-0.2c-0.2-0.1-0.1-0.1,0.1-0.2
								l0.8-0.3c0.1,0,0.3,0,0.4,0L50.1,108.3z"/>
						</g>
						<g>
							<path class="st55" d="M48.3,109.3C48.3,109.3,48.3,109.3,48.3,109.3l0-0.4l-0.7,0c-0.1,0-0.3-0.1-0.4,0L47,109l-0.8,0
								l-0.1,0.3l0,0c0,0,0,0.1,0.1,0.1l0.6,0.3c0.1,0.1,0.3,0.1,0.5,0l0.8-0.3C48.3,109.4,48.3,109.4,48.3,109.3L48.3,109.3
								L48.3,109.3z"/>
							<path class="st24" d="M48.2,108.9c0.1,0.1,0.1,0.2-0.1,0.2l-0.8,0.3c-0.1,0-0.3,0-0.4,0l-0.6-0.2c-0.2-0.1-0.1-0.1,0.1-0.2
								l0.8-0.3c0.1,0,0.3,0,0.4,0L48.2,108.9z"/>
						</g>
					</g>
				</g>
				<g>
					<g>
						<path class="st52" d="M91.1,117l-0.6,0c-1.3-1-4.2-1.8-7.7-1.8c-3.6,0-6.7,0.7-7.9,1.8l-0.5,0l0,1.1h0
							c0.2,1.5,3.8,2.7,8.3,2.8c4.6,0,8.3-1.2,8.4-2.8c0,0,0,0,0,0h0L91.1,117z"/>
						<g>
							<path class="st56" d="M91.1,117.2c0,1.6-3.8,2.8-8.4,2.8c-4.6,0-8.3-1.3-8.3-2.9c0-1.6,3.8-2.8,8.4-2.8
								C87.4,114.3,91.1,115.6,91.1,117.2z"/>
							<path class="st52" d="M89.2,116.7c0,1.2-2.9,2.2-6.5,2.2c-3.6,0-6.5-1-6.5-2.2c0-1.2,2.9-2.2,6.5-2.2
								C86.3,114.4,89.3,115.4,89.2,116.7z"/>
						</g>
					</g>
					<polygon class="st52" points="60.5,92.5 60.5,92.5 60.5,114.7 61.6,115.4 62.4,115.1 62.6,93.7 					"/>
					<polygon class="st52" points="62.5,93.7 62.6,93.7 62.6,93.7 					"/>
					<polygon class="st53" points="95.3,81.6 60.5,92.5 62.5,93.7 62.6,93.7 96.1,83.2 96.2,82.4 					"/>
					<polygon class="st52" points="62.6,93.7 62.6,93.7 63,94 62.6,93.7 62.4,115.1 95,102.5 96.1,83.2 					"/>
					<g>
						<polygon class="st53" points="65.3,94.4 61.6,93.1 61.6,93.1 61.6,115.4 61.6,115.4 65.2,112.9 						"/>
						<polygon class="st57" points="93.5,103 65.2,112.9 65.2,112.9 61.6,115.4 95.8,103.4 						"/>
						<polygon class="st54" points="95.8,103.4 96.2,82.4 93.9,85.6 93.5,103 93.5,103 95.8,103.4 						"/>
						<polygon class="st24" points="65.3,94.4 93.9,85.6 93.9,85.6 96.2,82.4 96.2,82.4 61.6,93.1 65.3,94.4 						"/>
						<polygon class="st52" points="65.2,112.9 93.5,103 93.9,85.6 65.3,94.4 						"/>
						<polygon class="st58" points="72.9,108.4 87.9,103.2 88.1,94 73,98.7 						"/>
					</g>
					<g>
						<path class="st59" d="M66.3,95.2c0-0.1,0-0.1-0.1-0.1l0,0c-0.1,0-0.1,0.1-0.1,0.2l0.1,3.4c0,0.1,0,0.1,0.1,0.1l0,0
							c0.1,0,0.1-0.1,0.1-0.2L66.3,95.2z"/>
						<path class="st59" d="M66.8,95c0-0.1,0-0.1-0.1-0.1c0,0,0,0,0,0c0,0-0.1,0.5-0.1,0.6c0,0,0.1,2.9,0.1,2.9c0,0.1,0,0.1,0.1,0.1
							c0,0,0,0,0,0c0,0,0.1-0.5,0.1-0.6C66.9,97.9,66.9,95,66.8,95z"/>
						<path class="st59" d="M67.4,94.8C67.4,94.7,67.3,94.7,67.4,94.8C67.3,94.7,67.3,94.7,67.4,94.8c-0.1,0-0.2,0.9-0.1,1
							c0,0,0.1,2.5,0.1,2.4c0,0.1,0,0.1,0.1,0.1c0,0,0,0,0,0c0,0,0.1-1,0.1-1C67.5,97.2,67.4,94.8,67.4,94.8z"/>
						<path class="st59" d="M67.9,94.6C67.9,94.6,67.9,94.5,67.9,94.6C67.8,94.5,67.8,94.6,67.9,94.6c-0.1,0-0.1,1.4-0.1,1.4
							c0,0,0.1,2,0.1,2c0,0.1,0,0.1,0.1,0.1c0,0,0,0,0-0.1c0,0,0-1.4,0-1.4C68,96.6,67.9,94.6,67.9,94.6z"/>
						<path class="st59" d="M68.4,94.4C68.4,94.4,68.4,94.4,68.4,94.4C68.4,94.4,68.3,94.4,68.4,94.4c-0.1,0-0.1,1.9-0.1,1.9
							c0,0,0.1,1.5,0.1,1.5c0,0,0,0.1,0,0.1c0,0,0,0,0-0.1c0,0,0-1.8,0-1.9C68.5,95.9,68.5,94.4,68.4,94.4z"/>
						<path class="st59" d="M69,94.3C69,94.2,68.9,94.2,69,94.3C68.9,94.2,68.9,94.3,69,94.3c-0.1,0.1-0.1,2.3-0.1,2.4
							c0,0.1,0.1,1.1,0.1,1.1c0,0,0,0,0,0c0,0,0.1-0.1,0.1-0.1c0,0,0-2.3,0-2.3C69,95.3,69,94.2,69,94.3z"/>
						<path class="st59" d="M69.5,94.1C69.5,94.1,69.5,94.1,69.5,94.1c-0.1,0-0.1,0.1-0.1,0.1c0,0,0,2.7,0,2.7c0,0.1,0,0.6,0.1,0.6
							c0,0,0,0,0,0c0,0,0.1-0.1,0.1-0.1c0,0,0-2.7,0-2.7C69.6,94.6,69.5,94.1,69.5,94.1z"/>
						<path class="st59" d="M70.1,94c0-0.1,0-0.1-0.1-0.1l0,0c0,0-0.1,0.1-0.1,0.2l0.1,3.1c0,0.1,0,0.1,0.1,0.1l0,0
							c0,0,0.1-0.1,0.1-0.2L70.1,94z"/>
					</g>
					<g>
						<path class="st59" d="M89.4,88c0-0.1,0-0.1-0.1-0.1l0,0c-0.1,0-0.1,0.1-0.1,0.2l0.1,3.4c0,0.1,0.1,0.1,0.1,0.1l0,0
							c0.1,0,0.1-0.1,0.1-0.2L89.4,88z"/>
						<path class="st59" d="M90,87.8c0-0.1,0-0.1-0.1-0.1c0,0,0,0,0,0c0,0-0.1,0.5-0.1,0.6c0,0,0.1,2.9,0.1,2.9c0,0.1,0,0.1,0.1,0.1
							c0,0,0,0,0,0c0,0,0.1-0.5,0.1-0.6C90,90.7,90,87.8,90,87.8z"/>
						<path class="st59" d="M90.5,87.6C90.5,87.6,90.4,87.5,90.5,87.6C90.4,87.5,90.4,87.6,90.5,87.6c-0.1,0-0.2,0.9-0.1,1
							c0,0,0.1,2.5,0.1,2.4c0,0.1,0,0.1,0.1,0.1c0,0,0,0,0,0c0,0,0.1-1,0.1-1C90.6,90.1,90.5,87.6,90.5,87.6z"/>
						<path class="st59" d="M91,87.5C91,87.4,91,87.4,91,87.5C90.9,87.4,90.9,87.4,91,87.5c-0.1,0-0.1,1.4-0.1,1.4c0,0,0.1,2,0.1,2
							c0,0.1,0,0.1,0.1,0.1c0,0,0,0,0-0.1c0,0,0-1.4,0-1.4C91.1,89.4,91,87.4,91,87.5z"/>
						<path class="st59" d="M91.5,87.3C91.5,87.2,91.5,87.2,91.5,87.3C91.5,87.2,91.4,87.3,91.5,87.3c-0.1,0-0.1,1.9-0.1,1.9
							c0,0,0.1,1.5,0.1,1.5c0,0,0,0.1,0,0.1c0,0,0,0,0-0.1c0,0,0-1.8,0-1.9C91.6,88.7,91.6,87.3,91.5,87.3z"/>
						<path class="st59" d="M92.1,87.1C92.1,87.1,92.1,87.1,92.1,87.1C92,87.1,92,87.1,92.1,87.1C92,87.2,92,89.4,92,89.5
							c0,0.1,0.1,1.1,0.1,1.1c0,0,0,0,0,0c0,0,0.1-0.1,0.1-0.1c0,0,0-2.3,0-2.3C92.2,88.1,92.1,87.1,92.1,87.1z"/>
						<path class="st59" d="M92.6,86.9C92.6,86.9,92.6,86.9,92.6,86.9c-0.1,0-0.1,0.1-0.1,0.1c0,0,0,2.7,0,2.7c0,0.1,0,0.6,0.1,0.6
							c0,0,0,0,0,0c0,0,0.1-0.1,0.1-0.1c0,0,0-2.7,0-2.7C92.7,87.4,92.6,86.9,92.6,86.9z"/>
						<path class="st59" d="M93.2,86.9c0-0.1,0-0.1-0.1-0.1l0,0c0,0-0.1,0.1-0.1,0.2l0.1,3.1c0,0.1,0,0.1,0.1,0.1l0,0
							c0,0,0.1-0.1,0.1-0.2L93.2,86.9z"/>
					</g>
					<g>
						<path class="st60" d="M66.9,111.8c-0.3,0.2-0.6,0.1-0.8-0.2c-0.2-0.3-0.1-0.6,0.2-0.8c0.3-0.2,0.6-0.1,0.8,0.2
							C67.2,111.3,67.1,111.6,66.9,111.8z"/>
						<path class="st56" d="M66.7,111.6c-0.2,0.1-0.5,0.1-0.6-0.2c-0.1-0.2-0.1-0.5,0.1-0.6c0.2-0.1,0.5-0.1,0.6,0.2
							C66.9,111.2,66.9,111.5,66.7,111.6z"/>
					</g>
					<g>
						<path class="st60" d="M92.5,102.9c-0.3,0.2-0.6,0.1-0.8-0.2c-0.2-0.3-0.1-0.6,0.2-0.8c0.3-0.2,0.6-0.1,0.8,0.2
							C92.9,102.4,92.8,102.7,92.5,102.9z"/>
						<path class="st56" d="M92.4,102.7c-0.2,0.1-0.5,0.1-0.6-0.2c-0.1-0.2-0.1-0.5,0.1-0.6c0.2-0.1,0.5-0.1,0.6,0.2
							C92.6,102.3,92.6,102.6,92.4,102.7z"/>
					</g>
					<g>
						<polygon class="st54" points="87.1,116.4 82,118.5 80.8,118 78,104.2 78.2,101.3 83.5,100.7 						"/>
						<polygon class="st53" points="88.2,116.4 82,118.5 78.2,101.3 84.6,99.5 						"/>
					</g>
				</g>
			</g>
			<g>
				<g>
					<g>
						<path class="st61" d="M37.6,99c0.8-0.1,2.6-1.8,3.3-1.3c1.5,1-1,2.4-1.2,2.6L37.6,99z"/>
					</g>
					<path class="st13" d="M38,95.8c-3.6,0.7-4.1,3-5.1,5.3c-3.5,0.5-7,0.9-8.8,1.1c-0.2-1.8-0.3-5.1-0.4-7.9l-3.7,0
						c0,0.1,0,2.5,0.2,5c0.1,1.5,0.2,2.7,0.2,3.5c0.1,0.6,0.1,1,0.2,1.4c0.3,1.4,1.1,1.8,1.6,1.9c0.3,0.1,0.6,0.1,4.5-0.4
						c0.8-0.1,1.6-0.2,2.7-0.3c2.5-0.3,4.9-0.7,5.8-0.8c2,0.2,4.6-0.5,5.6-1.7c0.8-0.9,1-2.7,0.2-3.6c-0.7-0.9-2.7-1-3.8-0.9
						c0.3-0.2,0.5-0.3,0.8-0.4c0.8-0.4,3.9-0.5,4-0.9C42.4,96,39,95.7,38,95.8z"/>
					<path class="st34" d="M23.9,98.9c-0.1-1.4-0.1-3-0.1-4.5l-3.7,0c0,0.1,0,2.5,0.2,5c0,0.2,0,0.3,0,0.5
						C21.5,99.9,22.7,99.5,23.9,98.9z"/>
					<path class="st34" d="M35.9,104.2c-0.5,0.1-1.7,0-1.5-0.8c-0.4,0.3-0.6,0.7-1,0.7c-3.6,1-7.2,2-11,1.3
						c-0.6-0.1-1.2-0.3-1.7-0.7c0.3,1.1,1,1.4,1.5,1.6c0.3,0.1,0.6,0.1,4.5-0.4c0.8-0.1,1.6-0.2,2.7-0.3c2.5-0.3,4.9-0.7,5.8-0.8
						c2,0.2,4.6-0.5,5.6-1.7c0.1-0.1,0.1-0.2,0.2-0.3C39.6,103.7,37.7,104.2,35.9,104.2z"/>
					<path class="st34" d="M39.6,102.7c0.5,0,1,0.1,1.5,0.1c0.2-0.2,0.3-0.5,0.4-0.8C41.1,102.5,40.4,102.7,39.6,102.7z"/>
					<path class="st34" d="M39.6,102.7c-0.6,0-1.1-0.1-1.7-0.1C38.4,102.6,39.1,102.7,39.6,102.7z"/>
					<path class="st34" d="M41,100.4c-0.8,0.2-1.7,0.2-2.6,0.3c0.9,0.2,2.9-0.1,3.1,0.6c0-0.5,0-0.9-0.1-1.3
						C41.4,100.2,41.2,100.3,41,100.4z"/>
				</g>
				<g>
					<path class="st35" d="M25.6,96.6c0.1-3.1-0.1-10-3.5-9.8c-3.4,0.2-4.2,6.9-4.3,10C20.4,97,23,97,25.6,96.6z"/>
					<path class="st36" d="M17.8,96.8c-0.1,1-0.1,1.6-0.1,1.6s5.6,0.2,7.8-0.3c0,0,0-0.6,0.1-1.5C23,97,20.4,97,17.8,96.8z"/>
				</g>
			</g>
		</g>
		<g>
			<path class="st38" d="M49.6,184c-0.9,0-1.7-0.8-1.8-1.7l-3.4-40.1c-8.9-4.4-21-10.2-25.9-12.6l-0.7,39.7c-0.1,1-1,1.7-2,1.5
				c-1-0.1-1.7-1-1.6-2l1.1-42.1c0.1-0.5,0.4-1,0.9-1.3c0.5-0.3,1-0.3,1.6-0.2c0.6,0.2,18.6,9,29.3,14.2c0.6,0.3,1,0.9,1,1.5
				l3.4,41.2c0,1-0.7,1.8-1.7,1.8C49.7,184,49.7,184,49.6,184L49.6,184z"/>
		</g>
	</g>
</g>
</svg>
