<?xml version="1.0" encoding="utf-8"?>
<!-- Generator: Adobe Illustrator 22.1.0, SVG Export Plug-In . SVG Version: 6.00 Build 0)  -->
<svg version="1.1" id="Layer_1" xmlns="http://www.w3.org/2000/svg" xmlns:xlink="http://www.w3.org/1999/xlink" x="0px" y="0px"
	 viewBox="0 0 66.3 92.1" style="enable-background:new 0 0 66.3 92.1;" xml:space="preserve">
<style type="text/css">
	.st0{fill:#61C4F2;}
	.st1{fill:#263357;}
	.st2{fill:#FF2C2C;}
</style>
<path class="st0" d="M62.2,44.1c0.7-2.4,4.1-4.6,4.1-7.2c0-2.6-3.5-4.8-4.1-7.2c-0.7-2.5,1.2-6.1,0-8.3c-1.3-2.2-5.4-2.4-7.2-4.2
	c-1.8-1.8-1.9-5.9-4.2-7.2c-2.2-1.3-5.8,0.6-8.3,0c-2.4-0.7-4.6-4.1-7.2-4.1c-2.6,0-4.8,3.5-7.2,4.1c-2.5,0.7-6.1-1.2-8.3,0
	c-2.2,1.3-2.4,5.4-4.2,7.2c-1.8,1.8-5.9,1.9-7.2,4.2c-1.3,2.2,0.6,5.8,0,8.3c-0.7,2.4-4.1,4.6-4.1,7.2c0,2.6,3.5,4.8,4.1,7.2
	c0.7,2.5-1.2,6.1,0,8.3c1.3,2.2,5.4,2.4,7.2,4.2c1.8,1.8,1.9,5.9,4.2,7.2c2.2,1.3,5.8-0.6,8.3,0c2.4,0.7,4.6,4.1,7.2,4.1
	c2.6,0,4.8-3.5,7.2-4.1c2.5-0.7,6.1,1.2,8.3,0c2.2-1.3,2.4-5.4,4.2-7.2c1.8-1.8,5.9-1.9,7.2-4.2C63.4,50.2,61.5,46.6,62.2,44.1z
	 M35.2,58.1c-11.7,0-21.1-9.5-21.1-21.1c0-11.7,9.5-21.1,21.1-21.1c11.7,0,21.1,9.5,21.1,21.1C56.4,48.6,46.9,58.1,35.2,58.1z"/>
<path class="st1" d="M65.4,32.7c0-3.4-3.7-5.7-4.2-7.6c-0.5-2,1.5-5.9-0.2-8.7c-1.7-2.9-6-3-7.5-4.5C52,10.4,51.9,6,49,4.4
	c-2.8-1.6-6.7,0.4-8.7-0.2c-0.7-0.2-1.6-0.9-2.5-1.7C36.4,1.3,34.7,0,32.7,0c-2,0-3.7,1.3-5.1,2.5c-2.3,1.9-2.5,2-5.7,1.5
	c-1.8-0.3-3.9-0.6-5.6,0.4c-2.9,1.7-3,6-4.5,7.5c-1.5,1.5-5.8,1.6-7.5,4.5C2.7,19.2,4.7,23,4.2,25c-0.2,0.7-0.9,1.6-1.7,2.5
	C1.3,29,0,30.6,0,32.7c0,3.4,3.7,5.7,4.2,7.6c0.5,2-1.5,5.9,0.2,8.7c1.7,2.9,6,3,7.5,4.5c1.5,1.5,1.6,5.8,4.5,7.5
	c2.9,1.7,6.9-0.5,8.9,0.2l-3,21.7l-7.7,3l4.8-20.2L16.1,65L9.9,91.1l13.5-5.3l9.6,6.2l1.7-2.7l-9.4-6.1l2.8-20
	c0.9,0.7,1.9,1.5,3.1,1.8l0.6,19.5l11.7-8.3l13.3,4.7L52,56.6c1.2-3.2,1.2-3.3,4.3-4.5C58,51.5,60,50.7,61,49
	c1.6-2.8-0.4-6.7,0.2-8.7C61.7,38.4,65.4,36,65.4,32.7z M43,72.8l-8.2,5.8L34.4,65c2.3-0.9,4.1-3.2,5.7-3.8l0.8,9.3l3.2-0.3l-0.8-9
	c2.3,0.4,4.4,0.7,6.2-0.7l3.1,15.6L43,72.8z M58.1,39.5c-0.8,2.8,1,6.5,0.1,7.9c-0.9,1.5-4.9,1.8-6.9,3.8c-1.1,1.1-1.6,2.5-2.1,3.9
	c-1.3,3.5-1.6,3.6-5.2,3c-4.1-0.7-5.2-0.3-8.2,2.2c-2.9,2.4-3.3,2.4-6.2,0c-1.9-1.6-3.1-2.5-5.4-2.5c-2.3,0-5.1,1-6.3,0.3
	c-1.5-0.9-1.8-4.9-3.8-6.9C12,49.2,8,48.9,7.1,47.4c-0.9-1.5,0.9-5.1,0.1-7.9c-0.4-1.4-1.3-2.6-2.3-3.7c-0.9-1.1-1.8-2.2-1.8-3.1
	c0-1.8,3.3-4,4.1-6.8c0.8-2.8-1-6.5-0.1-7.9c0.9-1.5,4.9-1.8,6.9-3.8c2.1-2.1,2.3-6.1,3.8-6.9C19.4,6.3,23,8,25.9,7.3
	c1.4-0.4,2.6-1.3,3.7-2.3c1.1-0.9,2.2-1.8,3.1-1.8c1.8,0,4,3.3,6.8,4.1c2.8,0.8,6.5-1,7.9-0.1c1.5,0.9,1.8,4.9,3.8,6.9
	c2.1,2.1,6.1,2.3,6.9,3.8c0.9,1.5-0.9,5.1-0.1,7.9c0.7,2.8,4.1,5,4.1,6.8C62.2,34.5,58.8,36.7,58.1,39.5z M32.7,9.9
	C20.1,9.9,9.9,20.1,9.9,32.7c0,12.5,10.2,22.7,22.7,22.7c12.5,0,22.7-10.2,22.7-22.7C55.4,20.1,45.2,9.9,32.7,9.9z M32.7,52.2
	c-10.8,0-19.5-8.8-19.5-19.5c0-10.8,8.8-19.5,19.5-19.5c10.8,0,19.5,8.8,19.5,19.5C52.2,43.5,43.5,52.2,32.7,52.2z M19.5,26.6
	l-2.9-1.3c0.5-1.1,1.1-2.1,1.8-3l2.6,1.9C20.4,24.9,19.9,25.7,19.5,26.6z M18.2,32.2L15,32.1c0-1.2,0.2-2.3,0.5-3.5l3.1,0.7
	C18.4,30.3,18.2,31.2,18.2,32.2z M19.1,37.8l-3,1.1c-0.4-1.1-0.7-2.2-0.9-3.4l3.2-0.5C18.5,36,18.8,36.9,19.1,37.8z M36.3,18.6
	c-0.9-0.2-1.9-0.4-2.8-0.4l0.2-3.2c1.2,0.1,2.3,0.2,3.5,0.5L36.3,18.6z M41.4,21.1c-0.8-0.6-1.6-1.1-2.5-1.5l1.4-2.9
	c1.1,0.5,2.1,1.1,3,1.8L41.4,21.1z M22.9,22l-2.2-2.4c0.9-0.8,1.8-1.5,2.8-2.1l1.7,2.7C24.4,20.8,23.6,21.4,22.9,22z M27.8,19
	l-1.1-3c1.1-0.4,2.2-0.7,3.4-0.9l0.5,3.2C29.6,18.5,28.7,18.7,27.8,19z M20.4,40.4c0.5,0.8,1.1,1.6,1.8,2.3l-2.3,2.2
	c-0.8-0.8-1.5-1.8-2.2-2.8L20.4,40.4z M47.2,32.7h3.2c0,1.2-0.1,2.3-0.3,3.5l-3.1-0.6C47.1,34.6,47.2,33.6,47.2,32.7z M46,38.3
	l2.9,1.2c-0.5,1.1-1,2.1-1.7,3.1l-2.6-1.8C45.2,40,45.7,39.2,46,38.3z M46.4,28l3-1c0.4,1.1,0.6,2.3,0.8,3.4L47,30.8
	C46.9,29.9,46.7,28.9,46.4,28z M24.3,44.5c0.8,0.6,1.6,1,2.5,1.4l-1.3,2.9c-1.1-0.5-2.1-1.1-3.1-1.7L24.3,44.5z M45.9,21
	c0.8,0.9,1.5,1.8,2.1,2.8l-2.8,1.6c-0.5-0.8-1-1.6-1.7-2.3L45.9,21z M42.8,43l2.2,2.3c-0.8,0.8-1.8,1.6-2.7,2.2l-1.7-2.7
	C41.4,44.3,42.1,43.7,42.8,43z M29.6,46.8c0.9,0.2,1.9,0.3,2.9,0.3l-0.1,3.2c-1.2,0-2.3-0.2-3.5-0.4L29.6,46.8z M38,46.1l1.2,3
	c-1.1,0.4-2.2,0.8-3.4,1l-0.6-3.1C36.2,46.8,37.2,46.5,38,46.1z"/>
<polygon class="st2" points="32.8,24.6 35.4,29.9 41.3,30.8 37.1,34.9 38.1,40.8 32.8,38 27.5,40.8 28.5,34.9 24.3,30.8 30.2,29.9 
	"/>
</svg>
