<?xml version="1.0" encoding="utf-8"?>
<!-- Generator: Adobe Illustrator 16.0.0, SVG Export Plug-In . SVG Version: 6.00 Build 0)  -->
<!DOCTYPE svg PUBLIC "-//W3C//DTD SVG 1.1//EN" "http://www.w3.org/Graphics/SVG/1.1/DTD/svg11.dtd">
<svg version="1.1" id="Layer_1" xmlns="http://www.w3.org/2000/svg" xmlns:xlink="http://www.w3.org/1999/xlink" x="0px" y="0px"
	 width="284px" height="57px" viewBox="0 0 284 57" enable-background="new 0 0 284 57" xml:space="preserve">
<g>
	<g>
		<path fill="#222F6E" d="M168.9,43.088h-1.773c-0.289,0-0.514,0.227-0.514,0.52v1.744c0,0.287,0.225,0.504,0.514,0.504h1.773
			c0.29,0,0.517-0.217,0.517-0.504v-1.744C169.417,43.314,169.19,43.088,168.9,43.088z M178.26,41.641h3.982V28.764h-3.982V41.641z
			 M173.84,28.764c-1.035-0.143-2.872-0.143-5.531-0.143c-2.656,0-4.498,0-5.528,0.143c-1.396,0.209-2.283,0.945-2.657,2.184
			c-0.224,0.799-0.294,2.18-0.294,4.146c0,2.115,0.07,3.564,0.294,4.363c0.301,1.242,1.261,1.967,2.657,2.107
			c1.03,0.148,2.872,0.219,5.528,0.219c2.659,0,4.496-0.07,5.531-0.143c1.398-0.297,2.284-0.941,2.649-2.184
			c0.22-0.875,0.3-2.248,0.3-4.293c0-1.965-0.08-3.418-0.3-4.217C176.124,29.709,175.238,28.973,173.84,28.764z M172.953,37.209
			c-0.148,0.363-0.224,0.652-0.517,0.797c-0.216,0.217-0.593,0.289-1.104,0.357c-0.515,0.08-1.48,0.08-3.023,0.08
			c-1.62,0-2.656,0-3.244-0.08c-0.737-0.068-1.254-0.502-1.328-1.154c-0.144-0.297-0.144-0.877-0.144-1.678
			c0-1.309,0.074-2.188,0.218-2.619c0.149-0.439,0.443-0.73,0.886-0.805c0.442-0.148,1.622-0.211,3.612-0.211
			c1.771,0,2.877,0.063,3.317,0.063c0.444,0.148,0.811,0.297,0.957,0.584c0.222,0.225,0.296,0.51,0.37,0.941
			c0.076,0.447,0.076,1.096,0.076,2.047C173.029,36.332,173.029,36.912,172.953,37.209z M274.252,26.945
			c0.813,0,1.839,0.363,2.73,0.363c0.885,0,1.617-0.289,2.212-0.66c0,0-0.888-0.869-1.185-1.154c-0.367,0.217-0.953,0.43-1.544,0.43
			c-0.813,0-1.774-0.43-2.585-0.43c-0.81,0-1.688,0.217-2.279,0.504l1.172,1.234C273.148,27.02,273.738,26.945,274.252,26.945z
			 M154.376,33.344h-8.553v-4.58h-3.91v12.877h3.91v-4.66h8.553v4.66h3.91V28.764h-3.91V33.344z M164.92,27.092l3.315-0.732
			l3.317,0.732l0.366-0.799l-3.684-1.676l-3.761,1.676L164.92,27.092z M217.634,43.088h-1.777c-0.29,0-0.511,0.227-0.511,0.52v1.744
			c0,0.287,0.221,0.504,0.511,0.504h1.777c0.292,0,0.516-0.217,0.516-0.504v-1.744C218.149,43.314,217.926,43.088,217.634,43.088z
			 M214.166,36.473h9.951v-2.834h-9.951v-1.822h9.951v-3.053h-13.639v12.877h13.712v-3.129h-10.024V36.473z M225.223,32.037h5.529
			v9.604h3.91v-9.604h5.521v-3.273h-14.961V32.037z M279.416,28.764l-3.91,5.168l-3.982-5.168h-4.941l7.082,8.291v4.586h3.834
			v-4.586l6.785-8.291H279.416z M213.2,26.293l0.453,0.799l3.313-0.732l3.319,0.732l0.368-0.799l-3.688-1.676L213.2,26.293z
			 M255.603,37.129l-3.687-8.365h-6.859v12.877h3.758l-0.146-9.682h0.734l4.648,9.682h3.093l4.647-9.682h0.667l-0.076,9.682h3.689
			V28.764h-6.791L255.603,37.129z M204.73,41.641h3.979V28.764h-3.979V41.641z M195.584,38.363h-0.738l-4.499-9.6h-4.122
			l6.121,12.877h5.746l6.047-12.877h-4.132L195.584,38.363z M145.804,20.445h5.593L152.18,22h2.912l-4.487-8.855h-4.015L142.106,22
			h2.995L145.804,20.445z M148.324,15.17h0.555l1.652,3.336h-3.781L148.324,15.17z M195.699,22l0.704-1.555h5.672L202.778,22h2.993
			l-4.489-8.855h-4.011L192.713,22H195.699z M199.005,15.17h0.552l1.575,3.336h-3.783L199.005,15.17z M190.585,22l4.171-8.855
			h-2.834l-3.065,6.605h-0.478l-3.144-6.605H182.4L186.646,22H190.585z M167.367,22v-8.855h-2.674l0.078,6.605h-0.318l-4.399-6.605
			h-4.569V22h2.598v-6.602h0.24l4.48,6.602H167.367z M197.987,11.826c0.385,0.154,0.782,0.307,1.329,0.307
			c0.636,0,1.184-0.152,1.502-0.537c0.152-0.158,0.313-0.467,0.392-0.781h-0.792c-0.073,0.156-0.231,0.314-0.393,0.393
			c-0.159,0.08-0.396,0.08-0.709,0.08c-0.388,0-0.705-0.08-0.862-0.158c-0.156,0-0.233-0.158-0.315-0.314h-0.79
			C197.431,11.287,197.666,11.596,197.987,11.826z M213.482,22h4.489v-8.855h-2.601v6.605h-0.234l-4.484-6.605h-4.49V22h2.598
			l-0.073-6.602H209L213.482,22z M179.802,22v-8.855h-2.677v3.107h-5.899v-3.107h-2.675V22h2.675v-3.264h5.899V22H179.802z"/>
	</g>
	<g>
		<g>
			<path fill="#222F6E" d="M29.655,37.684L47.77,0.518H34.582L23.649,25.715h-0.12L12.706,0.518H-0.119L20,42.43
				C23.287,40.455,26.474,38.836,29.655,37.684z M60.24,31.514c9.996,0.352,22.359,4.305,31.414,6.049
				c2.24,0.467,4.237,0.814,6.004,0.814c3.755,0.109,19.52-0.814,19.52-14.396c0-10.928-18.697-9.412-25.523-11.959
				c-1.532-0.59-2.478-1.4-2.478-2.561c0-1.736,0.945-2.781,2.478-3.488c1.296-0.459,2.94-0.697,4.585-0.697
				c4.592,0,7.064,1.75,7.412,5.346h12.238c-0.586-8.135-9.523-11.146-18.361-11.146c-2.226,0-4.106,0.117-5.874,0.348
				c-7.532,0.807-11.54,3.363-13.418,6.15V0.518H66.002v20.559c0,6.268-1.997,8.363-8.243,8.363c-6.351,0-8.231-2.096-8.231-8.363
				V5.973L38.238,28.736c0,2.318,1.173,4.057,4.118,5.34C47.522,32.328,53.53,31.289,60.24,31.514z M78.236,15.506
				c2.476,3.822,8,5.096,13.418,5.793c6.702,1.049,13.288,1.277,13.288,5c0,2.547-2.354,4.063-7.877,4.063
				c-1.763,0-3.758-0.125-5.411-0.709c-2.005-0.689-3.527-2.084-3.527-4.988h-9.891V15.506z"/>
			<path fill-rule="evenodd" clip-rule="evenodd" fill="#BA141A" d="M105.892,40.809c-17.183,6.967-54.125-24.734-93.305,15.668
				h14.59C51.995,27.809,79.3,45.34,98.833,44.521c9.055-0.348,13.769-7.545,13.646-7.545
				C112.368,36.977,110.479,39.064,105.892,40.809z M36.472,56.477h13.166c1.541-3.018,8.121-11.955,34.718-10.682
				c7.648,0.355,8.474,0,8.474,0s-3.758-0.342-6.934-0.926C52.947,38.951,39.539,52.648,36.472,56.477z M57.882,56.477h12.354
				c1.767-7.068,18.473-8.938,18.473-8.938S66.704,46.5,57.882,56.477z"/>
		</g>
	</g>
</g>
</svg>
