<?xml version="1.0" encoding="utf-8"?>
<!-- Generator: Adobe Illustrator 16.0.0, SVG Export Plug-In . SVG Version: 6.00 Build 0)  -->
<!DOCTYPE svg PUBLIC "-//W3C//DTD SVG 1.1//EN" "http://www.w3.org/Graphics/SVG/1.1/DTD/svg11.dtd">
<svg version="1.1" id="Layer_1" xmlns="http://www.w3.org/2000/svg" xmlns:xlink="http://www.w3.org/1999/xlink" x="0px" y="0px"
	 width="198px" height="99px" viewBox="0 0 198 99" enable-background="new 0 0 198 99" xml:space="preserve">
<g>
	<g>
		<g>
			<path fill="#222F6E" d="M63.61,50.801L85.47,5.95H69.556L56.363,36.356h-0.146L43.157,5.95H27.681l24.278,50.578
				C55.926,54.145,59.771,52.19,63.61,50.801z M100.519,43.354c12.063,0.425,26.981,5.196,37.908,7.3
				c2.703,0.563,5.112,0.983,7.245,0.983c4.531,0.132,23.555-0.983,23.555-17.372c0-13.188-22.563-11.36-30.8-14.432
				c-1.85-0.712-2.989-1.689-2.989-3.089c0-2.097,1.14-3.358,2.989-4.209c1.563-0.555,3.549-0.843,5.532-0.843
				c5.542,0,8.525,2.113,8.945,6.452h14.769c-0.707-9.816-11.492-13.452-22.158-13.452c-2.686,0-4.955,0.141-7.088,0.42
				c-9.089,0.974-13.926,4.058-16.192,7.423V5.95h-14.764v24.81c0,7.563-2.409,10.092-9.946,10.092
				c-7.664,0-9.934-2.529-9.934-10.092V12.534L73.968,40.003c0,2.796,1.415,4.896,4.969,6.443
				C85.172,44.336,92.422,43.083,100.519,43.354z M122.234,24.037c2.988,4.612,9.654,6.149,16.192,6.991
				c8.087,1.265,16.035,1.541,16.035,6.032c0,3.075-2.842,4.902-9.506,4.902c-2.127,0-4.534-0.15-6.529-0.854
				c-2.419-0.833-4.257-2.517-4.257-6.02h-11.936V24.037z"/>
			<path fill-rule="evenodd" clip-rule="evenodd" fill="#BA141A" d="M155.606,54.57c-20.734,8.408-65.314-29.847-112.593,18.906
				H60.62c29.948-34.594,62.897-13.438,86.47-14.426c10.927-0.42,16.614-9.105,16.467-9.105
				C163.423,49.946,161.144,52.467,155.606,54.57z M71.836,73.477h15.888c1.859-3.64,9.801-14.426,41.896-12.889
				c9.229,0.428,10.225,0,10.225,0s-4.534-0.414-8.367-1.117C91.718,52.328,75.537,68.857,71.836,73.477z M97.672,73.477h14.909
				c2.131-8.529,22.291-10.785,22.291-10.785S108.318,61.438,97.672,73.477z"/>
		</g>
	</g>
	<g>
		<path fill="#222F6E" d="M3.617,82.582h4.315l4.044,8.153H9.044l-0.776-1.36h-4.98l-0.779,1.36h-2.934L3.617,82.582z M5.971,84.417
			H5.579l-1.354,2.845h3.095L5.971,84.417z"/>
		<path fill="#222F6E" d="M24.686,90.747h-4.111l-4.306-6.04c-0.045-0.094-0.09-0.189-0.141-0.292
			c-0.052-0.104-0.102-0.155-0.154-0.155c0,0.076,0.005,0.15,0.013,0.23c0.129,0.408,0.194,0.615,0.194,0.623v5.634h-2.516v-8.153
			h4.111l4.294,6.029c0.048,0.1,0.096,0.199,0.144,0.297c0.049,0.1,0.101,0.148,0.155,0.148c-0.006-0.074-0.01-0.152-0.01-0.229
			c-0.063-0.204-0.123-0.416-0.185-0.631v-5.615h2.511V90.747z"/>
		<path fill="#222F6E" d="M26.888,82.594h2.516v2.855h5.42v-2.855h2.516v8.153h-2.516v-3.185h-5.42v3.185h-2.516V82.594z"/>
		<path fill="#222F6E" d="M50.906,88.588h0.113h0.117l3.083-6.006h2.833l-4.126,8.153h-3.815l-4.12-8.153h2.831L50.906,88.588z"/>
		<path fill="#222F6E" d="M61.597,82.582h4.316l4.045,8.153h-2.934l-0.775-1.36h-4.98l-0.781,1.36h-2.932L61.597,82.582z
			 M66.143,80.531v0.06c0,0.48-0.122,0.847-0.368,1.103c-0.245,0.254-0.616,0.381-1.115,0.381h-1.801
			c-0.993,0-1.49-0.512-1.49-1.539h0.755c0,0.409,0.296,0.613,0.89,0.613h1.523c0.275,0,0.474-0.025,0.591-0.077
			c0.183-0.083,0.273-0.242,0.273-0.48c0-0.021-0.002-0.042-0.006-0.06H66.143z M63.951,84.417h-0.391l-1.354,2.845h3.095
			L63.951,84.417z"/>
		<path fill="#222F6E" d="M82.667,90.747h-4.111l-4.306-6.04c-0.044-0.094-0.091-0.189-0.141-0.292
			c-0.052-0.104-0.101-0.155-0.154-0.155c0,0.076,0.004,0.15,0.013,0.23c0.129,0.408,0.193,0.615,0.193,0.623v5.634h-2.516v-8.153
			h4.111l4.295,6.029c0.047,0.1,0.096,0.199,0.144,0.297c0.048,0.1,0.101,0.148,0.156,0.148c-0.008-0.074-0.012-0.152-0.012-0.229
			c-0.062-0.204-0.123-0.416-0.183-0.631v-5.615h2.51V90.747z"/>
		<path fill="#222F6E" d="M90.779,82.594h2.515v2.855h5.42v-2.855h2.516v8.153h-2.516v-3.185h-5.42v3.185h-2.515V82.594z"/>
		<path fill="#222F6E" d="M114.325,86.659c0,1.983-0.24,3.172-0.719,3.563c-0.518,0.418-2.077,0.626-4.68,0.626
			c-1.904,0-3.152-0.068-3.747-0.201c-0.747-0.174-1.22-0.556-1.417-1.143c-0.151-0.45-0.229-1.399-0.229-2.845
			c0-1.989,0.237-3.178,0.71-3.564c0.517-0.427,2.077-0.642,4.684-0.642c2.595,0,4.151,0.211,4.667,0.633
			C114.081,83.478,114.325,84.67,114.325,86.659z M106.049,86.659c0,1.041,0.121,1.647,0.36,1.821c0.239,0.173,1.08,0.26,2.518,0.26
			c1.446,0,2.289-0.087,2.529-0.26c0.241-0.174,0.36-0.78,0.36-1.821c0-1.054-0.119-1.665-0.36-1.835
			c-0.24-0.17-1.079-0.258-2.518-0.258c-1.447,0-2.29,0.088-2.529,0.258S106.049,85.605,106.049,86.659z M106.088,81.41l2.839-1.537
			l2.844,1.537l-0.316,0.749l-2.527-0.652l-2.526,0.652L106.088,81.41z M107.989,91.266h1.881v1.666h-1.881V91.266z"/>
		<path fill="#222F6E" d="M115.863,90.747v-8.153h2.515v8.153H115.863z"/>
		<path fill="#222F6E" d="M131.39,88.588h0.112h0.117l3.084-6.006h2.832l-4.126,8.153h-3.815l-4.12-8.153h2.83L131.39,88.588z"/>
		<path fill="#222F6E" d="M138.443,90.747v-8.153h2.517v8.153H138.443z"/>
		<path fill="#222F6E" d="M142.62,90.735V82.57h8.796v1.976h-6.28v1.132h5.996v1.963h-5.996v1.12h6.28v1.975H142.62z M144.177,81.41
			l2.838-1.537l2.844,1.537l-0.316,0.749l-2.527-0.652l-2.524,0.652L144.177,81.41z M146.08,91.266h1.878v1.666h-1.878V91.266z"/>
		<path fill="#222F6E" d="M153.651,84.684V82.57h9.721v2.113h-3.598v6.052h-2.515v-6.052H153.651z"/>
		<path fill="#222F6E" d="M175.808,82.594l2.147,4.577c0.022,0.052,0.051,0.229,0.085,0.531c0.037,0.3,0.074,0.45,0.109,0.45
			c0.029,0,0.059-0.088,0.084-0.268c0.025-0.177,0.063-0.416,0.111-0.714l2.148-4.577h4.282v8.153h-2.517v-5.701
			c0-0.1,0.02-0.222,0.06-0.364c0.039-0.143,0.058-0.232,0.058-0.265c0-0.06-0.022-0.089-0.07-0.089
			c-0.031,0-0.068,0.043-0.112,0.131c-0.046,0.087-0.084,0.17-0.116,0.248l-2.9,6.04h-2.058l-3.131-6.063
			c-0.044-0.1-0.085-0.188-0.12-0.263c-0.039-0.077-0.074-0.115-0.107-0.115c-0.045,0-0.066,0.026-0.066,0.078
			c0,0.009,0.025,0.134,0.076,0.38c0.027,0.107,0.041,0.193,0.041,0.262v5.722h-2.516v-8.153H175.808z"/>
		<path fill="#222F6E" d="M189.556,82.582l2.102,2.672c0.115,0.145,0.194,0.32,0.237,0.523c0.042,0.204,0.078,0.387,0.11,0.547
			c0.013,0,0.039-0.135,0.076-0.404c0.036-0.27,0.124-0.492,0.262-0.666l2.104-2.672h3.433l-4.655,5.332v2.821h-2.517v-2.821
			l-4.588-5.332H189.556z M193.977,80.367c-0.007,0.18-0.028,0.297-0.067,0.353c-0.037,0.056-0.109,0.083-0.221,0.083
			c-0.18,0-0.563-0.083-1.15-0.25c-0.598-0.168-0.961-0.262-1.087-0.285c-0.171-0.041-0.346-0.062-0.524-0.062
			c-0.42,0-0.743,0.159-0.971,0.476c-0.156,0.227-0.238,0.59-0.25,1.093h1.008c0.008-0.291,0.136-0.435,0.379-0.435
			c0.191,0,0.624,0.096,1.3,0.288c0.714,0.206,1.229,0.308,1.546,0.308c0.352,0,0.629-0.152,0.831-0.458
			c0.088-0.123,0.146-0.257,0.168-0.406c0.028-0.142,0.045-0.377,0.049-0.704H193.977z"/>
	</g>
</g>
</svg>
