<svg xmlns="http://www.w3.org/2000/svg" xmlns:xlink="http://www.w3.org/1999/xlink" viewBox="0 0 1043.31 398.45"><defs><style>.cls-1{isolation:isolate;}.cls-2{fill:#e37200;}.cls-3{fill:#f84616;}.cls-4{fill:#565292;}.cls-5{font-size:14px;fill:#fff;font-family:Roboto-Bold, Roboto;font-weight:700;}.cls-6{letter-spacing:-0.06em;}.cls-7{letter-spacing:-0.02em;}.cls-8{fill:url(#linear-gradient);}.cls-9{fill:url(#linear-gradient-2);}.cls-10{fill:url(#radial-gradient);}.cls-11{fill:url(#radial-gradient-2);}.cls-12{fill:url(#linear-gradient-3);}.cls-13,.cls-30,.cls-43,.cls-55,.cls-64,.cls-73,.cls-84,.cls-93{opacity:0.5;}.cls-13,.cls-30,.cls-31,.cls-43,.cls-55,.cls-64,.cls-73,.cls-84,.cls-93{mix-blend-mode:screen;}.cls-13{fill:url(#linear-gradient-4);}.cls-14{fill:url(#linear-gradient-5);}.cls-15{fill:url(#linear-gradient-6);}.cls-16{fill:url(#radial-gradient-3);}.cls-17{letter-spacing:-0.01em;}.cls-18{letter-spacing:-0.14em;}.cls-19{letter-spacing:0.01em;}.cls-20{letter-spacing:-0.03em;}.cls-21{letter-spacing:-0.01em;}.cls-22{letter-spacing:-0.01em;}.cls-23{letter-spacing:-0.1em;}.cls-24{letter-spacing:-0.01em;}.cls-25{fill:url(#linear-gradient-7);}.cls-26{fill:url(#linear-gradient-8);}.cls-27{fill:url(#radial-gradient-5);}.cls-28{fill:url(#radial-gradient-6);}.cls-29{fill:url(#linear-gradient-9);}.cls-30{fill:url(#linear-gradient-10);}.cls-31{fill:url(#radial-gradient-7);}.cls-32{fill:url(#linear-gradient-11);}.cls-33{fill:url(#linear-gradient-12);}.cls-34{fill:url(#linear-gradient-13);}.cls-35{fill:url(#linear-gradient-14);}.cls-36{fill:url(#linear-gradient-15);}.cls-37{fill:url(#radial-gradient-8);}.cls-38{fill:url(#linear-gradient-16);}.cls-39{fill:url(#linear-gradient-17);}.cls-40{fill:url(#radial-gradient-13);}.cls-41{fill:url(#radial-gradient-14);}.cls-42{fill:url(#linear-gradient-18);}.cls-43{fill:url(#linear-gradient-19);}.cls-44{fill:url(#linear-gradient-20);}.cls-45{fill:url(#linear-gradient-21);}.cls-46{fill:url(#linear-gradient-22);}.cls-47{fill:url(#linear-gradient-23);}.cls-48{fill:url(#linear-gradient-24);}.cls-49{fill:url(#radial-gradient-15);}.cls-50{fill:url(#linear-gradient-25);}.cls-51{fill:url(#linear-gradient-26);}.cls-52{fill:url(#radial-gradient-20);}.cls-53{fill:url(#radial-gradient-21);}.cls-54{fill:url(#linear-gradient-27);}.cls-55{fill:url(#linear-gradient-28);}.cls-56{fill:url(#linear-gradient-29);}.cls-57{fill:url(#linear-gradient-30);}.cls-58{fill:url(#radial-gradient-22);}.cls-59{fill:url(#linear-gradient-31);}.cls-60{fill:url(#linear-gradient-32);}.cls-61{fill:url(#radial-gradient-24);}.cls-62{fill:url(#radial-gradient-25);}.cls-63{fill:url(#linear-gradient-33);}.cls-64{fill:url(#linear-gradient-34);}.cls-65{fill:url(#linear-gradient-35);}.cls-66{fill:url(#linear-gradient-36);}.cls-67{fill:url(#radial-gradient-26);}.cls-68{fill:url(#linear-gradient-37);}.cls-69{fill:url(#linear-gradient-38);}.cls-70{fill:url(#radial-gradient-28);}.cls-71{fill:url(#radial-gradient-29);}.cls-72{fill:url(#linear-gradient-39);}.cls-73{fill:url(#linear-gradient-40);}.cls-74{fill:url(#linear-gradient-41);}.cls-75{fill:url(#linear-gradient-42);}.cls-76{fill:url(#linear-gradient-43);}.cls-77{fill:url(#radial-gradient-30);}.cls-78{fill:url(#radial-gradient-32);}.cls-79{fill:url(#linear-gradient-44);}.cls-80{fill:url(#linear-gradient-45);}.cls-81{fill:url(#radial-gradient-33);}.cls-82{fill:url(#radial-gradient-34);}.cls-83{fill:url(#linear-gradient-46);}.cls-84{fill:url(#linear-gradient-47);}.cls-85{fill:url(#linear-gradient-48);}.cls-86{fill:url(#linear-gradient-49);}.cls-87{fill:url(#radial-gradient-35);}.cls-88{fill:url(#linear-gradient-50);}.cls-89{fill:url(#linear-gradient-51);}.cls-90{fill:url(#radial-gradient-37);}.cls-91{fill:url(#radial-gradient-38);}.cls-92{fill:url(#linear-gradient-52);}.cls-93{fill:url(#linear-gradient-53);}.cls-94{fill:url(#linear-gradient-54);}.cls-95{fill:url(#linear-gradient-55);}.cls-96{fill:url(#linear-gradient-56);}.cls-97{fill:url(#radial-gradient-39);}.cls-98{fill:url(#radial-gradient-41);}</style><linearGradient id="linear-gradient" x1="223.63" y1="228.12" x2="158.48" y2="293.28" gradientUnits="userSpaceOnUse"><stop offset="0" stop-color="#ecbc47"/><stop offset="0.12" stop-color="#f7d975"/><stop offset="0.21" stop-color="#ffec94"/><stop offset="0.67" stop-color="#eca34c"/><stop offset="1" stop-color="#ecbc47"/></linearGradient><linearGradient id="linear-gradient-2" x1="163.14" y1="236.3" x2="224.4" y2="297.56" gradientUnits="userSpaceOnUse"><stop offset="0" stop-color="#ecbc47"/><stop offset="0.1" stop-color="#eacc6a"/><stop offset="0.21" stop-color="#e9da89"/><stop offset="0.67" stop-color="#eca34c"/><stop offset="1" stop-color="#ecbc47"/></linearGradient><radialGradient id="radial-gradient" cx="-987.63" cy="-2414.54" r="57.75" gradientTransform="translate(1586.12 -1903) rotate(-125.15)" gradientUnits="userSpaceOnUse"><stop offset="0" stop-color="#304053"/><stop offset="0.23" stop-color="#2c3c4f"/><stop offset="0.52" stop-color="#0d1d30"/><stop offset="1" stop-color="#060d29"/></radialGradient><radialGradient id="radial-gradient-2" cx="169.86" cy="238.94" r="52.8" gradientTransform="translate(10.16 -7.03) rotate(2.19)" xlink:href="#radial-gradient"/><linearGradient id="linear-gradient-3" x1="168.05" y1="241.21" x2="220.82" y2="293.98" gradientTransform="translate(135.67 -56.67) rotate(26.26)" xlink:href="#linear-gradient"/><linearGradient id="linear-gradient-4" x1="169.96" y1="243.12" x2="208.64" y2="281.8" gradientUnits="userSpaceOnUse"><stop offset="0" stop-color="#ecbc47"/><stop offset="0.12" stop-color="#f7d975"/><stop offset="0.21" stop-color="#ffec94"/><stop offset="0.45" stop-color="#a0621e"/><stop offset="0.67" stop-color="#eca34c"/><stop offset="1" stop-color="#ecbc47"/></linearGradient><linearGradient id="linear-gradient-5" x1="174.11" y1="261.63" x2="190.31" y2="261.63" xlink:href="#linear-gradient"/><linearGradient id="linear-gradient-6" x1="192.37" y1="261.62" x2="199.9" y2="261.62" xlink:href="#linear-gradient"/><radialGradient id="radial-gradient-3" cx="178.8" cy="253.26" r="31.53" gradientUnits="userSpaceOnUse"><stop offset="0" stop-color="#415369"/><stop offset="0.39" stop-color="#2c3c4f"/><stop offset="0.71" stop-color="#0d1d30"/><stop offset="1" stop-color="#060d29"/></radialGradient><linearGradient id="linear-gradient-7" x1="88.57" y1="266.65" x2="23.42" y2="331.8" xlink:href="#linear-gradient"/><linearGradient id="linear-gradient-8" x1="28.08" y1="274.82" x2="89.34" y2="336.08" xlink:href="#linear-gradient-2"/><radialGradient id="radial-gradient-5" cx="-852.57" cy="-2453.07" r="57.75" gradientTransform="translate(1560.32 -1776.22) rotate(-125.15)" xlink:href="#radial-gradient"/><radialGradient id="radial-gradient-6" cx="34.8" cy="277.46" r="52.8" gradientTransform="translate(11.53 -1.85) rotate(2.19)" xlink:href="#radial-gradient"/><linearGradient id="linear-gradient-9" x1="32.99" y1="279.73" x2="85.76" y2="332.5" gradientTransform="translate(138.77 7.07) rotate(26.26)" xlink:href="#linear-gradient"/><linearGradient id="linear-gradient-10" x1="34.9" y1="281.64" x2="73.58" y2="320.32" xlink:href="#linear-gradient-4"/><radialGradient id="radial-gradient-7" cx="35.26" cy="275.19" r="86.33" gradientUnits="userSpaceOnUse"><stop offset="0" stop-color="#ffefcf"/><stop offset="0.05" stop-color="#ffc74c"/><stop offset="0.14" stop-color="#a0621e"/><stop offset="0.16" stop-color="#965c1c"/><stop offset="0.25" stop-color="#6e4315"/><stop offset="0.34" stop-color="#4c2f0e"/><stop offset="0.44" stop-color="#301e09"/><stop offset="0.54" stop-color="#1b1005"/><stop offset="0.66" stop-color="#0c0702"/><stop offset="0.8" stop-color="#030201"/><stop offset="1"/></radialGradient><linearGradient id="linear-gradient-11" x1="44.47" y1="288.43" x2="51.98" y2="288.43" xlink:href="#linear-gradient"/><linearGradient id="linear-gradient-12" x1="53.53" y1="289.7" x2="57.28" y2="289.7" xlink:href="#linear-gradient"/><linearGradient id="linear-gradient-13" x1="58.02" y1="289.78" x2="64.6" y2="289.78" xlink:href="#linear-gradient"/><linearGradient id="linear-gradient-14" x1="39.12" y1="305.5" x2="55.33" y2="305.5" xlink:href="#linear-gradient"/><linearGradient id="linear-gradient-15" x1="57.38" y1="305.48" x2="64.91" y2="305.48" xlink:href="#linear-gradient"/><radialGradient id="radial-gradient-8" cx="45.91" cy="288" r="41.09" xlink:href="#radial-gradient-3"/><linearGradient id="linear-gradient-16" x1="356.23" y1="187.69" x2="291.08" y2="252.84" xlink:href="#linear-gradient"/><linearGradient id="linear-gradient-17" x1="295.73" y1="195.87" x2="357" y2="257.13" xlink:href="#linear-gradient-2"/><radialGradient id="radial-gradient-13" cx="-1120.23" cy="-2374.11" r="57.75" gradientTransform="translate(1609.32 -2028.57) rotate(-125.15)" xlink:href="#radial-gradient"/><radialGradient id="radial-gradient-14" cx="302.46" cy="198.5" r="52.8" gradientTransform="translate(8.71 -12.12) rotate(2.19)" xlink:href="#radial-gradient"/><linearGradient id="linear-gradient-18" x1="300.65" y1="200.78" x2="353.41" y2="253.55" gradientTransform="translate(131.46 -119.51) rotate(26.26)" xlink:href="#linear-gradient"/><linearGradient id="linear-gradient-19" x1="302.55" y1="202.69" x2="341.23" y2="241.37" xlink:href="#linear-gradient-4"/><linearGradient id="linear-gradient-20" x1="312.01" y1="210.02" x2="319.51" y2="210.02" xlink:href="#linear-gradient"/><linearGradient id="linear-gradient-21" x1="321.06" y1="211.29" x2="324.81" y2="211.29" xlink:href="#linear-gradient"/><linearGradient id="linear-gradient-22" x1="325.55" y1="211.36" x2="332.13" y2="211.36" xlink:href="#linear-gradient"/><linearGradient id="linear-gradient-23" x1="306.66" y1="227.08" x2="322.86" y2="227.08" xlink:href="#linear-gradient"/><linearGradient id="linear-gradient-24" x1="323.77" y1="226.96" x2="335.96" y2="226.96" xlink:href="#linear-gradient"/><radialGradient id="radial-gradient-15" cx="312.35" cy="205.86" r="36.77" xlink:href="#radial-gradient-3"/><linearGradient id="linear-gradient-25" x1="487.12" y1="149.77" x2="421.97" y2="214.92" xlink:href="#linear-gradient"/><linearGradient id="linear-gradient-26" x1="426.63" y1="157.95" x2="487.89" y2="219.21" xlink:href="#linear-gradient-2"/><radialGradient id="radial-gradient-20" cx="-1251.13" cy="-2336.19" r="57.75" gradientTransform="translate(1633.85 -2151.68) rotate(-125.15)" xlink:href="#radial-gradient"/><radialGradient id="radial-gradient-21" cx="433.35" cy="160.59" r="52.8" gradientTransform="translate(7.36 -17.15) rotate(2.19)" xlink:href="#radial-gradient"/><linearGradient id="linear-gradient-27" x1="431.54" y1="162.86" x2="484.31" y2="215.63" gradientTransform="translate(128.19 -181.34) rotate(26.26)" xlink:href="#linear-gradient"/><linearGradient id="linear-gradient-28" x1="433.45" y1="164.77" x2="472.13" y2="203.45" xlink:href="#linear-gradient-4"/><linearGradient id="linear-gradient-29" x1="437.56" y1="183.93" x2="453.77" y2="183.93" xlink:href="#linear-gradient"/><linearGradient id="linear-gradient-30" x1="454.67" y1="183.81" x2="466.86" y2="183.81" xlink:href="#linear-gradient"/><radialGradient id="radial-gradient-22" cx="443.27" cy="172.39" r="29.9" xlink:href="#radial-gradient-3"/><linearGradient id="linear-gradient-31" x1="617.19" y1="112.31" x2="552.04" y2="177.46" xlink:href="#linear-gradient"/><linearGradient id="linear-gradient-32" x1="556.7" y1="120.49" x2="617.96" y2="181.75" xlink:href="#linear-gradient-2"/><radialGradient id="radial-gradient-24" cx="-1381.2" cy="-2298.73" r="57.75" gradientTransform="translate(1658.41 -2273.93) rotate(-125.15)" xlink:href="#radial-gradient"/><radialGradient id="radial-gradient-25" cx="563.42" cy="123.12" r="52.8" gradientTransform="translate(6.02 -22.14) rotate(2.19)" xlink:href="#radial-gradient"/><linearGradient id="linear-gradient-33" x1="561.61" y1="125.4" x2="614.38" y2="178.17" gradientTransform="translate(125.04 -242.76) rotate(26.26)" xlink:href="#linear-gradient"/><linearGradient id="linear-gradient-34" x1="563.52" y1="127.31" x2="602.2" y2="165.99" xlink:href="#linear-gradient-4"/><linearGradient id="linear-gradient-35" x1="570.85" y1="145.44" x2="583.7" y2="145.44" xlink:href="#linear-gradient"/><linearGradient id="linear-gradient-36" x1="586.81" y1="145.43" x2="594.34" y2="145.43" xlink:href="#linear-gradient"/><radialGradient id="radial-gradient-26" cx="571.45" cy="137.45" r="25.86" xlink:href="#radial-gradient-3"/><linearGradient id="linear-gradient-37" x1="748.87" y1="71.99" x2="683.72" y2="137.14" xlink:href="#linear-gradient"/><linearGradient id="linear-gradient-38" x1="688.38" y1="80.17" x2="749.64" y2="141.43" xlink:href="#linear-gradient-2"/><radialGradient id="radial-gradient-28" cx="-1512.88" cy="-2258.41" r="57.75" gradientTransform="translate(1681.31 -2398.7) rotate(-125.15)" xlink:href="#radial-gradient"/><radialGradient id="radial-gradient-29" cx="695.1" cy="82.8" r="52.8" gradientTransform="translate(4.58 -27.2) rotate(2.19)" xlink:href="#radial-gradient"/><linearGradient id="linear-gradient-39" x1="693.29" y1="85.08" x2="746.06" y2="137.84" gradientTransform="translate(120.79 -305.18) rotate(26.26)" xlink:href="#linear-gradient"/><linearGradient id="linear-gradient-40" x1="695.2" y1="86.98" x2="733.88" y2="125.67" xlink:href="#linear-gradient-4"/><linearGradient id="linear-gradient-41" x1="697.91" y1="106.35" x2="710.75" y2="106.35" xlink:href="#linear-gradient"/><linearGradient id="linear-gradient-42" x1="713.86" y1="106.34" x2="721.39" y2="106.34" xlink:href="#linear-gradient"/><linearGradient id="linear-gradient-43" x1="723.88" y1="101.64" x2="734.06" y2="101.64" xlink:href="#linear-gradient"/><radialGradient id="radial-gradient-30" cx="699.04" cy="98.5" r="34.92" xlink:href="#radial-gradient-3"/><radialGradient id="radial-gradient-32" cx="700.19" cy="94.28" r="30.02" xlink:href="#radial-gradient-3"/><linearGradient id="linear-gradient-44" x1="884.39" y1="41.16" x2="819.24" y2="106.31" xlink:href="#linear-gradient"/><linearGradient id="linear-gradient-45" x1="823.89" y1="49.34" x2="885.15" y2="110.6" xlink:href="#linear-gradient-2"/><radialGradient id="radial-gradient-33" cx="-1648.39" cy="-2227.58" r="57.75" gradientTransform="translate(1713.59 -2522.58) rotate(-125.15)" xlink:href="#radial-gradient"/><radialGradient id="radial-gradient-34" cx="830.62" cy="51.97" r="52.8" gradientTransform="translate(3.5 -32.39) rotate(2.19)" xlink:href="#radial-gradient"/><linearGradient id="linear-gradient-46" x1="828.8" y1="54.25" x2="881.57" y2="107.01" gradientTransform="translate(121.14 -368.32) rotate(26.26)" xlink:href="#linear-gradient"/><linearGradient id="linear-gradient-47" x1="830.71" y1="56.15" x2="869.39" y2="94.83" xlink:href="#linear-gradient-4"/><linearGradient id="linear-gradient-48" x1="836.79" y1="75.18" x2="849.63" y2="75.18" xlink:href="#linear-gradient"/><linearGradient id="linear-gradient-49" x1="851.59" y1="75.06" x2="863.78" y2="75.06" xlink:href="#linear-gradient"/><radialGradient id="radial-gradient-35" cx="837.98" cy="66.65" r="30.77" xlink:href="#radial-gradient-3"/><linearGradient id="linear-gradient-50" x1="1019.16" y1="4.4" x2="954.01" y2="69.55" xlink:href="#linear-gradient"/><linearGradient id="linear-gradient-51" x1="958.67" y1="12.58" x2="1019.93" y2="73.84" xlink:href="#linear-gradient-2"/><radialGradient id="radial-gradient-37" cx="-1783.16" cy="-2190.82" r="57.75" gradientTransform="translate(1740.72 -2648.37) rotate(-125.15)" xlink:href="#radial-gradient"/><radialGradient id="radial-gradient-38" cx="965.39" cy="15.22" r="52.8" gradientTransform="translate(2.2 -37.56) rotate(2.19)" xlink:href="#radial-gradient"/><linearGradient id="linear-gradient-52" x1="963.58" y1="17.49" x2="1016.34" y2="70.26" gradientTransform="translate(118.79 -431.75) rotate(26.26)" xlink:href="#linear-gradient"/><linearGradient id="linear-gradient-53" x1="965.48" y1="19.4" x2="1004.17" y2="58.08" xlink:href="#linear-gradient-4"/><linearGradient id="linear-gradient-54" x1="967.2" y1="38.81" x2="981.31" y2="38.81" xlink:href="#linear-gradient"/><linearGradient id="linear-gradient-55" x1="984.07" y1="38.79" x2="991.6" y2="38.79" xlink:href="#linear-gradient"/><linearGradient id="linear-gradient-56" x1="995.7" y1="33.63" x2="1005.89" y2="33.63" xlink:href="#linear-gradient"/><radialGradient id="radial-gradient-39" cx="967.78" cy="28.86" r="42.6" xlink:href="#radial-gradient-3"/><radialGradient id="radial-gradient-41" cx="971.94" cy="26.3" r="30.02" xlink:href="#radial-gradient-3"/></defs><title>Asset 1</title><g class="cls-1"><g id="Layer_2" data-name="Layer 2"><g id="Layer_1-2" data-name="Layer 1"><rect class="cls-2" y="352.62" width="109.46" height="45.83"/><rect class="cls-2" x="134.71" y="315.73" width="109.46" height="82.72"/><rect class="cls-2" x="266.97" y="276.88" width="109.46" height="121.57"/><rect class="cls-3" x="399.23" y="238.03" width="109.46" height="160.42"/><rect class="cls-3" x="531.49" y="199.18" width="109.46" height="199.27"/><rect class="cls-3" x="663.75" y="160.33" width="109.97" height="238.12"/><rect class="cls-4" x="796.28" y="129.56" width="109.97" height="268.89"/><rect class="cls-4" x="933.34" y="93.57" width="109.97" height="304.88"/><text class="cls-5" transform="translate(20.46 380.74)">S<tspan class="cls-6" x="8.61" y="0">T</tspan><tspan x="16.45" y="0">A</tspan><tspan class="cls-7" x="25.87" y="0">R</tspan><tspan x="34.46" y="0">TERS</tspan></text><path class="cls-8" d="M201.61,298.05c-1.34,3.16-4.58,3.94-7.2,1.72a7.5,7.5,0,0,0-9.46.1,4.34,4.34,0,0,1-7.24-1.58,7.48,7.48,0,0,0-8.56-4c-3.31.92-5.94-1.13-5.84-4.56a7.49,7.49,0,0,0-6-7.33c-3.38-.61-4.86-3.6-3.28-6.65a7.49,7.49,0,0,0-2.2-9.19,4.35,4.35,0,0,1-.08-7.41,7.49,7.49,0,0,0,2-9.24c-1.63-3-.22-6,3.15-6.71a7.51,7.51,0,0,0,5.82-7.45,4.34,4.34,0,0,1,5.74-4.68,7.5,7.5,0,0,0,8.48-4.19,4.35,4.35,0,0,1,7.21-1.72,7.48,7.48,0,0,0,9.45-.1,4.35,4.35,0,0,1,7.24,1.57,7.5,7.5,0,0,0,8.56,4c3.31-.92,5.94,1.13,5.84,4.56a7.5,7.5,0,0,0,6,7.33,4.36,4.36,0,0,1,3.28,6.65,7.47,7.47,0,0,0,2.2,9.19,4.35,4.35,0,0,1,.07,7.41,7.49,7.49,0,0,0-2,9.24,4.35,4.35,0,0,1-3.15,6.71,7.5,7.5,0,0,0-5.82,7.45,4.34,4.34,0,0,1-5.74,4.68A7.51,7.51,0,0,0,201.61,298.05Z"/><path class="cls-9" d="M201.33,297.23a4.25,4.25,0,0,1-7,1.69,7.32,7.32,0,0,0-9.24.09,4.25,4.25,0,0,1-7.07-1.54,7.32,7.32,0,0,0-8.37-3.92,4.25,4.25,0,0,1-5.7-4.46,7.33,7.33,0,0,0-5.84-7.16,4.25,4.25,0,0,1-3.2-6.49,7.34,7.34,0,0,0-2.15-9,4.25,4.25,0,0,1-.08-7.24,7.31,7.31,0,0,0,2-9,4.25,4.25,0,0,1,3.07-6.56,7.32,7.32,0,0,0,5.69-7.28,4.24,4.24,0,0,1,5.61-4.57,7.33,7.33,0,0,0,8.29-4.09,4.25,4.25,0,0,1,7-1.69,7.3,7.3,0,0,0,9.23-.09,4.25,4.25,0,0,1,7.08,1.54,7.32,7.32,0,0,0,8.36,3.92,4.25,4.25,0,0,1,5.71,4.46,7.31,7.31,0,0,0,5.83,7.16,4.25,4.25,0,0,1,3.21,6.49,7.33,7.33,0,0,0,2.15,9,4.24,4.24,0,0,1,.07,7.23,7.34,7.34,0,0,0-2,9,4.25,4.25,0,0,1-3.07,6.56,7.32,7.32,0,0,0-5.69,7.28,4.24,4.24,0,0,1-5.61,4.57A7.32,7.32,0,0,0,201.33,297.23Z"/><circle class="cls-10" cx="189.3" cy="262.46" r="31.72" transform="translate(-134.28 266.13) rotate(-54.85)"/><circle class="cls-11" cx="189.3" cy="262.46" r="29" transform="translate(-9.88 7.42) rotate(-2.19)"/><circle class="cls-12" cx="189.3" cy="262.46" r="27.35" transform="translate(-96.59 110.85) rotate(-26.26)"/><path class="cls-13" d="M189.3,235.52a26.94,26.94,0,1,1-26.94,26.94,27,27,0,0,1,26.94-26.94m0-.41a27.35,27.35,0,1,0,27.35,27.35,27.34,27.34,0,0,0-27.35-27.35Z"/><path class="cls-14" d="M185.33,266.71h-6.25l-1.18,3.56h-3.79L180.54,253h3.3l6.47,17.29h-3.78ZM180,263.82h4.33l-2.18-6.47Z"/><path class="cls-15" d="M199.9,270.27h-3.44V257l-4.09,1.27v-2.79l7.16-2.56h.37Z"/><path class="cls-16" d="M184.81,266.12h-6.25l-1.19,3.56h-3.78L180,252.39h3.3l6.47,17.29H186Zm-5.29-2.89h4.32l-2.17-6.47Z"/><path class="cls-16" d="M199.37,269.68h-3.43V256.45l-4.09,1.27v-2.79l7.16-2.56h.36Z"/><text class="cls-5" transform="translate(161.26 341.51)">M<tspan class="cls-17" x="12.26" y="0">O</tspan><tspan x="21.78" y="0">VERS</tspan></text><text class="cls-5" transform="translate(297.99 304.46)">F<tspan class="cls-18" x="7.67" y="0">L</tspan><tspan x="13.34" y="0">YERS</tspan></text><text class="cls-5" transform="translate(437.71 264.1)">K<tspan class="cls-19" x="8.89" y="0">E</tspan><tspan class="cls-20" x="16.9" y="0">T</tspan></text><text class="cls-5" transform="translate(542.3 224.57)">P<tspan class="cls-19" x="9.03" y="0">E</tspan><tspan class="cls-20" x="17.04" y="0">T</tspan><tspan class="cls-21" x="0" y="19">T</tspan><tspan x="8.47" y="19">OEFL Junior</tspan></text><text class="cls-5" transform="translate(675.71 185.87)">i<tspan class="cls-22" x="3.71" y="0">B</tspan><tspan class="cls-20" x="12.46" y="0">T </tspan><tspan class="cls-21" x="23.79" y="0">T</tspan><tspan x="32.26" y="0">OEFL 50</tspan><tspan x="0" y="19">IE</tspan><tspan class="cls-23" x="11.96" y="19">L</tspan><tspan class="cls-24" x="18.14" y="19">T</tspan><tspan x="26.69" y="19">S 5.0</tspan></text><text class="cls-5" transform="translate(809.12 155.29)">i<tspan class="cls-22" x="3.71" y="0">B</tspan><tspan class="cls-20" x="12.46" y="0">T </tspan><tspan class="cls-21" x="23.79" y="0">T</tspan><tspan x="32.26" y="0">OEFL 70</tspan><tspan x="0" y="19">IE</tspan><tspan class="cls-23" x="11.96" y="19">L</tspan><tspan class="cls-24" x="18.14" y="19">T</tspan><tspan x="26.69" y="19">S 6.0</tspan></text><text class="cls-5" transform="translate(941.7 119)">i<tspan class="cls-22" x="3.71" y="0">B</tspan><tspan class="cls-20" x="12.46" y="0">T </tspan><tspan class="cls-21" x="23.79" y="0">T</tspan><tspan x="32.26" y="0">OEFL 90+</tspan><tspan x="0" y="19">IE</tspan><tspan class="cls-23" x="11.96" y="19">L</tspan><tspan class="cls-24" x="18.14" y="19">T</tspan><tspan x="26.69" y="19">S 7.0+</tspan></text><path class="cls-25" d="M66.55,336.57c-1.34,3.16-4.58,3.94-7.2,1.72a7.5,7.5,0,0,0-9.46.1,4.35,4.35,0,0,1-7.24-1.57,7.49,7.49,0,0,0-8.56-4c-3.31.92-5.94-1.13-5.84-4.56a7.49,7.49,0,0,0-6-7.33c-3.38-.61-4.86-3.59-3.29-6.64a7.49,7.49,0,0,0-2.19-9.2,4.35,4.35,0,0,1-.08-7.41,7.49,7.49,0,0,0,2-9.24,4.35,4.35,0,0,1,3.15-6.71,7.5,7.5,0,0,0,5.82-7.45,4.34,4.34,0,0,1,5.74-4.68,7.49,7.49,0,0,0,8.48-4.19,4.35,4.35,0,0,1,7.21-1.72,7.49,7.49,0,0,0,9.45-.1,4.34,4.34,0,0,1,7.24,1.58,7.49,7.49,0,0,0,8.56,4c3.31-.92,5.94,1.13,5.84,4.56a7.52,7.52,0,0,0,6,7.34,4.35,4.35,0,0,1,3.29,6.64,7.47,7.47,0,0,0,2.19,9.19,4.35,4.35,0,0,1,.08,7.41,7.49,7.49,0,0,0-2,9.24,4.35,4.35,0,0,1-3.15,6.71,7.51,7.51,0,0,0-5.82,7.45A4.34,4.34,0,0,1,75,332.38,7.5,7.5,0,0,0,66.55,336.57Z"/><path class="cls-26" d="M66.27,335.75a4.25,4.25,0,0,1-7,1.69,7.32,7.32,0,0,0-9.24.09A4.24,4.24,0,0,1,42.92,336a7.33,7.33,0,0,0-8.37-3.92,4.25,4.25,0,0,1-5.71-4.46A7.31,7.31,0,0,0,23,320.45,4.25,4.25,0,0,1,19.8,314a7.32,7.32,0,0,0-2.14-9,4.24,4.24,0,0,1-.08-7.23,7.33,7.33,0,0,0,2-9,4.25,4.25,0,0,1,3.07-6.56,7.32,7.32,0,0,0,5.69-7.28,4.25,4.25,0,0,1,5.61-4.57,7.3,7.3,0,0,0,8.28-4.09,4.25,4.25,0,0,1,7-1.69,7.31,7.31,0,0,0,9.24-.09A4.26,4.26,0,0,1,65.56,266a7.3,7.3,0,0,0,8.36,3.92,4.26,4.26,0,0,1,5.71,4.46,7.3,7.3,0,0,0,5.83,7.16A4.25,4.25,0,0,1,88.67,288a7.33,7.33,0,0,0,2.14,9,4.25,4.25,0,0,1,.08,7.24,7.33,7.33,0,0,0-2,9,4.24,4.24,0,0,1-3.07,6.55,7.32,7.32,0,0,0-5.69,7.28,4.24,4.24,0,0,1-5.61,4.57A7.32,7.32,0,0,0,66.27,335.75Z"/><circle class="cls-27" cx="54.24" cy="300.98" r="31.72" transform="translate(-223.08 172.04) rotate(-54.85)"/><circle class="cls-28" cx="54.24" cy="300.98" r="29" transform="translate(-11.45 2.29) rotate(-2.19)"/><circle class="cls-29" cx="54.24" cy="300.98" r="27.35" transform="translate(-127.57 55.06) rotate(-26.26)"/><path class="cls-30" d="M54.24,274A26.94,26.94,0,1,1,27.3,301,27,27,0,0,1,54.24,274m0-.41A27.35,27.35,0,1,0,81.59,301a27.35,27.35,0,0,0-27.35-27.35Z"/><path class="cls-31" d="M78.05,287.53a27.35,27.35,0,1,0-39.16,36.09A43.15,43.15,0,0,1,78.05,287.53Z"/><path class="cls-32" d="M45.85,289.57v4.08H44.47V283.22h3.85a3.9,3.9,0,0,1,2.69.87,3,3,0,0,1,1,2.32,2.94,2.94,0,0,1-.95,2.34,4.07,4.07,0,0,1-2.72.82Zm0-1.13h2.47a2.44,2.44,0,0,0,1.69-.52,1.88,1.88,0,0,0,.59-1.5,2,2,0,0,0-.59-1.5,2.35,2.35,0,0,0-1.61-.58H45.85Z"/><path class="cls-33" d="M57.28,287.09a3.47,3.47,0,0,0-.66,0,1.75,1.75,0,0,0-1.77,1.11v5.5H53.53V285.9h1.29l0,.89a2.06,2.06,0,0,1,1.85-1,1.49,1.49,0,0,1,.59.1Z"/><path class="cls-34" d="M61.58,293.8a3.39,3.39,0,0,1-2.57-1A3.83,3.83,0,0,1,58,290v-.24a4.69,4.69,0,0,1,.44-2.06,3.49,3.49,0,0,1,1.23-1.42,3.13,3.13,0,0,1,1.72-.52,2.92,2.92,0,0,1,2.35,1,4.31,4.31,0,0,1,.84,2.85v.55H59.35A2.76,2.76,0,0,0,60,292a2.09,2.09,0,0,0,1.63.7,2.33,2.33,0,0,0,1.19-.28,3.06,3.06,0,0,0,.85-.76l.81.63A3.25,3.25,0,0,1,61.58,293.8Zm-.17-7a1.8,1.8,0,0,0-1.35.59,2.87,2.87,0,0,0-.67,1.64h3.88V289a2.5,2.5,0,0,0-.54-1.57A1.67,1.67,0,0,0,61.41,286.84Z"/><path class="cls-35" d="M50.34,310.58H44.1l-1.19,3.56H39.12l6.44-17.29h3.3l6.47,17.29H51.54Zm-5.28-2.89h4.32l-2.17-6.47Z"/><path class="cls-36" d="M64.91,314.14H61.48V300.91l-4.1,1.27v-2.79l7.16-2.56h.37Z"/><path class="cls-37" d="M45.56,289.25v4.09H44.18V282.9H48a3.82,3.82,0,0,1,2.68.88,2.94,2.94,0,0,1,1,2.31,2.91,2.91,0,0,1-1,2.34,4,4,0,0,1-2.72.82Zm0-1.12H48a2.51,2.51,0,0,0,1.69-.52,1.92,1.92,0,0,0,.59-1.51,2,2,0,0,0-.59-1.49,2.31,2.31,0,0,0-1.61-.58H45.56Z"/><path class="cls-37" d="M57,286.77a4.4,4.4,0,0,0-.65,0,1.75,1.75,0,0,0-1.77,1.11v5.51H53.23v-7.76h1.29l0,.9a2.09,2.09,0,0,1,1.85-1,1.31,1.31,0,0,1,.59.1Z"/><path class="cls-37" d="M61.28,293.48a3.36,3.36,0,0,1-2.56-1,3.88,3.88,0,0,1-1-2.78v-.24a4.58,4.58,0,0,1,.44-2.06A3.41,3.41,0,0,1,59.4,286a3.12,3.12,0,0,1,1.72-.51,2.9,2.9,0,0,1,2.35,1,4.29,4.29,0,0,1,.84,2.85v.55H59.05a2.75,2.75,0,0,0,.67,1.85,2.11,2.11,0,0,0,1.63.71,2.3,2.3,0,0,0,1.19-.29,3,3,0,0,0,.86-.76l.81.63A3.26,3.26,0,0,1,61.28,293.48Zm-.16-7a1.76,1.76,0,0,0-1.35.58,2.83,2.83,0,0,0-.67,1.64H63v-.1a2.59,2.59,0,0,0-.54-1.57A1.68,1.68,0,0,0,61.12,286.53Z"/><path class="cls-37" d="M50.05,310.26H43.8l-1.18,3.56H38.83l6.44-17.28h3.3L55,313.82H51.25Zm-5.28-2.88h4.32l-2.17-6.47Z"/><path class="cls-37" d="M64.62,313.82H61.19V300.6l-4.1,1.27v-2.79l7.16-2.57h.37Z"/><path class="cls-38" d="M334.21,257.62c-1.34,3.16-4.58,3.93-7.21,1.72a7.5,7.5,0,0,0-9.46.1,4.34,4.34,0,0,1-7.23-1.58,7.5,7.5,0,0,0-8.57-4,4.35,4.35,0,0,1-5.84-4.56,7.49,7.49,0,0,0-6-7.34c-3.38-.6-4.85-3.59-3.28-6.64a7.48,7.48,0,0,0-2.2-9.2c-2.78-2-2.81-5.34-.07-7.41a7.5,7.5,0,0,0,2-9.24,4.34,4.34,0,0,1,3.14-6.7,7.49,7.49,0,0,0,5.82-7.46c-.16-3.43,2.42-5.53,5.75-4.67a7.51,7.51,0,0,0,8.48-4.19c1.34-3.17,4.58-3.94,7.2-1.73a7.5,7.5,0,0,0,9.46-.09,4.35,4.35,0,0,1,7.24,1.57,7.5,7.5,0,0,0,8.56,4c3.31-.93,5.93,1.13,5.84,4.56a7.48,7.48,0,0,0,6,7.33,4.34,4.34,0,0,1,3.28,6.64,7.51,7.51,0,0,0,2.2,9.2c2.79,2,2.82,5.34.08,7.41a7.49,7.49,0,0,0-2,9.24c1.63,3,.22,6-3.15,6.71a7.5,7.5,0,0,0-5.82,7.45,4.35,4.35,0,0,1-5.74,4.68A7.49,7.49,0,0,0,334.21,257.62Z"/><path class="cls-39" d="M333.92,256.8c-1.3,3.09-4.47,3.84-7,1.68a7.31,7.31,0,0,0-9.23.1,4.26,4.26,0,0,1-7.08-1.54,7.32,7.32,0,0,0-8.36-3.93,4.25,4.25,0,0,1-5.71-4.45,7.33,7.33,0,0,0-5.83-7.17,4.24,4.24,0,0,1-3.21-6.48,7.32,7.32,0,0,0-2.15-9,4.25,4.25,0,0,1-.07-7.24,7.32,7.32,0,0,0,2-9,4.25,4.25,0,0,1,3.08-6.55,7.31,7.31,0,0,0,5.68-7.28,4.25,4.25,0,0,1,5.62-4.57,7.33,7.33,0,0,0,8.28-4.1,4.25,4.25,0,0,1,7-1.68,7.33,7.33,0,0,0,9.24-.09,4.24,4.24,0,0,1,7.07,1.53,7.32,7.32,0,0,0,8.37,3.93,4.24,4.24,0,0,1,5.7,4.45,7.33,7.33,0,0,0,5.84,7.17,4.25,4.25,0,0,1,3.2,6.49,7.32,7.32,0,0,0,2.15,9,4.25,4.25,0,0,1,.07,7.24,7.33,7.33,0,0,0-2,9,4.24,4.24,0,0,1-3.07,6.55,7.34,7.34,0,0,0-5.69,7.29,4.25,4.25,0,0,1-5.61,4.57A7.32,7.32,0,0,0,333.92,256.8Z"/><circle class="cls-40" cx="321.89" cy="222.03" r="31.72" transform="translate(-44.97 357.39) rotate(-54.85)"/><circle class="cls-41" cx="321.89" cy="222.03" r="29" transform="translate(-8.24 12.45) rotate(-2.19)"/><circle class="cls-42" cx="321.89" cy="222.03" r="27.35" transform="translate(-65.01 165.34) rotate(-26.26)"/><path class="cls-43" d="M321.89,195.09A26.94,26.94,0,1,1,295,222a27,27,0,0,1,26.94-26.94m0-.42A27.36,27.36,0,1,0,349.25,222a27.36,27.36,0,0,0-27.36-27.36Z"/><path class="cls-44" d="M313.38,211.15v4.09H312V204.8h3.85a3.88,3.88,0,0,1,2.68.88,3.3,3.3,0,0,1,0,4.65,4,4,0,0,1-2.72.82Zm0-1.12h2.48a2.46,2.46,0,0,0,1.69-.52,1.92,1.92,0,0,0,.59-1.51,2,2,0,0,0-.59-1.49,2.31,2.31,0,0,0-1.62-.58h-2.55Z"/><path class="cls-45" d="M324.81,208.67a4.45,4.45,0,0,0-.65,0,1.75,1.75,0,0,0-1.77,1.11v5.5h-1.33v-7.75h1.29l0,.89a2.08,2.08,0,0,1,1.85-1,1.49,1.49,0,0,1,.59.1Z"/><path class="cls-46" d="M329.11,215.38a3.4,3.4,0,0,1-2.57-1,3.85,3.85,0,0,1-1-2.77v-.25a4.72,4.72,0,0,1,.44-2.06,3.57,3.57,0,0,1,1.24-1.42,3.11,3.11,0,0,1,1.71-.51,2.87,2.87,0,0,1,2.35,1,4.29,4.29,0,0,1,.84,2.85v.55h-5.25a2.76,2.76,0,0,0,.67,1.86,2.1,2.1,0,0,0,1.63.7,2.21,2.21,0,0,0,1.19-.29,2.79,2.79,0,0,0,.85-.76l.81.64A3.26,3.26,0,0,1,329.11,215.38Zm-.17-6.95a1.76,1.76,0,0,0-1.34.59,2.78,2.78,0,0,0-.68,1.63h3.89v-.1a2.5,2.5,0,0,0-.55-1.56A1.66,1.66,0,0,0,328.94,208.43Z"/><path class="cls-47" d="M317.88,232.17h-6.25l-1.18,3.56h-3.79l6.43-17.29h3.3l6.47,17.29h-3.78Zm-5.29-2.89h4.33l-2.18-6.47Z"/><path class="cls-48" d="M336,235.73H324.11v-2.35l5.59-6a14.17,14.17,0,0,0,1.71-2.2,3.62,3.62,0,0,0,.55-1.78,2.67,2.67,0,0,0-.58-1.81,2.12,2.12,0,0,0-1.67-.66,2.28,2.28,0,0,0-1.83.8,3.16,3.16,0,0,0-.67,2.11h-3.44a5.71,5.71,0,0,1,.75-2.89,5.33,5.33,0,0,1,2.13-2.05,6.54,6.54,0,0,1,3.12-.74,6.1,6.1,0,0,1,4.15,1.29,4.51,4.51,0,0,1,1.48,3.62,5.87,5.87,0,0,1-.66,2.61,15.19,15.19,0,0,1-2.28,3.1L328.53,233H336Z"/><path class="cls-49" d="M313,210.78v4.09h-1.38V204.43h3.85a3.86,3.86,0,0,1,2.69.88,3,3,0,0,1,1,2.31,2.94,2.94,0,0,1-.95,2.34,4,4,0,0,1-2.72.82Zm0-1.12h2.47a2.49,2.49,0,0,0,1.69-.52,1.89,1.89,0,0,0,.59-1.51,1.93,1.93,0,0,0-.59-1.49,2.31,2.31,0,0,0-1.61-.58H313Z"/><path class="cls-49" d="M324.46,208.3a4.29,4.29,0,0,0-.65-.05,1.75,1.75,0,0,0-1.77,1.11v5.51h-1.32v-7.76H322l0,.9a2.06,2.06,0,0,1,1.85-1,1.26,1.26,0,0,1,.58.1Z"/><path class="cls-49" d="M328.77,215a3.38,3.38,0,0,1-2.57-1,3.86,3.86,0,0,1-1-2.78V211a4.72,4.72,0,0,1,.44-2.06,3.48,3.48,0,0,1,1.23-1.42,3.12,3.12,0,0,1,1.72-.51,2.89,2.89,0,0,1,2.35,1,4.29,4.29,0,0,1,.84,2.85v.55h-5.25a2.75,2.75,0,0,0,.67,1.85,2.1,2.1,0,0,0,1.63.71,2.33,2.33,0,0,0,1.19-.29,2.91,2.91,0,0,0,.85-.76l.81.63A3.26,3.26,0,0,1,328.77,215Zm-.17-6.95a1.77,1.77,0,0,0-1.35.58,2.83,2.83,0,0,0-.67,1.64h3.88v-.1a2.52,2.52,0,0,0-.54-1.57A1.68,1.68,0,0,0,328.6,208.06Z"/><path class="cls-49" d="M317.53,231.79h-6.24l-1.19,3.56h-3.79l6.44-17.28h3.3l6.47,17.28h-3.79Zm-5.28-2.88h4.32l-2.17-6.47Z"/><path class="cls-49" d="M335.62,235.35H323.77V233l5.59-6a14,14,0,0,0,1.7-2.19,3.52,3.52,0,0,0,.55-1.78,2.63,2.63,0,0,0-.58-1.81,2.1,2.1,0,0,0-1.66-.66,2.22,2.22,0,0,0-1.83.8,3.14,3.14,0,0,0-.67,2.11h-3.45a5.6,5.6,0,0,1,.76-2.89,5.33,5.33,0,0,1,2.13-2.05,6.54,6.54,0,0,1,3.12-.74,6.17,6.17,0,0,1,4.15,1.28,4.56,4.56,0,0,1,1.48,3.62,5.76,5.76,0,0,1-.67,2.62,14.2,14.2,0,0,1-2.28,3.09l-3.93,4.15h7.44Z"/><path class="cls-50" d="M465.1,219.7c-1.34,3.16-4.58,3.94-7.2,1.72a7.5,7.5,0,0,0-9.46.1c-2.58,2.27-5.83,1.56-7.24-1.58a7.48,7.48,0,0,0-8.56-4,4.35,4.35,0,0,1-5.84-4.56,7.51,7.51,0,0,0-6-7.34,4.34,4.34,0,0,1-3.28-6.64,7.51,7.51,0,0,0-2.2-9.2,4.34,4.34,0,0,1-.08-7.4,7.49,7.49,0,0,0,2-9.24c-1.63-3-.22-6,3.15-6.71a7.5,7.5,0,0,0,5.82-7.46,4.34,4.34,0,0,1,5.74-4.67,7.5,7.5,0,0,0,8.48-4.19,4.35,4.35,0,0,1,7.21-1.73,7.49,7.49,0,0,0,9.46-.09,4.34,4.34,0,0,1,7.23,1.57,7.5,7.5,0,0,0,8.57,4,4.35,4.35,0,0,1,5.84,4.56,7.48,7.48,0,0,0,6,7.33c3.38.61,4.85,3.59,3.28,6.64a7.48,7.48,0,0,0,2.2,9.2c2.78,2,2.82,5.35.07,7.41a7.5,7.5,0,0,0-2,9.24,4.35,4.35,0,0,1-3.14,6.71,7.48,7.48,0,0,0-5.82,7.45c.16,3.43-2.42,5.54-5.75,4.68A7.5,7.5,0,0,0,465.1,219.7Z"/><path class="cls-51" d="M464.82,218.88a4.24,4.24,0,0,1-7,1.68,7.32,7.32,0,0,0-9.24.1,4.25,4.25,0,0,1-7.07-1.54,7.32,7.32,0,0,0-8.37-3.92,4.25,4.25,0,0,1-5.7-4.46,7.31,7.31,0,0,0-5.84-7.16,4.25,4.25,0,0,1-3.2-6.49,7.32,7.32,0,0,0-2.15-9,4.25,4.25,0,0,1-.08-7.24,7.32,7.32,0,0,0,2-9,4.24,4.24,0,0,1,3.07-6.55,7.32,7.32,0,0,0,5.69-7.28,4.24,4.24,0,0,1,5.61-4.57,7.33,7.33,0,0,0,8.29-4.09,4.25,4.25,0,0,1,7-1.69,7.32,7.32,0,0,0,9.24-.09,4.24,4.24,0,0,1,7.07,1.54,7.32,7.32,0,0,0,8.36,3.92,4.25,4.25,0,0,1,5.71,4.46,7.32,7.32,0,0,0,5.83,7.16,4.25,4.25,0,0,1,3.21,6.49,7.33,7.33,0,0,0,2.15,9,4.24,4.24,0,0,1,.07,7.23,7.32,7.32,0,0,0-2,9,4.26,4.26,0,0,1-3.08,6.56,7.31,7.31,0,0,0-5.68,7.28,4.25,4.25,0,0,1-5.62,4.57A7.31,7.31,0,0,0,464.82,218.88Z"/><circle class="cls-52" cx="452.79" cy="184.11" r="31.72" transform="translate(41.57 448.33) rotate(-54.85)"/><circle class="cls-53" cx="452.79" cy="184.11" r="29" transform="translate(-6.7 17.42) rotate(-2.19)"/><circle class="cls-54" cx="452.79" cy="184.11" r="27.35" transform="translate(-34.73 219.34) rotate(-26.26)"/><path class="cls-55" d="M452.79,157.17a26.94,26.94,0,1,1-26.94,26.94,27,27,0,0,1,26.94-26.94m0-.41a27.35,27.35,0,1,0,27.35,27.35,27.34,27.34,0,0,0-27.35-27.35Z"/><path class="cls-56" d="M448.78,189h-6.24l-1.19,3.57h-3.79L444,175.29h3.3l6.47,17.29H450Zm-5.28-2.88h4.32l-2.17-6.47Z"/><path class="cls-57" d="M466.86,192.58H455v-2.36l5.6-6a14.15,14.15,0,0,0,1.7-2.19,3.52,3.52,0,0,0,.55-1.78,2.63,2.63,0,0,0-.58-1.81,2.1,2.1,0,0,0-1.66-.66,2.26,2.26,0,0,0-1.84.8,3.21,3.21,0,0,0-.67,2.11h-3.44a5.69,5.69,0,0,1,.75-2.89,5.42,5.42,0,0,1,2.14-2.05,6.48,6.48,0,0,1,3.12-.74,6.17,6.17,0,0,1,4.15,1.28,4.58,4.58,0,0,1,1.48,3.63,5.88,5.88,0,0,1-.67,2.61,14.46,14.46,0,0,1-2.28,3.1l-3.93,4.14h7.43Z"/><path class="cls-58" d="M448.34,188.4h-6.25L440.91,192h-3.79l6.43-17.28h3.31L453.33,192h-3.79Zm-5.28-2.88h4.32l-2.17-6.47Z"/><path class="cls-58" d="M466.42,192H454.57v-2.35l5.59-6a14.16,14.16,0,0,0,1.71-2.19,3.53,3.53,0,0,0,.55-1.79,2.64,2.64,0,0,0-.58-1.81,2.09,2.09,0,0,0-1.66-.65,2.26,2.26,0,0,0-1.84.8,3.13,3.13,0,0,0-.67,2.1h-3.44a5.68,5.68,0,0,1,.75-2.88,5.39,5.39,0,0,1,2.13-2,6.55,6.55,0,0,1,3.13-.74,6.17,6.17,0,0,1,4.15,1.28,4.55,4.55,0,0,1,1.47,3.62,5.8,5.8,0,0,1-.66,2.61,14.22,14.22,0,0,1-2.28,3.1L459,189.2h7.43Z"/><path class="cls-59" d="M595.17,182.24A4.34,4.34,0,0,1,588,184a7.5,7.5,0,0,0-9.46.1c-2.58,2.26-5.83,1.56-7.24-1.58a7.48,7.48,0,0,0-8.56-4,4.35,4.35,0,0,1-5.84-4.56,7.5,7.5,0,0,0-6-7.34,4.34,4.34,0,0,1-3.28-6.64,7.51,7.51,0,0,0-2.2-9.2c-2.78-2-2.82-5.34-.08-7.4a7.5,7.5,0,0,0,2-9.25,4.34,4.34,0,0,1,3.15-6.7,7.49,7.49,0,0,0,5.82-7.46c-.16-3.43,2.42-5.53,5.74-4.67a7.5,7.5,0,0,0,8.48-4.19,4.35,4.35,0,0,1,7.21-1.73,7.5,7.5,0,0,0,9.46-.09,4.34,4.34,0,0,1,7.23,1.57,7.52,7.52,0,0,0,8.57,4c3.3-.93,5.93,1.13,5.84,4.56a7.48,7.48,0,0,0,6,7.33c3.38.6,4.85,3.59,3.28,6.64a7.49,7.49,0,0,0,2.2,9.2c2.78,2,2.82,5.34.07,7.41a7.5,7.5,0,0,0-2,9.24,4.35,4.35,0,0,1-3.14,6.71,7.48,7.48,0,0,0-5.82,7.45c.16,3.43-2.42,5.53-5.75,4.68A7.5,7.5,0,0,0,595.17,182.24Z"/><path class="cls-60" d="M594.89,181.42a4.24,4.24,0,0,1-7,1.68,7.32,7.32,0,0,0-9.24.1,4.25,4.25,0,0,1-7.07-1.54,7.32,7.32,0,0,0-8.37-3.92,4.25,4.25,0,0,1-5.7-4.46,7.31,7.31,0,0,0-5.84-7.16,4.25,4.25,0,0,1-3.2-6.49,7.32,7.32,0,0,0-2.15-9,4.25,4.25,0,0,1-.07-7.24,7.33,7.33,0,0,0,2-9,4.24,4.24,0,0,1,3.07-6.55,7.33,7.33,0,0,0,5.69-7.28,4.25,4.25,0,0,1,5.61-4.57,7.34,7.34,0,0,0,8.29-4.1,4.25,4.25,0,0,1,7-1.68,7.33,7.33,0,0,0,9.24-.09,4.24,4.24,0,0,1,7.07,1.54,7.32,7.32,0,0,0,8.36,3.92,4.25,4.25,0,0,1,5.71,4.45,7.32,7.32,0,0,0,5.83,7.17,4.25,4.25,0,0,1,3.21,6.49,7.33,7.33,0,0,0,2.15,9,4.24,4.24,0,0,1,.07,7.23,7.32,7.32,0,0,0-2,9,4.26,4.26,0,0,1-3.08,6.56,7.31,7.31,0,0,0-5.68,7.28,4.25,4.25,0,0,1-5.62,4.57A7.31,7.31,0,0,0,594.89,181.42Z"/><circle class="cls-61" cx="582.86" cy="146.65" r="31.72" transform="translate(127.39 538.79) rotate(-54.85)"/><circle class="cls-62" cx="582.86" cy="146.65" r="29" transform="translate(-5.17 22.35) rotate(-2.19)"/><circle class="cls-63" cx="582.86" cy="146.65" r="27.35" transform="translate(-4.73 273.03) rotate(-26.26)"/><path class="cls-64" d="M582.86,119.71a26.94,26.94,0,1,1-26.94,26.94,27,27,0,0,1,26.94-26.94m0-.41a27.35,27.35,0,1,0,27.35,27.35,27.34,27.34,0,0,0-27.35-27.35Z"/><path class="cls-65" d="M570.85,154.08V136.8h6.06a8,8,0,0,1,4.77,1.2,4.13,4.13,0,0,1,1.63,3.53,3.86,3.86,0,0,1-.66,2.24,3.73,3.73,0,0,1-1.81,1.42,3.66,3.66,0,0,1,2.09,1.34,4,4,0,0,1,.77,2.47,4.58,4.58,0,0,1-1.59,3.78,7.17,7.17,0,0,1-4.54,1.3Zm3.56-10h2.64c1.8,0,2.69-.75,2.69-2.15a2,2,0,0,0-.68-1.69,3.52,3.52,0,0,0-2.15-.52h-2.5Zm0,2.51v4.67h3.05a3,3,0,0,0,2-.6,2.06,2.06,0,0,0,.71-1.65,2.18,2.18,0,0,0-2.46-2.42Z"/><path class="cls-66" d="M594.34,154.08H590.9V140.86l-4.09,1.27v-2.79l7.16-2.57h.37Z"/><path class="cls-67" d="M570.44,153.85V136.56h6.06a8,8,0,0,1,4.77,1.21,4.13,4.13,0,0,1,1.63,3.53,3.89,3.89,0,0,1-.66,2.24,3.78,3.78,0,0,1-1.81,1.42,3.66,3.66,0,0,1,2.09,1.34,4,4,0,0,1,.77,2.47,4.58,4.58,0,0,1-1.59,3.78,7.17,7.17,0,0,1-4.54,1.3Zm3.56-10h2.64c1.8,0,2.69-.75,2.69-2.15a2,2,0,0,0-.68-1.69,3.52,3.52,0,0,0-2.15-.52H574Zm0,2.51V151h3a3,3,0,0,0,2-.6,2.06,2.06,0,0,0,.71-1.66,2.18,2.18,0,0,0-2.46-2.41Z"/><path class="cls-67" d="M593.92,153.85h-3.43V140.63l-4.09,1.26V139.1l7.16-2.56h.36Z"/><path class="cls-68" d="M726.85,141.92a4.34,4.34,0,0,1-7.2,1.72,7.5,7.5,0,0,0-9.46.1c-2.58,2.26-5.83,1.55-7.24-1.58a7.5,7.5,0,0,0-8.56-4c-3.31.93-5.93-1.12-5.84-4.56a7.48,7.48,0,0,0-6-7.33,4.34,4.34,0,0,1-3.28-6.64,7.51,7.51,0,0,0-2.2-9.2A4.35,4.35,0,0,1,677,103a7.48,7.48,0,0,0,2-9.24c-1.63-3-.22-6,3.15-6.7A7.5,7.5,0,0,0,688,79.6c-.16-3.43,2.42-5.53,5.74-4.68a7.49,7.49,0,0,0,8.48-4.19A4.35,4.35,0,0,1,709.43,69a7.51,7.51,0,0,0,9.46-.09,4.34,4.34,0,0,1,7.23,1.57,7.52,7.52,0,0,0,8.57,4c3.3-.93,5.93,1.12,5.84,4.56a7.48,7.48,0,0,0,6,7.33c3.38.6,4.85,3.59,3.28,6.64a7.49,7.49,0,0,0,2.2,9.2c2.78,2,2.82,5.34.07,7.41a7.5,7.5,0,0,0-2,9.24c1.64,3,.22,6-3.14,6.71a7.48,7.48,0,0,0-5.82,7.45c.16,3.43-2.42,5.53-5.75,4.68A7.5,7.5,0,0,0,726.85,141.92Z"/><path class="cls-69" d="M726.57,141.1a4.25,4.25,0,0,1-7,1.68,7.32,7.32,0,0,0-9.24.1,4.25,4.25,0,0,1-7.07-1.54,7.33,7.33,0,0,0-8.37-3.93,4.24,4.24,0,0,1-5.7-4.45,7.33,7.33,0,0,0-5.84-7.17,4.25,4.25,0,0,1-3.2-6.49,7.31,7.31,0,0,0-2.15-9,4.25,4.25,0,0,1-.07-7.24,7.33,7.33,0,0,0,2-9,4.24,4.24,0,0,1,3.07-6.55,7.33,7.33,0,0,0,5.69-7.28,4.25,4.25,0,0,1,5.61-4.57,7.34,7.34,0,0,0,8.29-4.1c1.31-3.09,4.47-3.84,7-1.68a7.33,7.33,0,0,0,9.24-.09,4.24,4.24,0,0,1,7.07,1.53,7.32,7.32,0,0,0,8.36,3.93,4.25,4.25,0,0,1,5.71,4.45,7.33,7.33,0,0,0,5.83,7.17A4.25,4.25,0,0,1,749,93.35a7.31,7.31,0,0,0,2.15,9,4.25,4.25,0,0,1,.07,7.24,7.32,7.32,0,0,0-2,9,4.25,4.25,0,0,1-3.08,6.55,7.32,7.32,0,0,0-5.68,7.28,4.25,4.25,0,0,1-5.62,4.57A7.33,7.33,0,0,0,726.57,141.1Z"/><circle class="cls-70" cx="714.54" cy="106.32" r="31.72" transform="translate(216.22 629.35) rotate(-54.85)"/><circle class="cls-71" cx="714.54" cy="106.32" r="29" transform="translate(-3.54 27.35) rotate(-2.19)"/><circle class="cls-72" cx="714.54" cy="106.32" r="27.35" transform="translate(26.7 327.13) rotate(-26.26)"/><path class="cls-73" d="M714.54,79.39a26.94,26.94,0,1,1-26.94,26.93,27,27,0,0,1,26.94-26.93m0-.42a27.36,27.36,0,1,0,27.35,27.35A27.35,27.35,0,0,0,714.54,79Z"/><path class="cls-74" d="M697.91,115V97.71H704a8,8,0,0,1,4.77,1.2,4.13,4.13,0,0,1,1.63,3.54,3.92,3.92,0,0,1-.65,2.23,3.75,3.75,0,0,1-1.82,1.42,3.65,3.65,0,0,1,2.1,1.34,4,4,0,0,1,.76,2.47,4.57,4.57,0,0,1-1.59,3.78,7.21,7.21,0,0,1-4.53,1.31Zm3.56-10h2.63c1.8,0,2.7-.75,2.7-2.15a2,2,0,0,0-.68-1.69,3.65,3.65,0,0,0-2.16-.52h-2.49Zm0,2.52v4.66h3a2.93,2.93,0,0,0,2-.6,2,2,0,0,0,.71-1.65,2.17,2.17,0,0,0-2.46-2.41Z"/><path class="cls-75" d="M721.39,115H718V101.77l-4.1,1.27v-2.79L721,97.69h.37Z"/><path class="cls-76" d="M730.38,100.22h3.68v2.66h-3.68v4.17h-2.81v-4.17h-3.69v-2.66h3.69v-4h2.81Z"/><path class="cls-77" d="M697.42,114.51V97.22h6.05a7.93,7.93,0,0,1,4.78,1.21,4.12,4.12,0,0,1,1.62,3.53,4,4,0,0,1-.65,2.24,3.81,3.81,0,0,1-1.82,1.42,3.65,3.65,0,0,1,2.1,1.34,4,4,0,0,1,.76,2.47,4.55,4.55,0,0,1-1.59,3.77,7.14,7.14,0,0,1-4.53,1.31Zm3.56-10h2.63c1.8,0,2.7-.75,2.7-2.15a2,2,0,0,0-.68-1.7,3.66,3.66,0,0,0-2.16-.51H701Zm0,2.51v4.67h3a3,3,0,0,0,2-.6,2.06,2.06,0,0,0,.7-1.66,2.18,2.18,0,0,0-2.46-2.41Z"/><path class="cls-77" d="M720.9,114.51h-3.43V101.28l-4.1,1.27V99.76l7.16-2.56h.37Z"/><path class="cls-78" d="M729.89,99.73h3.69v2.67h-3.69v4.16h-2.81V102.4h-3.69V99.73h3.69v-4h2.81Z"/><path class="cls-79" d="M862.37,111.09a4.35,4.35,0,0,1-7.21,1.72,7.5,7.5,0,0,0-9.46.09,4.34,4.34,0,0,1-7.23-1.57,7.52,7.52,0,0,0-8.57-4c-3.3.93-5.93-1.13-5.84-4.56a7.48,7.48,0,0,0-6-7.33c-3.38-.6-4.85-3.59-3.28-6.64a7.49,7.49,0,0,0-2.2-9.2c-2.78-2-2.81-5.34-.07-7.41a7.5,7.5,0,0,0,2-9.24c-1.64-3-.22-6,3.14-6.71a7.48,7.48,0,0,0,5.82-7.45c-.16-3.43,2.42-5.53,5.75-4.68a7.5,7.5,0,0,0,8.48-4.19,4.34,4.34,0,0,1,7.2-1.72,7.5,7.5,0,0,0,9.46-.1c2.58-2.26,5.83-1.55,7.24,1.58a7.48,7.48,0,0,0,8.56,4A4.35,4.35,0,0,1,876,48.23a7.49,7.49,0,0,0,6,7.34,4.34,4.34,0,0,1,3.28,6.64,7.51,7.51,0,0,0,2.2,9.2c2.79,2,2.82,5.34.08,7.41a7.48,7.48,0,0,0-2,9.24c1.63,3,.22,6-3.15,6.7a7.51,7.51,0,0,0-5.82,7.46c.16,3.43-2.42,5.53-5.74,4.68A7.49,7.49,0,0,0,862.37,111.09Z"/><path class="cls-80" d="M862.08,110.27c-1.31,3.09-4.47,3.84-7,1.68a7.33,7.33,0,0,0-9.24.09,4.24,4.24,0,0,1-7.07-1.53,7.31,7.31,0,0,0-8.36-3.93,4.25,4.25,0,0,1-5.71-4.45A7.33,7.33,0,0,0,818.83,95a4.25,4.25,0,0,1-3.21-6.49,7.31,7.31,0,0,0-2.15-9,4.25,4.25,0,0,1-.07-7.24,7.32,7.32,0,0,0,2-9,4.24,4.24,0,0,1,3.08-6.55,7.33,7.33,0,0,0,5.68-7.29,4.25,4.25,0,0,1,5.62-4.57A7.31,7.31,0,0,0,838,40.72a4.25,4.25,0,0,1,7-1.68,7.32,7.32,0,0,0,9.24-.1,4.25,4.25,0,0,1,7.07,1.54,7.33,7.33,0,0,0,8.37,3.93,4.24,4.24,0,0,1,5.7,4.45A7.33,7.33,0,0,0,881.28,56a4.25,4.25,0,0,1,3.2,6.49,7.31,7.31,0,0,0,2.15,9,4.25,4.25,0,0,1,.07,7.24,7.32,7.32,0,0,0-2,9,4.24,4.24,0,0,1-3.07,6.55A7.33,7.33,0,0,0,876,101.6a4.25,4.25,0,0,1-5.61,4.57A7.34,7.34,0,0,0,862.08,110.27Z"/><circle class="cls-81" cx="850.05" cy="75.49" r="31.72" transform="translate(298.93 727.07) rotate(-54.85)"/><circle class="cls-82" cx="850.05" cy="75.49" r="29" transform="translate(-2.26 32.5) rotate(-2.19)"/><circle class="cls-83" cx="850.05" cy="75.49" r="27.35" transform="translate(54.33 383.91) rotate(-26.26)"/><path class="cls-84" d="M850.05,48.56a26.94,26.94,0,1,1-26.94,26.93,27,27,0,0,1,26.94-26.93m0-.42A27.36,27.36,0,1,0,877.4,75.49a27.36,27.36,0,0,0-27.35-27.35Z"/><path class="cls-85" d="M836.79,83.83V66.54h6.05a8,8,0,0,1,4.77,1.2,4.12,4.12,0,0,1,1.63,3.54,3.92,3.92,0,0,1-.65,2.23,3.75,3.75,0,0,1-1.82,1.42,3.65,3.65,0,0,1,2.1,1.34,4,4,0,0,1,.76,2.47A4.57,4.57,0,0,1,848,82.52a7.21,7.21,0,0,1-4.53,1.31Zm3.56-10H843c1.8,0,2.7-.75,2.7-2.15a2,2,0,0,0-.68-1.69,3.65,3.65,0,0,0-2.16-.52h-2.49Zm0,2.52V81h3a2.93,2.93,0,0,0,2-.6,2,2,0,0,0,.71-1.65,2.17,2.17,0,0,0-2.46-2.41Z"/><path class="cls-86" d="M863.78,83.83H851.94V81.48l5.59-6a13.55,13.55,0,0,0,1.7-2.19,3.52,3.52,0,0,0,.55-1.78,2.63,2.63,0,0,0-.58-1.81,2.1,2.1,0,0,0-1.66-.66,2.25,2.25,0,0,0-1.83.8A3.16,3.16,0,0,0,855,72h-3.44a5.6,5.6,0,0,1,.76-2.89,5.33,5.33,0,0,1,2.13-2,6.51,6.51,0,0,1,3.12-.74,6.17,6.17,0,0,1,4.15,1.28,4.58,4.58,0,0,1,1.48,3.63,5.88,5.88,0,0,1-.67,2.61,14.46,14.46,0,0,1-2.28,3.1l-3.93,4.14h7.43Z"/><path class="cls-87" d="M836.2,83.27V66h6.06A7.92,7.92,0,0,1,847,67.19a4.12,4.12,0,0,1,1.62,3.53A3.85,3.85,0,0,1,848,73a3.73,3.73,0,0,1-1.81,1.42,3.67,3.67,0,0,1,2.09,1.35,4,4,0,0,1,.77,2.47A4.55,4.55,0,0,1,847.46,82a7.18,7.18,0,0,1-4.54,1.31Zm3.56-10h2.64c1.79,0,2.69-.75,2.69-2.15a2,2,0,0,0-.68-1.69,3.6,3.6,0,0,0-2.15-.51h-2.5Zm0,2.52v4.67h3a3,3,0,0,0,2-.6,2.07,2.07,0,0,0,.7-1.66A2.16,2.16,0,0,0,843,75.74Z"/><path class="cls-87" d="M863.2,83.27H851.35V80.92l5.59-6a14.17,14.17,0,0,0,1.71-2.2A3.62,3.62,0,0,0,859.2,71a2.67,2.67,0,0,0-.58-1.81,2.12,2.12,0,0,0-1.67-.66,2.28,2.28,0,0,0-1.83.8,3.16,3.16,0,0,0-.67,2.11H851a5.71,5.71,0,0,1,.75-2.89,5.33,5.33,0,0,1,2.13-2,6.54,6.54,0,0,1,3.12-.74A6.1,6.1,0,0,1,861.16,67a4.51,4.51,0,0,1,1.48,3.62,5.87,5.87,0,0,1-.66,2.61,15.19,15.19,0,0,1-2.28,3.1l-3.93,4.14h7.43Z"/><path class="cls-88" d="M997.14,74.33c-1.34,3.16-4.58,3.93-7.21,1.72a7.48,7.48,0,0,0-9.45.1c-2.58,2.26-5.84,1.56-7.24-1.58a7.49,7.49,0,0,0-8.56-4c-3.31.92-5.94-1.13-5.84-4.56a7.52,7.52,0,0,0-6-7.34A4.35,4.35,0,0,1,949.58,52a7.49,7.49,0,0,0-2.19-9.2c-2.79-2-2.82-5.34-.08-7.4a7.49,7.49,0,0,0,2-9.24,4.35,4.35,0,0,1,3.15-6.71A7.51,7.51,0,0,0,958.29,12,4.34,4.34,0,0,1,964,7.34a7.5,7.5,0,0,0,8.48-4.19,4.35,4.35,0,0,1,7.21-1.73,7.48,7.48,0,0,0,9.45-.09,4.35,4.35,0,0,1,7.24,1.57,7.5,7.5,0,0,0,8.56,4c3.31-.92,5.94,1.13,5.84,4.56a7.49,7.49,0,0,0,6,7.33,4.35,4.35,0,0,1,3.29,6.64,7.49,7.49,0,0,0,2.19,9.2c2.79,2,2.82,5.34.08,7.41a7.49,7.49,0,0,0-2,9.24c1.63,3,.22,6-3.15,6.71a7.5,7.5,0,0,0-5.82,7.45,4.35,4.35,0,0,1-5.74,4.68A7.49,7.49,0,0,0,997.14,74.33Z"/><path class="cls-89" d="M996.86,73.51a4.24,4.24,0,0,1-7,1.68,7.32,7.32,0,0,0-9.24.1,4.26,4.26,0,0,1-7.08-1.54,7.3,7.3,0,0,0-8.36-3.92,4.26,4.26,0,0,1-5.71-4.46,7.3,7.3,0,0,0-5.83-7.16,4.25,4.25,0,0,1-3.21-6.49,7.33,7.33,0,0,0-2.14-9,4.25,4.25,0,0,1-.08-7.24,7.34,7.34,0,0,0,2-9,4.24,4.24,0,0,1,3.07-6.55,7.33,7.33,0,0,0,5.69-7.28,4.24,4.24,0,0,1,5.61-4.57A7.33,7.33,0,0,0,972.79,4a4.25,4.25,0,0,1,7-1.68,7.33,7.33,0,0,0,9.24-.09,4.24,4.24,0,0,1,7.07,1.54,7.33,7.33,0,0,0,8.37,3.92,4.24,4.24,0,0,1,5.7,4.45,7.33,7.33,0,0,0,5.84,7.17,4.25,4.25,0,0,1,3.21,6.49,7.32,7.32,0,0,0,2.14,9,4.24,4.24,0,0,1,.08,7.23,7.32,7.32,0,0,0-2,9,4.25,4.25,0,0,1-3.07,6.56,7.32,7.32,0,0,0-5.69,7.28,4.25,4.25,0,0,1-5.61,4.57A7.3,7.3,0,0,0,996.86,73.51Z"/><circle class="cls-90" cx="984.82" cy="38.74" r="31.72" transform="matrix(0.58, -0.82, 0.82, 0.58, 386.16, 821.67)"/><circle class="cls-91" cx="984.82" cy="38.74" r="29" transform="translate(-0.76 37.62) rotate(-2.19)"/><circle class="cls-92" cx="984.83" cy="38.74" r="27.35" transform="translate(84.51 439.75) rotate(-26.26)"/><path class="cls-93" d="M984.83,11.8a26.94,26.94,0,1,1-26.94,26.94A27,27,0,0,1,984.83,11.8m0-.41a27.35,27.35,0,1,0,27.35,27.35,27.35,27.35,0,0,0-27.35-27.35Z"/><path class="cls-94" d="M981.29,41.69a6.09,6.09,0,0,1-2.06,4.39,7.23,7.23,0,0,1-4.9,1.61,6.52,6.52,0,0,1-5.23-2.24,9.18,9.18,0,0,1-1.9-6.15v-1a10.35,10.35,0,0,1,.88-4.4,6.58,6.58,0,0,1,2.51-2.91,7.81,7.81,0,0,1,8.61.59,6.57,6.57,0,0,1,2.11,4.5h-3.56a3.59,3.59,0,0,0-.93-2.43,3.46,3.46,0,0,0-2.44-.76,3,3,0,0,0-2.66,1.28,7.1,7.1,0,0,0-.91,4v1.31a7.58,7.58,0,0,0,.85,4.09,2.94,2.94,0,0,0,2.67,1.3A3.51,3.51,0,0,0,976.8,44a3.41,3.41,0,0,0,.93-2.33Z"/><path class="cls-95" d="M991.6,47.45h-3.44V34.22l-4.09,1.27V32.7l7.16-2.56h.37Z"/><path class="cls-96" d="M1002.2,32.21h3.69v2.66h-3.69V39h-2.81V34.87H995.7V32.21h3.69v-4h2.81Z"/><path class="cls-97" d="M980.74,41.24a6.13,6.13,0,0,1-2.06,4.39,7.23,7.23,0,0,1-4.9,1.6A6.48,6.48,0,0,1,968.55,45a9.15,9.15,0,0,1-1.9-6.14V37.79a10.46,10.46,0,0,1,.87-4.39A6.6,6.6,0,0,1,970,30.49a7,7,0,0,1,3.79-1,7.1,7.1,0,0,1,4.82,1.6,6.57,6.57,0,0,1,2.11,4.5H977.2a3.63,3.63,0,0,0-.93-2.42,3.43,3.43,0,0,0-2.44-.76,3,3,0,0,0-2.67,1.28,7.1,7.1,0,0,0-.9,4v1.3a7.73,7.73,0,0,0,.84,4.1,3,3,0,0,0,2.68,1.29,3.56,3.56,0,0,0,2.47-.75,3.41,3.41,0,0,0,.93-2.33Z"/><path class="cls-97" d="M991,47h-3.43V33.77L983.52,35V32.25l7.16-2.56H991Z"/><path class="cls-98" d="M1001.65,31.75h3.69v2.67h-3.69v4.16h-2.81V34.42h-3.69V31.75h3.69v-4h2.81Z"/></g></g></g></svg>