<?xml version="1.0" encoding="utf-8"?>
<!-- Generator: Adobe Illustrator 22.1.0, SVG Export Plug-In . SVG Version: 6.00 Build 0)  -->
<svg version="1.1" id="Layer_1" xmlns="http://www.w3.org/2000/svg" xmlns:xlink="http://www.w3.org/1999/xlink" x="0px" y="0px"
	 viewBox="0 0 126.5 138.9" style="enable-background:new 0 0 126.5 138.9;" xml:space="preserve">
<style type="text/css">
	.st0{fill:#61C4F2;}
	.st1{fill:#F86464;}
	.st2{fill:#263357;}
</style>
<path class="st0" d="M46.8,128.1c-0.5,0.5-1.1,1.1-1.6,1.6c-4.1,0-8.3,0-12.4,0.1c-7.2,0-14.3,0.1-21.5,0.1c-2-0.8-3.9-1.6-5.9-2.4
	v-10.2c6.4,4.3,11.6,5,15,5c4.6-0.1,7.6-1.7,12.4-2.8c1.1-0.3,2.3-0.5,3.6-0.7v9.3H46.8z"/>
<path class="st1" d="M24.4,104.7c0.8-2.8,3.8-14.8-2.6-27.7C15.4,64.1,4.1,59.2,1.4,58.2c-0.6,2-2.3,8.9-0.8,17.4l6.7,2.3
	c0.6,0.2,0.9,0.9,0.7,1.5c-0.2,0.6-0.9,0.9-1.5,0.7l-5.4-1.8c0.6,2.4,1.5,5,2.8,7.6C10.4,98.7,21.7,103.6,24.4,104.7z"/>
<path class="st1" d="M119.3,30.8c-0.3-0.1-0.6-0.1-0.9-0.1c-3.5,0-6.3,2.8-6.3,6.3v4.5h12.6v-4.5C124.7,33.9,122.3,31.3,119.3,30.8z
	"/>
<circle class="st0" cx="88.6" cy="98.6" r="8.1"/>
<path class="st1" d="M104.2,96.6c1.3-2,0.4-4.7-1.8-5.5c-1.4-0.5-2.3-1.8-2.4-3.3c-0.1-2.4-2.4-4-4.7-3.4c-0.3,0.1-0.6,0.1-1,0.1
	c-1.1,0-2.2-0.5-2.9-1.4c-1.5-1.8-4.3-1.8-5.8,0c-0.9,1.1-2.4,1.6-3.9,1.3c-0.3-0.1-0.6-0.1-1-0.1c-1.9,0-3.6,1.5-3.7,3.5
	c-0.1,1.5-1,2.8-2.4,3.3c-2.2,0.8-3.1,3.5-1.8,5.5c0.8,1.2,0.8,2.8,0,4.1c-1.3,2-0.4,4.7,1.8,5.5c1.4,0.5,2.3,1.8,2.4,3.3
	c0.1,2.4,2.4,4,4.7,3.4c0.3-0.1,0.6-0.1,1-0.1c1.1,0,2.2,0.5,2.9,1.4c1.5,1.8,4.3,1.8,5.8,0c0.9-1.1,2.4-1.6,3.9-1.3
	c0.3,0.1,0.7,0.1,1,0.1c1.9,0,3.6-1.5,3.7-3.5c0.1-1.5,1-2.8,2.4-3.3c2.2-0.8,3.1-3.5,1.8-5.5C103.4,99.4,103.4,97.8,104.2,96.6z
	 M88.6,110.3c-6.5,0-11.7-5.3-11.7-11.7c0-6.5,5.3-11.7,11.7-11.7c6.5,0,11.7,5.3,11.7,11.7C100.3,105.1,95.1,110.3,88.6,110.3z"/>
<path class="st0" d="M85.9,31.2l-5.1-8.4l1-1.9L92,1.9H33.4L6.6,52.3h22.2c1.9,3.2,3.9,6.4,5.8,9.6c3.3-3,7.2-6.3,11.6-9.6h3
	c0.8-0.6,1.7-1.2,2.6-1.8c2.4-1.7,4.8-3.2,7.3-4.7c3.4-2.1,7-4,10.6-5.8c0.9-0.5,1.8-0.9,2.7-1.3l1.4-2.6
	C78.1,34.1,82.2,32.5,85.9,31.2z"/>
<path class="st1" d="M94.6,116.3c0,0-0.1,0-0.1,0c-1.4,1.7-3.5,2.7-5.7,2.7c-2.2,0-4.3-1-5.7-2.7c0,0-0.1-0.1-0.1,0
	c-1,0.3-2.1,0.3-3.2,0.1v22.4l8.7-8.7l8.7,8.7h0.5v-22.5C96.8,116.6,95.7,116.6,94.6,116.3z"/>
<g>
	<path class="st2" d="M25.2,4.5c1.2,0,2.3-1,2.3-2.3S26.5,0,25.2,0C24,0,23,1,23,2.3S24,4.5,25.2,4.5z"/>
	<path class="st2" d="M99.4,48.8c1,0,1.8-0.8,1.8-1.8s-0.8-1.8-1.8-1.8H74.2c-1,0-1.8,0.8-1.8,1.8s0.8,1.8,1.8,1.8H99.4z"/>
	<path class="st2" d="M58,57.8c0,1,0.8,1.8,1.8,1.8h39.7c1,0,1.8-0.8,1.8-1.8s-0.8-1.8-1.8-1.8H59.8C58.8,56,58,56.8,58,57.8z"/>
	<path class="st2" d="M101.2,68.6c0-1-0.8-1.8-1.8-1.8H47.2c-1,0-1.8,0.8-1.8,1.8c0,1,0.8,1.8,1.8,1.8h52.3
		C100.4,70.4,101.2,69.6,101.2,68.6z"/>
	<path class="st2" d="M74.2,79.4c0-1-0.8-1.8-1.8-1.8H47.2c-1,0-1.8,0.8-1.8,1.8c0,1,0.8,1.8,1.8,1.8h25.2
		C73.4,81.2,74.2,80.4,74.2,79.4z"/>
	<path class="st2" d="M47.2,92h14.4c1,0,1.8-0.8,1.8-1.8c0-1-0.8-1.8-1.8-1.8H47.2c-1,0-1.8,0.8-1.8,1.8C45.4,91.2,46.2,92,47.2,92z
		"/>
	<path class="st2" d="M70.6,101c0-1-0.8-1.8-1.8-1.8H47.2c-1,0-1.8,0.8-1.8,1.8c0,1,0.8,1.8,1.8,1.8h21.6
		C69.8,102.8,70.6,102,70.6,101z"/>
	<path class="st2" d="M47.2,110.1c-1,0-1.8,0.8-1.8,1.8s0.8,1.8,1.8,1.8h16.2c1,0,1.8-0.8,1.8-1.8s-0.8-1.8-1.8-1.8H47.2z"/>
	<path class="st2" d="M119.6,29.1c-0.4-0.1-0.8-0.1-1.3-0.1H86.7l-3.8-6.3L93.6,2.8c0.3-0.6,0.3-1.2,0-1.8c-0.3-0.5-0.9-0.9-1.5-0.9
		H33.4c-0.7,0-1.3,0.4-1.6,1L5,51.5c-0.3,0.6-0.3,1.2,0,1.8c0.3,0.5,0.9,0.9,1.5,0.9h21.2l5,8.3v27.7c0,0.1,0,0.2,0,0.4v12.1h-8.1
		c-0.2-0.6-0.4-1.2-0.7-1.8c-3-7.6-6.4-15.1-10.2-22.3c-0.5-0.9-1.6-1.2-2.4-0.8c-0.9,0.5-1.2,1.6-0.8,2.4c3.7,7.1,7.1,14.5,10.1,22
		c0.1,0.1,0.1,0.3,0.2,0.4h-6.2c-1,0-1.8,0.8-1.8,1.8v5.4l0,0c-5,0.5-9,4.7-9,9.9v6.2c0,3.1,2.5,5.7,5.7,5.7h24.7l0,0l0,0
		c0.1,0,0.3,0.1,0.5,0.1h45.2v-3.6H36.4v-14.7v-3.5v-3.6v-3.6V90.2c0-0.1,0-0.2,0-0.4V62.8c3.3-3,6.8-5.9,10.4-8.6
		c0.8-0.6,1.6-1.2,2.4-1.8c0,0,0,0,0,0c0.1-0.1,0.1-0.1,0.2-0.2c0.8-0.6,1.6-1.1,2.3-1.6c2.4-1.7,4.8-3.2,7.3-4.7
		c3.4-2.1,7-4,10.6-5.8c0.9-0.5,1.8-0.9,2.7-1.3c0,0,0,0,0,0c0.9-0.4,1.8-0.8,2.7-1.2c3.7-1.7,7.6-3.2,11.4-4.6
		c0.2-0.1,0.4-0.2,0.5-0.3h24.6c0,0,0,0,0,0c-0.2,0.3-0.3,0.6-0.5,0.8c0,0.1-0.1,0.2-0.1,0.2c-0.1,0.3-0.3,0.6-0.4,1c0,0,0,0,0,0
		c-0.1,0.3-0.2,0.7-0.2,1c0,0.1,0,0.2,0,0.3c0,0.4-0.1,0.7-0.1,1.1v4.5v86.5H97.8v3.6H112c1,0,1.8-0.8,1.8-1.8V43.4h10.8
		c1,0,1.8-0.8,1.8-1.8v-4.5C126.5,33.1,123.5,29.6,119.6,29.1z M22.2,106.3c0.4,1.2,0.9,2.3,1.3,3.5h-7.1v-3.5H22.2z M9.4,128
		c-1.1,0-2-0.9-2-2v-6.2c0-3.5,2.8-6.3,6.3-6.3H14c0.2,0.1,0.4,0.1,0.6,0.1l10.2,0c1.3,3.9,2.5,7.8,3.6,11.8
		c0.2,0.8,0.9,1.3,1.7,1.3c0.2,0,0.3,0,0.5-0.1c1-0.3,1.5-1.3,1.3-2.2c-1-3.6-2.1-7.3-3.3-10.9l4.3,0V128l0,0H9.4z M32.8,109.8
		L32.8,109.8h-5.5c-0.4-1.2-0.8-2.3-1.2-3.5h6.8V109.8z M9.6,50.5L34.5,3.7H89l-8.2,15.4l-5.6-9.4c-0.4-0.6-1-0.9-1.7-0.9
		C52.1,11,32.9,22.5,20.9,40.2l-0.1,0.2c-0.4,0.6-0.4,1.3-0.1,1.9l4.9,8.2H9.6z M72.5,34.6c-5.3,2.4-10.4,5.1-15.3,8.1
		c-4,2.4-7.9,5-11.6,7.8c-0.8,0.6-1.6,1.2-2.4,1.8c-0.8,0.6-1.5,1.2-2.3,1.8c-1.5,1.2-3.1,2.5-4.5,3.8c-0.5,0.4-0.9,0.8-1.4,1.2
		l-2.2-3.7L32,54.2l-2.2-3.6l-5.4-9c11.3-16.1,28.7-26.6,48.3-29l6.2,10.3l1.1,1.8l1.1,1.8l1.5,2.6l0.7,1.3
		c-1.8,0.7-3.6,1.4-5.4,2.1c-0.2,0.1-0.4,0.1-0.5,0.2c-0.7,0.3-1.4,0.6-2.1,0.9C74.3,33.8,73.4,34.2,72.5,34.6z M122.9,39.8h-9v-2.7
		c0-2.5,2-4.5,4.5-4.5c0.3,0,0.5,0,0.7,0.1c2.2,0.3,3.8,2.2,3.8,4.5V39.8z"/>
	<path class="st2" d="M119.3,110.1c1,0,1.8-0.8,1.8-1.8V56c0-1-0.8-1.8-1.8-1.8c-1,0-1.8,0.8-1.8,1.8v52.3
		C117.5,109.3,118.3,110.1,119.3,110.1z"/>
	<path class="st2" d="M4.8,44.2l19-35.7c0.5-0.9,0.1-2-0.7-2.4c-0.9-0.5-2-0.1-2.4,0.7l-19,35.7c-0.5,0.9-0.1,2,0.7,2.4
		c0.3,0.1,0.6,0.2,0.8,0.2C3.8,45.2,4.5,44.8,4.8,44.2z"/>
	<path class="st2" d="M45.3,26.1c-6.1,3.9-11.4,8.8-15.9,14.6c-0.5,0.6-0.5,1.4-0.1,2l3.1,5.2c0.3,0.6,0.9,0.9,1.5,0.9
		c0.3,0,0.6-0.1,0.9-0.3c0.9-0.5,1.1-1.6,0.6-2.5L33,41.9c4.1-5,8.9-9.3,14.3-12.8c0.8-0.5,1.1-1.7,0.5-2.5
		C47.3,25.8,46.2,25.6,45.3,26.1z"/>
	<path class="st2" d="M51.3,22.8c-1.2,0-2.3,1-2.3,2.3c0,1.2,1,2.3,2.3,2.3c1.2,0,2.3-1,2.3-2.3C53.6,23.9,52.5,22.8,51.3,22.8z"/>
	<circle class="st2" cx="119.3" cy="113.7" r="2.3"/>
	<polygon class="st2" points="87,131.7 90.1,131.7 88.5,130.2 	"/>
</g>
</svg>
