<?xml version="1.0" encoding="utf-8"?>
<!-- Generator: Adobe Illustrator 22.1.0, SVG Export Plug-In . SVG Version: 6.00 Build 0)  -->
<svg version="1.1" id="Layer_1" xmlns="http://www.w3.org/2000/svg" xmlns:xlink="http://www.w3.org/1999/xlink" x="0px" y="0px"
	 viewBox="0 0 116 159.4" style="enable-background:new 0 0 116 159.4;" xml:space="preserve">
<style type="text/css">
	.st0{fill:#606A6B;}
	.st1{fill:#4AC6E2;}
	.st2{fill:#FFFFFF;}
	.st3{fill:#CFD3D8;}
	.st4{fill:#11487B;}
	.st5{fill:#8E8E8E;}
	.st6{fill:#FDCFB2;}
	.st7{fill:#DBB3A1;}
	.st8{fill:#1C6DB6;}
	.st9{fill:#E6E6E5;}
	.st10{fill:#17457B;}
	.st11{fill:#005BAA;}
	.st12{fill:#1FA8BC;}
	.st13{fill:#E1AE88;}
	.st14{fill:#7E2818;}
	.st15{opacity:0.5;fill:#F7A399;}
	.st16{fill:#9F4C23;}
	.st17{fill:#6F320E;}
	.st18{fill:#B3562A;}
	.st19{fill:#781C16;}
	.st20{fill:#DD6B6B;}
	.st21{fill:#FBC196;}
	.st22{fill:#0D4870;}
	.st23{fill:#0A3044;}
	.st24{fill:#4A0F00;}
	.st25{fill:#245480;}
	.st26{fill:#0B4260;}
	.st27{fill:#B0B4D4;}
	.st28{fill:#868AC4;}
	.st29{fill:#604A53;}
	.st30{fill:#F26A67;}
	.st31{opacity:0.6;fill:#F6978F;}
	.st32{fill:#79421B;}
	.st33{fill:#231F20;}
	.st34{fill:#D6907A;}
	.st35{fill-rule:evenodd;clip-rule:evenodd;fill:#FBC196;}
	.st36{fill-rule:evenodd;clip-rule:evenodd;fill:#E1AE88;}
</style>
<g>
	<g>
		<path class="st0" d="M74.5,155.9c0,2,7.6,3.5,17,3.5c9.4,0,17-1.6,17-3.5c0-2-7.6-3.5-17-3.5C82.1,152.3,74.5,153.9,74.5,155.9z"
			/>
		<g>
			<path class="st1" d="M94.9,110c0,0,4.8-3.2,10.3,6.3c5.6,9.5,5.8,15.2-7.1,16.7C85.2,134.6,87.1,110.8,94.9,110z"/>
			<g>
				<path class="st2" d="M83.5,153.7l0.9-2.3c0,0-1,0.1-1.7-0.2c-0.8-0.3-1.2-1-1.2-1l-0.8,2.8C80.6,153.1,81.8,155.2,83.5,153.7z"
					/>
				<path class="st3" d="M83.4,153.1l0.6-1.7c0.2,0,0.3,0,0.3,0l-0.9,2.3c-1.7,1.4-2.9-0.7-2.9-0.7S81.8,155.2,83.4,153.1z"/>
				<path class="st4" d="M84,153.7c0.8,1.9-0.5,2.4-2.2,2.8c-2.1,0.6-4.1,1.5-6.2,0.2c-1.5-0.9-1.5-2.4-0.1-3.3
					c0.7-0.5,2-0.8,2.9-0.9c0.3,0,0.5,0,0.8,0c0.1-0.1,0.3-0.2,0.4-0.4c0.2-0.3,0.3-0.6,0.4-0.9c0.1-0.2,0.3-0.2,0.5-0.2
					c0.8,0.2,0.6,1.3,0.3,1.8c0,0-0.1,0.1-0.1,0.1c0.6,0,0.8,0.7,0.8,0.8c0.5,0,1.3-0.2,1.4-0.4C83.2,153.2,83.8,153.3,84,153.7z"/>
				<path class="st5" d="M75.6,156.7c2.1,1.3,4.1,0.4,6.2-0.2c1.1-0.3,2-0.6,2.4-1.3c0.1,0.2-0.2,0.7-0.2,0.7
					c-0.3,0.6-2.2,0.9-3,1.2c-1,0.4-2.1,0.6-3.1,0.6c-1.2-0.1-2.5-0.4-3-1.4c-0.2-0.4-0.2-0.7-0.2-1C74.6,155.9,75,156.4,75.6,156.7
					z"/>
				<path class="st3" d="M77,152.6c0.2,0.1,0.5,0.3,0.8,0.5c0.5,0.5,0.6,1.5,0.6,1.5l-0.5,0.2c0,0-0.1-0.7-0.6-1.3
					c-0.2-0.3-0.6-0.5-0.9-0.6C76.6,152.7,76.8,152.7,77,152.6z"/>
				<path class="st3" d="M78.1,152.4c0.3,0.1,0.6,0.3,0.7,0.5c0.5,0.5,0.5,1.3,0.5,1.3l-0.4,0.1c0,0-0.1-0.6-0.6-1.2
					c-0.3-0.3-0.7-0.5-1-0.6C77.7,152.4,77.9,152.4,78.1,152.4z"/>
				<path class="st6" d="M82.6,151.3c-0.7-0.3-1.2-0.9-1.2-1c0-0.1,0-0.1,0.1-0.2l2.7-11.5c1.2,0.9,2.6,1.5,4.1,2
					c-1,2.7-3.2,9.2-3.9,10.8C84.1,151.5,83.2,151.5,82.6,151.3z"/>
				<g>
					<path class="st7" d="M87.8,140.5c0.1,0.1,0.3,0.1,0.4,0.2c-1,2.7-3.2,9.2-3.9,10.8c-0.1,0-0.1,0-0.3,0
						C84.7,149.8,86.8,143.3,87.8,140.5z"/>
				</g>
			</g>
			<g>
				<path class="st2" d="M104.6,148.4l-1.5-1.9c0,0-0.4,0.9-1,1.4c-0.6,0.5-1.4,0.6-1.4,0.6l2,2.1
					C102.8,150.6,105.2,150.1,104.6,148.4z"/>
				<path class="st3" d="M104.1,148.4l-1.2-1.5c0.1-0.2,0.2-0.4,0.2-0.4l1.5,1.9c0.6,1.7-1.8,2.2-1.8,2.2l-0.1-0.1
					C103.3,150.3,104.5,149.6,104.1,148.4z"/>
				<path class="st6" d="M96.4,137.5c2.3,3,5.3,7.1,6.8,9.1l0-0.1c0,0-0.4,0.9-1,1.4c-0.6,0.5-1.4,0.6-1.4,0.6l0,0.1
					c0,0-0.1-0.1-0.1-0.1l-7.8-8.6C94.1,139.1,95.4,138.4,96.4,137.5z"/>
				<g>
					<path class="st7" d="M103,146.9c-1.6-2.2-4.7-6.4-6.8-9.2c0.1-0.1,0.1-0.1,0.2-0.2c2.3,3,5.3,7.1,6.8,9.1l0-0.1
						C103.2,146.5,103.1,146.7,103,146.9z"/>
				</g>
				<g>
					<path class="st4" d="M99.4,153.2c0.9-1.9,1.9-2.7,1.9-2.9c0-0.2-0.2-0.3-0.2-0.5c0-0.2,0.1-0.4,0.3-0.5
						c0.6-0.3,1.1,0.3,1.4,0.7c0.1,0.1,0.1,0.2,0.2,0.2c0.6-0.1,1.8-1.3,1.6-2c0,0,1.8,0.3,1.6,2c0.1,0.4-1.6,4.1-3,5
						C101.1,156.8,98.2,155.8,99.4,153.2z"/>
					<g>
						<path class="st8" d="M101.4,150.4c0,0,0,0.1-0.1,0.1C101.3,150.5,101.3,150.4,101.4,150.4c-0.1,0-0.1-0.1,0-0.1
							C101.3,150.3,101.4,150.3,101.4,150.4z"/>
						<path class="st5" d="M103.2,155.4c1.4-0.9,3.1-4.7,3-5c0-0.2,0-0.3,0-0.4c0.1,0.3,0.2,0.6,0.2,1c0.1,0.4-1.6,4.1-3,5
							c-1.7,1.2-3.9,0.7-4.1-0.8C99.9,156.2,101.8,156.3,103.2,155.4z"/>
					</g>
					<g>
						<path class="st3" d="M99.8,152.3c0.1-0.2,0.2-0.4,0.3-0.5c0.2,0,0.3-0.1,0.5-0.1c0.7,0,1.6,0.9,1.6,0.9l-0.4,0.6
							c0,0-0.5-0.7-1.4-0.9C100.3,152.2,100,152.2,99.8,152.3z"/>
						<path class="st3" d="M100.5,151.3c0.2-0.2,0.4-0.4,0.5-0.6c0.1,0,0.2,0,0.4,0c0.7,0,1.5,0.6,1.5,0.6l-0.3,0.5
							c0,0-0.5-0.5-1.3-0.6C100.9,151.2,100.7,151.2,100.5,151.3z"/>
					</g>
				</g>
			</g>
			<path class="st2" d="M79.4,115.1c1.3-3.6,7-7.3,7.3-7.4c0.1,0,9.2,1.1,9.6,1.6c0.4,0.4-0.1,5.5,0.7,10c0.8,4.5,2.7,10.4,2.5,10.5
				c-10.2,3.5-18.8,0.5-18.8,0.5c0.6-0.4,0.5-5.6,1.7-12.1C81,117,79.3,115.4,79.4,115.1z"/>
			<path class="st9" d="M81.9,129.2c0.6-0.4-0.4-4.8,0.4-11c-1.2,6.4-1.2,11.6-1.7,12.1c0,0,8.6,2.9,18.8-0.5
				C89.4,132.2,81.9,129.2,81.9,129.2z"/>
			<path class="st6" d="M69.8,113c0,0-0.1-0.3-0.5-0.6c-0.3-0.4-1.2-1.9-1.1-2.3c0.2-0.7,2.3,2.1,2.3,2.1s-1.6-2.9-1.3-3.2
				c0.4-0.3,2.4,2.6,2.4,2.6s-1-2.5-0.4-2.7c0.5-0.2,1.5,2.3,1.7,2.6c0-0.1,0.1-0.3,0.1-0.4c0.4-1.5,1.6-1.1,1.4-0.9
				c-0.2,0.2-0.6,0.8-0.5,1.8c0.1,0.9-0.4,2.1-0.4,2.1s0.5,2,3.4,5c0.8-0.5,2-2.5,2.8-3.5c0.5,0.5,1.6,1.7,2.5,2.4
				c-0.4,0.8-2.9,3.5-3.5,3.8c-2.3,1.5-3.9-1.1-4.2-1.5c-1.4-2-2.9-4.9-3-4.9c-0.8-0.6-1.4-0.9-1.4-0.9s0,0,0,0
				c-1-0.7-1.5-1.2-1.8-1.7C67.9,112.1,69.8,113,69.8,113z"/>
			<path class="st7" d="M78.5,121.5c0.6-0.3,2.9-2.8,3.4-3.7c0.1,0.1,0.2,0.2,0.3,0.2c-0.4,0.8-2.9,3.5-3.5,3.8
				c-2.3,1.5-3.9-1.1-4.2-1.5C74.5,120.4,76.2,123,78.5,121.5z"/>
			<g>
				<path class="st10" d="M87.1,131.3c-0.4,0-0.9-0.1-1.3-0.1c-1.4-0.1-2.6-0.4-3.5-0.5c1.8,2.3,6.7,8.3,8.8,10.2
					c0.8,0.7,1.5,1.5,1.8,1.4c1.2-0.5,3.2-1.6,4.9-3.6c0.3-0.4-2.1-5.9-3-7.8C92,131.4,89.3,131.4,87.1,131.3z"/>
			</g>
			<g>
				<path class="st11" d="M87.1,131.3c-0.4,0-0.8,0-1.2-0.1c-0.7,2.4-1.9,6.5-2.5,8.8c2.2,1.4,4.7,2.5,7.3,2.8
					c2.6-2.7,6-9.3,7.2-12.7C93.8,131.3,90,131.5,87.1,131.3z"/>
			</g>
			<path class="st12" d="M82.9,118.3c0,0,0.8-5.7,3-7.8c2.2-2.1,2.6-2.1,0.7-2.8c-1.9-0.6-5,3.8-5,6
				C81.5,117.9,82.9,118.3,82.9,118.3z"/>
			<path class="st9" d="M86,109.3c-0.5,1.6-1.2,3.9-1.1,3.9c0.8-0.5,1.9-0.3,2.5,0c-0.6-0.1-2-0.2-2.9,0.4
				C84.3,113.7,85.3,111.1,86,109.3z"/>
			<path class="st6" d="M87.3,109.5c0.1-0.4,0.2-1,0.4-1.5c1.6,0.4,3.3,0.6,4.9,0.6c-1,1.5-3.3,4.5-4.5,4.6
				C86.8,113.4,87.1,111,87.3,109.5z"/>
			<path class="st2" d="M86.5,107.7l1.3-0.1c0,0,0,0.2-0.1,0.5c0,0,0,0,0,0c-0.1,0.4-0.3,1-0.4,1.5c-0.2,1.4-0.4,3.6,0.5,3.8
				c0,0.1,0,0.1,0,0.1s-1.7-0.9-2.9-0.2C84.8,113.3,86.5,107.7,86.5,107.7z"/>
			<path class="st7" d="M87.6,108.1c1.6,0.4,3.3,0.6,4.9,0.6c-0.2,0.2-0.4,0.5-0.6,0.8C90.3,109.3,87.5,108.4,87.6,108.1z"/>
			<path class="st12" d="M97.7,109c0,0-0.7-0.6-2.3-0.4c-1.6,0.2-2.6,3.1-1.9,6.5c1.2,5.8,6,12.2,6.7,12.1c0.7-0.1-3.4-4.7-3.3-11.7
				C96.9,112.1,97.3,109.1,97.7,109z"/>
			<path class="st2" d="M87.6,113.4c0,0,1.1-0.3,2.3-1.5c0.7-0.8,2.4-3.4,2.4-3.4l1.3,0.3c0,0-2,6.3-2.1,6.1
				C90.3,113.6,87.6,113.4,87.6,113.4z"/>
			<path class="st9" d="M91.5,114.8c0.1,0.1,1.8-5,2.2-6.2c0,0-1.8,7.1-1.9,7c-1-0.9-3-1.9-3.7-2.2
				C88.9,113.5,90.6,113.9,91.5,114.8z"/>
			<g>
				<path class="st6" d="M77,88.8c0,1.7-1.1,3-2.5,3c-1.4,0-2.6-1.3-2.6-3c0-1.7,1.1-3,2.5-3C75.8,85.8,76.9,87.1,77,88.8z"/>
				<path class="st6" d="M98.4,71.5C88.2,68.8,77.7,74.8,75,84.9c-2.7,10.2,3.4,20.6,13.6,23.4c10.2,2.7,20.7-3.3,23.4-13.4
					C114.8,84.7,108.6,74.3,98.4,71.5z"/>
				<path class="st13" d="M72.8,88.5c0-0.8,0.6-1.4,1.3-1.4c0.2,0,0.3,0,0.5,0.1c-0.1,0.9-0.2,1.8-0.2,2.7c-0.1,0-0.2,0.1-0.3,0
					C73.4,90,72.8,89.3,72.8,88.5z"/>
				<path class="st14" d="M85.1,89.2c-0.4,0.7-1,1.1-1.5,0.9c-0.5-0.2-0.6-1-0.2-1.8c0.4-0.7,1-1.1,1.5-0.9
					C85.3,87.7,85.4,88.5,85.1,89.2z"/>
				<path class="st14" d="M101.4,96c-0.4,0.7-1,1.1-1.5,0.9c-0.5-0.2-0.6-1-0.2-1.8c0.4-0.7,1-1.1,1.5-0.9
					C101.6,94.4,101.7,95.2,101.4,96z"/>
				<g>
					<path class="st14" d="M103.7,92.5c-0.2,0.1-0.5-0.9-1.4-1.3c-0.9-0.3-1.9,0.1-1.9-0.1c-0.1-0.1,0.8-0.9,2.2-0.5
						C103.9,91.3,103.8,92.6,103.7,92.5z"/>
				</g>
				<g>
					<path class="st14" d="M87.5,85.9C87.3,86,87,85,86.1,84.7c-0.9-0.3-1.9,0.1-1.9-0.1c-0.1-0.1,0.8-0.9,2.1-0.5
						C87.7,84.7,87.6,86,87.5,85.9z"/>
				</g>
				<path class="st15" d="M97.7,98.8c-0.2,0.7,0.7,1.5,2,1.8c1.3,0.3,2.5,0.1,2.7-0.6c0.2-0.7-0.7-1.5-2-1.8
					C99,97.8,97.9,98.1,97.7,98.8z"/>
				<path class="st15" d="M79.7,91c-0.3,0.6,0.4,1.6,1.6,2.2c1.2,0.6,2.4,0.5,2.7-0.1c0.3-0.6-0.4-1.6-1.6-2.2
					C81.2,90.3,80,90.3,79.7,91z"/>
				<path class="st16" d="M74.9,89.2c-0.3-1.2,2.6-14,19.4-5.5c9.7,4.9,15.7,0.6,15.7,0.6c-3.3,3.1-2.2,7.8-2.1,10.7
					c0.1,2.5-0.6,5.9-0.6,5.9c1.9,0.7,2.8,0.5,2.8,0.5c10.3-10.6,4.2-19.3,4.2-19.3c0.7-6.6-7-13.2-13.6-14.9
					c-13.2-3.4-19.2,2-20.4,2.5c1.7-0.1,2.3-0.3,4.2,0.1c-8.7,1.3-8.9,8.1-8.9,8.2c0.4-1.4,2.9-2.2,2.9-2.2S72.6,80.9,74.9,89.2z"/>
				<path class="st17" d="M78.5,75.7c0,0-2.6,0.9-2.9,2.2c0,0,0-0.6,0.2-1.3l0,0c0.6-2.1,2.4-5.9,8.7-6.9c-1.9-0.4-2.5-0.2-4.2-0.1
					c0.6-0.3,2.7-2,6.6-3c-2.5,0.9-3.9,2.1-4.4,2.3c1.7-0.1,3.3,0.2,5.2,0.6c-5.2,0.6-9.5,2-10.9,6.4c0.8-0.8,3.3-1.5,3.3-1.5
					s-5.6,4.7-4.5,11.9c-0.6,1.3-0.7,2.5-0.6,2.8C72.6,80.9,78.5,75.7,78.5,75.7z"/>
				<path class="st17" d="M95.2,82.6c9.7,4.9,15.7,0.6,15.7,0.6c-3.3,3.1-2.2,7.8-2.1,10.7c0.1,1.9-0.7,5.1-1.5,6.6c0,0,0,0,0,0
					c0,0,0.6-3,0.5-5.5c-0.2-2.9-1.2-7.6,2.1-10.7c0,0-6.1,4.4-15.7-0.6c-8.6-4.4-13.5-3.2-16.3-0.8C80.4,79.9,85.5,77.7,95.2,82.6z
					"/>
				<path class="st18" d="M96.4,78.2c9,4.4,14.4,0.1,14.4,0.1c-0.3,0.3-5.2,5.5-14.3,1.1c-6.4-3-9.6-4.7-12.5-2.5
					C85.7,74.6,88.2,74.2,96.4,78.2z"/>
				<path class="st17" d="M100,76.4c6.9,4.2,10.9,0.4,10.9,0.4c-0.2,0.3-3.8,5-10.8,0.7c-4.9-2.9-7.4-4.6-9.5-2.6
					C91.8,72.9,93.7,72.6,100,76.4z"/>
				<g>
					<path class="st19" d="M84.2,97.4c0,3,1.3,5.9,4.3,6.7c4.1,1.1,6.8-3,6.8-3S88.7,101.2,84.2,97.4z"/>
					<path class="st20" d="M88.4,104c-1.1-0.3-2-0.9-2.7-1.7c2.6-0.9,4.4,0.8,5.1,1.7C90.1,104.3,89.3,104.3,88.4,104z"/>
					<path class="st2" d="M84.9,98c3.3,2.4,7.4,2.9,9.3,3c-0.5,0.5-1,1-1.5,1.1c-1.4,0.1-6.5-1.4-7.4-2.7C85,99,84.9,98.5,84.9,98z"
						/>
				</g>
				<path class="st13" d="M89.1,95.3c0,1.2,0.8,1.3,1.4,1.7c-0.8,0.2-2.5-0.1-2.7-1.1c-0.3-1.6,2.7-3,3.1-2.7
					C90.5,93.3,89.2,94.3,89.1,95.3z"/>
				<path class="st6" d="M111.6,103.4c-1.6,0.8-3.5,0.3-4.2-1.1c-0.7-1.4,0-3.2,1.6-4c1.6-0.8,3.5-0.3,4.2,1.1
					C113.9,100.8,113.2,102.6,111.6,103.4z"/>
				<g>
					<path class="st13" d="M111.3,100.2c0.3,0.7-0.1,1.6-0.9,2c-0.8,0.3-1.6,0.1-2-0.5c0.5-0.7,1-1.5,1.5-2.3
						C110.5,99.3,111,99.6,111.3,100.2z"/>
				</g>
			</g>
			<path class="st2" d="M104.4,114c0,0-2.2,3.6-4.2,3.9c0,0-2.4-3-3.2-3.7c-0.8-0.8-2.5-3.6-1.1-4.7c1.3-1.1,3.4-0.1,5.2,1.3
				C101.8,111.4,104.1,113.8,104.4,114z"/>
			<path class="st6" d="M95.4,121.2c-0.3-0.6,0.3-1.2,0.5-0.9c0.2,0.2,0.3,0.4,0.9,0.6c0.6,0.2,1.3,0.2,1.3,0.2s0-0.1-0.3-0.7
				c-0.4-0.6,0-1.3,0.3-0.7c0.3,0.5,1,1.3,1.4,1.6c0,0,0,0,0,0c0,0,0,0,0,0h0l0,0c0.2,0,3.2-1.3,4.5-1.8c-0.2-0.4-1.2-1.2-2.2-2.3
				c1.1-0.9,2.1-2.4,2.5-2.9c1.2,1.2,3.2,3.6,3.7,4.3c1.3,2.1-0.3,2.6-0.3,2.6c-0.3,0.1-5.5,1.7-7.5,2.3c0,0-0.1,0.1-0.2,0.1
				c-1.2,0.9-3,1.3-3.8,0.7c-0.8-0.6-0.5-0.8-0.5-0.8c-0.7-0.6-0.4-1-0.4-1C94.9,121.7,95.4,121.2,95.4,121.2z"/>
			<g>
				<path class="st6" d="M99.6,121.3c0,0-1.1-1.1-1.5-1.7c-0.4-0.6-0.7,0.1-0.3,0.7c0.3,0.6,0.3,0.7,0.3,0.7s-0.6,0.1-1.3-0.2
					c-0.6-0.2-0.8-0.4-0.9-0.6c-0.2-0.2-0.8,0.3-0.5,0.9c0,0-0.5,0.6,0,1.2c0,0-0.4,0.4,0.4,1c0,0-0.3,0.2,0.5,0.8
					c0.8,0.6,2.7,0.1,3.8-0.7C101.2,122.6,100.2,121.4,99.6,121.3z"/>
				<g>
					<path class="st7" d="M98,121c0.3,0,0.4,0,0.4,0s0-0.3-0.4-0.9c-0.1-0.3-0.2-0.5-0.2-0.7c-0.3-0.4-0.6,0.3-0.2,0.9
						C97.9,120.6,98,120.9,98,121z"/>
					<path class="st7" d="M96.7,123.9c-0.8-0.6-0.5-0.8-0.5-0.8c-0.7-0.6-0.4-1-0.4-1c-0.5-0.6-0.1-1.1-0.1-1.1
						c-0.1-0.3,0-0.6,0.1-0.8c-0.2-0.2-0.7,0.4-0.5,0.9c0,0-0.5,0.6,0,1.2c0,0-0.4,0.4,0.4,1c0,0-0.3,0.2,0.5,0.8
						c0.6,0.5,1.8,0.3,2.8-0.1C98.1,124.3,97.3,124.3,96.7,123.9z"/>
				</g>
			</g>
		</g>
	</g>
	<g>
		<path class="st0" d="M12.2,153.7c0,2.8,9.2,5.2,20.5,5.2c11.3,0,20.5-2.3,20.5-5.2c0-2.8-9.2-5.2-20.5-5.2
			C21.4,148.5,12.2,150.8,12.2,153.7z"/>
		<g>
			<g>
				<path class="st21" d="M44.1,147.2l-4-5.2c1.6-8,2-16,2-21.1l-6.6-0.7l1.7,22.8c0,0,1.4,5.5,2.7,7.2c1.4,1.9,3.4,2.5,4.7,1.4
					C45.9,150.5,44.1,147.2,44.1,147.2z"/>
			</g>
			<g>
				<path class="st13" d="M40.6,149.4c-1.3-1.8-2.7-7.2-2.7-7.2l-1.6-21.9l-0.7-0.1l1.7,22.8c0,0,1.4,5.5,2.7,7.2
					c1.4,1.9,3.4,2.5,4.7,1.4c0.2-0.1,0.3-0.3,0.4-0.6C43.7,151.7,41.9,151.1,40.6,149.4z"/>
			</g>
			<path class="st22" d="M44,147.1c0.3,0.3,0.1,1.3-0.1,1.6c-0.7,1.5-3.1,0-3.7-0.8c-0.9-1.2-1.6-2.6-2.4-3.8
				c-0.1-0.1-0.7-1-0.7-1.1c0,0-0.5,1.2,0,2.9c0,0,2.1,4.3,3.2,5.9c1,1.5,2.8,2.3,3.9,2.2C46,153.8,48,151.7,44,147.1z"/>
			<g>
				<path class="st23" d="M39.4,152.7l-0.7,0.1l-1.6-6.9c0.1,0.2,1.2,2.4,2.2,4.2L39.4,152.7z"/>
			</g>
		</g>
		<g>
			<g>
				<path class="st21" d="M28,147.4l-2.4-6c3.7-7.2,6.2-14.9,7.6-19.8l-6.2-2.5l-4.5,22.4c0,0-0.1,5.6,0.7,7.7
					c0.8,2.2,2.6,3.3,4.1,2.6C28.8,151.1,28,147.4,28,147.4z"/>
			</g>
			<g>
				<path class="st13" d="M24,148.6c-0.8-2.1-0.7-7.7-0.7-7.7l4.3-21.6l-0.7-0.3l-4.5,22.4c0,0-0.1,5.6,0.7,7.7
					c0.8,2.2,2.6,3.3,4.1,2.6c0.2-0.1,0.4-0.3,0.5-0.5C26.4,151.7,24.8,150.6,24,148.6z"/>
			</g>
			<path class="st22" d="M27.9,147.2c0.2,0.4-0.3,1.3-0.5,1.5c-1.1,1.2-3-0.8-3.3-1.8c-0.5-1.4-0.9-2.9-1.3-4.3
				c0-0.1-0.5-1.1-0.4-1.2c0,0-0.8,1-0.8,2.8c0,0,0.9,4.7,1.5,6.6c0.5,1.7,2.1,3,3.1,3.1C28,154.3,30.6,152.8,27.9,147.2z"/>
			<g>
				<path class="st23" d="M22,151.5l-0.7-0.1l0.3-7.1c0,0.2,0.5,2.6,1,4.7L22,151.5z"/>
			</g>
		</g>
		<path class="st24" d="M61.4,29.2C56.7,10,41.8-2.8,28.1,0.5c-1.8,0.4-3.4,1.1-5,2c-1.8-0.1-3.6,0.1-5.3,0.5
			C4.1,6.4-3.3,24.6,1.4,43.8c0.8,3.4,5.8,26.4,22.8,27.1c0,0,15.3,1,23.6-3.6c0,0,8.2-3.4,12.3-11.9C63,48.1,63.7,38.7,61.4,29.2z"
			/>
		<g>
			<path class="st25" d="M46.8,122.1c0-1.7,0.1-10.4,0.1-13.5c0-4.6-1.4-12.5-1.9-14.8c-1.6,1-5.6,2.1-11.2,2.2
				c-4.6,0.1-8.3-0.8-10.4-1.6c-0.7,2.5-1.8,7.6-2.1,12.6c-0.5,7.4-0.5,14.4-0.5,15.1H46.8z"/>
			<g>
				<path class="st26" d="M45,93.8c-0.4,0.2-0.8,0.4-1.4,0.6c0.6,2.9,1.8,9.9,1.8,14.2c0,3.1-0.1,11.8-0.1,13.5h1.5
					c0-1.7,0.1-10.4,0.1-13.5C47,104,45.5,96.1,45,93.8z"/>
			</g>
		</g>
		<path class="st27" d="M31.2,60.4c0,0-2.2-0.2-4,1.3c-2.3,1.9-1.8,10.4-1.8,14.8c0,0-0.9,10.9-2.1,12.8c-1.2,1.9-2.6,3.6-2.7,4.2
			c0,0.6,5.5,3.3,13.5,3.1c8-0.2,12.9-2.3,13.1-3.3c0.2-1-3.2-12.5-3.3-17.7c0,0,0-12.9-1.7-14.2C40.5,60,31.2,60.4,31.2,60.4z"/>
		<path class="st28" d="M43.9,75.5c-0.2,0.2-0.4,3.2-0.4,3.2c0.1,5.1,2,13.1,1.9,14.1c-0.2,1-5.1,3.1-13.1,3.3
			C30,96.2,27.8,96,26,95.7c2.2,0.5,5,0.9,8.2,0.8c8-0.2,12.9-2.3,13.1-3.3C47.4,92.2,44,80.7,43.9,75.5
			C43.9,75.5,43.9,75.5,43.9,75.5z"/>
		<path class="st28" d="M27.2,61.7C16.6,63,20.1,74.5,15.9,76.6c1.5,1.7,8.9,0.3,9.5-0.5C25.3,71.5,25,63.5,27.2,61.7z"/>
		<path class="st28" d="M39.5,60l2,0.5c0,0,0,2.5,0.2,8.8c0,0-3.8-0.8-5.9-1.4C35.8,68,39.4,60.8,39.5,60z"/>
		<g>
			<path class="st28" d="M30.8,59.9l-1.7,0.5c0,0-0.3,2.5-0.5,8.9c0,0,3.7-0.8,5.7-1.4C34.4,67.9,30.9,60.7,30.8,59.9z"/>
			<path class="st21" d="M35.8,68c0,0,3.6-7,3.7-7.9c-1.5-0.3-2-3.1-2-3.1l-5.4-0.1c0,0,0,2.5-0.8,2.8c-0.2,0.1-0.4,0.1-0.5,0.2
				c0,0.8,3.6,7.9,3.6,8c0.2,0.2,0.4,0.3,0.5,0.4C35.1,68.4,35.4,68.3,35.8,68L35.8,68z"/>
		</g>
		<path class="st21" d="M56.7,26.9c2.9,14.5-6.6,28.6-21.1,31.5C21.1,61.3,6.9,51.9,4.1,37.3C1.2,22.8,10.6,8.7,25.2,5.8
			C39.7,2.9,53.8,12.4,56.7,26.9z"/>
		<g>
			<path class="st29" d="M42.6,26.6c-0.2,0.3-1.3-0.7-2.7-0.4c-1.3,0.4-2.1,1.6-2.3,1.5c-0.2,0,0.2-1.7,2.1-2.3
				C41.8,25,42.7,26.6,42.6,26.6z"/>
		</g>
		<g>
			<path class="st29" d="M19.7,33.9c-0.2,0.3-1.3-0.6-2.7-0.4c-1.3,0.4-2.1,1.6-2.3,1.5c-0.2,0,0.1-1.7,2.1-2.3
				C18.9,32.3,19.9,33.9,19.7,33.9z"/>
		</g>
		<path class="st19" d="M26.1,48c0,0,4-0.1,7.1-0.9c3.1-0.8,6.7-2.6,6.7-2.6s0.6,7.8-6.4,8.7C28.6,53.9,26.1,48,26.1,48z"/>
		<path class="st2" d="M33.5,48.5c2.5-0.6,5.3-1.9,6.3-2.4c0.1-0.9,0.1-1.6,0.1-1.6s-3.6,1.9-6.7,2.6c-3.1,0.8-7.1,0.9-7.1,0.9
			s0.3,0.6,0.8,1.4C27.9,49.4,31,49.1,33.5,48.5z"/>
		<path class="st30" d="M38.9,49.4c-4.9-1-8.5,1.3-9.9,2.5c1.2,1,2.7,1.7,4.5,1.4C36.4,52.8,38,51.2,38.9,49.4z"/>
		<path class="st31" d="M42.1,38.2c0.3,0.9,2,1.2,3.7,0.6c1.8-0.6,2.9-1.8,2.6-2.7c-0.3-0.9-2-1.2-3.7-0.6
			C42.9,36.1,41.8,37.3,42.1,38.2z"/>
		<path class="st31" d="M15,46.5c0.3,0.9,1.9,1.3,3.7,0.8c1.8-0.5,3-1.7,2.8-2.6c-0.3-0.9-1.9-1.3-3.7-0.8
			C16,44.3,14.8,45.5,15,46.5z"/>
		<path class="st24" d="M56.3,22.2C50.7,1.6,30.2,3.2,30.1,3.4C3.2,6,0.9,29.1,0.8,31.1c0,0,14,0.5,28-17.3
			c1.1,0.1,25.6,3.1,28,23.4C57.3,36.8,57.6,26.9,56.3,22.2z"/>
		<path class="st32" d="M28.7,13.9C16.8,29,1.1,30.5,1.1,30.5C18.2,34.8,28.9,13.9,28.7,13.9z"/>
		<g>
			<path class="st33" d="M42.6,32.3c0.3,1.2-0.1,2.4-0.9,2.5c-0.8,0.2-1.7-0.7-2-1.9c-0.3-1.2,0.1-2.4,0.9-2.5
				C41.4,30.2,42.3,31,42.6,32.3z"/>
			<path class="st33" d="M41,30.8c0,0,1-0.6,1.2-1.6c0,0,0.4,0.2,0.2,0.8c-0.2,0.7-0.9,1.1-0.9,1.1L41,30.8z"/>
			<path class="st33" d="M41.8,31.7c0,0,0.9-0.5,1.1-1.4c0,0,0.3,0.2,0.2,0.7c-0.2,0.6-0.8,1-0.8,1L41.8,31.7z"/>
		</g>
		<g>
			<path class="st33" d="M17.7,40c0.3,1.2,1.2,2.1,2,1.9c0.8-0.2,1.2-1.3,0.9-2.6c-0.3-1.2-1.2-2.1-2-1.9
				C17.8,37.6,17.4,38.8,17.7,40z"/>
			<path class="st33" d="M18.5,38c0,0-1.2-0.1-1.8-0.9c0,0-0.3,0.4,0.2,0.8c0.5,0.5,1.3,0.6,1.3,0.6L18.5,38z"/>
			<path class="st33" d="M18.1,39.1c0,0-1-0.1-1.6-0.8c0,0-0.2,0.3,0.1,0.7c0.4,0.4,1.1,0.5,1.1,0.5L18.1,39.1z"/>
		</g>
		<path class="st32" d="M56.9,37.4c0,0,2.9,13.9-6.7,16.1C50.2,53.5,56.2,50.8,56.9,37.4z"/>
		<path class="st32" d="M27.8,5.4c0,0,17.8-4.1,24.8,11.8C52.7,17.2,47.7,5.9,27.8,5.4z"/>
		<g>
			<path class="st13" d="M31.9,58.9c0,0.1,3.7,0.7,6.3-0.1c-0.2-0.3-0.2-0.6-0.3-0.9C36.2,58.5,32.1,58.9,31.9,58.9z"/>
		</g>
		<path class="st34" d="M30,37.7c0,0-3.5,3.8,0.8,4.8c0,0-4.6,0.1-3.5-2.4C27.9,38.5,30,37.7,30,37.7z"/>
		<path class="st28" d="M42.2,61.3c1.7,1.3,1.7,14.2,1.7,14.2c0,0.2,0,0.3,0,0.5c0,0,0,0,0,0c3.5-0.8,7.4-3.5,8.2-4.6
			C49.8,68,45.2,61.7,42.2,61.3z"/>
		<path class="st24" d="M53.9,58.3c-4.3,0-4.4-0.2-8.6-1.1c-0.3,0.4-0.5,0.7-0.7,1.2c-0.4,1.1,0,3.8,0.4,5c1.2,3.2,4.9,9-0.6,10.2
			c2.4,0.3,5.1-2.1,4.9-4.4c-0.1-1.9,1.7-3.4,3.2-4.6C55.6,62.4,55.2,59.8,53.9,58.3z"/>
		<g>
			<path class="st32" d="M47.3,71.4c2.1-2.2-0.2-6.6-1.2-9.2c-0.4-1.2-1.2-3.7-0.8-4.9c-0.3,0.4-0.5,0.7-0.7,1.2
				c-0.4,1.1,0,3.8,0.4,5C45.8,65.6,47.9,69,47.3,71.4z"/>
		</g>
		<path class="st32" d="M10.7,54.9c0,0,3.3,10.8,12.9,7.4C23.6,62.4,15.5,62.3,10.7,54.9z"/>
		<g>
			<path class="st35" d="M73.3,59.6C72,61,72,61.8,71.6,61.3c-0.4-0.5,0.5-1.9,0.9-4.2c0.5-2.2-0.7-2.9-1.4-0.5
				c-0.8,2.4-1.5,4.3-1.2,2.7c0.3-1.5,0.5-2.6,0.6-5.1c0-1.4-1-2.3-1.5,1.1c-0.5,3.4-1.3,4.4-1.2,2c0.1-1.2-0.5-2.8-0.9-2.9
				c-0.9-0.3-0.6,0.6-0.8,2.9c-0.3,2.6-0.1,4.3-1.4,2.1c-0.9-1.5-2.1-1.8-1.3,1c0.9,3.3,2,2.6,2.1,4.4c0.3,4.4-4.8,8.9-9.5,10.3
				c-0.2,0-3.5-2.1-4.1-3c-1.2,1-3.2,2.2-5.2,2.9c1,0.3,4.8,5.9,9.6,4.7c6.2-1.5,11-6.7,12.8-12.8c0.4-1.6,2.8-2,3.8-3.7
				C74.3,60.5,74,58.8,73.3,59.6z"/>
		</g>
		<path class="st36" d="M72.7,62.5c-1,1.7-3.3,2.1-3.8,3.7c-1.7,6.1-6.6,11.3-12.8,12.8c-4.2,1-7.7-3.1-9.1-4.4l-0.6,0.3
			c0.7-0.3,4.7,5.9,9.7,4.7c6.2-1.5,11-6.7,12.8-12.8c0.4-1.6,2.8-2,3.8-3.7c1-1.7,1.3-3,1.1-3.5C73.8,60.3,73.4,61.3,72.7,62.5z"/>
		<g>
			<g>
				<path class="st35" d="M45.5,76.6c-2.3,1.3-4.2,2.3-2.9,1.3c1.3-0.9,2.2-1.6,4.1-3.4c1-1,0.8-2.3-2-0.1c-2.8,2.2-4.2,2.4-2.3,0.7
					c0.9-0.8,1.6-2.3,1.4-2.7c-0.5-0.7-0.9,0.1-2.7,1.6c-2,1.7-3.2,3.1-2.6,0.7c0.4-1.6-0.4-2.5-1.8,0c-1.6,2.9-0.3,3-1.5,4.5
					c-0.3,0.4-0.6,0.7-1,1l-11.8,3.2l1.1-6.5c-1.6,0.4-4,0.7-5.7,0.5c-0.3,3.1-0.9,9.6,0.6,10.4c0.2,0.3,0.6,0.5,1.2,0.7
					c0,0,1.2,0.2,1.7,0.2c3.3,0,15.3-5.8,15.3-5.9c1.5-0.7,3.5,0.2,5.4-0.4c3.1-1,4.1-2.4,3-2.3c-2.1,0.3-2.6,0.8-2.6,0.3
					c0-0.5,1.7-1.2,3.7-2.5C48.2,76.5,47.7,75.3,45.5,76.6z"/>
			</g>
			<g>
				<path class="st36" d="M38.1,74.5C38,75.2,38,75.7,38.4,76c-0.1-0.3,0-0.8,0.1-1.2c0.2-0.9,0.1-1.6-0.3-1.6
					C38.2,73.5,38.2,74,38.1,74.5z"/>
				<path class="st36" d="M46.3,74.2c-1.8,2.1-3.7,3.3-4.2,4.1c0.7-0.5,2.9-2,4.6-3.8c0.6-0.6,0.8-1.3,0.2-1.3
					C46.9,73.5,46.6,73.8,46.3,74.2z"/>
				<path class="st36" d="M41.7,75.8c0.2-0.2,0.5-0.5,0.7-0.7c0.9-0.8,1.6-2.3,1.4-2.7c-0.1-0.2-0.2-0.3-0.3-0.3
					C43.9,72.8,41.7,75.8,41.7,75.8z"/>
				<path class="st36" d="M47.1,76c0,0.3-0.3,1.2-1.2,1.7c-2,1.1-3.7,2.6-3.3,2.5c0.2-0.5,1.8-1.1,3.7-2.4
					C47.5,76.9,47.8,76.1,47.1,76z"/>
				<path class="st36" d="M45.1,80.1c-0.2,0.5-1.4,1.3-3.4,1.9c-1.9,0.6-4-0.3-5.4,0.4c0,0.1-12,5.9-15.3,5.9
					c-0.6,0-1.7-0.2-1.7-0.2c-0.3-0.1-0.6-0.2-0.8-0.4c0.2,0.3,0.6,0.5,1.2,0.7c0,0,1.2,0.2,1.7,0.2c3.3,0,15.3-5.8,15.3-5.9
					c1.5-0.7,3.5,0.2,5.4-0.4C45.2,81.3,46.2,79.9,45.1,80.1z"/>
			</g>
		</g>
		<path class="st24" d="M25.2,60.5c-1,0.8-1.6,1.5-2.6,2.3c-0.8,0.6-1.6,1.3-2.4,1.9c0.9,0.4,1.7,0.7,1.8,0.9
			c1.4,1.8,0.1,4.6-0.5,6.4c-0.7,1.9-1.3,4.9,0.6,6.4c0.8,0.6,1.8,0.9,2.6,0.1c0.2-0.2,0.4-0.5,0.5-0.8c0-0.1,0-0.1,0-0.1
			c-0.8,1.3-2.4,0.5-2.2-0.9c0.1-0.8,0.9-1.4,1.3-1.9c1-1.2,1.9-2.4,2.6-3.8c1.8-3.8,2.1-7.7,0.6-9.4C27.1,61,26.2,60.7,25.2,60.5z"
			/>
	</g>
</g>
</svg>
