<?xml version="1.0" encoding="utf-8"?>
<!-- Generator: Adobe Illustrator 22.1.0, SVG Export Plug-In . SVG Version: 6.00 Build 0)  -->
<svg version="1.1" id="Layer_1" xmlns="http://www.w3.org/2000/svg" xmlns:xlink="http://www.w3.org/1999/xlink" x="0px" y="0px"
	 viewBox="0 0 148.6 139.5" style="enable-background:new 0 0 148.6 139.5;" xml:space="preserve">
<style type="text/css">
	.st0{fill:#263357;}
	.st1{fill:#F86464;}
	.st2{fill:#61C4F2;}
	.st3{fill:#282D33;}
</style>
<g>
	<rect x="25.4" y="101.9" class="st0" width="19.6" height="3.5"/>
	<rect x="25" y="110.4" class="st0" width="46.6" height="3.5"/>
	<rect x="25" y="118.9" class="st0" width="46.6" height="3.5"/>
	<rect x="25" y="127.5" class="st0" width="46.6" height="3.5"/>
	<rect x="25" y="136" class="st0" width="30.2" height="3.5"/>
</g>
<rect y="26.7" class="st1" width="96.4" height="67.4"/>
<rect x="101.1" y="58" class="st2" width="35.1" height="21.7"/>
<g>
	<path class="st0" d="M50.1,94.3h-3.5c0-2.8-2.3-5.1-5.1-5.1H4.9V20.8h36.7c4.7,0,8.6,3.8,8.6,8.6V94.3z M8.4,85.7h33.1
		c1.9,0,3.6,0.6,5.1,1.7V29.4c0-2.8-2.3-5.1-5.1-5.1H8.4V85.7z"/>
	<path class="st0" d="M49.8,94.3h-3.5V29.4c0-4.7,3.9-8.6,8.6-8.6h36.7v15.4H88V24.3H54.8c-2.8,0-5.1,2.3-5.1,5.1v57.9
		c1.4-1,3.2-1.7,5.1-1.7h22.4v3.5H54.8C52,89.2,49.8,91.5,49.8,94.3z"/>
</g>
<g>
	<rect x="13.6" y="29.8" class="st3" width="16.2" height="3.5"/>
	<rect x="13.6" y="40.4" class="st3" width="27.4" height="3.5"/>
	<rect x="13.6" y="48.1" class="st3" width="27.4" height="3.5"/>
	<rect x="13.6" y="55.9" class="st3" width="19.5" height="3.5"/>
</g>
<g>
	<path class="st3" d="M69.2,96.5l-6.6-18.1l1.8-0.6c3.1-1,6.6-1,9.7,0l1.8,0.6L69.2,96.5z M67.2,80.8l2,5.5l2-5.5
		C69.9,80.6,68.5,80.6,67.2,80.8z"/>
	<polyline class="st2" points="75.8,78.4 75.8,53.8 62.6,53.8 62.6,78.4 	"/>
	<g>
		<g>
			<path class="st1" d="M64.4,0.8l0,4.8h9.6V0.8c0-0.4-0.5-0.8-1.1-0.8l-7.5,0C64.8,0,64.4,0.4,64.4,0.8z"/>
		</g>
		<g>
			<path class="st0" d="M75.8,13.8H62.6V3.6l13.2,0V13.8z M66.1,10.3h6.2V7.1l-6.2,0V10.3z"/>
		</g>
	</g>
	<polyline class="st2" points="75.8,64.5 75.8,13.9 62.6,13.9 62.6,65.3 	"/>
</g>
<g>
	<path class="st0" d="M84.5,117.1h-3.6l0-2.2V49.2H81c0.9-4.6,5-8.1,9.8-8.1h57.8v67.3H90.8c-3.6,0-6.5,2.9-6.5,6.5
		c0,0.1,0,0.2,0,0.2L84.5,117.1z M84.3,51.4v55.9c1.7-1.5,4-2.4,6.5-2.4h54.3V44.6H90.8c-3.5,0-6.4,2.8-6.5,6.4L84.3,51.4z"/>
	<g>
		<path class="st0" d="M148.6,124.8H90.8c-5.5,0-10-4.5-10-10c0-5.5,4.5-10,10-10h57.8V124.8z M90.8,108.4c-3.6,0-6.5,2.9-6.5,6.5
			c0,3.6,2.9,6.5,6.5,6.5h54.3v-13H90.8z"/>
	</g>
	<polygon class="st1" points="106.9,129.7 100.9,125.9 94.9,129.7 94.9,115.6 100.9,115.6 106.9,115.6 	"/>
	<g>
		<line class="st0" x1="90.2" y1="115.3" x2="146.9" y2="115.3"/>
		<rect x="90.2" y="113.6" class="st0" width="56.7" height="3.5"/>
	</g>
	<g>
		<line class="st0" x1="90.2" y1="106.1" x2="90.2" y2="43.6"/>
		<rect x="88.5" y="43.6" class="st0" width="3.5" height="62.5"/>
	</g>
	<rect x="105.9" y="70.9" class="st0" width="25.3" height="3.5"/>
	<rect x="108.8" y="63" class="st0" width="19.4" height="3.5"/>
</g>
</svg>
