<?xml version="1.0" encoding="utf-8"?>
<!-- Generator: Adobe Illustrator 22.1.0, SVG Export Plug-In . SVG Version: 6.00 Build 0)  -->
<svg version="1.1" id="Layer_1" xmlns="http://www.w3.org/2000/svg" xmlns:xlink="http://www.w3.org/1999/xlink" x="0px" y="0px"
	 viewBox="0 0 86.9 184.7" style="enable-background:new 0 0 86.9 184.7;" xml:space="preserve">
<style type="text/css">
	.st0{fill:#BFBEB2;}
	.st1{fill:#FFFFFF;}
	.st2{opacity:0.8;fill:#56C0EE;}
	.st3{fill:#80B9CD;}
	.st4{fill:#B3D8EB;}
	.st5{fill:#BDDEEF;}
	.st6{fill:#AED1E1;}
	.st7{fill:#A6CEE1;}
	.st8{fill:#73A7BF;}
	.st9{fill:#D6EFF8;}
	.st10{fill:#E5E5E5;}
	.st11{fill:#FDCFB2;}
	.st12{fill:#DBB3A1;}
	.st13{fill:#CFD3D8;}
	.st14{fill:#FBC196;}
	.st15{fill:#11487B;}
	.st16{fill:#8E8E8E;}
	.st17{fill:#D3A07D;}
	.st18{fill:#005BAA;}
	.st19{fill:#17457B;}
	.st20{fill:#E1AE88;}
	.st21{fill:#7E2818;}
	.st22{fill:#9F4C23;}
	.st23{opacity:0.5;fill:#F7A399;}
	.st24{fill:#6F320E;}
	.st25{fill:#B3562A;}
	.st26{fill:#781C16;}
	.st27{fill:#DD6B6B;}
	.st28{fill:#BADCE8;}
	.st29{fill:url(#SVGID_1_);}
	.st30{fill:url(#SVGID_2_);}
	.st31{fill:#F0F2F2;}
	.st32{fill:#C4C4C3;}
	.st33{fill:#F15A29;}
	.st34{fill-rule:evenodd;clip-rule:evenodd;fill:#E19549;}
	.st35{fill-rule:evenodd;clip-rule:evenodd;fill:#E0E1E0;}
	.st36{fill-rule:evenodd;clip-rule:evenodd;fill:#B5B5B5;}
	.st37{fill-rule:evenodd;clip-rule:evenodd;fill:#0092D2;}
	.st38{fill-rule:evenodd;clip-rule:evenodd;fill:#F6B878;}
	.st39{fill-rule:evenodd;clip-rule:evenodd;fill:#007BC0;}
	.st40{fill-rule:evenodd;clip-rule:evenodd;fill:#005FA4;}
	.st41{fill-rule:evenodd;clip-rule:evenodd;fill:#F6AD65;}
	.st42{fill-rule:evenodd;clip-rule:evenodd;fill:#231F20;}
	.st43{fill-rule:evenodd;clip-rule:evenodd;fill:#C75528;}
	.st44{fill-rule:evenodd;clip-rule:evenodd;fill:#A94824;}
	.st45{fill-rule:evenodd;clip-rule:evenodd;fill:#E6612C;}
	.st46{fill-rule:evenodd;clip-rule:evenodd;fill:#838384;}
</style>
<g>
	<path class="st0" d="M67.4,8.5c-1.8,0-3.6,0.3-5.3,0.8c-4.8-4.8-11.4-7.5-18.3-7.5c-6.9,0-13.5,2.7-18.3,7.5
		c-1.7-0.5-3.5-0.8-5.3-0.8C9.4,8.5,0.8,17.1,0.8,27.7C0.8,38.3,9.4,47,20.1,47c1.8,0,3.6-0.3,5.3-0.8c4.8,4.8,11.4,7.5,18.3,7.5
		c3.9,0,7.7-0.9,11.2-2.5c-0.3,1,0.3,3.2-5.1,8.1c0,0,14.6-1,16.5-12.3c8.1,0.5,16.4-4.5,19.1-12.3c0.7-2.1,1.3-4.7,1.3-6.9
		C86.7,17.1,78,8.5,67.4,8.5z"/>
	<path class="st1" d="M66.6,6.8c-1.8,0-3.6,0.3-5.3,0.8C56.4,2.7,49.8,0,42.9,0C36,0,29.5,2.7,24.6,7.5c-1.7-0.5-3.5-0.8-5.3-0.8
		C8.6,6.8,0,15.4,0,26c0,10.6,8.6,19.2,19.3,19.2c1.8,0,3.6-0.3,5.3-0.8C29.5,49.3,36,52,42.9,52c3.9,0,7.7-0.9,11.2-2.5
		c0.8,3.5-5.7,8.4-5.7,8.4c9.5,0.1,16.4-6.8,17-12.7c0.4,0,0.8,0,1.2,0c10.6,0,19.3-8.6,19.3-19.2C85.9,15.4,77.2,6.8,66.6,6.8z"/>
	<g>
		<path class="st1" d="M82.6,22.1c-1.5-5.5-5.4-10.4-10.9-12.4c-1.9-0.7-4.2-1.1-6.3-1.1c-1.7,0-3.4,0.2-5.1,0.7
			c-4.6-4.5-10.8-7.1-17.3-7.1c-6.5,0-12.7,2.6-17.3,7.1c-1.7-0.5-3.3-0.7-5.1-0.7c-3.4,0-7,0.9-9.8,2.8c-2.7,1.8-5.3,4.4-6.6,7.4
			c-1,2.2-1.6,4.7-1.6,7.2c0,9.2,7.5,16.7,16.7,16.7c2.1,0,4.2-0.4,6.1-1.2c4.3,4.9,10.5,7.9,17.6,7.9c5.2,0,10-1.7,13.9-4.5
			c1.8,7.5-3.6,10.1-3.2,10.1c0,0,0.1,0,0.1,0c0.4-0.1,0.8-0.2,1.2-0.3c6.6-2.1,8.3-7.2,8.1-12.4c1.2,0.3,2.4,0.4,3.6,0.4
			c7.8,0,15.9-6.2,16.5-14.2C83.3,26.3,83.1,24.2,82.6,22.1z"/>
		<path class="st2" d="M53.7,55.7c-0.3,0-0.6-0.2-0.7-0.5c-0.2-0.5,0.2-0.8,0.4-0.9c2.5-2,3.5-4.7,2.9-8.2c-4,2.7-8.6,4.1-13.5,4.1
			c-3.5,0-6.9-0.7-10.1-2.2c-2.9-1.3-5.5-3.2-7.7-5.6c-1.9,0.7-3.9,1-5.9,1C9.7,43.4,1.9,35.6,1.9,26c0-2.4,0.6-5,1.7-7.5
			c1.2-2.8,3.7-5.5,6.8-7.7C13.2,9,16.8,8,20.6,8c1.6,0,3.3,0.2,4.9,0.6c2.3-2.2,4.9-3.9,7.9-5.1c3.1-1.3,6.3-1.9,9.6-1.9
			c3.3,0,6.6,0.6,9.7,1.9c2.9,1.2,5.6,2.9,7.9,5.1C62.1,8.2,63.7,8,65.3,8c2.1,0,4.5,0.4,6.5,1.2c2.7,1,5.2,2.7,7.2,5
			c1.9,2.2,3.3,4.9,4.1,7.8c0.6,2.2,0.8,4.4,0.6,6.6c-0.3,4-2.4,7.7-5.8,10.6c-3.3,2.7-7.4,4.3-11.4,4.3c-1,0-2-0.1-2.9-0.3
			c0,2.7-0.5,5-1.6,6.9c-1.4,2.5-3.8,4.3-7,5.3c-0.4,0.1-0.8,0.2-1.3,0.3l0,0C53.8,55.7,53.7,55.7,53.7,55.7z M57.3,43.8l0.2,1
			c0.7,2.9,0.4,5.4-0.6,7.5c-0.3,0.5-0.6,1-0.9,1.3c4.4-1.9,6.6-5.7,6.3-11.3l0-0.9l0.9,0.2c1.2,0.3,2.3,0.4,3.5,0.4
			c7.9,0,15.3-6.4,15.9-13.6c0.2-2,0-4.1-0.6-6.1c-1.5-5.6-5.4-10.1-10.5-11.9c-1.9-0.7-4.1-1.1-6.1-1.1c-1.6,0-3.3,0.2-4.9,0.7
			l-0.4,0.1l-0.3-0.3c-4.5-4.5-10.5-6.9-16.9-6.9c-6.3,0-12.3,2.5-16.8,6.9l-0.3,0.3L25.5,10c-1.6-0.5-3.2-0.7-4.9-0.7
			c-3.5,0-6.9,1-9.5,2.7c-3,2-5.2,4.5-6.4,7.1c-1,2.3-1.6,4.7-1.6,6.9c0,8.8,7.2,16,16.1,16c2,0,3.9-0.4,5.8-1.1l0.4-0.2l0.3,0.4
			c4.4,5,10.4,7.7,17.1,7.7c4.9,0,9.6-1.5,13.5-4.4L57.3,43.8z"/>
	</g>
	<g>
		<g>
			<g>
				<g>
					<g>
						<path class="st3" d="M66.1,101.2c-12.2-5.4-32.3-4-41.9,0c0,0-3.3,1.3-2.2,4.7c0,0,0.2,0.5,0.7,1.7c-0.4-3,2.2-4.3,2.2-4.3
							c10.5-5,30.4-5,40.4,0c0,0,2.6,1.3,2.2,4.3c0.5-1.1,0.7-1.7,0.7-1.7C69.4,102.6,66.1,101.2,66.1,101.2z"/>
						<g>
							<path class="st4" d="M65.4,103.4c-10-5-30-5-40.4,0c0,0-2.6,1.3-2.2,4.3c0,0,0,0,0,0l0,0c0,0.2,3.3,10.4,3.7,11.6h37.4
								c0.5-1,3.7-11.6,3.7-11.6C68,104.7,65.4,103.4,65.4,103.4z"/>
							<polygon class="st5" points="21.9,103.8 21.9,103.8 21.9,103.8 							"/>
						</g>
					</g>
				</g>
				<g>
					<polygon class="st6" points="68.6,141.6 68.6,171.6 63.8,171.6 63.8,149 26.1,149 26.1,171.6 21.3,171.6 21.3,141.6 					"/>
					<rect x="55.5" y="149" class="st7" width="4.8" height="15.6"/>
					<polygon class="st8" points="54.6,149 54.6,164.1 55.5,164.6 55.5,149 					"/>
					<polygon class="st8" points="34.7,149 34.7,164.6 35.5,164.1 35.5,149 					"/>
					<rect x="29.9" y="149" class="st7" width="4.8" height="15.6"/>
					<polygon class="st9" points="26.9,131 63.4,131 71.2,138.8 19.2,138.8 					"/>
					<polygon class="st8" points="34.7,131 34.9,119.3 34,119.3 33.8,131 					"/>
					<polygon class="st7" points="33.8,131 34,119.3 30.1,119.3 29.2,131 					"/>
					<polygon class="st8" points="55.8,131 55.6,119.3 56.5,119.3 56.7,131 					"/>
					<polygon class="st7" points="56.7,131 56.5,119.3 60.4,119.3 61.3,131 					"/>
					<polygon class="st3" points="19.2,141.6 19.2,138.8 71.2,138.8 71.2,141.6 					"/>
					<polygon class="st8" points="63,149 63,171.1 63.8,171.6 63.8,149 					"/>
				</g>
				<polygon class="st8" points="26.9,149 26.1,149 26.1,171.6 26.9,171.1 				"/>
			</g>
			<g>
				<g>
					<g>
						<g>
							<path class="st1" d="M54.2,107c-1.1-0.3-1.8-0.4-1.8-0.4h-7.5c0,0-7.9,1.2-13.1,4.3c0,0-0.1,4,3.1,6.8l3.8-1.3
								c-0.1,0.4-2.6,12.1-3.8,16.8c0.5,0-1.5-1.1,7.7,0.7c10.4,2.1,13.9-2,15.9-0.7l-1.1-15.9l3.5,1.8c3.5-2.2,5.3-4.5,5.3-4.5
								C62.4,109.9,57,107.8,54.2,107z"/>
						</g>
					</g>
					<g>
						<path class="st10" d="M44.9,107h7.5c0,0,0.7,0.1,1.8,0.4c2.8,0.8,8.2,2.6,12,7.1c0,0,0,0,0,0c-3.8-4.7-9.2-6.8-12-7.6
							c-1.1-0.3-1.8-0.4-1.8-0.4h-7.5c0,0-6.4,1-11.5,3.4C38.5,107.6,44.9,107,44.9,107z"/>
					</g>
					<g>
						<path class="st10" d="M39.8,115.3l-4.2,1.5c-3.2-2.8-3.8-6-3.8-6s-0.1,4,3.1,6.8l3.8-1.3c-0.1,0.4-2.6,12.1-3.8,16.8
							C36,128.4,39.7,115.7,39.8,115.3z"/>
						<path class="st10" d="M34.9,133.1C34.9,133.1,34.9,133.1,34.9,133.1C34.9,133.1,34.9,133.1,34.9,133.1z"/>
						<path class="st10" d="M60.8,118.1l-3.4-1.8l0,1l3.5,1.8c3.5-2.2,5.3-4.5,5.3-4.5S64.2,116.3,60.8,118.1z"/>
						<path class="st10" d="M57.6,132.1c-2.1-1.2-5.4,3.4-14.2,1.1c-4.8-1.2-7-0.7-7.7-0.3c0.8,0,2.6,0.2,7,1
							c10.4,2.1,13.9-2,15.9-0.7l-1.1-15.7L57.6,132.1z"/>
					</g>
					<path class="st11" d="M46.3,106.4c0,0,7.3,0.5,7.5,0.5c-0.1,0.7-2.2,5.3-4.2,6.5C47.7,112.4,46.9,108.6,46.3,106.4z"/>
					<g>
						<g>
							<path class="st1" d="M46.3,106.4c0.6,2.2,1.4,6,3.3,7c-0.4,0-2.6-0.5-5.3,1.7l0.2-8.3C45.6,106.5,46.3,106.4,46.3,106.4z"/>
						</g>
						<path class="st1" d="M54.6,115.8c-2.4-2.5-4.6-2.3-5-2.4c2-1.2,4.1-5.7,4.2-6.5c0,0,0.7,0.1,1.7,0.4L54.6,115.8z"/>
						<g>
							<path class="st10" d="M44.9,113.9c2.2-1.5,4.5-0.6,4.7-0.5c-0.4,0-2.6-0.5-5.3,1.7l0.2-8.5C44.6,106.7,44.8,113.9,44.9,113.9
								z"/>
						</g>
						<g>
							<path class="st10" d="M54.2,114.5c-2-1.8-4.3-1.2-4.6-1.1c0.4,0.1,2.6-0.1,5,2.4l1-8.4C55.5,107.5,54.2,114.6,54.2,114.5z"/>
						</g>
					</g>
					<g>
						<path class="st12" d="M53.5,107.7c-1.7,1.1-4.2,2.2-6.1,2.5c-0.2-0.6-0.4-1.2-0.5-1.7c0.4,0,0.9,0,1.3,0
							C50,108.4,51.9,108.1,53.5,107.7z"/>
					</g>
					<g>
						<g>
							<path class="st1" d="M51.1,160.4l0.4-2.9c0,0,1,0.7,2,0.9c1,0.1,1.9-0.3,1.9-0.3l-0.8,3.5C54.4,161.6,51.5,162.5,51.1,160.4z
								"/>
							<path class="st13" d="M51.6,160.1l0.3-2.3c-0.3-0.2-0.4-0.3-0.4-0.3l-0.4,2.9c0.5,2.1,3.4,1.2,3.4,1.2l0.1-0.2
								C53.6,161.5,51.9,161.7,51.6,160.1z"/>
							<path class="st14" d="M53,144.1c-0.5,4.6-1.2,10.6-1.6,13.5l0-0.1c0,0,1,0.7,2,0.9c1,0.1,1.9-0.3,1.9-0.3l2.9-14H53z"/>
							<g>
								<path class="st15" d="M60.5,162.2c-2.4-1.5-4.1-1.7-4.2-2c-0.1-0.2,0-0.5-0.1-0.7c-0.1-0.3-0.4-0.4-0.7-0.4
									c-0.9,0.1-1.1,1.2-1.2,1.9c0,0.1,0,0.3,0,0.4c-1.3,0.3-3-0.4-3.2-1.3c0,0-1.9,1.8-0.6,3.6c0.1,0.5,4.7,3.6,7,3.7
									C61,167.5,63.7,164.3,60.5,162.2z"/>
								<g>
									<path class="st16" d="M57.5,167.4c-2.2-0.1-6.9-3.2-7-3.7c-0.1-0.2-0.2-0.3-0.3-0.5c0,0.4,0.1,0.8,0.5,1.3
										c0.1,0.5,4.7,3.6,7,3.7c2.8,0.1,5.1-1.9,4.2-3.8C62,165.9,59.9,167.5,57.5,167.4z"/>
								</g>
								<g>
									<path class="st1" d="M59.4,161.4c-0.3-0.1-0.5-0.3-0.8-0.4c-0.2,0.1-0.4,0.1-0.7,0.3c-0.9,0.5-1.3,2.1-1.3,2.1l0.8,0.4
										c0,0,0.1-1.1,1-2C58.8,161.6,59.1,161.5,59.4,161.4z"/>
									<path class="st1" d="M58,160.7c-0.4-0.1-0.7-0.2-0.9-0.3c-0.2,0.1-0.3,0.1-0.5,0.2c-0.9,0.5-1.3,1.7-1.3,1.7l0.7,0.3
										c0,0,0.3-0.9,1.2-1.6C57.4,160.9,57.7,160.8,58,160.7z"/>
								</g>
							</g>
							<g>
								<path class="st17" d="M53,144.1c-0.5,4.6-1.2,10.6-1.6,13.5l0-0.1c0,0,0.2,0.1,0.4,0.3c0.4-3.3,1.7-9.4,2.2-13.7H53z"/>
							</g>
						</g>
						<g>
							<path class="st1" d="M44.3,159.1l-0.7-2.9c0,0-0.9,0.8-1.8,1.1c-1,0.3-1.9-0.1-1.9-0.1l1.2,3.4
								C41.1,160.7,44,161.3,44.3,159.1z"/>
							<path class="st13" d="M43.7,158.9l-0.6-2.2c0.3-0.2,0.4-0.3,0.4-0.3l0.7,2.9c-0.2,2.2-3.2,1.5-3.2,1.5l-0.1-0.2
								C41.8,160.5,43.5,160.5,43.7,158.9z"/>
							<path class="st14" d="M35.5,144.1l4.3,13.1c0,0,0.9,0.4,1.9,0.1c1-0.3,1.8-1.1,1.8-1.1l0,0.1c-0.6-2.7-1.8-7.9-2.8-12.3H35.5
								z"/>
							<g>
								<path class="st15" d="M35.1,162c2.2-1.8,3.8-2.2,4-2.4c0.1-0.2-0.1-0.5,0-0.7c0.1-0.3,0.3-0.5,0.7-0.5
									c0.9,0,1.2,1.1,1.4,1.7c0,0.1,0.1,0.3,0.1,0.4c1.3,0.1,2.9-0.7,3-1.7c0,0,2.1,1.5,1,3.5c-0.1,0.5-4.3,4.1-6.5,4.5
									C35.2,167.3,32.1,164.4,35.1,162z"/>
								<g>
									<path class="st16" d="M38.6,166.7c2.2-0.4,6.5-3.9,6.5-4.5c0.1-0.2,0.2-0.4,0.2-0.5c0,0.4-0.1,0.9-0.3,1.3
										c-0.1,0.5-4.3,4.1-6.5,4.5c-2.7,0.5-5.3-1.4-4.6-3.3C34.1,165.8,36.3,167.1,38.6,166.7z"/>
								</g>
								<g>
									<path class="st1" d="M36.1,161c0.3-0.2,0.5-0.3,0.7-0.4c0.2,0,0.4,0.1,0.7,0.2c0.9,0.4,1.5,2,1.5,2l-0.8,0.5
										c0,0-0.3-1.1-1.2-1.8C36.7,161.2,36.4,161.1,36.1,161z"/>
									<path class="st1" d="M37.4,160.2c0.4-0.2,0.7-0.3,0.9-0.4c0.2,0,0.3,0.1,0.5,0.2c0.9,0.4,1.5,1.6,1.5,1.6l-0.7,0.4
										c0,0-0.4-0.9-1.3-1.4C38.1,160.3,37.7,160.3,37.4,160.2z"/>
								</g>
							</g>
							<g>
								<path class="st17" d="M39.7,144.1c1,4.1,2.8,9.5,3.5,12.5c0.2-0.2,0.4-0.3,0.4-0.3l0,0.1c-0.6-2.7-1.8-7.9-2.8-12.3H39.7z"
									/>
							</g>
						</g>
						<g>
							<path class="st18" d="M51,145.5c0.6-0.1,8.3-1.4,8.3-1.6c0,0-0.7-13.8-6.4-13.9c-2.2,0-12.4-0.3-14.5,0.5
								c-2,0.7-3.9,9.3-4,14.2c2.2,0.7,6.5,1.1,8.9,1.2c-0.2,0,0.9-4.7,1.8-5.5c0.8-0.7,1.1-1.2,2.7-0.9
								C49.8,139.8,51,144.7,51,145.5z"/>
							<g>
								<path class="st19" d="M42.4,144.7c-2.1,0.3-6.1,0.1-8.1,0c2.2,0.7,6.5,1.1,8.9,1.2c-0.2,0,0.9-4.7,1.8-5.5
									C44.1,141.1,42.3,144.7,42.4,144.7z"/>
								<path class="st19" d="M51.8,144.3c0-0.7-1.9-4.3-4-4.8c2.1,0.5,3.2,5.2,3.2,6c0.6-0.1,8.1-1.3,8.3-1.6
									C59.1,144.1,52.4,144.2,51.8,144.3z"/>
							</g>
						</g>
					</g>
				</g>
				<g>
					<path class="st11" d="M65.2,91.3c-0.5,2,0.5,3.9,2.2,4.3c1.7,0.4,3.5-0.9,3.9-2.9c0.5-2-0.5-3.9-2.2-4.3
						C67.4,88,65.6,89.3,65.2,91.3z"/>
					<path class="st11" d="M47.5,69.1c10.9-0.5,20,7.9,20.4,18.8c0.4,10.9-8.1,20.1-18.9,20.6c-10.9,0.5-20-7.9-20.4-18.8
						C28.1,78.8,36.6,69.6,47.5,69.1z"/>
					<path class="st20" d="M69.4,92.3c0.2-0.9-0.3-1.8-1.1-1.9c-0.2,0-0.4,0-0.6,0c-0.1,1.1-0.3,2.1-0.5,3.1
						c0.1,0.1,0.2,0.1,0.4,0.1C68.4,93.8,69.2,93.2,69.4,92.3z"/>
					<path class="st21" d="M56.6,89.9c0.2,0.8,0.8,1.4,1.3,1.3c0.5-0.1,0.8-0.9,0.6-1.7c-0.2-0.8-0.8-1.4-1.3-1.3
						C56.7,88.3,56.4,89,56.6,89.9z"/>
					<path class="st21" d="M39.7,92.2c0.2,0.8,0.8,1.4,1.3,1.3c0.5-0.1,0.8-0.9,0.6-1.7c-0.2-0.8-0.8-1.4-1.3-1.3
						C39.8,90.6,39.5,91.4,39.7,92.2z"/>
					<g>
						<path class="st22" d="M38.1,88.9c0.2,0.1,0.7-0.9,1.6-1.1c1-0.2,1.9,0.4,2,0.2c0.1-0.1-0.7-1.1-2.1-0.8
							C38.2,87.6,38,88.9,38.1,88.9z"/>
					</g>
					<g>
						<path class="st22" d="M55.1,86c0.2,0.1,0.7-0.8,1.7-1c1-0.1,1.9,0.6,2,0.4c0.1-0.1-0.6-1.1-2.1-1C55.2,84.7,55,86,55.1,86z"/>
					</g>
					<path class="st23" d="M63.3,92.1c0.1,0.7-0.8,1.5-2.2,1.8c-1.3,0.3-2.6-0.1-2.7-0.8c-0.1-0.7,0.8-1.5,2.2-1.8
						C61.9,91,63.1,91.4,63.3,92.1z"/>
					<path class="st23" d="M40.8,95.3C41,96,40,96.8,38.6,97c-1.3,0.3-2.6-0.1-2.7-0.8c-0.1-0.7,0.8-1.5,2.2-1.8
						C39.5,94.2,40.7,94.6,40.8,95.3z"/>
					<path class="st22" d="M67.4,92.3c0.6-1.2,0.5-14.8-18.3-9.9c-10.9,2.8-16-3-16-3c2.6,3.9,0.5,8.4-0.3,11.3
						C32,93.2,32,96.7,32,96.7c-2.1,0.3-2.9-0.1-2.9-0.1c-9.2-14.2,0.4-21.4,0.4-21.4c0.7-6.8,9.8-10.9,16.8-11.1
						c14.2-0.4,19,6.4,20,7.2c-1.7-0.5-2.3-0.8-4.3-0.9c8.5,3.3,7.2,10.3,7.2,10.3c-0.1-1.5-2.5-2.9-2.5-2.9S71.6,84.4,67.4,92.3z"
						/>
					<path class="st24" d="M66.8,77.8c0,0,2.4,1.5,2.5,2.9c0,0,0.1-0.6,0.1-1.4v0c-0.1-2.2-1.1-6.5-7.3-8.9c2,0.1,2.6,0.4,4.3,0.9
						c-0.6-0.4-2.3-2.7-6-4.5c2.3,1.5,3.5,3,4,3.4c-1.7-0.5-3.4-0.5-5.4-0.6c5.1,1.7,9.2,4.2,9.6,8.9c-0.7-1-3-2.3-3-2.3
						s4.6,6,1.9,13.1c0.3,1.5,0.2,2.7,0,3C71.6,84.4,66.8,77.8,66.8,77.8z"/>
					<path class="st24" d="M48.4,81.1c-10.9,2.8-16-3-16-3C35,82,32.8,86.5,32,89.4c-0.5,1.9-0.4,5.4,0,7c0,0,0,0,0,0
						c0,0,0.1-3.2,0.8-5.7c0.8-2.9,3-7.4,0.3-11.3c0,0,5.2,5.8,16,3c9.6-2.5,14.4-0.1,16.6,2.9C63.9,81.6,59.3,78.2,48.4,81.1z"/>
					<path class="st25" d="M48.2,76.3c-10.1,2.4-14.6-3.1-14.6-3.1c0.2,0.4,4,6.7,14.3,4.3c7.1-1.6,10.8-2.6,13.3,0.3
						C59.8,75.1,57.3,74.2,48.2,76.3z"/>
					<path class="st24" d="M44.9,73.7c-8,2.7-11.1-2.1-11.1-2.1c0.2,0.3,2.7,5.9,10.8,3.2c5.6-1.9,8.5-3,10.2-0.4
						C54,72,52.1,71.2,44.9,73.7z"/>
					<g>
						<path class="st26" d="M56.8,97.4c-0.8,3.6-3.2,6.7-7.1,6.8c-5.3,0.2-7.6-5.4-7.6-5.4S50.2,100.8,56.8,97.4z"/>
						<path class="st27" d="M49.7,104.2c1.5-0.1,2.7-0.5,3.8-1.3c-2.9-1.8-5.8-0.4-6.8,0.7C47.5,104,48.5,104.2,49.7,104.2z"/>
						<path class="st1" d="M55.7,97.9c-4.7,2-9.9,1.5-12.3,1.1c0.4,0.8,1,1.5,1.6,1.7c1.7,0.4,8.4,0.1,9.8-1.2
							C55.3,99.1,55.5,98.5,55.7,97.9z"/>
					</g>
					<path class="st20" d="M50.5,94.6c0.2-1.1-1.3-2.5-1.3-2.5c1.2,0.2,2.9,1.9,2.2,3.4c-0.4,0.9-2,0.7-2.7,0.5
						C49.6,95.8,50.3,95.5,50.5,94.6z"/>
					<path class="st11" d="M27.6,99.7c1.5,1.3,3.6,1.2,4.7-0.3c1.1-1.5,0.8-3.7-0.7-5.1c-1.5-1.3-3.6-1.2-4.7,0.3
						C25.8,96.1,26.2,98.4,27.6,99.7z"/>
					<g>
						<path class="st20" d="M28.3,96c-0.4,0.7-0.2,1.7,0.5,2.3c0.7,0.5,1.6,0.4,2-0.2c-0.4-0.9-0.8-1.8-1.1-2.7
							C29.1,95.3,28.6,95.5,28.3,96z"/>
					</g>
				</g>
			</g>
			<g>
				<g>
					<polygon class="st8" points="9.7,158.5 9.7,184.7 10.6,184.2 10.6,158.5 					"/>
					<g>
						<polygon class="st28" points="84.3,143.9 84.3,184.7 79.6,184.7 79.6,158.5 9.7,158.5 9.7,184.7 5,184.7 5,143.9 						"/>
						<polygon class="st8" points="18.4,158.5 18.4,178.9 19.2,178.4 19.2,158.5 						"/>
						<linearGradient id="SVGID_1_" gradientUnits="userSpaceOnUse" x1="15.9777" y1="143.1077" x2="15.9777" y2="267.9576">
							<stop  offset="0" style="stop-color:#BDDEEF"/>
							<stop  offset="4.419863e-02" style="stop-color:#B7D9EB"/>
							<stop  offset="0.2925" style="stop-color:#99C3D8"/>
							<stop  offset="0.5375" style="stop-color:#84B4CA"/>
							<stop  offset="0.776" style="stop-color:#77AAC2"/>
							<stop  offset="1" style="stop-color:#73A7BF"/>
						</linearGradient>
						<rect x="13.6" y="158.5" class="st29" width="4.8" height="20.4"/>
						<polygon class="st8" points="70.4,158.5 70.4,178.4 71.2,178.9 71.2,158.5 						"/>
						<linearGradient id="SVGID_2_" gradientUnits="userSpaceOnUse" x1="73.6112" y1="143.1077" x2="73.6112" y2="267.9576">
							<stop  offset="0" style="stop-color:#BDDEEF"/>
							<stop  offset="4.419863e-02" style="stop-color:#B7D9EB"/>
							<stop  offset="0.2925" style="stop-color:#99C3D8"/>
							<stop  offset="0.5375" style="stop-color:#84B4CA"/>
							<stop  offset="0.776" style="stop-color:#77AAC2"/>
							<stop  offset="1" style="stop-color:#73A7BF"/>
						</linearGradient>
						<rect x="71.2" y="158.5" class="st30" width="4.8" height="20.4"/>
						<polygon class="st4" points="8.8,121.7 2.9,140.4 86.9,140.4 81,121.7 						"/>
						<polygon class="st3" points="2.9,143.9 2.9,140.4 86.9,140.4 86.9,143.9 						"/>
						<polygon class="st8" points="78.7,158.5 78.7,184.2 79.6,184.7 79.6,158.5 						"/>
					</g>
				</g>
				<g>
					<g>
						<g>
							<path class="st1" d="M41.2,136.7l3.7-9.8c0,0,0,0,0,0c0,0-5.7-7.6-19.7-4c0,0-6.4,7.2-14,9.5
								C11.3,132.4,31.2,127.5,41.2,136.7z"/>
						</g>
						<g>
							<path class="st31" d="M66.5,125.4c0,0-8.3-3.6-21.6,1.4l-3.7,9.8c0,0,12.9-7.6,31.3-2.2C72.5,134.5,67.3,128,66.5,125.4z"/>
						</g>
						<g>
							<path class="st32" d="M41.2,136.7c-0.1-0.1-6-6.3-20.2-5.5c-2,0.1-3.9,0.4-5.6,0.6l-2,0.6l1.3,0.9c0,0,14.7-2.9,24.3,3.4
								c0,0,1,2.7,4.7,0.6c0,0,10.9-6.2,26.4-2l1-0.3l-0.6-1.1C53.3,129.6,41.2,136.7,41.2,136.7z"/>
						</g>
						<path class="st33" d="M70,135.3c-15.5-4.2-26.4,2-26.4,2c-3.6,2.1-4.7-0.6-4.7-0.6c-9.6-6.3-24.3-3.4-24.3-3.4l-1.6,1.4
							c14-1.8,21.7,0,25.3,2.9c1.4,1.1,1.8,2.5,4.9,1.1c0,0,8.9-7,27.9-2.3L70,135.3z"/>
					</g>
				</g>
			</g>
			<g>
				<path class="st11" d="M66.1,114.7c-0.4,0.5-1.7,1.9-3.8,3.4c0.8,0.7,1.7,1.5,2.5,2c0,0-5.6,2.3-9,5.1c0,0-2-0.7-3.8,0.1
					c0,0-2.1-0.5-3-0.7c-0.9-0.2,0.3,2.7,2.5,2c0,0-4.4,1.6-4.4,2.6c0.1,1.6,4.7-0.9,4.7-0.9s-4.5,4-3.2,4.4
					c1.2,0.3,4.5-3.4,4.5-3.4s-1.6,3.7-0.8,4.3c0.8,0.5,2.6-3.6,2.6-3.6s0.3,2.6,1.1,2.6c0.8,0.1,0.3-3.1,0.3-3.1s2-0.6,1.4-2.3
					c0,0,12.3-2.6,13-5.4C71,120.5,68.1,116.9,66.1,114.7z"/>
				<g>
					<g>
						<path class="st12" d="M47.7,129.3c0.1-0.9,4.1-2.6,3.9-2.6c-1,0.4-4.4,1.8-4.4,2.6c0,0.4,0.4,0.6,0.9,0.5
							C47.7,129.7,47.6,129.6,47.7,129.3z"/>
					</g>
					<g>
						<path class="st12" d="M48.9,124.7c-0.5,0.2,0.4,2.2,2.1,2.1c0.2,0,0.4-0.1,0.6-0.1c-2.7,0.2-2.5-2-2.5-2
							C49,124.7,48.9,124.7,48.9,124.7z"/>
						<path class="st12" d="M56.2,132.6c-0.7-0.4-1.3-2.5-1.3-2.6c0,0.1,0,0.3,0.1,0.6c0.1,0.8,0.4,2,1,2.1
							C56.1,132.7,56.1,132.7,56.2,132.6z"/>
						<path class="st12" d="M51.9,128.4c-1.3,1.2-4.3,4.1-3.2,4.4c0.1,0,0.6-1,1.1-1.7C50.9,129.8,51.7,128.8,51.9,128.4z"/>
						<path class="st12" d="M52.4,133.3c0-0.5,0.2-2.3,0.7-4c-0.4,0.9-1.6,3.7-0.8,4.3c0,0,0.1,0,0.1,0.1
							C52.4,133.5,52.4,133.4,52.4,133.3z"/>
					</g>
				</g>
				<path class="st12" d="M62.3,118.1c0.8,0.7,1.7,1.5,2.5,2c0,0-5.6,2.3-9,5.1l3.8-2.1l6.1-3c-0.9-0.6-2.1-1.5-3.2-2.2
					C62.5,118,62.4,118.1,62.3,118.1z"/>
			</g>
			<g>
				<path class="st11" d="M37.1,129.2c-0.6,0.9-2.3,1.4-3.3,0.7c-0.9-0.6-0.9-1.9-0.8-2.8c0.2-1.6,1.3-3.5,3-3.6
					c1.4-0.1,1.1,1,1.2,1.9C37.3,126.6,37.8,128,37.1,129.2z"/>
				<g>
					<path class="st11" d="M21.6,119.4c-0.3,4.3,14,6.3,14,6.3l0.8-1.6c0,0-4.5-4.6-7-5.2c0,0,1.7-1,4.5-2.5c-1.4-1.8-1.8-3.8-2-4.8
						C27.3,114.3,21.7,117.7,21.6,119.4z"/>
				</g>
				<g>
					<path class="st12" d="M29.3,118.9c0,0,1.7-1,4.5-2.5c-0.2-0.2-0.3-0.4-0.5-0.7C30.9,117.3,29.3,118.9,29.3,118.9z"/>
				</g>
				<path class="st12" d="M29.3,118.9c0,0-5.5-1.5-7.3-0.1C22.1,118.8,24.5,116.5,29.3,118.9z"/>
				<g>
					<path class="st34" d="M37,130.7c0.1-0.2,0.3-0.3,0.5-0.3c0,0,0,0,0,0l0.2,1.4c-0.1,0-0.2,0-0.3,0.1L37,130.7z"/>
					
						<rect x="27.8" y="115.8" transform="matrix(0.8784 -0.4779 0.4779 0.8784 -52.24 27.5943)" class="st35" width="0.6" height="1.3"/>
					
						<rect x="28.3" y="115.5" transform="matrix(0.8785 -0.4777 0.4777 0.8785 -52.0017 27.8226)" class="st36" width="0.8" height="1.3"/>
					<path class="st37" d="M28.2,117.2l7.6,14.1c0.1-0.1,0.3-0.2,0.5-0.2l-7.6-14.2L28.2,117.2z"/>
					<path class="st38" d="M36.3,131.1l0.7,1c-0.1,0-0.2,0.1-0.2,0.2l-1.1-0.9C35.9,131.2,36.1,131.1,36.3,131.1z"/>
					<path class="st39" d="M28.7,116.9l7.6,14.2c0.2-0.2,0.4-0.4,0.7-0.4l-7.6-14.2L28.7,116.9z"/>
					<g>
						<path class="st40" d="M37.5,130.4C37.5,130.4,37.5,130.4,37.5,130.4l-7.6-14.1l-0.5,0.3l7.6,14.2
							C37.1,130.5,37.3,130.4,37.5,130.4z"/>
					</g>
					<path class="st41" d="M37,130.7l0.4,1.2c-0.2,0-0.3,0-0.4,0.2l-0.7-1C36.5,130.8,36.7,130.7,37,130.7z"/>
					<path class="st42" d="M36.9,132.2c0-0.1,0.1-0.1,0.2-0.2c0.1-0.2,0.2-0.2,0.4-0.2c0.1-0.1,0.2-0.1,0.3-0.1c0,0,0.1,1.3,0.1,1.3
						L36.9,132.2z"/>
					<path class="st43" d="M27.7,114.8l0.4-0.2c0.1,0,0.2,0.1,0.3,0.3l0.3,0.6l-0.7,0.4l-0.3-0.6C27.6,115,27.6,114.8,27.7,114.8z"
						/>
					<path class="st44" d="M28.9,114.5c-0.1-0.2-0.3-0.3-0.5-0.2l-0.3,0.2c0.1,0,0.2,0.1,0.3,0.3l0.3,0.6l0.5-0.3L28.9,114.5z"/>
					<path class="st45" d="M27.4,114.9C27.4,114.9,27.4,114.9,27.4,114.9c-0.2,0.1-0.3,0.3-0.2,0.5l0.3,0.6l0.5-0.3l-0.3-0.6
						c-0.1-0.2-0.1-0.3-0.1-0.4L27.4,114.9z"/>
					
						<rect x="29" y="115.2" transform="matrix(0.8785 -0.4777 0.4777 0.8785 -51.7734 28.0717)" class="st46" width="0.6" height="1.3"/>
				</g>
				<g>
					<path class="st11" d="M36.5,126.4c-0.8,4.1-3-1.9-1.7-3.5c0.6-0.8,1.9-0.7,2.3,0.4C37.4,124.1,36.7,125.6,36.5,126.4z"/>
					<path class="st12" d="M36.4,125.5c-0.6,2.8-1.9,0.7-2-1.2c-0.1,2.2,1.4,5.3,2.1,2.1c0.1-0.7,0.7-1.9,0.7-2.7
						C37.1,124.4,36.5,124.9,36.4,125.5z"/>
				</g>
				<g>
					<path class="st11" d="M34.1,131c1.1-0.4,1.6-1.7,0.4-2.1c-0.8-0.3-2.9,0-2.8,1.1C31.7,131,33.3,131.2,34.1,131z"/>
					<path class="st11" d="M33.8,129.7c1.1-0.2,1.6-0.7,1-1.6c-0.6-0.9-2.5-1.1-3.3-0.5C29.8,129,32.8,129.9,33.8,129.7z"/>
					<path class="st11" d="M34.1,127.6c1.9-1.4-2.6-3.6-3.4-2.5C29.5,126.6,32.8,128.6,34.1,127.6z"/>
					<path class="st12" d="M31.9,129.3c-0.2,0.2-0.2,0.4-0.2,0.6c0.1,1,1.6,1.3,2.4,1c0.3-0.1,0.5-0.2,0.7-0.4
						c-0.1,0.1-0.9,0.7-2.4,0C31.7,130.2,31.9,129.3,31.9,129.3z"/>
					<path class="st12" d="M34,129.5c-1.1,0.2-3.3-0.7-2.5-1.9c0,0-0.1,0.1-0.1,0.1c-1.6,1.3,1.3,2.2,2.4,2c0.5-0.1,0.9-0.2,1.1-0.5
						C34.7,129.4,34.4,129.5,34,129.5z"/>
					<path class="st12" d="M30.9,125C30.9,125,30.9,125,30.9,125c-0.1,0-0.2,0.1-0.2,0.2c-1.1,1.5,2.1,3.5,3.4,2.5
						c0,0,0.1-0.1,0.1-0.1C32.9,128.4,30.4,126.6,30.9,125z"/>
				</g>
			</g>
		</g>
	</g>
</g>
</svg>
