<?xml version="1.0" encoding="utf-8"?>
<!-- Generator: Adobe Illustrator 22.1.0, SVG Export Plug-In . SVG Version: 6.00 Build 0)  -->
<svg version="1.1" id="Layer_1" xmlns="http://www.w3.org/2000/svg" xmlns:xlink="http://www.w3.org/1999/xlink" x="0px" y="0px"
	 viewBox="0 0 133.5 114.5" style="enable-background:new 0 0 133.5 114.5;" xml:space="preserve">
<style type="text/css">
	.st0{fill:#DFE0E0;}
	.st1{fill:#263357;}
	.st2{fill:#48515A;}
	.st3{fill:#61C4F2;}
	.st4{fill:#F86464;}
</style>
<g>
	<g>
		<path class="st0" d="M13.1,55.6c2.1,0,3.9,0.8,5.3,2.2v-1.1v-3.1c0-12.7,10.5-22.9,23.3-22.4c4.5,0.2,8.8,1.9,12.3,4.6
			c-3.8-7-11.2-12.1-19.1-12.4C22.1,22.8,11.6,33,11.6,45.7v3.1v5.3C11.6,54.9,12.3,55.6,13.1,55.6L13.1,55.6L13.1,55.6
			C13.1,55.6,13.1,55.6,13.1,55.6z"/>
	</g>
</g>
<g>
	<g>
		<path class="st0" d="M65.2,47c2,5.3,5.5,9.9,10,13.3c1-1.1,1.7-2.5,1.9-4.1C72.4,54.2,68.3,51,65.2,47z"/>
	</g>
	<g>
		<path class="st0" d="M110.5,47.4c-5.2,6.7-13.4,10.9-22.5,10.9c-1.4,0-2.9-0.1-4.2-0.3c-1.7,1.8-3.8,3.1-6.1,3.8
			c1.1,0.7,2.3,1.3,3.5,1.8c-0.3,3.5-3.3,6.3-6.9,6.3h3.5c4,0,7.6-1.7,10.1-4.4c1.4,0.2,2.8,0.3,4.2,0.3c8.7,0,16.6-3.9,21.8-10.1
			L110.5,47.4z"/>
		<path class="st0" d="M114.5,40.6l5.6,2.4c0.4-1.9,0.6-3.8,0.6-5.8c0-6.5-2.2-12.5-5.8-17.3c1.1,3.1,1.7,6.4,1.7,9.8
			C116.6,33.6,115.8,37.2,114.5,40.6z"/>
	</g>
</g>
<g>
	<path class="st0" d="M111.5,71.5c0.1,0.4,0.1,0.8,0,1.1l-1.5,6c0,0.9,0.7,1.6,1.6,1.6h3.1c-0.9,0-1.6-0.7-1.6-1.6l1.5-6
		c0.1-0.4,0.1-0.8,0-1.1L114,69c-0.5-1.8-2.1-3.1-4-3.1v1.5c0.4,0.5,0.7,1,0.8,1.6L111.5,71.5z"/>
</g>
<g>
	<path class="st0" d="M123.4,85.1h0.1c1.4,0,2.5-1.1,2.4-2.5c-0.1-1.3-1.2-2.3-2.5-2.3h-3.1c1.3,0,2.5,1,2.5,2.3
		c0.1,1.4-1,2.5-2.4,2.5h-0.1c1.3,0,2.5,1,2.5,2.3c0.1,1.3-0.9,2.4-2.2,2.5c-0.1,0-1,0-1,0c1.5,0,2.6,1.3,2.4,2.8
		c-0.2,1.1-1.3,1.9-2.4,2v0.1c1,0.3,1.7,1.3,1.6,2.4c-0.1,1.3-1.2,2.3-2.5,2.3h1.6c1.3,0,2.5-1,2.5-2.3c0.1-1.4-1-2.5-2.4-2.5h2.3
		c1.2,0,2.3-0.8,2.5-2c0.3-1.5-0.9-2.8-2.4-2.8c0.1,0,1,0,1,0c1.3-0.1,2.2-1.2,2.2-2.5C125.9,86,124.7,85.1,123.4,85.1z"/>
</g>
<g>
	<path class="st1" d="M120.2,100.1h-6.8c-3.4,0-6.7-0.5-9.9-1.6h-3.1c-0.4,0-0.7-0.3-0.7-0.7c0-0.4,0.3-0.7,0.7-0.7h3.2
		c0.1,0,0.1,0,0.2,0c3.1,1,6.3,1.6,9.6,1.6h6.8c1,0,1.8-0.7,1.8-1.6c0-0.5-0.1-0.9-0.5-1.3c-0.3-0.3-0.8-0.5-1.2-0.5
		c-0.4,0-0.7-0.3-0.7-0.7c0-0.4,0.3-0.7,0.7-0.7h2.3c0.9,0,1.7-0.6,1.8-1.4c0.1-0.5,0-1-0.4-1.4c-0.3-0.4-0.8-0.6-1.3-0.6h0
		c-0.4,0-0.7-0.3-0.7-0.7c0-0.4,0.3-0.7,0.7-0.7l0.1,0c0.2,0,0.7,0,0.9,0c0.9-0.1,1.6-0.9,1.5-1.8c0-0.9-0.9-1.6-1.8-1.6
		c-0.4,0-0.7-0.3-0.7-0.7c0-0.4,0.3-0.7,0.7-0.7h0.1c0.5,0,0.9-0.2,1.2-0.5c0.3-0.3,0.5-0.8,0.5-1.3c0-0.9-0.9-1.6-1.8-1.6h-8.6
		c-1.3,0-2.3-1-2.3-2.3c0-0.1,0-0.1,0-0.2l1.5-6c0.1-0.3,0.1-0.5,0-0.8l-0.7-2.5c-0.3-1.3-1.4-2.3-2.6-2.5v4c0,0.1,0,0.2,0,0.2
		l-3.6,9.3c-0.3,0.9-1.2,1.5-2.1,1.5h-4.5c-0.4,0-0.7-0.3-0.7-0.7c0-0.4,0.3-0.7,0.7-0.7h4.5c0.4,0,0.7-0.2,0.9-0.6l3.5-9.2v-4.7
		c0-0.4,0.3-0.7,0.7-0.7c2.2,0,4.1,1.5,4.6,3.6l0.7,2.5c0.1,0.5,0.1,1,0,1.5l-1.4,5.9c0,0.5,0.4,0.8,0.9,0.8h8.6
		c1.7,0,3.1,1.3,3.2,2.9c0,0.9-0.3,1.7-0.8,2.3c-0.1,0.1-0.2,0.2-0.3,0.3c0.7,0.5,1.1,1.3,1.2,2.2c0.1,1.2-0.6,2.3-1.6,2.9
		c0,0,0.1,0.1,0.1,0.1c0.6,0.7,0.8,1.6,0.7,2.5c-0.2,1.3-1.4,2.4-2.9,2.5c0.4,0.6,0.6,1.2,0.5,1.9C123.4,98.8,122,100.1,120.2,100.1
		z"/>
</g>
<g>
	<path class="st2" d="M123.6,85.7h-4c-0.4,0-0.7-0.3-0.7-0.7c0-0.4,0.3-0.7,0.7-0.7h4c0.4,0,0.7,0.3,0.7,0.7
		C124.3,85.4,124,85.7,123.6,85.7z"/>
</g>
<g>
	<path class="st2" d="M123.6,90.5h-4c-0.4,0-0.7-0.3-0.7-0.7c0-0.4,0.3-0.7,0.7-0.7h4c0.4,0,0.7,0.3,0.7,0.7
		C124.3,90.2,123.9,90.5,123.6,90.5z"/>
</g>
<g>
	<path class="st2" d="M120.4,95.3h-0.8c-0.4,0-0.7-0.3-0.7-0.7c0-0.4,0.3-0.7,0.7-0.7h0.8c0.4,0,0.7,0.3,0.7,0.7
		C121.1,95,120.8,95.3,120.4,95.3z"/>
</g>
<g>
	<path class="st1" d="M117.3,83.2c-0.2,0-0.4-0.1-0.5-0.2c-0.1-0.1-0.1-0.1-0.1-0.2c0-0.1-0.1-0.2-0.1-0.3c0-0.2,0.1-0.4,0.2-0.5
		c0.2-0.2,0.5-0.3,0.7-0.1c0.1,0,0.2,0.1,0.2,0.1c0.1,0.1,0.2,0.3,0.2,0.5c0,0.1,0,0.2,0,0.3c0,0.1-0.1,0.2-0.1,0.2
		c-0.1,0.1-0.1,0.1-0.2,0.1C117.5,83.2,117.4,83.2,117.3,83.2z"/>
</g>
<g>
	<path class="st1" d="M117.3,88c0,0-0.1,0-0.1,0c0,0-0.1,0-0.1,0c0,0-0.1,0-0.1-0.1c0,0-0.1-0.1-0.1-0.1c-0.1-0.1-0.2-0.3-0.2-0.5
		c0-0.2,0.1-0.4,0.2-0.5c0,0,0.1-0.1,0.1-0.1c0,0,0.1,0,0.1-0.1c0,0,0.1,0,0.1,0c0.2,0,0.5,0,0.6,0.2c0.1,0.1,0.2,0.3,0.2,0.5
		c0,0.2-0.1,0.4-0.2,0.5c-0.1,0.1-0.1,0.1-0.2,0.1C117.5,88,117.4,88,117.3,88z"/>
</g>
<g>
	<path class="st1" d="M117.3,92.8c0,0-0.1,0-0.1,0c0,0-0.1,0-0.1,0c0,0-0.1,0-0.1-0.1c0,0-0.1-0.1-0.1-0.1c-0.1-0.1-0.2-0.3-0.2-0.5
		c0-0.1,0-0.2,0.1-0.3c0-0.1,0.1-0.2,0.1-0.2c0.2-0.2,0.5-0.3,0.7-0.1c0.1,0,0.2,0.1,0.2,0.1c0.1,0.1,0.1,0.1,0.1,0.2
		c0,0.1,0,0.2,0,0.3c0,0.2-0.1,0.4-0.2,0.5C117.7,92.7,117.5,92.8,117.3,92.8z"/>
</g>
<g>
	<rect x="87.4" y="78.8" class="st3" width="13" height="21.8"/>
</g>
<g>
	<path class="st1" d="M117.3,97.5c-0.2,0-0.4-0.1-0.5-0.2c-0.1-0.1-0.2-0.3-0.2-0.5c0-0.1,0-0.2,0.1-0.3c0-0.1,0.1-0.2,0.1-0.2
		c0.2-0.2,0.5-0.3,0.7-0.1c0.1,0,0.2,0.1,0.2,0.1c0.1,0.1,0.1,0.1,0.1,0.2c0,0.1,0,0.2,0,0.3c0,0.2-0.1,0.4-0.2,0.5
		c-0.1,0.1-0.1,0.1-0.2,0.1C117.5,97.5,117.4,97.5,117.3,97.5z"/>
</g>
<path class="st1" d="M88,0.5c-16.1,0-29.3,13.1-29.3,29.3c0,11.7,6.9,22.2,17.6,26.8c-0.5,3-3.1,5.2-6.1,5.2c-0.4,0-0.7,0.3-0.7,0.7
	c0,0.4,0.3,0.7,0.7,0.7h3.5c3.9,0,7.6-1.6,10.4-4.4c1.3,0.2,2.7,0.3,4,0.3c9.2,0,17.4-4.3,22.8-10.9l-0.6-1.4
	c-5.1,6.7-13.1,11-22.2,11c-1.4,0-2.8-0.1-4.1-0.3c-0.2,0-0.4,0-0.6,0.2c-2.3,2.5-5.3,3.9-8.7,4.2c1.7-1.2,2.9-3.2,3.1-5.5
	c0-0.3-0.1-0.6-0.4-0.7c-10.5-4.3-17.2-14.5-17.2-25.8C60.1,14.4,72.6,1.9,88,1.9s27.9,12.5,27.9,27.9c0,3.7-0.7,7.3-2.1,10.5
	l1.3,0.5c1.4-3.4,2.2-7.2,2.2-11.1C117.3,13.6,104.1,0.5,88,0.5"/>
<path class="st1" d="M88,0c16.4,0,29.8,13.4,29.8,29.8c0,3.9-0.7,7.7-2.2,11.3l-0.2,0.5l-2.2-0.9l0.2-0.5c1.4-3.3,2-6.8,2-10.4
	c0-15.1-12.3-27.4-27.4-27.4S60.6,14.7,60.6,29.8c0,11.1,6.6,21.1,16.9,25.3c0.5,0.2,0.8,0.7,0.7,1.2c-0.2,1.8-0.9,3.4-2.1,4.7
	c2.6-0.5,4.9-1.8,6.7-3.8c0.3-0.3,0.7-0.4,1-0.4c1.3,0.2,2.7,0.3,4.1,0.3c8.6,0,16.5-3.9,21.8-10.8l0.5-0.7l1,2.5l-0.2,0.2
	c-5.7,7-14.1,11.1-23.2,11.1c-1.3,0-2.5-0.1-3.8-0.2c-2.8,2.8-6.6,4.4-10.5,4.4h-3.5c-0.7,0-1.2-0.5-1.2-1.2s0.5-1.2,1.2-1.2
	c2.7,0,5-1.8,5.6-4.4c-10.7-4.8-17.5-15.4-17.5-27.1C58.2,13.4,71.6,0,88,0"/>
<path class="st1" d="M88,1C72.1,1,59.2,13.9,59.2,29.8c0,11.5,6.8,21.8,17.3,26.4l0.4,0.2l-0.1,0.4c-0.5,3.2-3.3,5.6-6.6,5.6
	c-0.1,0-0.2,0.1-0.2,0.2s0.1,0.2,0.2,0.2h3.5c3.7,0,7.4-1.5,10-4.2l0.2-0.2l0.3,0c1.3,0.2,2.6,0.3,3.9,0.3c8.6,0,16.7-3.8,22.2-10.5
	l-0.2-0.4c-5.4,6.7-13.4,10.5-22,10.5c-1.4,0-2.8-0.1-4.2-0.3c-0.1,0-0.1,0-0.2,0.1c-2.4,2.6-5.6,4.1-9,4.3l-1.8,0.1l1.5-1
	c1.7-1.2,2.8-3.1,2.9-5.1c0-0.1,0-0.2-0.1-0.2c-10.7-4.4-17.5-14.7-17.5-26.2C59.6,14.1,72.3,1.4,88,1.4s28.4,12.7,28.4,28.4
	c0,3.5-0.6,7-1.9,10.3l0.3,0.1c1.3-3.3,2-6.8,2-10.4C116.8,13.9,103.9,1,88,1z"/>
<g>
	<path class="st1" d="M104,34.8l29.5,12.6l-8,4.8l7,7l-4.2,4.2l-6.8-6.8l-4.7,9.4L104,34.8z M117.1,60.3l3.8-7.7l7.5,7.5l0.8-0.8
		l-7.5-7.5l6.6-4l-19.9-8.5L117.1,60.3z"/>
	<path class="st1" d="M116.9,64.8l-12-29.1l27.5,11.8l-7.7,4.6l7.1,7.1l-3.5,3.5l-7-7L116.9,64.8z M107.5,38.3l9.6,23.2l4-8.1
		l7.4,7.4l1.5-1.5l-7.4-7.4l6.9-4.1L107.5,38.3z"/>
</g>
<g>
	<g>
		<path class="st4" d="M87.8,36.5c-6.9,0-12.6-5.6-12.6-12.6c0-6.9,5.6-12.6,12.6-12.6s12.6,5.6,12.6,12.6
			C100.4,30.8,94.7,36.5,87.8,36.5z M87.8,12.6c-6.2,0-11.2,5-11.2,11.2c0,6.2,5,11.2,11.2,11.2c6.2,0,11.2-5,11.2-11.2
			C99,17.7,94,12.6,87.8,12.6z"/>
	</g>
	<g>
		<path class="st4" d="M84.8,20.5c-0.3-0.5-0.7-0.7-1.2-0.7c-0.5,0-1,0.3-1.2,0.7l-1.2-0.7c0.5-0.9,1.4-1.4,2.4-1.4
			c1,0,1.9,0.5,2.4,1.4L84.8,20.5z"/>
	</g>
	<g>
		<path class="st4" d="M93.2,20.5c-0.3-0.5-0.7-0.7-1.2-0.7c-0.5,0-1,0.3-1.2,0.7l-1.2-0.7c0.5-0.9,1.4-1.4,2.4-1.4s1.9,0.5,2.4,1.4
			L93.2,20.5z"/>
	</g>
	<g>
		<path class="st4" d="M87.8,32c-4.1,0-7.5-3.4-7.5-7.5v-0.7h15v0.7C95.3,28.7,91.9,32,87.8,32z M81.7,25.2c0.3,3.1,2.9,5.4,6.1,5.4
			c3.1,0,5.7-2.4,6.1-5.4H81.7z"/>
	</g>
</g>
<g>
	<g>
		<g>
			<g>
				<path class="st1" d="M72.1,108.4c-0.2,0-0.3,0-0.5,0c-7.2-0.3-12.8-6.3-12.5-13.5c0.1-1.9,0.6-3.8,1.4-5.5l-1.3-7.7l7.8,1.6
					c1.8-0.7,3.6-1.1,5.6-1c3.5,0.1,6.7,1.6,9.1,4.2c2.4,2.6,3.6,5.9,3.5,9.4c-0.1,3.5-1.6,6.7-4.2,9.1
					C78.5,107.2,75.3,108.4,72.1,108.4z M60.9,83.5l1,6.2l-0.1,0.2c-0.8,1.6-1.3,3.3-1.4,5.1c-0.2,6.4,4.8,11.9,11.2,12.1
					c3.1,0.1,6.1-1,8.4-3.1c2.3-2.1,3.6-5,3.7-8.1c0.1-3.1-1-6.1-3.1-8.4c-2.1-2.3-5-3.6-8.1-3.7c-1.8-0.1-3.5,0.3-5.2,1l-0.2,0.1
					L60.9,83.5z"/>
				<path class="st1" d="M72.1,108.9c-0.2,0-0.4,0-0.5,0c-7.5-0.3-13.3-6.6-13-14c0.1-1.9,0.6-3.8,1.4-5.5l-1.4-8.2l8.4,1.7
					c1.8-0.7,3.7-1.1,5.6-1c3.6,0.1,6.9,1.7,9.4,4.3c2.5,2.7,3.7,6.1,3.6,9.7c-0.1,3.6-1.7,6.9-4.3,9.4
					C78.7,107.7,75.5,108.9,72.1,108.9z M59.8,82.4l1.2,7.1l-0.1,0.1c-0.8,1.6-1.3,3.4-1.4,5.2c-0.3,6.9,5.1,12.7,12,13
					c3.4,0.1,6.5-1.1,9-3.3c2.5-2.3,3.9-5.4,4-8.7c0.1-3.3-1-6.5-3.3-9c-2.3-2.5-5.4-3.9-8.7-4c-1.8-0.1-3.6,0.3-5.4,1L67,83.9
					L59.8,82.4z M72.1,107.6c-0.2,0-0.3,0-0.5,0c-6.7-0.3-11.9-5.9-11.7-12.6c0.1-1.9,0.6-3.7,1.4-5.3l0-0.1l-1.1-6.7l6.8,1.4l0.1,0
					c1.7-0.8,3.5-1.1,5.4-1c3.2,0.1,6.2,1.5,8.5,3.9c2.2,2.4,3.4,5.5,3.2,8.7c-0.1,3.2-1.5,6.2-3.9,8.5
					C78,106.4,75.1,107.6,72.1,107.6z M61.5,84.2l0.9,5.6l-0.2,0.4c-0.8,1.5-1.3,3.1-1.3,4.9c-0.2,6.1,4.6,11.3,10.7,11.6
					c3,0.1,5.8-0.9,8-3c2.2-2,3.5-4.8,3.6-7.8c0.1-3-0.9-5.8-3-8c-2-2.2-4.8-3.5-7.8-3.6c-1.7-0.1-3.4,0.3-4.9,0.9l-0.3,0.2
					L61.5,84.2z"/>
			</g>
		</g>
	</g>
</g>
<g>
	<path class="st4" d="M78.1,96.2c0.5-0.6,0.8-1.4,0.8-2.3c0-2.1-1.7-3.7-3.7-3.7c-1.3,0-2.4,0.6-3.1,1.6c-0.7-1-1.8-1.6-3.1-1.6
		c-2.1,0-3.7,1.7-3.7,3.7c0,0.9,0.3,1.7,0.8,2.3l0,0c0.1,0.2,5.9,6.1,5.9,6.1S77.9,96.4,78.1,96.2L78.1,96.2z"/>
	<path class="st4" d="M72.1,103.3l-0.5-0.5c-2.2-2.2-5.9-6-6-6.2c-0.6-0.8-1-1.8-1-2.8c0-2.4,2-4.4,4.4-4.4c1.2,0,2.2,0.5,3.1,1.2
		c0.8-0.8,1.9-1.2,3.1-1.2c2.4,0,4.4,2,4.4,4.4c0,1-0.3,2-1,2.7l0,0c-0.1,0.2-3.8,4-6,6.2L72.1,103.3z M69.1,90.8c-1.7,0-3,1.4-3,3
		c0,0.7,0.2,1.4,0.7,1.9c0.2,0.2,3.2,3.3,5.4,5.6c2.2-2.3,5.2-5.3,5.4-5.6c0.4-0.5,0.7-1.2,0.7-1.9c0-1.7-1.4-3-3-3
		c-1,0-1.9,0.5-2.5,1.3L72.1,93l-0.6-0.8C71,91.3,70.1,90.8,69.1,90.8z"/>
</g>
<g>
	<g>
		<g>
			<rect x="56.6" y="1.2" class="st1" width="1.4" height="2.7"/>
		</g>
		<g>
			<rect x="56.6" y="8" class="st1" width="1.4" height="2.7"/>
		</g>
	</g>
	<g>
		<g>
			<rect x="59.3" y="5.2" class="st1" width="2.7" height="1.4"/>
		</g>
		<g>
			<rect x="52.5" y="5.2" class="st1" width="2.7" height="1.4"/>
		</g>
	</g>
</g>
<g>
	<g>
		<g>
			<rect x="72.9" y="67.9" class="st1" width="1.4" height="2.7"/>
		</g>
		<g>
			<rect x="72.9" y="74.7" class="st1" width="1.4" height="2.7"/>
		</g>
	</g>
	<g>
		<g>
			<rect x="75.7" y="72" class="st1" width="2.7" height="1.4"/>
		</g>
		<g>
			<rect x="68.9" y="72" class="st1" width="2.7" height="1.4"/>
		</g>
	</g>
</g>
<g>
	<g>
		<g>
			<g>
				<path class="st1" d="M26.7,113.6c-4.7,0-9.1-1.7-12.6-5c-3.7-3.5-5.8-8.4-5.8-13.4c0-0.4,0.3-0.7,0.7-0.7c0.4,0,0.7,0.3,0.7,0.7
					c0,4.8,1.9,9.2,5.4,12.5c3.5,3.3,8,4.9,12.8,4.6c8.9-0.6,15.9-8.3,15.9-17.6v-5.4c0-7.4,3.5-14.4,9.3-18.6
					c9.4-6.9,14.4-18.4,12.9-30.1C64.1,26.1,52.3,14.5,37.9,13c-9.2-1-18.1,1.8-25,7.9C6.1,27,2.2,35.7,2.2,44.8
					c0,0.4-0.3,0.7-0.7,0.7c-0.4,0-0.7-0.3-0.7-0.7c0-9.5,4.1-18.5,11.1-24.9c7.2-6.4,16.4-9.4,26.1-8.3c15,1.7,27.3,13.7,29.3,28.7
					c1.6,12.2-3.6,24.2-13.4,31.4c-5.5,4-8.7,10.5-8.7,17.5v5.4c0,10-7.6,18.4-17.2,19C27.6,113.6,27.1,113.6,26.7,113.6z"/>
				<path class="st1" d="M26.7,114.5c-4.9,0-9.6-1.9-13.2-5.2c-3.9-3.6-6.1-8.8-6.1-14.1c0-0.8,0.7-1.5,1.5-1.5s1.5,0.7,1.5,1.5
					c0,4.5,1.8,8.7,5.1,11.8s7.6,4.6,12.2,4.3c8.5-0.5,15.1-7.9,15.1-16.8v-5.4c0-7.7,3.6-14.9,9.6-19.3c9.2-6.7,14-17.9,12.5-29.3
					c-1.8-14-13.3-25.2-27.3-26.8c-9-1-17.6,1.7-24.3,7.7C6.8,27.4,3.1,35.9,3.1,44.8c0,0.8-0.7,1.5-1.5,1.5c-0.8,0-1.5-0.7-1.5-1.5
					c0-9.7,4.2-19,11.4-25.5c7.3-6.6,16.8-9.6,26.7-8.5c15.4,1.7,28,14.1,30,29.4c1.6,12.5-3.6,24.8-13.7,32.2
					C49.2,76.2,46,82.5,46,89.2v5.4c0,10.5-7.9,19.2-18,19.8C27.6,114.5,27.2,114.5,26.7,114.5z"/>
			</g>
		</g>
		<g>
			<g>
				<path class="st1" d="M11.6,46.4c-0.4,0-0.7-0.3-0.7-0.7c0-6.3,2.5-12.3,7.1-16.6c4.6-4.4,10.6-6.7,16.9-6.4
					c11.9,0.5,22.3,11.2,22.4,22.9c0,0.4-0.3,0.7-0.7,0.7c0,0,0,0,0,0c-0.4,0-0.7-0.3-0.7-0.7c-0.1-11-9.9-21.1-21.1-21.6
					c-6-0.2-11.6,1.9-15.9,6c-4.3,4.1-6.7,9.7-6.7,15.7C12.3,46.1,12,46.4,11.6,46.4z"/>
				<path class="st1" d="M11.6,47.2c-0.8,0-1.5-0.7-1.5-1.5c0-6.6,2.6-12.7,7.4-17.3c4.7-4.6,11-6.9,17.6-6.7
					c12.3,0.5,23.2,11.6,23.2,23.8c0,0.4-0.2,0.8-0.4,1.1c-0.3,0.3-0.7,0.5-1.1,0.5c-0.8,0-1.5-0.7-1.5-1.5
					c-0.1-10.6-9.6-20.3-20.3-20.7c-5.8-0.2-11.2,1.8-15.3,5.8c-4.1,4-6.4,9.3-6.4,15.1C13.1,46.5,12.5,47.2,11.6,47.2z"/>
			</g>
		</g>
		<g>
			<g>
				<path class="st1" d="M23.3,87.6H22c-0.4,0-0.7-0.3-0.7-0.7c0-0.4,0.3-0.7,0.7-0.7h1.4c5.5,0,10.3-4,11.8-9.7
					c0.8-3.4,2.7-6,5.5-7.9c0.3-0.2,0.7-0.1,0.9,0.2c0.2,0.3,0.1,0.7-0.2,0.9c-2.5,1.7-4.2,4.1-5,7.1C34.9,83.2,29.5,87.6,23.3,87.6
					z"/>
				<path class="st1" d="M23.3,88.5H22c-0.8,0-1.5-0.7-1.5-1.5s0.7-1.5,1.5-1.5h1.4c5.1,0,9.6-3.7,10.9-9c0.9-3.6,2.9-6.4,5.9-8.4
					c0.3-0.2,0.7-0.3,1.1-0.2c0.4,0.1,0.8,0.3,1,0.7c0.2,0.3,0.3,0.7,0.2,1.2c-0.1,0.4-0.3,0.7-0.7,1c-2.4,1.6-3.9,3.8-4.6,6.6
					C35.6,83.8,29.9,88.5,23.3,88.5z M41.1,69.4C41.1,69.4,41.1,69.4,41.1,69.4C41.1,69.4,41.1,69.4,41.1,69.4z"/>
			</g>
		</g>
	</g>
	<g>
		<g>
			<path class="st1" d="M13.1,71.3c-0.4,0-0.7-0.3-0.7-0.7c0-0.4,0.3-0.7,0.7-0.7c3.8,0,6.8-3.1,6.8-6.8c0-3.8-3.1-6.8-6.8-6.8
				c-0.4,0-0.7-0.3-0.7-0.7c0-0.4,0.3-0.7,0.7-0.7c4.5,0,8.2,3.7,8.2,8.2S17.6,71.3,13.1,71.3z"/>
			<path class="st1" d="M13.1,72.1c-0.8,0-1.5-0.7-1.5-1.5s0.7-1.5,1.5-1.5c3.3,0,6-2.7,6-6c0-3.3-2.7-6-6-6c-0.8,0-1.5-0.7-1.5-1.5
				s0.7-1.5,1.5-1.5c5,0,9,4,9,9C22.2,68.1,18.1,72.1,13.1,72.1z"/>
		</g>
	</g>
	<g>
		<g>
			<path class="st1" d="M42.4,50.9c-0.4,0-0.7-0.3-0.7-0.7c0-10.1-8.2-18.4-18.4-18.4c-0.4,0-0.7-0.3-0.7-0.7c0-0.4,0.3-0.7,0.7-0.7
				c10.9,0,19.7,8.9,19.7,19.7C43.1,50.6,42.8,50.9,42.4,50.9z"/>
			<path class="st1" d="M42.4,51.7c-0.8,0-1.5-0.7-1.5-1.5c0-9.7-7.9-17.5-17.5-17.5c-0.8,0-1.5-0.7-1.5-1.5s0.7-1.5,1.5-1.5
				c11.4,0,20.6,9.2,20.6,20.6C43.9,51,43.2,51.7,42.4,51.7z"/>
		</g>
	</g>
</g>
<g>
	<rect x="99.8" y="78.8" class="st1" width="1.4" height="21.8"/>
</g>
</svg>
