<?xml version="1.0" encoding="utf-8"?>
<!-- Generator: Adobe Illustrator 22.1.0, SVG Export Plug-In . SVG Version: 6.00 Build 0)  -->
<svg version="1.1" id="Layer_1" xmlns="http://www.w3.org/2000/svg" xmlns:xlink="http://www.w3.org/1999/xlink" x="0px" y="0px"
	 viewBox="0 0 1047.5 224.9" style="enable-background:new 0 0 1047.5 224.9;" xml:space="preserve">
<style type="text/css">
	.st0{fill-rule:evenodd;clip-rule:evenodd;fill:#E77220;}
	.st1{fill:#FFFFFF;}
	.st2{fill:#E77220;}
	.st3{fill:#231F20;}
</style>
<rect x="86.9" y="124.4" class="st0" width="45.6" height="41.8"/>
<rect x="136" y="103.7" class="st0" width="45.6" height="62.5"/>
<rect x="825.5" y="14.7" class="st0" width="45.8" height="150.6"/>
<rect x="874.5" y="9.8" class="st0" width="45.8" height="155.5"/>
<rect x="923.5" y="4.9" class="st0" width="45.8" height="160.5"/>
<rect x="972.6" class="st0" width="45.8" height="165.4"/>
<rect x="268.7" y="70.6" class="st0" width="45.8" height="95.5"/>
<rect x="317.7" y="65.7" class="st0" width="45.8" height="100.4"/>
<rect x="366.8" y="60.8" class="st0" width="45.8" height="105.4"/>
<rect x="415.8" y="55.9" class="st0" width="45.8" height="110.3"/>
<g>
	<g>
		<path class="st1" d="M291.9,152.4h-6.3l-1.4,3.9h-2l5.7-14.9h1.7l5.8,14.9h-2L291.9,152.4z M286.2,150.8h5.1l-2.6-7L286.2,150.8z"
			/>
		<path class="st1" d="M302.4,156.3h-1.9v-12.6l-3.9,1.4v-1.7l5.5-2h0.3V156.3z"/>
	</g>
</g>
<g>
	<g>
		<path class="st1" d="M339.2,152.4h-6.3l-1.4,3.9h-2l5.7-14.9h1.7l5.8,14.9h-2L339.2,152.4z M333.5,150.8h5.1l-2.6-7L333.5,150.8z"
			/>
		<path class="st1" d="M353.2,156.3h-9.9V155l5.2-5.7c0.8-0.9,1.3-1.6,1.6-2.1c0.3-0.5,0.4-1.1,0.4-1.7c0-0.8-0.2-1.4-0.7-1.9
			c-0.5-0.5-1.1-0.7-1.9-0.7c-1,0-1.7,0.3-2.2,0.8s-0.8,1.3-0.8,2.2h-1.9c0-1.4,0.4-2.5,1.3-3.3s2.1-1.3,3.6-1.3
			c1.4,0,2.5,0.4,3.3,1.1c0.8,0.7,1.2,1.7,1.2,2.9c0,1.5-0.9,3.2-2.8,5.2l-4,4.3h7.6V156.3z"/>
	</g>
</g>
<g>
	<g>
		<path class="st1" d="M389.2,152.4h-6.3l-1.4,3.9h-2l5.7-14.9h1.7l5.8,14.9h-2L389.2,152.4z M383.5,150.8h5.1l-2.6-7L383.5,150.8z"
			/>
		<path class="st1" d="M396.1,148h1.4c0.9,0,1.6-0.2,2.1-0.7c0.5-0.5,0.8-1.1,0.8-1.9c0-1.7-0.9-2.6-2.6-2.6c-0.8,0-1.5,0.2-2,0.7
			s-0.7,1.1-0.7,1.9h-1.9c0-1.2,0.4-2.2,1.3-2.9c0.9-0.8,2-1.2,3.3-1.2c1.4,0,2.5,0.4,3.3,1.1s1.2,1.8,1.2,3.1
			c0,0.6-0.2,1.3-0.6,1.9c-0.4,0.6-1,1.1-1.7,1.4c0.8,0.3,1.5,0.7,1.9,1.3c0.5,0.6,0.7,1.3,0.7,2.2c0,1.3-0.4,2.4-1.3,3.2
			c-0.9,0.8-2,1.2-3.4,1.2c-1.4,0-2.6-0.4-3.4-1.1s-1.3-1.8-1.3-3h1.9c0,0.8,0.3,1.4,0.8,1.9c0.5,0.5,1.2,0.7,2.1,0.7
			c0.9,0,1.6-0.2,2.1-0.7c0.5-0.5,0.7-1.2,0.7-2.1c0-0.9-0.3-1.5-0.8-2c-0.5-0.5-1.3-0.7-2.3-0.7h-1.4V148z"/>
	</g>
</g>
<g>
	<g>
		<path class="st1" d="M437.2,152.4h-6.3l-1.4,3.9h-2l5.7-14.9h1.7l5.8,14.9h-2L437.2,152.4z M431.5,150.8h5.1l-2.6-7L431.5,150.8z"
			/>
		<path class="st1" d="M449.4,151.3h2.1v1.5h-2.1v3.5h-1.9v-3.5h-6.8v-1.1l6.7-10.3h2V151.3z M442.8,151.3h4.7V144l-0.2,0.4
			L442.8,151.3z"/>
	</g>
</g>
<rect x="542.4" y="41.4" class="st0" width="45.8" height="124.5"/>
<rect x="591.4" y="36.5" class="st0" width="45.8" height="129.4"/>
<rect x="640.4" y="31.6" class="st0" width="45.8" height="134.4"/>
<rect x="689.4" y="26.7" class="st0" width="45.8" height="139.3"/>
<g>
	<g>
		<path class="st1" d="M557.1,156.2v-14.9h4.9c1.6,0,2.9,0.3,3.7,1c0.8,0.7,1.2,1.7,1.2,3c0,0.7-0.2,1.3-0.6,1.8s-0.9,1-1.6,1.2
			c0.8,0.2,1.5,0.7,1.9,1.3c0.5,0.6,0.7,1.4,0.7,2.3c0,1.3-0.4,2.4-1.3,3.2c-0.9,0.8-2.1,1.1-3.7,1.1H557.1z M559.1,147.6h3
			c0.9,0,1.6-0.2,2.1-0.6c0.5-0.4,0.8-1,0.8-1.8c0-0.8-0.2-1.4-0.7-1.8c-0.5-0.4-1.2-0.6-2.2-0.6h-2.9V147.6z M559.1,149.2v5.4h3.3
			c0.9,0,1.7-0.2,2.2-0.7c0.5-0.5,0.8-1.1,0.8-2c0-1.8-1-2.7-3-2.7H559.1z"/>
		<path class="st1" d="M575.2,156.2h-1.9v-12.6l-3.9,1.4v-1.7l5.5-2h0.3V156.2z"/>
	</g>
</g>
<g>
	<g>
		<path class="st1" d="M604.4,156.2v-14.9h4.9c1.6,0,2.9,0.3,3.7,1c0.8,0.7,1.2,1.7,1.2,3c0,0.7-0.2,1.3-0.6,1.8s-0.9,1-1.6,1.2
			c0.8,0.2,1.5,0.7,1.9,1.3c0.5,0.6,0.7,1.4,0.7,2.3c0,1.3-0.4,2.4-1.3,3.2c-0.9,0.8-2.1,1.1-3.7,1.1H604.4z M606.4,147.6h3
			c0.9,0,1.6-0.2,2.1-0.6c0.5-0.4,0.8-1,0.8-1.8c0-0.8-0.2-1.4-0.7-1.8c-0.5-0.4-1.2-0.6-2.2-0.6h-2.9V147.6z M606.4,149.2v5.4h3.3
			c0.9,0,1.7-0.2,2.2-0.7c0.5-0.5,0.8-1.1,0.8-2c0-1.8-1-2.7-3-2.7H606.4z"/>
		<path class="st1" d="M626.1,156.2h-9.9v-1.4l5.2-5.7c0.8-0.9,1.3-1.6,1.6-2.1c0.3-0.5,0.4-1.1,0.4-1.7c0-0.8-0.2-1.4-0.7-1.9
			c-0.5-0.5-1.1-0.7-1.9-0.7c-1,0-1.7,0.3-2.2,0.8c-0.5,0.5-0.8,1.3-0.8,2.2h-1.9c0-1.4,0.4-2.5,1.3-3.3c0.9-0.8,2.1-1.3,3.6-1.3
			c1.4,0,2.5,0.4,3.3,1.1s1.2,1.7,1.2,2.9c0,1.5-0.9,3.2-2.8,5.2l-4,4.3h7.6V156.2z"/>
	</g>
</g>
<g>
	<g>
		<path class="st1" d="M654.4,156.2v-14.9h4.9c1.6,0,2.9,0.3,3.7,1c0.8,0.7,1.2,1.7,1.2,3c0,0.7-0.2,1.3-0.6,1.8s-0.9,1-1.6,1.2
			c0.8,0.2,1.5,0.7,1.9,1.3c0.5,0.6,0.7,1.4,0.7,2.3c0,1.3-0.4,2.4-1.3,3.2c-0.9,0.8-2.1,1.1-3.7,1.1H654.4z M656.4,147.6h3
			c0.9,0,1.6-0.2,2.1-0.6c0.5-0.4,0.8-1,0.8-1.8c0-0.8-0.2-1.4-0.7-1.8c-0.5-0.4-1.2-0.6-2.2-0.6h-2.9V147.6z M656.4,149.2v5.4h3.3
			c0.9,0,1.7-0.2,2.2-0.7c0.5-0.5,0.8-1.1,0.8-2c0-1.8-1-2.7-3-2.7H656.4z"/>
		<path class="st1" d="M669,147.8h1.4c0.9,0,1.6-0.2,2.1-0.7s0.8-1.1,0.8-1.9c0-1.7-0.9-2.6-2.6-2.6c-0.8,0-1.5,0.2-2,0.7
			s-0.7,1.1-0.7,1.9h-1.9c0-1.2,0.4-2.2,1.3-2.9c0.9-0.8,2-1.2,3.3-1.2c1.4,0,2.5,0.4,3.3,1.1s1.2,1.8,1.2,3.1
			c0,0.6-0.2,1.3-0.6,1.9c-0.4,0.6-1,1.1-1.7,1.4c0.8,0.3,1.5,0.7,1.9,1.3c0.5,0.6,0.7,1.3,0.7,2.2c0,1.3-0.4,2.4-1.3,3.2
			c-0.9,0.8-2,1.2-3.4,1.2c-1.4,0-2.6-0.4-3.4-1.1c-0.9-0.8-1.3-1.8-1.3-3h1.9c0,0.8,0.3,1.4,0.8,1.9s1.2,0.7,2.1,0.7
			c0.9,0,1.6-0.2,2.1-0.7c0.5-0.5,0.7-1.2,0.7-2.1c0-0.9-0.3-1.5-0.8-2s-1.3-0.7-2.3-0.7H669V147.8z"/>
	</g>
</g>
<g>
	<g>
		<path class="st1" d="M702.4,156.2v-14.9h4.9c1.6,0,2.9,0.3,3.7,1c0.8,0.7,1.2,1.7,1.2,3c0,0.7-0.2,1.3-0.6,1.8s-0.9,1-1.6,1.2
			c0.8,0.2,1.5,0.7,1.9,1.3c0.5,0.6,0.7,1.4,0.7,2.3c0,1.3-0.4,2.4-1.3,3.2c-0.9,0.8-2.1,1.1-3.7,1.1H702.4z M704.3,147.6h3
			c0.9,0,1.6-0.2,2.1-0.6c0.5-0.4,0.8-1,0.8-1.8c0-0.8-0.2-1.4-0.7-1.8c-0.5-0.4-1.2-0.6-2.2-0.6h-2.9V147.6z M704.3,149.2v5.4h3.3
			c0.9,0,1.7-0.2,2.2-0.7c0.5-0.5,0.8-1.1,0.8-2c0-1.8-1-2.7-3-2.7H704.3z"/>
		<path class="st1" d="M722.3,151.2h2.1v1.5h-2.1v3.5h-1.9v-3.5h-6.8v-1.1l6.7-10.3h2V151.2z M715.7,151.2h4.7v-7.3l-0.2,0.4
			L715.7,151.2z"/>
	</g>
</g>
<g>
	<g>
		<path class="st1" d="M852.7,150.8c-0.2,1.6-0.8,2.8-1.8,3.6c-1,0.9-2.3,1.3-3.9,1.3c-1.8,0-3.2-0.6-4.3-1.9
			c-1.1-1.3-1.6-3-1.6-5.1v-1.4c0-1.4,0.2-2.6,0.7-3.7c0.5-1,1.2-1.9,2.1-2.4c0.9-0.6,2-0.8,3.2-0.8c1.6,0,2.9,0.4,3.8,1.3
			c1,0.9,1.5,2.1,1.7,3.7h-2c-0.2-1.2-0.5-2.1-1.1-2.6c-0.6-0.5-1.4-0.8-2.4-0.8c-1.3,0-2.3,0.5-3,1.4c-0.7,0.9-1.1,2.2-1.1,4v1.4
			c0,1.6,0.3,2.9,1,3.9c0.7,1,1.6,1.4,2.9,1.4c1.1,0,1.9-0.2,2.5-0.7c0.6-0.5,1-1.4,1.2-2.6H852.7z"/>
		<path class="st1" d="M860.3,155.5h-1.9v-12.6l-3.9,1.4v-1.7l5.5-2h0.3V155.5z"/>
	</g>
</g>
<g>
	<g>
		<path class="st1" d="M900,150.8c-0.2,1.6-0.8,2.8-1.8,3.6c-1,0.9-2.3,1.3-3.9,1.3c-1.8,0-3.2-0.6-4.3-1.9c-1.1-1.3-1.6-3-1.6-5.1
			v-1.4c0-1.4,0.2-2.6,0.7-3.7c0.5-1,1.2-1.9,2.1-2.4c0.9-0.6,2-0.8,3.2-0.8c1.6,0,2.9,0.4,3.8,1.3c1,0.9,1.5,2.1,1.7,3.7h-2
			c-0.2-1.2-0.5-2.1-1.1-2.6c-0.6-0.5-1.4-0.8-2.4-0.8c-1.3,0-2.3,0.5-3,1.4c-0.7,0.9-1.1,2.2-1.1,4v1.4c0,1.6,0.3,2.9,1,3.9
			c0.7,1,1.6,1.4,2.9,1.4c1.1,0,1.9-0.2,2.5-0.7c0.6-0.5,1-1.4,1.2-2.6H900z"/>
		<path class="st1" d="M911.2,155.5h-9.9v-1.4l5.2-5.7c0.8-0.9,1.3-1.6,1.6-2.1c0.3-0.5,0.4-1.1,0.4-1.7c0-0.8-0.2-1.4-0.7-1.9
			c-0.5-0.5-1.1-0.7-1.9-0.7c-1,0-1.7,0.3-2.2,0.8c-0.5,0.5-0.8,1.3-0.8,2.2H901c0-1.4,0.4-2.5,1.3-3.3c0.9-0.8,2.1-1.3,3.6-1.3
			c1.4,0,2.5,0.4,3.3,1.1s1.2,1.7,1.2,2.9c0,1.5-0.9,3.2-2.8,5.2l-4,4.3h7.6V155.5z"/>
	</g>
</g>
<g>
	<g>
		<path class="st1" d="M950.1,150.8c-0.2,1.6-0.8,2.8-1.8,3.6c-1,0.9-2.3,1.3-3.9,1.3c-1.8,0-3.2-0.6-4.3-1.9
			c-1.1-1.3-1.6-3-1.6-5.1v-1.4c0-1.4,0.2-2.6,0.7-3.7c0.5-1,1.2-1.9,2.1-2.4c0.9-0.6,2-0.8,3.2-0.8c1.6,0,2.9,0.4,3.8,1.3
			c1,0.9,1.5,2.1,1.7,3.7h-2c-0.2-1.2-0.5-2.1-1.1-2.6c-0.6-0.5-1.4-0.8-2.4-0.8c-1.3,0-2.3,0.5-3,1.4c-0.7,0.9-1.1,2.2-1.1,4v1.4
			c0,1.6,0.3,2.9,1,3.9c0.7,1,1.6,1.4,2.9,1.4c1.1,0,1.9-0.2,2.5-0.7c0.6-0.5,1-1.4,1.2-2.6H950.1z"/>
		<path class="st1" d="M954.3,147.2h1.4c0.9,0,1.6-0.2,2.1-0.7s0.8-1.1,0.8-1.9c0-1.7-0.9-2.6-2.6-2.6c-0.8,0-1.5,0.2-2,0.7
			s-0.7,1.1-0.7,1.9h-1.9c0-1.2,0.4-2.2,1.3-2.9c0.9-0.8,2-1.2,3.3-1.2c1.4,0,2.5,0.4,3.3,1.1s1.2,1.8,1.2,3.1
			c0,0.6-0.2,1.3-0.6,1.9c-0.4,0.6-1,1.1-1.7,1.4c0.8,0.3,1.5,0.7,1.9,1.3c0.5,0.6,0.7,1.3,0.7,2.2c0,1.3-0.4,2.4-1.3,3.2
			c-0.9,0.8-2,1.2-3.4,1.2c-1.4,0-2.6-0.4-3.4-1.1c-0.9-0.8-1.3-1.8-1.3-3h1.9c0,0.8,0.3,1.4,0.8,1.9s1.2,0.7,2.1,0.7
			c0.9,0,1.6-0.2,2.1-0.7c0.5-0.5,0.7-1.2,0.7-2.1c0-0.9-0.3-1.5-0.8-2s-1.3-0.7-2.3-0.7h-1.4V147.2z"/>
	</g>
</g>
<g>
	<g>
		<path class="st1" d="M996.3,155.1c-0.7,0.3-2,0.7-3.8,0.7c-4,0-7-2.5-7-7.1c0-4.4,3-7.4,7.4-7.4c1.8,0,2.9,0.4,3.4,0.6l-0.4,1.5
			c-0.7-0.3-1.7-0.6-2.9-0.6c-3.3,0-5.6,2.1-5.6,5.8c0,3.5,2,5.7,5.5,5.7c1.1,0,2.3-0.2,3-0.6L996.3,155.1z"/>
		<path class="st1" d="M1002.8,155.5v-3.7h-6.4v-1.2l6.1-8.7h2v8.5h1.9v1.4h-1.9v3.7H1002.8z M1002.8,150.4v-4.5
			c0-0.7,0-1.4,0.1-2.1h-0.1c-0.4,0.8-0.8,1.4-1.1,2l-3.4,4.6v0H1002.8z"/>
	</g>
</g>
<path class="st2" d="M1022.1,215.9H25.4c-14,0-25.4-11.4-25.4-25.4V190c0-14,11.4-25.4,25.4-25.4h996.7c14,0,25.4,11.4,25.4,25.4
	v0.5C1047.5,204.5,1036.1,215.9,1022.1,215.9z M25.4,166.6C12.5,166.6,2,177.1,2,190v0.5c0,12.9,10.5,23.4,23.4,23.4h996.7
	c12.9,0,23.4-10.5,23.4-23.4V190c0-12.9-10.5-23.4-23.4-23.4H25.4z"/>
<g>
	<path class="st2" d="M711.2,207.1c-0.3,0-0.5-0.1-0.7-0.3c-0.4-0.4-0.4-1,0-1.4l10.5-10.8c1.7-1.8,1.7-4.7,0-6.4l-10.5-10.8
		c-0.4-0.4-0.4-1,0-1.4c0.4-0.4,1-0.4,1.4,0l10.5,10.8c2.5,2.5,2.5,6.7,0,9.2L712,206.8C711.8,207,711.5,207.1,711.2,207.1z"/>
</g>
<g>
	<path class="st2" d="M430.4,207.1c-0.3,0-0.5-0.1-0.7-0.3c-0.4-0.4-0.4-1,0-1.4l10.5-10.8c1.7-1.8,1.7-4.7,0-6.4l-10.5-10.8
		c-0.4-0.4-0.4-1,0-1.4c0.4-0.4,1-0.4,1.4,0l10.5,10.8c2.5,2.5,2.5,6.7,0,9.2l-10.5,10.8C430.9,207,430.6,207.1,430.4,207.1z"/>
</g>
<g>
	<path class="st2" d="M169.5,207.1c-0.3,0-0.5-0.1-0.7-0.3c-0.4-0.4-0.4-1,0-1.4l10.5-10.8c1.7-1.8,1.7-4.7,0-6.4l-10.5-10.8
		c-0.4-0.4-0.4-1,0-1.4c0.4-0.4,1-0.4,1.4,0l10.5,10.8c2.5,2.5,2.5,6.7,0,9.2l-10.5,10.8C170,207,169.8,207.1,169.5,207.1z"/>
</g>
<g>
	<g>
		<path class="st3" d="M77.2,190.6v3.9h-1.3v-10h3.7c1.1,0,1.9,0.3,2.6,0.8s0.9,1.3,0.9,2.2c0,1-0.3,1.7-0.9,2.2
			c-0.6,0.5-1.5,0.8-2.6,0.8H77.2z M77.2,189.6h2.4c0.7,0,1.2-0.2,1.6-0.5s0.6-0.8,0.6-1.4c0-0.6-0.2-1.1-0.6-1.4s-0.9-0.5-1.5-0.6
			h-2.4V189.6z"/>
		<path class="st3" d="M88.1,188.3c-0.2,0-0.4,0-0.6,0c-0.8,0-1.4,0.4-1.7,1.1v5.3h-1.3v-7.4h1.2l0,0.9c0.4-0.7,1-1,1.8-1
			c0.2,0,0.4,0,0.6,0.1V188.3z"/>
		<path class="st3" d="M92.2,194.7c-1,0-1.8-0.3-2.4-1c-0.6-0.7-0.9-1.5-0.9-2.6v-0.2c0-0.7,0.1-1.4,0.4-2c0.3-0.6,0.7-1,1.2-1.4
			c0.5-0.3,1-0.5,1.6-0.5c1,0,1.7,0.3,2.2,1s0.8,1.5,0.8,2.7v0.5h-5c0,0.7,0.2,1.3,0.6,1.8c0.4,0.4,0.9,0.7,1.6,0.7
			c0.4,0,0.8-0.1,1.1-0.3s0.6-0.4,0.8-0.7l0.8,0.6C94.4,194.2,93.5,194.7,92.2,194.7z M92.1,188c-0.5,0-0.9,0.2-1.3,0.6
			c-0.3,0.4-0.6,0.9-0.6,1.6h3.7v-0.1c0-0.6-0.2-1.1-0.5-1.5C93,188.2,92.6,188,92.1,188z"/>
		<path class="st3" d="M99.2,190.8h-3.3v-1h3.3V190.8z"/>
		<path class="st3" d="M103.6,190.1c-1.1-0.3-1.9-0.7-2.5-1.2c-0.5-0.5-0.8-1.1-0.8-1.7c0-0.8,0.3-1.4,0.9-1.9
			c0.6-0.5,1.4-0.8,2.4-0.8c0.7,0,1.3,0.1,1.8,0.4s1,0.6,1.2,1.1s0.4,1,0.4,1.5h-1.3c0-0.6-0.2-1.1-0.6-1.4
			c-0.4-0.3-0.9-0.5-1.6-0.5c-0.6,0-1.2,0.1-1.5,0.4c-0.4,0.3-0.5,0.7-0.5,1.2c0,0.4,0.2,0.8,0.5,1c0.3,0.3,0.9,0.5,1.8,0.8
			c0.8,0.2,1.5,0.5,1.9,0.8c0.5,0.3,0.8,0.6,1,1s0.3,0.8,0.3,1.3c0,0.8-0.3,1.5-0.9,1.9c-0.6,0.5-1.5,0.7-2.5,0.7
			c-0.7,0-1.3-0.1-1.9-0.4c-0.6-0.3-1-0.6-1.4-1.1s-0.5-1-0.5-1.6h1.3c0,0.6,0.2,1.1,0.7,1.4c0.4,0.3,1,0.5,1.8,0.5
			c0.7,0,1.2-0.1,1.6-0.4s0.6-0.7,0.6-1.2s-0.2-0.9-0.5-1.1C105.1,190.6,104.5,190.3,103.6,190.1z"/>
		<path class="st3" d="M113.3,193.8c-0.5,0.6-1.2,0.9-2.2,0.9c-0.8,0-1.4-0.2-1.8-0.7c-0.4-0.5-0.6-1.1-0.6-2v-4.8h1.3v4.8
			c0,1.1,0.5,1.7,1.4,1.7c1,0,1.6-0.4,1.9-1.1v-5.4h1.3v7.4h-1.2L113.3,193.8z"/>
		<path class="st3" d="M122.7,190.9c0,1.1-0.3,2-0.8,2.7s-1.2,1-2.1,1c-0.9,0-1.6-0.3-2.1-0.9v3.6h-1.3v-10.2h1.2l0.1,0.8
			c0.5-0.6,1.2-1,2.1-1c0.9,0,1.6,0.3,2.1,1s0.8,1.6,0.8,2.8V190.9z M121.4,190.8c0-0.8-0.2-1.5-0.5-2s-0.8-0.7-1.5-0.7
			c-0.8,0-1.3,0.3-1.7,1v3.5c0.4,0.7,1,1,1.7,1c0.6,0,1.1-0.2,1.4-0.7C121.3,192.4,121.4,191.7,121.4,190.8z"/>
		<path class="st3" d="M127.4,194.7c-1,0-1.8-0.3-2.4-1c-0.6-0.7-0.9-1.5-0.9-2.6v-0.2c0-0.7,0.1-1.4,0.4-2c0.3-0.6,0.7-1,1.2-1.4
			c0.5-0.3,1-0.5,1.6-0.5c1,0,1.7,0.3,2.2,1s0.8,1.5,0.8,2.7v0.5h-5c0,0.7,0.2,1.3,0.6,1.8c0.4,0.4,0.9,0.7,1.6,0.7
			c0.4,0,0.8-0.1,1.1-0.3s0.6-0.4,0.8-0.7l0.8,0.6C129.6,194.2,128.6,194.7,127.4,194.7z M127.2,188c-0.5,0-0.9,0.2-1.3,0.6
			c-0.3,0.4-0.6,0.9-0.6,1.6h3.7v-0.1c0-0.6-0.2-1.1-0.5-1.5C128.2,188.2,127.8,188,127.2,188z"/>
		<path class="st3" d="M135.3,188.3c-0.2,0-0.4,0-0.6,0c-0.8,0-1.4,0.4-1.7,1.1v5.3h-1.3v-7.4h1.2l0,0.9c0.4-0.7,1-1,1.8-1
			c0.2,0,0.4,0,0.6,0.1V188.3z"/>
		<path class="st3" d="M139.2,189.9l-1.2,1.3v3.4h-1.3v-10h1.3v4.9l4.4-4.9h1.6l-3.9,4.4l4.2,5.6h-1.6L139.2,189.9z"/>
		<path class="st3" d="M145.3,185.2c0-0.2,0.1-0.4,0.2-0.5s0.3-0.2,0.6-0.2s0.4,0.1,0.6,0.2s0.2,0.3,0.2,0.5s-0.1,0.4-0.2,0.5
			s-0.3,0.2-0.6,0.2s-0.4-0.1-0.6-0.2S145.3,185.4,145.3,185.2z M146.6,194.5h-1.3v-7.4h1.3V194.5z"/>
		<path class="st3" d="M148.3,190.8c0-1.1,0.3-2,0.8-2.7c0.5-0.7,1.2-1,2.1-1c0.9,0,1.6,0.3,2.1,0.9V184h1.3v10.5h-1.2l-0.1-0.8
			c-0.5,0.6-1.2,0.9-2.1,0.9c-0.9,0-1.6-0.4-2.1-1.1S148.3,192,148.3,190.8L148.3,190.8z M149.6,190.9c0,0.8,0.2,1.5,0.5,2
			s0.8,0.7,1.4,0.7c0.8,0,1.4-0.4,1.8-1.1v-3.4c-0.4-0.7-1-1-1.7-1c-0.6,0-1.1,0.2-1.4,0.7S149.6,190,149.6,190.9z"/>
		<path class="st3" d="M160.8,192.6c0-0.3-0.1-0.6-0.4-0.8c-0.3-0.2-0.7-0.4-1.3-0.5s-1.1-0.3-1.5-0.5s-0.7-0.4-0.8-0.7
			s-0.3-0.6-0.3-0.9c0-0.6,0.3-1.1,0.8-1.5s1.2-0.6,2-0.6c0.8,0,1.5,0.2,2,0.6s0.8,1,0.8,1.7h-1.3c0-0.3-0.1-0.6-0.4-0.9
			s-0.7-0.4-1.1-0.4c-0.5,0-0.8,0.1-1.1,0.3s-0.4,0.5-0.4,0.8c0,0.3,0.1,0.5,0.4,0.7s0.7,0.3,1.3,0.4s1.1,0.3,1.5,0.5
			s0.7,0.4,0.9,0.7c0.2,0.3,0.3,0.6,0.3,1c0,0.7-0.3,1.2-0.8,1.6c-0.5,0.4-1.2,0.6-2.1,0.6c-0.6,0-1.1-0.1-1.6-0.3s-0.8-0.5-1.1-0.9
			c-0.3-0.4-0.4-0.8-0.4-1.2h1.3c0,0.4,0.2,0.8,0.5,1c0.3,0.2,0.7,0.4,1.3,0.4c0.5,0,0.9-0.1,1.2-0.3
			C160.7,193.1,160.8,192.9,160.8,192.6z"/>
	</g>
</g>
<g>
	<g>
		<path class="st3" d="M299.3,189.8c-1.1-0.3-1.9-0.7-2.5-1.2c-0.5-0.5-0.8-1.1-0.8-1.7c0-0.8,0.3-1.4,0.9-1.9
			c0.6-0.5,1.4-0.8,2.4-0.8c0.7,0,1.3,0.1,1.8,0.4s1,0.6,1.2,1.1s0.4,1,0.4,1.5h-1.3c0-0.6-0.2-1.1-0.6-1.4
			c-0.4-0.3-0.9-0.5-1.6-0.5c-0.6,0-1.2,0.1-1.5,0.4c-0.4,0.3-0.5,0.7-0.5,1.2c0,0.4,0.2,0.8,0.5,1c0.3,0.3,0.9,0.5,1.8,0.8
			c0.8,0.2,1.5,0.5,1.9,0.8c0.5,0.3,0.8,0.6,1,1s0.3,0.8,0.3,1.3c0,0.8-0.3,1.5-0.9,1.9c-0.6,0.5-1.5,0.7-2.5,0.7
			c-0.7,0-1.3-0.1-1.9-0.4c-0.6-0.3-1-0.6-1.4-1.1s-0.5-1-0.5-1.6h1.3c0,0.6,0.2,1.1,0.7,1.4c0.4,0.3,1,0.5,1.8,0.5
			c0.7,0,1.2-0.1,1.6-0.4s0.6-0.7,0.6-1.2s-0.2-0.9-0.5-1.1C300.8,190.4,300.1,190.1,299.3,189.8z"/>
		<path class="st3" d="M309,193.5c-0.5,0.6-1.2,0.9-2.2,0.9c-0.8,0-1.4-0.2-1.8-0.7c-0.4-0.5-0.6-1.1-0.6-2v-4.8h1.3v4.8
			c0,1.1,0.5,1.7,1.4,1.7c1,0,1.6-0.4,1.9-1.1v-5.4h1.3v7.4H309L309,193.5z"/>
		<path class="st3" d="M318.4,190.7c0,1.1-0.3,2-0.8,2.7s-1.2,1-2.1,1c-0.9,0-1.6-0.3-2.1-0.9v3.6h-1.3v-10.2h1.2l0.1,0.8
			c0.5-0.6,1.2-1,2.1-1c0.9,0,1.6,0.3,2.1,1s0.8,1.6,0.8,2.8V190.7z M317.1,190.5c0-0.8-0.2-1.5-0.5-2s-0.8-0.7-1.5-0.7
			c-0.8,0-1.3,0.3-1.7,1v3.5c0.4,0.7,1,1,1.7,1c0.6,0,1.1-0.2,1.4-0.7C316.9,192.2,317.1,191.5,317.1,190.5z"/>
		<path class="st3" d="M323.1,194.4c-1,0-1.8-0.3-2.4-1c-0.6-0.7-0.9-1.5-0.9-2.6v-0.2c0-0.7,0.1-1.4,0.4-2c0.3-0.6,0.7-1,1.2-1.4
			c0.5-0.3,1-0.5,1.6-0.5c1,0,1.7,0.3,2.2,1s0.8,1.5,0.8,2.7v0.5h-5c0,0.7,0.2,1.3,0.6,1.8c0.4,0.4,0.9,0.7,1.6,0.7
			c0.4,0,0.8-0.1,1.1-0.3s0.6-0.4,0.8-0.7l0.8,0.6C325.2,193.9,324.3,194.4,323.1,194.4z M322.9,187.8c-0.5,0-0.9,0.2-1.3,0.6
			c-0.3,0.4-0.6,0.9-0.6,1.6h3.7v-0.1c0-0.6-0.2-1.1-0.5-1.5C323.9,188,323.4,187.8,322.9,187.8z"/>
		<path class="st3" d="M331,188c-0.2,0-0.4,0-0.6,0c-0.8,0-1.4,0.4-1.7,1.1v5.3h-1.3v-7.4h1.2l0,0.9c0.4-0.7,1-1,1.8-1
			c0.2,0,0.4,0,0.6,0.1V188z"/>
		<path class="st3" d="M334.9,189.6l-1.2,1.3v3.4h-1.3v-10h1.3v4.9l4.4-4.9h1.6l-3.9,4.4l4.2,5.6h-1.6L334.9,189.6z"/>
		<path class="st3" d="M340.9,184.9c0-0.2,0.1-0.4,0.2-0.5s0.3-0.2,0.6-0.2s0.4,0.1,0.6,0.2s0.2,0.3,0.2,0.5s-0.1,0.4-0.2,0.5
			s-0.3,0.2-0.6,0.2s-0.4-0.1-0.6-0.2S340.9,185.1,340.9,184.9z M342.3,194.3H341v-7.4h1.3V194.3z"/>
		<path class="st3" d="M344,190.5c0-1.1,0.3-2,0.8-2.7c0.5-0.7,1.2-1,2.1-1c0.9,0,1.6,0.3,2.1,0.9v-3.9h1.3v10.5h-1.2l-0.1-0.8
			c-0.5,0.6-1.2,0.9-2.1,0.9c-0.9,0-1.6-0.4-2.1-1.1S344,191.7,344,190.5L344,190.5z M345.3,190.7c0,0.8,0.2,1.5,0.5,2
			s0.8,0.7,1.4,0.7c0.8,0,1.4-0.4,1.8-1.1v-3.4c-0.4-0.7-1-1-1.7-1c-0.6,0-1.1,0.2-1.4,0.7S345.3,189.7,345.3,190.7z"/>
		<path class="st3" d="M356.5,192.3c0-0.3-0.1-0.6-0.4-0.8c-0.3-0.2-0.7-0.4-1.3-0.5s-1.1-0.3-1.5-0.5s-0.7-0.4-0.8-0.7
			s-0.3-0.6-0.3-0.9c0-0.6,0.3-1.1,0.8-1.5s1.2-0.6,2-0.6c0.8,0,1.5,0.2,2,0.6s0.8,1,0.8,1.7h-1.3c0-0.3-0.1-0.6-0.4-0.9
			s-0.7-0.4-1.1-0.4c-0.5,0-0.8,0.1-1.1,0.3s-0.4,0.5-0.4,0.8c0,0.3,0.1,0.5,0.4,0.7s0.7,0.3,1.3,0.4s1.1,0.3,1.5,0.5
			s0.7,0.4,0.9,0.7c0.2,0.3,0.3,0.6,0.3,1c0,0.7-0.3,1.2-0.8,1.6c-0.5,0.4-1.2,0.6-2.1,0.6c-0.6,0-1.1-0.1-1.6-0.3s-0.8-0.5-1.1-0.9
			c-0.3-0.4-0.4-0.8-0.4-1.2h1.3c0,0.4,0.2,0.8,0.5,1c0.3,0.2,0.7,0.4,1.3,0.4c0.5,0,0.9-0.1,1.2-0.3
			C356.4,192.9,356.5,192.6,356.5,192.3z"/>
		<path class="st3" d="M368.6,191.7h-4.2l-0.9,2.6h-1.4l3.8-10h1.1l3.8,10h-1.3L368.6,191.7z M364.8,190.6h3.4l-1.7-4.7L364.8,190.6
			z"/>
		<path class="st3" d="M376.1,194.3h-1.3v-8.4l-2.5,0.9v-1.1l3.6-1.4h0.2V194.3z"/>
		<path class="st3" d="M390.4,189.8h-6.8v-1h6.8V189.8z"/>
		<path class="st3" d="M401.7,191.7h-4.2l-0.9,2.6h-1.4l3.8-10h1.1l3.8,10h-1.3L401.7,191.7z M397.9,190.6h3.4l-1.7-4.7L397.9,190.6
			z"/>
		<path class="st3" d="M410.4,190.9h1.4v1h-1.4v2.3h-1.3V192h-4.5v-0.7l4.5-6.9h1.3V190.9z M406,190.9h3.1v-4.9l-0.2,0.3L406,190.9z
			"/>
	</g>
</g>
<g>
	<g>
		<path class="st3" d="M587.2,189.7c-1.1-0.3-1.9-0.7-2.5-1.2c-0.5-0.5-0.8-1.1-0.8-1.7c0-0.8,0.3-1.4,0.9-1.9
			c0.6-0.5,1.4-0.8,2.4-0.8c0.7,0,1.3,0.1,1.8,0.4c0.5,0.3,0.9,0.6,1.2,1.1c0.3,0.5,0.4,1,0.4,1.5h-1.3c0-0.6-0.2-1.1-0.6-1.4
			c-0.4-0.3-0.9-0.5-1.6-0.5c-0.6,0-1.2,0.1-1.5,0.4c-0.4,0.3-0.5,0.7-0.5,1.2c0,0.4,0.2,0.8,0.5,1c0.3,0.3,0.9,0.5,1.8,0.8
			c0.8,0.2,1.5,0.5,1.9,0.8c0.5,0.3,0.8,0.6,1,1c0.2,0.4,0.3,0.8,0.3,1.3c0,0.8-0.3,1.5-0.9,1.9c-0.6,0.5-1.5,0.7-2.5,0.7
			c-0.7,0-1.3-0.1-1.9-0.4c-0.6-0.3-1-0.6-1.4-1.1c-0.3-0.5-0.5-1-0.5-1.6h1.3c0,0.6,0.2,1.1,0.7,1.4c0.4,0.3,1,0.5,1.8,0.5
			c0.7,0,1.2-0.1,1.6-0.4s0.6-0.7,0.6-1.2s-0.2-0.9-0.5-1.1C588.7,190.2,588.1,189.9,587.2,189.7z"/>
		<path class="st3" d="M596.9,193.4c-0.5,0.6-1.2,0.9-2.2,0.9c-0.8,0-1.4-0.2-1.8-0.7c-0.4-0.5-0.6-1.1-0.6-2v-4.8h1.3v4.8
			c0,1.1,0.5,1.7,1.4,1.7c1,0,1.6-0.4,1.9-1.1v-5.4h1.3v7.4h-1.2L596.9,193.4z"/>
		<path class="st3" d="M606.3,190.5c0,1.1-0.3,2-0.8,2.7s-1.2,1-2.1,1c-0.9,0-1.6-0.3-2.1-0.9v3.6h-1.3v-10.2h1.2l0.1,0.8
			c0.5-0.6,1.2-1,2.1-1c0.9,0,1.6,0.3,2.1,1c0.5,0.7,0.8,1.6,0.8,2.8V190.5z M605.1,190.4c0-0.8-0.2-1.5-0.5-2s-0.8-0.7-1.5-0.7
			c-0.8,0-1.3,0.3-1.7,1v3.5c0.4,0.7,1,1,1.7,1c0.6,0,1.1-0.2,1.4-0.7C604.9,192,605.1,191.3,605.1,190.4z"/>
		<path class="st3" d="M611,194.3c-1,0-1.8-0.3-2.4-1c-0.6-0.7-0.9-1.5-0.9-2.6v-0.2c0-0.7,0.1-1.4,0.4-2c0.3-0.6,0.7-1,1.2-1.4
			c0.5-0.3,1-0.5,1.6-0.5c1,0,1.7,0.3,2.2,1s0.8,1.5,0.8,2.7v0.5h-5c0,0.7,0.2,1.3,0.6,1.8c0.4,0.4,0.9,0.7,1.6,0.7
			c0.4,0,0.8-0.1,1.1-0.3s0.6-0.4,0.8-0.7l0.8,0.6C613.2,193.8,612.2,194.3,611,194.3z M610.8,187.6c-0.5,0-0.9,0.2-1.3,0.6
			c-0.3,0.4-0.6,0.9-0.6,1.6h3.7v-0.1c0-0.6-0.2-1.1-0.5-1.5C611.8,187.8,611.4,187.6,610.8,187.6z"/>
		<path class="st3" d="M618.9,187.9c-0.2,0-0.4,0-0.6,0c-0.8,0-1.4,0.4-1.7,1.1v5.3h-1.3v-7.4h1.2l0,0.9c0.4-0.7,1-1,1.8-1
			c0.2,0,0.4,0,0.6,0.1V187.9z"/>
		<path class="st3" d="M622.8,189.5l-1.2,1.3v3.4h-1.3v-10h1.3v4.9l4.4-4.9h1.6l-3.9,4.4l4.2,5.6h-1.6L622.8,189.5z"/>
		<path class="st3" d="M628.9,184.8c0-0.2,0.1-0.4,0.2-0.5c0.1-0.1,0.3-0.2,0.6-0.2s0.4,0.1,0.6,0.2s0.2,0.3,0.2,0.5
			s-0.1,0.4-0.2,0.5s-0.3,0.2-0.6,0.2s-0.4-0.1-0.6-0.2C628.9,185.1,628.9,185,628.9,184.8z M630.2,194.1H629v-7.4h1.3V194.1z"/>
		<path class="st3" d="M631.9,190.4c0-1.1,0.3-2,0.8-2.7c0.5-0.7,1.2-1,2.1-1c0.9,0,1.6,0.3,2.1,0.9v-3.9h1.3v10.5H637l-0.1-0.8
			c-0.5,0.6-1.2,0.9-2.1,0.9c-0.9,0-1.6-0.4-2.1-1.1C632.2,192.5,631.9,191.6,631.9,190.4L631.9,190.4z M633.2,190.5
			c0,0.8,0.2,1.5,0.5,2s0.8,0.7,1.4,0.7c0.8,0,1.4-0.4,1.8-1.1v-3.4c-0.4-0.7-1-1-1.7-1c-0.6,0-1.1,0.2-1.4,0.7
			S633.2,189.6,633.2,190.5z"/>
		<path class="st3" d="M644.5,192.2c0-0.3-0.1-0.6-0.4-0.8c-0.3-0.2-0.7-0.4-1.3-0.5c-0.6-0.1-1.1-0.3-1.5-0.5
			c-0.4-0.2-0.7-0.4-0.8-0.7c-0.2-0.3-0.3-0.6-0.3-0.9c0-0.6,0.3-1.1,0.8-1.5c0.5-0.4,1.2-0.6,2-0.6c0.8,0,1.5,0.2,2,0.6
			c0.5,0.4,0.8,1,0.8,1.7h-1.3c0-0.3-0.1-0.6-0.4-0.9c-0.3-0.3-0.7-0.4-1.1-0.4c-0.5,0-0.8,0.1-1.1,0.3s-0.4,0.5-0.4,0.8
			c0,0.3,0.1,0.5,0.4,0.7s0.7,0.3,1.3,0.4c0.6,0.1,1.1,0.3,1.5,0.5s0.7,0.4,0.9,0.7c0.2,0.3,0.3,0.6,0.3,1c0,0.7-0.3,1.2-0.8,1.6
			c-0.5,0.4-1.2,0.6-2.1,0.6c-0.6,0-1.1-0.1-1.6-0.3s-0.8-0.5-1.1-0.9c-0.3-0.4-0.4-0.8-0.4-1.2h1.3c0,0.4,0.2,0.8,0.5,1
			c0.3,0.2,0.7,0.4,1.3,0.4c0.5,0,0.9-0.1,1.2-0.3C644.3,192.7,644.5,192.5,644.5,192.2z"/>
		<path class="st3" d="M651,194.1v-10h3.3c1.1,0,1.9,0.2,2.4,0.7c0.5,0.4,0.8,1.1,0.8,2c0,0.5-0.1,0.9-0.4,1.2
			c-0.3,0.4-0.6,0.6-1.1,0.8c0.5,0.2,1,0.4,1.3,0.9c0.3,0.4,0.5,0.9,0.5,1.5c0,0.9-0.3,1.6-0.9,2.1s-1.4,0.8-2.5,0.8H651z
			 M652.3,188.4h2c0.6,0,1-0.1,1.4-0.4c0.3-0.3,0.5-0.7,0.5-1.2c0-0.5-0.2-0.9-0.5-1.2c-0.3-0.2-0.8-0.4-1.5-0.4h-1.9V188.4z
			 M652.3,189.5v3.6h2.2c0.6,0,1.1-0.2,1.4-0.5c0.4-0.3,0.5-0.8,0.5-1.3c0-1.2-0.7-1.8-2-1.8H652.3z"/>
		<path class="st3" d="M663.6,194.1h-1.3v-8.4l-2.5,0.9v-1.1l3.6-1.4h0.2V194.1z"/>
		<path class="st3" d="M677.9,189.7H671v-1h6.8V189.7z"/>
		<path class="st3" d="M683.7,194.1v-10h3.3c1.1,0,1.9,0.2,2.4,0.7c0.5,0.4,0.8,1.1,0.8,2c0,0.5-0.1,0.9-0.4,1.2
			c-0.3,0.4-0.6,0.6-1.1,0.8c0.5,0.2,1,0.4,1.3,0.9c0.3,0.4,0.5,0.9,0.5,1.5c0,0.9-0.3,1.6-0.9,2.1s-1.4,0.8-2.5,0.8H683.7z
			 M685,188.4h2c0.6,0,1-0.1,1.4-0.4c0.3-0.3,0.5-0.7,0.5-1.2c0-0.5-0.2-0.9-0.5-1.2c-0.3-0.2-0.8-0.4-1.5-0.4H685V188.4z
			 M685,189.5v3.6h2.2c0.6,0,1.1-0.2,1.4-0.5c0.4-0.3,0.5-0.8,0.5-1.3c0-1.2-0.7-1.8-2-1.8H685z"/>
		<path class="st3" d="M697.5,190.8h1.4v1h-1.4v2.3h-1.3v-2.3h-4.5v-0.7l4.5-6.9h1.3V190.8z M693.1,190.8h3.1v-4.9l-0.2,0.3
			L693.1,190.8z"/>
	</g>
</g>
<g>
	<g>
		<path class="st3" d="M868.1,189.9c-1.1-0.3-1.9-0.7-2.5-1.2c-0.5-0.5-0.8-1.1-0.8-1.7c0-0.8,0.3-1.4,0.9-1.9
			c0.6-0.5,1.4-0.8,2.4-0.8c0.7,0,1.3,0.1,1.8,0.4c0.5,0.3,0.9,0.6,1.2,1.1c0.3,0.5,0.4,1,0.4,1.5h-1.3c0-0.6-0.2-1.1-0.6-1.4
			c-0.4-0.3-0.9-0.5-1.6-0.5c-0.6,0-1.2,0.1-1.5,0.4c-0.4,0.3-0.5,0.7-0.5,1.2c0,0.4,0.2,0.8,0.5,1c0.3,0.3,0.9,0.5,1.8,0.8
			c0.8,0.2,1.5,0.5,1.9,0.8c0.5,0.3,0.8,0.6,1,1c0.2,0.4,0.3,0.8,0.3,1.3c0,0.8-0.3,1.5-0.9,1.9c-0.6,0.5-1.5,0.7-2.5,0.7
			c-0.7,0-1.3-0.1-1.9-0.4c-0.6-0.3-1-0.6-1.4-1.1c-0.3-0.5-0.5-1-0.5-1.6h1.3c0,0.6,0.2,1.1,0.7,1.4c0.4,0.3,1,0.5,1.8,0.5
			c0.7,0,1.2-0.1,1.6-0.4s0.6-0.7,0.6-1.2s-0.2-0.9-0.5-1.1C869.6,190.4,869,190.2,868.1,189.9z"/>
		<path class="st3" d="M877.8,193.6c-0.5,0.6-1.2,0.9-2.2,0.9c-0.8,0-1.4-0.2-1.8-0.7c-0.4-0.5-0.6-1.1-0.6-2V187h1.3v4.8
			c0,1.1,0.5,1.7,1.4,1.7c1,0,1.6-0.4,1.9-1.1V187h1.3v7.4h-1.2L877.8,193.6z"/>
		<path class="st3" d="M887.2,190.7c0,1.1-0.3,2-0.8,2.7s-1.2,1-2.1,1c-0.9,0-1.6-0.3-2.1-0.9v3.6H881V187h1.2l0.1,0.8
			c0.5-0.6,1.2-1,2.1-1c0.9,0,1.6,0.3,2.1,1c0.5,0.7,0.8,1.6,0.8,2.8V190.7z M886,190.6c0-0.8-0.2-1.5-0.5-2s-0.8-0.7-1.5-0.7
			c-0.8,0-1.3,0.3-1.7,1v3.5c0.4,0.7,1,1,1.7,1c0.6,0,1.1-0.2,1.4-0.7C885.8,192.3,886,191.6,886,190.6z"/>
		<path class="st3" d="M891.9,194.5c-1,0-1.8-0.3-2.4-1c-0.6-0.7-0.9-1.5-0.9-2.6v-0.2c0-0.7,0.1-1.4,0.4-2c0.3-0.6,0.7-1,1.2-1.4
			c0.5-0.3,1-0.5,1.6-0.5c1,0,1.7,0.3,2.2,1s0.8,1.5,0.8,2.7v0.5h-5c0,0.7,0.2,1.3,0.6,1.8c0.4,0.4,0.9,0.7,1.6,0.7
			c0.4,0,0.8-0.1,1.1-0.3s0.6-0.4,0.8-0.7l0.8,0.6C894.1,194,893.2,194.5,891.9,194.5z M891.8,187.9c-0.5,0-0.9,0.2-1.3,0.6
			c-0.3,0.4-0.6,0.9-0.6,1.6h3.7v-0.1c0-0.6-0.2-1.1-0.5-1.5C892.7,188,892.3,187.9,891.8,187.9z"/>
		<path class="st3" d="M899.8,188.1c-0.2,0-0.4,0-0.6,0c-0.8,0-1.4,0.4-1.7,1.1v5.3h-1.3V187h1.2l0,0.9c0.4-0.7,1-1,1.8-1
			c0.2,0,0.4,0,0.6,0.1V188.1z"/>
		<path class="st3" d="M903.7,189.7l-1.2,1.3v3.4h-1.3v-10h1.3v4.9l4.4-4.9h1.6l-3.9,4.4l4.2,5.6h-1.6L903.7,189.7z"/>
		<path class="st3" d="M909.8,185c0-0.2,0.1-0.4,0.2-0.5c0.1-0.1,0.3-0.2,0.6-0.2s0.4,0.1,0.6,0.2s0.2,0.3,0.2,0.5s-0.1,0.4-0.2,0.5
			s-0.3,0.2-0.6,0.2s-0.4-0.1-0.6-0.2C909.9,185.4,909.8,185.2,909.8,185z M911.2,194.4h-1.3V187h1.3V194.4z"/>
		<path class="st3" d="M912.9,190.6c0-1.1,0.3-2,0.8-2.7c0.5-0.7,1.2-1,2.1-1c0.9,0,1.6,0.3,2.1,0.9v-3.9h1.3v10.5H918l-0.1-0.8
			c-0.5,0.6-1.2,0.9-2.1,0.9c-0.9,0-1.6-0.4-2.1-1.1C913.1,192.7,912.9,191.8,912.9,190.6L912.9,190.6z M914.1,190.7
			c0,0.8,0.2,1.5,0.5,2s0.8,0.7,1.4,0.7c0.8,0,1.4-0.4,1.8-1.1v-3.4c-0.4-0.7-1-1-1.7-1c-0.6,0-1.1,0.2-1.4,0.7
			S914.1,189.8,914.1,190.7z"/>
		<path class="st3" d="M925.4,192.4c0-0.3-0.1-0.6-0.4-0.8c-0.3-0.2-0.7-0.4-1.3-0.5c-0.6-0.1-1.1-0.3-1.5-0.5
			c-0.4-0.2-0.7-0.4-0.8-0.7c-0.2-0.3-0.3-0.6-0.3-0.9c0-0.6,0.3-1.1,0.8-1.5c0.5-0.4,1.2-0.6,2-0.6c0.8,0,1.5,0.2,2,0.6
			c0.5,0.4,0.8,1,0.8,1.7h-1.3c0-0.3-0.1-0.6-0.4-0.9c-0.3-0.3-0.7-0.4-1.1-0.4c-0.5,0-0.8,0.1-1.1,0.3s-0.4,0.5-0.4,0.8
			c0,0.3,0.1,0.5,0.4,0.7s0.7,0.3,1.3,0.4c0.6,0.1,1.1,0.3,1.5,0.5s0.7,0.4,0.9,0.7c0.2,0.3,0.3,0.6,0.3,1c0,0.7-0.3,1.2-0.8,1.6
			c-0.5,0.4-1.2,0.6-2.1,0.6c-0.6,0-1.1-0.1-1.6-0.3s-0.8-0.5-1.1-0.9c-0.3-0.4-0.4-0.8-0.4-1.2h1.3c0,0.4,0.2,0.8,0.5,1
			c0.3,0.2,0.7,0.4,1.3,0.4c0.5,0,0.9-0.1,1.2-0.3C925.2,193,925.4,192.7,925.4,192.4z"/>
		<path class="st3" d="M939.3,191.2c-0.1,1.1-0.5,1.9-1.2,2.4c-0.7,0.6-1.5,0.9-2.6,0.9c-1.2,0-2.1-0.4-2.8-1.3
			c-0.7-0.8-1.1-2-1.1-3.4v-1c0-0.9,0.2-1.7,0.5-2.4c0.3-0.7,0.8-1.2,1.4-1.6c0.6-0.4,1.3-0.6,2.1-0.6c1.1,0,1.9,0.3,2.5,0.9
			c0.6,0.6,1,1.4,1.1,2.5H938c-0.1-0.8-0.4-1.4-0.7-1.7c-0.4-0.4-0.9-0.5-1.6-0.5c-0.8,0-1.5,0.3-2,0.9c-0.5,0.6-0.7,1.5-0.7,2.6v1
			c0,1.1,0.2,1.9,0.7,2.6s1.1,1,1.9,1c0.7,0,1.3-0.2,1.7-0.5c0.4-0.3,0.6-0.9,0.8-1.7H939.3z"/>
		<path class="st3" d="M944.9,194.4h-1.3v-8.4l-2.5,0.9v-1.1l3.6-1.4h0.2V194.4z"/>
		<path class="st3" d="M959.2,189.9h-6.8v-1h6.8V189.9z"/>
		<path class="st3" d="M972.4,191.2c-0.1,1.1-0.5,1.9-1.2,2.4c-0.7,0.6-1.5,0.9-2.6,0.9c-1.2,0-2.1-0.4-2.8-1.3
			c-0.7-0.8-1.1-2-1.1-3.4v-1c0-0.9,0.2-1.7,0.5-2.4c0.3-0.7,0.8-1.2,1.4-1.6c0.6-0.4,1.3-0.6,2.1-0.6c1.1,0,1.9,0.3,2.5,0.9
			c0.6,0.6,1,1.4,1.1,2.5h-1.3c-0.1-0.8-0.4-1.4-0.7-1.7c-0.4-0.4-0.9-0.5-1.6-0.5c-0.8,0-1.5,0.3-2,0.9c-0.5,0.6-0.7,1.5-0.7,2.6v1
			c0,1.1,0.2,1.9,0.7,2.6s1.1,1,1.9,1c0.7,0,1.3-0.2,1.7-0.5c0.4-0.3,0.6-0.9,0.8-1.7H972.4z"/>
		<path class="st3" d="M979.2,191h1.4v1h-1.4v2.3h-1.3v-2.3h-4.5v-0.7l4.5-6.9h1.3V191z M974.8,191h3.1v-4.9l-0.2,0.3L974.8,191z"/>
	</g>
</g>
<circle class="st2" cx="34" cy="191.4" r="33.5"/>
<circle class="st2" cx="225" cy="191.4" r="33.5"/>
<circle class="st2" cx="499.2" cy="191.4" r="33.5"/>
<circle class="st2" cx="777.1" cy="191.4" r="33.5"/>
<g>
	<g>
		<path class="st1" d="M15.6,195.9H9.1V195l3.4-3.8c0.5-0.6,0.9-1,1.1-1.4c0.2-0.4,0.3-0.7,0.3-1.1c0-0.5-0.2-0.9-0.5-1.3
			s-0.7-0.5-1.3-0.5c-0.6,0-1.1,0.2-1.5,0.5c-0.3,0.4-0.5,0.9-0.5,1.5H8.9c0-0.9,0.3-1.7,0.9-2.2s1.4-0.8,2.4-0.8
			c0.9,0,1.7,0.2,2.2,0.7c0.5,0.5,0.8,1.1,0.8,1.9c0,1-0.6,2.1-1.9,3.5l-2.7,2.9h5V195.9z"/>
		<path class="st1" d="M23.5,195c0.5,0,0.8-0.1,1.2-0.4s0.5-0.6,0.6-1h1.2c0,0.4-0.2,0.8-0.4,1.2s-0.6,0.7-1.1,0.9S24,196,23.5,196
			c-1,0-1.8-0.3-2.4-1c-0.6-0.7-0.9-1.6-0.9-2.8v-0.2c0-0.7,0.1-1.4,0.4-1.9s0.6-1,1.1-1.3s1.1-0.5,1.8-0.5c0.8,0,1.5,0.2,2.1,0.7
			s0.8,1.1,0.9,1.9h-1.2c0-0.5-0.2-0.9-0.5-1.2c-0.3-0.3-0.7-0.5-1.2-0.5c-0.6,0-1.1,0.2-1.5,0.7c-0.4,0.5-0.5,1.1-0.5,2v0.2
			c0,0.9,0.2,1.5,0.5,2S22.9,195,23.5,195z"/>
		<path class="st1" d="M32.5,195.9c-0.1-0.1-0.1-0.4-0.2-0.8c-0.6,0.6-1.3,0.9-2.1,0.9c-0.7,0-1.3-0.2-1.8-0.6
			c-0.5-0.4-0.7-0.9-0.7-1.6c0-0.8,0.3-1.4,0.9-1.8c0.6-0.4,1.4-0.6,2.5-0.6h1.2v-0.6c0-0.4-0.1-0.8-0.4-1.1
			c-0.3-0.3-0.7-0.4-1.2-0.4c-0.5,0-0.8,0.1-1.1,0.3s-0.5,0.5-0.5,0.8h-1.3c0-0.4,0.1-0.7,0.4-1.1c0.3-0.3,0.6-0.6,1.1-0.8
			s0.9-0.3,1.5-0.3c0.9,0,1.5,0.2,2,0.6c0.5,0.4,0.7,1,0.8,1.8v3.4c0,0.7,0.1,1.2,0.3,1.6v0.1H32.5z M30.4,185.6h1l2,1.8l-1.3,0
			l-1.2-1.1l-1.2,1.1l-1.4,0L30.4,185.6z M30.4,194.9c0.4,0,0.8-0.1,1.1-0.3s0.6-0.5,0.8-0.8v-1.5h-1c-1.5,0-2.3,0.5-2.3,1.4
			c0,0.4,0.1,0.7,0.4,0.9S29.9,194.9,30.4,194.9z M33.9,184.4h1.4l-1.4,1.8l-1,0L33.9,184.4z"/>
		<path class="st1" d="M41.8,192.3c0,1.1-0.3,2-0.8,2.7s-1.2,1-2.1,1c-0.9,0-1.6-0.3-2.1-0.9v3.6h-1.3v-10.2h1.2l0.1,0.8
			c0.5-0.6,1.2-1,2.1-1c0.9,0,1.6,0.3,2.1,1s0.8,1.6,0.8,2.8V192.3z M40.5,192.1c0-0.8-0.2-1.5-0.5-2s-0.8-0.7-1.5-0.7
			c-0.8,0-1.3,0.3-1.7,1v3.5c0.4,0.7,1,1,1.7,1c0.6,0,1.1-0.2,1.4-0.7C40.3,193.8,40.5,193.1,40.5,192.1z"/>
		<path class="st1" d="M54,187.5h-1.3v8.4h-1.2l-0.1-0.8c-0.5,0.6-1.2,0.9-2.1,0.9c-0.9,0-1.6-0.4-2.1-1.1s-0.8-1.6-0.8-2.7v-0.1
			c0-1.1,0.3-2,0.8-2.7c0.5-0.7,1.2-1,2.1-1c0.9,0,1.6,0.3,2.1,0.9v-1.8h-1.8v-1h1.8v-1h1.3v1H54V187.5z M47.8,192.3
			c0,0.8,0.2,1.5,0.5,2s0.8,0.7,1.4,0.7c0.8,0,1.4-0.4,1.8-1.1v-3.4c-0.4-0.7-1-1-1.7-1c-0.6,0-1.1,0.2-1.4,0.7
			S47.8,191.3,47.8,192.3z"/>
		<path class="st1" d="M54.8,192.1c0-0.7,0.1-1.4,0.4-2s0.7-1,1.2-1.3s1.1-0.5,1.7-0.5c1,0,1.8,0.3,2.4,1s0.9,1.6,0.9,2.8v0.1
			c0,0.7-0.1,1.4-0.4,1.9c-0.3,0.6-0.7,1-1.2,1.3s-1.1,0.5-1.8,0.5c-1,0-1.8-0.3-2.4-1S54.8,193.4,54.8,192.1L54.8,192.1z
			 M60.2,187.3L60.2,187.3l-1,0.1l-1-1.2l-1,1.2l-1,0v-0.1l1.7-1.9h0.8L60.2,187.3z M56.1,192.3c0,0.8,0.2,1.5,0.6,2
			s0.9,0.7,1.5,0.7c0.6,0,1.2-0.3,1.5-0.8c0.4-0.5,0.6-1.2,0.6-2.1c0-0.8-0.2-1.5-0.6-2c-0.4-0.5-0.9-0.8-1.5-0.8
			c-0.6,0-1.1,0.2-1.5,0.7S56.1,191.4,56.1,192.3z M57.4,197.6c0-0.2,0.1-0.4,0.2-0.5s0.3-0.2,0.6-0.2s0.4,0.1,0.6,0.2
			s0.2,0.3,0.2,0.5s-0.1,0.4-0.2,0.5s-0.3,0.2-0.6,0.2s-0.4-0.1-0.6-0.2S57.4,197.8,57.4,197.6z"/>
	</g>
</g>
<g>
	<g>
		<path class="st1" d="M479.3,191.9h1.4v1h-1.4v2.3H478V193h-4.5v-0.7l4.5-6.9h1.3V191.9z M474.9,191.9h3.1V187l-0.2,0.3
			L474.9,191.9z"/>
		<path class="st1" d="M488.3,194.4c0.5,0,0.8-0.1,1.2-0.4s0.5-0.6,0.6-1h1.2c0,0.4-0.2,0.8-0.4,1.2s-0.6,0.7-1.1,0.9
			s-0.9,0.3-1.4,0.3c-1,0-1.8-0.3-2.4-1c-0.6-0.7-0.9-1.6-0.9-2.8v-0.2c0-0.7,0.1-1.4,0.4-1.9s0.6-1,1.1-1.3s1.1-0.5,1.8-0.5
			c0.8,0,1.5,0.2,2.1,0.7s0.8,1.1,0.9,1.9h-1.2c0-0.5-0.2-0.9-0.5-1.2c-0.3-0.3-0.7-0.5-1.2-0.5c-0.6,0-1.1,0.2-1.5,0.7
			c-0.4,0.5-0.5,1.1-0.5,2v0.2c0,0.9,0.2,1.5,0.5,2S487.7,194.4,488.3,194.4z"/>
		<path class="st1" d="M497.3,195.3c-0.1-0.1-0.1-0.4-0.2-0.8c-0.6,0.6-1.3,0.9-2.1,0.9c-0.7,0-1.3-0.2-1.8-0.6
			c-0.5-0.4-0.7-0.9-0.7-1.6c0-0.8,0.3-1.4,0.9-1.8c0.6-0.4,1.4-0.6,2.5-0.6h1.2v-0.6c0-0.4-0.1-0.8-0.4-1.1
			c-0.3-0.3-0.7-0.4-1.2-0.4c-0.5,0-0.8,0.1-1.1,0.3s-0.5,0.5-0.5,0.8h-1.3c0-0.4,0.1-0.7,0.4-1.1c0.3-0.3,0.6-0.6,1.1-0.8
			s0.9-0.3,1.5-0.3c0.9,0,1.5,0.2,2,0.6c0.5,0.4,0.7,1,0.8,1.8v3.4c0,0.7,0.1,1.2,0.3,1.6v0.1H497.3z M495.2,185h1l2,1.8l-1.3,0
			l-1.2-1.1l-1.2,1.1l-1.4,0L495.2,185z M495.2,194.3c0.4,0,0.8-0.1,1.1-0.3s0.6-0.5,0.8-0.8v-1.5h-1c-1.5,0-2.3,0.5-2.3,1.4
			c0,0.4,0.1,0.7,0.4,0.9S494.8,194.3,495.2,194.3z M498.7,183.8h1.4l-1.4,1.8l-1,0L498.7,183.8z"/>
		<path class="st1" d="M506.6,191.7c0,1.1-0.3,2-0.8,2.7s-1.2,1-2.1,1c-0.9,0-1.6-0.3-2.1-0.9v3.6h-1.3v-10.2h1.2l0.1,0.8
			c0.5-0.6,1.2-1,2.1-1c0.9,0,1.6,0.3,2.1,1s0.8,1.6,0.8,2.8V191.7z M505.3,191.5c0-0.8-0.2-1.5-0.5-2s-0.8-0.7-1.5-0.7
			c-0.8,0-1.3,0.3-1.7,1v3.5c0.4,0.7,1,1,1.7,1c0.6,0,1.1-0.2,1.4-0.7C505.1,193.2,505.3,192.5,505.3,191.5z"/>
		<path class="st1" d="M518.9,186.8h-1.3v8.4h-1.2l-0.1-0.8c-0.5,0.6-1.2,0.9-2.1,0.9c-0.9,0-1.6-0.4-2.1-1.1
			c-0.5-0.7-0.8-1.6-0.8-2.7v-0.1c0-1.1,0.3-2,0.8-2.7c0.5-0.7,1.2-1,2.1-1c0.9,0,1.6,0.3,2.1,0.9v-1.8h-1.8v-1h1.8v-1h1.3v1h1.3
			V186.8z M512.6,191.7c0,0.8,0.2,1.5,0.5,2s0.8,0.7,1.4,0.7c0.8,0,1.4-0.4,1.8-1.1v-3.4c-0.4-0.7-1-1-1.7-1c-0.6,0-1.1,0.2-1.4,0.7
			S512.6,190.7,512.6,191.7z"/>
		<path class="st1" d="M519.7,191.5c0-0.7,0.1-1.4,0.4-2c0.3-0.6,0.7-1,1.2-1.3c0.5-0.3,1.1-0.5,1.7-0.5c1,0,1.8,0.3,2.4,1
			c0.6,0.7,0.9,1.6,0.9,2.8v0.1c0,0.7-0.1,1.4-0.4,1.9c-0.3,0.6-0.7,1-1.2,1.3c-0.5,0.3-1.1,0.5-1.8,0.5c-1,0-1.8-0.3-2.4-1
			C520,193.7,519.7,192.7,519.7,191.5L519.7,191.5z M525,186.6L525,186.6l-1,0.1l-1-1.2l-1,1.2l-1,0v-0.1l1.7-1.9h0.8L525,186.6z
			 M520.9,191.7c0,0.8,0.2,1.5,0.6,2c0.4,0.5,0.9,0.7,1.5,0.7c0.6,0,1.2-0.3,1.5-0.8c0.4-0.5,0.6-1.2,0.6-2.1c0-0.8-0.2-1.5-0.6-2
			c-0.4-0.5-0.9-0.8-1.5-0.8c-0.6,0-1.1,0.2-1.5,0.7S520.9,190.7,520.9,191.7z M522.2,196.9c0-0.2,0.1-0.4,0.2-0.5
			c0.1-0.1,0.3-0.2,0.6-0.2s0.4,0.1,0.6,0.2s0.2,0.3,0.2,0.5s-0.1,0.4-0.2,0.5s-0.3,0.2-0.6,0.2s-0.4-0.1-0.6-0.2
			C522.3,197.3,522.2,197.2,522.2,196.9z"/>
	</g>
</g>
<g>
	<g>
		<path class="st1" d="M755.2,191.6h1.4v1h-1.4v2.3h-1.3v-2.3h-4.5v-0.7l4.5-6.9h1.3V191.6z M750.8,191.6h3.1v-4.9l-0.2,0.3
			L750.8,191.6z"/>
		<path class="st1" d="M764.3,194.1c0.5,0,0.8-0.1,1.2-0.4s0.5-0.6,0.6-1h1.2c0,0.4-0.2,0.8-0.4,1.2s-0.6,0.7-1.1,0.9
			c-0.4,0.2-0.9,0.3-1.4,0.3c-1,0-1.8-0.3-2.4-1c-0.6-0.7-0.9-1.6-0.9-2.8v-0.2c0-0.7,0.1-1.4,0.4-1.9s0.6-1,1.1-1.3
			c0.5-0.3,1.1-0.5,1.8-0.5c0.8,0,1.5,0.2,2.1,0.7c0.5,0.5,0.8,1.1,0.9,1.9H766c0-0.5-0.2-0.9-0.5-1.2c-0.3-0.3-0.7-0.5-1.2-0.5
			c-0.6,0-1.1,0.2-1.5,0.7c-0.4,0.5-0.5,1.1-0.5,2v0.2c0,0.9,0.2,1.5,0.5,2S763.6,194.1,764.3,194.1z"/>
		<path class="st1" d="M773.2,195c-0.1-0.1-0.1-0.4-0.2-0.8c-0.6,0.6-1.3,0.9-2.1,0.9c-0.7,0-1.3-0.2-1.8-0.6
			c-0.5-0.4-0.7-0.9-0.7-1.6c0-0.8,0.3-1.4,0.9-1.8c0.6-0.4,1.4-0.6,2.5-0.6h1.2v-0.6c0-0.4-0.1-0.8-0.4-1.1
			c-0.3-0.3-0.7-0.4-1.2-0.4c-0.5,0-0.8,0.1-1.1,0.3s-0.5,0.5-0.5,0.8h-1.3c0-0.4,0.1-0.7,0.4-1.1c0.3-0.3,0.6-0.6,1.1-0.8
			c0.4-0.2,0.9-0.3,1.5-0.3c0.9,0,1.5,0.2,2,0.6c0.5,0.4,0.7,1,0.8,1.8v3.4c0,0.7,0.1,1.2,0.3,1.6v0.1H773.2z M771.1,184.7h1l2,1.8
			l-1.3,0l-1.2-1.1l-1.2,1.1l-1.4,0L771.1,184.7z M771.1,194c0.4,0,0.8-0.1,1.1-0.3s0.6-0.5,0.8-0.8v-1.5h-1c-1.5,0-2.3,0.5-2.3,1.4
			c0,0.4,0.1,0.7,0.4,0.9S770.7,194,771.1,194z M774.6,183.5h1.4l-1.4,1.8l-1,0L774.6,183.5z"/>
		<path class="st1" d="M782.5,191.3c0,1.1-0.3,2-0.8,2.7s-1.2,1-2.1,1c-0.9,0-1.6-0.3-2.1-0.9v3.6h-1.3v-10.2h1.2l0.1,0.8
			c0.5-0.6,1.2-1,2.1-1c0.9,0,1.6,0.3,2.1,1c0.5,0.7,0.8,1.6,0.8,2.8V191.3z M781.2,191.2c0-0.8-0.2-1.5-0.5-2s-0.8-0.7-1.5-0.7
			c-0.8,0-1.3,0.3-1.7,1v3.5c0.4,0.7,1,1,1.7,1c0.6,0,1.1-0.2,1.4-0.7C781,192.9,781.2,192.1,781.2,191.2z"/>
		<path class="st1" d="M794.8,186.5h-1.3v8.4h-1.2l-0.1-0.8c-0.5,0.6-1.2,0.9-2.1,0.9c-0.9,0-1.6-0.4-2.1-1.1
			c-0.5-0.7-0.8-1.6-0.8-2.7v-0.1c0-1.1,0.3-2,0.8-2.7c0.5-0.7,1.2-1,2.1-1c0.9,0,1.6,0.3,2.1,0.9v-1.8h-1.8v-1h1.8v-1h1.3v1h1.3
			V186.5z M788.5,191.3c0,0.8,0.2,1.5,0.5,2s0.8,0.7,1.4,0.7c0.8,0,1.4-0.4,1.8-1.1v-3.4c-0.4-0.7-1-1-1.7-1c-0.6,0-1.1,0.2-1.4,0.7
			S788.5,190.4,788.5,191.3z"/>
		<path class="st1" d="M795.6,191.2c0-0.7,0.1-1.4,0.4-2c0.3-0.6,0.7-1,1.2-1.3c0.5-0.3,1.1-0.5,1.7-0.5c1,0,1.8,0.3,2.4,1
			c0.6,0.7,0.9,1.6,0.9,2.8v0.1c0,0.7-0.1,1.4-0.4,1.9c-0.3,0.6-0.7,1-1.2,1.3c-0.5,0.3-1.1,0.5-1.8,0.5c-1,0-1.8-0.3-2.4-1
			C795.9,193.4,795.6,192.4,795.6,191.2L795.6,191.2z M801,186.3L801,186.3l-1,0.1l-1-1.2l-1,1.2l-1,0v-0.1l1.7-1.9h0.8L801,186.3z
			 M796.9,191.3c0,0.8,0.2,1.5,0.6,2c0.4,0.5,0.9,0.7,1.5,0.7c0.6,0,1.2-0.3,1.5-0.8c0.4-0.5,0.6-1.2,0.6-2.1c0-0.8-0.2-1.5-0.6-2
			c-0.4-0.5-0.9-0.8-1.5-0.8c-0.6,0-1.1,0.2-1.5,0.7S796.9,190.4,796.9,191.3z M798.2,196.6c0-0.2,0.1-0.4,0.2-0.5
			c0.1-0.1,0.3-0.2,0.6-0.2s0.4,0.1,0.6,0.2s0.2,0.3,0.2,0.5s-0.1,0.4-0.2,0.5s-0.3,0.2-0.6,0.2s-0.4-0.1-0.6-0.2
			C798.2,197,798.2,196.8,798.2,196.6z"/>
	</g>
</g>
<g>
	<g>
		<path class="st1" d="M204.9,193.1h1.4v1h-1.4v2.3h-1.3v-2.3H199v-0.7l4.5-6.9h1.3V193.1z M200.5,193.1h3.1v-4.9l-0.2,0.3
			L200.5,193.1z"/>
		<path class="st1" d="M213.9,195.6c0.5,0,0.8-0.1,1.2-0.4s0.5-0.6,0.6-1h1.2c0,0.4-0.2,0.8-0.4,1.2s-0.6,0.7-1.1,0.9
			s-0.9,0.3-1.4,0.3c-1,0-1.8-0.3-2.4-1c-0.6-0.7-0.9-1.6-0.9-2.8v-0.2c0-0.7,0.1-1.4,0.4-1.9s0.6-1,1.1-1.3s1.1-0.5,1.8-0.5
			c0.8,0,1.5,0.2,2.1,0.7s0.8,1.1,0.9,1.9h-1.2c0-0.5-0.2-0.9-0.5-1.2c-0.3-0.3-0.7-0.5-1.2-0.5c-0.6,0-1.1,0.2-1.5,0.7
			c-0.4,0.5-0.5,1.1-0.5,2v0.2c0,0.9,0.2,1.5,0.5,2S213.3,195.6,213.9,195.6z"/>
		<path class="st1" d="M222.9,196.5c-0.1-0.1-0.1-0.4-0.2-0.8c-0.6,0.6-1.3,0.9-2.1,0.9c-0.7,0-1.3-0.2-1.8-0.6
			c-0.5-0.4-0.7-0.9-0.7-1.6c0-0.8,0.3-1.4,0.9-1.8c0.6-0.4,1.4-0.6,2.5-0.6h1.2v-0.6c0-0.4-0.1-0.8-0.4-1.1
			c-0.3-0.3-0.7-0.4-1.2-0.4c-0.5,0-0.8,0.1-1.1,0.3s-0.5,0.5-0.5,0.8h-1.3c0-0.4,0.1-0.7,0.4-1.1c0.3-0.3,0.6-0.6,1.1-0.8
			s0.9-0.3,1.5-0.3c0.9,0,1.5,0.2,2,0.6c0.5,0.4,0.7,1,0.8,1.8v3.4c0,0.7,0.1,1.2,0.3,1.6v0.1H222.9z M220.8,186.2h1l2,1.8l-1.3,0
			l-1.2-1.1l-1.2,1.1l-1.4,0L220.8,186.2z M220.8,195.5c0.4,0,0.8-0.1,1.1-0.3s0.6-0.5,0.8-0.8v-1.5h-1c-1.5,0-2.3,0.5-2.3,1.4
			c0,0.4,0.1,0.7,0.4,0.9S220.4,195.5,220.8,195.5z M224.3,185h1.4l-1.4,1.8l-1,0L224.3,185z"/>
		<path class="st1" d="M232.2,192.9c0,1.1-0.3,2-0.8,2.7s-1.2,1-2.1,1c-0.9,0-1.6-0.3-2.1-0.9v3.6h-1.3v-10.2h1.2l0.1,0.8
			c0.5-0.6,1.2-1,2.1-1c0.9,0,1.6,0.3,2.1,1s0.8,1.6,0.8,2.8V192.9z M230.9,192.7c0-0.8-0.2-1.5-0.5-2s-0.8-0.7-1.5-0.7
			c-0.8,0-1.3,0.3-1.7,1v3.5c0.4,0.7,1,1,1.7,1c0.6,0,1.1-0.2,1.4-0.7C230.7,194.4,230.9,193.7,230.9,192.7z"/>
		<path class="st1" d="M244.5,188h-1.3v8.4H242l-0.1-0.8c-0.5,0.6-1.2,0.9-2.1,0.9c-0.9,0-1.6-0.4-2.1-1.1s-0.8-1.6-0.8-2.7v-0.1
			c0-1.1,0.3-2,0.8-2.7c0.5-0.7,1.2-1,2.1-1c0.9,0,1.6,0.3,2.1,0.9V188h-1.8v-1h1.8v-1h1.3v1h1.3V188z M238.2,192.9
			c0,0.8,0.2,1.5,0.5,2s0.8,0.7,1.4,0.7c0.8,0,1.4-0.4,1.8-1.1v-3.4c-0.4-0.7-1-1-1.7-1c-0.6,0-1.1,0.2-1.4,0.7
			S238.2,191.9,238.2,192.9z"/>
		<path class="st1" d="M245.3,192.7c0-0.7,0.1-1.4,0.4-2s0.7-1,1.2-1.3s1.1-0.5,1.7-0.5c1,0,1.8,0.3,2.4,1s0.9,1.6,0.9,2.8v0.1
			c0,0.7-0.1,1.4-0.4,1.9c-0.3,0.6-0.7,1-1.2,1.3s-1.1,0.5-1.8,0.5c-1,0-1.8-0.3-2.4-1S245.3,193.9,245.3,192.7L245.3,192.7z
			 M250.6,187.8L250.6,187.8l-1,0.1l-1-1.2l-1,1.2l-1,0v-0.1l1.7-1.9h0.8L250.6,187.8z M246.5,192.9c0,0.8,0.2,1.5,0.6,2
			s0.9,0.7,1.5,0.7c0.6,0,1.2-0.3,1.5-0.8c0.4-0.5,0.6-1.2,0.6-2.1c0-0.8-0.2-1.5-0.6-2c-0.4-0.5-0.9-0.8-1.5-0.8
			c-0.6,0-1.1,0.2-1.5,0.7S246.5,191.9,246.5,192.9z M247.8,198.1c0-0.2,0.1-0.4,0.2-0.5s0.3-0.2,0.6-0.2s0.4,0.1,0.6,0.2
			s0.2,0.3,0.2,0.5s-0.1,0.4-0.2,0.5s-0.3,0.2-0.6,0.2s-0.4-0.1-0.6-0.2S247.8,198.4,247.8,198.1z"/>
	</g>
</g>
<g>
</g>
<g>
</g>
<g>
</g>
<g>
</g>
<g>
</g>
<g>
</g>
<g>
</g>
<g>
</g>
<g>
</g>
<g>
</g>
<g>
</g>
<g>
</g>
<g>
</g>
<g>
</g>
<g>
</g>
</svg>
