<?xml version="1.0" encoding="utf-8"?>
<!-- Generator: Adobe Illustrator 22.1.0, SVG Export Plug-In . SVG Version: 6.00 Build 0)  -->
<svg version="1.1" id="Layer_1" xmlns="http://www.w3.org/2000/svg" xmlns:xlink="http://www.w3.org/1999/xlink" x="0px" y="0px"
	 viewBox="0 0 1043 175.6" style="enable-background:new 0 0 1043 175.6;" xml:space="preserve">
<style type="text/css">
	.st0{fill:#034EA1;}
	.st1{fill:url(#SVGID_1_);}
	.st2{fill:url(#SVGID_2_);}
	.st3{fill:#B90C2F;}
	.st4{fill:#F6921E;}
	.st5{fill:#FFFFFF;}
	.st6{fill:#002E6E;}
	.st7{font-family:'DINVnu-Light';}
	.st8{font-size:24.0299px;}
	.st9{letter-spacing:-1;}
</style>
<g>
	<rect x="2.2" y="60.8" class="st0" width="306" height="32.6"/>
	<rect x="2.2" class="st0" width="433" height="58.6"/>
	<linearGradient id="SVGID_1_" gradientUnits="userSpaceOnUse" x1="86.056" y1="77.0573" x2="1061.2751" y2="77.0573">
		<stop  offset="0" style="stop-color:#8DD7F7"/>
		<stop  offset="7.247153e-02" style="stop-color:#6EC9F0"/>
		<stop  offset="0.1797" style="stop-color:#47B8E7"/>
		<stop  offset="0.2651" style="stop-color:#2EADE2"/>
		<stop  offset="0.3172" style="stop-color:#25A9E0"/>
		<stop  offset="0.3714" style="stop-color:#229DD0"/>
		<stop  offset="0.4584" style="stop-color:#1F8EBC"/>
		<stop  offset="0.5459" style="stop-color:#1E85B0"/>
		<stop  offset="0.6344" style="stop-color:#1D82AC"/>
		<stop  offset="0.7153" style="stop-color:#156B97"/>
		<stop  offset="0.8094" style="stop-color:#0E5785"/>
		<stop  offset="0.9042" style="stop-color:#094B7B"/>
		<stop  offset="1" style="stop-color:#084777"/>
	</linearGradient>
	<polygon class="st1" points="308.2,93.3 1040.8,93.3 1040.8,60.8 308.2,60.8 	"/>
	<linearGradient id="SVGID_2_" gradientUnits="userSpaceOnUse" x1="308.2026" y1="131.2736" x2="1042.9595" y2="131.2736">
		<stop  offset="0" style="stop-color:#EF4355"/>
		<stop  offset="1" style="stop-color:#EC2744"/>
	</linearGradient>
	<rect x="308.2" y="95.5" class="st2" width="734.8" height="71.5"/>
	<rect x="0.2" y="95.5" class="st3" width="159.3" height="71.5"/>
	<rect x="156.4" y="95.5" class="st4" width="153.9" height="71.5"/>
	<g>
		<g>
			<path class="st5" d="M20.2,25.2h2.9v5.7h0.1c0.3-0.5,0.6-1,0.9-1.4l2.9-4.3h3.6l-4.3,5.5l4.5,7.4h-3.4l-3.2-5.6l-1.1,1.4v4.2
				h-2.9V25.2z"/>
			<path class="st5" d="M34.3,25.2v5h4.8v-5H42v13h-2.9v-5.4h-4.8v5.4h-2.9v-13H34.3z"/>
			<path class="st5" d="M46.9,25.2v7.5c0,2.2,0.8,3.4,2.3,3.4c1.5,0,2.4-1.1,2.4-3.4v-7.5h2.9v7.3c0,4-2,5.9-5.4,5.9
				c-3.3,0-5.2-1.8-5.2-5.9v-7.2H46.9z"/>
			<path class="st5" d="M56.4,38.2v-13h3.4l2.7,4.7c0.8,1.4,1.5,3,2.1,4.4h0.1c-0.2-1.7-0.2-3.5-0.2-5.4v-3.8h2.7v13h-3.1l-2.8-5
				c-0.8-1.4-1.6-3.1-2.2-4.6l-0.1,0c0.1,1.7,0.1,3.5,0.1,5.7v3.9H56.4z"/>
			<path class="st5" d="M79.9,37.6c-0.9,0.3-2.6,0.7-4.3,0.7c-2.4,0-4.1-0.6-5.3-1.8c-1.2-1.1-1.8-2.8-1.8-4.7
				c0-4.3,3.2-6.8,7.4-6.8c1.7,0,3,0.3,3.6,0.6L78.8,28c-0.7-0.3-1.6-0.6-3-0.6c-2.4,0-4.3,1.4-4.3,4.2c0,2.7,1.7,4.2,4.1,4.2
				c0.7,0,1.2-0.1,1.4-0.2V33h-2v-2.3h4.8V37.6z"/>
			<path class="st5" d="M86.5,27.7h-3.5v-2.5h10v2.5h-3.5v10.5h-2.9V27.7z"/>
			<path class="st5" d="M96.9,25.2v5h4.8v-5h2.9v13h-2.9v-5.4h-4.8v5.4h-2.9v-13H96.9z"/>
			<path class="st5" d="M109.6,34.8l-0.9,3.3h-3l4-13h3.8l4,13h-3.2l-1-3.3H109.6z M112.9,32.6l-0.8-2.8c-0.2-0.8-0.5-1.7-0.7-2.5h0
				c-0.2,0.8-0.4,1.8-0.6,2.5l-0.8,2.8H112.9z"/>
			<path class="st5" d="M129.5,33.2c-0.1-1.6-0.1-3.4-0.1-5.3h-0.1c-0.4,1.7-0.9,3.5-1.4,5l-1.6,5.1H124l-1.4-5
				c-0.4-1.5-0.9-3.4-1.2-5.1h0c-0.1,1.8-0.1,3.7-0.2,5.4l-0.2,4.9h-2.7l0.8-13h3.9l1.3,4.3c0.4,1.5,0.8,3.1,1.1,4.6h0.1
				c0.4-1.5,0.8-3.2,1.2-4.7l1.4-4.3h3.8l0.7,13h-2.9L129.5,33.2z"/>
			<path class="st5" d="M146.9,37.8c-0.5,0.3-1.7,0.6-3.3,0.6c-4.5,0-6.8-2.8-6.8-6.5c0-4.4,3.2-6.9,7.1-6.9c1.5,0,2.7,0.3,3.2,0.6
				l-0.6,2.3c-0.6-0.3-1.4-0.5-2.5-0.5c-2.3,0-4.1,1.4-4.1,4.3c0,2.6,1.5,4.2,4.2,4.2c0.9,0,1.9-0.2,2.4-0.4L146.9,37.8z"/>
			<path class="st5" d="M151.2,25.2v5h4.8v-5h2.9v13H156v-5.4h-4.8v5.4h-2.9v-13H151.2z"/>
			<path class="st5" d="M163.8,25.2v13h-2.9v-13H163.8z"/>
			<path class="st5" d="M173.4,32.7h-4.8v3.1h5.3v2.4h-8.3v-13h8v2.4h-5.1v2.7h4.8V32.7z M170.8,22.1l1.7,2.4h-1.9l-0.8-1.2h0
				l-0.8,1.2H167l1.7-2.4H170.8z M175.5,20.6l-2.6,2.2h-1.4l1.5-2.2H175.5z"/>
			<path class="st5" d="M178.2,25.2v7.5c0,2.2,0.8,3.4,2.3,3.4c1.5,0,2.4-1.1,2.4-3.4v-7.5h2.9v7.3c0,4-2,5.9-5.4,5.9
				c-3.3,0-5.2-1.8-5.2-5.9v-7.2H178.2z"/>
			<path class="st5" d="M192.8,27.7h-3.5v-2.5h10v2.5h-3.5v10.5h-2.9V27.7z"/>
			<path class="st5" d="M203.2,25.2v13h-2.9v-13H203.2z"/>
			<path class="st5" d="M212.8,32.7H208v3.1h5.3v2.4h-8.3v-13h8v2.4H208v2.7h4.8V32.7z M210.2,22.1l1.9,2.4h-2.1l-1-1.2h0l-1,1.2h-2
				l1.9-2.4H210.2z"/>
			<path class="st5" d="M217.6,25.2v7.5c0,2.2,0.8,3.4,2.3,3.4c1.5,0,2.4-1.1,2.4-3.4v-7.5h2.9v7.3c0,4-2,5.9-5.4,5.9
				c-3.3,0-5.2-1.8-5.2-5.9v-7.2H217.6z"/>
			<path class="st5" d="M239.9,37.8c-0.5,0.3-1.7,0.6-3.3,0.6c-4.5,0-6.8-2.8-6.8-6.5c0-4.4,3.2-6.9,7.1-6.9c1.5,0,2.7,0.3,3.2,0.6
				l-0.6,2.3c-0.6-0.3-1.4-0.5-2.5-0.5c-2.3,0-4.1,1.4-4.1,4.3c0,2.6,1.5,4.2,4.2,4.2c0.9,0,1.9-0.2,2.4-0.4L239.9,37.8z"/>
			<path class="st5" d="M244.2,25.2v5h4.8v-5h2.9v13H249v-5.4h-4.8v5.4h-2.9v-13H244.2z"/>
			<path class="st5" d="M256.8,25.2v7.5c0,2.2,0.8,3.4,2.3,3.4c1.5,0,2.4-1.1,2.4-3.4v-7.5h2.9v7.3c0,4-2,5.9-5.4,5.9
				c-3.3,0-5.2-1.8-5.2-5.9v-7.2H256.8z"/>
			<path class="st5" d="M268.8,34.8l-0.9,3.3h-3l4-13h3.8l4,13h-3.2l-1-3.3H268.8z M271.7,22.1l1.7,2.4h-1.9l-0.8-1.2h0l-0.9,1.2
				H268l1.7-2.4H271.7z M272.1,32.6l-0.8-2.8c-0.2-0.8-0.5-1.7-0.7-2.5h0c-0.2,0.8-0.4,1.8-0.6,2.5l-0.8,2.8H272.1z M273.1,23.3
				c0.3-0.8,1-1,1-1.6c0-0.3-0.3-0.6-0.6-0.6c-0.4,0-0.7,0.4-0.9,0.7l-0.9-0.5c0.4-0.8,1.1-1.4,2.2-1.4c1,0,1.7,0.7,1.7,1.5
				c0,1-0.9,1.2-1.4,2.2L273.1,23.3z"/>
			<path class="st5" d="M277.7,38.2v-13h3.4l2.7,4.7c0.8,1.4,1.5,3,2.1,4.4h0.1c-0.2-1.7-0.3-3.5-0.3-5.4v-3.8h2.7v13h-3.1l-2.8-5
				c-0.8-1.4-1.6-3.1-2.2-4.6l-0.1,0c0.1,1.7,0.1,3.5,0.1,5.7v3.9H277.7z"/>
			<path class="st5" d="M303.1,37.8c-0.5,0.3-1.7,0.6-3.3,0.6c-4.5,0-6.8-2.8-6.8-6.5c0-4.4,3.2-6.9,7.1-6.9c1.5,0,2.7,0.3,3.2,0.6
				l-0.6,2.3c-0.6-0.3-1.4-0.5-2.5-0.5c-2.3,0-4.1,1.4-4.1,4.3c0,2.6,1.5,4.2,4.2,4.2c0.9,0,1.9-0.2,2.4-0.4L303.1,37.8z"/>
			<path class="st5" d="M307.4,25.2v5h4.8v-5h2.9v13h-2.9v-5.4h-4.8v5.4h-2.9v-13H307.4z"/>
			<path class="st5" d="M320.1,34.8l-0.9,3.3h-3l4-13h3.8l4,13h-3.2l-1-3.3H320.1z M323.2,22.1l1.9,2.4h-2.1l-1-1.2h0l-1,1.2h-2
				l1.9-2.4H323.2z M323.3,32.6l-0.8-2.8c-0.2-0.8-0.5-1.7-0.7-2.5h0c-0.2,0.8-0.4,1.8-0.6,2.5l-0.8,2.8H323.3z"/>
			<path class="st5" d="M331.3,25.2v7.5c0,2.2,0.8,3.4,2.3,3.4c1.5,0,2.4-1.1,2.4-3.4v-7.5h2.9v7.3c0,4-2,5.9-5.4,5.9
				c-3.3,0-5.2-1.8-5.2-5.9v-7.2H331.3z"/>
			<path class="st5" d="M347.1,34.8l-0.9,3.3h-3l4-13h3.8l4,13h-3.2l-1-3.3H347.1z M350.2,22.1l1.9,2.4h-2.1l-1-1.2h0l-1,1.2h-2
				l1.9-2.4H350.2z M350.4,32.6l-0.8-2.8c-0.2-0.8-0.5-1.7-0.7-2.5h0c-0.2,0.8-0.4,1.8-0.6,2.5l-0.8,2.8H350.4z"/>
			<path class="st5" d="M358.3,25.2v7.5c0,2.2,0.8,3.4,2.3,3.4c1.5,0,2.4-1.1,2.4-3.4v-7.5h2.9v7.3c0,4-2,5.9-5.4,5.9
				c-3.3,0-5.2-1.8-5.2-5.9v-7.2H358.3z"/>
			<path class="st5" d="M375.2,24.9c-1.1,1.8-1.9,4.3-1.9,7.8c0,3.4,0.9,5.9,1.9,7.7h-2c-1-1.5-2.2-4-2.2-7.7c0-3.7,1.2-6.3,2.2-7.8
				H375.2z"/>
			<path class="st5" d="M385.6,37.8c-0.5,0.3-1.7,0.6-3.3,0.6c-4.5,0-6.8-2.8-6.8-6.5c0-4.4,3.2-6.9,7.1-6.9c1.5,0,2.7,0.3,3.2,0.6
				l-0.6,2.3c-0.6-0.3-1.4-0.5-2.5-0.5c-2.3,0-4.1,1.4-4.1,4.3c0,2.6,1.5,4.2,4.2,4.2c0.9,0,1.9-0.2,2.4-0.4L385.6,37.8z"/>
			<path class="st5" d="M394.6,32.7h-4.8v3.1h5.3v2.4h-8.3v-13h8v2.4h-5.1v2.7h4.8V32.7z"/>
			<path class="st5" d="M396.5,25.2h7.9v2.4h-5v3h4.7v2.4h-4.7v5.2h-2.9V25.2z"/>
			<path class="st5" d="M406,25.4c0.9-0.2,2.3-0.3,3.9-0.3c1.9,0,3.3,0.3,4.2,1c0.8,0.6,1.2,1.5,1.2,2.7c0,1.7-1.2,2.8-2.3,3.2v0.1
				c0.9,0.4,1.4,1.2,1.7,2.4c0.4,1.5,0.8,3.2,1.1,3.7h-3c-0.2-0.4-0.5-1.4-0.9-3c-0.3-1.6-0.9-2.1-2.1-2.1h-0.9v5.1H406V25.4z
				 M408.9,30.9h1.2c1.5,0,2.3-0.7,2.3-1.9c0-1.2-0.8-1.8-2.2-1.8c-0.7,0-1.1,0.1-1.3,0.1V30.9z"/>
			<path class="st5" d="M416.2,40.4c1.1-1.8,1.9-4.4,1.9-7.8s-0.9-6-1.9-7.7h2c1,1.5,2.2,4,2.2,7.7c0,3.7-1.2,6.3-2.2,7.8H416.2z"/>
		</g>
		<g>
			<path class="st5" d="M62.5,85.5c-0.6,0.3-2,0.6-3.8,0.6c-5.2,0-7.8-3.2-7.8-7.5c0-5.1,3.6-7.9,8.1-7.9c1.7,0,3.1,0.4,3.7,0.7
				L62,74.1c-0.7-0.3-1.6-0.6-2.8-0.6c-2.7,0-4.8,1.6-4.8,4.9c0,3,1.8,4.9,4.8,4.9c1,0,2.1-0.2,2.8-0.5L62.5,85.5z"/>
			<path class="st5" d="M67.7,71v5.7h5.6V71h3.4v14.9h-3.4v-6.2h-5.6v6.2h-3.4V71H67.7z"/>
			<path class="st5" d="M93.5,68.3c0.3,0.6,0.5,1.3,0.5,2.1c0,1.3-0.8,2.3-2.4,2.4l-0.4,0v6.6c0,4.6-2.3,6.8-6.2,6.8
				c-3.8,0-6-2.1-6-6.8V71h3.4v8.6c0,2.6,1,3.9,2.7,3.9c1.8,0,2.7-1.2,2.7-3.9V71h2.6c0.9,0,1.2-0.3,1.2-0.9c0-0.5-0.2-1-0.5-1.5
				L93.5,68.3z M88.9,67.5l-2.7,2.7h-2.7l1.9-2.7H88.9z"/>
			<path class="st5" d="M94.8,85.9V71h3.9l3.1,5.5c0.9,1.6,1.8,3.4,2.4,5.1h0.1c-0.2-2-0.3-4-0.3-6.2V71h3.1v14.9h-3.5l-3.2-5.8
				c-0.9-1.6-1.9-3.5-2.6-5.3l-0.1,0c0.1,2,0.1,4.1,0.1,6.5v4.5H94.8z"/>
			<path class="st5" d="M122.1,85.2c-1,0.4-3,0.8-5,0.8c-2.7,0-4.7-0.7-6.1-2c-1.4-1.3-2.1-3.2-2.1-5.4c0-5,3.6-7.8,8.5-7.8
				c1.9,0,3.4,0.4,4.1,0.7l-0.7,2.7c-0.8-0.4-1.8-0.6-3.5-0.6c-2.8,0-4.9,1.6-4.9,4.8c0,3.1,1.9,4.9,4.7,4.9c0.8,0,1.4-0.1,1.7-0.2
				V80h-2.3v-2.6h5.6V85.2z"/>
			<path class="st5" d="M139.2,85.5c-0.6,0.3-2,0.6-3.8,0.6c-5.2,0-7.8-3.2-7.8-7.5c0-5.1,3.6-7.9,8.1-7.9c1.7,0,3.1,0.4,3.7,0.7
				l-0.7,2.7c-0.7-0.3-1.6-0.6-2.8-0.6c-2.7,0-4.8,1.6-4.8,4.9c0,3,1.8,4.9,4.8,4.9c1,0,2.1-0.2,2.8-0.5L139.2,85.5z"/>
			<path class="st5" d="M144.4,71v5.7h5.6V71h3.4v14.9H150v-6.2h-5.6v6.2H141V71H144.4z"/>
			<path class="st5" d="M156.8,70c0.3-1,1.1-1.2,1.1-1.9c0-0.4-0.3-0.7-0.7-0.7c-0.4,0-0.8,0.4-1,0.8l-1.1-0.6
				c0.5-1,1.3-1.7,2.7-1.7c1.2,0,2.1,0.9,2.1,1.9c0,1.3-1.1,1.5-1.7,2.7L156.8,70z M159.2,71v14.9h-3.4V71H159.2z"/>
			<path class="st5" d="M178.5,88.5c-2.1-0.6-3.9-1.3-5.9-2.1c-0.3-0.1-0.7-0.2-1-0.2c-3.4-0.2-6.5-2.7-6.5-7.6
				c0-4.5,2.8-7.8,7.3-7.8c4.6,0,7.1,3.5,7.1,7.5c0,3.4-1.6,5.8-3.5,6.7V85c1.2,0.3,2.4,0.6,3.6,0.8L178.5,88.5z M175.8,78.4
				c0-2.7-1.3-5-3.6-5c-2.3,0-3.6,2.3-3.6,5c0,2.8,1.3,5,3.6,5C174.5,83.5,175.8,81.3,175.8,78.4z"/>
			<path class="st5" d="M184.5,71v8.6c0,2.6,1,3.9,2.7,3.9c1.8,0,2.7-1.2,2.7-3.9V71h3.4v8.4c0,4.6-2.3,6.8-6.2,6.8
				c-3.8,0-6-2.1-6-6.8V71H184.5z"/>
			<path class="st5" d="M209.4,78.3c0,4.9-3,7.9-7.3,7.9c-4.4,0-7-3.3-7-7.6c0-4.5,2.9-7.8,7.3-7.8
				C206.9,70.8,209.4,74.2,209.4,78.3z M198.7,78.5c0,2.9,1.4,5,3.6,5c2.3,0,3.6-2.2,3.6-5.1c0-2.7-1.3-5-3.6-5
				C200,73.4,198.7,75.6,198.7,78.5z M203.6,67.5l2,2.7h-2.2l-1-1.4h0l-1,1.4h-2.2l2-2.7H203.6z M209.1,65.7l-3,2.5h-1.6l1.7-2.5
				H209.1z"/>
			<path class="st5" d="M222.2,85.5c-0.6,0.3-2,0.6-3.8,0.6c-5.2,0-7.8-3.2-7.8-7.5c0-5.1,3.6-7.9,8.1-7.9c1.7,0,3.1,0.4,3.7,0.7
				l-0.7,2.7c-0.7-0.3-1.6-0.6-2.8-0.6c-2.7,0-4.8,1.6-4.8,4.9c0,3,1.8,4.9,4.8,4.9c1,0,2.1-0.2,2.8-0.5L222.2,85.5z"/>
			<path class="st5" d="M230,73.8h-4V71h11.5v2.8h-4.1v12.1H230V73.8z"/>
			<path class="st5" d="M247.7,79.6h-5.5v3.5h6.1v2.8h-9.5V71h9.2v2.8h-5.8v3.1h5.5V79.6z M244.6,67.5l2,2.7h-2.2l-1-1.4h0l-1,1.4
				h-2.1l2-2.7H244.6z M250.1,65.7l-3,2.5h-1.6l1.7-2.5H250.1z"/>
		</g>
		<g>
			<path class="st5" d="M24,122.8h3.3v6.6h0.1c0.3-0.6,0.7-1.1,1-1.6l3.4-5h4.1l-4.9,6.3l5.2,8.6h-3.9l-3.7-6.4l-1.3,1.6v4.9H24
				V122.8z"/>
			<path class="st5" d="M40.5,122.8v5.7H46v-5.7h3.4v14.9H46v-6.2h-5.6v6.2h-3.4v-14.9H40.5z"/>
			<path class="st5" d="M65.6,130.1c0,4.9-3,7.9-7.3,7.9c-4.4,0-7-3.3-7-7.6c0-4.5,2.9-7.8,7.3-7.8C63.1,122.6,65.6,126,65.6,130.1z
				 M54.8,130.3c0,2.9,1.4,5,3.6,5c2.3,0,3.6-2.2,3.6-5.1c0-2.7-1.3-5-3.6-5C56.1,125.3,54.8,127.4,54.8,130.3z M62.2,119.3
				l-2.7,2.7h-2.7l1.9-2.7H62.2z"/>
			<path class="st5" d="M70.4,133.9l-1.1,3.8h-3.5l4.6-14.9h4.4l4.6,14.9h-3.6l-1.2-3.8H70.4z M74.2,131.4l-0.9-3.2
				c-0.3-0.9-0.5-2-0.8-2.9h0c-0.2,0.9-0.4,2-0.7,2.9l-0.9,3.2H74.2z"/>
			<path class="st5" d="M88.5,122.8v5.7H94v-5.7h3.4v14.9H94v-6.2h-5.6v6.2h-3.4v-14.9H88.5z"/>
			<path class="st5" d="M113.5,130.1c0,4.9-3,7.9-7.3,7.9c-4.4,0-7-3.3-7-7.6c0-4.5,2.9-7.8,7.3-7.8
				C111,122.6,113.5,126,113.5,130.1z M102.8,130.3c0,2.9,1.4,5,3.6,5c2.3,0,3.6-2.2,3.6-5.1c0-2.7-1.3-5-3.6-5
				C104.1,125.3,102.8,127.4,102.8,130.3z M104.8,141c0-0.9,0.7-1.5,1.5-1.5c0.8,0,1.5,0.7,1.5,1.5c0,0.8-0.6,1.5-1.5,1.5
				C105.5,142.5,104.8,141.8,104.8,141z"/>
			<path class="st5" d="M126.3,137.3c-0.6,0.3-2,0.6-3.8,0.6c-5.2,0-7.8-3.2-7.8-7.5c0-5.1,3.6-7.9,8.1-7.9c1.7,0,3.1,0.4,3.7,0.7
				l-0.7,2.7c-0.7-0.3-1.6-0.6-2.8-0.6c-2.7,0-4.8,1.6-4.8,4.9c0,3,1.8,4.9,4.8,4.9c1,0,2.1-0.2,2.8-0.5L126.3,137.3z"/>
		</g>
		<g>
			<path class="st5" d="M173.3,121.7c0.9-0.2,2.1-0.3,3.7-0.3c1.9,0,3.3,0.4,4.2,1.2c0.8,0.7,1.3,1.8,1.3,3.1c0,1.3-0.4,2.4-1.1,3.2
				c-1,1.1-2.7,1.6-4.5,1.6c-0.6,0-1.1,0-1.5-0.1v5.9h-1.9V121.7z M175.2,128.8c0.4,0.1,0.9,0.2,1.6,0.2c2.3,0,3.7-1.1,3.7-3.2
				c0-2-1.4-2.9-3.5-2.9c-0.8,0-1.5,0.1-1.8,0.2V128.8z"/>
			<path class="st5" d="M184.1,129c0-1.3,0-2.3-0.1-3.3h1.7l0.1,2.1h0.1c0.5-1.4,1.6-2.3,2.9-2.3c0.2,0,0.4,0,0.5,0.1v1.8
				c-0.2,0-0.4-0.1-0.7-0.1c-1.4,0-2.3,1-2.6,2.5c0,0.3-0.1,0.6-0.1,0.9v5.7h-1.9V129z"/>
			<path class="st5" d="M191.7,131.4c0,2.6,1.7,3.7,3.6,3.7c1.4,0,2.2-0.2,2.9-0.5l0.3,1.4c-0.7,0.3-1.8,0.7-3.5,0.7
				c-3.3,0-5.2-2.2-5.2-5.4c0-3.2,1.9-5.7,5-5.7c3.5,0,4.4,3.1,4.4,5c0,0.4,0,0.7-0.1,0.9H191.7z M197.4,130c0-1.2-0.5-3.1-2.7-3.1
				c-2,0-2.8,1.8-3,3.1H197.4z"/>
			<path class="st5" d="M206.3,129.7v1.4h-5.4v-1.4H206.3z"/>
			<path class="st5" d="M207.9,134c0.9,0.5,2.1,1,3.4,1c2,0,3.1-1,3.1-2.5c0-1.4-0.8-2.2-2.8-2.9c-2.4-0.9-3.9-2.1-3.9-4.2
				c0-2.3,1.9-4,4.8-4c1.5,0,2.6,0.4,3.3,0.7l-0.5,1.6c-0.5-0.3-1.5-0.7-2.8-0.7c-2,0-2.8,1.2-2.8,2.2c0,1.4,0.9,2.1,2.9,2.9
				c2.5,1,3.8,2.2,3.8,4.4c0,2.3-1.7,4.3-5.2,4.3c-1.4,0-3-0.4-3.8-0.9L207.9,134z"/>
			<path class="st5" d="M227.4,133.4c0,1.1,0,2.1,0.1,2.9h-1.7l-0.1-1.7h0c-0.5,0.9-1.6,2-3.5,2c-1.7,0-3.7-0.9-3.7-4.7v-6.2h1.9
				v5.9c0,2,0.6,3.4,2.4,3.4c1.3,0,2.2-0.9,2.5-1.8c0.1-0.3,0.2-0.6,0.2-1v-6.5h1.9V133.4z"/>
			<path class="st5" d="M230.2,129.2c0-1.4,0-2.5-0.1-3.5h1.7l0.1,1.8h0c0.8-1.3,2-2.1,3.8-2.1c2.6,0,4.5,2.2,4.5,5.4
				c0,3.8-2.3,5.7-4.8,5.7c-1.4,0-2.6-0.6-3.3-1.7h0v5.8h-1.9V129.2z M232.1,132c0,0.3,0,0.5,0.1,0.8c0.4,1.3,1.5,2.3,2.9,2.3
				c2,0,3.2-1.7,3.2-4.1c0-2.1-1.1-4-3.2-4c-1.3,0-2.5,0.9-2.9,2.4c-0.1,0.2-0.1,0.5-0.1,0.8V132z"/>
			<path class="st5" d="M243.3,131.4c0,2.6,1.7,3.7,3.6,3.7c1.4,0,2.2-0.2,2.9-0.5l0.3,1.4c-0.7,0.3-1.8,0.7-3.5,0.7
				c-3.3,0-5.2-2.2-5.2-5.4c0-3.2,1.9-5.7,5-5.7c3.5,0,4.4,3.1,4.4,5c0,0.4,0,0.7-0.1,0.9H243.3z M249,130c0-1.2-0.5-3.1-2.7-3.1
				c-2,0-2.8,1.8-3,3.1H249z"/>
			<path class="st5" d="M252.8,129c0-1.3,0-2.3-0.1-3.3h1.7l0.1,2.1h0.1c0.5-1.4,1.6-2.3,2.9-2.3c0.2,0,0.4,0,0.5,0.1v1.8
				c-0.2,0-0.4-0.1-0.7-0.1c-1.4,0-2.3,1-2.6,2.5c0,0.3-0.1,0.6-0.1,0.9v5.7h-1.9V129z"/>
			<path class="st5" d="M259.6,121.5h1.9v7.1h0.1c0.4-0.6,0.8-1.1,1.2-1.6l4.5-5.6h2.4l-5.4,6.3l5.8,8.5h-2.3l-4.9-7.3l-1.4,1.6v5.6
				h-1.9V121.5z"/>
			<path class="st5" d="M273.4,122.7c0,0.7-0.5,1.2-1.2,1.2c-0.7,0-1.2-0.5-1.2-1.2c0-0.7,0.5-1.2,1.2-1.2
				C273,121.5,273.4,122,273.4,122.7z M271.3,136.3v-10.6h1.9v10.6H271.3z"/>
			<path class="st5" d="M285.2,120.7v12.9c0,0.9,0,2,0.1,2.7h-1.7l-0.1-1.8h0c-0.6,1.2-1.9,2.1-3.6,2.1c-2.6,0-4.5-2.2-4.5-5.4
				c0-3.5,2.2-5.7,4.8-5.7c1.6,0,2.7,0.8,3.2,1.6h0v-6.3H285.2z M283.2,130c0-0.2,0-0.6-0.1-0.8c-0.3-1.2-1.3-2.2-2.8-2.2
				c-2,0-3.2,1.8-3.2,4.1c0,2.2,1.1,3.9,3.1,3.9c1.3,0,2.5-0.9,2.8-2.3c0.1-0.3,0.1-0.5,0.1-0.8V130z"/>
			<path class="st5" d="M287.7,134.3c0.6,0.4,1.6,0.8,2.5,0.8c1.4,0,2.1-0.7,2.1-1.6c0-0.9-0.5-1.4-2-2c-1.9-0.7-2.8-1.7-2.8-3
				c0-1.7,1.4-3.1,3.7-3.1c1.1,0,2,0.3,2.6,0.7l-0.5,1.4c-0.4-0.3-1.2-0.6-2.2-0.6c-1.1,0-1.8,0.7-1.8,1.5c0,0.9,0.6,1.3,2,1.8
				c1.8,0.7,2.8,1.6,2.8,3.2c0,1.9-1.5,3.2-4,3.2c-1.2,0-2.2-0.3-3-0.7L287.7,134.3z"/>
		</g>
		<g>
			<path class="st5" d="M329.8,123.7c0.9,0.5,2.1,1,3.4,1c2,0,3.1-1,3.1-2.5c0-1.4-0.8-2.2-2.8-2.9c-2.4-0.9-3.9-2.1-3.9-4.2
				c0-2.3,1.9-4,4.8-4c1.5,0,2.6,0.4,3.3,0.7l-0.5,1.6c-0.5-0.3-1.5-0.7-2.8-0.7c-2,0-2.8,1.2-2.8,2.2c0,1.4,0.9,2.1,2.9,2.9
				c2.5,1,3.8,2.2,3.8,4.4c0,2.3-1.7,4.3-5.2,4.3c-1.4,0-3-0.4-3.8-0.9L329.8,123.7z"/>
			<path class="st5" d="M349.2,123.2c0,1.1,0,2.1,0.1,2.9h-1.7l-0.1-1.7h0c-0.5,0.9-1.6,2-3.5,2c-1.7,0-3.7-0.9-3.7-4.7v-6.2h1.9
				v5.9c0,2,0.6,3.4,2.4,3.4c1.3,0,2.2-0.9,2.5-1.8c0.1-0.3,0.2-0.6,0.2-1v-6.5h1.9V123.2z"/>
			<path class="st5" d="M351.9,118.9c0-1.4,0-2.5-0.1-3.5h1.7l0.1,1.8h0c0.8-1.3,2-2.1,3.8-2.1c2.6,0,4.5,2.2,4.5,5.4
				c0,3.8-2.3,5.7-4.8,5.7c-1.4,0-2.6-0.6-3.3-1.7h0v5.8h-1.9V118.9z M353.8,121.7c0,0.3,0,0.5,0.1,0.8c0.4,1.3,1.5,2.3,2.9,2.3
				c2,0,3.2-1.7,3.2-4.1c0-2.1-1.1-4-3.2-4c-1.3,0-2.5,0.9-2.9,2.4c-0.1,0.2-0.1,0.5-0.1,0.8V121.7z"/>
			<path class="st5" d="M364.9,121.1c0,2.6,1.7,3.7,3.6,3.7c1.4,0,2.2-0.2,2.9-0.5l0.3,1.4c-0.7,0.3-1.8,0.7-3.5,0.7
				c-3.3,0-5.2-2.2-5.2-5.4s1.9-5.7,5-5.7c3.5,0,4.4,3.1,4.4,5c0,0.4,0,0.7-0.1,0.9H364.9z M370.6,119.7c0-1.2-0.5-3.1-2.7-3.1
				c-2,0-2.8,1.8-3,3.1H370.6z"/>
			<path class="st5" d="M374.3,118.8c0-1.3,0-2.3-0.1-3.3h1.7l0.1,2.1h0.1c0.5-1.4,1.6-2.3,2.9-2.3c0.2,0,0.4,0,0.5,0.1v1.8
				c-0.2,0-0.4-0.1-0.7-0.1c-1.4,0-2.3,1-2.6,2.5c0,0.3-0.1,0.6-0.1,0.9v5.7h-1.9V118.8z"/>
			<path class="st5" d="M381,111.3h1.9v7.1h0.1c0.4-0.6,0.8-1.1,1.2-1.6l4.5-5.6h2.4l-5.4,6.3l5.8,8.5h-2.3l-4.9-7.3l-1.4,1.6v5.6
				H381V111.3z"/>
			<path class="st5" d="M394.7,112.4c0,0.7-0.5,1.2-1.2,1.2c-0.7,0-1.2-0.5-1.2-1.2c0-0.7,0.5-1.2,1.2-1.2
				C394.2,111.2,394.7,111.8,394.7,112.4z M392.5,126.1v-10.6h1.9v10.6H392.5z"/>
			<path class="st5" d="M406.3,110.5v12.9c0,0.9,0,2,0.1,2.7h-1.7l-0.1-1.8h0c-0.6,1.2-1.9,2.1-3.6,2.1c-2.6,0-4.5-2.2-4.5-5.4
				c0-3.5,2.2-5.7,4.8-5.7c1.6,0,2.7,0.8,3.2,1.6h0v-6.3H406.3z M404.4,119.8c0-0.2,0-0.6-0.1-0.8c-0.3-1.2-1.3-2.2-2.8-2.2
				c-2,0-3.2,1.8-3.2,4.1c0,2.2,1.1,3.9,3.1,3.9c1.3,0,2.5-0.9,2.8-2.3c0.1-0.3,0.1-0.5,0.1-0.8V119.8z"/>
			<path class="st5" d="M408.7,124.1c0.6,0.4,1.6,0.8,2.5,0.8c1.4,0,2.1-0.7,2.1-1.6c0-0.9-0.5-1.4-2-2c-1.9-0.7-2.8-1.7-2.8-3
				c0-1.7,1.4-3.1,3.7-3.1c1.1,0,2,0.3,2.6,0.7l-0.5,1.4c-0.4-0.3-1.2-0.6-2.2-0.6c-1.1,0-1.8,0.7-1.8,1.5c0,0.9,0.6,1.3,2,1.8
				c1.8,0.7,2.8,1.6,2.8,3.2c0,1.9-1.5,3.2-4,3.2c-1.2,0-2.2-0.3-3-0.7L408.7,124.1z"/>
			<path class="st5" d="M345.2,145.7l-1.5,4.7h-2l5-14.8h2.3l5.1,14.8h-2l-1.6-4.7H345.2z M350,144.2l-1.5-4.3
				c-0.3-1-0.5-1.8-0.8-2.7h0c-0.2,0.9-0.5,1.8-0.7,2.7l-1.5,4.3H350z"/>
			<path class="st5" d="M359.2,137.8L359.2,137.8l-2.5,1.3l-0.4-1.5l3.1-1.7h1.6v14.3h-1.9V137.8z"/>
			<path class="st5" d="M374.9,143.7v1.4h-5.4v-1.4H374.9z"/>
			<path class="st5" d="M383.2,145.7l-1.5,4.7h-2l5-14.8h2.3l5.1,14.8h-2l-1.6-4.7H383.2z M388.1,144.2l-1.5-4.3
				c-0.3-1-0.5-1.8-0.8-2.7h0c-0.2,0.9-0.5,1.8-0.7,2.7l-1.5,4.3H388.1z"/>
			<path class="st5" d="M399,150.3v-3.9h-6.6v-1.3l6.4-9.1h2.1v8.9h2v1.5h-2v3.9H399z M399,144.9v-4.8c0-0.7,0-1.5,0.1-2.2H399
				c-0.4,0.8-0.8,1.4-1.2,2.1l-3.5,4.9v0H399z"/>
		</g>
		<g>
			<path class="st5" d="M457.9,123.7c0.9,0.5,2.1,1,3.4,1c2,0,3.1-1,3.1-2.5c0-1.4-0.8-2.2-2.8-2.9c-2.4-0.9-3.9-2.1-3.9-4.2
				c0-2.3,1.9-4,4.8-4c1.5,0,2.6,0.4,3.3,0.7l-0.5,1.6c-0.5-0.3-1.5-0.7-2.8-0.7c-2,0-2.8,1.2-2.8,2.2c0,1.4,0.9,2.1,2.9,2.9
				c2.5,1,3.8,2.2,3.8,4.4c0,2.3-1.7,4.3-5.2,4.3c-1.4,0-3-0.4-3.8-0.9L457.9,123.7z"/>
			<path class="st5" d="M477.3,123.2c0,1.1,0,2.1,0.1,2.9h-1.7l-0.1-1.7h0c-0.5,0.9-1.6,2-3.5,2c-1.7,0-3.7-0.9-3.7-4.7v-6.2h1.9
				v5.9c0,2,0.6,3.4,2.4,3.4c1.3,0,2.2-0.9,2.5-1.8c0.1-0.3,0.2-0.6,0.2-1v-6.5h1.9V123.2z"/>
			<path class="st5" d="M479.9,118.9c0-1.4,0-2.5-0.1-3.5h1.7l0.1,1.8h0c0.8-1.3,2-2.1,3.8-2.1c2.6,0,4.5,2.2,4.5,5.4
				c0,3.8-2.3,5.7-4.8,5.7c-1.4,0-2.6-0.6-3.3-1.7h0v5.8h-1.9V118.9z M481.9,121.7c0,0.3,0,0.5,0.1,0.8c0.4,1.3,1.5,2.3,2.9,2.3
				c2,0,3.2-1.7,3.2-4.1c0-2.1-1.1-4-3.2-4c-1.3,0-2.5,0.9-2.9,2.4c-0.1,0.2-0.1,0.5-0.1,0.8V121.7z"/>
			<path class="st5" d="M493,121.1c0,2.6,1.7,3.7,3.6,3.7c1.4,0,2.2-0.2,2.9-0.5l0.3,1.4c-0.7,0.3-1.8,0.7-3.5,0.7
				c-3.3,0-5.2-2.2-5.2-5.4s1.9-5.7,5-5.7c3.5,0,4.4,3.1,4.4,5c0,0.4,0,0.7-0.1,0.9H493z M498.6,119.7c0-1.2-0.5-3.1-2.7-3.1
				c-2,0-2.8,1.8-3,3.1H498.6z"/>
			<path class="st5" d="M502.4,118.8c0-1.3,0-2.3-0.1-3.3h1.7l0.1,2.1h0.1c0.5-1.4,1.6-2.3,2.9-2.3c0.2,0,0.4,0,0.5,0.1v1.8
				c-0.2,0-0.4-0.1-0.7-0.1c-1.4,0-2.3,1-2.6,2.5c0,0.3-0.1,0.6-0.1,0.9v5.7h-1.9V118.8z"/>
			<path class="st5" d="M509.1,111.3h1.9v7.1h0.1c0.4-0.6,0.8-1.1,1.2-1.6l4.5-5.6h2.4l-5.4,6.3l5.8,8.5h-2.3l-4.9-7.3l-1.4,1.6v5.6
				h-1.9V111.3z"/>
			<path class="st5" d="M522.7,112.4c0,0.7-0.5,1.2-1.2,1.2c-0.7,0-1.2-0.5-1.2-1.2c0-0.7,0.5-1.2,1.2-1.2
				C522.3,111.2,522.7,111.8,522.7,112.4z M520.6,126.1v-10.6h1.9v10.6H520.6z"/>
			<path class="st5" d="M534.4,110.5v12.9c0,0.9,0,2,0.1,2.7h-1.7l-0.1-1.8h0c-0.6,1.2-1.9,2.1-3.6,2.1c-2.6,0-4.5-2.2-4.5-5.4
				c0-3.5,2.2-5.7,4.8-5.7c1.6,0,2.7,0.8,3.2,1.6h0v-6.3H534.4z M532.4,119.8c0-0.2,0-0.6-0.1-0.8c-0.3-1.2-1.3-2.2-2.8-2.2
				c-2,0-3.2,1.8-3.2,4.1c0,2.2,1.1,3.9,3.1,3.9c1.3,0,2.5-0.9,2.8-2.3c0.1-0.3,0.1-0.5,0.1-0.8V119.8z"/>
			<path class="st5" d="M536.8,124.1c0.6,0.4,1.6,0.8,2.5,0.8c1.4,0,2.1-0.7,2.1-1.6c0-0.9-0.5-1.4-2-2c-1.9-0.7-2.8-1.7-2.8-3
				c0-1.7,1.4-3.1,3.7-3.1c1.1,0,2,0.3,2.6,0.7l-0.5,1.4c-0.4-0.3-1.2-0.6-2.2-0.6c-1.1,0-1.8,0.7-1.8,1.5c0,0.9,0.6,1.3,2,1.8
				c1.8,0.7,2.8,1.6,2.8,3.2c0,1.9-1.5,3.2-4,3.2c-1.2,0-2.2-0.3-3-0.7L536.8,124.1z"/>
			<path class="st5" d="M472.4,135.7c0.8-0.2,2.2-0.3,3.5-0.3c1.9,0,3.1,0.3,4.1,1.1c0.8,0.6,1.2,1.5,1.2,2.6c0,1.4-0.9,2.7-2.5,3.3
				v0c1.4,0.4,3.1,1.5,3.1,3.7c0,1.3-0.5,2.2-1.3,3c-1,0.9-2.7,1.4-5.1,1.4c-1.3,0-2.3-0.1-3-0.2V135.7z M474.3,141.8h1.7
				c2,0,3.2-1.1,3.2-2.5c0-1.7-1.3-2.4-3.3-2.4c-0.9,0-1.4,0.1-1.7,0.1V141.8z M474.3,148.9c0.4,0.1,0.9,0.1,1.6,0.1
				c2,0,3.8-0.7,3.8-2.9c0-2-1.7-2.9-3.8-2.9h-1.6V148.9z"/>
			<path class="st5" d="M487.3,137.8L487.3,137.8l-2.5,1.3l-0.4-1.5l3.1-1.7h1.6v14.3h-1.9V137.8z"/>
			<path class="st5" d="M503,143.7v1.4h-5.4v-1.4H503z"/>
			<path class="st5" d="M508.9,135.7c0.8-0.2,2.2-0.3,3.5-0.3c1.9,0,3.1,0.3,4.1,1.1c0.8,0.6,1.2,1.5,1.2,2.6c0,1.4-0.9,2.7-2.5,3.3
				v0c1.4,0.4,3.1,1.5,3.1,3.7c0,1.3-0.5,2.2-1.3,3c-1,0.9-2.7,1.4-5.1,1.4c-1.3,0-2.3-0.1-3-0.2V135.7z M510.8,141.8h1.7
				c2,0,3.2-1.1,3.2-2.5c0-1.7-1.3-2.4-3.3-2.4c-0.9,0-1.4,0.1-1.7,0.1V141.8z M510.8,148.9c0.4,0.1,0.9,0.1,1.6,0.1
				c2,0,3.8-0.7,3.8-2.9c0-2-1.7-2.9-3.8-2.9h-1.6V148.9z"/>
			<path class="st5" d="M525.6,150.3v-3.9h-6.6v-1.3l6.4-9.1h2.1v8.9h2v1.5h-2v3.9H525.6z M525.6,144.9v-4.8c0-0.7,0-1.5,0.1-2.2
				h-0.1c-0.4,0.8-0.8,1.4-1.2,2.1l-3.5,4.9v0H525.6z"/>
		</g>
		<g>
			<path class="st5" d="M581.6,123.7c0.9,0.5,2.1,1,3.4,1c2,0,3.1-1,3.1-2.5c0-1.4-0.8-2.2-2.8-2.9c-2.4-0.9-3.9-2.1-3.9-4.2
				c0-2.3,1.9-4,4.8-4c1.5,0,2.6,0.4,3.3,0.7l-0.5,1.6c-0.5-0.3-1.5-0.7-2.8-0.7c-2,0-2.8,1.2-2.8,2.2c0,1.4,0.9,2.1,2.9,2.9
				c2.5,1,3.8,2.2,3.8,4.4c0,2.3-1.7,4.3-5.2,4.3c-1.4,0-3-0.4-3.8-0.9L581.6,123.7z"/>
			<path class="st5" d="M601,123.2c0,1.1,0,2.1,0.1,2.9h-1.7l-0.1-1.7h0c-0.5,0.9-1.6,2-3.5,2c-1.7,0-3.7-0.9-3.7-4.7v-6.2h1.9v5.9
				c0,2,0.6,3.4,2.4,3.4c1.3,0,2.2-0.9,2.5-1.8c0.1-0.3,0.2-0.6,0.2-1v-6.5h1.9V123.2z"/>
			<path class="st5" d="M603.7,118.9c0-1.4,0-2.5-0.1-3.5h1.7l0.1,1.8h0c0.8-1.3,2-2.1,3.8-2.1c2.6,0,4.5,2.2,4.5,5.4
				c0,3.8-2.3,5.7-4.8,5.7c-1.4,0-2.6-0.6-3.3-1.7h0v5.8h-1.9V118.9z M605.6,121.7c0,0.3,0,0.5,0.1,0.8c0.4,1.3,1.5,2.3,2.9,2.3
				c2,0,3.2-1.7,3.2-4.1c0-2.1-1.1-4-3.2-4c-1.3,0-2.5,0.9-2.9,2.4c-0.1,0.2-0.1,0.5-0.1,0.8V121.7z"/>
			<path class="st5" d="M616.7,121.1c0,2.6,1.7,3.7,3.6,3.7c1.4,0,2.2-0.2,2.9-0.5l0.3,1.4c-0.7,0.3-1.8,0.7-3.5,0.7
				c-3.3,0-5.2-2.2-5.2-5.4s1.9-5.7,5-5.7c3.5,0,4.4,3.1,4.4,5c0,0.4,0,0.7-0.1,0.9H616.7z M622.4,119.7c0-1.2-0.5-3.1-2.7-3.1
				c-2,0-2.8,1.8-3,3.1H622.4z"/>
			<path class="st5" d="M626.1,118.8c0-1.3,0-2.3-0.1-3.3h1.7l0.1,2.1h0.1c0.5-1.4,1.6-2.3,2.9-2.3c0.2,0,0.4,0,0.5,0.1v1.8
				c-0.2,0-0.4-0.1-0.7-0.1c-1.4,0-2.3,1-2.6,2.5c0,0.3-0.1,0.6-0.1,0.9v5.7h-1.9V118.8z"/>
			<path class="st5" d="M632.8,111.3h1.9v7.1h0.1c0.4-0.6,0.8-1.1,1.2-1.6l4.5-5.6h2.4l-5.4,6.3l5.8,8.5H641l-4.9-7.3l-1.4,1.6v5.6
				h-1.9V111.3z"/>
			<path class="st5" d="M646.5,112.4c0,0.7-0.5,1.2-1.2,1.2c-0.7,0-1.2-0.5-1.2-1.2c0-0.7,0.5-1.2,1.2-1.2
				C646,111.2,646.5,111.8,646.5,112.4z M644.3,126.1v-10.6h1.9v10.6H644.3z"/>
			<path class="st5" d="M658.1,110.5v12.9c0,0.9,0,2,0.1,2.7h-1.7l-0.1-1.8h0c-0.6,1.2-1.9,2.1-3.6,2.1c-2.6,0-4.5-2.2-4.5-5.4
				c0-3.5,2.2-5.7,4.8-5.7c1.6,0,2.7,0.8,3.2,1.6h0v-6.3H658.1z M656.1,119.8c0-0.2,0-0.6-0.1-0.8c-0.3-1.2-1.3-2.2-2.8-2.2
				c-2,0-3.2,1.8-3.2,4.1c0,2.2,1.1,3.9,3.1,3.9c1.3,0,2.5-0.9,2.8-2.3c0.1-0.3,0.1-0.5,0.1-0.8V119.8z"/>
			<path class="st5" d="M660.5,124.1c0.6,0.4,1.6,0.8,2.5,0.8c1.4,0,2.1-0.7,2.1-1.6c0-0.9-0.5-1.4-2-2c-1.9-0.7-2.8-1.7-2.8-3
				c0-1.7,1.4-3.1,3.7-3.1c1.1,0,2,0.3,2.6,0.7l-0.5,1.4c-0.4-0.3-1.2-0.6-2.2-0.6c-1.1,0-1.8,0.7-1.8,1.5c0,0.9,0.6,1.3,2,1.8
				c1.8,0.7,2.8,1.6,2.8,3.2c0,1.9-1.5,3.2-4,3.2c-1.2,0-2.2-0.3-3-0.7L660.5,124.1z"/>
			<path class="st5" d="M605.6,149.8c-0.7,0.4-2.1,0.7-3.9,0.7c-4.2,0-7.3-2.6-7.3-7.5c0-4.6,3.1-7.8,7.7-7.8c1.8,0,3,0.4,3.5,0.7
				l-0.5,1.6c-0.7-0.4-1.8-0.6-3-0.6c-3.5,0-5.8,2.2-5.8,6.1c0,3.6,2.1,6,5.7,6c1.2,0,2.4-0.2,3.1-0.6L605.6,149.8z"/>
			<path class="st5" d="M611,137.8L611,137.8l-2.5,1.3l-0.4-1.5l3.1-1.7h1.6v14.3H611V137.8z"/>
			<path class="st5" d="M626.7,143.7v1.4h-5.4v-1.4H626.7z"/>
			<path class="st5" d="M643,149.8c-0.7,0.4-2.1,0.7-3.9,0.7c-4.2,0-7.3-2.6-7.3-7.5c0-4.6,3.1-7.8,7.7-7.8c1.8,0,3,0.4,3.5,0.7
				l-0.5,1.6c-0.7-0.4-1.8-0.6-3-0.6c-3.5,0-5.8,2.2-5.8,6.1c0,3.6,2.1,6,5.7,6c1.2,0,2.4-0.2,3.1-0.6L643,149.8z"/>
			<path class="st5" d="M650.1,150.3v-3.9h-6.6v-1.3l6.4-9.1h2.1v8.9h2v1.5h-2v3.9H650.1z M650.1,144.9v-4.8c0-0.7,0-1.5,0.1-2.2
				h-0.1c-0.4,0.8-0.8,1.4-1.2,2.1l-3.5,4.9v0H650.1z"/>
		</g>
		<g>
			<path class="st5" d="M692.3,126.1v-6.3l-4.7-8.5h2.2l2.1,4.1c0.6,1.1,1,2,1.5,3.1h0c0.4-1,0.9-1.9,1.5-3.1l2.1-4.1h2.2l-5,8.5
				v6.3H692.3z"/>
			<path class="st5" d="M708.2,120.7c0,3.9-2.7,5.6-5.3,5.6c-2.9,0-5.1-2.1-5.1-5.5c0-3.6,2.3-5.6,5.3-5.6
				C706.2,115.2,708.2,117.4,708.2,120.7z M699.8,120.8c0,2.3,1.3,4.1,3.2,4.1c1.8,0,3.2-1.7,3.2-4.1c0-1.8-0.9-4.1-3.2-4.1
				S699.8,118.8,699.8,120.8z"/>
			<path class="st5" d="M719,123.2c0,1.1,0,2.1,0.1,2.9h-1.7l-0.1-1.7h0c-0.5,0.9-1.6,2-3.5,2c-1.7,0-3.7-0.9-3.7-4.7v-6.2h1.9v5.9
				c0,2,0.6,3.4,2.4,3.4c1.3,0,2.2-0.9,2.5-1.8c0.1-0.3,0.2-0.6,0.2-1v-6.5h1.9V123.2z"/>
			<path class="st5" d="M721.7,118.3c0-1.1,0-2-0.1-2.9h1.7l0.1,1.8h0c0.5-1,1.8-2,3.5-2c1.5,0,3.8,0.9,3.8,4.5v6.4h-1.9v-6.1
				c0-1.7-0.6-3.1-2.5-3.1c-1.3,0-2.3,0.9-2.6,2c-0.1,0.2-0.1,0.6-0.1,0.9v6.4h-1.9V118.3z"/>
			<path class="st5" d="M742.5,115.4c0,0.8-0.1,1.6-0.1,2.9v6.2c0,2.4-0.5,3.9-1.5,4.9c-1,1-2.5,1.3-3.9,1.3c-1.3,0-2.7-0.3-3.5-0.9
				l0.5-1.5c0.7,0.4,1.8,0.8,3.1,0.8c2,0,3.4-1,3.4-3.7v-1.2h0c-0.6,1-1.7,1.8-3.4,1.8c-2.6,0-4.5-2.2-4.5-5.2
				c0-3.6,2.4-5.6,4.8-5.6c1.8,0,2.9,1,3.3,1.8h0l0.1-1.6H742.5z M740.5,119.6c0-0.3,0-0.6-0.1-0.9c-0.4-1.1-1.3-2-2.7-2
				c-1.8,0-3.2,1.6-3.2,4c0,2.1,1.1,3.8,3.1,3.8c1.2,0,2.3-0.7,2.7-2c0.1-0.3,0.2-0.7,0.2-1V119.6z"/>
			<path class="st5" d="M749.3,111.3h1.9v13.2h6.3v1.6h-8.2V111.3z"/>
			<path class="st5" d="M759.8,121.1c0,2.6,1.7,3.7,3.6,3.7c1.4,0,2.2-0.2,2.9-0.5l0.3,1.4c-0.7,0.3-1.8,0.7-3.5,0.7
				c-3.3,0-5.2-2.2-5.2-5.4s1.9-5.7,5-5.7c3.5,0,4.4,3.1,4.4,5c0,0.4,0,0.7-0.1,0.9H759.8z M765.5,119.7c0-1.2-0.5-3.1-2.7-3.1
				c-2,0-2.8,1.8-3,3.1H765.5z"/>
			<path class="st5" d="M775.1,126.1l-0.2-1.3h-0.1c-0.6,0.8-1.7,1.6-3.3,1.6c-2.2,0-3.3-1.5-3.3-3.1c0-2.6,2.3-4,6.4-4v-0.2
				c0-0.9-0.2-2.5-2.4-2.5c-1,0-2,0.3-2.8,0.8l-0.4-1.3c0.9-0.6,2.2-0.9,3.5-0.9c3.3,0,4,2.2,4,4.3v4c0,0.9,0,1.8,0.2,2.5H775.1z
				 M774.8,120.6c-2.1,0-4.5,0.3-4.5,2.4c0,1.3,0.8,1.8,1.8,1.8c1.4,0,2.3-0.9,2.6-1.8c0.1-0.2,0.1-0.4,0.1-0.6V120.6z"/>
			<path class="st5" d="M788.4,110.5v12.9c0,0.9,0,2,0.1,2.7h-1.7l-0.1-1.8h0c-0.6,1.2-1.9,2.1-3.6,2.1c-2.6,0-4.5-2.2-4.5-5.4
				c0-3.5,2.2-5.7,4.8-5.7c1.6,0,2.7,0.8,3.2,1.6h0v-6.3H788.4z M786.5,119.8c0-0.2,0-0.6-0.1-0.8c-0.3-1.2-1.3-2.2-2.8-2.2
				c-2,0-3.2,1.8-3.2,4.1c0,2.2,1.1,3.9,3.1,3.9c1.3,0,2.5-0.9,2.8-2.3c0.1-0.3,0.1-0.5,0.1-0.8V119.8z"/>
			<path class="st5" d="M792.1,121.1c0,2.6,1.7,3.7,3.6,3.7c1.4,0,2.2-0.2,2.9-0.5l0.3,1.4c-0.7,0.3-1.8,0.7-3.5,0.7
				c-3.3,0-5.2-2.2-5.2-5.4s1.9-5.7,5-5.7c3.5,0,4.4,3.1,4.4,5c0,0.4,0,0.7-0.1,0.9H792.1z M797.8,119.7c0-1.2-0.5-3.1-2.7-3.1
				c-2,0-2.8,1.8-3,3.1H797.8z"/>
			<path class="st5" d="M801.5,118.8c0-1.3,0-2.3-0.1-3.3h1.7l0.1,2.1h0.1c0.5-1.4,1.6-2.3,2.9-2.3c0.2,0,0.4,0,0.5,0.1v1.8
				c-0.2,0-0.4-0.1-0.7-0.1c-1.4,0-2.3,1-2.6,2.5c0,0.3-0.1,0.6-0.1,0.9v5.7h-1.9V118.8z"/>
			<path class="st5" d="M807.9,124.1c0.6,0.4,1.6,0.8,2.5,0.8c1.4,0,2.1-0.7,2.1-1.6c0-0.9-0.5-1.4-2-2c-1.9-0.7-2.8-1.7-2.8-3
				c0-1.7,1.4-3.1,3.7-3.1c1.1,0,2,0.3,2.6,0.7l-0.5,1.4c-0.4-0.3-1.2-0.6-2.2-0.6c-1.1,0-1.8,0.7-1.8,1.5c0,0.9,0.6,1.3,2,1.8
				c1.8,0.7,2.8,1.6,2.8,3.2c0,1.9-1.5,3.2-4,3.2c-1.2,0-2.2-0.3-3-0.7L807.9,124.1z"/>
			<path class="st5" d="M738.3,137.8L738.3,137.8l-2.5,1.3l-0.4-1.5l3.1-1.7h1.6v14.3h-1.9V137.8z"/>
			<path class="st5" d="M754,143.7v1.4h-5.4v-1.4H754z"/>
			<path class="st5" d="M765.2,150.3v-3.9h-6.6v-1.3l6.4-9.1h2.1v8.9h2v1.5h-2v3.9H765.2z M765.2,144.9v-4.8c0-0.7,0-1.5,0.1-2.2
				h-0.1c-0.4,0.8-0.8,1.4-1.2,2.1l-3.5,4.9v0H765.2z"/>
		</g>
		<g>
			<path class="st5" d="M827.1,126.1v-6.3l-4.7-8.5h2.2l2.1,4.1c0.6,1.1,1,2,1.5,3.1h0c0.4-1,0.9-1.9,1.5-3.1l2.1-4.1h2.2l-5,8.5
				v6.3H827.1z"/>
			<path class="st5" d="M843,120.7c0,3.9-2.7,5.6-5.3,5.6c-2.9,0-5.1-2.1-5.1-5.5c0-3.6,2.3-5.6,5.3-5.6
				C840.9,115.2,843,117.4,843,120.7z M834.6,120.8c0,2.3,1.3,4.1,3.2,4.1c1.8,0,3.2-1.7,3.2-4.1c0-1.8-0.9-4.1-3.2-4.1
				S834.6,118.8,834.6,120.8z"/>
			<path class="st5" d="M853.8,123.2c0,1.1,0,2.1,0.1,2.9h-1.7l-0.1-1.7h0c-0.5,0.9-1.6,2-3.5,2c-1.7,0-3.7-0.9-3.7-4.7v-6.2h1.9
				v5.9c0,2,0.6,3.4,2.4,3.4c1.3,0,2.2-0.9,2.5-1.8c0.1-0.3,0.2-0.6,0.2-1v-6.5h1.9V123.2z"/>
			<path class="st5" d="M856.5,118.3c0-1.1,0-2-0.1-2.9h1.7l0.1,1.8h0c0.5-1,1.8-2,3.5-2c1.5,0,3.8,0.9,3.8,4.5v6.4h-1.9v-6.1
				c0-1.7-0.6-3.1-2.5-3.1c-1.3,0-2.3,0.9-2.6,2c-0.1,0.2-0.1,0.6-0.1,0.9v6.4h-1.9V118.3z"/>
			<path class="st5" d="M877.3,115.4c0,0.8-0.1,1.6-0.1,2.9v6.2c0,2.4-0.5,3.9-1.5,4.9c-1,1-2.5,1.3-3.9,1.3c-1.3,0-2.7-0.3-3.5-0.9
				l0.5-1.5c0.7,0.4,1.8,0.8,3.1,0.8c2,0,3.4-1,3.4-3.7v-1.2h0c-0.6,1-1.7,1.8-3.4,1.8c-2.6,0-4.5-2.2-4.5-5.2
				c0-3.6,2.4-5.6,4.8-5.6c1.8,0,2.9,1,3.3,1.8h0l0.1-1.6H877.3z M875.3,119.6c0-0.3,0-0.6-0.1-0.9c-0.4-1.1-1.3-2-2.7-2
				c-1.8,0-3.2,1.6-3.2,4c0,2.1,1.1,3.8,3.1,3.8c1.2,0,2.3-0.7,2.7-2c0.1-0.3,0.2-0.7,0.2-1V119.6z"/>
			<path class="st5" d="M884,111.3h1.9v13.2h6.3v1.6H884V111.3z"/>
			<path class="st5" d="M894.5,121.1c0,2.6,1.7,3.7,3.6,3.7c1.4,0,2.2-0.2,2.9-0.5l0.3,1.4c-0.7,0.3-1.8,0.7-3.5,0.7
				c-3.3,0-5.2-2.2-5.2-5.4s1.9-5.7,5-5.7c3.5,0,4.4,3.1,4.4,5c0,0.4,0,0.7-0.1,0.9H894.5z M900.2,119.7c0-1.2-0.5-3.1-2.7-3.1
				c-2,0-2.8,1.8-3,3.1H900.2z"/>
			<path class="st5" d="M909.8,126.1l-0.2-1.3h-0.1c-0.6,0.8-1.7,1.6-3.3,1.6c-2.2,0-3.3-1.5-3.3-3.1c0-2.6,2.3-4,6.4-4v-0.2
				c0-0.9-0.2-2.5-2.4-2.5c-1,0-2,0.3-2.8,0.8l-0.4-1.3c0.9-0.6,2.2-0.9,3.5-0.9c3.3,0,4,2.2,4,4.3v4c0,0.9,0,1.8,0.2,2.5H909.8z
				 M909.5,120.6c-2.1,0-4.5,0.3-4.5,2.4c0,1.3,0.8,1.8,1.8,1.8c1.4,0,2.3-0.9,2.6-1.8c0.1-0.2,0.1-0.4,0.1-0.6V120.6z"/>
			<path class="st5" d="M923.2,110.5v12.9c0,0.9,0,2,0.1,2.7h-1.7l-0.1-1.8h0c-0.6,1.2-1.9,2.1-3.6,2.1c-2.6,0-4.5-2.2-4.5-5.4
				c0-3.5,2.2-5.7,4.8-5.7c1.6,0,2.7,0.8,3.2,1.6h0v-6.3H923.2z M921.2,119.8c0-0.2,0-0.6-0.1-0.8c-0.3-1.2-1.3-2.2-2.8-2.2
				c-2,0-3.2,1.8-3.2,4.1c0,2.2,1.1,3.9,3.1,3.9c1.3,0,2.5-0.9,2.8-2.3c0.1-0.3,0.1-0.5,0.1-0.8V119.8z"/>
			<path class="st5" d="M926.9,121.1c0,2.6,1.7,3.7,3.6,3.7c1.4,0,2.2-0.2,2.9-0.5l0.3,1.4c-0.7,0.3-1.8,0.7-3.5,0.7
				c-3.3,0-5.2-2.2-5.2-5.4s1.9-5.7,5-5.7c3.5,0,4.4,3.1,4.4,5c0,0.4,0,0.7-0.1,0.9H926.9z M932.6,119.7c0-1.2-0.5-3.1-2.7-3.1
				c-2,0-2.8,1.8-3,3.1H932.6z"/>
			<path class="st5" d="M936.3,118.8c0-1.3,0-2.3-0.1-3.3h1.7l0.1,2.1h0.1c0.5-1.4,1.6-2.3,2.9-2.3c0.2,0,0.4,0,0.5,0.1v1.8
				c-0.2,0-0.4-0.1-0.7-0.1c-1.4,0-2.3,1-2.6,2.5c0,0.3-0.1,0.6-0.1,0.9v5.7h-1.9V118.8z"/>
			<path class="st5" d="M942.7,124.1c0.6,0.4,1.6,0.8,2.5,0.8c1.4,0,2.1-0.7,2.1-1.6c0-0.9-0.5-1.4-2-2c-1.9-0.7-2.8-1.7-2.8-3
				c0-1.7,1.4-3.1,3.7-3.1c1.1,0,2,0.3,2.6,0.7l-0.5,1.4c-0.4-0.3-1.2-0.6-2.2-0.6c-1.1,0-1.8,0.7-1.8,1.5c0,0.9,0.6,1.3,2,1.8
				c1.8,0.7,2.8,1.6,2.8,3.2c0,1.9-1.5,3.2-4,3.2c-1.2,0-2.2-0.3-3-0.7L942.7,124.1z"/>
			<path class="st5" d="M872,137.7h-5.4l-0.5,3.7c0.3,0,0.6-0.1,1.2-0.1c1.1,0,2.2,0.2,3.1,0.8c1.1,0.6,2,1.9,2,3.7
				c0,2.8-2.2,4.9-5.3,4.9c-1.6,0-2.9-0.4-3.6-0.9l0.5-1.5c0.6,0.4,1.8,0.8,3.1,0.8c1.8,0,3.4-1.2,3.4-3.1c0-1.8-1.3-3.2-4.1-3.2
				c-0.8,0-1.5,0.1-2,0.2l0.9-6.9h6.8V137.7z"/>
			<path class="st5" d="M883.4,143.7v1.4H878v-1.4H883.4z"/>
			<path class="st5" d="M892.8,137.8L892.8,137.8l-2.5,1.3l-0.4-1.5l3.1-1.7h1.6v14.3h-1.9V137.8z"/>
			<path class="st5" d="M908.8,143c0,4.9-1.8,7.5-5,7.5c-2.8,0-4.7-2.6-4.7-7.3c0-4.8,2.1-7.4,5-7.4
				C907.1,135.8,908.8,138.5,908.8,143z M901.1,143.3c0,3.7,1.1,5.8,2.9,5.8c2,0,2.9-2.3,2.9-6c0-3.5-0.9-5.8-2.9-5.8
				C902.3,137.3,901.1,139.4,901.1,143.3z"/>
		</g>
		<g>
			<path class="st5" d="M964.2,123.4v14.8h-1.9v-14.8H964.2z"/>
			<path class="st5" d="M974.7,131.3h-5.8v5.3h6.4v1.6H967v-14.8h8v1.6h-6.1v4.7h5.8V131.3z"/>
			<path class="st5" d="M977.3,123.4h1.9v13.2h6.3v1.6h-8.2V123.4z"/>
			<path class="st5" d="M988,125h-4.5v-1.6h11v1.6h-4.5v13.2H988V125z"/>
			<path class="st5" d="M995.1,135.9c0.9,0.5,2.1,1,3.4,1c2,0,3.1-1,3.1-2.5c0-1.4-0.8-2.2-2.8-2.9c-2.4-0.9-3.9-2.1-3.9-4.2
				c0-2.3,1.9-4,4.8-4c1.5,0,2.6,0.4,3.3,0.7l-0.5,1.6c-0.5-0.3-1.5-0.7-2.8-0.7c-2,0-2.8,1.2-2.8,2.2c0,1.4,0.9,2.1,2.9,2.9
				c2.5,1,3.8,2.2,3.8,4.4c0,2.3-1.7,4.3-5.2,4.3c-1.4,0-3-0.4-3.8-0.9L995.1,135.9z"/>
			<path class="st5" d="M1017.6,125.5h-5.4l-0.5,3.7c0.3,0,0.6-0.1,1.2-0.1c1.1,0,2.2,0.2,3.1,0.8c1.1,0.6,2,1.9,2,3.7
				c0,2.8-2.2,4.9-5.3,4.9c-1.6,0-2.9-0.4-3.6-0.9l0.5-1.5c0.6,0.4,1.8,0.8,3.1,0.8c1.8,0,3.4-1.2,3.4-3.1c0-1.8-1.3-3.2-4.1-3.2
				c-0.8,0-1.5,0.1-2,0.2l0.9-6.9h6.8V125.5z"/>
			<path class="st5" d="M1020,137.1c0-0.8,0.5-1.4,1.3-1.4s1.3,0.6,1.3,1.4c0,0.8-0.5,1.4-1.3,1.4
				C1020.5,138.4,1020,137.9,1020,137.1z"/>
			<path class="st5" d="M1033.3,130.9c0,4.9-1.8,7.5-5,7.5c-2.8,0-4.7-2.6-4.7-7.3c0-4.8,2.1-7.4,5-7.4
				C1031.6,123.7,1033.3,126.4,1033.3,130.9z M1025.6,131.1c0,3.7,1.1,5.8,2.9,5.8c2,0,2.9-2.3,2.9-6c0-3.5-0.9-5.8-2.9-5.8
				C1026.8,125.2,1025.6,127.2,1025.6,131.1z"/>
		</g>
		<rect x="563.3" class="st6" width="2.2" height="2.2"/>
		<rect x="817.2" class="st6" width="2.2" height="2.2"/>
		<rect x="951.8" class="st6" width="2.2" height="2.2"/>
		<rect x="563.3" y="2.2" class="st6" width="2.2" height="56.4"/>
		<rect x="682.6" y="2.2" class="st6" width="2.2" height="56.4"/>
		<rect x="817.2" y="2.2" class="st6" width="2.2" height="56.4"/>
		<rect x="951.8" y="2.2" class="st6" width="2.2" height="56.4"/>
		<rect y="58.6" class="st5" width="2.2" height="2.2"/>
		<rect x="2.2" y="58.6" class="st5" width="304.9" height="2.2"/>
		<rect x="307.1" y="58.6" class="st5" width="2.2" height="2.2"/>
		<rect x="309.3" y="58.6" class="st5" width="125.9" height="2.2"/>
		<rect x="435.2" y="58.6" class="st6" width="2.2" height="2.2"/>
		<rect x="437.4" y="58.6" class="st6" width="125.9" height="2.2"/>
		<rect x="563.3" y="58.6" class="st6" width="2.2" height="2.2"/>
		<rect x="565.4" y="58.6" class="st6" width="134.6" height="2.2"/>
		<rect x="700" y="58.6" class="st6" width="2.2" height="2.2"/>
		<rect x="702.2" y="58.6" class="st6" width="115" height="2.2"/>
		<rect x="817.2" y="58.6" class="st6" width="2.2" height="2.2"/>
		<rect x="819.4" y="58.6" class="st6" width="132.4" height="2.2"/>
		<rect x="951.8" y="58.6" class="st6" width="2.2" height="2.2"/>
		<rect x="954" y="58.6" class="st6" width="86.8" height="2.2"/>
		<rect y="60.8" class="st5" width="2.2" height="32.6"/>
		<rect x="307.1" y="60.8" class="st5" width="2.2" height="32.6"/>
		<rect x="435.2" y="60.8" class="st5" width="2.2" height="32.6"/>
		<rect x="563.3" y="60.8" class="st5" width="2.2" height="32.6"/>
		<rect x="817.2" y="60.8" class="st5" width="2.2" height="32.6"/>
		<rect x="951.8" y="60.8" class="st5" width="2.2" height="32.6"/>
		<rect x="1040.8" y="60.8" class="st5" width="2.2" height="32.6"/>
		<rect y="93.3" class="st5" width="2.2" height="2.2"/>
		<rect x="2.2" y="93.3" class="st5" width="155.2" height="2.2"/>
		<rect x="157.3" y="93.3" class="st5" width="2.2" height="2.2"/>
		<rect x="159.5" y="93.3" class="st5" width="147.6" height="2.2"/>
		<rect x="307.1" y="93.3" class="st5" width="2.2" height="2.2"/>
		<rect x="309.3" y="93.3" class="st5" width="125.9" height="2.2"/>
		<rect x="435.2" y="93.3" class="st5" width="2.2" height="2.2"/>
		<rect x="437.4" y="93.3" class="st5" width="125.9" height="2.2"/>
		<rect x="563.3" y="93.3" class="st5" width="2.2" height="2.2"/>
		<rect x="565.4" y="93.3" class="st5" width="134.6" height="2.2"/>
		<rect x="700" y="93.3" class="st5" width="2.2" height="2.2"/>
		<rect x="702.2" y="93.3" class="st5" width="115" height="2.2"/>
		<rect x="817.2" y="93.3" class="st5" width="2.2" height="2.2"/>
		<rect x="819.4" y="93.3" class="st5" width="132.4" height="2.2"/>
		<rect x="951.8" y="93.3" class="st5" width="2.2" height="2.2"/>
		<rect x="954" y="93.3" class="st5" width="86.8" height="2.2"/>
		<rect y="95.5" class="st5" width="2.2" height="70.4"/>
		<rect y="166" class="st5" width="2.2" height="2.2"/>
		<rect y="166" class="st5" width="2.2" height="2.2"/>
		<rect x="2.2" y="166" class="st5" width="155.2" height="2.2"/>
		<rect x="157.3" y="95.5" class="st5" width="2.2" height="70.4"/>
		<rect x="157.3" y="166" class="st5" width="2.2" height="2.2"/>
		<rect x="159.5" y="166" class="st5" width="147.6" height="2.2"/>
		<rect x="307.1" y="95.5" class="st5" width="2.2" height="70.4"/>
		<rect x="307.1" y="166" class="st5" width="2.2" height="2.2"/>
		<rect x="309.3" y="166" class="st5" width="125.9" height="2.2"/>
		<rect x="435.2" y="95.5" class="st5" width="2.2" height="70.4"/>
		<rect x="435.2" y="166" class="st5" width="2.2" height="2.2"/>
		<rect x="437.4" y="166" class="st5" width="125.9" height="2.2"/>
		<rect x="563.3" y="95.5" class="st5" width="2.2" height="70.4"/>
		<rect x="563.3" y="166" class="st5" width="2.2" height="2.2"/>
		<rect x="565.4" y="166" class="st5" width="134.6" height="2.2"/>
		<rect x="682.6" y="95.5" class="st5" width="2.2" height="70.4"/>
		<rect x="700" y="166" class="st5" width="2.2" height="2.2"/>
		<rect x="702.2" y="166" class="st5" width="115" height="2.2"/>
		<rect x="817.2" y="95.5" class="st5" width="2.2" height="70.4"/>
		<rect x="817.2" y="166" class="st5" width="2.2" height="2.2"/>
		<rect x="819.4" y="166" class="st5" width="132.4" height="2.2"/>
		<rect x="951.8" y="95.5" class="st5" width="2.2" height="70.4"/>
		<rect x="951.8" y="166" class="st5" width="2.2" height="2.2"/>
		<rect x="954" y="166" class="st5" width="86.8" height="2.2"/>
		<rect x="1040.8" y="95.5" class="st5" width="2.2" height="70.4"/>
		<rect x="1040.8" y="166" class="st5" width="2.2" height="2.2"/>
		<rect x="1040.8" y="166" class="st5" width="2.2" height="2.2"/>
		<g>
			<g>
				<path class="st6" d="M492,31.8l-1.7,5.1h-2.2l5.5-16.2h2.5l5.5,16.2h-2.2l-1.7-5.1H492z M497.3,30.2l-1.6-4.7
					c-0.4-1.1-0.6-2-0.8-3h0c-0.2,1-0.5,1.9-0.8,2.9l-1.6,4.7H497.3z"/>
				<path class="st6" d="M506.4,23.3L506.4,23.3l-2.8,1.5l-0.4-1.6l3.4-1.8h1.8v15.6h-2V23.3z"/>
			</g>
		</g>
		<g>
			<path class="st5" d="M340,83.6c0.9,0.5,2.1,1,3.4,1c2,0,3.1-1,3.1-2.5c0-1.4-0.8-2.2-2.8-2.9c-2.4-0.9-3.9-2.1-3.9-4.2
				c0-2.3,1.9-4,4.8-4c1.5,0,2.6,0.4,3.3,0.7l-0.5,1.6c-0.5-0.3-1.5-0.7-2.8-0.7c-2,0-2.8,1.2-2.8,2.2c0,1.4,0.9,2.1,2.9,2.9
				c2.5,1,3.8,2.2,3.8,4.4c0,2.3-1.7,4.3-5.2,4.3c-1.4,0-3-0.4-3.8-0.9L340,83.6z"/>
			<path class="st5" d="M352.8,72.2v3.1h2.8v1.5h-2.8v5.7c0,1.3,0.4,2.1,1.5,2.1c0.5,0,0.9-0.1,1.1-0.1l0.1,1.5
				c-0.4,0.2-1,0.3-1.7,0.3c-0.9,0-1.6-0.3-2.1-0.8c-0.5-0.6-0.7-1.5-0.7-2.8v-5.8h-1.6v-1.5h1.6v-2.5L352.8,72.2z"/>
			<path class="st5" d="M363.2,85.9l-0.2-1.3H363c-0.6,0.8-1.7,1.6-3.3,1.6c-2.2,0-3.3-1.5-3.3-3.1c0-2.6,2.3-4,6.4-4v-0.2
				c0-0.9-0.2-2.5-2.4-2.5c-1,0-2,0.3-2.8,0.8l-0.4-1.3c0.9-0.6,2.2-0.9,3.5-0.9c3.3,0,4,2.2,4,4.4v4c0,0.9,0,1.8,0.2,2.5H363.2z
				 M362.9,80.5c-2.1,0-4.5,0.3-4.5,2.4c0,1.3,0.8,1.8,1.8,1.8c1.4,0,2.3-0.9,2.6-1.8c0.1-0.2,0.1-0.4,0.1-0.6V80.5z"/>
			<path class="st5" d="M367.5,78.6c0-1.3,0-2.3-0.1-3.3h1.7l0.1,2.1h0.1c0.5-1.4,1.6-2.3,2.9-2.3c0.2,0,0.4,0,0.5,0.1v1.8
				c-0.2,0-0.4-0.1-0.7-0.1c-1.4,0-2.3,1-2.6,2.5c0,0.3-0.1,0.6-0.1,0.9v5.7h-1.9V78.6z"/>
			<path class="st5" d="M377.1,72.2v3.1h2.8v1.5h-2.8v5.7c0,1.3,0.4,2.1,1.5,2.1c0.5,0,0.9-0.1,1.1-0.1l0.1,1.5
				c-0.4,0.2-1,0.3-1.7,0.3c-0.9,0-1.6-0.3-2.1-0.8c-0.5-0.6-0.7-1.5-0.7-2.8v-5.8h-1.6v-1.5h1.6v-2.5L377.1,72.2z"/>
			<path class="st5" d="M382.6,80.9c0,2.6,1.7,3.7,3.6,3.7c1.4,0,2.2-0.2,2.9-0.5l0.3,1.4c-0.7,0.3-1.8,0.7-3.5,0.7
				c-3.3,0-5.2-2.2-5.2-5.4s1.9-5.7,5-5.7c3.5,0,4.4,3.1,4.4,5c0,0.4,0,0.7-0.1,0.9H382.6z M388.2,79.6c0-1.2-0.5-3.1-2.7-3.1
				c-2,0-2.8,1.8-3,3.1H388.2z"/>
			<path class="st5" d="M392,78.6c0-1.3,0-2.3-0.1-3.3h1.7l0.1,2.1h0.1c0.5-1.4,1.6-2.3,2.9-2.3c0.2,0,0.4,0,0.5,0.1v1.8
				c-0.2,0-0.4-0.1-0.7-0.1c-1.4,0-2.3,1-2.6,2.5c0,0.3-0.1,0.6-0.1,0.9v5.7H392V78.6z"/>
			<path class="st5" d="M398.5,83.9c0.6,0.4,1.6,0.8,2.5,0.8c1.4,0,2.1-0.7,2.1-1.6c0-0.9-0.5-1.4-2-2c-1.9-0.7-2.8-1.7-2.8-3
				c0-1.7,1.4-3.1,3.7-3.1c1.1,0,2,0.3,2.6,0.7l-0.5,1.4c-0.4-0.3-1.2-0.6-2.2-0.6c-1.1,0-1.8,0.7-1.8,1.4c0,0.9,0.6,1.3,2,1.8
				c1.8,0.7,2.8,1.6,2.8,3.2c0,1.9-1.5,3.2-4,3.2c-1.2,0-2.2-0.3-3-0.7L398.5,83.9z"/>
		</g>
		<g>
			<path class="st5" d="M482.1,79.4c-0.1-2.1-0.2-4.5-0.2-6.4h-0.1c-0.5,1.7-1.1,3.6-1.9,5.6l-2.6,7.2h-1.5l-2.4-7.1
				c-0.7-2.1-1.3-4-1.7-5.8h0c0,1.8-0.2,4.3-0.3,6.5l-0.4,6.3h-1.8l1-14.8h2.4l2.5,7.2c0.6,1.8,1.1,3.4,1.5,5h0.1
				c0.4-1.5,0.9-3.1,1.6-5l2.6-7.2h2.4l0.9,14.8h-1.9L482.1,79.4z"/>
			<path class="st5" d="M496.5,80.5c0,3.9-2.7,5.6-5.3,5.6c-2.9,0-5.1-2.1-5.1-5.5c0-3.6,2.3-5.6,5.3-5.6
				C494.4,75,496.5,77.3,496.5,80.5z M488.1,80.6c0,2.3,1.3,4.1,3.2,4.1c1.8,0,3.2-1.7,3.2-4.1c0-1.8-0.9-4.1-3.2-4.1
				S488.1,78.6,488.1,80.6z"/>
			<path class="st5" d="M499.1,75.3l2.1,6c0.4,1,0.6,1.8,0.9,2.7h0.1c0.2-0.9,0.5-1.8,0.9-2.7l2.1-6h2l-4.2,10.6h-1.8l-4-10.6H499.1
				z"/>
			<path class="st5" d="M509.3,80.9c0,2.6,1.7,3.7,3.6,3.7c1.4,0,2.2-0.2,2.9-0.5l0.3,1.4c-0.7,0.3-1.8,0.7-3.5,0.7
				c-3.3,0-5.2-2.2-5.2-5.4s1.9-5.7,5-5.7c3.5,0,4.4,3.1,4.4,5c0,0.4,0,0.7-0.1,0.9H509.3z M515,79.6c0-1.2-0.5-3.1-2.7-3.1
				c-2,0-2.8,1.8-3,3.1H515z"/>
			<path class="st5" d="M518.8,78.6c0-1.3,0-2.3-0.1-3.3h1.7l0.1,2.1h0.1c0.5-1.4,1.6-2.3,2.9-2.3c0.2,0,0.4,0,0.5,0.1v1.8
				c-0.2,0-0.4-0.1-0.7-0.1c-1.4,0-2.3,1-2.6,2.5c0,0.3-0.1,0.6-0.1,0.9v5.7h-1.9V78.6z"/>
			<path class="st5" d="M525.3,83.9c0.6,0.4,1.6,0.8,2.5,0.8c1.4,0,2.1-0.7,2.1-1.6c0-0.9-0.5-1.4-2-2c-1.9-0.7-2.8-1.7-2.8-3
				c0-1.7,1.4-3.1,3.7-3.1c1.1,0,2,0.3,2.6,0.7l-0.5,1.4c-0.4-0.3-1.2-0.6-2.2-0.6c-1.1,0-1.8,0.7-1.8,1.4c0,0.9,0.6,1.3,2,1.8
				c1.8,0.7,2.8,1.6,2.8,3.2c0,1.9-1.5,3.2-4,3.2c-1.2,0-2.2-0.3-3-0.7L525.3,83.9z"/>
		</g>
		<g>
			<path class="st5" d="M600.5,71.1h8v1.6h-6.1v4.9h5.6v1.6h-5.6v6.7h-1.9V71.1z"/>
			<path class="st5" d="M610.3,70.3h1.9v15.6h-1.9V70.3z"/>
			<path class="st5" d="M615.8,75.3l2.3,6.3c0.2,0.7,0.5,1.5,0.7,2.2h0c0.2-0.6,0.4-1.4,0.7-2.2l2.1-6.2h2l-2.9,7.6
				c-1.4,3.6-2.3,5.5-3.6,6.7c-0.9,0.8-1.9,1.2-2.4,1.3l-0.5-1.6c0.5-0.2,1.1-0.5,1.7-0.9c0.5-0.4,1.2-1.2,1.6-2.2
				c0.1-0.2,0.2-0.4,0.2-0.5c0-0.1,0-0.3-0.1-0.5l-3.9-9.8H615.8z"/>
			<path class="st5" d="M625.9,80.9c0,2.6,1.7,3.7,3.6,3.7c1.4,0,2.2-0.2,2.9-0.5l0.3,1.4c-0.7,0.3-1.8,0.7-3.5,0.7
				c-3.3,0-5.2-2.2-5.2-5.4s1.9-5.7,5-5.7c3.5,0,4.4,3.1,4.4,5c0,0.4,0,0.7-0.1,0.9H625.9z M631.5,79.6c0-1.2-0.5-3.1-2.7-3.1
				c-2,0-2.8,1.8-3,3.1H631.5z"/>
			<path class="st5" d="M635.4,78.6c0-1.3,0-2.3-0.1-3.3h1.7l0.1,2.1h0.1c0.5-1.4,1.6-2.3,2.9-2.3c0.2,0,0.4,0,0.5,0.1v1.8
				c-0.2,0-0.4-0.1-0.7-0.1c-1.4,0-2.3,1-2.6,2.5c0,0.3-0.1,0.6-0.1,0.9v5.7h-1.9V78.6z"/>
			<path class="st5" d="M641.8,83.9c0.6,0.4,1.6,0.8,2.5,0.8c1.4,0,2.1-0.7,2.1-1.6c0-0.9-0.5-1.4-2-2c-1.9-0.7-2.8-1.7-2.8-3
				c0-1.7,1.4-3.1,3.7-3.1c1.1,0,2,0.3,2.6,0.7l-0.5,1.4c-0.4-0.3-1.2-0.6-2.2-0.6c-1.1,0-1.8,0.7-1.8,1.4c0,0.9,0.6,1.3,2,1.8
				c1.8,0.7,2.8,1.6,2.8,3.2c0,1.9-1.5,3.2-4,3.2c-1.2,0-2.2-0.3-3-0.7L641.8,83.9z"/>
		</g>
		<g>
			<path class="st5" d="M736.4,71.1h1.9v7.1h0.1c0.4-0.6,0.8-1.1,1.2-1.6l4.5-5.6h2.4l-5.4,6.3l5.8,8.5h-2.3l-4.9-7.3l-1.4,1.6v5.6
				h-1.9V71.1z"/>
			<path class="st5" d="M755.6,79h-5.8v5.3h6.4v1.6h-8.3V71.1h8v1.6h-6.1v4.7h5.8V79z"/>
			<path class="st5" d="M761.4,72.7h-4.5v-1.6h11v1.6h-4.5v13.2h-1.9V72.7z"/>
		</g>
		<g>
			<path class="st5" d="M870.8,71.3c0.9-0.2,2.1-0.3,3.7-0.3c1.9,0,3.3,0.4,4.2,1.2c0.8,0.7,1.3,1.8,1.3,3.1c0,1.3-0.4,2.4-1.1,3.2
				c-1,1.1-2.7,1.6-4.5,1.6c-0.6,0-1.1,0-1.5-0.1v5.9h-1.9V71.3z M872.7,78.4c0.4,0.1,0.9,0.2,1.6,0.2c2.3,0,3.7-1.1,3.7-3.2
				c0-2-1.4-2.9-3.5-2.9c-0.8,0-1.5,0.1-1.8,0.2V78.4z"/>
			<path class="st5" d="M889.7,79H884v5.3h6.4v1.6h-8.3V71.1h8v1.6H884v4.7h5.8V79z"/>
			<path class="st5" d="M895.6,72.7h-4.5v-1.6h11v1.6h-4.5v13.2h-1.9V72.7z"/>
		</g>
		<g>
			<path class="st5" d="M979.4,71.1v14.8h-1.9V71.1H979.4z"/>
			<path class="st5" d="M990,79h-5.8v5.3h6.4v1.6h-8.3V71.1h8v1.6h-6.1v4.7h5.8V79z"/>
			<path class="st5" d="M992.7,71.1h1.9v13.2h6.3v1.6h-8.2V71.1z"/>
			<path class="st5" d="M1003.5,72.7H999v-1.6h11v1.6h-4.5v13.2h-1.9V72.7z"/>
			<path class="st5" d="M1010.8,83.6c0.9,0.5,2.1,1,3.4,1c2,0,3.1-1,3.1-2.5c0-1.4-0.8-2.2-2.8-2.9c-2.4-0.9-3.9-2.1-3.9-4.2
				c0-2.3,1.9-4,4.8-4c1.5,0,2.6,0.4,3.3,0.7l-0.5,1.6c-0.5-0.3-1.5-0.7-2.8-0.7c-2,0-2.8,1.2-2.8,2.2c0,1.4,0.9,2.1,2.9,2.9
				c2.5,1,3.8,2.2,3.8,4.4c0,2.3-1.7,4.3-5.2,4.3c-1.4,0-3-0.4-3.8-0.9L1010.8,83.6z"/>
		</g>
		<g>
			<g>
				<path class="st6" d="M613.6,31.8l-1.7,5.1h-2.2l5.5-16.2h2.5l5.5,16.2h-2.2l-1.7-5.1H613.6z M618.9,30.2l-1.6-4.7
					c-0.4-1.1-0.6-2-0.8-3h0c-0.2,1-0.5,1.9-0.8,2.9l-1.6,4.7H618.9z"/>
				<path class="st6" d="M628.1,23.3L628.1,23.3l-2.8,1.5l-0.4-1.6l3.4-1.8h1.8v15.6h-2V23.3z"/>
				<path class="st6" d="M641.2,24.1v5.6h5.4v1.4h-5.4v5.7h-1.5v-5.7h-5.4v-1.4h5.4v-5.6H641.2z"/>
			</g>
		</g>
		<g>
			<g>
				<path class="st6" d="M743.5,31.8l-1.7,5.1h-2.2l5.5-16.2h2.5l5.5,16.2h-2.2l-1.7-5.1H743.5z M748.8,30.2l-1.6-4.7
					c-0.4-1.1-0.6-2-0.8-3h0c-0.2,1-0.5,1.9-0.8,2.9l-1.6,4.7H748.8z"/>
				<path class="st6" d="M753.4,36.9v-1.3L755,34c4-3.8,5.8-5.8,5.8-8.2c0-1.6-0.8-3.1-3.1-3.1c-1.4,0-2.6,0.7-3.3,1.3l-0.7-1.5
					c1.1-0.9,2.6-1.6,4.4-1.6c3.4,0,4.8,2.3,4.8,4.5c0,2.9-2.1,5.2-5.4,8.4l-1.3,1.2v0h7v1.8H753.4z"/>
			</g>
		</g>
		<g>
			<text transform="matrix(1 0 0 1 874.6218 36.9007)" class="st6 st7 st8 st9">B1</text>
		</g>
		<g>
			<g>
				<path class="st6" d="M980.8,20.9c0.9-0.2,2.4-0.3,3.8-0.3c2.1,0,3.4,0.4,4.4,1.2c0.8,0.6,1.3,1.6,1.3,2.9c0,1.6-1,2.9-2.7,3.6v0
					c1.5,0.4,3.3,1.7,3.3,4.1c0,1.4-0.6,2.5-1.4,3.2c-1.1,1-3,1.5-5.6,1.5c-1.4,0-2.5-0.1-3.2-0.2V20.9z M982.9,27.6h1.9
					c2.2,0,3.5-1.2,3.5-2.7c0-1.9-1.4-2.6-3.6-2.6c-1,0-1.5,0.1-1.9,0.1V27.6z M982.9,35.3c0.4,0.1,1,0.1,1.8,0.1
					c2.2,0,4.2-0.8,4.2-3.1c0-2.2-1.9-3.1-4.2-3.1h-1.7V35.3z"/>
				<path class="st6" d="M996.2,23.3L996.2,23.3l-2.8,1.5l-0.4-1.6l3.4-1.8h1.8v15.6h-2V23.3z"/>
				<path class="st6" d="M1009.4,24.1v5.6h5.4v1.4h-5.4v5.7h-1.5v-5.7h-5.4v-1.4h5.4v-5.6H1009.4z"/>
			</g>
		</g>
		<rect x="682.6" y="60.8" class="st5" width="2.2" height="32.6"/>
	</g>
</g>
</svg>
