<?xml version="1.0" encoding="utf-8"?>
<!-- Generator: Adobe Illustrator 21.0.0, SVG Export Plug-In . SVG Version: 6.00 Build 0)  -->
<svg version="1.1" id="Layer_1" xmlns="http://www.w3.org/2000/svg" xmlns:xlink="http://www.w3.org/1999/xlink" x="0px" y="0px"
	 viewBox="0 0 191 41.7" style="enable-background:new 0 0 191 41.7;" xml:space="preserve">
<style type="text/css">
	.st0{fill:#808083;}
	.st1{fill:#FFFFFF;}
	.st2{fill:#F59222;}
	.st3{fill:#C5202E;}
	.st4{opacity:0.6;}
	.st5{fill:#221F1F;}
	.st6{fill:#FAAE32;}
</style>
<g>
	<path class="st0" d="M174.6,22.9c-0.3-0.3-1-1.1-2-2.3c-0.3-0.4-0.6-0.7-0.9-1c1.4-1,2.1-2.2,2.2-3.8c0.2-2.8-2.5-4.4-5.2-4.9
		c-2-0.4-3.8-0.5-5.1-0.6c-0.4,0-0.7,0-1-0.1c-0.2,0-0.3,0-0.4,0c-1,0-1.6,0.4-1.9,1.1c-0.1-0.2-0.3-0.4-0.5-0.6
		c-2.3-2.4-4.6-3.5-7.6-3.5c-0.3,0-0.5,0-0.8,0c-2.8,0.2-5.4,1.5-7.3,3.8c-1.1,1.3-1.9,2.8-2.3,4.5c-0.8-1.4-1.6-2.9-1.7-3.1l0,0
		c-0.3-0.5-0.7-0.7-1-0.7c-0.5,0-0.8,0.2-1.1,0.7c-0.1,0.3-2.1,3.8-3.4,5.9c-1.4-1.8-4-5.4-4.2-5.7c-0.4-0.5-0.8-0.6-1.1-0.6
		c-0.2,0-0.9,0.1-1.1,0.9l-0.1,0.2c-0.7,2.1-1.4,4.1-2,5.7c-0.3-0.6-0.7-1.2-1-1.8c-0.7-1.3-1.4-2.6-1.9-3.5c-0.1-0.2-0.5-1-1.3-1
		c-0.4,0-0.9,0.2-1.3,0.9c-0.7,1.4-2.2,3.9-3.2,5.6c-1.1-1.5-2.9-3.9-3.7-5c-0.1-0.2-0.6-0.8-1.3-0.8c-0.3,0-1,0.1-1.4,1.1
		c-0.1,0.2-0.3,0.6-0.5,1.1c0-0.1,0-0.2,0-0.3c0-0.3,0-0.6-0.1-0.8l-0.1-1.1l-7,0.4l0.1,1.1c0,0.2,0,0.5,0.1,0.8
		c0.1,0.7,0.2,1.6,0.2,2.5l0,0.7c0.3,4.1,0.2,4.7-0.1,5.2c-0.2,0.3-0.4,0.4-0.7,0.4c0,0-0.1,0-0.1,0c-0.3,0-0.5-0.1-0.7-0.2
		c-0.5-0.5-0.7-1.5-0.9-4.4l-0.1-1.3c-0.1-2.2-0.1-2.9-0.1-3.2l0.1-1.2l-1.2,0c-2.4,0.1-3.8,0.2-4.2,0.3c-0.1-0.6-1-4.3-1-4.3
		l-0.2-1l-1,0.1c-8.7,1.3-13,5.9-12.8,9.8c0.2,3.1,2.7,4.7,5.1,5.9c0.8,0.4,2.2,1.1,2.5,1.4c-0.3,0.5-2.3,1.3-5,1.4l-1.3,0l1.7,7.5
		l1-0.2c7-1.3,10.7-4.1,12.3-7c1.3,1.1,2.9,1.6,5,1.6l0,0c0.3,0,0.6,0,0.9,0c1.6-0.1,3.1-0.6,4.3-1.3l4.9,1.4c0,0,0.8-3.9,1.3-5.6
		c0.9,1.2,2.3,2.9,2.9,3.7c0.6,0.8,1.6,0.5,2-0.1c0.4-0.6,2-3.1,2.8-4.5c0.5,1.1,1.9,4.1,1.9,4.1l5.9,1.8c0,0,1.1-4.1,1.5-5.9
		c0.9,1.2,2,2.6,2.9,3.7l0.3,0.4l1.4-0.1l0.3-0.4c0.8-1.3,2-3.1,2.8-4.5c0.8,1.6,2.7,5.7,2.7,5.7l4.1-2c1.9,1.6,4.3,2.6,7,2.6
		c0.2,0,0.4,0,0.7,0c3.2-0.2,5.5-1.1,8.1-3.2l4.9,0.3l-0.1-1.2c0-0.3,0.1-1.7,0.2-3.1l3.3,5.6l6-3.8L174.6,22.9z M154.9,21.3
		c-0.8,0.4-1.6,0.6-2.4,0.7c-0.1,0-0.1,0-0.2,0c-0.3,0-0.6,0-0.9-0.1c2.3-1.7,7.1-5.2,8.3-6.1c-0.2,2-0.3,4.2-0.4,5.4
		c-0.6-0.3-1.2-0.5-1.9-0.5C156.6,20.7,155.8,20.9,154.9,21.3z"/>
	<path class="st1" d="M174.2,23.7c-0.3-0.3-1-1.1-2-2.3c-0.3-0.3-0.6-0.7-0.9-1c1.4-1,2.1-2.2,2.2-3.8c0.2-2.8-2.5-4.4-5.2-4.9
		c-2-0.4-3.8-0.5-5.1-0.6c-0.4,0-0.7,0-1-0.1c-0.2,0-0.3,0-0.4,0c-0.9,0-1.6,0.4-1.9,1.1c-0.2-0.2-0.3-0.4-0.5-0.6
		c-2.3-2.4-4.6-3.5-7.6-3.5c-0.3,0-0.5,0-0.8,0c-2.8,0.2-5.4,1.5-7.3,3.8c-1.1,1.3-1.9,2.8-2.3,4.5c-0.8-1.4-1.6-2.9-1.7-3.1l0,0
		c-0.3-0.5-0.7-0.6-1-0.6c-0.5,0-0.8,0.2-1.1,0.7c-0.1,0.3-2.1,3.8-3.4,5.9c-1.4-1.8-4-5.4-4.2-5.7c-0.3-0.5-0.8-0.6-1.1-0.6
		c-0.2,0-0.9,0.1-1.1,0.9l-0.1,0.2c-0.7,2.1-1.4,4.1-2,5.7c-0.3-0.6-0.7-1.2-1-1.8c-0.7-1.3-1.4-2.6-1.9-3.5c-0.1-0.2-0.5-1-1.3-1
		c-0.4,0-0.9,0.2-1.3,0.9c-0.7,1.4-2.2,3.9-3.2,5.6c-1.1-1.5-2.9-3.9-3.7-5c-0.1-0.2-0.6-0.8-1.3-0.8c-0.3,0-1,0.1-1.4,1.1
		c-0.1,0.2-0.3,0.6-0.5,1.1c0-0.1,0-0.2,0-0.3c0-0.3,0-0.6-0.1-0.8l-0.1-1.1l-7,0.4l0.1,1.1c0,0.2,0,0.5,0.1,0.8
		c0.1,0.7,0.2,1.6,0.2,2.5l0,0.7c0.3,4.1,0.2,4.7-0.1,5.2c-0.2,0.3-0.4,0.4-0.7,0.4c0,0-0.1,0-0.1,0c-0.3,0-0.5-0.1-0.7-0.2
		c-0.5-0.5-0.7-1.5-0.9-4.4l-0.1-1.3c-0.1-2.2-0.1-2.9-0.1-3.2l0.1-1.2l-1.2,0c-2.4,0.1-3.8,0.2-4.2,0.3c-0.1-0.6-0.7-3.3-1-4.3
		c-0.3-1-1.2-0.8-1.2-0.8c-8.7,1.3-13,5.9-12.8,9.8c0.2,3.1,2.7,4.7,5.1,5.9c0.8,0.4,2.2,1.1,2.5,1.4c-0.3,0.5-2.3,1.3-5,1.4l-1.3,0
		l1.7,7.5l1-0.2c7-1.3,10.7-4.1,12.3-7c1.3,1.1,2.9,1.6,5,1.6l0,0c0.3,0,0.6,0,0.9,0c1.6-0.1,3.1-0.6,4.3-1.3l4.9,1.4
		c0,0,0.8-3.9,1.3-5.6c0.9,1.2,2.3,2.9,2.9,3.7c0.6,0.8,1.6,0.5,2-0.1c0.4-0.6,2-3.1,2.8-4.5c0.5,1.1,1.9,4.1,1.9,4.1l5.9,1.8
		c0,0,1.1-4.1,1.5-5.9c0.9,1.2,2.5,3.2,2.9,3.7c0.5,0.6,1.1,1.2,2-0.1c0.9-1.3,2-3.1,2.8-4.5c0.8,1.6,2.7,5.7,2.7,5.7l4.1-2
		c1.9,1.6,4.3,2.6,7,2.6c0.2,0,0.4,0,0.7,0c3.2-0.2,5.5-1.1,8.1-3.2l4.9,0.3l-0.1-1.2c0-0.3,0.1-1.7,0.2-3.1l3.3,5.6l6-3.8
		L174.2,23.7z M154.5,22c-0.8,0.4-1.6,0.6-2.4,0.7c-0.1,0-0.1,0-0.2,0c-0.3,0-0.6,0-0.9-0.1c2.3-1.7,7.1-5.2,8.3-6.1
		c-0.2,2-0.3,4.2-0.4,5.4c-0.6-0.3-1.2-0.5-1.9-0.5C156.2,21.4,155.3,21.6,154.5,22z"/>
	<g>
		<g>
			<path class="st2" d="M125.3,21.4c-1.3-2.4-2.7-4.9-3.5-6.4c-0.1-0.3-0.4-0.7-0.7,0c-1,1.9-3.3,5.9-4,7c-0.6-0.7-3.5-4.7-4.7-6.3
				c-0.3-0.4-0.6-0.6-0.8,0.1c-0.3,0.8-1.5,3.5-1.5,3.5l0,0.3c0.2,3.9,0.1,6.2-1.4,8.2c-0.2,0.3-0.5,0.6-0.8,0.9l3.2,0.9
				c0.3-0.9,1.5-5.7,1.7-6.7c0.3,0.5,2.6,3.5,4.3,5.6l0.3,0c1.4-2.1,3.7-5.8,3.9-6.2c0.1,0.4,1.4,3,2.3,4.9
				C123.5,26.4,124.9,22.3,125.3,21.4z"/>
		</g>
		<path class="st2" d="M108.9,15.3l-4.8,0.3c0.1,0.7,0.2,2,0.3,3.3l0,0.7c0.3,4.3,0.3,5-0.2,5.8c-0.3,0.6-0.9,0.9-1.6,0.9
			c-0.6,0-1.1-0.1-1.6-0.5c-0.8-0.8-1-2.1-1.2-5.1l-0.1-1.3c-0.1-1.7-0.1-2.8-0.1-3.3c0,0-3.6,0.1-4,0.2c-0.4,0.1-0.9,0.5-0.9,1.1
			c0,0.6,0.1,1.3,0.1,1.8l0.1,1c0,0.2,0,0.4,0,0.6c1.3,0.9,2.5,2.3,2.7,4.3c0.1,0.9-0.1,1.8-0.4,2.8c1.6,1.5,3.9,1.6,5.3,1.5
			c2.2-0.1,4.2-1,5.3-2.5c1.4-1.8,1.5-4,1.3-7.7l-0.1-0.9C109,17.1,108.9,15.7,108.9,15.3z"/>
		<path class="st2" d="M83.1,29.8c3-0.1,6.2-1.1,6.1-2.6c0-0.6-0.6-1-3.2-2.2c-2-1-4.3-2.4-4.5-5c-0.2-3.5,4.1-7.5,11.9-8.6
			c0,0,0.9,3.9,1,4.4c0.1,0.5-0.3,0.8-0.5,0.8c-3.4,0.3-5.1,1-5,2.2c0,0.7,1.1,1.2,3.1,2c1.7,0.7,4.4,1.9,4.6,4.7
			c0.2,3.4-3.1,8-12.3,9.6L83.1,29.8z"/>
		<path class="st2" d="M169.6,20.1c1.7-0.9,2.7-2,2.8-3.6c0.1-1.7-1.4-3.2-4.3-3.8c-2.5-0.5-4.7-0.5-6-0.6c-0.8-0.1-1.3,0.1-1.4,1
			c-0.1,1.3-0.7,8.7-0.8,9.7c1.1,1.5,1.1,2.9,1.1,2.9l3.3,0.2c0-0.3,0.3-5.1,0.3-5.8l0.3-4.9c2,0.2,2.5,0.9,2.4,1.8
			c-0.1,1.4-1.3,2.2-2.4,2.7l4.2,7.2l4.1-2.6C172.9,23.7,170.2,20.8,169.6,20.1z"/>
		<path class="st3" d="M141.2,19.9c0-0.5,0-1,0-1.4c-1-1.9-2.5-4.5-2.6-4.6c-0.1-0.2-0.1-0.3-0.3,0c-0.2,0.3-3.5,6.1-4.2,7.3
			c-0.7-0.9-5-6.7-5.2-7c-0.1-0.2-0.2-0.2-0.3,0c-0.1,0.2-4.4,12.6-4.7,13.3l4.1,1.1c0.3-0.9,1.5-5.7,1.7-6.7
			c0.3,0.5,2.6,3.5,4.3,5.6l0.3,0c1.4-2.1,3.7-5.8,3.9-6.2c0.2,0.5,2.3,5,3.1,6.5l3-1.4C142.5,24.6,141.4,22.2,141.2,19.9z"/>
		<path class="st3" d="M149.2,22.6c0.7,0.9,2,1.2,3.1,1.1c1-0.1,1.9-0.4,2.8-0.8c1.8-0.9,3.2-0.6,4.1,0.5c0.8,1.1,1,2.4,1,2.4
			c-2.3,1.8-4.4,2.8-7.6,3c-5.8,0.4-10.2-4.5-10.4-9c-0.3-5.5,3.7-10.3,9-10.7c3.2-0.2,5.4,0.9,7.6,3.1c0.8,0.8,1.3,2.4,0.2,3.2
			C157.7,16.4,149.2,22.6,149.2,22.6z M153.8,14.4c-0.6-0.6-1.5-0.7-2.5-0.6c-2.4,0.1-4.2,2.6-4,4.9l0,0.6L153.8,14.4z"/>
	</g>
	<g>
		<path class="st1" d="M108.9,28C108.9,27.9,108.9,27.9,108.9,28c1.7-2.2,1.9-4.7,1.6-8.7l0-0.1c0.2-0.5,0.9-2.1,1.3-3
			c1.3,1.8,4,5.3,4.5,6l0.6,0.9l0.5-0.9c0.6-1.1,2.6-4.5,3.7-6.5c0.4,0.8,1,1.9,1.7,3c0.5,0.9,1,1.7,1.4,2.6c0,0-1,2.9-1.2,3.7
			c-0.8-1.6-1.4-3-1.5-3.3l-0.5-1.4l-0.8,1.3c-0.2,0.3-2.1,3.4-3.5,5.5c-1.6-2.1-3.5-4.5-3.8-4.9l-0.9-1.4l-0.4,1.7
			c-0.2,0.9-1,4.4-1.5,6L108.9,28z"/>
		<path class="st1" d="M101.6,28.8c-1.6,0-2.8-0.3-3.7-1.1c0.3-0.9,0.4-1.8,0.3-2.6c-0.1-1.9-1-3.4-2.7-4.7c0-0.1,0-0.2,0-0.3
			l-0.1-1c0-0.1,0-0.3,0-0.4c0-0.4-0.1-1-0.1-1.4c0-0.2,0.2-0.4,0.4-0.4c0.2-0.1,1.6-0.1,3.1-0.2c0,0.8,0.1,1.8,0.1,2.6l0.1,1.3
			c0.2,3,0.4,4.5,1.4,5.6c0.5,0.5,1.1,0.7,1.9,0.7c0.1,0,0.1,0,0.2,0c0.9-0.1,1.7-0.5,2.1-1.3c0.6-1,0.6-1.9,0.3-6.2l0-0.7
			c-0.1-0.9-0.2-1.9-0.2-2.6c0,0,0,0,0,0l3.4-0.2c0,0,0,0,0,0.1c0,0.7,0.1,1.6,0.2,2.6l0.1,0.9c0.2,3.6,0.1,5.6-1.1,7.2
			c-1,1.3-2.7,2.1-4.8,2.2C102.1,28.8,101.8,28.8,101.6,28.8L101.6,28.8z"/>
		<path class="st1" d="M83.8,30.3c2.1-0.2,4.4-0.8,5.4-1.9c0.5-0.5,0.6-1,0.5-1.4c-0.1-1.1-1-1.6-3.6-2.8c-2.1-1-4-2.3-4.1-4.4
			c-0.2-2.9,3.5-6.5,10.6-7.8c0.2,1.1,0.7,3.2,0.8,3.7c-2.5,0.2-5.6,0.8-5.5,2.9c0.1,1.2,1.2,1.6,3.4,2.6l0.2,0.1
			c2.1,0.9,4,2,4.1,4.1c0.2,3.3-3.2,7.2-11.1,8.8L83.8,30.3z"/>
		<path class="st1" d="M165.9,19.9c1.3-0.7,2-1.7,2.1-2.9c0.1-2-1.9-2.5-3.1-2.6l-0.7-0.1l-0.4,5.6c0,0.2-0.2,3.5-0.3,5.1l-2-0.1
			c-0.1-0.6-0.4-1.5-1-2.5c0.1-1.6,0.6-8.1,0.7-9.4c0-0.2,0.1-0.3,0.1-0.3l0,0c0,0,0.1,0,0.3,0c0.1,0,0.2,0,0.3,0
			c0.3,0,0.7,0,1.1,0.1c1.3,0.1,3,0.2,4.9,0.6c2.4,0.5,3.8,1.6,3.7,3c-0.1,1.2-0.8,2.2-2.4,3l-0.8,0.4l0.5,0.7c0.3,0.3,1,1.2,1.8,2
			c0.5,0.6,1,1.2,1.4,1.6l-2.8,1.8L165.9,19.9z"/>
		<path class="st1" d="M124.7,26.9c0.8-2.1,2.9-8.2,4.1-11.6c0.8,1,2.2,2.9,4,5.4l1.3,1.7l0.5-0.9c0.6-0.9,2.8-4.8,3.7-6.5
			c0.5,0.9,1.3,2.3,2,3.6c0,0.4,0,0.9,0,1.3c0.1,2.2,1.1,4.4,2.6,6.2l-1.5,0.7c-0.9-1.9-2.6-5.4-2.7-5.8l-0.5-1.4l-0.8,1.3
			c-0.2,0.3-2.1,3.4-3.5,5.5c-1.6-2.1-3.5-4.5-3.8-4.9l-0.9-1.4l-0.4,1.7c-0.2,0.9-1,4.4-1.5,6L124.7,26.9z"/>
		<path class="st1" d="M151.7,28c-2.4,0-4.6-1-6.4-2.7c-1.6-1.6-2.6-3.7-2.7-5.6c-0.2-2.5,0.6-4.9,2.2-6.8c1.6-1.9,3.7-3,6.1-3.1
			c0.2,0,0.5,0,0.7,0c2.5,0,4.4,0.9,6.3,2.9c0.4,0.4,0.7,1.1,0.6,1.5c0,0.3-0.1,0.5-0.3,0.7c-1,0.9-9.5,7-9.6,7.1l-0.6,0.4l0.5,0.6
			c0.7,0.9,1.9,1.4,3.4,1.4c0.1,0,0.2,0,0.3,0c1-0.1,2-0.4,3.1-0.9c0.6-0.3,1.1-0.4,1.7-0.4c0.6,0,1.2,0.2,1.5,0.7
			c0.4,0.6,0.6,1.2,0.7,1.6c-2.2,1.7-4.2,2.4-6.9,2.6C152,27.9,151.8,28,151.7,28L151.7,28z M151.6,12.9c-0.2,0-0.3,0-0.5,0
			c-1.3,0.1-2.6,0.8-3.5,1.9c-0.8,1.1-1.3,2.5-1.2,3.8l0.1,2l8.2-6.3l-0.6-0.6C153.5,13.2,152.7,12.9,151.6,12.9z"/>
	</g>
	<path class="st2" d="M109.4,28.2C109.4,28.1,109.4,28.1,109.4,28.2c1.7-2.2,1.9-4.7,1.6-8.7l0-0.1c0.2-0.5,0.9-2.1,1.3-3
		c1.3,1.8,4,5.3,4.5,6l0.6,0.9l0.5-0.9c0.6-1.1,2.6-4.5,3.7-6.5c0.4,0.8,1,1.9,1.7,3c0.5,0.9,1,1.7,1.4,2.6c0,0-1,2.9-1.2,3.7
		c-0.8-1.6-1.4-3-1.5-3.3l-0.5-1.4l-0.8,1.3c-0.2,0.3-2.1,3.4-3.5,5.5c-1.6-2.1-3.5-4.5-3.8-4.9l-0.9-1.4l-0.4,1.7
		c-0.2,0.9-1,4.4-1.5,6L109.4,28.2z"/>
	<path class="st2" d="M102.1,29c-1.6,0-2.8-0.3-3.7-1.1c0.3-0.9,0.4-1.8,0.3-2.6c-0.1-1.9-1-3.4-2.7-4.7c0-0.1,0-0.2,0-0.3l-0.1-1
		c0-0.1,0-0.3,0-0.4c0-0.4-0.1-1-0.1-1.4c0-0.2,0.2-0.4,0.4-0.4c0.2-0.1,1.6-0.1,3.1-0.2c0,0.8,0.1,1.8,0.1,2.6l0.1,1.3
		c0.2,3,0.4,4.5,1.4,5.6c0.5,0.5,1.1,0.7,1.9,0.7c0.1,0,0.1,0,0.2,0c0.9-0.1,1.7-0.5,2.1-1.3c0.6-1,0.6-1.9,0.3-6.2l0-0.7
		c-0.1-0.9-0.2-1.9-0.2-2.6c0,0,0,0,0,0l3.4-0.2c0,0,0,0,0,0.1c0,0.7,0.1,1.6,0.2,2.6l0.1,0.9c0.2,3.6,0.1,5.6-1.1,7.2
		c-1,1.3-2.7,2.1-4.8,2.2C102.6,29,102.3,29,102.1,29L102.1,29z"/>
	<path class="st2" d="M84.3,30.4c2.1-0.2,4.4-0.8,5.4-1.9c0.5-0.5,0.6-1,0.5-1.4c-0.1-1.1-1-1.6-3.6-2.8c-2.1-1-4-2.3-4.1-4.4
		c-0.2-2.9,3.5-6.5,10.6-7.8c0.2,1.1,0.7,3.2,0.8,3.7c-2.5,0.2-5.6,0.8-5.5,2.9c0.1,1.2,1.2,1.6,3.4,2.6l0.2,0.1
		c2.1,0.9,4,2,4.2,4.1c0.2,3.3-3.2,7.2-11.1,8.8L84.3,30.4z"/>
	<path class="st2" d="M166.4,20.1c1.3-0.7,2-1.7,2.1-2.9c0.1-2-1.9-2.5-3.1-2.6l-0.7-0.1l-0.4,5.6c0,0.2-0.2,3.5-0.3,5.1l-2-0.1
		c-0.1-0.6-0.4-1.5-1-2.5c0.1-1.6,0.6-8.1,0.7-9.4c0-0.2,0.1-0.3,0.1-0.3l0,0c0,0,0.1,0,0.3,0c0.1,0,0.2,0,0.3,0
		c0.3,0,0.7,0,1.1,0.1c1.3,0.1,3,0.2,4.9,0.5c2.4,0.5,3.8,1.6,3.7,3c-0.1,1.2-0.8,2.2-2.4,3l-0.8,0.4l0.5,0.7c0.3,0.3,1,1.2,1.8,2
		c0.5,0.6,1,1.2,1.4,1.6l-2.8,1.8L166.4,20.1z"/>
	<path class="st3" d="M125.1,27c0.8-2.1,2.9-8.2,4.1-11.6c0.8,1,2.2,2.9,4,5.4l1.3,1.7l0.5-0.9c0.6-0.9,2.8-4.8,3.7-6.5
		c0.5,0.9,1.3,2.3,2,3.6c0,0.4,0,0.9,0,1.3c0.1,2.2,1.1,4.4,2.6,6.2l-1.5,0.7c-0.9-1.9-2.6-5.4-2.7-5.8l-0.5-1.4l-0.8,1.3
		c-0.2,0.3-2.1,3.4-3.5,5.5c-1.6-2.1-3.5-4.5-3.8-4.9l-0.9-1.4l-0.4,1.7c-0.2,0.9-1,4.4-1.5,6L125.1,27z"/>
	<path class="st3" d="M152.3,28.1c-2.4,0-4.6-1-6.4-2.7c-1.6-1.6-2.6-3.7-2.7-5.6c-0.2-2.5,0.6-4.9,2.2-6.8c1.6-1.9,3.7-3,6.1-3.1
		c0.2,0,0.5,0,0.7,0c2.5,0,4.4,0.9,6.3,2.9c0.4,0.4,0.7,1.1,0.6,1.5c0,0.3-0.1,0.5-0.3,0.7c-1,0.9-9.5,7-9.6,7.1l-0.6,0.4l0.4,0.6
		c0.7,0.9,2,1.4,3.4,1.4c0.1,0,0.2,0,0.3,0c1-0.1,2-0.4,3.1-0.9c0.6-0.3,1.1-0.4,1.7-0.4c0.6,0,1.2,0.2,1.5,0.7
		c0.4,0.6,0.6,1.2,0.7,1.6c-2.2,1.7-4.2,2.4-6.9,2.6C152.6,28.1,152.4,28.1,152.3,28.1L152.3,28.1z M152.2,13.1c-0.2,0-0.3,0-0.5,0
		c-1.4,0.1-2.6,0.8-3.5,1.9c-0.8,1.1-1.3,2.5-1.2,3.8l0.1,2l8.2-6.3l-0.6-0.6C154.1,13.4,153.3,13.1,152.2,13.1z"/>
	<path class="st0" d="M74.8,11.6c-0.7,0-4.8,0.5-4.8,0.5c-0.1,0-1,0.1-2,0.4c-1.3,0.3-2.3,1-3,1.9c-1.9-1.2-4.2-1.9-6.5-1.8
		c-3.2,0.2-6,2-7.7,4.6c-1.9-2.4-4.8-3.8-7.9-3.6c-0.7,0-1.3,0.2-1.9,0.4l0-0.4l-8.2,0.9c-0.1,0-1.4,0.2-2.8,0.5
		c-0.8,0.2-2.3,0.7-3.1,2.3l-0.1-1.7c0,0-3.9,0.8-5.9,1.2c-0.6,0.1-0.7-0.3-0.4-0.6c0.5-0.7,1.1-1.6,1.1-1.6s-2.7-3.9-9.9-3.8
		c-6.2,0.1-9.3,5-9,9.1c0.2,3.6,2,5.5,4,6.6C6,26.6,5.5,27,5,27.7c-0.7,1-1.7,2.5-1.7,2.5l-1.3,2l1.9,1.5c2.3,1.7,5.3,2.6,8.5,2.4
		c3.3-0.2,5.8-1.5,7.5-3.4c1.9,2.5,4.9,2.7,6.5,2.6c0.4,0,6.8-1,6.8-1l0.3,5.6l4.6-0.8c1.6-0.6,4.1-2.2,4.5-4.9c0.5,0,1,0.1,1.5,0
		c3.1-0.2,5.9-2,7.6-4.6c2,2.3,4.9,3.9,8.4,3.6c1.7-0.1,3.3-0.5,4.9-1.3l0.1,1.1l4.7-0.8l0.1,0c2.2-0.6,4.4-2.5,4.3-5l-0.3-5.4
		c0-0.2,0-0.3,0-0.4c0.1,0,0.2-0.1,0.4-0.1c1.6-0.3,2.7-1.4,2.9-3c0.1-0.8,0.4-3.5,0.4-3.8l0.3-3L74.8,11.6z"/>
	<path class="st1" d="M73.6,12.6c-0.7,0-4.8,0.5-4.8,0.5c-0.1,0-1,0.1-2,0.4c-1.3,0.3-2.3,1-3,1.9c-1.9-1.3-4.2-1.9-6.5-1.7
		c-3.2,0.2-6,2-7.7,4.6c-1.9-2.4-4.8-3.8-7.9-3.6c-0.7,0-1.3,0.2-1.9,0.4l0-0.4l-8.2,0.9c-0.1,0-1.4,0.2-2.8,0.5
		c-0.8,0.2-2.3,0.7-3.1,2.3l-0.1-1.7c0,0-3.9,0.8-5.9,1.2C19,17.8,19,17.3,19.2,17c0.5-0.7,1-1.6,1-1.6s-2.7-3.9-9.9-3.8
		c-6.2,0.1-9.3,5-9,9.1c0.2,3.6,2,5.5,4,6.6c-0.5,0.3-1,0.7-1.5,1.4c-0.7,1-1.7,2.5-1.7,2.5l-1.3,2l1.9,1.5c2.3,1.7,5.3,2.6,8.5,2.4
		c3.3-0.2,5.8-1.5,7.5-3.4c2,2.5,4.9,2.7,6.5,2.6c0.4,0,6.8-1,6.8-1l0.3,5.6l4.6-0.8c1.6-0.6,4.1-2.2,4.5-4.9c0.5,0,1,0,1.5,0
		c3.1-0.2,5.9-2,7.6-4.6c2,2.3,4.9,3.9,8.4,3.6c1.7-0.1,3.3-0.5,4.9-1.3l0.1,1.1l4.7-0.8l0.1,0c2.2-0.6,4.4-2.5,4.3-5l-0.3-5.4
		c0-0.2,0-0.4,0-0.4c0.1,0,0.2-0.1,0.4-0.1c1.6-0.3,2.7-1.4,2.9-3c0.1-0.8,0.4-3.5,0.4-3.8l0.3-3L73.6,12.6z"/>
	<g>
		<path class="st3" d="M13.4,18.8c-0.7-0.4-1.4-0.6-2.5-0.5c-0.8,0.1-2.1,0.6-2,1.7c0.2,3.1,8.7,0.5,9.1,7.7c0.3,4.4-3,6.7-7,7
			c-2.4,0.1-4.9-0.4-6.8-1.9c0,0,1-1.6,1.7-2.5c0.7-0.9,1.3-0.9,2.3-0.4c0.7,0.3,1.5,0.4,2.4,0.4c1-0.1,2.5-0.6,2.4-1.9
			c-0.2-3-8.7-0.7-9.1-7.7c-0.2-3.9,3.2-6.2,6.6-6.4c2.2-0.1,4.5,0.5,6.3,1.9c0,0-1,1.5-1.6,2.3C14.6,19.2,13.7,19,13.4,18.8z"/>
		<path class="st3" d="M29.3,18.4c1.3-0.3,2.6-0.4,2.6-0.4l0.9,14.6l-4,0.7L28.7,31l-0.1,0c-0.7,2-2.4,2.6-3.6,2.7
			c-4,0.2-5.4-2.2-5.7-5.9c0,0-0.3-5-0.4-6.1c-0.1-1.1,0.6-1.7,1.6-1.9c1.1-0.2,2.6-0.4,2.6-0.4l0.5,7.8c0.1,1.7,1,2.5,2.3,2.4
			c1.3-0.1,2.1-1,2-2.7c0,0-0.3-4.4-0.4-6.1C27.6,19.2,28.3,18.6,29.3,18.4z"/>
		<path class="st3" d="M36,37.7l-1.4,0.2c0,0-0.9-14.7-1.1-17.7c-0.1-1.4,0.4-2.3,1.7-2.6c1.6-0.3,2.3-0.4,2.3-0.4l0.2,2.7l0.1,0
			c0.7-1.7,2.4-2.8,4.2-2.9c4.2-0.3,7.4,3.5,7.6,7.5c0.2,4-3,7.8-6.9,8.1c-1.4,0.1-3.1-0.2-4-1.4l-0.1,0c0,0,0,0.7,0.2,3.1
			C38.9,36.6,36,37.7,36,37.7z M41.8,28.7c2.1-0.1,3.4-2.1,3.3-4c-0.1-1.9-1.8-3.7-3.8-3.6c-2.1,0.1-3.5,2.1-3.3,4
			C38.1,27,39.8,28.8,41.8,28.7z"/>
		<path class="st3" d="M56.1,26.8c0.6,0.7,1.6,1,2.4,0.9c0.8,0,1.5-0.2,2.2-0.6c2.2-1.2,3,0,3.5,0.7c0.5,0.7,0.9,1.2,0.9,1.2
			c-1.8,1.5-3.9,2.5-6.4,2.7c-4.6,0.3-8-3.6-8.2-7.1c-0.3-4.3,2.9-8.2,7.1-8.4C60,16,62.3,17,64,18.7c0.4,0.4,0.5,1.9-0.5,2.6
			C62.9,21.7,56.1,26.8,56.1,26.8z M59.8,20.3c-0.5-0.5-1.2-0.5-2-0.5c-1.9,0.1-3.3,2-3.2,3.9l0,0.5L59.8,20.3z"/>
		<path class="st3" d="M67.4,15.9c0.8-0.2,1.6-0.3,1.6-0.3l0.2,2.8l0.1,0c0.7-2.6,2.1-3.1,4.5-3.3c0,0-0.3,2.9-0.4,3.7
			c-0.1,0.8-0.6,0.9-0.9,0.9c-1.7,0.3-2.6,1.3-2.5,3.2c0,0,0.2,3.7,0.3,5.4c0.1,1.7-2.5,2.5-2.5,2.5L66.1,31c0,0-0.6-10.3-0.8-12.3
			C65.2,16.7,66.6,16.1,67.4,15.9z"/>
	</g>
	<g class="st4">
		<path class="st5" d="M182,15.4c-0.2,0-0.3,0-0.5-0.1l-1.4-0.8l-1.4,0.8c-0.2,0.1-0.3,0.1-0.5,0.1c-0.3,0-0.5-0.1-0.7-0.3
			c-0.2-0.2-0.3-0.5-0.2-0.8l0.3-1.6l-1.2-1.1c-0.3-0.3-0.4-0.7-0.3-1c0.1-0.4,0.4-0.6,0.8-0.7l1.6-0.2l0.7-1.5
			c0.2-0.4,0.5-0.6,0.9-0.6c0.4,0,0.7,0.2,0.9,0.6l0.7,1.5l1.6,0.2c0.4,0.1,0.7,0.3,0.8,0.7c0.1,0.4,0,0.7-0.3,1l-1.2,1.1l0.3,1.6
			c0.1,0.3,0,0.6-0.2,0.8C182.5,15.3,182.2,15.4,182,15.4z"/>
		<path class="st5" d="M186.2,10.3c-0.2,0-0.4,0-0.5-0.1L184,9.3c0,0,0,0,0,0c0,0,0,0,0,0l-1.7,0.9c-0.2,0.1-0.3,0.1-0.5,0.1
			c-0.3,0-0.6-0.1-0.7-0.3c-0.2-0.2-0.3-0.5-0.2-0.9l0.3-1.9c0,0,0,0,0,0l-1.3-1.3c-0.3-0.3-0.4-0.7-0.3-1.1
			c0.1-0.4,0.4-0.6,0.9-0.7l1.9-0.3c0,0,0,0,0,0l0.8-1.7c0.2-0.4,0.5-0.6,0.9-0.6c0.4,0,0.7,0.2,0.9,0.6l0.8,1.7c0,0,0,0,0,0
			l1.9,0.3c0.4,0.1,0.7,0.3,0.9,0.7c0.1,0.4,0,0.8-0.3,1.1l-1.3,1.3c0,0,0,0,0,0l0.3,1.9c0.1,0.3,0,0.6-0.2,0.9
			C186.7,10.2,186.4,10.3,186.2,10.3z"/>
	</g>
	<g>
		<path class="st1" d="M182.4,16c-0.2,0-0.3,0-0.5-0.1l-1.4-0.8l-1.4,0.8c-0.2,0.1-0.3,0.1-0.5,0.1c-0.3,0-0.5-0.1-0.7-0.3
			c-0.2-0.2-0.3-0.5-0.2-0.9l0.3-1.6l-1.2-1.1c-0.3-0.3-0.4-0.7-0.3-1c0.1-0.4,0.4-0.6,0.8-0.7l1.6-0.2l0.7-1.5
			c0.2-0.4,0.5-0.6,0.9-0.6c0.4,0,0.7,0.2,0.9,0.6l0.7,1.5l1.6,0.2c0.4,0.1,0.7,0.3,0.8,0.7c0.1,0.4,0,0.7-0.3,1l-1.2,1.1l0.3,1.6
			c0.1,0.3,0,0.6-0.2,0.9C183,15.9,182.7,16,182.4,16z"/>
		<path class="st1" d="M186.6,10.9c-0.2,0-0.4,0-0.5-0.1l-1.7-0.9c0,0,0,0,0,0c0,0,0,0,0,0l-1.7,0.9c-0.2,0.1-0.4,0.1-0.5,0.1
			c-0.3,0-0.6-0.1-0.7-0.3c-0.2-0.2-0.3-0.5-0.2-0.9l0.3-1.9c0,0,0,0,0-0.1l-1.3-1.3c-0.3-0.3-0.4-0.7-0.3-1.1
			c0.1-0.4,0.4-0.6,0.9-0.7l1.9-0.3c0,0,0,0,0,0l0.8-1.7c0.2-0.4,0.5-0.6,0.9-0.6c0.4,0,0.7,0.2,0.9,0.6l0.8,1.7c0,0,0,0,0,0
			l1.9,0.3c0.4,0.1,0.7,0.3,0.9,0.7c0.1,0.4,0,0.8-0.3,1.1l-1.3,1.3c0,0,0,0,0,0.1l0.3,1.9c0.1,0.3,0,0.6-0.2,0.9
			C187.2,10.8,186.9,10.9,186.6,10.9z"/>
	</g>
	<g>
		<path class="st3" d="M180,8.8c0.1-0.2,0.2-0.2,0.3,0l0.7,1.5c0.1,0.2,0.3,0.4,0.5,0.4l1.7,0.2c0.2,0,0.3,0.2,0.1,0.3l-1.2,1.2
			c-0.1,0.1-0.2,0.4-0.2,0.6l0.3,1.7c0,0.2-0.1,0.3-0.3,0.2l-1.5-0.8c-0.2-0.1-0.5-0.1-0.7,0l-1.5,0.8c-0.2,0.1-0.3,0-0.3-0.2
			l0.3-1.7c0-0.2-0.1-0.5-0.2-0.6l-1.2-1.2c-0.1-0.1-0.1-0.3,0.1-0.3l1.7-0.2c0.2,0,0.4-0.2,0.5-0.4L180,8.8z"/>
		<path class="st6" d="M183.9,2.9c0.1-0.2,0.3-0.2,0.4,0l0.8,1.7c0.1,0.2,0.4,0.4,0.6,0.4l1.9,0.3c0.2,0,0.3,0.2,0.1,0.4L186.4,7
			c-0.2,0.2-0.3,0.5-0.2,0.7l0.3,1.9c0,0.2-0.1,0.3-0.3,0.2l-1.7-0.9c-0.2-0.1-0.5-0.1-0.8,0L182,9.8c-0.2,0.1-0.3,0-0.3-0.2
			l0.3-1.9c0-0.2-0.1-0.6-0.2-0.7l-1.4-1.3c-0.2-0.2-0.1-0.3,0.1-0.4l1.9-0.3c0.2,0,0.5-0.2,0.6-0.4L183.9,2.9z"/>
	</g>
</g>
</svg>
