<?xml version="1.0" encoding="utf-8"?>
<!-- Generator: Adobe Illustrator 22.1.0, SVG Export Plug-In . SVG Version: 6.00 Build 0)  -->
<svg version="1.1" id="Layer_1" xmlns="http://www.w3.org/2000/svg" xmlns:xlink="http://www.w3.org/1999/xlink" x="0px" y="0px"
	 viewBox="0 0 147.4 139" style="enable-background:new 0 0 147.4 139;" xml:space="preserve">
<style type="text/css">
	.st0{fill:#F86464;}
	.st1{fill:#263357;}
	.st2{fill:#FFFFFF;}
	.st3{fill:#61C4F2;}
</style>
<g>
	<g>
		<g>
			<g>
				<g>
					<path class="st0" d="M95.6,40.2c26.1,0,47.2,21.1,47.2,47.2c0,11.7-4.2,22.3-11.2,30.5l11,20.9l-20-12.7
						c-7.6,5.3-16.9,8.5-27,8.5c-26.1,0-47.2-21.1-47.2-47.2C48.4,61.3,69.5,40.2,95.6,40.2z"/>
				</g>
			</g>
		</g>
	</g>
</g>
<path class="st1" d="M9.3,89.7l7-3.3l0.8,0.6c5.3,3.7,11.6,5.7,18.1,5.7c17.4,0,31.6-14.2,31.6-31.6h3.5c0,19.4-15.8,35.1-35.1,35.1
	c-6.9,0-13.5-2-19.2-5.8L3.4,96.3"/>
<path class="st1" d="M0,61.1c0-19.4,15.8-35.1,35.2-35.1v3.5c-17.4,0-31.6,14.2-31.6,31.6"/>
<g>
	<path class="st1" d="M70.3,61.1h-3.5c0-0.6,0-1.1,0-1.7l3.5-0.2C70.3,59.8,70.3,60.5,70.3,61.1z"/>
	<path class="st1" d="M66.3,55.9c-0.2-1.2-0.5-2.3-0.8-3.5l3.4-1c0.4,1.3,0.7,2.6,0.9,3.9L66.3,55.9z M64.4,49
		c-0.5-1.1-1-2.2-1.5-3.2l3.1-1.7c0.6,1.2,1.2,2.4,1.7,3.6L64.4,49z M61,42.8c-0.7-1-1.4-1.9-2.2-2.8l2.6-2.3c0.9,1,1.7,2,2.5,3.1
		L61,42.8z M56.2,37.5c-0.9-0.8-1.8-1.5-2.8-2.2l2-2.9c1.1,0.8,2.1,1.6,3.1,2.5L56.2,37.5z M50.4,33.4c-1-0.6-2.1-1.1-3.2-1.5
		l1.3-3.3c1.2,0.5,2.4,1.1,3.6,1.7L50.4,33.4z M43.9,30.7c-1.1-0.3-2.3-0.6-3.5-0.8l0.6-3.5c1.3,0.2,2.6,0.5,3.9,0.9L43.9,30.7z"/>
	<path class="st1" d="M36.8,29.5c-0.6,0-1.1,0-1.7,0v-3.5c0.6,0,1.2,0,1.8,0L36.8,29.5z"/>
</g>
<g>
	<rect x="46.5" y="2.1" class="st1" width="3.5" height="4.3"/>
	<rect x="40.5" y="5.9" transform="matrix(0.5 -0.866 0.866 0.5 14.1485 40.6445)" class="st1" width="3.5" height="4.3"/>
	<rect x="40.4" y="13.4" transform="matrix(0.8658 -0.5003 0.5003 0.8658 -1.8498 23.3301)" class="st1" width="4.3" height="3.5"/>
	<rect x="47.1" y="16.2" class="st1" width="3.5" height="4.3"/>
	<rect x="53" y="12.4" transform="matrix(0.5 -0.866 0.866 0.5 14.7636 54.7351)" class="st1" width="3.5" height="4.3"/>
	<rect x="52.3" y="5.8" transform="matrix(0.8662 -0.4997 0.4997 0.8662 3.521 28.2263)" class="st1" width="4.3" height="3.5"/>
</g>
<g>
	<g>
		
			<rect x="134.6" y="42.9" transform="matrix(0.7071 -0.7071 0.7071 0.7071 8.6797 110.2605)" class="st1" width="5.7" height="3.5"/>
		
			<rect x="125.2" y="36.3" transform="matrix(0.4226 -0.9063 0.9063 0.4226 39.3891 138.0395)" class="st1" width="5.7" height="3.5"/>
		
			<rect x="141.2" y="52.3" transform="matrix(0.9063 -0.4226 0.4226 0.9063 -9.3363 65.9344)" class="st1" width="5.7" height="3.5"/>
		
			<rect x="134.6" y="42.9" transform="matrix(0.7071 -0.7071 0.7071 0.7071 8.6796 110.2601)" class="st1" width="5.7" height="3.5"/>
	</g>
</g>
<g>
	<g>
		<polygon class="st2" points="101.6,98.9 89.7,98.9 89.7,75.3 101.6,75.3 101.6,78.8 93.2,78.8 93.2,95.4 101.6,95.4 		"/>
		<rect x="89.7" y="85.3" class="st2" width="11.9" height="3.5"/>
	</g>
	<path class="st2" d="M113.4,89.6l-5.8-2.3c-2.4-1.5-2.9-3.2-2.9-4.3v-2.5c0-3,2.4-5.4,5.4-5.4h2.9c3,0,5.4,2.4,5.4,5.4v1.2h-3.5
		v-1.2c0-1-0.8-1.9-1.9-1.9h-2.9c-1,0-1.9,0.8-1.9,1.9v2.5c0,0.3,0.4,0.8,1.1,1.3l5.4,2L113.4,89.6z"/>
	<path class="st2" d="M113,98.9h-2.9c-3,0-5.4-2.4-5.4-5.4v-1.2h3.5v1.2c0,1,0.8,1.9,1.9,1.9h2.9c1,0,1.9-0.8,1.9-1.9v-2.5
		c0-0.3-0.4-0.8-1.2-1.3l-5.1-2l1.3-3.3l5.6,2.2c1.9,1.2,2.9,2.7,2.9,4.4v2.5C118.4,96.5,116,98.9,113,98.9z"/>
	<rect x="77.6" y="87.6" class="st2" width="3.5" height="11.4"/>
	<polygon class="st2" points="79.3,94.3 70.8,76.6 74,75.1 79.3,86.2 84.7,75.1 87.8,76.6 	"/>
</g>
<g>
	<rect x="20.8" y="48.8" class="st1" width="3.5" height="23.8"/>
	<rect x="37" y="48.8" class="st1" width="3.5" height="4.3"/>
	<rect x="37" y="55.5" class="st1" width="3.5" height="17"/>
	<rect x="43.3" y="68.3" class="st1" width="3.5" height="4.3"/>
	<rect x="43.3" y="48.8" class="st1" width="3.5" height="17"/>
	<path class="st1" d="M34.2,72.5h-3.5V59.1l-6.3,0l0,13.5h-3.5V59.1c0-2,1.6-3.6,3.6-3.6h6.3c2,0,3.6,1.6,3.6,3.6V72.5z"/>
</g>
<path class="st1" d="M49.3,139H16.1v-32.7H33l9.6-6.7v6.7h6.7V139z M19.6,135.5h26.2v-25.7h-6.7v-3.5l-5,3.5H19.6V135.5z"/>
<polygon class="st3" points="108.5,0 67.7,0 67.7,29.5 75,29.5 75,38.8 84.7,29.5 108.5,29.5 "/>
<rect x="76.7" y="8.8" class="st1" width="22.7" height="3.5"/>
<rect x="76.7" y="16.7" class="st1" width="22.7" height="3.5"/>
<g>
	<path class="st0" d="M38.8,123.4l0.5-0.5c1.7-1.7,1.7-4.4,0-6.1l-0.1-0.1c-1.7-1.7-4.4-1.7-6.1,0l-0.5,0.5l-0.5-0.5
		c-1.7-1.7-4.4-1.7-6.1,0l-0.1,0.1c-1.7,1.7-1.7,4.4,0,6.1l0.5,0.5l6.1,6.1L38.8,123.4z"/>
</g>
</svg>
