<?xml version="1.0" encoding="utf-8"?>
<!-- Generator: Adobe Illustrator 22.1.0, SVG Export Plug-In . SVG Version: 6.00 Build 0)  -->
<svg version="1.1" id="Layer_1" xmlns="http://www.w3.org/2000/svg" xmlns:xlink="http://www.w3.org/1999/xlink" x="0px" y="0px"
	 viewBox="0 0 82.4 104.8" style="enable-background:new 0 0 82.4 104.8;" xml:space="preserve">
<style type="text/css">
	.st0{fill-rule:evenodd;clip-rule:evenodd;fill:#FFFFFF;}
	.st1{fill-rule:evenodd;clip-rule:evenodd;fill:#FFCA05;}
	.st2{fill-rule:evenodd;clip-rule:evenodd;fill:#823531;}
</style>
<g>
	<path class="st0" d="M41.2,0C18.5,0,0,18.6,0,41.2v22.4c0,22.7,18.5,41.2,41.2,41.2c22.7,0,41.2-18.5,41.2-41.2V41.2
		C82.4,18.6,63.9,0,41.2,0z"/>
	<g>
		<g>
			<polygon points="19.9,13.3 21.5,12.2 25.4,17.8 25.5,17.6 26.5,17 25.5,15.6 22.6,11.4 24.2,10.3 23.9,9.8 19.7,12.7 19.6,12.8 
				19.7,13 			"/>
			<polygon points="61.5,11.6 60.9,11.2 59.8,12.1 56.6,14.4 57.7,9.2 56.5,8.4 54.9,16.4 59.8,12.9 			"/>
			<polygon points="28.4,11.7 29.9,14.9 31.2,14.3 29.6,10.9 30.3,6.6 29.6,7 29,10.5 26.1,8.6 25.5,8.8 24.6,9.3 25.5,9.9 			"/>
			<polygon points="15.7,28.8 15.2,28.6 14,31.6 11.2,30.5 12.3,27.7 11.7,27.5 10.7,30.3 8.2,29.3 9.3,26.3 8.8,26.1 7.2,30.4 
				14,33 			"/>
			<path d="M36.5,12.5c0.2,0.2,0.6,0.4,0.9,0.5c0.4,0.1,0.7,0.2,1.1,0.1c0.9-0.1,1.5-0.4,1.9-0.9c0.4-0.5,0.5-1.2,0.5-2.2l-0.4-4.7
				l-0.6,0.1l0.4,4.4c0.1,0.9,0,1.5-0.2,1.8c-0.2,0.4-0.6,0.6-1.2,0.6c-0.6,0-1-0.1-1.3-0.4c-0.3-0.3-0.4-0.9-0.5-1.8l-0.4-4.4
				l-1.4,0.1l0.4,4.7c0,0.5,0.1,0.9,0.3,1.2C36.1,12.1,36.3,12.3,36.5,12.5z"/>
			<polygon points="13.2,38.5 9.7,38.1 10.1,35 13.5,35.5 13.7,34.1 6.4,33.2 6.2,34.6 9.5,35 9.2,38 5.8,37.6 5.7,39 13,39.9 			
				"/>
			<polygon points="19.7,18 21.8,20.4 22.8,19.5 19.7,15.9 18.4,14.3 18.1,13.9 17,14.8 18.4,16.4 			"/>
			<polygon points="13.2,43.2 13.1,41.9 6.3,42.6 6.1,40.7 5.5,40.7 6.1,45.9 6.6,45.9 6.4,44 			"/>
			<polygon points="75.7,35.1 72.2,35.8 68.9,36.3 69.2,37.7 72.2,37.1 75.9,36.5 76.2,38.4 76.8,38.3 75.9,33.1 75.3,33.2 			"/>
			<polygon points="48.4,11 45.5,5.3 44.3,5.1 43,12.4 43.7,12.5 44.7,6.7 48,13.3 48.7,13.4 49.9,6.1 49.3,6 			"/>
			<polygon points="68.3,32.1 67.9,32.3 68.3,33.5 68.3,33.6 72.2,32.4 75.4,31.4 75,30.1 72.2,31 			"/>
			<path d="M13.8,23.7c0.9,0.7,1.8,1.1,2.8,1c0.7,0,1.3-0.2,1.8-0.6c0.2-0.2,0.4-0.4,0.6-0.6c0.3-0.4,0.5-0.8,0.7-1.2
				c0-0.2,0.1-0.4,0.1-0.5c0-0.4,0-0.9-0.1-1.3c-0.1-0.2-0.1-0.4-0.2-0.6L19,20.1c0.3,0.5,0.3,1,0.3,1.5c0,0.5-0.2,0.9-0.5,1.3
				c-0.1,0.1-0.2,0.3-0.4,0.4c-0.4,0.3-0.9,0.5-1.4,0.4c-0.7-0.1-1.4-0.4-2.2-1.1c-0.8-0.7-1.3-1.4-1.5-2.1
				c-0.2-0.7-0.1-1.4,0.4-1.9c0.3-0.3,0.6-0.6,1-0.7c0.4-0.1,0.8-0.1,1.3,0l0.1-0.5c-0.6-0.1-1.1-0.1-1.6,0.1
				c-0.5,0.2-0.9,0.5-1.3,1c-0.7,0.8-0.9,1.7-0.8,2.7C12.5,22.1,13,22.9,13.8,23.7z"/>
			<polygon points="76.9,39.4 73.1,41.9 72.2,41.9 69.5,41.9 69.5,43.2 72.2,43.2 73.3,43.2 76.9,45.7 76.9,44.9 73.9,42.9 76.9,41 
							"/>
			<path d="M69.7,25.4c-0.2,0.3-0.3,0.8-0.3,1.5v0c0,1.2-0.3,1.9-0.9,2.1c-0.1,0-0.1,0.1-0.2,0.1c-0.3,0.1-0.6,0.1-0.8,0
				c-0.3-0.1-0.6-0.4-0.7-0.8c-0.1-0.3-0.1-0.6-0.1-0.9c0.1-0.3,0.2-0.6,0.4-0.8l-0.6-0.4c-0.3,0.4-0.4,0.8-0.5,1.2
				c0,0.4,0,0.8,0.2,1.3c0.3,0.6,0.7,1.1,1.2,1.4c0.2,0.1,0.5,0.2,0.7,0.2c0.3,0,0.7,0,1.1-0.2c0.5-0.2,0.8-0.5,1-0.8
				c0.2-0.4,0.3-1,0.3-1.9c0-0.6,0.1-1,0.2-1.2c0.1-0.3,0.3-0.4,0.6-0.5c0.2-0.1,0.5-0.1,0.7-0.1c0.1,0,0.2,0,0.3,0.1
				c0.3,0.1,0.5,0.3,0.6,0.7c0.1,0.3,0.2,0.6,0.1,0.9c-0.1,0.3-0.2,0.6-0.5,0.8l0.5,0.3c0.3-0.3,0.5-0.7,0.6-1.2
				c0.1-0.4,0-0.9-0.2-1.4c-0.3-0.6-0.7-1.1-1.2-1.3c-0.1,0-0.1,0-0.1-0.1c-0.5-0.2-1-0.2-1.6,0.1C70.2,24.8,69.9,25.1,69.7,25.4z"
				/>
			<polygon points="54.6,7.7 53.4,7.2 50.5,14 51.7,14.5 			"/>
			<path d="M62.4,21.9l0.8,1.1l1.2-0.9l3.9-3l0.3-0.3l0.3,0.4c0.4,0.5,0.6,1,0.6,1.4c0,0.4-0.2,0.8-0.7,1.1
				c-0.2,0.1-0.4,0.2-0.6,0.3c-0.2,0-0.4,0-0.6,0c-0.4-0.1-0.8-0.4-1.4-1l-1.7,3.9l0.9,1.2l1.5-3.7c0.4,0.4,0.8,0.7,1.2,0.8
				c0,0,0.1,0,0.1,0c0.5,0.1,0.9-0.1,1.3-0.4c0.5-0.4,0.8-1,0.8-1.6c0-0.6-0.3-1.3-0.9-2l-1.4-1.8l-0.1-0.1l-3.8,2.9L62.4,21.9z"/>
			<polygon points="58,17.9 59.8,19.6 61.3,21.1 61.6,20.7 59.8,18.8 59.4,18.4 59.8,18.1 61.5,16.3 63.6,18.4 64,18 61.9,15.9 
				63.8,14 64.4,14.6 66.1,16.3 66.5,15.9 64.4,13.8 63.2,12.7 59.8,16.1 			"/>
			<polygon points="41.9,97.2 40.3,92 38.9,91.9 39.8,94.9 38.9,97.1 37.2,91.8 35.8,91.7 38.3,99.5 40.1,95.6 41.4,99.7 44.8,92.3 
				44.1,92.3 			"/>
			<polygon points="66.5,75.5 66.1,76.8 68.9,77.8 73,79.3 73.5,78 68.9,76.4 			"/>
			<path d="M67.8,81.5c0.3-0.5,0.5-1,0.4-1.5c0-0.4-0.3-0.8-0.7-1.1c-0.6-0.4-1.1-0.5-1.7-0.4c-0.6,0.2-1.1,0.6-1.6,1.4l-0.5,0.7
				L62.7,82l0.9,0.6l5.2,3.6l0.1-0.2l0.6-0.9l-0.6-0.5l-5-3.5l0.3-0.5c0.4-0.5,0.8-0.8,1.2-0.9c0.4-0.1,0.8,0,1.3,0.3
				c0.4,0.3,0.6,0.6,0.6,1c0,0.4-0.2,0.9-0.6,1.6l2.2,0.3l2,0.3l0.9-1.3l-2.9-0.3L67.8,81.5z"/>
			<path d="M13.4,81.4c0.5-0.1,1-0.3,1.4-0.6c0.5-0.4,0.9-0.8,1.2-1.3c0.3-0.5,0.4-1.1,0.4-1.7c0-0.4,0-0.8-0.2-1.2
				c-0.1-0.4-0.3-0.7-0.5-1.1c-0.3-0.4-0.6-0.7-1.1-1c-0.4-0.3-0.9-0.4-1.4-0.5c-0.2-0.1-0.5-0.1-0.7-0.1c-0.3,0-0.5,0-0.7,0.1
				c-0.5,0.1-1,0.3-1.4,0.7c-0.4,0.3-0.8,0.7-1.1,1.1c-0.3,0.4-0.5,0.9-0.6,1.4c-0.1,0.5-0.1,1,0,1.5C9,79,9.2,79.5,9.5,79.9
				c0.3,0.4,0.6,0.8,1.1,1c0.4,0.3,0.9,0.4,1.4,0.5c0.2,0.1,0.5,0.1,0.7,0.1C12.9,81.5,13.2,81.5,13.4,81.4z M11.6,80.4
				c-0.8,0-1.3-0.3-1.7-0.8c-0.4-0.6-0.5-1.2-0.2-1.9c0.3-0.7,0.8-1.4,1.6-1.9c0.4-0.3,0.9-0.5,1.3-0.7c0.4-0.1,0.7-0.2,1.1-0.2
				c0.8,0,1.3,0.3,1.7,0.8c0.4,0.6,0.5,1.2,0.2,1.9c-0.3,0.7-0.8,1.4-1.6,1.9c-0.5,0.3-0.9,0.5-1.3,0.7C12.3,80.4,12,80.4,11.6,80.4
				z"/>
			<polygon points="68.9,73.8 67.8,72.1 67.5,72.9 68.9,75 70,76.7 74.2,75.9 74.8,74.4 70,75.3 			"/>
			<path d="M64.5,85.3c-0.3-0.3-0.6-0.6-0.9-0.8c-0.2-0.1-0.4-0.2-0.5-0.3c-0.5-0.2-0.9-0.3-1.4-0.3c-0.1,0-0.2,0-0.3,0
				c-0.4,0-0.8,0.1-1.2,0.3c-0.4,0.1-0.7,0.3-1,0.6c-0.4,0.3-0.7,0.7-0.9,1.1c-0.2,0.4-0.4,0.9-0.4,1.4c-0.1,0.5,0,1,0.2,1.5
				c0.1,0.5,0.4,0.9,0.8,1.4c0.3,0.4,0.8,0.7,1.2,1c0.4,0.2,0.9,0.4,1.4,0.4c0.1,0,0.2,0,0.3,0c0.4,0,0.8-0.1,1.2-0.2
				c0.3-0.1,0.5-0.2,0.8-0.4c0.2-0.1,0.3-0.2,0.5-0.4c0.4-0.3,0.7-0.7,0.9-1.1c0.2-0.4,0.4-0.9,0.4-1.4c0.1-0.5,0-1-0.2-1.5
				C65.1,86.1,64.8,85.7,64.5,85.3z M63.8,90.3c-0.1,0.1-0.1,0.1-0.2,0.1c-0.5,0.3-1,0.4-1.7,0.2c-0.1,0-0.2-0.1-0.3-0.1
				c-0.6-0.2-1.2-0.7-1.8-1.4c-0.6-0.8-1-1.5-1.1-2.3c-0.1-0.7,0.2-1.4,0.7-1.8c0.5-0.4,1.1-0.6,1.9-0.4c0.1,0,0.2,0.1,0.3,0.1
				c0.6,0.2,1.2,0.7,1.8,1.4c0.1,0.1,0.1,0.2,0.2,0.3c0.5,0.7,0.8,1.3,0.9,2C64.5,89.2,64.3,89.8,63.8,90.3z"/>
			<polygon points="28.2,88.3 27.7,88 27.6,88 25.1,92.4 24.3,86.1 23.2,85.5 19.6,91.8 20.1,92.2 23.1,87.1 23.9,94.4 24.5,94.7 
				27.7,89.2 			"/>
			<polygon points="20.2,83.4 20.6,83 17.6,79.5 12.7,83.6 12,84.2 12.7,85.1 12.8,85.2 15.6,82.9 17.6,85.3 18,85 16,82.6 
				18.1,80.9 			"/>
			<polygon points="56.1,87.7 55.4,88.1 55,91.7 52,89.9 50.5,90.6 54.5,92.9 56.2,96 57.4,95.4 55.6,92 			"/>
			<polygon points="27.7,95 27.2,96.3 27.7,96.5 31.5,97.9 31.7,97.4 28.7,96.3 29.7,93.4 32.5,94.5 32.7,94 29.9,92.9 30.8,90.4 
				33.8,91.5 34,91 29.7,89.4 			"/>
		</g>
		<path class="st1" d="M41.2,0C18.5,0,0,18.6,0,41.2v22.4c0,22.7,18.5,41.2,41.2,41.2c22.7,0,41.2-18.5,41.2-41.2V41.2
			C82.4,18.6,63.9,0,41.2,0z M81,63.6c0,21.9-17.9,39.7-39.8,39.7c-21.9,0-39.7-17.9-39.7-39.7V41.2c0-21.9,17.9-39.7,39.7-39.7
			C63.1,1.5,81,19.3,81,41.2V63.6z"/>
		<g>
			<path class="st2" d="M37.8,20.4H38l0.1-0.1c0.2-2.4,2.7-2.3,4.4-1.8l0.1,0.3c-0.2,0.8-0.4,1.5-0.7,2.3l-0.5,0.1l-0.2,0L41,21.4
				l-0.1,0.2l-0.1,0.2l0,0.2l0.1,0.2l0.5,0.1l0.2,0.2l0,0.3c-0.2,1.5-0.6,3-0.7,4.5c0,4.3,6.8,6,8.7,2.8c-0.3,0-0.6,0-0.9,0
				c-0.3,1.5-6.6,1.4-6.2-3.9l0.8-3.9h1.6c-0.3,2.1-1,3.9-1.4,6.1l1.3-0.1l1.4-4.6l1.1-1.3l0.2-0.1c0.9-0.2-0.2,2.8-0.1,3.8
				c-0.1,2.5,1.5,2.6,2.9,1.2c0.4,0.7,1.2,0.9,2,0.8c1-0.2,2-0.9,2-1.9l-0.4-0.1c-0.7,0.7-1.2,1-1.6,1c-0.8,0.1-1.1-1-0.9-2.5
				c0.3-0.2,0.6-0.4,0.9-0.7c1.6-1.6,2.2-3.9,1.3-4.1c-0.3-0.1-0.7,0-1.3,0.3c-0.4,0.3-0.9,0.7-1.4,1.5c-1.1,1.9-1.3,3.3-1,5.4
				c-1.3,0.5-0.7-1.2-0.6-2c0.4-1.4,1.4-5.9-1.6-3.7l-1.2,1.2c0.4-2.6,1.1-5.4,1.1-7.5c-0.3-1.4-1.8-1.4-2.3-0.1l0.2,0.2
				c1.6,0,0,5.1-0.1,6.1l-1.8,0c-0.1-0.3,1.1-4.7,0.3-4.2l-0.5,0.7c-0.4,0.1-0.6,0-1,0l-1.2-0.1c-1.3,0-2.1,0-3.1,0.9
				c-0.5,0.9-0.6,1.2-0.5,2.2L37.8,20.4z M52,22c0.1-0.1,0.2-0.3,0.2-0.4c0.3-0.3,0.5-0.5,0.6-0.4c0.1,0.1,0,0.6-0.4,1.1
				c-0.1,0.1-0.1,0.2-0.2,0.3C51.5,23.5,51.3,22.9,52,22z"/>
			<path class="st2" d="M33.4,42.5l0.6-1l-0.6-0.4c-5.5,8.3-16.7,2.1-10.4-6c1.2-1.1,3-1.4,4.4-0.7c0.4,0.4,0.5,0.6,0.5,1.2l0.6-0.1
				l0.3-0.3c-0.1-0.7,0.1-1.2,0.3-1.9L28.8,33c-2.5-0.4-4.7-0.8-7.2,1.6C14.4,43.3,26.8,51.2,33.4,42.5z"/>
			<path class="st2" d="M29.2,40.3c0.6,0.4,1.3,0.4,2.1,0c0.7-0.4,1.5-1.1,2-2.1c1.1-2,1.1-4.4,0-5.3c-0.6-0.4-1.3-0.4-2-0.1
				c-0.8,0.4-1.5,1.1-2.1,2.2C28.1,37.1,28.1,39.5,29.2,40.3z M30.2,36.5c0.2-1.1,0.6-2,1.1-2.3c0.2-0.1,0.3-0.2,0.5-0.2
				c0.6,0.1,0.9,1.4,0.6,2.9c-0.2,1.1-0.6,2-1.1,2.3c-0.2,0.1-0.3,0.2-0.5,0.2C30.2,39.3,29.9,38,30.2,36.5z"/>
			<path class="st2" d="M32.3,47.7c-0.8,0.4-1.5,1.1-2.1,2.2c-1.1,2-1.1,4.4,0,5.2c0.6,0.4,1.3,0.4,2,0.1c0.7-0.4,1.5-1.1,2.1-2.1
				c1.1-2,1.1-4.4,0-5.2C33.8,47.3,33,47.4,32.3,47.7z M33.4,51.5c-0.2,1.1-0.6,2-1.1,2.3C32.1,54,32,54.1,31.8,54
				c-0.6-0.1-0.9-1.4-0.6-2.9c0.2-1,0.6-1.9,1.1-2.3c0.2-0.1,0.3-0.2,0.5-0.2C33.4,48.8,33.6,50.1,33.4,51.5z"/>
			<path class="st2" d="M52.4,32.2c-0.6,0.4-1.3,1.1-1.7,1.9c-1.2,2.1-1.1,4.5,0,5.4c0.4,0.3,1,0.3,1.7,0.1c1-0.2,2-0.8,2.4-1.4
				c0.2-0.3,0.4-0.6,0.1-0.9c-0.3-0.2-0.7,0.1-1.1,0.5c-0.3,0.3-1,0.6-1.4,0.5c-0.1,0-0.1,0-0.2-0.1c-0.4-0.2-0.7-0.6-0.8-1.1
				c0-0.3,0-0.6,0.2-1c0.2-0.3,0.4-0.4,0.7-0.6c0.1-0.1,0.3-0.2,0.4-0.3c0.8-0.6,2.6-2,1.9-3.2C54.4,31.4,53.4,31.6,52.4,32.2z
				 M52.7,34.1c-0.1,0.2-0.2,0.3-0.3,0.5c-0.2,0.3-0.4,0.4-0.5,0.3c-0.1-0.1-0.1-0.7,0.2-1.2c0.1-0.2,0.2-0.4,0.3-0.5
				c0.2-0.3,0.4-0.4,0.5-0.3C53,33.1,53,33.6,52.7,34.1z"/>
			<path class="st2" d="M51,63.6l1,0l0.8-2.3c0.5-1.8,1.8-4.6,2.4-3.7l-0.2,1.6L54.8,61c-0.4,2.6,1.8,3,2.7,1.4l-0.3-0.3
				c-0.8-0.1-0.7-0.3-0.7-1.1c0.3-0.6,2.2-7.5-1.5-4.7l-1.4,1.2l0.2-0.8c0-1.4-1.4-0.9-2.3-0.5c0-0.2-0.1-0.3-0.2-0.5
				c-0.3-0.5-1-0.5-1.8-0.2l0-0.1l-0.4-0.1h-2.3l0.6-2.3l0.1-0.6l-0.2-0.2L47,52.1l-0.4,0.1c-0.5,1.2-0.9,2.8-2.2,3.2l0,0.8h0.5
				l-0.7,4.1c-0.1,0.8-0.1,1.6-0.1,2.2L44,62.5c-1.2,0.4-0.7-0.7-0.8-1.3l1-4.8c-0.3-1.1-2.1-0.5-2.9-0.2c-0.1,0-0.2,0.1-0.3,0.2
				l0-0.4l-0.4-0.2l-2.3,0.1l0.7-2.2l0.1-0.6l-0.2-0.2l-0.3-0.1l-0.4,0.1l-0.6,1.3l-0.2,0.6L37.2,55L37,55.3l-0.2,0.2l-0.2,0.2
				l-0.3,0.2l-0.1,0c0.3-2.3,0.6-4.6,0.9-6.7l1.4,0l0.3-0.2l0.1-0.3l0-0.4l-0.2-0.2l-1.3,0l0.1-1c0.6-3.3,1-4.7,4.4-5.1
				c-1.5,1.2-2.6,2.8-2.7,4.6v0.5c0,0.7,0.2,1.4,0.5,2.1l0.5,0.7l0.6,0.6c1.4,0.8,3.1,1.1,4.9,0.9c0.7-0.1,1.5-0.2,2.2-0.5
				c2.3-0.7,4.3-2.3,4.7-4.3V45c-0.2-0.9-0.7-1.9-1.6-2.9l-0.5-0.4l-0.5-0.4L49.5,41c-0.5-0.2-1.1-0.5-1.6-0.9
				c-1.1-0.7-1.9-1.6-0.7-2.8l0.7-0.4l0.6-0.4c1-0.8,1.8-1.5,2-2.8l0-0.5l0.2-0.2l1.4-0.7l0-0.4c-0.9,0.1-1.4,0.7-2.4,0.2
				c-0.5-0.1-1.1-0.1-1.7,0.1c-0.8,0.3-1.6,0.8-2.2,1.4c-0.8,0.9-1,2,0,2.9c0.1,0.1,0.2,0.2,0.3,0.2l-0.1,0.4l-0.2,0.1l-0.1,0
				c-0.1,0.2-0.3,0.3-0.3,0.5c0-0.1,0-0.3-0.2-0.4c-0.3-0.2-0.7,0.1-1.1,0.5c-0.3,0.3-0.9,0.6-1.4,0.5c-0.1,0-0.1,0-0.2-0.1
				c-0.4-0.2-0.7-0.6-0.8-1.1c0-0.3,0-0.6,0.2-1c0.2-0.3,0.4-0.4,0.8-0.6c0.1-0.1,0.3-0.2,0.4-0.3c0.8-0.6,2.6-2,1.9-3.2
				c-0.3-0.6-1.4-0.5-2.4,0.1c-0.6,0.4-1.3,1.1-1.7,1.9c-0.8,1.5-1,3.2-0.7,4.3c-0.9,0.4-1.4,0.5-1.4-0.6l0.1-0.6l1.2-10.5
				c0.2-0.7,0.2-0.9-0.4-0.9l-1.8,0.2l-0.2,0c-0.2,0.2-0.1,0.5-0.1,0.8c0.4,0.1,0.8,0,0.9,0.4l-1.4,11.8c0.3,2.1,2.2,1.1,3.1,0
				l-0.1-0.7c0.1,0.4,0.4,0.8,0.7,1c0.4,0.3,1,0.3,1.7,0.1c1-0.2,2-0.8,2.4-1.4c0,0,0-0.1,0.1-0.1c-0.4,1.2,0.5,2-1.2,2.6
				c-0.7,0.4-1.4,0.8-2,1.3l0.1-0.6L42,40.8c-3.8,0.2-5.3,2.6-5.9,6.1l-0.2,1.2l-0.1,0.4l-0.4,0.3l-0.2,0.4l0.3,0.3l0.3,0.1
				c-0.6,3.9-0.8,8.3-2,12.1c-0.3,0.6-0.7,1.2-1.2,1.7c-0.9-1-2.4-1.9-3.5-3.1c-0.3-0.8-0.1-1.4,0.1-2c1.3-1.8,3.5-1.3,5.6-1.3
				l0.2-1c-3.2,0.1-7.3,0-7.5,3.9c0.4,2.2,2.7,3.3,3.9,4.5c-2.6,1.6-6.1,1.5-5.7-2c0.2-0.5,0.4-0.7,0.8-1.1l-0.2-0.5
				c-0.6,0.1-1.1,0.3-1.7,1c-2,5.3,3.5,6.1,7.4,3.6c0.2,0.7,0,1.5-1.1,2.7c-6.1,4.6-18.3,0.7-12.6-7.5c1-1.4,0.1-1.6-0.7-0.6
				c-8.4,10.5,9.2,15,14.8,8.2c0.4-0.6,0.7-1.1,0.9-1.6l0.1,0l0.3,0.1l0.4,0.1l0.2,0.3l0,0.4l-1.6,11.5l-0.1,0.3l-0.3,0.2l-0.3,0.2
				l-0.5,0.2l-0.1,0.4l-0.1,0.4l3.9-0.1l0-0.3l0-0.4l-0.4-0.2l-0.3-0.2l-0.2-0.2L36,67.3l0-0.3l0.3-0.3l0.4-0.1l0.4,0l0.1,0
				c0.9,0.7,2.4,0.8,4.5-0.3c0.1-0.1,0.3-0.2,0.4-0.3l0,0.3l0.1,0.3l0.6,0.1l0.2,0.1l0.1,0.2l-1.3,10.7l0,1.1
				c0.2,1.6,1.4,1.4,2.5,0.6l0.3-0.3c0.1,0.1,0.2,0.2,0.3,0.2c1.1,0.3,2-0.4,2.8-1.1c0,0,0.1-0.1,0.1-0.1l0.3-0.3
				c0.2,1.2,0.6,2.4,2.9,1.1l0.2-0.2v-0.2l-0.2-0.3l-0.3,0c-0.9,0.1-0.8-0.6-0.7-1.3l1-4.7l-0.1-0.3c-0.8-0.7-2-0.6-3.1,0.1
				c-1.7,1-3.4,3.2-3.7,5v1.1c0,0,0,0,0,0c-0.6,0.1-0.7-0.2-0.6-1.3l1.2-10.5l0.2-0.7l-0.1-0.1l-0.1-0.1l-0.4,0l-1.8,0.2l-0.1,0
				c0.1-0.2,0.1-0.4-0.3-0.4c-2.4,1.1-4.7,1.9-4.7-2.6c0-2,0.5-4,0.9-5.9h2.5c-1.4,1.2-2.5,3.1-2.6,5v0.6c0,0.3,0.1,0.7,0.2,1
				c0.9,0.7,2.1-0.1,2.9-0.8c0.2-0.2,0.4-0.3,0.5-0.5l0.3-0.4l0,0.8c0.2,1.7,1.9,1.5,2.4,0.7c0.3,2.3,1.7,3.4,5.2,2.8
				c1.5-0.6,0.7-1.2-0.5-0.9c-2.7,0.1-3.4-2.3-3.1-4.5l0.7-4.3l1.9,0c-0.4,0.4-0.8,0.9-1.2,1.5c-1.2,2.2-1.1,4.6,0,5.6
				c0.4,0.3,1.1,0.4,1.8,0.2c0.6-0.2,1.3-0.5,1.8-0.9C50.8,63,50.8,63.4,51,63.6z M47.1,34.3c0.1-0.7,0.5-1.2,0.8-1.3
				c0.1,0,0.2-0.1,0.3,0c1,0.2,0.6,2.6-0.3,2.9c-0.1,0-0.2,0-0.3,0C47.2,35.8,46.9,35.1,47.1,34.3z M42.3,33.7
				c0.1-0.2,0.2-0.4,0.3-0.5c0.2-0.3,0.4-0.4,0.5-0.3c0.2,0.1,0.1,0.7-0.2,1.2c-0.1,0.2-0.2,0.3-0.3,0.5c-0.2,0.3-0.4,0.4-0.5,0.3
				C41.9,34.8,42,34.3,42.3,33.7z M45.7,41c0.1,0,0.1,0,0.2,0c0.7,0,1.1,0.4,1.6,0.7c0.1,0.1,0.3,0.2,0.4,0.2c4.3,2.9,2.8,6.7,0,8.1
				c-0.7,0.3-1.4,0.5-2.2,0.6c-1.2,0-2.6-0.4-3.6-1.5C39.2,46.2,42,41.2,45.7,41z M46.5,75.1c0.3-0.6,0.6-1.1,0.9-1.5
				c0.4-0.6,0.9-0.9,1.2-0.8c0.5,0.1,0.4,1.4-0.3,2.7c-0.3,0.6-0.6,1.1-0.9,1.5c-0.5,0.6-0.9,0.9-1.2,0.8
				C45.7,77.7,45.8,76.4,46.5,75.1z M33.4,65.7c0.1-0.5,0-1-0.2-1.4c0.8-0.7,1.4-1.7,1.8-2.7c0.5-1.5,0.8-3.1,1.1-4.8l0.5,0
				l-0.4,2.1l-0.4,2c-0.3,1.6-0.2,3.5,0.6,4.8L33.4,65.7z M41.8,59.8c-0.3,0.6-0.6,1.1-0.9,1.5c-0.4,0.6-0.9,0.9-1.2,0.8
				c-0.8-0.2,0.1-2.9,1.2-4.3c0.4-0.5,0.8-0.8,1.2-0.7C42.6,57.2,42.4,58.4,41.8,59.8z M49.3,57.8c-0.1,0.2-0.2,0.3-0.3,0.5
				c-0.2,0.3-0.4,0.4-0.5,0.3c-0.2-0.1-0.1-0.6,0.2-1.2c0.1-0.2,0.2-0.4,0.3-0.5c0.2-0.3,0.4-0.4,0.5-0.3
				C49.7,56.7,49.6,57.2,49.3,57.8z M49,62.1c-0.5,0-0.9-0.2-1-1.2c0-0.3,0-0.6,0.2-1c0.2-0.3,0.5-0.5,0.9-0.8
				c0.8-0.6,1.8-1.3,2.2-2.2l0.4,0l0.1,0.1l0.1,0.2v0.2v0.2l-0.6,2.8c0,0.1-0.1,0.3-0.1,0.5C50.7,61.2,49.8,62,49,62.1z"/>
			<path class="st2" d="M57.5,73.1c0.2-1.4-1.2-1.7-2.2-0.8l-1.1,1.2L54,73.5l-0.2-0.1l0.2-0.8c0-1-0.8-1-1.6-0.8l-1.1,0.4v0.6
				c0.7,0.1,0.8,0.1,0.8,0.8l-0.6,2.8c-0.1,0.8-0.9,2.5-0.2,3.1l1.2-0.1c0.6-2,1-3.9,2.3-5.6l0.5-0.3l0.2,0l0.2,0.1
				c-0.4,1.7-0.7,3.3-0.6,5.1l0,0.3c0.5,0.7,2,0.3,2.5-0.3l0.1-0.5C56,78.4,56.9,76.2,57.5,73.1z"/>
			<path class="st2" d="M60.2,65.1c-0.6-0.1-1.4,0.1-2.2,0.5L58,66.2c1,0.2,1.7,0.5,2.3,0.9c0.9,0.9,1.1,2.2,1.2,4
				c-0.4,0.1-0.8,0.3-1.2,0.4c-1.9,0.9-2.7,2.4-2.8,5V77l0,0.1c0.1,0.9,0.3,1.8,1.2,2.2l0.4,0.1l0.4,0c0.2-0.1,0.4-0.1,0.7-0.2
				c2.8-1.3,2.8-6,2.9-8.5C63,68.3,62.3,65.4,60.2,65.1z M61.2,75.3c-0.2,1.1-0.6,1.7-1,1.9c-0.7,0.5-1.4-0.5-1-2.5
				c0.2-0.9,0.6-1.7,1-2c0.2-0.2,0.4-0.2,0.6-0.2C61.3,72.6,61.5,73.9,61.2,75.3z"/>
			<path class="st2" d="M40.7,71.7l0.3,0.6h0.4c0.3-0.6,0.3-1.6,0.3-2.3l-0.4-0.1l-0.4,0c-3.1,0.1-6.2,1.6-5.6,5.1
				c1.6,3.1,7.1,4.9,1.8,8.2c-5.3,2.2-15.7-1.4-10.4-9.1l0.1-0.4l0-0.3l-0.4,0.1L26,73.7l-0.5,0.4c-2.4,2.6-2.2,5.8,0.2,8.4
				c3.6,3.5,10.2,3.1,13.8,0.7c4.4-2.9-0.5-6-2.3-8.4C35.5,72.4,39.4,69.9,40.7,71.7z"/>
			<path class="st2" d="M35.3,27.4L34,39.2c0.3,2.1,2.2,1.1,3.1,0L37,38.4c-0.9,0.4-1.4,0.5-1.4-0.6l0.1-0.6l1.3-10.5
				c0.2-0.7,0.2-0.9-0.4-0.9l-1.8,0.2l-0.2,0c-0.2,0.2-0.1,0.5-0.1,0.8C34.9,27,35.3,27,35.3,27.4z"/>
		</g>
	</g>
</g>
<g>
</g>
<g>
</g>
<g>
</g>
<g>
</g>
<g>
</g>
<g>
</g>
<g>
</g>
<g>
</g>
<g>
</g>
<g>
</g>
<g>
</g>
<g>
</g>
<g>
</g>
<g>
</g>
<g>
</g>
</svg>
