<svg xmlns="http://www.w3.org/2000/svg" viewBox="0 0 443.68 168.14"><defs><style>.cls-1{fill:#002d74;}.cls-2{fill:none;}.cls-3{fill:#ae212e;}.cls-4{fill:#fff;}</style></defs><title>Asset 1</title><g id="Layer_2" data-name="Layer 2"><g id="Layer_1-2" data-name="Layer 1"><path class="cls-1" d="M352.56,115.46A61.54,61.54,0,0,0,425.64,105C403.66,101.44,377.42,93.89,352.56,115.46Z"/><path class="cls-2" d="M246,76.69c-14.59-1.85-28.4-5.23-35.07-15.36V85.62h25.57c0,7.69,4.1,11.4,9.5,13.22,4.46,1.55,9.83,1.88,14.57,1.88,14.88,0,21.22-4,21.22-10.78C281.74,80.08,264,79.47,246,76.69Z"/><path class="cls-1" d="M246,52.09c-4.12-1.57-6.67-3.72-6.67-6.79,0-4.61,2.55-7.38,6.67-9.25a38.79,38.79,0,0,1,12.35-1.86c11.8,0,18.39,4.24,19.79,12.9h32.24c-2.21-20.6-20.38-28.28-48.56-28.28-34,0-45.83,9.84-50.89,17.24V21.58h-34V72.7c0,16.61-5.39,22.18-22.21,22.18-17.1,0-22.17-5.57-22.17-22.18V36.18L102.07,96.93c0,5.7,2.73,9.64,9.46,12.9a207.71,207.71,0,0,1,26.3-4.91q2.68-.36,5.44-.61l.29,0,.57,0,1.26-.11c24.78-2.11,44.53,2.25,62.82,7.12,13.47,3.1,26.55,6.45,37.74,8.57,1.81.37,3.55.71,5.25,1,22.8,2.28,37-2.39,43.72-5.58,10.74-5.36,19.79-14.82,19.79-31.44C314.71,54.82,264.34,58.84,246,52.09Zm14.57,48.63c-4.74,0-10.11-.33-14.57-1.88-5.4-1.82-9.5-5.53-9.5-13.22H210.88V61.33c6.67,10.13,20.48,13.51,35.07,15.36,18.06,2.78,35.79,3.39,35.79,13.25C281.74,96.7,275.4,100.72,260.52,100.72Z"/><path class="cls-1" d="M77,122.35,127,21.58H93L63.5,81,34,21.58H0L55.88,134.2A191.67,191.67,0,0,1,77,122.35Z"/><path class="cls-3" d="M29.38,168.14H69.62c68.44-73.9,143.74-28.71,197.61-30.83,25-.89,38-19.45,37.63-19.45s-5.51,5.4-18.17,9.89C239.31,145.71,137.43,64,29.38,168.14Z"/><path class="cls-3" d="M95.26,168.14h37.17c4.24-7.54,21.53-29.9,94.87-26.71,21.09.88,24.31,0,24.31,0s-11.3-.86-20.06-2.32C140.69,124.32,103.71,158.57,95.26,168.14Z"/><path class="cls-3" d="M154,168.14h35.5c4.88-17.68,53.26-22.43,53.26-22.43S178.31,143.19,154,168.14Z"/><path class="cls-3" d="M382.16,0a61.49,61.49,0,0,0-49.49,98c-1.88,5.3-6.45,12.07-17.48,16.32,15.86,0,25-3.5,30.31-7.34,32-19.33,61.74-10,83.53-5.65A61.51,61.51,0,0,0,382.16,0Z"/><path class="cls-4" d="M335.73,36.71h8.14V61.5l9.92-13h9.15l-10.86,14,11.69,16.88H354.2L343.87,63.45V79.39h-8.14Z"/><path class="cls-4" d="M369.67,36.42A4.66,4.66,0,1,1,365,41.08,4.62,4.62,0,0,1,369.67,36.42Zm-4,12.1h8.15V79.39h-8.15Z"/><path class="cls-4" d="M409,79.39h-7.67V76.2a12,12,0,0,1-9.15,4c-8.86,0-15.11-6.67-15.11-16.18s5.78-16.23,14.64-16.23a11.58,11.58,0,0,1,9.15,4v-15H409ZM393.16,55c-4.72,0-7.91,3.72-7.91,9.09S388.56,73,393.16,73c5,0,7.91-4,7.91-8.92C401.07,58.26,397.65,55,393.16,55Z"/><path class="cls-4" d="M411.82,74.43l4.78-4.25a8.8,8.8,0,0,0,7.08,3.37c2.3,0,3.78-1,3.78-2.78,0-4.72-14.58-2.89-14.58-13.87,0-5.73,4.9-9.15,11.22-9.15,5.84,0,9.09,3.07,10.56,5.49l-5.37,4a7,7,0,0,0-5.55-3c-1.89,0-3.19,1-3.19,2.48,0,4.9,14.64,2.54,14.64,13.58,0,6-5.19,9.8-11.86,9.8C417.25,80.16,413.47,77.09,411.82,74.43Z"/></g></g></svg>