<?xml version="1.0" encoding="utf-8"?>
<!-- Generator: Adobe Illustrator 22.1.0, SVG Export Plug-In . SVG Version: 6.00 Build 0)  -->
<svg version="1.1" id="Layer_1" xmlns="http://www.w3.org/2000/svg" xmlns:xlink="http://www.w3.org/1999/xlink" x="0px" y="0px"
	 viewBox="0 0 86.7 89.3" style="enable-background:new 0 0 86.7 89.3;" xml:space="preserve">
<style type="text/css">
	.st0{fill:#61C4F2;}
	.st1{fill:#FF2C2C;}
	.st2{fill:#263357;}
</style>
<g>
	<path class="st0" d="M39.8,71c-1.6-0.6-2.9-1.3-3.7-1.8c-1.7-1.1-2-1.7-2.1-1.9c-0.5-1.1,0.1-1.5-0.2-3.2c-0.3-1.9-1.2-2.3-0.8-3.3
		c0.2-0.5,0.6-0.9,0.9-1.9c0.1-0.2,0.1-0.5,0-0.8c-0.1-0.2-0.3-0.2-0.6-0.5c-0.6-0.4-0.1-1.1-0.2-2.1c-0.1-1.1,0.4-0.8,0.3-2
		c-0.1-1.2-0.1-0.7-0.7-1.3c-0.3-0.3-0.5-0.5-0.8-0.6c-0.4-0.1-0.5,0.1-0.7,0C31,51.5,31,51,30.9,50.3c-0.1-0.5-0.3-1.3-0.8-1.7
		c-0.5-0.4-0.9-0.1-1.9-0.2c-1.3-0.1-1.4-0.7-2.4-0.8c-1.8-0.3-2.6,1.2-3.7,0.8c-0.5-0.2-1.1-0.7-1.5-2.4c-0.7-0.9-1.8-2.7-1.2-3.6
		c0.3-0.5,0.8-0.2,1.6-0.7c0.9-0.6,0.6-1.2,1.7-2.6c1.1-1.3,2-1.5,2.2-1.4c0,0,0,0,0,0c0.2,0,0.2-0.9,0.3-2c0.1-0.2,0.2-0.4,0.3-0.4
		c0.2,0,0.3,0.3,0.6,0.5c0.3,0.2,0.7-0.1,0.9-0.2c1.4-0.8,2.1-0.3,3.5-1.4c0.5-0.4,1.7-1.3,1.9-2.6c0.1-0.8-0.2-1.1,0-2.2
		c0.2-1,0.6-1.1,0.8-2.1c0.1-0.3,0.5-1.7-0.1-2.8c-0.8-1.7-3.2-1.9-3.3-1.9c-0.7-1.1-1.4-2.1-2.2-3.2c-0.5,0.2-1.1,0.5-1.6,0.7
		c0,0,0,0,0,0c-0.2,0.1-0.4,0.2-0.6,0.3c-1.2,1.1-2.3,2.1-3.1,3c-0.4,0.4-0.8,0.8-1.1,1.1c-1.5,1.6-2,2.3-2.2,2.7
		c-0.7,1.1-1.1,1.9-1.7,3.4c0,0,0,0.1-0.1,0.1c0,0.1-0.1,0.2-0.2,0.3c-0.4,0.9-0.8,1.8-1.4,3.5c0,0.1-0.1,0.1-0.1,0.2l-1.2,5.9
		c0,0,0,0.1,0,0.1c0.2,1.1,0.5,2.5,1.3,3.6c0,0,0.4,0.1,0.9,0.3c0.5,0.2,1.2,0.5,1.7,0.8c1,0.7,1.4,1.8,1.4,2.3c0,1-0.4,1.4-0.3,2.7
		c0.1,0.7,0.2,0.6,0.3,1.3c0.1,1.1-0.4,1.7-0.5,2.6c-0.2,0.9,0,1.6,0.3,2.9c0.8,3.3,3.4,6.2,4,6.8c1.4,1.7,2.7,2.8,3.7,3.4
		c0.1,0.1,0.2,0.1,0.2,0.2c0.5,0.4,1.1,0.7,1.6,1c1,0.5,1.9,0.9,2.6,1.3c1.1,0.5,1.4,0.5,2.6,1c0,0,0.1,0,0.1,0l6,1.3c0,0,0,0,0,0
		c0.5-0.1,0.8-0.3,0.8-0.5C41.3,71.6,41.1,71.4,39.8,71z"/>
	<path class="st0" d="M71.6,39.6c-0.3-1.9-0.9-4.2-2-6.7c-1.8-4.2-4.2-7.1-6-8.9c-0.2,0.1-0.3,0.2-0.4,0.3c-0.7,0.6-2.2,1.3-2.2,1.3
		s-0.6,0.3-0.9,0c-0.3-0.3,0.3-2.3-0.8-2.4c-1.1-0.1-4.6-0.1-6.3,1.1c-1.7,1.2-2.9,2.9-2.7,3.2c0.2,0.3,0.5,0.3,0.5,0.9
		c0,0.4,0.3,1.1,0,1.7c-0.2,0.1-0.5,0.4-0.8,0.6c-0.1,0-0.1,0.1-0.2,0.1l0,0c-0.5,0.3-1.2,0.4-1.7-0.2c-0.1-0.1-0.1-0.4-0.1-0.6v0
		c-0.1-0.7-0.2-1.7-0.2-2c-0.1-0.4-0.5-1.4-0.9-1.2c-0.4,0.2-1.8,1.9-2.3,2.1c-0.5,0.2-1.2,0-1.3,0.5c0,0.5,0.6,1.7,1.4,1.6
		c0.7-0.1,1.7-0.8,2-0.7c0.3,0.2,0.7,1.2,0.6,1.7c-0.1,0.5,0.2,0.9-0.9,1.1c-1,0.2-1.7-0.5-2.1,0c-0.4,0.5-1.1,1.7-1,2.2
		c0.1,0.3,1,0.6,1.6,0.7c1.1-0.1,2.3-0.3,2.8-0.7c0.9-0.6,2.4-1.2,2.8-1.2c0.2,0,0.9,0.1,1.8,0.1c0.5,0.6,1.2,1.1,2,1.3
		c0.8,0.1,1.3,0.1,1.6-0.1c0.3-0.2,0.7,0,0.9,0.3c0.1,0.2,0.2,0.4,0.3,0.5c0.6,0.7,0.9,0.2,0.9,0.2s-0.4-0.9,0.1-0.9
		c0.6,0,1.3,0.4,1.3,0.5c0,0.1,0.5,0.7,1.2,1c0.7,0.3,0.5,1,0.5,1s-3.9,0.5-5.5,0.2c-1.6-0.3-2.1-0.8-2.9-1.7
		c-0.9-0.9-0.6-1.9-2.4-1.4c-1.8,0.5-1.9,0.9-3.1,1.1c-1.1,0.2-1.1,0.4-2.1,0.7c0,0,0,0-0.1,0c-0.8,0.2-1.9,0.5-2.2,1.1
		c-0.4,0.8-0.3,0.9-0.8,1.7c-0.5,0.8-1.7,1.5-1.7,1.9c0,0.4-0.3,3.8,0,5.4c0.3,1.6,1,1.8,1.8,2.8c0.8,1.1,1.1,1.2,2.2,1.2
		c1,0,1.9-0.5,3.3-0.6c1.4-0.1,2.4-0.4,3,0.4c0.5,0.8,0.1,1.9,0.8,2.6c0.6,0.7,1.6,0,1.7,1.6c0,1.6-0.3,3.8-0.3,5
		c0,1.2,1.4,3.3,1.7,4.3c0.3,1,0.5,1.2,1.8,1.2c1.3,0,2.1-0.1,3.3-1.5c1.3-1.4,1.8-2.4,2.6-3.5c0.8-1,1.4-2.2,1.5-3.4
		c0.1-1.2-1-1.1,0.5-2.6c1.5-1.5,2.7-2.8,3.7-4.2c0.9-1.4,1.4-3,0.9-3.1c-0.5-0.1-3.7-0.2-3.7-0.2c-0.1,0-1.8,0-2.1-1.8
		c-0.9-6.1-0.1-3.3-0.1-4.9c1.5,1.1,1.4,1.9,1.9,3.2c0.3,0.8,0.3,1.6,0.7,2c0.2,0.2,0.6,0.4,1.2,0.4c0.7,0,4.2,0.3,5.2-2.2
		C73,41.8,71.8,39.8,71.6,39.6z"/>
	<path class="st1" d="M32.6,8.3c1.9,0.6,4-0.4,4.6-2.3c0.6-1.9-0.4-4-2.3-4.6s-4,0.4-4.6,2.3C29.7,5.6,30.7,7.6,32.6,8.3z"/>
	<path class="st1" d="M54.1,81.1c-1.9-0.6-4,0.4-4.6,2.3c-0.6,1.9,0.4,4,2.3,4.6c1.9,0.6,4-0.4,4.6-2.3C57,83.8,56,81.7,54.1,81.1z"
		/>
	<g>
		<path class="st2" d="M73.7,44.7c0-0.6,0-1.2-0.1-1.9c-0.4-6.7-3-12.9-7.4-18c-5.7-6.6-14-10.4-22.7-10.4c-6.1,0-12,1.8-17,5.2
			c-0.2,0.2-0.5,0.3-0.7,0.5c-0.2,0.2-0.5,0.3-0.7,0.5c-3.3,2.5-5.9,5.6-8,9.2h0c0,0,0,0,0,0c-0.5,0.9-0.9,1.7-1.3,2.5
			c0,0,0,0,0,0.1c-1.3,3.1-2.2,6.3-2.4,9.7c-0.1,0.8-0.1,1.6-0.1,2.4c0,16.7,13.6,30.2,30.2,30.2C60.2,74.9,73.7,61.3,73.7,44.7z
			 M43.5,72.5c-15.3,0-27.8-12.5-27.8-27.8c0-0.7,0-1.4,0.1-2.2c0.2-3.1,1-6.1,2.2-8.9c0,0,0,0,0-0.1c0.3-0.8,0.7-1.5,1.2-2.4
			c0,0,0,0,0-0.1c1.9-3.3,4.3-6.2,7.3-8.4c0.2-0.2,0.5-0.3,0.7-0.5c0.2-0.2,0.5-0.3,0.7-0.5c4.6-3.1,10-4.8,15.6-4.8
			c8,0,15.7,3.5,20.9,9.5c4.1,4.7,6.5,10.4,6.8,16.6c0,0.6,0.1,1.1,0.1,1.7C71.3,60,58.8,72.5,43.5,72.5z"/>
		<path class="st2" d="M24.2,5.4c0,0,0.1,0,0.1,0L29,4.9c0,0.2,0,0.5,0.1,0.7l-5.2,2.3c-0.6,0.3-0.9,1-0.6,1.6
			c0.2,0.5,0.6,0.7,1.1,0.7c0.2,0,0.3,0,0.5-0.1L30,7.8c0.1,0.2,0.3,0.4,0.5,0.5l0,0l-3.5,3.1c-0.5,0.4-0.5,1.2-0.1,1.7
			c0.2,0.3,0.6,0.4,0.9,0.4c0.3,0,0.6-0.1,0.8-0.3l4.2-3.7c0.3,0.1,0.7,0.1,1,0.1c2,0,3.9-1.3,4.6-3.3c0.4-1.2,0.3-2.5-0.2-3.7
			c-0.6-1.2-1.6-2-2.8-2.4c-2.2-0.8-4.6,0.2-5.7,2.2L24.1,3c-0.7,0.1-1.1,0.7-1.1,1.3C23,5,23.6,5.4,24.2,5.4z M33.8,2.4
			c0.3,0,0.5,0,0.8,0.1c0.6,0.2,1.1,0.6,1.4,1.2c0.3,0.6,0.3,1.2,0.1,1.8c-0.3,0.9-1.1,1.5-2,1.6c-0.2,0-0.4,0-0.5,0
			c-0.2,0-0.4-0.1-0.5-0.1c-0.1,0-0.2-0.1-0.3-0.2c-0.1-0.1-0.2-0.1-0.3-0.2c0,0,0,0,0,0l0,0c-0.3-0.2-0.6-0.6-0.7-0.9
			c-0.1-0.3-0.2-0.6-0.2-0.9c0-0.1,0-0.2,0-0.3c0,0,0,0,0-0.1c0-0.1,0-0.2,0-0.3c0-0.1,0-0.2,0.1-0.3c0.1-0.2,0.2-0.4,0.3-0.6
			c0.1-0.2,0.3-0.3,0.4-0.5C32.7,2.6,33.2,2.4,33.8,2.4z"/>
		<path class="st2" d="M21.3,16c0.3-0.2,0.6-0.4,0.9-0.7c0.3-0.2,0.6-0.4,0.9-0.6c0.5-0.4,0.7-1.1,0.3-1.7c-0.4-0.5-1.1-0.7-1.7-0.3
			c-0.3,0.2-0.6,0.4-0.9,0.7c-0.3,0.2-0.6,0.4-0.9,0.7c-4.2,3.2-7.6,7.2-10.2,11.8h0c0,0,0,0,0,0c-0.6,1.1-1.2,2.2-1.6,3.3
			C8,29.3,8,29.5,8,29.7c0,0.7,0.5,1.2,1.2,1.2h0c0.5,0,0.9-0.3,1.1-0.7c0,0,0-0.1,0-0.1c0.4-1,0.9-2,1.5-3.1c0,0,0,0,0-0.1
			C14.3,22.7,17.5,19,21.3,16z"/>
		<path class="st2" d="M7.6,24.7c2.7-4.9,6.4-9.1,10.8-12.5c0.4-0.2,0.7-0.5,1-0.8c0.3-0.2,0.7-0.5,1-0.7c0.5-0.4,0.7-1.1,0.3-1.7
			c-0.4-0.5-1.1-0.7-1.7-0.3c-0.4,0.2-0.7,0.5-1,0.8c-0.3,0.2-0.7,0.5-1,0.8c-4.7,3.6-8.6,8.1-11.5,13.3h0c0,0,0,0,0,0.1
			c-0.7,1.3-1.3,2.5-1.8,3.7c0,0,0,0,0,0.1c-1.9,4.4-3.1,9.1-3.5,14c0,0.7,0.4,1.2,1.1,1.3c0,0,0.1,0,0.1,0c0.6,0,1.2-0.5,1.2-1.1
			c0.3-4.6,1.4-9,3.3-13.2c0,0,0,0,0-0.1C6.3,27.1,6.9,25.9,7.6,24.7C7.6,24.7,7.6,24.7,7.6,24.7z"/>
		<circle class="st2" cx="8.2" cy="32.8" r="1.4"/>
		<circle class="st2" cx="1.4" cy="44.7" r="1.4"/>
		<path class="st2" d="M62.4,83.9l-4.7,0.5c0-0.2,0-0.5-0.1-0.7l5.2-2.3c0.6-0.3,0.9-1,0.6-1.6c-0.3-0.6-1-0.9-1.6-0.6l-5.2,2.3
			c-0.1-0.2-0.3-0.4-0.5-0.5l0,0l3.5-3.1c0.5-0.4,0.5-1.2,0.1-1.7c-0.4-0.5-1.2-0.6-1.7-0.1L54,79.8h0c-2.4-0.5-4.8,0.8-5.6,3.1
			c-0.4,1.2-0.3,2.5,0.2,3.7c0.6,1.2,1.6,2,2.8,2.4c0.5,0.2,1,0.3,1.6,0.3c1.7,0,3.3-0.9,4.2-2.4l5.6-0.6c0.7-0.1,1.1-0.7,1.1-1.3
			C63.7,84.3,63.1,83.8,62.4,83.9z M52.9,86.9c-0.3,0-0.5,0-0.8-0.1c-0.6-0.2-1.1-0.6-1.4-1.2c-0.3-0.6-0.3-1.2-0.1-1.8
			c0.3-0.9,1.1-1.5,2-1.6c0.1,0,0.2,0,0.3,0c0.1,0,0.1,0,0.2,0c0.2,0,0.4,0,0.6,0.1c0.1,0,0.2,0.1,0.3,0.2c0.1,0.1,0.2,0.1,0.3,0.2
			c0,0,0,0,0,0c0,0,0,0,0,0c0.4,0.3,0.7,0.7,0.8,1.2c0.1,0.2,0.1,0.4,0.1,0.6c0,0.1,0,0.2,0,0.3l0,0.1c0,0.1,0,0.2,0,0.3
			c0,0.1,0,0.2-0.1,0.3c0,0.1-0.1,0.2-0.1,0.3c-0.1,0.3-0.4,0.5-0.6,0.7C54.1,86.7,53.5,86.9,52.9,86.9z"/>
		<path class="st2" d="M85.5,46.7c-0.7-0.1-1.2,0.4-1.3,1.1c-0.3,4.6-1.4,9-3.3,13.2c0,0,0,0,0,0.1c-0.5,1.1-1.1,2.3-1.7,3.5
			c0,0,0,0,0,0.1c-2.7,4.9-6.4,9.1-10.8,12.5c-0.4,0.2-0.7,0.5-1,0.8c-0.3,0.2-0.7,0.5-1,0.7c-0.5,0.4-0.7,1.1-0.3,1.7
			c0.2,0.3,0.6,0.5,1,0.5c0.2,0,0.5-0.1,0.7-0.2c0.4-0.2,0.7-0.5,1-0.8c0.3-0.2,0.7-0.5,1-0.8c4.7-3.6,8.6-8.1,11.5-13.3h0
			c0,0,0,0,0-0.1c0.7-1.3,1.3-2.5,1.8-3.7c0,0,0,0,0-0.1c1.9-4.4,3.1-9.1,3.5-14C86.6,47.4,86.1,46.8,85.5,46.7z"/>
		<path class="st2" d="M66.8,75.3c4.2-3.2,7.6-7.2,10.2-11.8h0c0,0,0,0,0,0c0.6-1.1,1.2-2.2,1.6-3.3c0.1-0.2,0.1-0.3,0.1-0.5
			c0-0.7-0.5-1.2-1.2-1.2h0c-0.5,0-0.9,0.3-1.1,0.7c0,0,0,0.1,0,0.1c-0.4,1-0.9,2-1.5,3.1c0,0,0,0,0,0.1c-2.4,4.3-5.6,8.1-9.5,11
			c-0.3,0.2-0.6,0.4-0.9,0.7c-0.3,0.2-0.6,0.4-0.9,0.6c-0.5,0.4-0.7,1.1-0.3,1.7c0.2,0.3,0.6,0.5,1,0.5c0.2,0,0.5-0.1,0.7-0.2
			c0.3-0.2,0.6-0.4,0.9-0.7C66.2,75.7,66.5,75.5,66.8,75.3z"/>
		<circle class="st2" cx="78.6" cy="56.5" r="1.4"/>
		<circle class="st2" cx="85.4" cy="44.7" r="1.4"/>
		<path class="st2" d="M67.7,15.7h2.4v2.4c0,0.7,0.5,1.2,1.2,1.2c0.7,0,1.2-0.5,1.2-1.2v-2.4h2.4c0.7,0,1.2-0.5,1.2-1.2
			s-0.5-1.2-1.2-1.2h-2.4v-2.4c0-0.7-0.5-1.2-1.2-1.2c-0.7,0-1.2,0.5-1.2,1.2v2.4h-2.4c-0.7,0-1.2,0.5-1.2,1.2S67,15.7,67.7,15.7z"
			/>
		<path class="st2" d="M20.6,73.7h-2.4v-2.4c0-0.7-0.5-1.2-1.2-1.2s-1.2,0.5-1.2,1.2v2.4h-2.4c-0.7,0-1.2,0.5-1.2,1.2
			s0.5,1.2,1.2,1.2h2.4v2.4c0,0.7,0.5,1.2,1.2,1.2s1.2-0.5,1.2-1.2v-2.4h2.4c0.7,0,1.2-0.5,1.2-1.2S21.2,73.7,20.6,73.7z"/>
	</g>
</g>
</svg>
