<?xml version="1.0" encoding="utf-8"?>
<!-- Generator: Adobe Illustrator 22.1.0, SVG Export Plug-In . SVG Version: 6.00 Build 0)  -->
<svg version="1.1" id="Layer_1" xmlns="http://www.w3.org/2000/svg" xmlns:xlink="http://www.w3.org/1999/xlink" x="0px" y="0px"
	 viewBox="0 0 152.6 168.4" style="enable-background:new 0 0 152.6 168.4;" xml:space="preserve">
<style type="text/css">
	.st0{fill:#E2E2E2;}
	.st1{fill:#ED3533;}
	.st2{fill:none;stroke:#263357;stroke-width:5.6693;stroke-miterlimit:10;}
	.st3{fill:#69C2ED;}
</style>
<g>
	<g>
		<g>
			<path class="st0" d="M18.6,121.1h46c2.9-3.2,7.1-5.2,11.7-5.2c4.7,0,8.8,2,11.7,5.2h46v20.7c11.4-13.3,18.4-30.6,18.4-49.5
				c0-17.6-6-33.8-16.1-46.7l-25.9,11.1v14.6v13.1c0,10-15.3,18.4-34.1,18.4c-18.8,0-34.1-8.3-34.1-18.4V71.3V56.7L16.3,45.6
				C6.2,58.5,0.2,74.7,0.2,92.3c0,18.9,6.9,36.2,18.4,49.5V121.1z"/>
			<path class="st0" d="M86.8,142.1l-2.6,2.6H68.4l-2.6-2.6h-47c13.9,16.1,34.5,26.2,57.4,26.2c22.9,0,43.5-10.2,57.4-26.2H86.8z"/>
		</g>
		<g>
			<polyline class="st1" points="86.8,144.8 86.8,168.4 76.3,163.1 65.8,168.4 65.8,144.8 			"/>
			<polyline class="st2" points="65.8,121.1 18.6,121.1 18.6,142.1 55.3,142.1 			"/>
			<polyline class="st2" points="97.4,142.1 134,142.1 134,121.1 86.8,121.1 			"/>
			<circle class="st2" cx="76.3" cy="131.6" r="15.7"/>
			<line class="st2" x1="52.7" y1="131.6" x2="47.4" y2="131.6"/>
			<line class="st2" x1="105.1" y1="131.6" x2="99.9" y2="131.6"/>
		</g>
		<g>
			<line class="st2" x1="26.4" y1="50.3" x2="26.4" y2="87"/>
			<path class="st1" d="M76.3,89.7c-18.8,0-34.1-8.3-34.1-18.4v13.1c0,10,15.3,18.4,34.1,18.4c18.8,0,34.1-8.3,34.1-18.4V71.3
				C110.4,81.3,95.1,89.7,76.3,89.7z"/>
			<path class="st2" d="M110.4,55.6v28.9c0,10-15.3,18.4-34.1,18.4c-18.8,0-34.1-8.3-34.1-18.4V55.6"/>
			<polygon class="st3" points="76.3,13.6 21.2,37.2 76.3,60.8 131.4,37.2 			"/>
			<line class="st2" x1="78.9" y1="37.2" x2="73.7" y2="37.2"/>
			<polygon class="st2" points="76.3,3.1 2.8,34.6 2.8,39.8 76.3,71.3 149.7,39.8 149.7,34.6 			"/>
		</g>
	</g>
</g>
</svg>
